<?xml version="1.0" encoding="UTF-8"?><svg id="Capa_2" xmlns="http://www.w3.org/2000/svg" viewBox="0 0 621.25 386.9"><g id="Layer_1"><path d="M173.2,212.05c.78.76-2.53,7.26,3.31,10.24,6.81,3.47,30.57,3.81,31.84,5.18,4.96,5.35-9.94,37.78,15.51,19.91.61,3.05,4.31,6.21,5.07,15.14,1.26,14.76-3.59,43.63,1.18,54.4,9.08,20.53,73.83,28.8,95.08,26.35-15.26,17.13-63.21,45.83-86.23,43.51-28.76-2.9-128.94-81.68-156.95-104.07,29.52,10.63,43.89,8.24,75.3,4.39l.7-80.09h5.07c6.97-1.6,7.11,2.1,10.13,5.05Z" style="fill:#e1dddf;"/><path d="M396.12,201.96c25.19,5.82,18.66,28.69,20.27,30.24,2.85,2.72,68.62,4.69,78.8,5.06s20.31-5.1,17.45,10.12c-27.13,14.84-58.22,34.37-91.19,50.47.43-26.36-21.94,3.62-24.36,4.57-38.03,14.86-23.37-13.21-48.76-14.96-22.99-1.58-79.53,18.63-104.16,25.5l-.04-50.44h50.66c.08,1.09,6.73,20.01,7.78,20.33,50.08-7.77,86.65-34.08,139.11-20.37-15.65-36.89-73.4,3.01-50.63-60.53,1.64.13,3.52-.36,5.07,0Z" style="fill:#dcd5d6;"/><path d="M244.13,262.52l.04,50.44c24.63-6.87,81.16-27.08,104.16-25.5,25.39,1.74,10.73,29.81,48.76,14.96,2.43-.95,24.8-30.93,24.36-4.57-32.34,15.79-56.55,40.84-96.26,45.42-21.25,2.45-86-5.82-95.08-26.35-4.76-10.76.08-39.63-1.18-54.4h15.2Z" style="fill:#e0d9d8;"/><path d="M147.87,201.96c3.28.14,7.25-.59,10.13,0v5.05l-.7,80.09c-31.4,3.85-45.78,6.24-75.3-4.39-21.15-7.61-15.95-6.79-30.4-20.19,11.55-10.4,66.16-27.99,70.87-42.98,6.23-19.87-60.57,12.34-65.77,7.63-4.48-18.99,24.81-11.13,30.07-15.52,2.44-2.04-.98-12.04.3-14.73,1.75-3.67,50.21,4.6,60.79,5.05Z" style="fill:#d7d8d8;"/><path d="M472.11,171.68c10.38,12.43,38.76,7.11,44.83,10.84,5.34,3.29,6.64,47.5,41.29,44.67-17.7,10.29-33.86,13.77-45.6,20.19,2.85-15.22-7.74-9.77-17.45-10.12s-75.95-2.34-78.8-5.06c-1.61-1.54,4.92-24.41-20.27-30.24,6.52-8.06,16.77-7.08,25.33-10.09,17.06-6,33.75-13.76,50.66-20.19Z" style="fill:#d7d8d8;"/><path d="M548.1,146.45c37.67-3.92,18.96,8.81,50.66,10.09-2.71,13.52-2.85,47.37-7.53,55.73-3.19,5.72-29.07,12.64-33,14.92-34.65,2.84-35.96-41.38-41.29-44.67-6.07-3.73-34.45,1.59-44.83-10.84,15.15-5.75,32.95-15.99,50.66-20.19,9.83-2.33,14.15-3.88,25.33-5.05Z" style="fill:#ced2db;"/><path d="M603.83,60.65c35.68-16.87,5.58,22.78,5.07,25.23-27.71,12.41-26.25,44.02-60.79,60.56-11.18,1.16-15.5,2.71-25.33,5.05l-5.11-40.35c-24.44,16.99-50.15,26.76-81.02,15.12,13.45,2.41,8.27-4.58,10.13-10.09.11-.34,6.08.07,5.06-4.98-3.34-.03-6.78-.29-10.12-.06-.24-11.92-3.4-17.52,10.13-15.14.81.63-.81,4.49,0,5.05,11.07,7.62,48.76,5.5,45.6-10.09,1.61-.35,3.5.42,5.07,0l22.76,10.14c-6.31-18.34,11.6-3.91,27.91-10.14,9.92-3.79,24.21-28.29,50.69-17.53,8.18-5.83,2.02-6.75-.03-12.75Z" style="fill:#d3e1f4;"/><path d="M36.42,156.54c10.76,13.65,23.22,19.43,40.53,20.19.81,8.26,2.81,15.28,10.13,20.19-1.28,2.68,2.14,12.69-.3,14.73-5.25,4.4-34.55-3.46-30.07,15.52,5.2,4.71,72-27.5,65.77-7.63-4.71,15-59.32,32.59-70.87,42.98-35.71-33.13-25.62-50.77-30.4-95.89l15.2-10.09ZM71.85,186.88c-5.42-3.62-13.86,2.4-10.07,4.93,5.42,3.62,13.86-2.4,10.07-4.93Z" style="fill:#d8d1d2;"/><path d="M461.98,25.33c16.52,2.21,60.39-5.42,55.73,10.09-2.34,1.96,3.75,22.79-35.46,25.23-9.97.62-32.94-9.37-50.66-5.05-14.97-12.78-21.56-20.26-25.33-40.37,21.63,1.86,36.69,7.55,55.73,10.09Z" style="fill:#ced2db;"/><path d="M517.71,35.42c19.83-16.59,26.49,4.88,28.21,5.24,9.98,2.06,17.14-16.2,32.59,9.9-20.51,15.67-19.95,18.68-50.66,30.28-8.07,3.05-8.77,5.69-25.33,10.09-1.57.42-3.45-.35-5.07,0s-3.42-.25-5.07,0c4.96-13.37-7.46-15.48-10.13-20.19-.99-1.75.66-7.13,0-10.09,39.21-2.45,33.12-23.28,35.46-25.23Z" style="fill:#a4bad1;"/><path d="M360.65,10.19c-24.61,1.22-72.43,11.52-101.32,15.14-23.57,2.96-47.37,7-70.93,10.09-6.79.89-13.46,4.15-20.26,5.05-14.05,1.86-52.92,10.16-45.6-5.05C191.91,24.19,299.37,2.51,365.72.1l-5.07,10.09Z" style="fill:#a4bad1;"/><path d="M608.9,85.89c-4.53,21.71-5.54,47.72-10.13,70.65-31.7-1.28-12.99-14.01-50.66-10.09,34.55-16.54,33.09-48.15,60.79-60.56Z" style="fill:#a4bad1;"/><path d="M122.54,35.42c-7.33,15.21,31.55,6.91,45.6,5.05,2.84,16.09-8.15,8.89-17.67,9.91-18.21,1.97-70.98-1.54-73.53,20.37-11.21-1.22-22.97-7.57-35.46-5.05-.06-3.36.04-6.73,0-10.09.53-.1-1.64-9.38,2.89-10.24,4.4-.84,16.9,7.41,25.17,5.84,9.8-1.86,6.97-10.17,10.34-10.77,4.61-.81,16.69,7.12,25.09,5.69,9.84-1.68,3.61-8.44,17.58-10.71Z" style="fill:#d0d1e0;"/><path d="M41.48,55.61c.04,3.36-.06,6.73,0,10.09.06,3.23-.64,7.5,0,10.09,2.41,9.8,8.29,14.44,10.13,20.19-9.26-2.75-29.24-.6-40.53-5.05-1.13-4.16-20.39-7.22-5.4-28.11,12.91-17.99,26.98-5.62,35.8-7.22Z" style="fill:#8397e2;"/><path d="M51.62,95.98c2.79,8.7-17.88,4.82,10.13,20.19-5.31-3.83-20.05,3.28-20.26,15.14-.06,3.36.04,6.73,0,10.09-4.79.28-10.83-2.86-15.2-5.05-3.18-5.46-7.01-17.66-10.13-25.23-7.25-17.6-3.51-14.46-5.07-20.19,11.29,4.44,31.27,2.3,40.53,5.05Z" style="fill:#d0d1e0;"/><path d="M603.83,60.65c2.05,6,8.21,6.92.03,12.75-26.48-10.76-40.77,13.73-50.69,17.53,3.75-16.29-11.97-8.8-25.33-10.09,30.71-11.6,30.15-14.61,50.66-30.28,2.65-2.03,11.11-5.57,15.13-10.06-4.26,10.62,9.83,19.08,10.2,20.15Z" style="fill:#6889e3;"/><path d="M411.32,5.14c14.51,2.01,52.62,2.25,50.66,20.19-19.03-2.54-34.09-8.24-55.73-10.09-4.28-.37-8.85-4.97-10.13-5.05l15.2-5.05Z" style="fill:#a4bad1;"/><path d="M26.28,136.35c3.54,6.07,6.19,15.18,10.13,20.19l-15.2,10.09c-1.89-17.86-8.68-35.95-5.07-55.51,3.12,7.57,6.95,19.77,10.13,25.23Z" style="fill:#a4bad1;"/><path d="M411.32,5.14l-15.2,5.05c-11.5-.65-23.95-.57-35.46,0L365.72.1c19.47-.71,28.73,2.7,45.6,5.05Z" style="fill:#8397e2;"/><path d="M299.86,222.15c2.9,13.47-5.92,28.15-5.07,40.37h-65.86c-.76-8.93-4.45-12.09-5.07-15.14-1.1-5.49-2.79-10.08-5.07-15.08,11.53-1.12,24.08,1.34,35.46-.06,20.05-2.46,27.98-5.98,45.6-10.09Z" style="fill:#d7d8d8;"/><path d="M223.87,201.96c-.78,6.56.45,13.59-.03,20.2,14.16,1.89,34.52-7.19,30.43,10.08-11.38,1.4-23.94-1.07-35.46.06,2.28,5,3.96,9.59,5.07,15.08-25.45,17.87-10.55-14.56-15.51-19.91-1.27-1.37-25.03-1.7-31.84-5.18-5.85-2.98-2.53-9.48-3.31-10.24,27.52,8.63,28.69-9.3,30.4-10.09,3.56-1.67,14.9,1.16,20.26,0Z" style="fill:#e4e7ef;"/><path d="M198.54,196.91c1.87,1.44,3.36,3.42,5.07,5.05-1.7.8-2.88,18.72-30.4,10.09-3.02-2.94-3.16-6.65-10.13-5.05-.92-2.1-2.85-4.6-5.07-5.05-2.89-.59-6.85.14-10.13,0-2.55-6.21,5.96-14.35,10.13-15.14,15.54-2.93,28.03.43,40.53,10.09Z" style="fill:#dadade;"/><path d="M163.07,207.01h-5.07v-5.05c2.21.45,4.14,2.95,5.07,5.05Z" style="fill:#e4e7ef;"/><path d="M391.05,201.96c-22.77,63.53,34.98,23.64,50.63,60.53-52.47-13.72-89.04,12.6-139.11,20.37-1.04-.33-7.7-19.25-7.78-20.33-.86-12.22,7.97-26.9,5.07-40.37,9.34-2.18,21-12.93,30.4-15.14,7.91-1.86,52.27-5.74,60.79-5.05Z" style="fill:#d8d1d2;"/><path d="M401.18,151.49l20.26,40.37c-8.56,3.01-18.81,2.03-25.33,10.09-1.54-.36-3.43.13-5.07,0-8.52-.7-52.88,3.18-60.79,5.05-.04-8.64-2.96-11.32-10.13-15.14-6.11-38.65,57.1-31.69,81.06-40.37Z" style="fill:#e8e9f2;"/><path d="M92.15,131.31c1.64.25,3.48-.36,5.07,0,19.54,4.42,48.11,16.59,55.73,35.33,2.55,6.28,2.9,13.73,5.07,20.19-4.17.79-12.68,8.93-10.13,15.14-10.59-.44-59.05-8.72-60.79-5.05-7.32-4.9-9.32-11.93-10.13-20.19-.19-1.97,7.52-11.67,5.1-15.07-2.06-2.89-23.45.1-20.33-12.63l15.24-17.72c4.69-.18,10.85-.67,15.2,0Z" style="fill:#e8e9f2;"/><path d="M436.65,126.26c30.86,11.64,56.58,1.87,81.02-15.12l5.11,40.35c-17.71,4.2-35.51,14.43-50.66,20.19-16.91,6.42-33.61,14.19-50.66,20.19l-20.26-40.37-10.13-15.14c6.66-1.86,13.53-3.44,20.26-5.05,7.31-1.74,18.11-6.76,25.33-10.09v5.05Z" style="fill:#e4e7ef;"/><path d="M482.24,60.65c.66,2.96-.99,8.34,0,10.09l-45.57,5.08c-2.49,8.74,8.99,15.29,15.17,20.16-13.53-2.38-10.37,3.22-10.13,15.14-5.45.36-10.31,2.93-15.2,5.05-19.36-9.23-50.44,9.12-70.93,15.14-73.34,21.55-91.02,30.59-164.23,14.2-14.42-3.23-37.86.02-50.72-9.55-12.1-9-3.11-21.38-23.16-24.84v-5.05c25.72.81,51.37-9.18,82.14.46,3.92,1.23,25.77,22.24,33.13,23.84,14.53,3.17,58.29-12.97,76.02-18.04,8.92-2.55,9.42-14.74,14.48-16.27,12.86-3.88,51.08,5.77,78.03-7.55,18.34-9.07,19.7-30.31,30.32-32.9,17.72-4.33,40.69,5.67,50.66,5.05Z" style="fill:#d0d1e0;"/><path d="M482.24,70.75c2.67,4.7,15.09,6.81,10.13,20.19-13.91,2.12-27.68,3.98-40.53,10.09-.81-.56.81-4.41,0-5.05-6.18-4.87-17.66-11.42-15.17-20.16l45.57-5.08Z" style="fill:#ced2db;"/><path d="M492.37,90.93c1.65-.25,3.47.35,5.07,0,3.16,15.59-34.53,17.71-45.6,10.09,12.85-6.12,26.62-7.97,40.53-10.09Z" style="fill:#6889e3;"/><path d="M441.71,111.12c3.34-.22,6.78.03,10.12.06,1.02,5.05-4.94,4.65-5.06,4.98-4.34-.08-7.19,3.69-10.13,5.05-7.22,3.33-18.02,8.35-25.33,10.09-.68-14.36,7.24-11.68,15.2-15.14,4.88-2.12,9.75-4.68,15.2-5.05Z" style="fill:#a1b2e8;"/><path d="M527.84,80.84c13.36,1.29,29.08-6.2,25.33,10.09-16.3,6.24-34.22-8.2-27.91,10.14l-22.76-10.14c16.56-4.41,17.26-7.05,25.33-10.09Z" style="fill:#8397e2;"/><path d="M446.78,116.17c-1.87,5.51,3.32,12.5-10.13,10.09v-5.05c2.94-1.35,5.79-5.12,10.13-5.05Z" style="fill:#6889e3;"/><path d="M76.95,131.31l-15.24,17.72c-3.11,12.73,18.28,9.74,20.33,12.63,2.42,3.4-5.29,13.1-5.1,15.07-17.3-.76-29.77-6.54-40.53-20.19-3.94-5.01-6.6-14.12-10.13-20.19,4.37,2.19,10.41,5.33,15.2,5.05,14.95-.89,15.92-9.35,35.46-10.09Z" style="fill:#dadade;"/><path d="M71.85,186.88c3.79,2.53-4.65,8.54-10.07,4.93-3.79-2.53,4.65-8.54,10.07-4.93Z" style="fill:#dadade;"/><path d="M396.12,10.19c1.29.07,5.86,4.68,10.13,5.05,3.77,20.11,10.36,27.6,25.33,40.37-10.61,2.59-11.98,23.83-30.32,32.9-26.94,13.32-65.17,3.67-78.03,7.55-5.06,1.53-5.56,13.72-14.48,16.27-17.72,5.07-61.48,21.21-76.02,18.04-7.35-1.6-29.21-22.61-33.13-23.84-30.76-9.64-56.42.35-82.14-.46-31.6-.99-26.29-18.11-30.4-20.19,9.8-4.96,11.96-8.73,10.09-20.17-2.27-2.33-15.99,5.49-20.23,5.03,2.54-21.91,55.31-18.4,73.53-20.37,9.52-1.03,20.51,6.18,17.67-9.91,6.81-.9,13.47-4.16,20.26-5.05,13.81,7.31,68.96,13.42,70.93-10.09,28.89-3.62,76.72-13.92,101.32-15.14,11.51-.57,23.96-.65,35.46,0Z" style="fill:#dadade;"/><path d="M259.33,25.33c-1.96,23.52-57.12,17.4-70.93,10.09,23.56-3.09,47.35-7.14,70.93-10.09Z" style="fill:#d0d1e0;"/><path d="M76.95,70.75c4.24.46,17.95-7.36,20.23-5.03,1.87,11.44-.29,15.2-10.09,20.17-5.35-2.7-36.86-8.62-45.6-10.09-.64-2.59.06-6.86,0-10.09,12.49-2.52,24.25,3.82,35.46,5.05Z" style="fill:#d7d8d8;"/><path d="M87.08,85.89c4.1,2.07-1.21,19.19,30.4,20.19v5.05c-.9-.15-17.01,4.26-15.15,10.02l20.22,5.07-5.06-15.08c20.05,3.46,11.06,15.83,23.16,24.84,12.86,9.57,36.3,6.32,50.72,9.55,73.21,16.39,90.89,7.35,164.23-14.2l5.07,5.05c-.51.16,1.86,7.73-3.79,9.86-23.04,8.68-39.3,9.93-46.87,40.61-17.9-3.39-60.98,8.35-81.06,5.05-1.62-.27-9.29-3.69-15.2-5.05-1.97-.45-23.55-7.06-33.12-9.94-15.79-4.75-6.85-21.34-27.68-10.25-7.62-18.73-36.19-30.9-55.73-35.33.34-11.45-35.03-32.19-45.6-35.33-1.84-5.75-7.72-10.38-10.13-20.19,8.74,1.48,40.25,7.39,45.6,10.09Z" style="fill:#a1b2e8;"/><path d="M51.62,95.98c10.57,3.14,45.94,23.87,45.6,35.33-1.59-.36-3.42.25-5.07,0-6.87-11.15-22-10.54-30.4-15.14-28.02-15.37-7.34-11.48-10.13-20.19Z" style="fill:#6889e3;"/><path d="M92.15,131.31c-4.35-.67-10.51-.18-15.2,0-19.55.74-20.52,9.21-35.46,10.09.04-3.36-.06-6.73,0-10.09,6.6.04,30.53-7.73,20.26-15.14,8.39,4.6,23.52,3.99,30.4,15.14Z" style="fill:#d3e1f4;"/><path d="M61.75,116.17c10.26,7.41-13.67,15.18-20.26,15.14.21-11.86,14.96-18.97,20.26-15.14Z" style="fill:#dadade;"/><path d="M309.99,186.82c2.6.49,7.23,3.5,10.13,5.05,7.17,3.82,10.09,6.5,10.13,15.14-9.39,2.21-21.06,12.96-30.4,15.14-17.61,4.12-25.54,7.63-45.6,10.09,4.09-17.27-16.27-8.19-30.43-10.08.48-6.61-.75-13.64.03-20.2.33-2.76,4.08-6.87,5.07-10.09,20.08,3.31,63.16-8.44,81.06-5.05Z" style="fill:#dadade;"/><path d="M213.73,186.82c5.91,1.36,13.58,4.78,15.2,5.05-.99,3.23-4.74,7.33-5.07,10.09-5.36,1.16-16.71-1.67-20.26,0-1.71-1.62-3.2-3.6-5.07-5.05-2.39-13.48,3.24-10.33,15.2-10.09Z" style="fill:#e8e9f2;"/><path d="M152.94,166.63c20.83-11.09,11.89,5.5,27.68,10.25,9.56,2.88,31.15,9.48,33.12,9.94-11.96-.24-17.59-3.39-15.2,10.09-12.5-9.66-24.99-13.03-40.53-10.09-2.17-6.46-2.51-13.91-5.07-20.19Z" style="fill:#d3e1f4;"/><path d="M391.05,136.35l10.13,15.14c-23.96,8.69-87.17,1.72-81.06,40.37-2.91-1.55-7.53-4.55-10.13-5.05,7.58-30.68,23.84-31.93,46.87-40.61,5.65-2.13,3.28-9.7,3.79-9.86,7.32-2.3,22.62,2.17,30.4,0Z" style="fill:#d3e1f4;"/><path d="M426.51,116.17c-7.96,3.46-15.88.78-15.2,15.14-6.74,1.6-13.6,3.18-20.26,5.05-7.78,2.17-23.08-2.3-30.4,0l-5.07-5.05c20.49-6.02,51.57-24.37,70.93-15.14Z" style="fill:#8397e2;"/><path d="M117.48,111.12l5.06,15.08-20.22-5.07c-1.85-5.76,14.26-10.17,15.15-10.02Z" style="fill:#8397e2;"/></g></svg>