<?xml version="1.0" encoding="UTF-8"?><svg id="Capa_2" xmlns="http://www.w3.org/2000/svg" viewBox="0 0 814.57 244.9"><g id="Layer_1"><path d="M161.59,69.24c.31.27-.78,3,.35,4.32,1.83,2.15,12.5,2.74,16.29,6.37,3.59,3.44,4.24,12.63,4.81,13.03,1.94,1.35,7.48-2.59,9.15-1.95.22.09.35,2.95,2.14,4.26,2.41,1.77,5.15,1.96,7.75,4.79.22.25-.77,2.51.59,4.14,2.14,2.57,8.69,2.41,6.55,10.09-8.26-1.01-18.98-6.14-26.19-7.11l-10.71-9.5-1.19,9.5c-.33.03-2.35,3.68-4.43,2.19-.6-.43-1-3.95-2.88-5.46-19.04-15.35-34.23-17.07-57.54-7.97-23.64,9.23-26.75,58.15-.1,65.28,3.72,1,25.4,5.52,28.17,5.5,8.68-.08,4.99-4.17,5.87-4.94,1.89-1.66,5.5-.8,4.79,3.55-1.56,9.58-25.69,17.85-33.3,21.51-1.56.75-1.91,4.49-3.01,5.14-1.68,1-19.15,2.63-23.28,2.96-.1-12.84,26.82-1.86,16.7-17.25-3.36-5.12-5.68-6.74-9.88-14.44-1.81-3.32-11.23-18.58-11.52-19.75-.98-4.07-.79-23.39.05-27.89,3.52-18.9,32.27-37.88,49.89-41.63.3-8.55-10.04-9.88-16.67-11.84-3.94-1.16-4.11-1.81-9.52-2.37.34-8.55,1.35-6.44-5.86-7.09-12.18-1.1-22.51-1.74-34.61-.03-3.09.44-6.46,1.55-9.52,2.37v-2.37c.28-.08,1.27-3.71,3.96-4.27,24.9-5.19,83.63,3.94,103.18,20.87Z" style="fill:#fd54ab;"/><path d="M85.41,194.94c4.12-.33,21.6-1.96,23.28-2.96,1.09-.65,1.44-4.39,3.01-5.14,7.61-3.65,31.74-11.92,33.3-21.51.71-4.35-2.9-5.21-4.79-3.55-.88.77,2.82,4.86-5.87,4.94-2.77.03-24.45-4.5-28.17-5.5-26.64-7.13-23.54-56.04.1-65.28,23.31-9.1,38.5-7.38,57.54,7.97,1.88,1.51,2.28,5.03,2.88,5.46,2.09,1.5,4.1-2.16,4.43-2.19.78-.06,1.59,0,2.38,0,1.77,11.8,3.62,21.38,0,33.2-.33.24-.11,3.2-1.55,4.56-1.6,1.51-5.38,3-5.65,3.76-4.05,11.1,6.86,2.56,9.07,1.84,20.21-6.56,43.89-11.21,64.8-14.9v2.37c.2,1.8-2.28,3.96-2.38,4.74-19.47-.54-36.29,9.09-54.72,13.08l-4.8,13.01c-44.22,17.19-68.09,39.72-121.42,26.09h4.76c7.71,0,16.28.61,23.81,0ZM125.26,100.65c-16.36,2.78-25.57,18.11-25.66,33.97-.06,10.75,15.24,20.96,25.3,22.29,22.71,2.99,42.72-10.2,41.54-34.21-1.02-20.65-24.1-24.95-41.19-22.05Z" style="fill:#fd65b5;"/><path d="M256.83,138.02c-2.09,7.06,8.99,7.54,7.14,0,13.46,0,27.02.18,40.47,0-1.19,9.89,6.19,2.74,9.52,2.37,2.26-.25,4.83-.02,7.14,0,3.97,9.78,2.48,2.67,7.14,2.37,23.89-1.51,59.96,5.33,85.71,7.11,1.47,5.61,4.75,8.36,7.14,14.23-11.13.2-25.88,3.18-36.76,2.43-14.13-.98-29.12-3.68-44.19-4.8,6.67-7.92-2.21-8.56-8.62-9.21-9.62-.98-12.54,1.49-3.29,6.84-8.77-.74-21.86.54-29.77.01-6.05-.4-21.13-1.41-25.79-2.41-2.16-.46-.61-6.57-7.54-4.77-.92.24-.98,4.49-2.75,4.85-1,.21-17.71.05-19.86-.06-6.02-2.44-5.56-8.37-4.76-14.23.11-.78,2.58-2.95,2.38-4.74h16.67Z" style="fill:#fc4e9f;"/><path d="M487.77,81.1c-5.87,4.05-14.04,2.43-14.29,11.86-7.12.15-14.32-.28-21.43,0-6.46-5.13-17.95-1.28-26.2-2.37-.06,1.58,0,3.16.02,4.74-3.95.18-7.95-.19-11.9,0-4.03-4.13-14.22-4.52-11.9,2.37-5.51.31-11.16-.35-16.67,0-4.03-4.13-14.22-4.52-11.9,2.37-1.58.1-3.19-.1-4.76,0-.88.06-3.95-.18-7.14,0-3.94.23-7.96-.22-11.9,0-10.81.61-21.37,1.77-32.25,2.37-4.57.25-9.55-2.51-8.23,4.74-5.52-.16-11.18.39-16.67,0-2.03-.14-8.34-7.28-7.14,2.37-.79.03-1.59-.02-2.38,0-5.54.12-11.13.06-16.67,0,1.77-10.45-12.49-2.62-16.67-2.37-9.41.55-17.11-.71-26.19-2.37,1.76-11.39,1.78-10.88,11.9-14.23.67-.22,1.58.17,2.38,0,7.42,7.05,17.22,2.79,24.61,3.25,5.05.31,11.81,3.61,14.87,3.68,1.05.02.93-4.63,2.28-4.73,3.69-.28,11.46,5.99,16.21,5.11,1.7-.32,1.3-4.9,8.69-7.3-2.05,8.38,9.77,3.69,16.68,4.75v-7.12c6.63.24,3.46,4.84,8.27,5.03s13.42-3.8,20.29-5.03c.77-.14,1.61.14,2.38,0,1.99-.36,4.35-2.32,7.14-2.37-1.46,7.05,6.08,7.43,4.76,0,40.39-1.05,82.09-4.52,123.8-4.74ZM346.11,90.58v2.37c1.55-.79,1.55-1.58,0-2.37Z" style="fill:#f8418d;"/><path d="M606.81,140.39l.02,9.48c7.89-1.3,15.9-3.56,23.79-4.74.21,2.38-1,3.24-2.38,4.74l-2.38,2.37c-1.01.68-3.8.31-4.76,2.37-1.19-.33-9.15-.29-9.52,0-5.06-.57-5.33-.3-4.76,4.74-63.1,6.88-110.35,7.34-172.36,7.33-3.2,0-11.21,3.76-13.34,2.15-.57-.43.47-3.57,0-4.74-2.39-5.87-5.67-8.62-7.14-14.23,14.03.97,33.59,4.74,46.43,4.74h100c8.18,0,18.75-6.04,22.62-7.11,10.12-2.81,9.84.57,21.43-7.11.56-.37,1.89.38,2.38,0Z" style="fill:#fd54ab;"/><path d="M806.8,64.5c0,7.1.03,14.25,0,21.34l2.38,2.37c-.13,22.89.03,45.89,0,68.78l-2.38,2.37c-.04,7.88-.1,15.84,0,23.72l2.38,2.37c.34,8.63,0,17.44,0,26.09-3.95,2.03-2.11,8.15-2.36,11.86,2.64.4,2.23-2.26,2.36-2.37.86-.72,1.64-1.54,2.38-2.37-.41,13.64-3.99,8.04-4.76,9.49h-9.53c-.38-3.83.53-8.1.01-11.86,6.25-3.29.37-9.65,0-11.86-1.63-9.81,4.85-11.95-7.14-11.86-9.27.07-7.38,4.83-8.29,4.77-8.33-.51-5.03-8.37-6-11.88,2.8-.57,7.84,1.56,9.52-2.37,13.07.33,17.84,2.31,14.29-14.23.53.53,2.44-.36,2.38-1.19-.18-2.59-3.5.07-2.38,1.19-.18-.82-10.95-11.2-11.9-11.86,1.16-3.84,9.1-.78,9.66-3.69,2.53-12.99-5.49-35.1-.15-48.47-3.86-1.11-6.65,1.64-9.51,2.36l-2.38-16.6c5.65.1,8.25,1.6,7.14-4.74.33-.14-.34-2.14,0-2.37l2.38-2.37c4.56-5.97,6.34-6.86,4.76-16.6,2.38,0,4.76,0,7.14,0Z" style="fill:#fdf7fa;"/><path d="M768.7,142.76c3.21,18.58,4.77,10.09,14.29,11.86,1.11.21,3.68,1.62,4.76,2.37.95.66,11.73,11.04,11.9,11.86,3.56,16.54-1.22,14.56-14.29,14.23-2.38-.06-4.77.04-7.14,0v-2.37c2.44-2.47.18-3.71,0-4.74-.48-2.72.88-6.96-1.05-9.57-3.95-5.34-22.18-1.35-28.68.1l3.53,7.1c-.34.26-4.64,6.71-4.76,7.11-2.85-2.06-.46-7.33-5.83-7.27-10.63.13-23.31,10.23-36.09,11.74-10.31,1.22-19.59.45-29.5-2.1,13.21-8.25-1.21-6.74-5.26-9.56-5.28-3.69-9.48-10.37-16.91-14.6-4.95-2.82-25.75-14.67-23.07.45-3.62-1.3-9.01-4.6-9.52-4.74.96-2.06,3.75-1.69,4.76-2.37.95-.64,1.62-1.54,2.38-2.37,1.38-1.51,2.59-2.36,2.38-4.74,1.7-.25,4.66-2.93,7.14-2.37,7.92,1.77,33,23.12,44.64,27.87,31.2,12.72,46.89-9.64,76.79-11.28,1.51-3.49-2.29-6.31-2.39-7.1-.34-2.71-.19-6.65,0-9.49,2.54-2.35,11.42.35,11.9,0Z" style="fill:#fbbbdd;"/><path d="M792.51,2.83v2.37c-9.9-.5-7.79,17.46-12.23,21.03-.44.35-2.73-1.91-3.92-1.36-.61.28-.45,4.07-1.84,4.15-1.99.12-7.18-3.54-8.18-2.48-2.06,2.2-2.6,32.03-16.67,28.49-.63,3.92,3.24,2.19,5.94,2.35,4.54.27,11.14.54,15.48,0l2.38,11.86c-2.19-.38-4.89.33-7.14,0-7.72-1.12-11.89-3.21-19.05-4.74,0-14.39-1.2-31.07,0-45.06.22-2.61,4.71-10.87,2.38-16.6,14.69-5.89,28.62-.91,42.86,0ZM752.04,40.78c.16,1.65-1.01,4.82,1.21,4.76,5.08.75,3.17-.96,3.55-4.76.28-2.88.71-18.99-1.19-19-2.82,5.31-4.14,13.02-3.57,19Z" style="fill:#a39c9d;"/><path d="M775.85,185.45c-1.47.3-4.06-.45-4.76,0-5.06-.57-5.33-.3-4.76,4.74-.15.22-2.33,4.48-2.38,4.74l-11.89-2.36-.05,29.42c12.54,6.66,6.42-9.05,7.23-13.77.42-2.46,4.46-1.07,4.71-1.43l2.39,16.59,7.11-4.72,2.37,9.46,4.77-7.09c-2.5,7.6,5.43,7.43,6.81,10.95,2.75,7.01-4.62,13.3,7.5,8.02.03.17,2.97.32,2.38,2.37-16.46,3.69-32.81,2.2-50.01,2.38,1.31-19.19-1.74-40.4.01-59.3h2.38c7.36.57,15-1.21,21.43-4.74,1.16,1.35,4.39,3.37,4.76,4.74Z" style="fill:#a39c9d;"/><path d="M573.48,83.47c-10.21-.68-20.71.47-30.95,0-12.8-.58-26.74-2.28-40.47-2.37-4.76-.03-9.53-.03-14.29,0-41.71.22-83.42,3.69-123.8,4.74-1.59.04-3.18-.03-4.76,0-2.8.05-5.15,2.01-7.14,2.37v-2.37c29.14-11.64,147.91-11.61,184.58-9.57,7.7.43,31.39,3.93,36.83,7.19Z" style="fill:#d15e89;"/><path d="M16.36,102.44c.24,2.32-.13,4.77,0,7.11-6.66-3.57-5.94,15.02-4.81,19.85.65,2.76,2.61,1.27,4.81,1.49-.05,3.16.09,6.33,0,9.49-.04,1.37-6.22,6.12,2.38,9.49,1.56,11.33,14.98,20.95,23.81,28.46,1.94,1.65,6.01,2.64,7.14,4.74,3.14,5.84-1.88,8.44,11.9,11.86h-4.76c-11.96-3.06-22.18-4.07-30.95-14.23C2.44,153.56-2.57,119.73,13.98,88.21c-2.36,5.2,2.1,11.47,2.38,14.23Z" style="fill:#f8418d;"/><path d="M161.59,69.24c8.1,1.82,16.51,4.6,24.32,7.34,1.95.68,1.76,3.86,3.62,4.39,13.42,3.84,33.04,2.42,45.87,9.62-10.12,3.35-10.15,2.84-11.9,14.23-7.2-1.32-13.75-5.48-21.43-4.74-2.59-2.83-5.34-3.03-7.75-4.79-1.79-1.31-1.91-4.18-2.14-4.26-1.66-.64-7.21,3.29-9.15,1.95-.57-.4-1.22-9.59-4.81-13.03-3.79-3.63-14.45-4.22-16.29-6.37-1.13-1.32-.03-4.05-.35-4.32Z" style="fill:#fc4e9f;"/><path d="M613.95,90.58l2.38,2.37c2.22.74,8.36-.81,9.52,0,.26.18-.33,4.24,2.25,6.04,2.75,1.92,6.58.63,7.27,1.07.86.54,6.85,17.58,7.14,18.97.15.73-.05,1.59,0,2.37-7.74,2.9-7.32-5.49-10.99-6.75-4.76-1.64-12.19.18-17.58-.36-1.25-.13-3.24-1.94-4.76-2.37v-4.74c.92-1.13,4.42-9.55,4.76-11.84-2.95-3.22-30.92-5.78-36.5-7.64-3.3-1.1-3.47-3.94-3.98-4.24,15.77,1.05,25.21,2.38,40.47,7.11Z" style="fill:#fd54ab;"/><path d="M349.68,85.84v2.37c-6.87,1.23-15.57,5.22-20.29,5.03s-1.64-4.8-8.28-5.03c-4.2-.15-12.74,1.1-16.67,2.37-7.39,2.4-6.99,6.99-8.69,7.3-4.75.88-12.52-5.39-16.21-5.11-1.35.1-1.24,4.76-2.28,4.73-3.05-.07-9.82-3.37-14.87-3.68-7.39-.45-17.19,3.8-24.61-3.25,23.46-5.06,87.55-7.66,111.9-4.74Z" style="fill:#d15e89;"/><path d="M237.78,142.76c-.79,5.85-1.26,11.79,4.76,14.23-4.7-.25-6.77-2.33-7.14-2.37-2.14-3.09-8.45-4.17-9.52,0-.37.28.71,3.92-.11,4.53-.96.73-11.5.49-14.18.21-2.78-.28-5.82-4.06-12.64-2.33-1.67.42-1.59,3.58-2.3,3.93-4.88,2.41-13.84-2-13.62,7.89-1.22.45-3.58-.46-4.76,0l4.8-13.01c18.43-3.99,35.25-13.62,54.72-13.08Z" style="fill:#fd54ab;"/><path d="M811.56,187.82c-.08,8.67.11,17.42,0,26.09-.02,1.58.05,3.16,0,4.74-.75.84-1.52,1.65-2.38,2.37v-9.49c0-8.65.34-17.46,0-26.09-.07-1.7-2.38-2.2-2.38-2.37-.1-7.88-.04-15.84,0-23.72,0-.17,2.38-.72,2.38-2.37.03-22.89-.13-45.89,0-68.78,0-1.64-2.38-2.2-2.38-2.37.03-7.1,0-14.25,0-21.34,0-1.15,2.38-3.58,2.38-4.74.05-11.82.17-23.76,0-35.57,3.95,2.47,2.37,9,2.42,13.01.62,50.12.45,100.53-.04,150.63Z" style="fill:#fbbbdd;"/><path d="M54.45,52.64v2.37c-20.52,5.47-24.27,10.1-35.71,26.09-2.17,3.03-2.54,2.88-4.76,7.11-16.55,31.52-11.54,65.35,11.9,92.49-9.58-3.4-19.62-22.7-22.17-31.28-10.44-35.16.9-79.74,37.1-94.98,5.57-2.34,10.05-.82,13.64-1.81Z" style="fill:#d15e89;"/><path d="M697.28,59.75l-2.38,4.74c-10.2,1.35-16.52,3.59-25.47,9.01-11.32,6.86-23.88,26.14-38.81,17.07,6.98-2.16,17.75-13.64,25.44-18.53,15.93-10.14,21.18-13.58,41.22-12.3Z" style="fill:#d15e89;"/><path d="M725.85,66.87c5.49,5.49,13.88,7.18,21.43,7.11v4.74c-27.77-4.84-38.11-17.88-69.19-3.58-3.47,1.59-8.45-.55-7,5.95-6.26,2.31-9.32,7.04-14.29,9.49-2.89,1.43-6.22,3.25-8.98,4.57-3.78,1.81-9.19,1.14-12.45,4.92-.7-.44-4.53.84-7.27-1.07-2.58-1.8-1.99-5.86-2.25-6.04,1.35-1.3,3.01-1.83,4.76-2.37,14.92,9.06,27.49-10.21,38.81-17.07,8.95-5.43,15.27-7.67,25.47-9.01,5.16-.68,13.3,2.21,16.67-2.37,3.71.59,9.3,3.69,14.29,4.74Z" style="fill:#fe94db;"/><path d="M630.62,159.36c-2.68-15.11,18.12-3.27,23.07-.45,7.43,4.23,11.63,10.91,16.91,14.6,4.05,2.83,18.46,1.32,5.26,9.56-16.49-4.25-27.64-17.39-45.24-23.72Z" style="fill:#fe7ccc;"/><path d="M809.18,19.44c.04,1.58-.02,3.16,0,4.74.17,11.82.05,23.75,0,35.57l-3.15-.06c-2.46-3.31-4.15-6.26-8.76-7.05v-9.49c5.42-3,.62-21.94,2.37-23.73h9.53Z" style="fill:#fdf7fa;"/><path d="M792.51,2.83c1.51.1,10.88-4.13,16.39.26.8,5.39.13,10.91.28,16.34h-9.53c-1.75,1.77,3.05,20.71-2.37,23.72l-4.76-21.34c1.56-6.02,8.76-10.11,0-16.6v-2.37Z" style="fill:#fccfed;"/><path d="M790.13,192.56c11.99-.09,5.51,2.05,7.14,11.86-6.3,3.22-.27,9.88,0,11.86.51,3.76-.39,8.03-.01,11.87h9.53c-1.28,2.39,2.44,12.22-2.38,14.21v-11.87s-9.52.01-9.52.01c-.14-.21-4.12.95-4.79-1.56-2.36-8.79,1.75-26.31.03-36.39Z" style="fill:#a39c9d;"/><path d="M775.85,175.96c-.86,2.54-2.56,3.53-4.76,4.74-6.43,3.54-14.07,5.31-21.43,4.74l-2.38-2.37c.13-.81-.2-1.71,0-2.37.12-.41,4.42-6.85,4.76-7.11,4.02-3.1,18.82-.41,23.81,2.37Z" style="fill:#d15e89;"/><path d="M766.32,69.24l.05,3.14c-2.94,3.04-7.9,3.33-7.19,8.72-3.85-1.45-7.9-1.67-11.9-2.37v-14.23c7.16,1.53,11.32,3.63,19.05,4.74Z" style="fill:#d15e89;"/><path d="M211.59,159.36c-8.94,4.79-19.09,5.98-28.57,9.49-.22-9.89,8.74-5.48,13.62-7.89.71-.35.63-3.51,2.3-3.93,6.82-1.72,9.86,2.05,12.64,2.33Z" style="fill:#fd65b5;"/><path d="M328.25,159.36c-9.25-5.35-6.33-7.82,3.29-6.84,6.41.65,15.28,1.29,8.62,9.21-4.89-.36-9-2.13-11.9-2.37Z" style="fill:#f8418d;"/><path d="M794.89,230.51h9.53s-.01,11.86-.01,11.86c-1.47.61-5.08-.46-7.14,0,.59-2.05-2.35-2.21-2.38-2.37-.42-2.46.66-8.5,0-9.49Z" style="fill:#fccfed;"/><path d="M747.28,69.24v4.74c-7.54.07-15.94-1.63-21.43-7.11.13.03-.29-2.63,1.3-2.31,6.49,1.31,12.18,6.84,20.12,4.68Z" style="fill:#fccfed;"/><path d="M749.66,2.83c2.32,5.73-2.16,13.99-2.38,16.6-3.01-3.54-3.49-11.1-2.48-15.13.73-2.9,3.67-.99,4.86-1.47Z" style="fill:#fccfed;"/><path d="M811.56,213.91c.11-8.67-.08-17.41,0-26.09,3.96,5.55,4.06,20.07,0,26.09Z" style="fill:#fdf7fa;"/><path d="M711.56,62.13c-3.37,4.59-11.5,1.69-16.67,2.37l2.38-4.74c4.76.3,9.55,1.62,14.29,2.37Z" style="fill:#fe7ccc;"/><path d="M611.57,154.62c-1.56,1.2,4.14,3.77-4.76,4.74-.57-5.04-.3-5.31,4.76-4.74Z" style="fill:#fbbbdd;"/><path d="M235.4,154.62c-1.64-.18-9.14-.29-9.52,0,1.07-4.17,7.38-3.09,9.52,0Z" style="fill:#fc4e9f;"/><path d="M616.33,92.96l-2.38-2.37c1.23.38,1.99,2.24,2.38,2.37Z" style="fill:#fe94db;"/><path d="M749.66,185.45h-2.38c.07-.78-.12-1.61,0-2.37l2.38,2.37Z" style="fill:#fbbbdd;"/><path d="M352.06,88.21c-.77.14-1.61-.14-2.38,0v-2.37c.69.08,1.95.17,2.38,0v2.37Z" style="fill:#e53278;"/><path d="M113.98,62.13c6.63,1.96,16.96,3.29,16.67,11.84-17.62,3.75-46.37,22.73-49.89,41.63-.84,4.5-1.03,23.82-.05,27.89.28,1.18,9.71,16.43,11.52,19.75,4.2,7.71,6.52,9.33,9.88,14.44,10.12,15.39-16.79,4.42-16.7,17.25-7.53.61-16.09,0-23.81,0-13.78-3.42-8.76-6.02-11.9-11.86,2.38,0,4.76,0,7.14,0,6.25,7.67,17.63,4.05,26.18,4.73-.44-6.4-5.9-8.5-7.01-15.52-2.16-13.68-5.82-38.72-4.58-51.77,2.53-26.53,20.61-34.25,30.64-56.02,1.53-.03,3.28-.19,4.76,0,2.44.31,8.25,7.19,7.14-2.37Z" style="fill:#fc4e9f;"/><path d="M223.49,104.81c9.08,1.66,16.78,2.92,26.19,2.37,1.66,3.57,6.39,2.28,9.52,2.37v7.11c-11.51-.03-18.69-.58-30.95,0-1.56.07-3.21.09-4.76,0-2.82-8.74-8.79-2.34-9.52-2.37-1.56-.07-3.22.19-4.76,0,2.13-7.68-4.41-7.53-6.55-10.09-1.36-1.63-.36-3.89-.59-4.14,7.68-.74,14.23,3.42,21.43,4.74Z" style="fill:#fd65b5;"/><path d="M63.98,52.64c.26,2.28-.38,4.96,0,7.11.13.74-.03,1.6,0,2.37-10.16-.78-21.29,3.33-29.14,9.43-.65.51-8.63,8.98-8.96,9.54h-7.14c11.44-15.99,15.19-20.61,35.71-26.09,3.06-.82,6.44-1.93,9.52-2.37Z" style="fill:#f8418d;"/><path d="M63.98,52.64c12.11-1.72,22.43-1.07,34.61.03,7.21.65,6.2-1.46,5.86,7.09-.78-.08-1.59.05-2.38,0-12.56-.84-25.49.6-38.09,0-.38-2.16.26-4.83,0-7.11Z" style="fill:#fc4e9f;"/><path d="M171.12,107.19l1.19-9.5,10.71,9.5c-2.84-.38-6.48,0-9.52,0-.79,0-1.6-.06-2.38,0Z" style="fill:#fc4e9f;"/><path d="M113.98,62.13c1.11,9.56-4.7,2.68-7.14,2.37l-4.76-4.74c.79.05,1.6-.08,2.38,0,5.41.56,5.59,1.21,9.52,2.37Z" style="fill:#f8418d;"/><path d="M125.26,100.65c17.09-2.9,40.17,1.4,41.19,22.05,1.18,24-18.84,37.2-41.54,34.21-10.06-1.32-25.36-11.54-25.3-22.29.09-15.86,9.29-31.19,25.66-33.97ZM125.18,107.67c-3.49,1.02-14,12.45-15.01,16.07-7.73,27.62,44.85,36.79,48.97,8.17,3.38-23.48-13.74-30.14-33.95-24.23Z" style="fill:#fe7ccc;"/><path d="M228.26,130.9c5.4-.32,15.8-1.23,19.05,2.37-2.83.38-5.2,2.03-7.14,2.37-20.91,3.69-44.59,8.34-64.8,14.9-2.21.72-13.12,9.25-9.07-1.84.28-.76,4.05-2.25,5.65-3.76,1.44-1.36,1.22-4.32,1.55-4.56,3.95-2.87,46.78-9.01,54.76-9.49Z" style="fill:#fc4e9f;"/><path d="M292.54,130.9c5.53-.1,11.14-.12,16.67,0-.9,1.61-4.79,1.81-4.79,3.56s3.88,1.95,4.79,3.56c-1.58.07-3.18-.02-4.76,0-13.45.18-27.02,0-40.47,0h-23.81v-2.37c1.95-.34,4.31-1.99,7.14-2.37.78-.11,1.6.1,2.38,0,4.26-.52,10.08-2.23,11.9-2.37,9.88-.78,20.85.19,30.95,0Z" style="fill:#fe7ccc;"/><path d="M568.71,107.19c-2.05-9.14,10.88-.61,11.6,1.49,1.13,3.26.94,21.73-.16,25.32-3.75,12.31-21.05,2.38-20.96,13.5,7.98,1.66,14.37-1.1,21.42-2.36.77-.14,1.63.17,2.38,0v2.37c-3.87,1.07-14.44,7.11-22.62,7.11h-100c-12.83,0-32.4-3.77-46.43-4.74-25.75-1.78-61.82-8.62-85.71-7.11-1.91-2.39-4.38-2.34-7.14-2.37-.47-1.15,1.21-4.2-1.57-4.96-3.2-.5-5.05,2.55-5.57,2.59-1.57.13-3.18-.07-4.76,0-.9-1.61-4.79-1.81-4.79-3.56s3.88-1.95,4.79-3.56c.79.02,1.59-.02,2.38,0,4.57.14,8.41-.36,14.29,0,.38.02,2.12,2.01,7.14,2.37.79.06,1.59-.06,2.38,0,7.6,4.33,18.06,4.58,26.65,5.49,4.3.46,7.63,4.88,6.68-3.12,18.17,1.48,36.49,4.22,54.76,4.74l-7.13,4.72c18.77-1.15,33.9,3.38,52.37.02,1.37-.25,3.17-1.87,4.76-2.37,2.98-.95,4.21.51,9.52-2.37,5.99-3.25,10.55-9,11.27-15.87.19-1.75-1.75-2.88-1.75-3.1.02-1.51.25-3.41,0-4.74-.15-.79.19-1.66,0-2.37,6.84-1.41,5.05,3.87,4.87,8.31-.25,6.3-1.8,11.66-2.48,17.77,4.81.19,18.93-.1,21.63-3.88,6.55-9.16-3.03-23.45,3.37-31.67,8.24,20.9-10.46,36.52,20.2,37.95l2.42-16.63c9.97-2.26-.02,9.25,2.39,11.86,4.4-1.55,11.25-1.31,15.03-2.87,4.12-1.71,3-7.98,8.77-6.6.12,2.62-1.64,7.73,2.35,7.1,2.37-8.24,5.63-19.37-2.35-26.07-.13-.86.27-2.05,0-2.37ZM553.24,145.13v2.37c1.55-.79,1.55-1.58,0-2.37Z" style="fill:#fe94db;"/><path d="M309.2,138.02c1.58-.07,3.19.13,4.76,0v2.37c-3.34.37-10.71,7.51-9.52-2.37,1.58-.02,3.18.07,4.76,0Z" style="fill:#fd54ab;"/><path d="M313.97,138.02c.53-.04,2.38-3.09,5.57-2.59,2.78.76,1.1,3.81,1.57,4.96-2.31-.02-4.88-.25-7.14,0v-2.37Z" style="fill:#fe7ccc;"/><path d="M263.97,138.02c1.85,7.54-9.23,7.06-7.14,0h7.14Z" style="fill:#fd54ab;"/><path d="M328.25,142.76c-4.66.29-3.17,7.41-7.14-2.37,2.76.03,5.24-.02,7.14,2.37Z" style="fill:#fd54ab;"/><path d="M473.48,92.96c31.36-.68,71.67-1.64,102.38,2.37,1.73,7.71-5.5,4.1-11.92,4.75-2.19,9.32,4.15,6.37,4.77,7.1.27.32-.13,1.51,0,2.37.86,5.54-.28,12.96,0,18.97-5.76-1.38-4.65,4.9-8.77,6.6-3.78,1.57-10.63,1.32-15.03,2.87-2.41-2.61,7.59-14.12-2.39-11.86l-2.42,16.63c-30.66-1.44-11.96-17.06-20.2-37.95-6.4,8.22,3.18,22.51-3.37,31.67-2.7,3.78-16.82,4.07-21.63,3.88.68-6.11,2.23-11.46,2.48-17.77.18-4.44,1.97-9.72-4.87-8.31-.2-.78.25-1.72,0-2.37-3.24-8.61-9.64-6.66-16.67-7.11-.54-.92,1.51-4.46-1.41-4.87-12.16.76-24.57-.64-36.69.13h-11.92c-.07-1.58.02-3.16.02-4.74,8.87-.41,19.22-2.1,26.19-2.37,7.1-.28,14.31.15,21.43,0Z" style="fill:#fea8ea;"/><path d="M502.05,81.1c-.29,8.28-1.48,6.55,5.84,7.12,9.84.76,27.4,2.34,34.64-4.75,10.24.47,20.74-.68,30.95,0,.5.3.67,3.14,3.98,4.24,5.58,1.86,33.55,4.42,36.5,7.64-.34,2.28-3.84,10.71-4.76,11.84-.29.36-3.51-.73-4.56.3-1.88,1.84,2.16,4.2,2.18,4.45.58,8.12,1.79,20.71-4.76,26.09-3.32,2.72-8.04,3.29-11.9,4.74l4.63-13.18c1.56-5.94-1.46-16.16-.03-21.11.85-2.95,6.29-.43,7.3-1.3,5.24-4.46-8.2-6.62-9.52-7.11-4.43-1.63-12.19-4.16-16.67-4.74-30.71-4.02-71.01-3.05-102.38-2.37.24-9.43,8.42-7.81,14.29-11.86,4.76-.03,9.53-.03,14.29,0Z" style="fill:#fc4e9f;"/><path d="M425.86,95.33c0,1.58-.09,3.16-.02,4.74h11.92c-.33.02-2.71,2.21-5.76,2.47-7.93.69-24.93-3.8-22.81,4.65-31.1,2.08-61.8,5.45-92.85,7.11-2.37.13-4.77-.12-7.14,0-9.12.44-17.39,2.22-26.19,2.37v-7.11c.79-.02,1.59.03,2.38,0,2.63-.11,5.93.73,7.14-2.37,5.49.39,11.15-.16,16.67,0,9.94.29,18.64,1.28,29.51-.29,3.71-.54,12.61-.54,10.97-6.82,3.95-.22,7.96.23,11.9,0,.33,3.57,6.81,3.57,7.14,0,1.58-.1,3.18.1,4.76,0,5.23-.32,10-2.25,11.9-2.37,5.51-.35,11.15.31,16.67,0,5.15-.29,10.29-2.29,11.9-2.37,3.95-.19,7.95.18,11.9,0Z" style="fill:#fe94db;"/><path d="M349.68,100.07c1.64,6.28-7.26,6.29-10.97,6.82-10.87,1.57-19.56.58-29.51.29-1.32-7.25,3.66-4.49,8.23-4.74,10.87-.6,21.44-1.76,32.25-2.37Z" style="fill:#fc4e9f;"/><path d="M266.35,109.56c5.54.06,11.13.12,16.67,0v7.11c-7.91.14-15.9.02-23.81,0v-7.11c2.38.07,4.76-.03,7.14,0Z" style="fill:#fe7ccc;"/><path d="M452.05,92.96c-6.97.28-17.32,1.97-26.19,2.37,0-1.58-.07-3.16-.02-4.74,8.25,1.09,19.75-2.76,26.2,2.37Z" style="fill:#fc4e9f;"/><path d="M321.11,88.21v7.12c-6.9-1.06-18.71,3.63-16.67-4.75,3.92-1.28,12.47-2.52,16.67-2.37Z" style="fill:#e53278;"/><path d="M249.68,107.19c4.18-.24,18.44-8.08,16.67,2.37-2.38-.03-4.77.07-7.14,0-3.13-.09-7.87,1.2-9.52-2.37Z" style="fill:#fc4e9f;"/><path d="M385.39,97.7c-1.9.12-6.67,2.05-11.9,2.37-2.32-6.89,7.88-6.5,11.9-2.37Z" style="fill:#fc4e9f;"/><path d="M413.96,95.33c-1.61.08-6.75,2.08-11.9,2.37-2.32-6.89,7.88-6.5,11.9-2.37Z" style="fill:#fc4e9f;"/><path d="M292.54,107.19c-1.21,3.1-4.51,2.26-7.14,2.37-1.19-9.65,5.11-2.52,7.14-2.37Z" style="fill:#fc4e9f;"/><path d="M368.72,100.07c-.33,3.57-6.81,3.57-7.14,0,3.19-.18,6.26.06,7.14,0Z" style="fill:#fc4e9f;"/><path d="M363.96,85.84c1.32,7.43-6.22,7.05-4.76,0,1.59-.03,3.18.04,4.76,0Z" style="fill:#e53278;"/><path d="M346.11,90.58c1.55.79,1.55,1.58,0,2.37v-2.37Z" style="fill:#e53278;"/><path d="M613.95,114.3c5.38.54,12.82-1.28,17.58.36,3.67,1.26,3.25,9.66,10.99,6.75.59,8.76-2.21,13.46-4.76,21.34-2.49-.56-5.45,2.12-7.14,2.37-7.89,1.17-15.9,3.43-23.79,4.74l-.02-9.48c8.01-6.16,17.14-17.72,7.14-26.09Z" style="fill:#fd65b5;"/><path d="M613.95,114.3c9.99,8.37.86,19.92-7.14,26.09-.49.38-1.83-.37-2.38,0l-2.38-2.37c6.55-5.38,5.34-17.97,4.76-26.09h2.38c1.52.43,3.51,2.25,4.76,2.37Z" style="fill:#fe94db;"/><path d="M604.43,140.39c-11.59,7.68-11.3,4.3-21.43,7.11v-2.37c3.64-.81,4.27-1.29,7.14-2.37,3.87-1.46,8.58-2.02,11.9-4.74l2.38,2.37Z" style="fill:#fe7ccc;"/><path d="M625.85,152.25l2.38-2.37c-.76.83-1.43,1.73-2.38,2.37Z" style="fill:#fe7ccc;"/><path d="M775.85,185.45c.96,3.51-2.34,11.37,6,11.88.91.06-.98-4.7,8.29-4.77,1.71,10.08-2.39,27.59-.03,36.39.67,2.51,4.65,1.35,4.79,1.56.66.99-.42,7.02,0,9.49-12.12,5.28-4.75-1-7.5-8.02-1.38-3.52-9.31-3.35-6.81-10.95l-4.77,7.09-2.37-9.46-7.11,4.72-2.39-16.59c.81-1.15-.61-8.99,0-11.86.05-.26,2.23-4.52,2.38-4.74.11-.17,2.45.32,3.96-.82,1.21-.92.59-3.79.8-3.92.7-.45,3.29.3,4.76,0Z" style="fill:#585253;"/><path d="M799.66,64.5c1.58,9.74-.2,10.63-4.76,16.6-.15.2-2.24,2.28-2.38,2.37-.34.23.33,2.23,0,2.37-10.8,4.55-4.28,2.69-7.14,4.74-.6.43-5.27-.63-7.85.39-6.3,2.47-8.28,13.2-4.06,18.59-.25.09-4.54,2.22-4.76,2.37l-11.9-4.74c1.17-4.34,1.5-9.71,2.38-14.23.3-.29-.76-3.32.46-4.24,2.06-1.54,6.92.4,8.76-.83,1.22-.82-.07-3.73.3-4.41,2.13-3.96,4.58-8.15,7.14-11.86,1.52-2.19,2.26-6.8,3.9-7.23,3.99-1.03,14.55.11,19.91.11Z" style="fill:#fbbbdd;"/><path d="M787.75,107.19c2.86-.72,5.65-3.46,9.51-2.36-5.34,13.37,2.68,35.48.15,48.47-.57,2.91-8.5-.15-9.66,3.69-1.09-.75-3.65-2.17-4.76-2.37,4.51-14.05-5.86-14.71-7.14-16.6-.67-.98-.88-22.91-.02-23.73.68-.65,6.26.42,8.33.03l-3.55-4.76c2.42-.77,4-1.58,7.14-2.37Z" style="fill:#a39c9d;"/><path d="M790.13,52.64c2.32.13,5.04-.36,7.14,0,4.6.79,6.3,3.75,8.76,7.05l3.15.06c0,1.16-2.38,3.59-2.38,4.74-2.38,0-4.76,0-7.14,0-5.36,0-15.92-1.15-19.91-.11-1.64.43-2.38,5.03-3.9,7.23-.29-1.13-1.26-2.18-2.38-2.37l-2.38-11.86c4.83-.6,8.16-5.35,19.05-4.74Z" style="fill:#fccfed;"/><path d="M785.37,90.58l2.38,16.6c-3.14.79-4.72,1.6-7.14,2.37-1.84.59-5.42-.61-7.14,0-4.22-5.39-2.24-16.12,4.06-18.59,2.58-1.01,7.25.04,7.85-.39Z" style="fill:#585253;"/><path d="M797.27,216.28c-.27-1.98-6.3-8.64,0-11.86.37,2.21,6.25,8.57,0,11.86Z" style="fill:#fbbbdd;"/><path d="M792.51,85.84c1.11,6.34-1.5,4.84-7.14,4.74,2.86-2.05-3.65-.19,7.14-4.74Z" style="fill:#fccfed;"/><path d="M809.18,221.02c-.13.11.29,2.77-2.36,2.37.25-3.71-1.6-9.82,2.36-11.86v9.49Z" style="fill:#fccfed;"/><path d="M778.23,180.71l-2.33,1.19,2.33,1.19c2.38.04,4.76-.06,7.14,0-1.69,3.94-6.72,1.8-9.52,2.37-.38-1.37-3.6-3.4-4.76-4.74,2.2-1.21,3.9-2.2,4.76-4.74h2.38c.18,1.03,2.44,2.27,0,4.74Z" style="fill:#fccfed;"/><path d="M806.8,159.36l2.38-2.37c0,1.65-2.38,2.2-2.38,2.37Z" style="fill:#fccfed;"/><path d="M809.18,88.21l-2.38-2.37c0,.17,2.39.73,2.38,2.37Z" style="fill:#fccfed;"/><path d="M799.66,168.85c-1.12-1.12,2.2-3.78,2.38-1.19.06.82-1.85,1.72-2.38,1.19Z" style="fill:#fccfed;"/><path d="M809.18,185.45l-2.38-2.37c0,.17,2.31.67,2.38,2.37Z" style="fill:#fccfed;"/><path d="M792.51,83.47c.14-.09,2.23-2.17,2.38-2.37l-2.38,2.37Z" style="fill:#fccfed;"/><path d="M759.18,83.47c2.83-.51,6.5.35,9.52,0-.37.68.92,3.59-.3,4.41-1.84,1.24-6.7-.71-8.76.83-1.23.92-.17,3.95-.46,4.24-1.7,1.66-13.66,1.97-14.17,2.48-1.29,1.3.33,14.94,2.03,17.48,1.94,2.89,5.35.82,7.38,1.39,4.04,1.13,7.91,3.67,12.71,2.48,2.7-.67,1.35-4.69,1.57-4.85s4.51-2.28,4.76-2.37c1.72-.61,5.3.59,7.14,0l3.55,4.76c-2.08.39-7.65-.67-8.33-.03-.86.82-.65,22.75.02,23.73-8.26-2.55-6.71,4.43-7.14,4.74-.48.35-9.36-2.35-11.9,0,.16-2.35-.15-4.76.02-7.11,1.57-.1,3.17.1,4.75,0,.26-.02-.05.62,2.38,0,3.62-.92,5.74,2.31,4.75-4.73l-21.43-.02c.84,11.9-5,19.51,9.54,21.36.1.8,3.9,3.61,2.39,7.1-29.9,1.64-45.58,24-76.79,11.28-11.64-4.75-36.72-26.09-44.64-27.87,2.55-7.89,5.35-12.59,4.76-21.34-.05-.78.15-1.65,0-2.37l14.29-28.46c4.97-2.45,8.03-7.17,14.29-9.49,6.56-2.42,32.71-7.68,39.35-7.38,20.95.93,21.08,14.71,48.74,9.75Z" style="fill:#fccfed;"/><path d="M778.23,175.96h-2.38c-4.99-2.78-19.79-5.47-23.81-2.37l-3.53-7.1c6.49-1.45,24.73-5.43,28.68-.1,1.93,2.61.57,6.84,1.05,9.57Z" style="fill:#fe7ccc;"/><path d="M756.8,152.25c-14.54-1.85-8.7-9.46-9.54-21.36l21.43.02c.99,7.04-1.13,3.81-4.75,4.73h-2.38c-1.57.11-3.18-.09-4.75,0-.16,2.35.14,4.75-.02,7.11-.19,2.84-.34,6.77,0,9.49Z" style="fill:#585253;"/><path d="M775.85,138.02c1.28,1.89,11.66,2.55,7.14,16.6-9.52-1.77-11.08,6.73-14.29-11.86.44-.31-1.12-7.3,7.14-4.74Z" style="fill:#585253;"/><polygon points="778.23 183.08 775.89 181.89 778.23 180.71 778.23 183.08" style="fill:#fdf7fa;"/><path d="M792.51,5.21c8.76,6.49,1.56,10.58,0,16.6-2.8,10.8-2.92,19.33-2.38,30.83-10.88-.61-14.21,4.14-19.05,4.74-4.34.54-10.94.27-15.48,0-2.69-.16-6.56,1.58-5.94-2.35,14.07,3.54,14.61-26.29,16.67-28.49.99-1.06,6.19,2.59,8.18,2.48,1.4-.08,1.23-3.87,1.84-4.15,1.2-.55,3.48,1.71,3.92,1.36,4.44-3.57,2.33-21.53,12.23-21.03Z" style="fill:#585253;"/><path d="M773.47,69.24c1.13.19,2.09,1.24,2.38,2.37-2.56,3.71-5.01,7.9-7.14,11.86-3.03.35-6.69-.51-9.52,0v-2.37c-.71-5.39,4.26-5.68,7.19-8.72l-.05-3.14c2.25.33,4.95-.38,7.14,0Z" style="fill:#fd65b5;"/><path d="M756.8,40.78h-4.76c-.57-5.97.75-13.68,3.57-19,1.9,0,1.47,16.11,1.19,19Z" style="fill:#fdf7fa;"/><path d="M756.8,40.78c-.37,3.79,1.53,5.51-3.55,4.76-2.22.07-1.06-3.11-1.21-4.76h4.76Z" style="fill:#fccfed;"/><path d="M763.94,194.94c-.61,2.87.81,10.71,0,11.86-.25.36-4.29-1.03-4.71,1.43-.8,4.72,5.32,20.43-7.23,13.77l.05-29.42,11.89,2.36Z" style="fill:#fccfed;"/><path d="M771.09,185.45c-.21.13.41,3-.8,3.92-1.51,1.15-3.84.66-3.96.82-.57-5.04-.3-5.31,4.76-4.74Z" style="fill:#fccfed;"/><path d="M542.53,83.47c-7.24,7.09-24.8,5.52-34.64,4.75-7.31-.57-6.13,1.16-5.84-7.12,13.73.09,27.67,1.79,40.47,2.37Z" style="fill:#f8418d;"/><path d="M102.07,59.75l4.76,4.74c-1.48-.19-3.23-.03-4.76,0-7.24.16-13.74,3.56-19.12,8.23-3.2,2.78-16.86,21.53-17.93,24.83-3.31,10.19-6.08,51.06-5.89,62.87.14,8.64,4.95,14.95,7.21,22.64-3.16.03-6.34.01-9.51.01-2.38,0-4.76,0-7.14,0-1.13-2.1-5.2-3.09-7.14-4.74-3.2-27.86-5.71-69.57,8.51-94.69,3.05-5.4,13.54-11.22,15.05-16.21,1.02-3.38-2.12-4.99-2.13-5.31-.03-.77.13-1.63,0-2.37,12.6.6,25.53-.84,38.09,0Z" style="fill:#e53278;"/><path d="M63.98,62.13c.01.32,3.15,1.93,2.13,5.31-1.51,4.99-12,10.81-15.05,16.21-14.22,25.12-11.71,66.84-8.51,94.69-8.83-7.51-22.25-17.13-23.81-28.46-.41-2.97,1.44-7.79-2.38-9.49.09-3.16-.05-6.33,0-9.49.11-7.02.39-14.35,0-21.34-.13-2.35.24-4.79,0-7.11,6.13-5.4,5.59-14.69,9.52-21.34.33-.56,8.31-9.03,8.96-9.54,7.85-6.1,18.97-10.22,29.14-9.43Z" style="fill:#ba2a5d;"/><path d="M25.88,81.1c-3.93,6.65-3.39,15.95-9.52,21.34-.29-2.76-4.75-9.03-2.38-14.23,2.22-4.24,2.6-4.09,4.76-7.11h7.14Z" style="fill:#e53278;"/><path d="M16.36,109.56c.39,7,.11,14.32,0,21.34-2.2-.23-4.16,1.27-4.81-1.49-1.13-4.83-1.85-23.42,4.81-19.85Z" style="fill:#e53278;"/><path d="M18.74,149.88c-8.6-3.37-2.42-8.12-2.38-9.49,3.82,1.69,1.97,6.51,2.38,9.49Z" style="fill:#e53278;"/><path d="M656.81,90.58l-14.29,28.46c-.29-1.4-6.28-18.43-7.14-18.97,3.26-3.78,8.67-3.11,12.45-4.92,2.76-1.32,6.08-3.14,8.98-4.57Z" style="fill:#fbbbdd;"/><path d="M609.19,107.19v4.74h-2.38c-.02-.25-4.06-2.6-2.18-4.45,1.05-1.03,4.27.06,4.56-.3Z" style="fill:#fd65b5;"/><path d="M747.28,78.73c4,.7,8.05.92,11.9,2.37v2.37c-27.66,4.95-27.79-8.82-48.74-9.75-6.64-.29-32.79,4.96-39.35,7.38-1.45-6.5,3.53-4.36,7-5.95,31.08-14.3,41.42-1.26,69.19,3.58Z" style="fill:#fbbbdd;"/><path d="M797.27,43.15v9.49c-2.1-.36-4.82.13-7.14,0-.53-11.5-.42-20.03,2.38-30.83l4.76,21.34Z" style="fill:#a39c9d;"/><path d="M102.07,64.5c-10.04,21.78-28.11,29.49-30.64,56.02-1.24,13.05,2.42,38.09,4.58,51.77,1.11,7.03,6.57,9.13,7.01,15.52-8.55-.68-19.93,2.94-26.18-4.73,3.17,0,6.36.02,9.51-.01-2.26-7.69-7.06-14-7.21-22.64-.2-11.81,2.57-52.68,5.89-62.87,1.07-3.3,14.73-22.05,17.93-24.83,5.37-4.67,11.87-8.07,19.12-8.23Z" style="fill:#f8418d;"/><path d="M259.21,116.67c7.91.02,15.9.14,23.81,0,8.8-.15,17.07-1.93,26.19-2.37v4.74c-9.1-1.66-17.73,1.93-26.19,2.37-.19,0-1.3-1.64-3.06-1.58-17.31.63-34.49,3.59-51.7-.8v-2.37c12.26-.58,19.44-.03,30.95,0Z" style="fill:#fc4e9f;"/><path d="M283.01,121.42v4.74h-54.76v-7.11c17.21,4.39,34.39,1.43,51.7.8,1.76-.06,2.87,1.59,3.06,1.58Z" style="fill:#fd65b5;"/><path d="M283.01,126.16h9.52v4.74c-10.1.19-21.07-.78-30.95,0-4.03-4.13-14.22-4.52-11.9,2.37-.78.1-1.6-.11-2.38,0-3.25-3.6-13.65-2.69-19.05-2.37v-4.74h54.76Z" style="fill:#f8418d;"/><path d="M223.49,116.67c-2.01-.12-6.23-3.36-9.52-2.37.73.03,6.7-6.37,9.52,2.37Z" style="fill:#fd54ab;"/><path d="M125.18,107.67c20.21-5.9,37.33.75,33.95,24.23-4.12,28.62-56.7,19.45-48.97-8.17,1.01-3.61,11.53-15.05,15.01-16.07ZM151.53,119.54c-5.53-9.66-26.57-3.65-28.1,7.93-3.42,25.92,39.02,11.14,28.1-7.93Z" style="fill:#fe94db;"/><path d="M311.58,126.16v4.74c-.79-.02-1.59.02-2.38,0-5.53-.12-11.14-.1-16.67,0v-4.74h19.05Z" style="fill:#fc4e9f;"/><path d="M261.59,130.9c-1.82.14-7.65,1.85-11.9,2.37-2.32-6.89,7.88-6.5,11.9-2.37Z" style="fill:#fc4e9f;"/><path d="M592.52,100.07c-12.1,3.25-2.41,6.66-2.2,17.75.09,4.72-.9,17.14-2.49,21.04-1.4,3.44-9.13-1.2-7.22,6.28-7.04,1.26-13.44,4.02-21.42,2.36-.1-11.12,17.2-1.19,20.96-13.5,1.09-3.59,1.29-22.06.16-25.32-.73-2.09-13.65-10.63-11.6-1.49-.62-.74-6.96,2.21-4.77-7.1,6.41-.65,13.64,2.95,11.92-4.75,4.47.59,12.23,3.11,16.67,4.74Z" style="fill:#fe7ccc;"/><path d="M492.53,111.93l-2.37,1.21,2.37,3.53c.25,1.33.02,3.23,0,4.74l-11.87,17.8,2.34,1.18c-5.31,2.88-6.54,1.42-9.52,2.37,17.89-14.84,11.82-21.99,2.38-37.95,7.02.46,13.43-1.49,16.67,7.11Z" style="fill:#d15e89;"/><path d="M468.72,145.13c-18.47,3.36-33.59-1.18-52.37-.02l7.13-4.72,45.24,4.74Z" style="fill:#fe7ccc;"/><path d="M368.72,135.65c.95,8-2.39,3.58-6.68,3.12-8.59-.91-19.05-1.17-26.65-5.49,11.11.8,22.24,1.47,33.33,2.37Z" style="fill:#fbbbdd;"/><path d="M568.71,109.56c7.98,6.7,4.72,17.83,2.35,26.07-3.99.64-2.23-4.47-2.35-7.1-.28-6.01.86-13.44,0-18.97Z" style="fill:#fe7ccc;"/><path d="M483,140.39l-2.34-1.18,11.87-17.8c0,.22,1.93,1.35,1.75,3.1-.73,6.88-5.28,12.62-11.27,15.87Z" style="fill:#ba2a5d;"/><path d="M592.52,100.07c1.32.49,14.76,2.65,9.52,7.11-1.01.86-6.45-1.65-7.3,1.3-1.43,4.95,1.59,15.17.03,21.11l-4.63,13.18c-2.88,1.08-3.5,1.56-7.14,2.37-.75.17-1.61-.14-2.38,0-1.91-7.48,5.82-2.84,7.22-6.28,1.59-3.89,2.58-16.31,2.49-21.04-.21-11.08-9.91-14.49,2.2-17.75Z" style="fill:#fd65b5;"/><path d="M333.01,133.27c-5.02-.36-6.77-2.35-7.14-2.37l7.14,2.37Z" style="fill:#fbbbdd;"/><path d="M492.53,114.3c.19.71-.15,1.58,0,2.37l-2.37-3.53,2.37-1.21c.25.65-.2,1.59,0,2.37Z" style="fill:#ba2a5d;"/><path d="M553.24,145.13c1.55.79,1.55,1.58,0,2.37v-2.37Z" style="fill:#fe7ccc;"/><path d="M437.77,100.07c12.12-.77,24.53.64,36.69-.13,2.91.41.86,3.95,1.41,4.87-22.38-1.47-44.61.9-66.66,2.37-2.12-8.44,14.88-3.96,22.81-4.65,3.05-.26,5.43-2.45,5.76-2.47Z" style="fill:#fe7ccc;"/><path d="M316.35,114.3c-.04,2.61-4.67,4.42-4.76,4.74h-2.38v-4.74c2.37-.12,4.77.13,7.14,0Z" style="fill:#fd65b5;"/><path d="M759.18,92.96c-.88,4.52-1.21,9.89-2.38,14.23-.41,1.52-3.52,3.98-2.38,7.11-2.02-.56-5.43,1.51-7.38-1.39-1.71-2.54-3.33-16.18-2.03-17.48.51-.51,12.47-.81,14.17-2.48Z" style="fill:#585253;"/><path d="M768.7,111.93c-.22.16,1.13,4.18-1.57,4.85-4.8,1.19-8.67-1.35-12.71-2.48-1.14-3.13,1.97-5.59,2.38-7.11l11.9,4.74Z" style="fill:#ba2a5d;"/><path d="M761.56,135.65h2.38c-2.43.62-2.12-.02-2.38,0Z" style="fill:#fbbbdd;"/><path d="M309.2,119.04h2.38c-.44,1.59,0,5,0,7.11h-28.57v-4.74c8.46-.44,17.09-4.03,26.19-2.37Z" style="fill:#fe94db;"/><path d="M151.53,119.54c10.92,19.07-31.52,33.85-28.1,7.93,1.53-11.59,22.57-17.59,28.1-7.93Z" style="fill:#fea8ea;"/></g></svg>