<?xml version="1.0" encoding="UTF-8"?><svg id="Capa_2" xmlns="http://www.w3.org/2000/svg" viewBox="0 0 537.49 404.89"><g id="Layer_1"><path d="M476.44,90.37c.32.4,6.08-.94,9.61,3.41,7.87,9.71,51.91,60,51.44,65.77-1.34,16.34-40.03,30.45-51.48,35.68-39.64-10.08-9.88-19.07-9.4-21.97,3.14-19-20.91-37.65-38.45-39.99-1.63-4.17-1.76-7.62-4.79-14.3-1.35-2.99-2.99-7.1-4.79-9.53,20.13,4.12,29.71-15.65,47.85-19.07Z" style="fill:#fccb08;"/><path d="M160.62,271.5c4.07,18.62,8.31,19.31,23.93,14.3,2.16-.69,7.02,1.49,9.02-.5,1.91-1.89.12-6.41.55-9.04h19.14c7.58,0,16.86.95,23.93,0,2.35,6.23,9.1,4.55,14.36,4.77,3.17.13,6.4.05,9.57,0,.8,19.42-19.83,6.47-19.14,23.83.06,1.58-.14,3.2,0,4.77l-9.57,9.53c-10.27,4.77-15.04,4.65-23.93,14.3l-19.14,9.53c-1.61.34-11.36,3.72-14.36,4.77,2.23-12.74-3.03-9.73-14.36-9.53-.26-1.59.35-3.32,0-4.77-1.91-7.86-10.11-18.9-9.57-23.83.46-4.14,8.36-8.61,8.88-12.65.18-1.43-3.42-17.57-4.09-25.48h4.79Z" style="fill:#fbc50f;"/><path d="M462.08,71.3c-15.27,1.01-33.06,11.39-41.51,23.72l-6.34.11c-8.13-11.75-12.25-21.42-19.14-33.37,2.14-3.04,10.62-13.22,9.57-14.25l-19.14-4.82c.06-4.64-2.85-10.02-4.79-14.3,2.1-1.69,15.44-30.88,30.51-28.23,11.31,1.99,42.33,60.43,50.84,71.13Z" style="fill:#fccb08;"/><path d="M74.49,204.77c1.84,1.01,3.48,4.33,4.79,4.77-15.19-3.27-10.7,12.53-7.23,19.2,3.17,6.07,12.32,6.99,15.39,10.76,3.93,4.82,4.53,11.89,8.79,17.64,4.03,5.43,15.21,2.34,11.7,11.89-4.02,10.95-18.71,4.84-9.51,31.08-4.8,2.32-9.72,7.87-14.36,9.53-7,2.51-18.81-.9-23.93,9.53-4.16-5.22-9.43-12.64-14.36-19.07,4.67-15.6,27.44-14.42,24-30.97-32.19-11.07-12.71-10.42-14.16-27.95-.14-1.7-22.34-14.87-19.42-26.88,7.58-2.89,36.82-8.21,38.28-9.53Z" style="fill:#fab502;"/><path d="M36.2,214.3c-2.92,12.01,19.28,25.18,19.42,26.88,1.45,17.53-18.03,16.88,14.16,27.95,3.44,16.55-19.33,15.37-24,30.97-26.29-34.31-83.01-57.78-9.57-85.8Z" style="fill:#fccb08;"/><path d="M438.16,133.27c17.54,2.34,41.59,21,38.45,39.99-.48,2.9-30.25,11.9,9.4,21.97-32.3,14.77-44.27,22.8-81.35,33.37-.35-4.99,4.29-10.65,4.79-14.3.2-1.5.04-3.24,0-4.77h4.79l9.52,9.53c-.42-4.59.83-10.06.05-14.3,21.87-7.2,29.02-32.92,23.79-53.91-.27-1.09-5.61-7.8-9.43-17.59Z" style="fill:#f5e6c2;"/><path d="M141.48,347.77c1.47,1.63,1.92,3.78,4.79,4.77,1.01.35,3.28.1,4.79,0-.2,11.28-3.22,16.53,9.57,14.3-.9,2.46.93,7.21,0,9.53-10.37-.87-16.82-2.33-14.36,9.53-1.63,1.53-2.96,3.41-4.79,4.77-19.81-2.61-14.81-19.96-23.75-31.17-10.42-13.06-39.21-21.93-33.67-49.86,4.63-1.66,9.55-7.22,14.36-9.53,6.57,18.74,23.48,40.79,43.07,47.67Z" style="fill:#fccb08;"/><path d="M84.06,309.63c-5.54,27.93,23.25,36.8,33.67,49.86,8.94,11.21,3.94,28.57,23.75,31.17-3.08,2.3-6.44,11.8-11.97,14.22-21.77-21.08-42.96-43.42-62.06-66.91-5.27-6.48-5.8-16.9-7.32-18.81,5.12-10.43,16.93-7.02,23.93-9.53Z" style="fill:#fbc50f;"/><path d="M409.45,214.3c-.49,3.65-5.13,9.31-4.79,14.3-12.6,3.59-46.7,20.46-60.82,27.6-15.45,7.81-12.57,13.69-34.88,20.07-6.3,1.8-12.38,4.85-19.13,4.72.64-3.38,5.21-17.53,4.78-19.02,11.61,1.54,22.48-12.12,28.71-14.3,7.14-2.5,18.8-1.04,30.1-5.77,20.78-8.69,33.26-29.34,56.04-27.59Z" style="fill:#fbea81;"/><path d="M328.1,66.54c8.58-.17,22.71,4,28.71,9.53,1.31,1.21,4.67,4.2,4.79,4.77,1.16,5.57-2.04,13.91-4.79,19.07-2.65-.9-8.18,1.03-9.57,0-2.15-1.59,6.02-3.9-9.57-9.53-24.25-8.76-16.34,1.4-23.93,4.77-8.15,3.62-14.67,6.08-23.93,4.77-.66-2.24-4.98-5.71-4.79-9.53,13.88-8.43,31.04-16.05,43.07-23.83Z" style="fill:#fbc50f;"/><path d="M294.6,261.97c.44,1.5-4.14,15.64-4.78,19.02,6.75.13,12.84-2.92,19.13-4.72l-43.4,30.89-23.59-2.29c-.69-17.37,19.95-4.41,19.14-23.83,6.37-.09,12.77.12,19.12-.02l-.03-9.5-28.66,9.53c-5.26-.22-12,1.46-14.36-4.77,1.57-.21,3.24.25,4.79,0,8.1-1.33,16.72-7.01,23.93-9.53,4.78-1.67,8.67-2.55,14.36-4.77,3.25-1.27,7.3-.82,9.57-4.77.75.95,3.7,1.04,4.79,4.77Z" style="fill:#f5e6c2;"/><path d="M208.47,133.27c3.79,16.62-5.12,12.46-14.36,19.07-9.73,6.96-22.45,15.48-33.5,23.83-8.27,6.26-22.05,12.56-28.71,19.07h-4.79c.39-4.45.57-8.16-4.79-9.53,20.29-26.72,58.47-37.08,86.13-52.43Z" style="fill:#d2b282;"/><path d="M462.08,71.3c5.33,6.7,10.1,13.72,14.36,19.07-18.14,3.42-27.72,23.19-47.85,19.07-2.47-3.35-9.09-6.7-14.36-14.3l6.34-.11c8.44-12.33,26.24-22.71,41.51-23.72Z" style="fill:#fab502;"/><path d="M380.74,28.4c1.94,4.28,4.84,9.66,4.79,14.3-.37,29.4-24.66,7.2-28.71,33.37-6-5.53-20.13-9.7-28.71-9.53,10.95-7.08,41.62-29.27,52.64-38.13Z" style="fill:#d2b282;"/><path d="M285.03,90.37c-.2,3.83,4.13,7.3,4.79,9.53.73,2.5-.5,6.51,0,9.53-8.95,5.73-12.17,12.35-23.93,14.3-4.72.78-18.16-3.51-23.93-4.77,14.25-10.35,23.81-16.9,43.07-28.6Z" style="fill:#c7bdb9;"/><path d="M222.83,128.5l9.57,19.07c-4.66,3.55-3.97,8.73-4.79,9.53-2.55,2.5-8.41,7.47-9.57,9.53-.87,1.53-4.14,2.93-4.79,4.77-3.17.17-6.42-.26-9.57,0-.59-12,4.79-22.04-9.57-19.07,9.24-6.6,18.14-2.45,14.36-19.07,5.1-2.83,10.76-2.98,14.36-4.77Z" style="fill:#507a40;"/><path d="M241.97,118.97c5.77,1.26,19.2,5.55,23.93,4.77v9.53c-4.83.73-30.05,11.67-33.5,14.3l-9.57-19.07c3.21-1.6,18.21-8.86,19.14-9.53Z" style="fill:#85967e;"/><path d="M112.77,185.7c-.2,4.75.3,9.57,0,14.3-5.13-.47-7.53-.5-9.57,4.77-.85,2.19.57,6.62,0,9.53-3.05-.41-6.78.62-9.57,0-2.18-.48-10.84-3.58-14.36-4.77-1.3-.44-2.95-3.76-4.79-4.77.67-.61-1.81-7.03.77-8.66,1.36-.86,17.18-5.7,17.9-5.11,2.15,1.73-3.11,10.9,5.2,8.97-1.7-17.67.18-14.12,14.4-14.27Z" style="fill:#d2b282;"/><path d="M122.34,185.7c5.36,1.37,5.18,5.08,4.79,9.53l-9.57,14.3c-1.54-.28-3.3.37-4.79,0,.66-2.41-.19-6.43,0-9.53.3-4.73-.2-9.55,0-14.3,2.98-.03,7.24-.6,9.57,0Z" style="fill:#8c7a68;"/><path d="M160.62,338.23c11.32-.2,16.59-3.21,14.36,9.53-1.89.66-6.03-1.44-8.73.69-3.2,2.53-3.87,13.59-5.62,18.37-12.79,2.23-9.77-3.02-9.57-14.3,20.53-1.39,9.56-8.61,9.57-9.53.01-1.53.24-3.29,0-4.77Z" style="fill:#eeab04;"/><path d="M208.47,333.47c-.71.78,1.69,7.16-.49,8.95-3.33,2.73-13.7-.46-18.65.58l19.14-9.53Z" style="fill:#fad632;"/><path d="M160.62,376.37c-4.52,11.32-12.63,7.92-14.36,9.53-2.47-11.86,3.98-10.4,14.36-9.53Z" style="fill:#fbc50f;"/><path d="M241.97,309.63c.06.67,6,1.04,4.78,4.69-5.33-.05-9.75,2.7-14.35,4.84l9.57-9.53Z" style="fill:#fbea81;"/><path d="M433.37,118.97c3.02,6.68,3.16,10.13,4.79,14.3,3.82,9.79,9.16,16.51,9.43,17.59,5.23,20.99-1.91,46.71-23.79,53.91-1.62-8.78-14.33-15.48,4.78-21.42-4.25-3.71-11.61-10.87-9.56-16.72.58-1.65,15.99-10.19,9.61-23.82-4.46-1.05-17.77,1.27-19.18-.02-1.33-1.21,2.28-21.57-21.51-23.91-13.17-1.3-3.36,7.69-8.22,13.32-2.11,2.45-10.55-1.3-18.12,10.59-.68-2.42-3.8-3.38-4.79-4.77-1.5-2.11-4.33-7.31-4.79-9.53-.28-1.35-.11-3.35,0-4.77,8.3-3.62,14.03-9.65,14.36-19.07,1.01-.55,3.09.35,4.79,0l2.39,4.67,2.39-4.67c34.08-7.11,30.1-12.49,57.42,14.3Z" style="fill:#f1c246;"/><path d="M414.23,95.14c5.26,7.6,11.88,10.95,14.36,14.3,1.8,2.44,3.43,6.54,4.79,9.53-27.32-26.79-23.34-21.41-57.42-14.3-.23.05-.49-.89-4.79,0-1.7.35-3.78-.55-4.79,0-1.27.7-3.88-.76-4.79,0-1.83-1.02-3.48-4.32-4.79-4.77,2.75-5.16,5.95-13.5,4.79-19.07,5.77-10.52,28.23-6.57,32.85-10.34,2.4-1.96-.08-7.7.65-8.73,6.89,11.95,11.01,21.62,19.14,33.37Z" style="fill:#fad632;"/><path d="M79.27,209.53c3.52,1.19,12.18,4.29,14.36,4.77-8.34-1.65-12.76.73-9.57,9.53,1.47,4.08,10.42,9.1,14.36,9.53,2.77.3,5.51-1.63,4.79-4.77,3.33-2.48,8.92-4.13,9.57-4.77,1.34,1.76,3.47,3.05,4.79,4.77,3.53,4.61,8.21,16.24,10.84,17.8,11.4,6.76,25.05-2.99,27.44,25.1.67,7.91,4.27,24.06,4.09,25.48-.52,4.04-8.42,8.51-8.88,12.65-31.25-5.9-24.77,21.27-9.57,38.13-19.59-6.88-36.5-28.92-43.07-47.67-9.2-26.25,5.49-20.14,9.51-31.08,3.51-9.55-7.67-6.46-11.7-11.89-4.26-5.74-4.86-12.82-8.79-17.64-3.07-3.76-12.22-4.68-15.39-10.76-3.48-6.67-7.96-22.47,7.23-19.2Z" style="fill:#eeab04;"/><path d="M194.12,204.77c-6.45,21.58,25.22,25.18,27.95,29.38,2.91,4.47.11,16.47.76,23.06.16,1.59-.31,3.31,0,4.77h-4.79c-30.13-3.14-25.84-42.93-57.4-38.11-3.42,24.52,30.59,29.5,33.47,47.64-3.25,1.45-6.32,3.35-9.57,4.77-21.96,9.58-6.96-3.58-23.93-4.77h-4.79c-2.39-28.09-16.04-18.33-27.44-25.1-2.63-1.56-7.31-13.19-10.84-17.8,7.52-2.8,10.25-8.27,14.36-14.3h4.79c9.32,3.68,20.08-9.26,23.93-9.53,5.3-.37,22.01,9.31,33.5,0Z" style="fill:#4a2c1a;"/><path d="M194.12,271.5c-2.88-18.14-36.89-23.12-33.47-47.64,31.56-4.82,27.27,34.97,57.4,38.11-1.52.41-3.59-.58-4.79,0-6.68,3.24-11.28,7.52-14.36,14.3h-4.79c.22-1.34.21-3.42,0-4.77Z" style="fill:#e5e2e5;"/><path d="M151.05,309.63c-.54,4.93,7.66,15.97,9.57,23.83-17.65-15.5-22.53,12.4-4.79,9.53l-9.57,9.53c-2.86-.99-3.32-3.14-4.79-4.77-15.2-16.86-21.68-44.03,9.57-38.13Z" style="fill:#9e6839;"/><path d="M246.75,247.67c-.27,3.14.25,6.39,0,9.53-.25,3.13.51,6.69,0,9.53s-3.75,6.42-4.79,9.53c-1.55.25-3.22-.21-4.79,0-7.06.95-16.35,0-23.93,0v-9.53l14.35-.06c1.22-3.86-4.67-4.2-4.78-4.71-.31-1.45.16-3.17,0-4.77h4.79c5.14-.62,7.74-8.43,9.57-9.53,1.56-.94,6.78.63,9.57,0Z" style="fill:#cc3526;"/><path d="M160.62,271.5c16.96,1.19,1.97,14.35,23.93,4.77v9.53c-15.62,5.01-19.85,4.32-23.93-14.3Z" style="fill:#c7bdb9;"/><path d="M160.62,333.47c.35,1.44-.26,3.18,0,4.77.24,1.48.01,3.24,0,4.77h-4.79c-17.75,2.87-12.86-25.03,4.79-9.53Z" style="fill:#5d4439;"/><path d="M251.54,281.03l28.66-9.53.03,9.5c-6.35.14-12.75-.07-19.12.02-3.17.05-6.4.13-9.57,0Z" style="fill:#fad632;"/><path d="M194.12,276.27c-.43,2.63,1.36,7.15-.55,9.04-2.01,1.98-6.86-.2-9.02.5v-9.53c3.25-1.42,6.32-3.31,9.57-4.77.21,1.35.22,3.42,0,4.77Z" style="fill:#507a40;"/><path d="M213.26,266.73v4.77l-4.79,4.77h-9.57c3.08-6.78,7.68-11.06,14.36-14.3v4.77Z" style="fill:#5d4439;"/><polygon points="213.26 276.27 208.47 276.27 213.26 271.5 213.26 276.27" style="fill:#85967e;"/><path d="M385.52,42.7l19.14,4.82c1.06,1.03-7.43,11.2-9.57,14.25-.72,1.03,1.76,6.76-.65,8.73-4.62,3.77-27.08-.18-32.85,10.34-.12-.57-3.48-3.56-4.79-4.77,4.05-26.17,28.34-3.96,28.71-33.37Z" style="fill:#9e6839;"/><path d="M399.88,200c2.67-.67,6.53.45,9.57,0,.44,2.94-.09,6.43,0,9.53.04,1.53.2,3.27,0,4.77-22.78-1.74-35.26,18.9-56.04,27.59-11.3,4.73-22.96,3.27-30.1,5.77,12.26-21.74-7.34-1.13-15.71-1.07-7.52.06-19.53-6.1-27.35-8.47,1.98-2.72,2.97-6.59,4.79-9.53,11.04-1.9,28.55,5.53,33.5-9.53.52.9,7.23,3.74,9.57,4.77.72.32.97,4.79,2.34,4.69,4.13-1.74,5.11-7.23,7.23-9.46,3.57-3.75,4.32-9.27,4.79-9.53,1.36-.77,6.6.28,9.57,0,11.03-1.04,25.09,2.22,35.01-.08,3.53-.82-.02-6.25,12.84-9.45Z" style="fill:#fccb08;"/><path d="M419.02,166.63c-2.05,5.85,5.31,13,9.56,16.72-19.11,5.93-6.4,12.64-4.78,21.42.78,4.24-.46,9.7-.05,14.3l-9.52-9.53c-.25-3.13.38-6.44,0-9.53-.78-6.37-2.14-13.17-9.52-14.3-2.69,6.95,4.26,11.08,4.74,14.3-3.04.45-6.9-.67-9.57,0-1.62-7.06-12.84-7.89-14.45-12.78-6.12-18.6,3.28-13.73,9.67-15.82,7.7-2.52,15.81-4.14,23.93-4.77Z" style="fill:#f0d596;"/><path d="M414.23,209.53h-4.79c-.09-3.11.44-6.6,0-9.53h4.79c.38,3.1-.25,6.4,0,9.53Z" style="fill:#dabc94;"/><path d="M151.05,352.53c-1.5.1-3.77.35-4.79,0l9.57-9.53h4.79c0,.92,10.96,8.15-9.57,9.53Z" style="fill:#f1c246;"/><path d="M280.25,238.13c7.83,2.37,19.84,8.52,27.35,8.47,8.37-.06,27.97-20.68,15.71,1.07-6.23,2.18-17.1,15.84-28.71,14.3-1.09-3.73-4.04-3.82-4.79-4.77-2.72-3.47-8.57-3.74-9.57-4.77-1.08-1.1,2.63-10.14-4.79-9.53,1.11-1.77,3.54-3.06,4.79-4.77Z" style="fill:#f0d596;"/><path d="M318.53,104.67c5.56,5.48,10.59,6.43,14.36,9.53,1.7,1.4,3.05,3.34,4.79,4.77,3.53,2.89,4.74,11.07,14.36,9.53.46,2.22,3.29,7.42,4.79,9.53-5.91,3.43-4.05,9.05-4.79,14.3-1.18,8.38-.06,5.69,0,9.53.05,3.18,0,6.36,0,9.53-3.78,1.43-8.09,4.33-9.57,4.77-3.74,1.1-12.69,4.71-14.36,4.77s-3.2.02-4.79,0c-.99-.01-10.2-4.17-19.14-4.77-.17-18.11-25.2-37.08-43.05-33.33,2.95,9.42,3.47,18.88,4.77,28.57-2.87-.6-7.62.9-9.57,0-8.16-3.76-17.57-12.76-28.71-14.3.82-.8.12-5.98,4.79-9.53,3.45-2.62,28.67-13.57,33.5-14.3,6.96-1.05,16.81,6.82,23.93,0l33.47,19.04c4.94-5.37-11.62-30.99-19.12-33.34,1.07,1.07,4.9-.73,4.79-2.38-.35-5.2-7.04.14-4.79,2.38-2.45-.77-6.58.52-9.57,0-.06-5.38-4.61-8.5-4.79-9.53-.5-3.02.73-7.03,0-9.53,9.25,1.32,15.78-1.15,23.93-4.77-.28,4.64,1.79,6.58,4.79,9.53Z" style="fill:#5d4439;"/><path d="M337.67,90.37c-1.03,3.11-4.29,6.71-4.79,9.53-10.36-4.56-16.04-10.66-14.36,4.77-3-2.95-5.06-4.89-4.79-9.53,7.58-3.37-.32-13.53,23.93-4.77Z" style="fill:#c7bdb9;"/><path d="M337.67,90.37c15.59,5.63,7.42,7.94,9.57,9.53v4.77h-4.79c-3.24-1.46-6.32-3.34-9.57-4.77.5-2.83,3.75-6.42,4.79-9.53Z" style="fill:#8c7a68;"/><path d="M356.81,99.9c1.31.44,2.96,3.75,4.79,4.77-.66.55-9.28,13.49-9.57,14.3h-9.57c7.57-4.78,15.18-6.87,4.79-14.3v-4.77c1.39,1.03,6.92-.9,9.57,0Z" style="fill:#4a2c1a;"/><path d="M270.68,257.2c1.56.04,3.24.15,4.79,0,.28,2.21,2.51,4.26,4.79,4.77-5.68,2.22-9.58,3.1-14.36,4.77l-2.94-3.72-16.21,3.72c.51-2.84-.25-6.4,0-9.53,2.88-1.82,7.03-2.77,9.57-4.77,1.56,3.11,11.66,4.7,14.36,4.77Z" style="fill:#507a40;"/><path d="M265.89,266.73c-7.21,2.52-15.83,8.2-23.93,9.53,1.04-3.12,4.27-6.7,4.79-9.53l16.21-3.72,2.94,3.72Z" style="fill:#85967e;"/><path d="M289.82,257.2c-2.27,3.94-6.32,3.5-9.57,4.77-2.28-.5-4.51-2.56-4.79-4.77,2.5-.24,4.55-2.16,4.79-4.77,1.01,1.03,6.85,1.3,9.57,4.77Z" style="fill:#fad632;"/><path d="M194.12,152.33c14.36-2.98,8.98,7.07,9.57,19.07-12.09.98-12.3-.82-19.14,9.53-1.93,2.92-2.98,6.52-4.79,9.53-1.77-.55-7.17-.31-9.57,0-1.69.22-3.59-.44-4.79,0-.94-1.86-4.46-3.61-4.79-4.77-.72-2.55.49-6.53,0-9.53,11.04-8.35,23.76-16.88,33.5-23.83Z" style="fill:#215b9a;"/><path d="M160.62,185.7c-6.34,1.3-9.8,5.76-14.36,9.53-1.67,1.38-3.37,3.12-4.79,4.77-6.5,7.58-5.89,8.88-9.57,14.3-4.1,6.03-6.83,11.5-14.36,14.3-1.31-1.71-3.44-3.01-4.79-4.77,3.5-3.41,5.95-10.42,9.57-14.3,4.52-4.84,7.45-12.23,9.57-14.3,6.66-6.51,20.44-12.81,28.71-19.07.49,3-.72,6.98,0,9.53Z" style="fill:#9e6839;"/><path d="M122.34,209.53h-4.79l9.57-14.3h4.79c-2.12,2.07-5.05,9.46-9.57,14.3Z" style="fill:#f1c246;"/><path d="M294.6,118.97c.03,2.63-5.26,9.81-4.79,14.3-7.12,6.82-16.97-1.05-23.93,0v-9.53c11.76-1.95,14.97-8.57,23.93-14.3.17,1.03,4.73,4.15,4.79,9.53Z" style="fill:#4a2c1a;"/><path d="M256.32,171.4c-.63,2.76.94,8.03,0,9.53-.13.2-4.18.32-4.79,0-2.94-1.57-5.94-14.49-19.12-9.48-1.85,7.44,5.53,1.9,9.39,8.41,1.81,3.06-.65,9.74.16,10.61l-4.79,9.53c-3.24-1.49-6.36-3.23-9.57-4.77-12.81-6.15-15.14-3.56-14.36-19.07,8.12-.39,11.12,2.65,9.52-7.1l-4.74-2.43c1.16-2.06,7.02-7.03,9.57-9.53,11.14,1.54,20.55,10.54,28.71,14.3Z" style="fill:#dad2d4;"/><path d="M203.69,171.4c3.15-.26,6.4.17,9.57,0-.4,1.13.08,3.11,0,4.77-9.87.47-19.87-1.44-28.71,4.77,6.85-10.35,7.05-8.55,19.14-9.53Z" style="fill:#dad2d4;"/><path d="M213.26,176.17c-.79,15.51,1.54,12.92,14.36,19.07-11.39,22.05-2.53,12.44,9.57,9.53,1.51-.36,3.28.36,4.79,0l14.36,14.3c-.82,2.29.55,6.59,0,9.53-1.57.16-3.2-.09-4.79,0-2.87.17-6.08,6.33-14.11,2.56-10.89-5.12-17.87-24.8-24.36-28.75-7.33-4.46-15.46-1.02-18.95-2.41-6.08-2.42-12.74-9.03-14.36-9.53,1.81-3.01,2.86-6.62,4.79-9.53,8.84-6.21,18.84-4.3,28.71-4.77Z" style="fill:#4a2c1a;"/><path d="M218.04,166.63l4.74,2.43c1.6,9.75-1.41,6.71-9.52,7.1.08-1.66-.4-3.64,0-4.77.65-1.84,3.92-3.23,4.79-4.77Z" style="fill:#4a2c1a;"/><path d="M93.63,214.3c2.8.62,6.52-.41,9.57,0h4.79c-7.72,9.33-9.97,11.4-23.93,9.53-3.18-8.8,1.23-11.19,9.57-9.53Z" style="fill:#9e6839;"/><path d="M112.77,200c-.19,3.1.66,7.13,0,9.53-3.84-.96-6.11-3.25-9.57-4.77,2.04-5.26,4.44-5.24,9.57-4.77Z" style="fill:#507a40;"/><path d="M112.77,209.53c-.45,1.64-3.5,3.21-4.79,4.77h-4.79c.57-2.91-.85-7.34,0-9.53,3.46,1.52,5.73,3.8,9.57,4.77Z" style="fill:#85967e;"/><path d="M122.34,209.53c-3.62,3.88-6.07,10.89-9.57,14.3-.65.63-6.25,2.29-9.57,4.77-1.8,1.35-3.29,3.1-4.79,4.77-3.94-.43-12.88-5.46-14.36-9.53,13.96,1.86,16.21-.2,23.93-9.53,1.29-1.56,4.33-3.13,4.79-4.77,1.49.37,3.25-.28,4.79,0h4.79Z" style="fill:#e3ba10;"/><path d="M361.6,142.8c7.58-11.89,16.01-8.14,18.12-10.59,4.85-5.63-4.95-14.62,8.22-13.32,23.79,2.34,20.18,22.7,21.51,23.91-.63,3.55,1.04,13.43.03,14.31-3.02,2.63-44.91-5.93-14.39,14.29-6.39,2.09-15.79-2.78-9.67,15.82,1.61,4.89,12.84,5.73,14.45,12.78-12.86,3.2-9.31,8.64-12.84,9.45-9.91,2.3-23.97-.96-35.01.08.1-4.76-.15-9.54,0-14.3.1-3.17-.14-6.37,0-9.53.28-6.4.01-8.61,0-14.3,2.49-.94,8.58.97,9.54-.03,3.13-3.25-4.69-8.97-4.76-9.5-.32-2.74-.39-6.87,0-9.53.08-.53,4.22-8.64,4.79-9.53Z" style="fill:#e3ba10;"/><path d="M409.45,142.8c1.41,1.29,14.71-1.03,19.18.02,6.38,13.62-9.03,22.17-9.61,23.82-8.11.62-16.22,2.25-23.93,4.77-30.53-20.22,11.36-11.66,14.39-14.29,1.01-.88-.66-10.76-.03-14.31Z" style="fill:#fbc50f;"/><path d="M361.6,142.8c-.57.89-4.71,9.01-4.79,9.53h-4.79c.74-5.25-1.13-10.87,4.79-14.3.98,1.38,4.1,2.34,4.79,4.77Z" style="fill:#4a2c1a;"/><path d="M352.03,118.97c-.41,1.14.13,3.09,0,4.77-.11,1.42-.28,3.41,0,4.77-9.61,1.54-10.83-6.64-14.36-9.53h14.36Z" style="fill:#e5e2e5;"/><path d="M352.03,123.74c.13-1.67-.41-3.62,0-4.77.29-.81,8.91-13.75,9.57-14.3.91-.76,3.51.7,4.79,0-.33,9.41-6.06,15.45-14.36,19.07Z" style="fill:#c7bdb9;"/><path d="M375.95,104.67l-2.39,4.67-2.39-4.67c4.29-.89,4.55.05,4.79,0Z" style="fill:#9e6839;"/><path d="M98.41,233.37c1.49-1.67,2.98-3.42,4.79-4.77.73,3.14-2.02,5.07-4.79,4.77Z" style="fill:#9e6839;"/><path d="M251.54,228.6c-.98,3.08-4.4,6.82-4.79,9.53-.44,3.03.27,6.42,0,9.53-2.79.63-8.01-.94-9.57,0-10.17-1.14-10.72-.6-9.57,9.53h-4.79c-.65-6.59,2.15-18.58-.76-23.06-2.73-4.19-34.4-7.8-27.95-29.38v-4.77c3.5,1.39,11.63-2.06,18.95,2.41,6.49,3.95,13.48,23.63,24.36,28.75,8.03,3.77,11.24-2.39,14.11-2.56Z" style="fill:#dad2d4;"/><path d="M179.76,190.47c1.61.5,8.27,7.12,14.36,9.53v4.77c-11.48,9.31-28.2-.37-33.5,0,5.97-3.68,11.24-6.39,9.57-14.3,2.4-.31,7.8-.55,9.57,0Z" style="fill:#5d4439;"/><path d="M170.19,190.47c1.67,7.91-3.6,10.62-9.57,14.3-3.85.27-14.6,13.21-23.93,9.53l4.79-14.3c1.41-1.64,3.12-3.39,4.79-4.77l2.65,4.67c10.01,4.5,15.37-9.03,16.49-9.44,1.19-.44,3.1.22,4.79,0Z" style="fill:#c7bdb9;"/><path d="M222.83,261.97c.11.51,6,.85,4.78,4.71l-14.35.06v-4.77c1.19-.58,3.27.41,4.79,0h4.79Z" style="fill:#85967e;"/><path d="M136.69,214.3h-4.79c3.68-5.42,3.07-6.72,9.57-14.3l-4.79,14.3Z" style="fill:#f1c246;"/><path d="M270.68,233.37c2.04,7.07-8.36,14.35-14.36,19.07-2.54,2-6.69,2.94-9.57,4.77.25-3.14-.27-6.4,0-9.53.27-3.11-.44-6.5,0-9.53,6.27,2.24,11.27-3.95,14.36-4.77,2.66-.7,6.61.57,9.57,0Z" style="fill:#8c7a68;"/><path d="M237.18,247.67c-1.83,1.11-4.43,8.91-9.57,9.53-1.15-10.13-.6-10.68,9.57-9.53Z" style="fill:#4a2c1a;"/><path d="M313.74,204.77h4.79c-.56,1.35-.28,7.21,0,9.53.21,1.72-.5,3.9,0,4.77-4.94,15.06-22.46,7.63-33.5,9.53-5.66.98-10.38,4-14.36,4.77-2.96.57-6.91-.7-9.57,0v-4.77c5.93-1.48,9.4-.39,14.36-4.77,1.8-1.59,2.71-7.2,4.79-9.53,1.36-1.53,3.18-2.68,4.79-4.77,1.28-1.67,3.62-2.89,4.79-4.77,7.97-.18,15.96.12,23.93,0Z" style="fill:#cc3526;"/><path d="M332.88,190.47c1.89,4.57-4.62,12.14,9.57,9.53-8.35,6.05-17.78,9.8,0,9.53-.47.26-1.22,5.79-4.79,9.53-3.01-.5-7.05.74-9.57,0-2.22-.65-5.72-4.98-9.57-4.77-.28-2.33-.56-8.19,0-9.53,1.25-3,12.79-5.73,9.57-14.3h4.79Z" style="fill:#85967e;"/><path d="M352.03,209.53c-2.97.28-8.21-.77-9.57,0-17.78.26-8.35-3.49,0-9.53,1.79-1.29,3.15-3.28,4.79-4.77h4.79c-.15,4.76.1,9.54,0,14.3Z" style="fill:#c7bdb9;"/><path d="M285.03,228.6c-1.81,2.94-2.8,6.81-4.79,9.53-1.24,1.71-3.67,2.99-4.79,4.77-2.95,4.69-6.79,6.79-4.79,14.3-2.69-.07-12.8-1.66-14.36-4.77,6-4.71,16.39-11.99,14.36-19.07,3.97-.77,8.7-3.79,14.36-4.77Z" style="fill:#4a2c1a;"/><path d="M328.1,219.07v4.77c-2.34-1.03-9.05-3.86-9.57-4.77-.5-.87.21-3.05,0-4.77,3.85-.21,7.35,4.12,9.57,4.77Z" style="fill:#8c7a68;"/><path d="M337.67,219.07c-2.12,2.23-3.1,7.72-7.23,9.46-1.37.1-1.62-4.37-2.34-4.69v-4.77c2.52.74,6.56-.5,9.57,0Z" style="fill:#5d4439;"/><path d="M414.23,200h-4.79c-.48-3.21-7.43-7.35-4.74-14.3,7.39,1.13,8.74,7.93,9.52,14.3Z" style="fill:#d2b282;"/><path d="M265.89,171.4c-1.3-9.69-1.82-19.14-4.77-28.57,17.85-3.75,42.88,15.22,43.05,33.33,8.94.6,18.15,4.75,19.14,4.77-1.83.98-3.57,4.41-4.79,4.77-10.93,3.19-16.86,7.25-23.93,9.53,3.27-6.18,9.65-10.66,9.57-19.07-6.29-.42-12.81,0-19.14,0,2.79-13.34-13.46-17.23-14.36,0-.08,1.55-.1,3.22,0,4.77-4.82-1.18-4.26-5.58-4.79-9.53Z" style="fill:#e5e2e5;"/><path d="M304.17,118.97c7.5,2.35,24.05,27.98,19.12,33.34l-33.47-19.04c-.47-4.49,4.81-11.67,4.79-14.3,2.99.52,7.12-.77,9.57,0Z" style="fill:#e5e2e5;"/><path d="M251.54,180.93l2.39,4.67,2.39-4.67c.94-1.5-.63-6.77,0-9.53,1.95.9,6.7-.6,9.57,0,.53,3.95-.03,8.35,4.79,9.53.19,3.07-.68,7.25,0,9.53-13.58-1.5-8.22.99-9.57,9.53-1.54-.05-3.28-.19-4.79,0,4.49-14.75-12.83-7.91-14.36-9.53-.81-.86,1.65-7.55-.16-10.61-3.86-6.51-11.24-.97-9.39-8.41,13.18-5.01,16.18,7.91,19.12,9.48Z" style="fill:#4a2c1a;"/><path d="M332.88,99.9c-.52,2.94.35,6.46,0,9.53v4.77c-3.76-3.1-8.79-4.05-14.36-9.53-1.69-15.42,4-9.32,14.36-4.77Z" style="fill:#e5e2e5;"/><path d="M347.24,104.67c10.4,7.43,2.79,9.52-4.79,14.3h-4.79c-1.74-1.43-3.08-3.36-4.79-4.77v-4.77l9.57-4.77h4.79Z" style="fill:#85967e;"/><path d="M342.45,176.17l3.74,2.29-3.74,12.01c-3.11.28-6.42,0-9.57,0-1.35-3.26-3.33-6.31-4.79-9.53,1.66-.05,10.62-3.67,14.36-4.77Z" style="fill:#dad2d4;"/><path d="M352.03,171.4c.01,5.69.28,7.9,0,14.3-1.84.92-3.74,4.55-4.79,4.77-1.48.31-3.2-.14-4.79,0l3.74-12.01-3.74-2.29c1.48-.44,5.8-3.34,9.57-4.77Z" style="fill:#e5e2e5;"/><path d="M328.1,180.93c1.46,3.23,3.43,6.27,4.79,9.53h-14.36v-4.77c1.21-.35,2.95-3.79,4.79-4.77,1.59.02,3.2.05,4.79,0Z" style="fill:#c7bdb9;"/><path d="M356.81,152.33c-.39,2.66-.32,6.79,0,9.53h-4.79c-.06-3.84-1.18-1.15,0-9.53h4.79Z" style="fill:#c7bdb9;"/><path d="M356.81,161.87c.06.53,7.89,6.25,4.76,9.5-.97,1-7.05-.91-9.54.03,0-3.18.05-6.36,0-9.53h4.79Z" style="fill:#f0d596;"/><path d="M304.17,118.97c-2.25-2.25,4.43-7.59,4.79-2.38.11,1.65-3.71,3.45-4.79,2.38Z" style="fill:#4a2c1a;"/><path d="M342.45,104.67l-9.57,4.77c.35-3.07-.52-6.59,0-9.53,3.25,1.43,6.33,3.31,9.57,4.77Z" style="fill:#4a2c1a;"/><path d="M275.46,257.2c-1.54.15-3.22.04-4.79,0-2.01-7.51,1.84-9.61,4.79-14.3.39,4.67-.58,9.67,0,14.3Z" style="fill:#85967e;"/><path d="M165.4,190.47c-1.12.41-6.48,13.93-16.49,9.44l-2.65-4.67c4.56-3.78,8.02-8.24,14.36-9.53.33,1.16,3.84,2.91,4.79,4.77Z" style="fill:#e3ba10;"/><path d="M241.97,190.47c1.53,1.63,18.84-5.21,14.36,9.53-2.96.37-9.53,3.6-14.36,4.77-1.51.36-3.28-.36-4.79,0v-4.77l4.79-9.53Z" style="fill:#8c7a68;"/><path d="M237.18,200v4.77c-12.1,2.91-20.96,12.51-9.57-9.53,3.21,1.54,6.33,3.28,9.57,4.77Z" style="fill:#5d4439;"/><path d="M251.54,180.93c.61.32,4.66.2,4.79,0l-2.39,4.67-2.39-4.67Z" style="fill:#8c7a68;"/><path d="M352.03,195.23h-4.79v-4.77c1.04-.22,2.95-3.85,4.79-4.77-.14,3.17.1,6.36,0,9.53Z" style="fill:#dad2d4;"/><path d="M261.11,228.6v4.77c-3.09.82-8.08,7-14.36,4.77.39-2.71,3.81-6.46,4.79-9.53,1.59-.09,3.21.16,4.79,0s3.42.34,4.79,0Z" style="fill:#9e6839;"/><path d="M318.53,185.7v4.77l-4.79,14.3c-7.97.12-15.96-.18-23.93,0,1.85-2.97,3.14-6.42,4.79-9.53,7.07-2.28,13-6.34,23.93-9.53Z" style="fill:#215b9a;"/><path d="M285.03,209.53c-1.6,2.09-3.43,3.24-4.79,4.77h-4.79c.28-1.53-.21-3.21,0-4.77h9.57Z" style="fill:#8c7a68;"/><path d="M275.46,214.3c-.33,1.79-3.88,4.27-3.87,7.21l3.87,2.32c-4.95,4.38-8.43,3.28-14.36,4.77-1.37.34-3.14-.16-4.79,0,.55-2.94-.82-7.24,0-9.53.11-.32,4.16-1.5,4.79-4.77h14.36Z" style="fill:#8c7a68;"/><path d="M289.82,204.77c-1.16,1.87-3.5,3.09-4.79,4.77h-9.57v-4.77c1.56-.18,3.2.09,4.79,0,3.17-.18,6.39.07,9.57,0Z" style="fill:#85967e;"/><path d="M275.46,209.53c-.21,1.56.28,3.24,0,4.77h-14.36c.3-1.53-.31-3.24,0-4.77,3.85.31,7.49-4.21,9.57-4.77,1.35-.36,3.13.19,4.79,0v4.77Z" style="fill:#f1c246;"/><path d="M275.46,223.83l-3.87-2.32c-.02-2.95,3.54-5.42,3.87-7.21h4.79c-2.08,2.33-2.98,7.94-4.79,9.53Z" style="fill:#f1c246;"/><path d="M328.1,190.47c3.22,8.57-8.32,11.3-9.57,14.3h-4.79l4.79-14.3h9.57Z" style="fill:#507a40;"/><path d="M342.45,190.47c1.58-.14,3.31.31,4.79,0v4.77c-1.64,1.48-3,3.47-4.79,4.77-14.19,2.6-7.68-4.96-9.57-9.53,3.15,0,6.46.28,9.57,0Z" style="fill:#507a40;"/><path d="M285.03,176.17c6.33,0,12.85-.42,19.14,0,.08,8.41-6.3,12.88-9.57,19.07-4.79,1.55-10.01,1.85-14.36,4.77-3.3-.1-3.7-3.67-4.79-4.77,4.87-6.34,4.81-12.81,0-19.07h9.57Z" style="fill:#4a2c1a;"/><path d="M275.46,195.23c-1.49-1.51-4.09-2.44-4.79-4.77-.68-2.29.19-6.46,0-9.53-.1-1.55-.08-3.21,0-4.77h4.79c4.81,6.25,4.87,12.72,0,19.07Z" style="fill:#8c7a68;"/><path d="M270.68,176.17c.89-17.23,17.14-13.34,14.36,0h-14.36Z" style="fill:#5d4439;"/><path d="M261.11,200c-.48,3.01.58,6.67,0,9.53-.31,1.53.3,3.23,0,4.77-.63,3.26-4.67,4.45-4.79,4.77l-14.36-14.3c4.83-1.16,11.4-4.39,14.36-4.77,1.51-.19,3.24-.05,4.79,0Z" style="fill:#c7bdb9;"/><path d="M270.68,190.47c.7,2.33,3.29,3.26,4.79,4.77,1.08,1.09,1.48,4.66,4.79,4.77v4.77c-1.58.09-3.22-.18-4.79,0-1.65.19-3.43-.36-4.79,0-1.52-4.61-5.36-4.64-9.57-4.77,1.35-8.54-4.01-11.04,9.57-9.53Z" style="fill:#dad2d4;"/><path d="M294.6,195.23c-1.65,3.11-2.94,6.56-4.79,9.53-3.18.07-6.4-.18-9.57,0v-4.77c4.34-2.91,9.57-3.22,14.36-4.77Z" style="fill:#c7bdb9;"/><path d="M270.68,204.77c-2.08.56-5.72,5.08-9.57,4.77.58-2.87-.48-6.53,0-9.53,4.21.12,8.06.15,9.57,4.77Z" style="fill:#85967e;"/></g></svg>