<?xml version="1.0" encoding="UTF-8"?><svg id="Capa_2" xmlns="http://www.w3.org/2000/svg" viewBox="0 0 458.8 450.35"><g id="Layer_1"><path d="M271.66,23.09h3.9c.11,4.38,17.13,1.54,11.73,15.54,4.48.65,6.26-7.21,7.76-7.77,3.46-1.31,11.58,1.19,15.6,0-2.96,9.39,8.52,8.54,11.68,13.61l-7.78,5.81c-12.29-1.24-16.65,3.11-15.6,15.54-1.16-.65-5.39.36-7.8,0-.26-15.61-17.06-23.31-31.15-27.2.32,26.51-20.82,11.4-36.98,11.48-21.87.11-14.64,10.43-21.21,17.91-4.58,5.22-12.03,3.97-14.84,6.68-7.43,7.19-10.68,31.87-34.2,30.02-10.02-14.64,15.27-12.31,13.58-27.22-8.34,5.72-35.51-3.18-38.95,0-9.1,8.43,18.64,17.59,11.66,23.26l-23.41,1.96,11.71,13.58c-30.15-7.75-22.77,2.15-31.03,16.85-2.15,3.83-7.14,1.87-8.51,3-1.91,1.57-9.6,15.75-11.19,4.68-.59-4.07,2.77-10.06-3.79-8.96,3.23,17.42-3.9,18.27-19.53,19.4-.21-10.68,7.79-6.8,8.11-10.11,1.3-13.53-13.52-8.26,11.36-19.04.68-1.46-9.82-5.42-11.68-5.81-1.27-3.98,3.32-6.27,3.9-7.77l38.99-.04c1.28-.94-4.86-8.51-3.9-11.62.37-1.18,10.07-3.84,7.84-9.67l-7.81-5.82,23.36-7.86-7.78-9.68c14.59-4.2,4.2-6.21,3.89-9.69-.13-1.4,19.88-16.65,23.37-7.73l7.82-11.69c20.94,14.13,25-5.57,29.7-7.2,5.29-1.83,28.08-1.6,34.92-.91,8.07.82,5.21,11.73,9.41,8.07,1.06-.93,7.19-15.02,7.94-15.45,1.71-.99,18.3,17.12,36.91,7.64,2.63-.66,1.51-2.84,2-3.8ZM78.64,120.19v3.88c2.53-1.29,2.53-2.59,0-3.88Z" style="fill:#e8dc0a;"/><path d="M439.32,217.3c34.58.54,13.87,59.71,7.48,79.31-9.15,28.07-38.18,80.96-65.97,91.59-4.27,1.63-15.7,1.24-19.5,3.88-1.53-.69-3.21-3.8-3.9-3.88,1.65-.88,2.58-2.8,3.9-3.88,7.27-5.97,18.79-7.07,19.55-7.81.94-.91-5.32-9.14-3.92-11.6.56-.99,12.99,3.55,19.43-7.79l3.88,7.74-3.85-23.28c4.77-1.89,11.3-6.5,15.56-9.76,2.51-10.37-9.71-3.77-11.54-5.87-13.59-15.6,30.67-21.74,23.23-38.74-3.87,1.75-7.41,3.06-11.66,3.88l-3.9-11.65c2.76-.34,26.62,1.2,27.26,0,6.38-11.84-9.14-16.17-9.93-26.8l2.17-8.16c-.32,9.34,9.19,14.43,17.51,15.57,7.85,0-5.67-13.55-5.81-15.57-.04-.61,4.82-5.01,3.9-11.65-.59-4.28-3.56-8.52-3.9-15.54-4.5-.07-10.71,3.35-15.6,3.88-.51-6.08-3.9-11.04-3.9-11.65.05-9.56,4.82-14.22,11.7-19.42,2.13-1.61,5.44-2.38,7.8-3.88-2.36,13.78-.64,17.86,0,31.07Z" style="fill:#eee647;"/><path d="M33.8,190.11c0,1.29-.02,2.59,0,3.88s-.1,2.61,0,3.88c-11.1,13.15-24.73,26.66-7.8,38.84-10.7,10.09-3.77,18.96-3.9,23.3-.25,8.38,1.93,18.04-3.81,25.29l15.51-1.99h3.9c.68,1.18,3.68,2.42,3.9,3.88.16,1.11.17,2.77,0,3.88-1.32,8.43-11.88,12.63-11.71,13.51,3.05,16.33,22.15,14.62,35.09,13.7l-11.66,11.72,15.57,7.74-7.79,19.36c-1.48.31-4.74,4.19-7.8,3.88C22.68,322.29,1.51,284.43.02,230.44c-.71-25.88,18.04-23.56,25.98-44.22,1.29-.12,2.62.16,3.9,0,.4-.05,2.46,3.17,3.9,3.88ZM55.25,341.59v3.88c2.53-1.29,2.53-2.59,0-3.88Z" style="fill:#e6de35;"/><path d="M275.56,11.44c4.22,6.66,12.14,7.92,19.5,7.77.51,3.72-.34,7.86,0,11.65-1.51.57-3.28,8.43-7.76,7.77,5.4-14.01-11.63-11.16-11.73-15.54-.01-.45,3.43-2.1,3.95-3.81l-9.79-.09c-4.64-.09,2.04,3.71,1.94,3.9-.49.97.63,3.15-2,3.8-18.61,9.48-35.2-8.63-36.91-7.64-.75.43-6.88,14.53-7.94,15.45-4.19,3.66-1.33-7.25-9.41-8.07-6.84-.69-29.64-.92-34.92.91-4.7,1.63-8.76,21.33-29.7,7.2-.58-.39-1.28-10.62-7.8-11.65,8.72-.8,21.03,1.95,28.35,0,3.8-1.01,15.42-19.64,16.71-19.64,8.28,0,15.23,11.44,23.13,11.72,11.38.39,19.16-14.23,23.98-15.08,7.33-1.29,12.58,12.73,19.82,14.68s13.84-1.91,20.57-3.33Z" style="fill:#e8e051;"/><path d="M88.39,69.7c-8.02,20.39-11.04,11.1-19.5,27.19-2.87,5.45-2.48,7.99-3.9,11.65-.58,1.5-5.17,3.79-3.9,7.77-15.55-3.25-8.18,7.9-23.02,12.15,20,41.64-2.12,25.49-14.1,38.26-7.67,8.17.9,7.09,5.93,7.85,2.35.35,7.16-.63,7.8,0,.7.69-.46,5.6,0,7.77-1.23.27-2.64-.24-3.9,0-1.3.25-2.83,2.68-3.9,3.88-1.28.16-2.61-.12-3.9,0-12.72.55-13.64-12.2-11.8-21.33,2.66-13.16,20.49-14.19,23.2-18,3.98-5.6-18.65-23.73,4.51-36.13,5.02-2.69,14.5-1.96,17.61-5.89,5.17-6.51-14.73-43.5,28.86-35.18Z" style="fill:#ebe365;"/><path d="M349.64,54.16c7.36-.33,14.15-6.87,23.42-2.14,9.94,5.08,8.7,26.58,12.16,28.85,4.43,2.91,19.83-3.1,25.17,4.11,4.31,5.82-1.92,26.03-6.16,31.32-1.27,1.58-1.45,2.77-3.9,3.88,1.34-13.43-2.59-4.87-11.7-3.88,1.64-12.1,6.06-6.12,11.69-15.5-14.57-3.34-33.46-12.11-27.31-31.09l-7.81,7.74-3.81-.03c.01-19.85-36.52,12.08-23.45-23.27,3.88.02,7.83.18,11.7,0Z" style="fill:#e8e051;"/><path d="M380.84,388.2c-17.51,30.57-63.85,51.76-97.48,58.26l-3.9-15.54c4.97.62,14.61.69,19.5,0,10.97-1.55,6.83-7.62,10.18-7.74,2.47-.09,7.48,4.4,8.94,3.29s-.31-6.48.38-7.21c.78-.82,10.95-11.15,11.7-11.65.51-.34,7.6-2.09,11.7-3.88,14.85-6.5,12.43-6.73,19.5-11.65,3.8-2.64,15.23-2.25,19.5-3.88Z" style="fill:#ebe365;"/><path d="M119.59,54.16c.31,3.48,10.7,5.49-3.89,9.69l7.78,9.68-23.36,7.86,7.81,5.82c2.23,5.83-7.48,8.49-7.84,9.67-11.75-1.89-20.65-5.65-25.34,7.81l-5.85-7.81c8.46-16.09,11.47-6.8,19.5-27.19,2.43-6.18,5.85-13.19,7.8-19.42l23.4,3.88Z" style="fill:#e2da2a;"/><path d="M131.28,415.39c.86-1.36-1-6.92.01-7.75,4.05-3.34,10.81,6.43,13.57,6.45,2.89.02,7.61-7.43,15.44-6.68,2.01.19,1.61,6.86,5.01,7.91,4.26,1.32,10.7-.81,12.75.07,3.47,1.49,11.58,5.7,15.6,7.77,6.76,3.48,18.58,11.67,19.5,19.42-15.69-1.44-22.07-4.56-37.2-4.5-1.41,0-1.92-13.8-17.36-3.23l-.04-11.71c-7.35-2.13-6.24,2.53-7.78,3.9-1.38,1.22-2.75,2.43-3.9,3.88-2.3-.18-5.48-3.37-7.8-3.88-1.28-.28-2.75.33-3.9,0l-3.9-11.65Z" style="fill:#ece123;"/><path d="M68.9,357.13c14.21,1.5,4.01,4.5,9.92,15.42,3.65,6.76,33.8,30.7,40.77,35.07,1.85,1.16,2.02,6.95,7.8,7.77,1.01.14,3.8.16,3.9,0l3.9,11.65c-19.74-5.7-15.81-8.15-27.29-15.54.87.87,3.99-.6,3.9-1.94-.29-4.24-5.74.11-3.9,1.94-31.73-20.41-30.95-20.6-54.59-50.49,3.06.31,6.32-3.58,7.8-3.88,1.18-.25,2.6.09,3.9,0,1.23-.09,2.67-.13,3.9,0Z" style="fill:#e8e051;"/><path d="M404.23,116.31c7.15,5.03,26.51,9.9,29.47,15.57,4.72,9.02-4.89,19.26-5.62,29.24-.32,4.38,3.33,7.85,3.44,9.57h-3.9c-.97-.54-4.89,1.29-6.77-.91-5.05-5.89-1.74-21.02-20.52-18.55,1.96-12.89,18.29-2.5,19.47-3.85.38-.44.47-11.22.05-11.62-.44-.43-8.37.59-12.37-1.1-24.24-10.25-10.85-1.24-18.85,1.07.03-5.18-.04-10.36,0-15.54,3.28-.69,9.48,1.01,11.7,0,2.45-1.12,2.63-2.3,3.9-3.88Z" style="fill:#ebe365;"/><path d="M271.66,427.04c-.83,8.96-8.36,9.44,3.87,14.15l.03,5.27c-15.76,2.25-25.35,4-42.89,3.88.46-2.38-.69-5.96,0-7.77,1.54-4.07,8.13-12.98,11.7-15.54.43-.31,7.38-3.78,7.8-3.88,1.93-.49,5.35,0,7.8,0-2.26,11.75,9.93,12.24,7.8,0-.23-1.32.39-3.68,0-3.88h3.9c-.16,2.57.24,5.22,0,7.77Z" style="fill:#eee647;"/><path d="M150.78,427.04c1.54-1.37.44-6.03,7.78-3.9l.04,11.71c15.44-10.57,15.95,3.23,17.36,3.23,15.13-.06,21.51,3.06,37.2,4.5,3.57.33,13.53-3.65,19.5,0-.69,1.81.46,5.39,0,7.77-28.82-.19-73.5-.64-93.58-23.3,2.32.51,5.5,3.71,7.8,3.88,2.39.18,4.44-1.22,3.9-3.88Z" style="fill:#ebe365;"/><path d="M142.98,23.09c6.52,1.03,7.22,11.26,7.8,11.65l-7.82,11.69c-3.49-8.92-23.5,6.32-23.37,7.73l-23.4-3.88c.84-2.7-1.36-10.09.15-11.41,2.22-1.93,20.92,1.34,28.39-.95,10.33-3.16,4.82-13.6,18.25-14.83Z" style="fill:#ebe365;"/><path d="M322.35,26.97c-1.37,11.02,4.12,8.21,11.7,3.88,1.3,2.44,2.29,5.76,3.9,7.77l-3.9,15.54c-10.34-.02-14.91-3.42-19.5-3.88l7.78-5.81c-3.16-5.07-14.64-4.22-11.68-13.61,3.78-1.12,7.79-2.65,11.7-3.88Z" style="fill:#e6de35;"/><path d="M295.05,19.2c-7.35.15-15.27-1.11-19.5-7.77,2.12-.45,4.96-6.36,13.12-3.65,5.79,2.12,5.69,6.39,6.37,11.41Z" style="fill:#ebe365;"/><path d="M337.94,38.63c.69.87,11.88,1.18,11.7,15.54-3.87.18-7.82.02-11.7,0-1.3,0-2.6,0-3.9,0l3.9-15.54Z" style="fill:#ebe365;"/><path d="M279.46,430.92l3.9,15.54c-2.36.46-5.31-.35-7.8,0l-.03-5.27c-12.23-4.71-4.7-5.2-3.87-14.15,2.93-.32,6.59,3.73,7.8,3.88Z" style="fill:#ece123;"/><path d="M439.32,174.57c.23.15,3.84,3.62,3.9,3.88,1.05,4.65-3.77,7.02-3.9,7.77-2.36,1.51-5.67,2.28-7.8,3.88-.43-5.09.63-10.5,0-15.54,1.63.88,6.38-.89,7.8,0Z" style="fill:#ece123;"/><path d="M322.35,26.97c.21-.07-.69-3.25,1.97-3.84,14.18-3.18,7.93,4.34,9.73,7.73-7.57,4.33-13.07,7.13-11.7-3.88Z" style="fill:#ebe365;"/><path d="M439.32,174.57l1.99-3.85c6.04-.9,6.68-.27,5.77,5.75l-3.86,1.98c-.06-.27-3.67-3.74-3.9-3.88Z" style="fill:#f6f3de;"/><path d="M431.53,174.57c-1.45-.78-2.56-3.14-3.9-3.88h3.9c.08,1.29-.16,2.62,0,3.88Z" style="fill:#f6f3de;"/><path d="M53.3,151.27c15.64-1.13,22.76-1.99,19.53-19.4,6.56-1.11,3.2,4.89,3.79,8.96,1.6,11.07,9.28-3.1,11.19-4.68,1.37-1.13,6.36.83,8.51-3,8.26-14.7.88-24.59,31.03-16.85l-11.71-13.58,23.41-1.96c6.99-5.67-20.76-14.83-11.66-23.26,3.44-3.19,30.61,5.71,38.95,0,1.69,14.91-23.6,12.58-13.58,27.22,23.52,1.85,26.77-22.82,34.2-30.02,2.8-2.71,10.25-1.46,14.84-6.68,6.57-7.48-.66-17.8,21.21-17.91,16.15-.08,37.29,15.03,36.98-11.48,14.09,3.89,30.89,11.59,31.15,27.2.29,17.58-16.14,17.5-18.87,25.86-8.02,24.55,26.07,39.59-27.92,28.48l11.67-19.35c-12.15-12.07-29.38,13.76-30.63,22.02-.83,5.44,9.93,11.33,6.98,16.5-.55.97-13.59,8.59-17.8,13.51-1.76,2.07-.91,6.43-4.14,10.17-2.72,3.16-15.41,15.77-20.67,15.45-3.67-20.29-13.07-30.24-34.17-34.13-4.44-.82-10.95,3.22-12.09,2.2-1.48-1.32,1.28-5.65-2.5-6.96-9.52-3.28-3.01,5.22-4.33,7.83-4.24,8.32-7.82,11.49-13.19,23.29-6.15,13.52-8.92,2.61-17.23,3.56-2.58.29-2.12,7.81-3.94,7.79-.93,0-27.02-7.85-13.93,4.15,4.96,4.54,31.18-2.09,46.8,11.69.59.52-2.18,6.78,2.45,7.92,28.01,6.91,32.81-8.16,52.14-15.69-.21-2.53.38-5.35,0-7.77,5.92-.7,9.86-.77,7.82,5.79-1.3,4.18-5.28.99-7.82,1.98.5,5.89,4.72,22.4,3.92,23.27-3.56,3.87-26.19-4.84-19.36,20.54.8,2.98,11.14,6.42,11.68,24.37.61,20.34-14.27,27.62,15.45,28.89-8.11-37.14,6.94-3.13,13.72,0,6.97,3.21,6.81-16.46,11.73-3.88,3.19,8.17-10.17,20.15,11.79,17.69,10.82-1.21,17.51-15.79,27.64-16.76,6.66-.63,12.92,5.04,19.46,5.67,5.79.56,16.79-5.13,20.64-2.44,2.51,1.75,1.18,14.2,6.76,15.54,11.22,2.69,32.69-11.61,36.36-7.93.74.75-1.05,6.19.44,8.28,3.15,4.44,7.79,2.29,7.1,8.39-1.45,12.78-7.4,9.05-15.25,10.42-.99.17-2.58,2.96-3.9,3.88-1.62.55-5.49-1.14-7.21.58-1.9,1.9,0,5.76-.58,7.19-.49,1.19.59,3.53,0,3.88-1.53.92-6.98-2.37-8.01,2.16-1.63,7.14,2.84,23.42-.32,28.37-2.88,4.52-20.58-.66-15.04,16.07,24.23-9.39,24.91,1.89,23.37,23.32-.75.5-10.92,10.83-11.7,11.65l-7.84-11.62h-3.78c-.86,14.77-19.19-.39-7.87,23.27-4.88.69-14.53.62-19.5,0-1.21-.15-4.87-4.2-7.8-3.88.24-2.55-.16-5.2,0-7.77-1.76-6.17-13.57-6.09-11.67-.04,2.38.54,6.34-.7,7.77.04.39.2-.23,2.56,0,3.88h-7.8c-2.45,0-5.87-.49-7.8,0l-1.99-3.85c-7.21-1.36-6.19,1.12-5.81,7.73-3.57,2.55-10.16,11.47-11.7,15.54-5.97-3.65-15.93.33-19.5,0-.91-7.75-12.73-15.94-19.5-19.42l1.89-15.5-17.48,7.73c-2.05-.88-8.49,1.25-12.75-.07-3.4-1.05-3-7.72-5.01-7.91-7.84-.75-12.56,6.71-15.44,6.68-2.76-.02-9.52-9.79-13.57-6.45-1.01.83.85,6.4-.01,7.75-.1.16-2.89.14-3.9,0l-.03-11.63-7.77,3.87c-6.97-4.37-37.12-28.32-40.77-35.07-5.91-10.92,4.3-13.92-9.92-15.42l-1.95-3.81-1.95,3.81c-1.3.09-2.72-.25-3.9,0l7.79-19.36-15.57-7.74,11.66-11.72c-12.94.92-32.04,2.63-35.09-13.7-.16-.88,10.4-5.08,11.71-13.51,2.83,20.34,23.7,2.78,19.55-9.66l-19.55,5.78c-.22-1.47-3.22-2.7-3.9-3.88-1.16-2.02-.72-6.02-3.9-7.77-.3-.85-5.62-2.43-3.91-7.75,9.01-.02,13.75,2.65,11.69-7.77l-19.48-.02c.13-4.34-6.8-13.22,3.9-23.3,2.89,2.08,16.23,10.3,19.48,7.75,6.93-5.46-7.76-8.68-9.04-12.53-1.38-4.13-2.07-27.05-2.64-34.05-.1-1.28.02-2.6,0-3.88l15.58-.02-3.88-11.63c4.34-1.23,8.9-6.18,15.61-3.91l-11.69-11.67c-1.61-6.74,5.92-2.46,7.43-4.15.83-.93-3.49-7.73-3.56-11.34ZM123.51,291.08c13.15-1.2,50.4-6.19,46.78-25.14-1.45-7.59-38.59-7.67-46.81-9.76.42,11.59,23.45,11.13,23.43,13.59-.06,12.1-16.05,9.9-23.47,9.68l.06,11.63ZM193.67,314.4c-19.87,1.82-43.05-12.34-62.37-15.52-.6,14.93,16.57,21.99,27.77,28.83,3.85,2.35,10.77,1.85,11.21,2.22.7.6-.52,5.48,0,7.77.7,3.04-1.7,8.97.67,11.13,1.02.93,19.86,6.95,22.65,14.12.08,4.33-22.62,4.64-5.72,17.44,11.3,1.69,1.8-5.24,2.89-6.9.63-.97,6.13-.66,6.76-3.42,2.9-12.59-7.1-19.39,11.74-24.6,4.42.73,12.53.12,15.6,3.88.87,1.06-.98,6.92.01,7.76,3.45,2.91,12.73-8.06,19.48-11.64,2.55-1.35,5.16-2.72,7.8-3.88,8.13,10.29,19.81-.82,27.29-3.88,17.08-6.99,36.2-12.44,46.79-27.15-26.15-3.71-56.1,10.36-80.15,11.74-10.24.59-15.89-3.67-21.23-4.01-9.97-7.59-9.7-20.95-15.6,0-2.57-.16-5.24.25-7.8,0,1.51-15.32-5.73-4.07-7.8-3.88ZM240.44,306.65c-4.25-4.24-12.01,3.49-7.76,7.73,4.25,4.24,12.01-3.49,7.76-7.73ZM92.25,357.11c2.8-5.46-2.47-10.36-3.82-7.73-2.8,5.46,2.47,10.36,3.82,7.73ZM111.76,349.37l-15.6,3.91,3.97,15.47,11.63-19.37Z" style="fill:#ebdf09;"/><path d="M298.95,65.81c2.35,1.31,2.7,9.23,13.66,7.93,2.7-.32-.4-12.04,9.72-7.91v19.38s-19.46-3.88-19.46-3.88c2.91,19-18.61,3.78-11.69,31.07,7.34-2.87,17.98-1.99,24.38-4.14,3.68-1.24,3.39-7.37,4.84-7.59,13.88-2.09,11.71,10.08,14.02,11.41,1.48.85,6.26-3.54,9.02-3.65,4.1-.17-1.22,9.61,8.13,7.92,3.37-.61,1.04-5.23,3.25-6.44,4.23-2.33,11.22-1.75,14.32-5.26h7.8c-.47,3.77.28,7.83,0,11.63,3.84-.14,7.88.43,11.7.02-.17,1.24,0,2.62,0,3.88-.04,5.18.03,10.36,0,15.54-4.41,1.28-12.31-.91-17.52-.02-9.19,8.32,4.65,6.36,5.82,10.64.99,3.61-1.42,10.24.49,12.36,1.46,1.62,9.35-.77,10.72.58,4.06,4-6.81,40.85,19.98,50.23-1,10.27,4.8,22.28-7.8,19.42.23-2.06,5.47-6.75,3.9-7.73l-15.58-.06c.94,5.5-1.49,25.47,0,27.22,1.09,1.28,7.37-2.87,9.88-2.23,4.72,1.19,4.96,5.8,5.7,6.1-11.24,4.2-8.58,4.81-11.7,11.65-.43.95-5.92,1.04-3.88,7.75,10,.46,17.99-3.85,15.58,7.79-18.62,2.59-17.01,16.47,7.8,11.65,4.25-.83,7.79-2.14,11.66-3.88,7.43,17-36.83,23.14-23.23,38.74,1.83,2.1,14.05-4.5,11.54,5.87-4.27,3.27-10.79,7.88-15.56,9.76-10.9,4.31-7.28.63-11.7,0,13.48-16.29,2.75-22.71-15.58-19.4.28,6.6,4.21,12.67,3.89,19.4-.35,7.33-8.32,14.9-15.6,15.54-16.21,1.42-29.47-14.3-21.57,11.86l17.67-.21c.17,6.38,4.38,10.76,7.8,15.54-1.32,1.08-2.25,3-3.9,3.88-15.41-1.83-27.73-1.53-15.6,15.54-4.1,1.79-11.19,3.54-11.7,3.88,1.54-21.43.86-32.71-23.37-23.32-5.54-16.73,12.16-11.55,15.04-16.07,3.16-4.95-1.32-21.23.32-28.37,1.03-4.53,6.48-1.23,8.01-2.16l3.82-1.94-3.82-1.94c.59-1.42-1.32-5.28.58-7.19,1.73-1.73,5.6-.03,7.21-.58,1.31-.44,2.66-2.78,3.9-3.88,7.85-1.37,13.81,2.35,15.25-10.42.69-6.1-3.96-3.95-7.1-8.39-1.48-2.09.31-7.54-.44-8.28-3.67-3.67-25.14,10.62-36.36,7.93-5.58-1.34-4.25-13.78-6.76-15.54-3.85-2.69-14.85,3-20.64,2.44-6.54-.63-12.8-6.31-19.46-5.67-10.14.96-16.83,15.55-27.64,16.76-21.96,2.45-8.6-9.52-11.79-17.69-4.91-12.59-4.76,7.08-11.73,3.88-6.78-3.12-21.83-37.14-13.72,0-29.71-1.27-14.83-8.56-15.45-28.89-.54-17.96-10.87-21.39-11.68-24.37-6.83-25.38,15.8-16.67,19.36-20.54.8-.87-3.42-17.38-3.92-23.27,2.54-.99,6.52,2.2,7.82-1.98,2.04-6.55-1.9-6.48-7.82-5.79-.2-1.26.23-2.63,0-3.88,5.26.32,17.94-12.29,20.67-15.45,3.23-3.74,2.37-8.1,4.14-10.17,4.21-4.93,17.25-12.54,17.8-13.51,2.96-5.17-7.8-11.06-6.98-16.5,1.25-8.26,18.48-34.09,30.63-22.02l-11.67,19.35c53.99,11.11,19.9-3.93,27.92-28.48,2.73-8.36,19.16-8.28,18.87-25.86,2.41.36,6.64-.65,7.8,0ZM281.4,96.89v3.88c2.53-1.29,2.53-2.59,0-3.88ZM287.21,116.29c2.8-5.46-2.47-10.36-3.82-7.73-2.8,5.46,2.47,10.36,3.82,7.73ZM291.15,151.27c-16.45,6.9-11.73,20.91-15.6,27.19-5.16,8.38-19.97,14.05-19.49,27.14,16.72-2.78,20.85,13.57,23.48,15.57,2.39,1.82,9.62-7.32,11.6-7.76,8.42-1.88,21.73,1.22,31.19,0-1.82,11.8,4.57,7.83,12.03,6,16.42-4.03,8.14-5.25,13.4-13.91,3.07-5.05,8.65,2.12,9.68-1.84,2.58-9.88-10.91-4.8-15.62-5.79,1.39-3.3,1.21-9.32,3.9-15.54,1.75-4.06,3.48-11.21,3.9-11.65.74-.79,22.52-3.41,0-7.77,3.53-8.59,7.9-8.93,7.79-9.61-.29-1.75-11.81-24.31-13.69-25.31-10.49-5.57-1.34,17.06-9.63,15.46-4.69-10.72-26.5-26.71-39.31-17.68-6.09,4.29-3.23,18.61-3.64,25.49ZM376.92,124.12c-5.48-2.79-10.4,2.46-7.76,3.81,5.48,2.79,10.4-2.46,7.76-3.81ZM279.47,143.51c-18.2,1.36-25.61-11.71-27.29,11.62,7.61-4.59,30.44,1.25,27.29-11.62ZM376.92,162.94c-4.25-4.24-12.01,3.49-7.76,7.73,4.25,4.24,12.01-3.49,7.76-7.73ZM373.02,186.2c4.43-4.51-1.67-12.5-7.76-1.9-.49,3.38,7.48,2.19,7.76,1.9ZM359.39,190.11v3.88c2.53-1.29,2.53-2.59,0-3.88ZM384.75,197.91c-.55-.58-11.83-.38-15.57-3.92l7.83,19.42c6.87-.31,10.18-12.91,7.74-15.51ZM320.4,225.06v3.88c2.53-1.29,2.53-2.59,0-3.88ZM369.12,225.08c-4.25-4.24-12.01,3.49-7.76,7.73,4.25,4.24,12.01-3.49,7.76-7.73ZM349.62,232.82c-7.61-10.28-12.16,24.76-11.66,27.18h15.56s-3.9-27.18-3.9-27.18ZM384.72,244.55c-6.32-6.52-23.6-5.9-23.38,7.67,3.22.67,32.94,2.2,23.38-7.67ZM281.4,267.79v3.88c2.53-1.29,2.53-2.59,0-3.88ZM341.8,341.57c2.8-5.46-2.47-10.36-3.82-7.73-2.8,5.46,2.47,10.36,3.82,7.73Z" style="fill:#eee005;"/><path d="M314.55,50.28c4.59.46,9.15,3.86,19.5,3.88,1.3,0,2.6,0,3.9,0-13.07,35.35,23.46,3.42,23.45,23.27l3.81.03,7.81-7.74c-6.15,18.98,12.74,27.75,27.31,31.09-5.63,9.38-10.05,3.4-11.69,15.5-3.82.41-7.86-.16-11.7-.02.29-3.8-.47-7.87,0-11.63.05-.43,5.62-2.87,3.88-7.74-16.94-3.35-9.84,5.66-11.68,7.74-3.1,3.5-10.09,2.92-14.32,5.26-2.21,1.22.12,5.84-3.25,6.44-9.35,1.69-4.03-8.09-8.13-7.92-2.76.12-7.55,4.51-9.02,3.65-2.31-1.33-.14-13.5-14.02-11.41-1.45.22-1.16,6.35-4.84,7.59-6.39,2.15-17.04,1.27-24.38,4.14-6.92-27.29,14.6-12.07,11.69-31.07l19.46,3.88v-19.38c-10.12-4.13-7.02,7.59-9.72,7.91-10.96,1.3-11.31-6.62-13.66-7.93-1.05-12.43,3.31-16.78,15.6-15.54Z" style="fill:#ebdf09;"/><path d="M61.1,116.31c1.86.39,12.36,4.34,11.68,5.81-24.89,10.78-10.07,5.51-11.36,19.04-.32,3.32-8.32-.57-8.11,10.11.07,3.61,4.39,10.41,3.56,11.34-1.51,1.69-9.04-2.58-7.43,4.15l11.69,11.67c-6.71-2.28-11.27,2.68-15.61,3.91-2.14.6-5.45-.52-7.8,0-.46-2.16.7-7.08,0-7.77l-5.81-3.86-1.99,3.86c-5.03-.76-13.6.33-5.93-7.85,11.98-12.77,34.1,3.37,14.1-38.26,14.84-4.25,7.47-15.4,23.02-12.15Z" style="fill:#e4dc18;"/><path d="M100.09,96.89c-.96,3.1,5.18,10.67,3.9,11.62l-38.99.04c1.42-3.66,1.03-6.2,3.9-11.65l5.85,7.81c4.7-13.46,13.6-9.7,25.34-7.81Z" style="fill:#e4dc18;"/><path d="M271.66,23.09c.1-.19-6.57-3.99-1.94-3.9l9.79.09c-.52,1.71-3.96,3.36-3.95,3.81h-3.9Z" style="fill:#ebe365;"/><path d="M78.64,120.19c2.53,1.29,2.53,2.59,0,3.88v-3.88Z" style="fill:#ebdf09;"/><path d="M404.23,252.25c-.73-.31-.97-4.91-5.7-6.1-2.51-.64-8.8,3.51-9.88,2.23-1.49-1.75.94-21.72,0-27.22l15.58.06c1.57.98-3.67,5.67-3.9,7.73-.42,3.79.24,7.82.02,11.63,5.94.23,9.05,1.5,11.68-3.86l3.9-3.88c2.23.47,5.24-.21,7.8,0,6.42.53,13.05-.37,19.5,0,.92,6.65-3.94,11.04-3.9,11.65h-11.7l-2.17,8.16c.79,10.63,16.31,14.96,9.93,26.8-.64,1.2-24.5-.34-27.26,0-1.28.16-2.63-.18-3.9,0,2.41-11.64-5.58-7.34-15.58-7.79-2.04-6.7,3.45-6.79,3.88-7.75l19.5-3.88,1.93,3.82c2.41-.63,1.61-2.22,1.97-3.82,2.96-12.93-6.49-5.58-11.7-7.77ZM421.78,263.91v3.88c2.53-1.29,2.53-2.59,0-3.88Z" style="fill:#f0e30b;"/><path d="M384.73,341.59c4.42.63.8,4.31,11.7,0l3.85,23.28-3.88-7.74c-6.45,11.33-18.87,6.8-19.43,7.79-1.4,2.46,4.86,10.69,3.92,11.6-.75.73-12.28,1.84-19.55,7.81-3.41-4.77-7.63-9.16-7.8-15.54-.05-1.96,4.53-7.93,3.9-11.65,7.27-.64,15.24-8.2,15.6-15.54,3.79.34,8.01-.53,11.7,0ZM388.61,353.28c-5.48-2.79-10.4,2.46-7.76,3.81,5.48,2.79,10.4-2.46,7.76-3.81Z" style="fill:#f1e413;"/><path d="M357.44,388.2c.69.08,2.37,3.2,3.9,3.88-7.07,4.92-4.64,5.15-19.5,11.65-12.14-17.06.19-17.36,15.6-15.54Z" style="fill:#ebdf09;"/><path d="M439.32,217.3c.34,7.01,3.3,11.26,3.9,15.54-6.45-.37-13.08.53-19.5,0-.22-3.86.32-7.82,0-11.65,4.88-.54,11.09-3.95,15.6-3.88Z" style="fill:#ece123;"/><path d="M408.13,279.44l3.9,11.65c-24.81,4.82-26.42-9.06-7.8-11.65,1.27-.18,2.62.16,3.9,0Z" style="fill:#f1e413;"/><path d="M439.32,244.49c.14,2.03,13.66,15.58,5.81,15.57-8.32-1.14-17.83-6.24-17.51-15.57h11.7Z" style="fill:#ece123;"/><path d="M33.8,197.88c.57,7.01,1.26,29.93,2.64,34.05,1.29,3.86,15.97,7.07,9.04,12.53-3.24,2.56-16.58-5.67-19.48-7.75-16.94-12.18-3.3-25.69,7.8-38.84Z" style="fill:#e8dc0a;"/><path d="M22.11,260.02l19.48.02c2.06,10.41-2.68,7.74-11.69,7.77-1.7,5.32,3.61,6.9,3.91,7.75.67,1.88-.45,5.37,0,7.77l-15.51,1.99c5.74-7.26,3.56-16.92,3.81-25.29Z" style="fill:#e4dc18;"/><path d="M41.6,287.21l19.55-5.78c4.15,12.45-16.72,30.01-19.55,9.66.17-1.11.16-2.77,0-3.88Z" style="fill:#ece123;"/><path d="M45.5,182.34l3.88,11.63-15.58.02c-.02-1.29,0-2.59,0-3.88v-7.77c1.25-.24,2.67.27,3.9,0,2.35-.52,5.66.6,7.8,0Z" style="fill:#e8dc0a;"/><path d="M33.8,190.11c-1.44-.71-3.5-3.93-3.9-3.88,1.06-1.21,2.6-3.64,3.9-3.88v7.77Z" style="fill:#e4dc18;"/><path d="M37.7,283.33h-3.9c-.45-2.4.67-5.89,0-7.77,3.18,1.75,2.74,5.74,3.9,7.77Z" style="fill:#ece123;"/><path d="M55.25,341.59c2.53,1.29,2.53,2.59,0,3.88v-3.88Z" style="fill:#ebdf09;"/><path d="M37.7,174.57c-.64-.63-5.45.35-7.8,0l1.99-3.86,5.81,3.86Z" style="fill:#e8dc0a;"/><path d="M400.33,120.19c-2.22,1.01-8.42-.69-11.7,0,0-1.27-.17-2.65,0-3.88,9.11-.98,13.04-9.55,11.7,3.88Z" style="fill:#f0e30b;"/><path d="M298.95,430.92c-11.32-23.66,7.01-8.5,7.87-23.26h3.78s7.84,11.61,7.84,11.61c-.68.73,1.11,6.08-.38,7.21s-6.46-3.38-8.94-3.29c-3.35.12.79,6.19-10.18,7.74Z" style="fill:#ece123;"/><path d="M178.07,415.39l17.48-7.73-1.89,15.5c-4.02-2.07-12.13-6.28-15.6-7.77Z" style="fill:#e6de35;"/><path d="M146.88,430.92c1.15-1.45,2.52-2.66,3.9-3.88.54,2.66-1.51,4.07-3.9,3.88Z" style="fill:#e8e051;"/><path d="M68.9,357.13c-1.22-.13-2.66-.09-3.9,0l1.95-3.81,1.95,3.81Z" style="fill:#e6de35;"/><path d="M107.89,411.5c-1.84-1.83,3.61-6.18,3.9-1.94.09,1.35-3.02,2.81-3.9,1.94Z" style="fill:#ece123;"/><path d="M388.63,135.73c8-2.32-5.39-11.32,18.85-1.07,3.99,1.69,11.92.67,12.37,1.1.42.41.34,11.18-.05,11.62-1.18,1.35-17.51-9.04-19.47,3.85,18.78-2.47,15.47,12.66,20.52,18.55,1.88,2.2,5.8.38,6.77.91,1.34.74,2.45,3.11,3.9,3.88.63,5.04-.43,10.44,0,15.54-6.88,5.2-11.65,9.86-11.7,19.42-5.04,4.26-7.15,1.59-11.7,0-26.79-9.38-15.92-46.23-19.98-50.23-1.37-1.35-9.26,1.04-10.72-.58-1.91-2.12.5-8.75-.49-12.36-1.18-4.29-15.02-2.32-5.82-10.64,5.21-.89,13.11,1.3,17.52.02ZM425.68,182.34v3.88c2.53-1.29,2.53-2.59,0-3.88Z" style="fill:#f0e30b;"/><path d="M252.16,423.16c-.42.11-7.37,3.58-7.8,3.88-.38-6.61-1.4-9.09,5.81-7.73l1.99,3.85Z" style="fill:#ece123;"/><path d="M267.76,423.16c2.13,12.24-10.05,11.75-7.8,0h7.8Z" style="fill:#ece123;"/><path d="M271.66,419.27h-3.9c-1.44-.74-5.39.5-7.77-.04-1.9-6.05,9.91-6.13,11.67.04Z" style="fill:#ece123;"/><path d="M419.83,209.53c0,.61,3.39,5.57,3.9,11.65.32,3.84-.22,7.8,0,11.65-2.55-.21-5.57.47-7.8,0-.56-.12-.74-4.88-3.85-3.88-.54,2.38.68,6.27-.05,7.76-2.62,5.37-5.74,4.09-11.68,3.86.22-3.81-.44-7.85-.02-11.63,12.6,2.86,6.8-9.15,7.8-19.42,4.55,1.59,6.65,4.26,11.7,0Z" style="fill:#f1e413;"/><path d="M119.59,407.62l7.77-3.87.03,11.63c-5.78-.81-5.95-6.61-7.8-7.77Z" style="fill:#ece123;"/><path d="M123.51,291.08l-.06-11.63c7.41.22,23.4,2.41,23.47-9.68.01-2.47-23.01-2-23.43-13.59,8.22,2.1,45.36,2.18,46.81,9.76,3.62,18.95-33.64,23.94-46.78,25.14Z" style="fill:#eee005;"/><path d="M170.28,337.7l31.22.03-3.95,7.71c3.78.47,8.12-.56,11.72.03-18.83,5.21-8.84,12.01-11.74,24.6-.63,2.75-6.13,2.45-6.76,3.42-1.09,1.66,8.41,8.59-2.89,6.9-16.9-12.8,5.8-13.11,5.72-17.44-2.79-7.17-21.63-13.19-22.65-14.12-2.37-2.15.02-8.08-.67-11.13Z" style="fill:#e6de35;"/><path d="M135.18,197.88c-15.62-13.79-41.84-7.15-46.8-11.69-13.08-12,13-4.15,13.93-4.15,1.82.02,1.36-7.5,3.94-7.79,8.31-.95,11.08,9.96,17.23-3.56-.96,11.03,5.84,18.72,11.7,27.19Z" style="fill:#ece123;"/><path d="M279.46,337.7c-7.48,3.06-19.17,14.18-27.29,3.88,7.14-3.14,20.84-10.63,27.29-3.88Z" style="fill:#e8e051;"/><path d="M244.36,345.47c-6.75,3.58-16.03,14.55-19.48,11.64-1-.84.85-6.69-.01-7.76,2.66-7.99,13.11-9.24,19.5-3.88Z" style="fill:#e8e051;"/><polygon points="111.76 349.37 100.14 368.75 96.17 353.28 111.76 349.37" style="fill:#e4dc18;"/><path d="M209.27,318.28c5.89-20.95,5.63-7.59,15.6,0-5.16-.33-10.43.33-15.6,0Z" style="fill:#e6de35;"/><path d="M240.44,306.65c4.25,4.24-3.5,11.96-7.76,7.73-4.25-4.24,3.5-11.96,7.76-7.73Z" style="fill:#eee005;"/><path d="M193.67,314.4c2.07-.19,9.3-11.43,7.8,3.88-3.31-.33-6.67-.07-7.8-3.88Z" style="fill:#e6de35;"/><path d="M92.25,357.11c-1.35,2.64-6.62-2.27-3.82-7.73,1.35-2.64,6.62,2.27,3.82,7.73Z" style="fill:#e4dc18;"/><path d="M337.94,326.05c1.32-.92,2.91-3.71,3.9-3.88-1.24,1.1-2.59,3.44-3.9,3.88Z" style="fill:#ece123;"/><path d="M330.15,337.7c.59-.35-.49-2.7,0-3.88l3.82,1.94-3.82,1.94Z" style="fill:#ece123;"/><path d="M291.15,151.27c.41-6.87-2.45-21.2,3.64-25.49,12.81-9.02,34.62,6.96,39.31,17.68,8.28,1.59-.86-21.03,9.63-15.46,1.89,1,13.4,23.56,13.69,25.31.11.68-4.25,1.02-7.79,9.61-.88,2.14-3.97,4.51-3.9,7.77-1.3-.32-3.09.49-3.9,0-1.06-.64-2.36-2.7-3.9-3.88-14.64-11.22-24.91-24.71-46.79-15.54Z" style="fill:#ebdf09;"/><path d="M283.35,201.76c1.75,3.78-.23,8.98,7.8,11.65-1.98.44-9.21,9.58-11.6,7.76-2.63-2-6.76-18.36-23.48-15.57-.48-13.09,14.32-18.76,19.49-27.14-.91,9.17,4.29,15.7,7.8,23.3Z" style="fill:#ece123;"/><path d="M341.84,197.88c-4.87,11.58-5.7,13.76-19.5,15.54-9.46,1.22-22.77-1.88-31.19,0-8.03-2.67-6.05-7.87-7.8-11.65,25.5,10.06,48.69,10.38,58.49-19.42h3.9c-2.69,6.22-2.51,12.24-3.9,15.54Z" style="fill:#e2da2a;"/><path d="M341.84,197.88c4.7,1,18.2-4.09,15.62,5.79-1.04,3.96-6.61-3.21-9.68,1.84-5.27,8.66,3.01,9.88-13.4,13.91-7.46,1.83-13.85,5.79-12.03-6,13.8-1.77,14.62-3.95,19.5-15.54Z" style="fill:#ece123;"/><path d="M373.04,341.59c.33-6.72-3.61-12.8-3.89-19.4,18.33-3.31,29.07,3.11,15.58,19.4-3.69-.53-7.9.34-11.7,0Z" style="fill:#ece123;"/><path d="M357.44,357.13c.63,3.72-3.95,9.69-3.9,11.65l-17.67.21c-7.91-26.16,5.35-10.44,21.57-11.86Z" style="fill:#ebdf09;"/><path d="M349.62,232.82l3.9,27.17h-15.56c-.49-2.41,4.05-37.45,11.66-27.17Z" style="fill:#f0e30b;"/><path d="M279.47,143.51c3.16,12.87-19.68,7.03-27.29,11.62,1.68-23.33,9.08-10.26,27.29-11.62Z" style="fill:#ece123;"/><path d="M384.72,244.55c9.56,9.87-20.16,8.34-23.38,7.67-.22-13.57,17.06-14.19,23.38-7.67Z" style="fill:#f0e30b;"/><path d="M384.75,197.91c2.44,2.59-.87,15.19-7.74,15.51l-7.83-19.42c3.74,3.54,15.02,3.33,15.57,3.92Z" style="fill:#f0e30b;"/><path d="M404.23,252.25c5.21,2.19,14.65-5.17,11.7,7.77h-3.9l-19.5,3.88c3.11-6.84.46-7.46,11.7-11.65Z" style="fill:#f1e413;"/><path d="M349.64,170.69c-.42.45-2.14,7.6-3.9,11.65h-3.9c.33-1-.14-2.52,0-3.88.27-2.54-.18-5.21,0-7.77.81.49,2.6-.32,3.9,0h3.9Z" style="fill:#f0e30b;"/><path d="M369.14,104.66c1.84-2.09-5.26-11.09,11.68-7.74,1.73,4.87-3.83,7.31-3.88,7.74h-7.8Z" style="fill:#f0e30b;"/><path d="M349.64,162.92c22.52,4.36.74,6.98,0,7.77h-3.9c-.07-3.26,3.02-5.63,3.9-7.77Z" style="fill:#e2da2a;"/><path d="M376.92,162.94c4.25,4.24-3.5,11.96-7.76,7.73-4.25-4.24,3.5-11.96,7.76-7.73Z" style="fill:#f0e30b;"/><path d="M369.12,225.08c4.25,4.24-3.5,11.96-7.76,7.73-4.25-4.24,3.5-11.96,7.76-7.73Z" style="fill:#f0e30b;"/><path d="M373.02,186.2c-.28.28-8.25,1.48-7.76-1.9,6.09-10.6,12.19-2.61,7.76,1.9Z" style="fill:#f0e30b;"/><path d="M376.92,124.12c2.65,1.35-2.28,6.6-7.76,3.81-2.65-1.35,2.28-6.6,7.76-3.81Z" style="fill:#f0e30b;"/><path d="M341.8,341.57c-1.35,2.64-6.62-2.27-3.82-7.73,1.35-2.64,6.62,2.27,3.82,7.73Z" style="fill:#ece123;"/><path d="M287.21,116.29c-1.35,2.64-6.62-2.27-3.82-7.73,1.35-2.64,6.62,2.27,3.82,7.73Z" style="fill:#ebdf09;"/><path d="M281.4,96.89c2.53,1.29,2.53,2.59,0,3.88v-3.88Z" style="fill:#ebdf09;"/><path d="M281.4,267.79c2.53,1.29,2.53,2.59,0,3.88v-3.88Z" style="fill:#ebdf09;"/><path d="M320.4,225.06c2.53,1.29,2.53,2.59,0,3.88v-3.88Z" style="fill:#ece123;"/><path d="M359.39,190.11c2.53,1.29,2.53,2.59,0,3.88v-3.88Z" style="fill:#ece123;"/><path d="M415.93,232.83l-3.9,3.88c.73-1.49-.49-5.38.05-7.76,3.11-1.01,3.29,3.76,3.85,3.88Z" style="fill:#eee005;"/><path d="M421.78,263.91c2.53,1.29,2.53,2.59,0,3.88v-3.88Z" style="fill:#eee647;"/><path d="M412.03,260.02h3.9c-.37,1.6.44,3.19-1.97,3.82l-1.93-3.82Z" style="fill:#eee647;"/><path d="M388.61,353.28c2.65,1.35-2.28,6.6-7.76,3.81-2.65-1.35,2.28-6.6,7.76-3.81Z" style="fill:#eee005;"/><path d="M425.68,182.34c2.53,1.29,2.53,2.59,0,3.88v-3.88Z" style="fill:#ece123;"/><path d="M170.28,329.94c-1.84-1.83,3.61-6.18,3.9-1.94.09,1.35-3.02,2.81-3.9,1.94Z" style="fill:#e6de35;"/><path d="M341.84,170.69c-.18,2.56.27,5.23,0,7.77l-3.9-11.65c1.54,1.18,2.84,3.24,3.9,3.88Z" style="fill:#e2da2a;"/></g></svg>