<?xml version="1.0" encoding="UTF-8"?><svg id="Capa_2" xmlns="http://www.w3.org/2000/svg" viewBox="0 0 147.21 343.27"><g id="Layer_1"><path d="M63.2,3.15c15.11,2.28,14.06,10.5,13.12,23.53-2.34,32.47-1.33,65.09-2.52,98.16-.2,5.71-5.34,27.26-2.74,29.97.68.7,7.93-.53,10.51-.01,3.53.7,6.98,1.83,10.5,2.61-.86.11-3.77,2.14-7.87,2.61-3.91.45-7.46,2.59-7.87,2.61-1.72.12-3.52.01-5.25,0-.87,0-1.75.01-2.62,0-6.98-.08-18.74-2.61-28.87-2.61h-2.62c4.1-3.56,9.18-2.29,10.56-9.1,3.39-16.69-1.2-48.6-.04-68.01,1.52-25.49,7.64-54.11,10.47-79.77,1.39-.22,3.85-.21,5.25,0Z" style="fill:#060505;"/><path d="M81.58,3.15c4.85,13.59.98,40.6,6.52,52.34.56,1.19,3.43,3.29,3.96,2.57.95-8.84-1.19-19.17-.13-27.73.5-4.04,2.66-5.7,2.78-6.26.06-.29,1.84-2.99,2.62-5.23h2.62c.04,4.35-.13,8.72,0,13.07l-2.62,125.5c-1.72.13-3.57-.22-5.25,0-3.51-.79-6.97-1.91-10.5-2.61,5.73-8.2,0-17.46,0-22.22v-49.68c0-.96-2.58-4.32-2.72-7.75-.66-15.7,2.9-33.83-2.53-48.47.94-13.03,1.98-21.25-13.12-23.53,4.73-6.73,13.53-.67,18.37,0Z" style="fill:#505051;"/><path d="M113.07,314.28c-.49,5.18,1.2,11.92-.36,16.71-1.45,4.46-6.53,3.36-7.52,4.21-.36.31,1.37,4.13-1.87,5.18-2.99.97-16.98,2.89-20.46,2.89-14.47-.04-38-2.43-49.88-8.07-2.24-1.07.64,6.11-5.04,5.14-2.32-.39-11.15-10.29-11.45-11.02-1.07-2.52,2.43-5.47,1.49-6.78-2.46-3.43-5.04,3.65-2.03-5.64,4.37.08,8.75-.11,13.12,0,4.46.11,8.61.02,13.12,0,6.12-.03,12.25.03,18.37,0,12.22-.05,24.52,0,36.75,0l-2.61,18.31c2.64-.55,9.28.78,10.49,0,1.53-1,3.99-15.57,0-18.3v-2.61c2.62-.1,5.27.15,7.87,0Z" style="fill:silver;"/><path d="M131.45,194.01c5.08,12.32,7.67,18.91,10.46,32.85.96,4.78-3.12,10.49,5.29,8.98.23,10.4-1.95,17.23-2.62,26.15l-18.44,24.77c-6.3,2.17-17.04,21.54-18.31,22.29-2.1,1.25-9.91-3.21-7.87,5.23-5.24.14-10.51-.05-15.75,0v-5.23c.84-.18,1.81.21,2.62,0,4.07-1.04,6.61-.23,11.43-2.94,12.65-7.1,33.68-39.85,35.34-53.96,2.99-25.42-18.64-35-25.77-55.53,6.84,2.54,26.47,6.7,23.62-2.61Z" style="fill:#c40c2f;"/><path d="M57.95,3.15c-2.83,25.66-8.95,54.29-10.47,79.77-1.16,19.41,3.43,51.32.04,68.01-1.38,6.81-6.47,5.54-10.56,9.1h-2.62c3.47-42.99,6.93-92.02,13.46-134.32,1.53-9.94.06-20.94,10.16-22.56Z" style="fill:#505051;"/><path d="M29.08,316.9c-4.37-.11-8.75.08-13.12,0,.46-1.42-.49-3.93,0-5.23.19-.52,4.15-1.26,4.35-3.76.41-4.97-8.66-27.37-9.58-36.79-2.13-21.83,1.03-46.87-.02-69.26,2.6-8.4,9.69-15.19,13.12-20.92-6.27,33.85-11.94,62.31-4.03,96.83,2.85,12.42,14.11,27.27,9.28,39.13Z" style="fill:#e66079;"/><path d="M34.33,165.25c-.11,1.73.07,3.49,0,5.23-11.53,33.62-17.38,64.55-9.64,99.9.96,4.4,0,11.54,7.01,9.92.26,1.66-.24,3.56,0,5.23.05.35-2.38,1.27-.99,7.07,2.51,10.46,11.64,14.46,11.48,24.3-4.52.02-8.67.11-13.12,0,4.84-11.86-6.43-26.71-9.28-39.13-7.91-34.52-2.24-62.98,4.03-96.83,2.88-4.81,5.39-13.13,10.5-18.3-.06.87.05,1.75,0,2.61Z" style="fill:#ca183c;"/><path d="M10.71,201.85c1.06,22.39-2.11,47.43.02,69.26.92,9.42,9.99,31.82,9.58,36.79-.21,2.49-4.16,3.24-4.35,3.76-3.36-2.13-5.3-3.75-6.66-7.7-4.74-13.83-2.85-26.41-4.71-37.66-1.2-7.25-4.26-13.52-4.55-21.3-.61-16.37,6.36-34.69,8.08-50.98,4.41-.7,2.46,4.93,2.6,7.83Z" style="fill:#f69faf;"/><path d="M84.2,160.02c.45,1.11,2.4,1.99,2.62,2.61,5.44,15.03,5.71,23.48,26.23,20.9l-5.24-20.9c1.9-.56,2.1-.73,2.62-2.61,6.6-.47,7.52,4.89,10.5,7.84,1.93,9.25,6.92,17.45,10.5,26.15,2.85,9.31-16.78,5.15-23.62,2.61-7.5-2.78-19.04-13.52-22.42-20.9-3.66-7.98,3.26-7.21-6.45-10.48-1.17-.39-2.14-1.47-2.62-2.61.41-.03,3.97-2.16,7.87-2.61Z" style="fill:#ca183c;"/><path d="M99.95,34.52c1.23,27.28,2.78,55.14,5.26,82.35.74,8.08,2.31,20.03,5.24,27.47-.32,4.31.37,8.77,0,13.07-4.35.22-8.79-.32-13.12,0l2.62-125.5c.03.87-.04,1.75,0,2.61Z" style="fill:#2b2b2b;"/><path d="M99.95,34.52c8.32-1.45,4.68,4.17,5.17,9.12,3.31,33.33,7.71,68.12,5.33,100.7-2.93-7.43-4.5-19.38-5.24-27.47-2.48-27.21-4.04-55.07-5.26-82.35Z" style="fill:#797979;"/><path d="M144.57,261.99c-.66,8.73-.78,13.27-2.62,23.53-3.84,3.49-5.29,8.64-7.87,13.07-11.49-2.59-15.48,9.88-26.25,10.46-.99,4.38,4.98,1.61,7.87,5.23-.86.08-1.75-.05-2.62,0-2.61.15-5.26-.1-7.87,0-1.75.07-3.5-.05-5.25,0-2.04-8.44,5.77-3.98,7.87-5.23,1.26-.75,12.01-20.12,18.31-22.29l18.44-24.77Z" style="fill:#d73859;"/><path d="M92.08,3.15l2.62,20.92c-.12.56-2.28,2.22-2.78,6.26-1.06,8.56,1.08,18.89.13,27.73-.53.73-3.39-1.38-3.96-2.57-5.54-11.74-1.67-38.75-6.52-52.34,3.3.46,7.3-.53,10.5,0Z" style="fill:#797979;"/><path d="M147.2,235.84c-8.41,1.51-4.33-4.2-5.29-8.98-2.79-13.94-5.38-20.54-10.46-32.85-3.58-8.69-8.57-16.89-10.5-26.15,17.86,17.71,25.69,43.02,26.25,67.98Z" style="fill:#d73859;"/><path d="M141.95,285.52c-.71,3.93.5,8.82-.63,13.67-1.11,4.78-11.09,37.18-12.53,38.61-9.73,9.66.04-17.14.63-19.04,2.81-9.01.19-3.68-5.84-4.49,2.17-.95,8.67-12.56,10.5-15.69,2.59-4.43,4.03-9.58,7.87-13.07Z" style="fill:silver;"/><path d="M134.07,298.6c-1.83,3.13-8.33,14.74-10.5,15.69-1.34.58-5.55-.23-7.87,0-2.89-3.62-8.86-.85-7.87-5.23,10.77-.58,14.75-13.05,26.25-10.46Z" style="fill:#e66079;"/><path d="M97.33,157.41c4.33-.32,8.78.22,13.12,0-.08.91.2,1.9,0,2.61-.53,1.88-.73,2.05-2.62,2.61-5.22,1.54-16.44,3.16-21,0-.23-.63-2.17-1.51-2.62-2.61,4.11-.48,7.01-2.5,7.87-2.61,1.68-.22,3.53.13,5.25,0Z" style="fill:#af071d;"/><path d="M99.95,10.99c-3.86,1.24-1.88,5.71-2.62,7.84-.79,2.24-2.56,4.94-2.62,5.23l-2.62-20.92c8.16,1.36,5.55,2.06,7.87,7.84Z" style="fill:#2b2b2b;"/><path d="M99.95,18.83h-2.62c.75-2.13-1.24-6.6,2.62-7.84,3.28,8.16-.02,5.98,0,7.84Z" style="fill:#797979;"/><path d="M39.58,160.02v2.61l-5.25,2.61c.05-.87-.06-1.75,0-2.61.06-.87-.07-1.75,0-2.61h5.25Z" style="fill:#a10316;"/><path d="M68.45,162.64c1,7.38-2.83,18.18,2.62,23.53-.03,1.74.02,3.49,0,5.23-.14,12.04,1.33,29.6,2.62,41.83-11.43,2.5-5.14,5.88-6.01,7.28s-4.2,2.33-4.49,3.18c-1.92,5.64-9.14,37.8-10.87,38.85-2.28,1.38-7.08-.06-10.11.38,2.62-9.2-2.91-12.97-5.27-18.32-2.8-6.35.27-12.61-10.5-10.46-.31-3.21-.16-7.17,0-10.46,3.41-1.26,2.53-4.97,2.62-7.84.08-2.57.17-5.28,0-7.84,9.5,1.44,4.35-15.93,5.39-22.09,2.07-12.21,12.23-31.04,5.11-43.28v-2.61c10.14,0,21.9,2.53,28.87,2.61ZM31.71,235.84c-4.53,5.49,6.88,7.36,5.25,2.61.26-4.45.94-6.12-3.91-5.2l-1.34,2.59Z" style="fill:#5b0002;"/><path d="M76.33,162.64c.48,1.14,1.46,2.22,2.62,2.61-4.3,16.99,9.38,26.61,16.83,39.45,2.24,3.86,2.03,9.2,4.52,13.79,1.46,2.69,9.58,15.07,12.77,12.12l1.3-5.22c8.83,7.89-.06,4.1-1.3,5.22-.31.28-.79,5.87-2.65,7.82,12.99-1.41,5.41,2.65,5.27,10.48-10.83-3.8-8.84,9.17-10.63,10.39-.44.3-4.34-2.58-6.13-2.06-6.13,1.76-6.47,24.2-10.06,31.62-4.7,9.71-17.56,13.16-20.42,22.8-.87.02-1.75.01-2.62,0-25.2-.33-20.99-8.75-34.12-26.15-.24-1.67.26-3.57,0-5.23-1.28-8.26-4.47-18.07-5.25-26.15,10.77-2.15,7.7,4.11,10.5,10.46-6.29,7.06,5.2,30.84,10.41,35.38,26.24,22.85,33.89-35.21,28.95-51.05,2.58-.57,9.54.82,10.54,0,.46-.38-.27-5.76-.02-7.85,1.45.24,5.01-.36,5.25,0,1.28,1.93-2.47,9.11,2.6,7.83,1.57-3.06-2.62-7.42-2.6-7.83.08-1.45,2.49-3.83,2.62-5.23,1.5-15.04-9.19-4.41-13-7.98-1.06-1-3.07-24.02-4.02-28.79-.87-4.38-.21-9.15-6.6-7.68.02-1.74-.03-3.49,0-5.23.08-4.64,6.86-15.74,0-23.53,1.73.01,3.53.12,5.25,0ZM85.51,256.76v2.61c1.7-.87,1.7-1.74,0-2.61Z" style="fill:#8b0412;"/><path d="M81.58,154.79c-2.58-.51-9.83.72-10.51.01-2.6-2.71,2.54-24.26,2.74-29.97,1.18-33.06.18-65.69,2.52-98.16,5.43,14.63,1.87,32.77,2.53,48.47.14,3.43,2.72,6.79,2.72,7.75v49.68c0,4.76,5.73,14.02,0,22.22Z" style="fill:#2b2b2b;"/><path d="M71.08,186.17c-5.45-5.35-1.62-16.16-2.62-23.53.87.01,1.75,0,2.62,0,6.86,7.79.08,18.89,0,23.53Z" style="fill:#7f030c;"/><path d="M65.83,311.67v2.61c-2.22.13-4.55.1-5.25,2.61-6.12.03-12.26-.03-18.37,0,.16-9.85-8.98-13.85-11.48-24.3-1.39-5.8,1.04-6.72.99-7.07,13.13,17.39,8.92,25.81,34.12,26.15Z" style="fill:#a10316;"/><path d="M105.2,316.9c3.99,2.73,1.53,17.3,0,18.3-1.21.79-7.85-.54-10.49,0l2.61-18.31h7.87Z" style="fill:#797979;"/><path d="M65.83,314.28c6.06-.35,12.29.05,18.37,0,5.24-.05,10.51.14,15.75,0,1.75-.05,3.5.07,5.25,0v2.61h-7.87c-12.22,0-24.52-.05-36.75,0,.7-2.51,3.03-2.49,5.25-2.61Z" style="fill:#e66079;"/><path d="M78.95,165.25c9.72,3.27,2.8,2.5,6.45,10.48,3.38,7.38,14.92,18.12,22.42,20.9,7.13,20.52,28.77,30.11,25.77,55.53-1.66,14.12-22.69,46.87-35.34,53.96-4.82,2.7-7.35,1.9-11.43,2.94,4.28-10.09,15.47-13.84,21.52-24.32,8.44-14.62,7.1-21.23,7.35-35.82.14-7.83,7.72-11.89-5.27-10.48,1.86-1.95,2.34-7.54,2.65-7.82,1.24-1.12,10.13,2.67,1.3-5.22l-1.3,5.22c-3.19,2.94-11.32-9.44-12.77-12.12-2.49-4.59-2.28-9.93-4.52-13.79-7.45-12.84-21.12-22.46-16.83-39.45Z" style="fill:#af071d;"/><path d="M115.7,248.92c-.26,14.59,1.09,21.19-7.35,35.82-6.05,10.48-17.24,14.23-21.52,24.32-.82.21-1.79-.18-2.62,0-5.66,1.19-9.61,2.46-15.75,2.61,2.86-9.64,15.72-13.09,20.42-22.8,3.6-7.43,3.93-29.86,10.06-31.62,1.8-.52,5.69,2.36,6.13,2.06,1.79-1.22-.2-14.19,10.63-10.39Z" style="fill:#a10316;"/><path d="M84.2,309.05v5.23c-6.09.05-12.31-.35-18.37,0v-2.61c.87.01,1.75.02,2.62,0,6.14-.15,10.09-1.43,15.75-2.61Z" style="fill:#af071d;"/><path d="M29.08,228c.17,2.56.08,5.27,0,7.84-3.45,1.26-2.48,4.99-2.62,7.84-.16,3.28-.31,7.25,0,10.46.78,8.08,3.97,17.88,5.25,26.15-7.01,1.63-6.05-5.52-7.01-9.92-7.75-35.35-1.9-66.28,9.64-99.9-.82,21.27-6.65,35.9-5.25,57.52Z" style="fill:#a10316;"/><path d="M107.82,162.64l5.24,20.9c-20.53,2.58-20.8-5.87-26.23-20.9,4.56,3.16,15.78,1.54,21,0Z" style="fill:#e66079;"/><path d="M39.58,162.64c7.12,12.23-3.04,31.06-5.11,43.28-1.04,6.16,4.11,23.53-5.39,22.09-1.4-21.62,4.42-36.25,5.25-57.52.07-1.74-.11-3.5,0-5.23l5.25-2.61Z" style="fill:#7f030c;"/><path d="M71.08,191.4c6.39-1.47,5.73,3.29,6.6,7.68.95,4.77,2.96,27.79,4.02,28.79,3.82,3.57,14.5-7.05,13,7.98-2.15.48-6.54-.68-7.87,0l-1.31-2.6c-2.72.28-2.1,5.39,1.31,5.22-.13.85.1,1.76,0,2.61-.24,2.09.49,7.47.02,7.85-1.01.82-7.97-.57-10.54,0,4.94,15.85-2.71,73.9-28.95,51.05-5.21-4.54-16.7-28.32-10.41-35.38,2.36,5.35,7.89,9.12,5.27,18.32,3.03-.45,7.83,1,10.11-.38,1.73-1.05,8.95-33.22,10.87-38.85l5.22,13.06c.21-9.21-3.33-15.05,7.89-13.07-.1-1.69.31-3.64,0-5.22s-1.07-2.25-2.62-2.61c-.17-.81.09-1.75,0-2.61-1.3-12.23-2.77-29.79-2.62-41.83Z" style="fill:#7f030c;"/><path d="M73.7,235.84c.26,1.24,1.4,2.24,2.62,2.61.3,1.58-.1,3.53,0,5.22-11.23-1.98-7.68,3.86-7.89,13.07l-5.22-13.06c.29-.84,3.58-1.72,4.49-3.18s-5.42-4.78,6.01-7.28c.09.86-.17,1.8,0,2.61Z" style="fill:#8b0412;"/><path d="M31.71,235.84l1.34-2.59c4.85-.91,4.17.76,3.91,5.2-.1-.28-5.06-2.85-5.25-2.61Z" style="fill:#505051;"/><path d="M36.96,238.46c1.63,4.74-9.78,2.87-5.25-2.61.19-.24,5.15,2.34,5.25,2.61Z" style="fill:#d73859;"/><path d="M26.46,243.69c.14-2.86-.82-6.58,2.62-7.84-.09,2.87.78,6.58-2.62,7.84Z" style="fill:#e66079;"/><path d="M94.7,235.84c-.14,1.4-2.54,3.78-2.62,5.23-.24-.36-3.8.24-5.25,0,.1-.86-.13-1.77,0-2.61.14-.89-.25-2.49,0-2.61,1.33-.68,5.73.48,7.87,0Z" style="fill:#d73859;"/><path d="M92.08,241.07c-.02.41,4.17,4.77,2.6,7.83-5.07,1.28-1.32-5.9-2.6-7.83Z" style="fill:#7f030c;"/><path d="M85.51,256.76c1.7.87,1.7,1.74,0,2.61v-2.61Z" style="fill:#7f030c;"/><path d="M86.83,235.84c-.25.13.14,1.73,0,2.61-3.41.17-4.03-4.94-1.31-5.22l1.31,2.6Z" style="fill:#8b0412;"/><path d="M76.33,238.46c-1.23-.38-2.37-1.37-2.62-2.61,1.56.36,2.32.99,2.62,2.61Z" style="fill:#5b0002;"/></g></svg>