<?xml version="1.0" encoding="UTF-8"?><svg id="Capa_2" xmlns="http://www.w3.org/2000/svg" viewBox="0 0 754.26 445.45"><g id="Layer_1"><path d="M386.55,90.2l16.93-4.21c-4.36,23.8,6.49,13.73,18.69,21.52,2.2,1.41,36.41,32.26,37.7,34.53,17.48,31,11.61,19.7,37,41.15.39.33-1.2,6.04,2.71,8.68,5.75,3.88,15.79,4.02,22.75,4,1.31,9.73-2.29,24.67,14.83,21.16,1.5-.31,1.58-13.75,19.11-21.16,17.21-7.28,15.74,10.78,21.22,16.91,4.59,5.14,14.26,4.1,16.98,14.84l-8.48,6.26c14.48-1.65,26.68,7.71,40.53,8.74,11.35.84,13.75-3.54,18.85-4.47,4.76-.87,9.47,1.52,15.77-1.25,2.18-.96,9.62-14.95,12.69-15.54,8.28-1.61,21.07,3.79,26.71-4.35,14.36,4.24,5.97,6.5,8.49,8.45-6.89,4.11-5.06,16.12-9.58,20.12-7.75,6.85-39.84,7.32-24.36,30.61-8.46.78-18.06,4.88-25.46,4.23-.61-.05-.92-5.34-4.2-4.22-.56,2.49.73,7.56-.05,8.45-.64.73-6.14-.47-8.49,0-2.09-2.43-5.21-4-8.44-4.32l-.03-4.07c9.25,1.59,22.62-15.62,16.93-21.17-7.38-7.2-43.52,14.2-50.9,16.89-4.41-1.43-3.2-5.54-4.24-8.45-1.28-3.55-3.53-6.42-4.24-8.45-3.46-9.93,7.78-15.33-16.95-12.64l8.67,6.34c1.76,14.63-16.53,17.19-17.17,31.66-4.93,1.02-11.8-.88-16.97,0-7.45-3.62-9.83-8.56-8.51-16.9-13.75-3.3-7.34,9.98-8.46,21.13-2-.24-8.18-.29-8.49,0,2.28-5.38-3.84-10.64-4.24-12.68-.48-2.48.25-5.68,0-8.45-.7-7.7-.61-13.76-12.71-8.41-1.45,5.27,4.7,4.48,8.47,8.41h-25.46c-7.75,4.49-14.64-19.91-21.2-12.66-1.56,1.73,1.14,19.89-.04,25.32-10.74-4.25-44.77,11.76-50.17,7.89-1.99-1.42-9.78-15.77-7.4-20.55,5.4-10.87,18.37-6.06,26.74-9.77l22.36-19.82c25.24-.95,19.77-13.22,0-21.13,2.71-.37,5.7.28,8.46-.04v-4.14c-23.39-4.66-16.89-4.27-12.7-21.18,1.42-5.73,6.59-10.22,3.95-18.57-2.22-7.01-11.36-5.71-12.43-6.79-14.05-14.2-26.86-35.14-42.43-50.72-5.37-5.38-7.57-15.67-9.19-1.08-1.57,1.73-7.34-3.39-7.78-3.15-1.5-6.38,3.36-12.22,4.24-16.91ZM516.48,225.97c-7.83,2.14-7.83,9.5,0,11.64,33.63,9.19,33.63-20.82,0-11.64Z" style="fill:#f1439e;"/><path d="M34.37,195.86c4.54,1.18,8.38,2.76,12.73,4.23,8.07,2.72,13.74,5.39,21.22,8.45l-4.24,4.23c-4.29-1.64-25.26-9.11-25.43-.05,15.33,2.24,27.06,14.94,42.4,16.95,18.36,2.42,32.73-.62,46.67-12.68l4.24,4.23c-.86,1.16.63,9.79-3.82,15.09-5.53,6.59-16.79,4.66-17.43,8.18-.95,5.2,1.65,13.8,6.45,14.75,6.84,1.36,9.79-8.71,14.79-12.66l12.7,16.9c-2.88,2.58-13.96-12.28-16.94,8.43,3.97.68,9.33-.87,12.73.04l4.94,20.43c9.04-1.3,16.52,7.77,20.52,9.16-9.54,7.4-4.9,22.68-13.61,26.69-16.95,7.81-36.68,3.43-54.25,7.18l-6.44-25.44c-19.95-2.81-7.45,18.51-23.29,16.94-1.17-.56-3.15.57-4.24,0,4.95-26.03-7.47-23.53-29.7-25.36-1.34-1.46-2.96-2.65-4.24-4.23,6.57-13.76-8.71-18.22-8.65-19.27.17-2.96,6.2-13.63,4.42-14.52-6.48-3.24-14.68,6.04-16.84-15.36-1.4-13.88,7.77-9.46,8.43-12.1,3.07-12.3-7.01-9.58-7.7-12.62s1.07-19.2,3.37-23.34c.46-.43-1.81-7.92,2.7-8.71,7.79-1.37,12.64,2.96,18.52,4.49Z" style="fill:#b3306e;"/><path d="M344.12,69.06c-9.16,14.06,6.33,2.08,14.4,4.42,6.6,1.91,10.14,25.78,9.17,31.72-.85,5.2-8.92,7.11-6.57,14.56,15.85,3.77,19.99-12.01,21.19-12.66.44-.24,6.21,4.88,7.78,3.15,1.62-14.59,3.82-4.3,9.19,1.08-8.23,13.03,10.17,23.66,8.49,42.27-.03.37-4.84-1.29-4.33,6.14.73,10.68,24.24,33.8-4.41,42.24-12.68,3.74-38.57-9.87-48.63-18.72-4.01-3.53-15.6-20.39-17.1-25.23-4.9-15.83,6.07-34.37-14.63-29.84-1.8-7.31,8.54-1.77,8.53-6.66,0-3.03-3.24-7.19-2.78-11.5,1.24-11.58,12.14-27.61-1.53-32.53,8.65-3.68,9.42-5.17,21.22-8.45Z" style="fill:#f87bbb;"/><path d="M395.04,52.15c3.83-.16,9-4.62,12.88-2.17,2.2,1.39,3.06,7.03,5.53,9.11,24.99,21.08,19.2,22.1,34.35,44.06,2.06,2.99,47.13,43.14,53.4,48.31,4.54,3.74,13.88,4.44,16.03,7.52,1.91,2.73-.17,9.67,1.23,10.93,3.3,2.97,41.02.04,37.82,25.95-17.53,7.41-17.61,20.85-19.11,21.16-17.12,3.5-13.53-11.44-14.83-21.16-.03-.24,2.53-1.39,2.11-4.44-1.51-11.23-18.91-13.78-27.57-8.24-25.39-21.45-19.52-10.15-37-41.15-1.28-2.27-35.49-33.12-37.7-34.53-12.2-7.79-23.05,2.28-18.69-21.52l-16.93,4.21c.71-3.76-.48-8.63,0-12.68l12.71,4.21-4.22-29.57Z" style="fill:#e7278e;"/><path d="M721.76,326.89c9.92-3.19,9.87-6.99,19.17-12.71l10.49,12.63c-3.05,3.18-17.96,7.45-18.99,8.27-14.73,11.68-11.9,27.35-36.11,21.41l16.95,21.11c-1.32.35-2.9-.31-4.24,0l-2.12-4.15-2.12,4.15c-1.33.33-2.91-.33-4.24,0-21.23,5.22-45.85,9.28-66.34,16.23-6.43,2.18-5.69,8.37-8.71,9.04-9.47,2.11-33.65-7.01-31.03,8.55-1.4-.13-2.84.13-4.24,0-10.66-.96-21.12-5.41-31.97-4.67-4.73.32-9.37,10.76-25.7,12.62-15.82,1.81-24.03-3.48-31.44-3.72,4.15-7.63,15.76-2.77,22.58-4.31,3.31-.74,2.34-7.37,5.84-8.24,7.97-1.97,45.37-3.07,47.72-4.79,1.66-1.21-.48-6.53.24-8.02,4.71-9.78,46.72-5.98,50.63-8.93,1.71-1.28-.43-6.87.28-7.98,22.39,4.76,38.11-10.35,59.42-8.47,1.2-11.27-.36-7.66-8.5-8.44.02-21.98,22.14-5.24,25.44-8.47,8.38-8.21-17.39-9.01-8.46-16.87.97-.85,16.89-1.49,25.45-4.25Z" style="fill:#b3306e;"/><path d="M590.22,411.43c-6,22.01-8.67,8.02-18.91,8.16-2.72.04-1.95,8.68-4.11,8.34-27.79-4.3-19.66,3.23-39.58,7.81-25.74,5.91-94.86,8.02-122.05,6.03-4.53-.33-12.41,5.07-14.56,3.35-1.51-1.2.59-7.01-.22-8.33l12.73-16.91c16.6,3.42,72.48-5.04,97.59-4.23,7.41.24,15.62,5.53,31.44,3.72,16.33-1.86,20.97-12.3,25.7-12.62,10.85-.74,21.31,3.71,31.97,4.67Z" style="fill:#a9386d;"/><path d="M322.91,77.51c13.67,4.92,2.77,20.95,1.53,32.53-.46,4.31,2.77,8.47,2.78,11.5,0,4.89-10.33-.66-8.53,6.66,20.7-4.53,9.73,14.01,14.63,29.84,1.49,4.83,13.08,21.69,17.1,25.23,10.05,8.85,35.95,22.45,48.63,18.72,28.64-8.45,5.14-31.57,4.41-42.24-.51-7.43,4.29-5.76,4.33-6.14,1.66,4.01,12.16,10.58,12.73,12.68,1.95,7.25-3.87,17.88,8.49,21.13-26.58,17.91-10.49,48.09-50.46,31.21-20.83-8.8-42.64-28.04-55.06-46.63-4.92-7.36-1.74-20.08-13.26-18.47,12.92-12.22,2.97-22.38,4.19-37.99-15.68-2.92-4.34,10.08-6.31,16.84-2.68-3.2-6.82-3.57-10.65-4.14,1.26-22.64,8.28-27.09,25.44-40.17-17.72,2.31-12.47.1-21.2-6.32,8.27,1.3,13.97-1.15,21.22-4.23Z" style="fill:#f66db4;"/><path d="M174.39,301.53c4.45,15.6,8.44,8.64,15.36,14.41,12.32,10.29,25.87,27.15,35.56,36.31l-91.5-13.04c-15.62,19.39-45.78-2.94-65.49-12.32,15.84,1.57,3.34-19.74,23.29-16.94l6.44,25.44c17.57-3.75,37.3.63,54.25-7.18,8.71-4.01,4.07-19.29,13.61-26.69,2.23.78,6.38-.8,8.49,0Z" style="fill:#a9386d;"/><path d="M233.8,360.71c8.47,7.04,6.38-1.92,12.73,12.68,23.97,7.15,47.75,15.47,72.13,21.13.32,1.43-.42,3.09,0,4.23,2.25,6.08,18.77,11.67,25.46,12.68,5.2.78,11.49-.51,16.97,0l-.12,5.64c5.28,5.36,14.17,5.86,12.85,15.49-28.29.23-20.53-2.63-43.75-9.36-39.72-11.51-64.51-6.09-83.54-49.82-8.71-2.6-9.13.71-12.73-12.68Z" style="fill:#a9386d;"/><path d="M140.45,271.95c1.98.53,31.78,16.65,33.09,18,2.8,2.89.1,8.91.86,11.59,15.64,5.92,19.48,7.97,33.95,16.91.87.54.71,3.84,2.12,4.21,3.77.81,6.27.21,6.37-4.21.1-4.98-8.33-6.44-8.52-14.76-.08-3.53,7.14-2.96,8.46-2.08.37.25-.96,5.67,2.92,8.45,7.14,5.12,10.62,2.14,18.36,12.61l-16.95,6.29c12.03,10.75,25.3,19.18,38.16,27.52,3.74,2.42,22.61,16.45,24.14,16.82,6.26,1.5,20.14-1.41,22.53.09.31.2-1.13,5.34,1.28,7.26,2.87,2.28,9.26.35,10.82,1.68,2.38,2.04-.13,8.85.63,12.19-24.38-5.66-48.16-13.98-72.13-21.13-6.35-14.6-4.26-5.64-12.73-12.68-3.03-2.51-5.61-5.74-8.49-8.45-9.69-9.16-23.24-26.02-35.56-36.31-6.91-5.78-10.91,1.18-15.36-14.41-2.11-.8-6.25.78-8.49,0-4-1.39-11.48-10.46-20.52-9.16l-4.94-20.43Z" style="fill:#cb2a7c;"/><path d="M182.88,18.34v8.45c-8.62-2.83-16.59-5.73-25.46-8.45-4.25-1.3-7.83-3.13-12.73-4.23-2.73-.61-5.11-3.27-12.73-4.23-2.69-.34-5.71.05-8.49,0s-5.72-.22-8.49,0c-32.18,2.61-68.87,10.51-63.65,50.72-8.94-1.5-8.37,7.02-12.73,12.68-.5-.63-11.5-1.28-12.73-8.45,7.6-22.74,4.64-34.74,28.27-50.04,42.19-27.32,86.77-11.18,128.73,3.54Z" style="fill:#cb2a7c;"/><path d="M619.93,212.77c14.6,4.09,24.29,8.72,25.46,25.36-5.1.94-7.5,5.31-18.85,4.47-13.85-1.02-26.06-10.39-40.53-8.74l8.48-6.26c-2.72-10.74-12.39-9.7-16.98-14.84,13.35-8.53,27.24-.64,42.43,0Z" style="fill:#e7278e;"/><path d="M709.03,225.45c4.45,3.45,26.36,13.89,29.53,17.49,2.38,2.71-4.08,7.35-4.07,7.87-9.44.21-17.82,9.8-27.31,8.77-1.91-.21-3.47-16.54-10.88-8.74-.94.99,6.28,11.87,4.25,16.86l-12.74,8.47c-4.18.38-8.55-.39-12.73,0-15.47-23.29,16.62-23.75,24.36-30.61,4.52-4,2.69-16,9.58-20.12Z" style="fill:#e7278e;"/><path d="M713.28,377.61l-16.95-21.11c24.22,5.94,21.38-9.74,36.11-21.41,1.03-.82,15.94-5.09,18.99-8.27l-10.49-12.63c-9.3,5.72-9.25,9.52-19.17,12.71.19-4.36,6.51-20.21,8.49-21.13,5.82-2.73,12.22,5.2,16.97-12.68,1.9,9.38,7.6,19.54,6.99,31.09-1.49,28.22-14.21,46.42-40.94,53.45Z" style="fill:#a9386d;"/><path d="M229.56,39.47c13.57,2.44,47.13,21.95,59.66,31.64,4,3.09,5.91,8.7,8.23,10.63,2.98,7.82-2.69,12.26-4.24,16.91,3.16-10.9-7.62-7.54-8.49-8.45-.43-.45.88-5.44-2.97-8.51l-60.68-42.21c2.47.57,5.84-.48,8.49,0Z" style="fill:#f66db4;"/><path d="M25.88,64.83c1.23,7.17,12.23,7.82,12.73,8.45,3.67,4.62,10.7,26.14,16.97,33.81.15,2.8-.23,5.67,0,8.45h-4.24l-12.69-12.68c-1.53,7.84-2.15,17.99-4.28,25.36-.53,1.84-4.6,4.97-4.24,8.45-.33-.27-6.99-.39-8.49,0-1.94-5.87,3.14-9.56,4.24-12.68,3.87-10.98,11.88-36.99-4.22-33.84,3.25,6.09-4.24,15.74-4.26,16.94-7.05-12.13,3.97-28.74,8.49-42.27Z" style="fill:#b11063;"/><path d="M30.13,170.5c-2.36,3.26,5.29,19.36,4.24,25.36-5.88-1.52-10.73-5.86-18.52-4.49-4.51.79-2.23,8.28-2.7,8.71-.84.79-6.11-.52-8.49,0,.56-24.26-15.31-31.71,8.49-54.95,5.47,10.12,1.65,26.17,16.97,25.36Z" style="fill:#b11063;"/><path d="M13.15,200.09c-2.3,4.15-4.06,20.29-3.37,23.34s10.77.31,7.7,12.62c-.66,2.63-9.83-1.78-8.43,12.1,2.16,21.4,10.36,12.12,16.84,15.36,1.77.89-4.26,11.56-4.42,14.52-.06,1.05,15.23,5.51,8.65,19.27C.2,260.52.76,259.85.24,210.29c-.06-5.61,4.41-9.65,4.43-10.2,2.38-.52,7.64.79,8.49,0Z" style="fill:#a9386d;"/><path d="M361.09,64.83c21.74-1.67,17.24-.17,17.01,21.12l8.45-8.43c-.48,4.05.71,8.92,0,12.68-.88,4.69-5.75,10.53-4.24,16.91-1.2.65-5.34,16.44-21.19,12.66-2.35-7.45,5.72-9.35,6.57-14.56.98-5.95-2.57-29.81-9.17-31.72-8.07-2.34-23.57,9.63-14.4-4.42,1.27-.35,2.85.3,4.24,0,4.03-.87,8.02-4.17,8.49-4.23,1.39-.16,2.84.11,4.24,0Z" style="fill:#f358a8;"/><path d="M687.82,276.17l12.74-8.47c2.03-4.99-5.19-15.87-4.25-16.86,7.4-7.8,8.96,8.53,10.88,8.74,9.49,1.03,17.86-8.56,27.31-8.77.07,3.59,7.17,11.94,8.49,16.91-4.99,4.68-17.04,2.4-20.46,5.11-2.25,1.78-.12,6.54-.75,7.57-2.36,3.87-12.12,4.9-16.96,4.24l-.04-12.73c-5.96,3.19-10.4,3.66-16.94,4.26Z" style="fill:#cb2a7c;"/><path d="M700.55,217c-5.64,8.14-18.42,2.74-26.71,4.35-3.06.59-10.51,14.58-12.69,15.54-6.3,2.77-11.01.37-15.77,1.25-1.17-16.64-10.86-21.27-25.46-25.36,24.86,1.04,54.51-3.47,80.62,4.23Z" style="fill:#cb2a7c;"/><path d="M700.55,377.61c-8.18,10.38-26.17,19.18-39.13,22.71-9.03,2.46-15.27-2.08-21.37-.71-19.54,4.41-11.49,15.07-45.58,11.81-2.62-15.55,21.56-6.43,31.03-8.55,3.02-.67,2.28-6.86,8.71-9.04,20.49-6.95,45.11-11.01,66.34-16.23Z" style="fill:#a9386d;"/><path d="M390.8,411.43c2.99.62,9.74,7.84,12.73,8.45l-12.73,16.91c-2.05-3.36-12.54-4.26-16.97-4.23,1.32-9.63-7.58-10.13-12.85-15.49l.12-5.64c9.2.85,21.59-1.69,29.7,0Z" style="fill:#b3306e;"/><path d="M395.04,52.15l4.22,29.57-12.71-4.21-8.45,8.43c.23-21.28,4.73-22.79-17.01-21.12,6.67-16.38,19.91-12.1,33.95-12.68Z" style="fill:#f1439e;"/><path d="M30.13,136.69c.89.72,6.43,18.25,8.49,21.13,4.54,14.97-7.92,11.9-8.49,12.68-15.32.81-11.5-15.24-16.97-25.36,2.48-2.42,3.39-7.14,8.49-8.45,1.5-.39,8.16-.27,8.49,0Z" style="fill:#750838;"/><path d="M747.22,293.08c-4.75,17.88-11.15,9.95-16.97,12.68.3-9.29,2.56-21.87-8.49-25.36.63-1.03-1.5-5.79.75-7.57,3.43-2.71,15.47-.43,20.46-5.11,2.8,10.51,2.52,16.82,4.24,25.36Z" style="fill:#b3306e;"/><path d="M301.69,81.74c8.72,6.42,3.47,8.63,21.2,6.32-17.16,13.08-24.18,17.53-25.44,40.17,3.83.57,7.97.94,10.65,4.14,1.97-6.76-9.38-19.76,6.31-16.84-1.22,15.6,8.73,25.77-4.19,37.99,11.52-1.61,8.34,11.11,13.26,18.47,12.42,18.58,34.23,37.83,55.06,46.63,39.96,16.88,23.88-13.3,50.46-31.21,1.15.3,2.78-.08,4.24,0,4.85.27,3.94-4.21,4.24-4.23,2.16-.09,8.83,4.64,12.73,4.23-4.19,16.92-10.69,16.52,12.7,21.18v4.14c-2.76.32-5.75-.33-8.46.04-3.52.48-9.04-1.53-11.94.61-9.89,7.29-5.52,21.18,11.94,20.53l-22.36,19.82c-8.37,3.71-21.35-1.1-26.74,9.77-2.38,4.78,5.42,19.13,7.4,20.55,5.4,3.87,39.43-12.14,50.17-7.89,1.18-5.43-1.52-23.59.04-25.32,6.55-7.25,13.45,17.15,21.2,12.66l.33,16.57c10.49.84,25.4,3.62,29.38-8.11.4,2.04,6.52,7.3,4.24,12.68-.47.44,1.88,7.47-2.7,8.57-6.54,1.57-36.78,3.86-45.9,4.29-18.81.88-55.6-13.82-48.99,16.73-34.73-3.94-27.14-24.03-34.6-28.94-14.46-9.52-27.8,15.14-20.56-30.24.57-3.55,5.78-8.79,4.44-14.13-15.66-19.84-19.46-7.51-29.9,9.91-.83-.58-5.31,1.28-7.4-.9-3.76-3.92-2.25-17.61-6.53-23.29-2.51-3.33-10.64-3.67-13.68-9.66-2.59-5.1-.81-13-2.83-16.06-1.99-3.03-13.19-3.02-17.65-5.67-8.56-5.1-17.61-33.41-15.83-43.37.83-4.63,17.27-3.96,21.5-6.7-.95.94.64,4.33,2.12,4.23,4.63-.31-.12-6.22-2.12-4.23,5.85-3.79-.2-13.33,0-16.91-4-.6-8.6.43-12.71-.02-1.12-1.06,6.99-25.13,8.47-29.56,1.55-4.65,7.22-9.09,4.24-16.91.83.69,3.32-.68,4.24,0Z" style="fill:#f358a8;"/><path d="M34.37,301.53c22.23,1.83,34.65-.67,29.7,25.36-7.12-3.72-18.23-7.38-23.64-12.56-5.29-5.06-5.06-11.71-6.06-12.81Z" style="fill:#a9386d;"/><path d="M229.56,39.47c-2.64-.48-6.02.57-8.49,0-15.18-3.48-24.39-8.15-38.19-12.68v-8.45c14.95,5.25,37.03,8.27,46.67,21.13Z" style="fill:#f358a8;"/><path d="M17.4,107.1c.02-1.19,7.51-10.85,4.26-16.94,16.1-3.14,8.09,22.87,4.22,33.84-1.12-4.63-8.55-13.57-8.49-16.91Z" style="fill:#be2271;"/><path d="M356.85,64.83c-.47.05-4.46,3.35-8.49,4.23-.72-11.31-.2-9.6,8.49-4.23Z" style="fill:#f87bbb;"/><path d="M709.03,377.61c-1.34.31-2.91-.33-4.24,0l2.12-4.15,2.12,4.15Z" style="fill:#a9386d;"/><path d="M594.47,271.95c7.37-2.68,43.52-24.08,50.9-16.89,5.69,5.55-7.68,22.76-16.93,21.17l.03,4.07c3.22.32,6.34,1.89,8.44,4.32.69.81-.67,3.28,0,4.23l-12.77,12.66-4.22-8.41-8.47,12.66c-4.56-3.41-3.1-11.38-14.54-8.5-2.3.58-1.34,6.87-8.42,9.3-7.27,2.49-29.18,2.54-38.55,3.53-12.25,1.29-4.71,8.7-6.37,16.81-7.75-1.32-7.9-2.51-12.73-4.23-3.68-1.31-17.74-12.45-21.23-8.42-3.95,4.55,13.77,7.13-21.2,16.87,2.33-11.16-4.82-8.6-11.37-10.71-15.71-5.06-28.64-4.45-43.79-6.19-4.15-.48-8.58.47-12.73,0-6.61-30.54,30.18-15.85,48.99-16.73,9.13-.43,39.36-2.72,45.9-4.29,4.58-1.1,2.23-8.13,2.7-8.57.31-.29,6.48-.24,8.49,0,17.11,2.05,12.39-3.45,16.97-4.23,5.17-.88,12.05,1.02,16.97,0,11.74-2.44,22.5-4.29,33.95-8.45Z" style="fill:#f66db4;"/><path d="M687.82,276.17c6.54-.6,10.98-1.07,16.94-4.26l.04,12.73c4.84.66,14.6-.37,16.96-4.24,11.05,3.49,8.79,16.07,8.49,25.36-1.98.93-8.29,16.78-8.49,21.13-8.57,2.75-24.48,3.39-25.45,4.25-8.93,7.86,16.84,8.66,8.46,16.87-3.3,3.23-25.41-13.51-25.44,8.47-13.51-1.29-43.67,5.76-50.92,16.91-.72,1.1,1.42,6.69-.28,7.98-3.92,2.95-45.93-.85-50.63,8.93-34.11,2.52-67.96,8.22-101.84,12.68v-4.23c53.51-7.13,106.12-15.14,156.99-33.86-5.67-14.44-19.15-6.23-29.67-4.21-1.91-7.15,8.08-1.72,8.71-6.92.66-5.48-4.76-25.87.31-30.59.8-.75,9.52-.39,16.41-4.72,1.64-1.03,16.78-14.1,17.04-15.21,2.59-11.44-5.33-9.87-8.55-14.38-.67-.94.69-3.42,0-4.23,2.35-.47,7.85.73,8.49,0l4.24-4.23c7.4.66,16.99-3.44,25.46-4.23,4.18-.39,8.55.38,12.73,0ZM695.92,284.96c-1.56-1.22-35.35,6.76-38.18,10.81-6.79,9.69-2.91,31.9-3.84,43.82l55.14-21.2c1.07-1.45-11.7-32.33-13.12-33.43Z" style="fill:#be2271;"/><path d="M441.71,162.05l-21.22,4.23c-.57-2.11-11.07-8.67-12.73-12.68,1.68-18.61-16.72-29.24-8.49-42.27,15.57,15.59,28.38,36.52,42.43,50.72Z" style="fill:#f358a8;"/><path d="M441.71,162.05c1.07,1.08,10.21-.22,12.43,6.79,2.65,8.34-2.53,12.83-3.95,18.57-3.9.41-10.57-4.32-12.73-4.23l-4.24,4.23c-1.46-.08-3.09.3-4.24,0-12.36-3.26-6.54-13.88-8.49-21.13l21.22-4.23Z" style="fill:#750838;"/><path d="M560.52,280.4c.64-14.47,18.94-17.03,17.17-31.66l-8.67-6.34c24.73-2.69,13.49,2.72,16.95,12.64l-4.21,2.15c-1.47,7.82,1.22,6.72,8.45,6.3,1.05,2.91-.17,7.02,4.24,8.45-11.44,4.16-22.2,6.01-33.95,8.45Z" style="fill:#f358a8;"/><path d="M454.44,212.77c19.77,7.91,25.24,20.19,0,21.13-17.45.66-21.82-13.24-11.94-20.53,2.9-2.13,8.41-.13,11.94-.61Z" style="fill:#400119;"/><path d="M509.6,263.49h4.24c.25,2.77-.48,5.97,0,8.45-3.98,11.74-18.89,8.95-29.38,8.11l-.33-16.57h25.46Z" style="fill:#400119;"/><path d="M516.48,225.97c33.63-9.19,33.63,20.82,0,11.64-7.83-2.14-7.83-9.5,0-11.64Z" style="fill:#750838;"/><path d="M496.87,183.18c8.67-5.54,26.06-2.99,27.57,8.24.41,3.06-2.15,4.2-2.11,4.44-6.96.03-17-.11-22.75-4-3.91-2.64-2.32-8.35-2.71-8.68Z" style="fill:#87033e;"/><path d="M526.58,284.63c1.12-11.15-5.28-24.43,8.46-21.13-1.31,8.34,1.06,13.28,8.51,16.9-4.59.78.14,6.28-16.97,4.23Z" style="fill:#f358a8;"/><path d="M509.6,263.49c-3.77-3.93-9.92-3.14-8.47-8.41,12.1-5.34,12.01.71,12.71,8.41h-4.24Z" style="fill:#f358a8;"/><path d="M590.22,263.49c-7.23.42-9.92,1.52-8.45-6.3l4.21-2.15c.71,2.04,2.97,4.91,4.24,8.45Z" style="fill:#f87bbb;"/><path d="M649.63,280.4l-4.24,4.23c.78-.89-.51-5.95.05-8.45,3.28-1.12,3.58,4.16,4.2,4.22Z" style="fill:#f66db4;"/><path d="M221.07,132.46c10.12,1,9.58,9.77,21.27,10.57,4.18,20.09-13.18,1.08-17.01,12.7-1.45,4.4,10.58-1.23,8.43,6.27-7.35-6.29-9.32,16.08-8.46,16.92,8,7.83,14.27-8.71,15.21-8.71,4.51-.02,9.15,5.45,14.49,4.56-23.39,16.04-6.15,13.15-4.11,27.68,2.21,15.71-12.48,29.82,4.57,50.02,1.17,1.39,26.95,19.91,29.56,21.31,7.33,3.93,14.11,4.11,20.9,6.62,5.72,2.11,11.38,6.76,16.97,8.45.6,5.39-.88,11.83,0,16.91h-4.24c-13.84-16.8-42.74-23.93-63.65-29.59-13-3.52-37.96-3.23-47.79-8.43-7.32-3.87-8.94-22.51-12.25-24.73-1.57-1.06-30.06-3.83-37.55-4.87-1.39-.19-2.87.24-4.24,0-4.16-15.44,7.26-11.48,8.49-12.68,1.55,8.42,13.03-.6,16.01-2.85,10.7-8.11,7.51-20.06-6.25-22.07-7.22-1.06-7.23,8.19-9.76,8.02-.64-.04-4.6-5.73-9.8-3.97-4.51,1.53-7.9,9.74-11.79,14.16-2.12,2.41-7.65,1.86-8.11,2.48l-4.24-4.23c8.26-7.14,16.88-31.43,16.97-42.27.04-4.18-5.1-11.94-4.24-12.64,5.33-3.26,24.5.83,25.26-.17,1.24-1.62-.51-6.2.19-8.32,6.87-20.85,10.67-9.15,26.91-13.47,6.19-1.65,10.34-7.42,11.27-7.66,3.24-.84,12.89-.4,16.97,0Z" style="fill:#d7137e;"/><path d="M153.18,238.13c1.37.24,2.86-.19,4.24,0l.03,16.89c23.34-7.17,12.86-3.62,16.95,4.24-24.9,2.05,8.68,23.87,12.71,27.54,6.19,5.63.07,11.43,14.81,10.53,12.87-.79,5.51-6.99,2.18-12.71,12.6,10.09,29.27,17.32,40.36,29.57,16.42-4.35.17-19.94,23.29-25.35l50.92,21.13c.35,1.38-.5,3.19,0,4.23,3.73,7.71,21.85,18.64,21.27,33.81,2.8,1.91,13.65-13.68,16.92-16.9,3.66-3.6,3.1-8.41,10.63-8.89,15.84-1.01,47.2,3.81,65.75,4.66,9.97.45,22.99-4.82,21.22,8.45-.04.29-6.63,1.25-4.21,4.16,1.2,1.43,12.38-3.22,8.41,12.77-12.65-7.95-6.49.76-8.45,4.2-.21.37-7.05.54-8.49,0-3.25-1.21-5.99-7.99-16.97-12.68-1.01-.43-2.75.26-4.24,0-3.92-.67-4.03.04-4.24,0-8.43-1.41-11.55.07-21.22-4.23-2.5-1.11-7.92-13.75-21.21-8.42,20.32,25.51-6.8,24.67-8.49,46.46-8.22-.28-17.11-5.65-29.7-8.45-5.39-1.2-7.6-8.08-8.49-8.45,7.4-37.3-36.63-65.66-42.43-16.91-2.24-1.27-6.46-.39-10.83-3.99-5.18-4.26-6.57-14.65-16.78-17.12-3.77.71-2.42,9.39-2.1,12.65-15.9,3.59-11.66-5.48-16.97-12.68-7.74-10.47-11.22-7.49-18.36-12.61-3.88-2.78-2.54-8.21-2.92-8.45-1.32-.87-8.55-1.45-8.46,2.08.2,8.31,8.63,9.78,8.52,14.76h-8.49c-14.46-8.93-18.31-10.99-33.95-16.91-.76-2.67,1.95-8.7-.86-11.59-1.31-1.35-31.11-17.47-33.09-18-3.4-.91-8.75.64-12.73-.04,2.98-20.71,14.07-5.84,16.94-8.43l-12.7-16.9c.63-.5,4.61,1.01,7.31-1.07,2.85-2.18,3.22-9.92,7.41-10.85,2.11-.47,4.83,3.17,6.49,3.46Z" style="fill:#be2271;"/><path d="M114.99,166.28c1.41,0,2.83-.04,4.24,0,1.41.04,2.84-.08,4.24,0-.42,4.2-.63,7.12,4.24,8.45,4.39,1.2,11.87-.83,16.97,0-.1,10.84-8.72,35.12-16.97,42.27-13.94,12.06-28.31,15.1-46.67,12.68,3.73-6.09-11.95-14.99-16.97-16.91l4.24-4.23c5.65,2.31,10.46,5.05,16.97,4.23,1.97,3.51-4.76,11.07,8.47,8.43-8.49-19.26,2.69-21.69,6.78-33.8,2.38-7.03-2.42-15.81,1.72-21.12h12.73Z" style="fill:#a9386d;"/><path d="M161.66,208.54l-3.41,2.51c-.47,3.7,4.64,13.2,3.41,14.4-1.23,1.2-12.65-2.76-8.49,12.68-1.66-.29-4.38-3.93-6.49-3.46-4.2.93-4.57,8.66-7.41,10.85s-6.68.57-7.31,1.07c-5,3.96-7.96,14.02-14.79,12.66-4.8-.96-7.39-9.55-6.45-14.75.64-3.51,11.9-1.59,17.43-8.18,4.45-5.3,2.96-13.93,3.82-15.09.46-.62,6-.07,8.11-2.48,3.89-4.43,7.28-12.63,11.79-14.16,5.19-1.76,9.15,3.92,9.8,3.97Z" style="fill:#a30855;"/><path d="M64.07,183.18c3.72,4.75,9.05,11.96,12.73,16.91,3.59,4.82,5.41,7.19,8.49,12.68-6.51.82-11.33-1.92-16.97-4.23-7.48-3.06-13.15-5.73-21.22-8.45-.17-12.42-10.32-19.47,4.24-25.36,2.28,2.88,10.48,5.58,12.73,8.45Z" style="fill:#750838;"/><path d="M51.34,174.73c-14.56,5.89-4.42,12.94-4.24,25.36-4.35-1.47-8.18-3.05-12.73-4.23,1.04-6-6.61-22.1-4.24-25.36.57-.78,13.03,2.29,8.49-12.68,2.91,4.06,9.64,13,12.73,16.91Z" style="fill:#87033e;"/><path d="M64.07,212.77c5.02,1.92,20.7,10.82,16.97,16.91-15.35-2.02-27.08-14.71-42.4-16.95.17-9.06,21.14-1.59,25.43.05Z" style="fill:#a30855;"/><path d="M543.55,326.89c1.66-8.11-5.87-15.52,6.37-16.81,9.38-.99,31.28-1.04,38.55-3.53,7.09-2.43,6.13-8.72,8.42-9.3,11.44-2.88,9.98,5.09,14.54,8.5,5.65,4.23,11.1,8.76,16.97,12.68-6.89,4.33-15.61,3.98-16.41,4.72-5.07,4.72.35,25.12-.31,30.59-.62,5.19-10.61-.23-8.71,6.92,10.52-2.02,23.99-10.23,29.67,4.21-50.86,18.72-103.47,26.73-156.99,33.86-9.96,1.33-25.42-4.4-29.7,8.42,11.26,4.18,23.03-3.31,29.7-4.19,33.88-4.46,67.72-10.16,101.84-12.68-.72,1.49,1.41,6.82-.24,8.02-2.35,1.72-39.75,2.82-47.72,4.79-3.5.87-2.53,7.5-5.84,8.24-6.82,1.53-18.42-3.32-22.58,4.31-25.12-.81-80.99,7.65-97.59,4.23-2.99-.62-9.74-7.83-12.73-8.45,24.11-16.94-4.39-10.69-18.1-13.67-11.4-2.48-28.37-7.78-37.06-15.91,6.21,7.57,55.31.83,67.89,8.45,14.6,1.72,24.81-.44,38.19-4.23,6.16-1.75,10.85-2.67,14.88-8.45,3.36,17.15,22.2.1,36.01-.05-1.9-9.94-20.31,2.95-17-12.6h-4.14c1.72,10.66-5.59,9.3-14.93,8.46-12.08-1.09-4.71-9.14-6.34-16.95,1.97-3.44-4.19-12.15,8.45-4.2,3.97-15.99-7.22-11.34-8.41-12.77-2.43-2.91,4.17-3.87,4.21-4.16,12.32,3.77,21.94-.88,33.95-4.23,34.98-9.74,17.26-12.32,21.2-16.87,3.49-4.03,17.54,7.11,21.23,8.42-12.53,11.05-7.21,32.2-16.97,46.49-2.84.35-10.07,7.27-16.97,4.26-.08,3.23,4.07,7.16,6.78,7.65,9.68,1.74,45.89-8.19,56.87-11.91,5.91-2,14.37-5.15,20.13-7.52,4.7-1.94,6.82,1.04,4.71-6.56-8.74-31.43-19.01-24.29-41.81-28.18Z" style="fill:#b11063;"/><path d="M679.33,356.48c8.14.78,9.7-2.83,8.5,8.44-21.3-1.88-37.03,13.23-59.42,8.47,7.25-11.14,37.41-18.2,50.92-16.91Z" style="fill:#cb2a7c;"/><path d="M335.63,373.39c.54,2.39-.81,7.46,0,8.45,8.68,8.13,25.66,13.43,37.06,15.91,13.71,2.99,42.21-3.26,18.1,13.67-8.11-1.69-20.5.85-29.7,0-5.48-.51-11.77.78-16.97,0,3.35-12.52-15.48-10.32-25.46-12.68-.42-1.14.32-2.8,0-4.23-.75-3.34,1.75-10.15-.63-12.19-1.56-1.34-7.95.59-10.82-1.68-2.42-1.92-.97-7.06-1.28-7.26v-4.23c9.55,3.16,19.54,5.02,29.7,4.23Z" style="fill:#be2271;"/><path d="M318.66,398.75c9.98,2.36,28.81.16,25.46,12.68-6.69-1.01-23.21-6.6-25.46-12.68Z" style="fill:#b3306e;"/><path d="M238.04,322.67c5.32,7.2,1.08,16.27,16.97,12.68.15,1.47-.34,3.1,0,4.23.62,2.03,3.29,2.98,4.24,4.23,1.73,2.27,6.33,7.18,8.49,8.45l-8.49,4.23c-12.86-8.34-26.13-16.77-38.16-27.52l16.95-6.29Z" style="fill:#b3306e;"/><path d="M305.93,369.16v4.23c-2.39-1.5-16.27,1.41-22.53-.09-1.53-.37-20.4-14.39-24.14-16.82l8.49-4.23c7.12,4.21,30.03,14.21,38.19,16.91Z" style="fill:#a9386d;"/><path d="M216.83,318.44c-.09,4.42-2.6,5.02-6.37,4.21-1.41-.37-1.25-3.68-2.12-4.21h8.49Z" style="fill:#b3306e;"/><path d="M131.96,9.89l12.73,4.23c4.89,1.1,8.48,2.92,12.73,4.23l-8.46,21.12c10.95-3.28,19.81-4.98,30.63.32,3.5,1.71,4.4,6.84,8.57,9.43,5.29,3.29,27.64,14.66,28.58,15.99,1.9,2.69-5.6,11.05-4.17,12.28,20.2-6.92,23.41,15.47,25.55,16.92,1.21.82,20.06-6.63,28.45-7.24,13.56-.97,9.52-2.1,9.65,11.48-6.85,3.29-9.32,3.72-16.97,8.45-2.66,1.65-5.84,2.57-8.49,4.23-42.52-37.67-90.21-38.66-144.27-38.04l46.66-4.27c.98-8.92-14-1.5-16.79-4.37-.58-.6-.24-11.18-2.49-16.39-5.23-12.11-20.87-19.49-18.89-34.15l8.49-4.23c2.77.05,5.8-.34,8.49,0Z" style="fill:#87033e;"/><path d="M114.99,9.89v4.23c-1.99,14.66,13.66,22.03,18.89,34.15,2.25,5.22,1.92,15.8,2.49,16.39,2.78,2.86,17.76-4.56,16.79,4.37l-46.66,4.27c-15.46.18-32.77-2.85-46.67,4.23-1.03-3.87-7.66-10.52-8.49-16.91-5.22-40.21,31.46-48.11,63.65-50.72Z" style="fill:#750838;"/><path d="M182.88,26.79c13.8,4.53,23.01,9.21,38.19,12.68l60.68,42.21c3.85,3.07,2.54,8.06,2.97,8.51-1.47,4.55-4.38,6.48-8.49,8.45-.14-13.58,3.9-12.46-9.65-11.48-8.39.6-27.24,8.06-28.45,7.24-2.14-1.45-5.35-23.84-25.55-16.92-1.43-1.23,6.07-9.59,4.17-12.28-.94-1.34-23.29-12.71-28.58-15.99-4.17-2.59-5.07-7.72-8.57-9.43-10.82-5.3-19.68-3.6-30.63-.32l8.46-21.12c8.87,2.72,16.84,5.62,25.46,8.45Z" style="fill:#a30855;"/><path d="M51.34,60.61c.83,6.39,7.46,13.04,8.49,16.91,1.92,7.21,3.7,13.55,4.24,21.13.3,4.19-.2,8.48,0,12.68-1.47-1.75-7.14-2.58-8.49-4.23-6.27-7.68-13.3-29.2-16.97-33.81,4.36-5.66,3.79-14.18,12.73-12.68Z" style="fill:#e7278e;"/><path d="M144.69,14.11l-12.73-4.23c7.62.96,10,3.62,12.73,4.23Z" style="fill:#a30855;"/><path d="M123.48,9.89l-8.49,4.23v-4.23c2.76-.22,5.7-.05,8.49,0Z" style="fill:#a30855;"/><path d="M284.72,90.2c.87.91,11.65-2.45,8.49,8.45-1.48,4.43-9.59,28.51-8.47,29.56,4.12.46,8.72-.57,12.71.02-.2,3.57,5.85,13.12,0,16.91-4.23,2.74-20.67,2.07-21.5,6.7-1.79,9.96,7.26,38.27,15.83,43.37,4.46,2.66,15.66,2.65,17.65,5.67,2.02,3.07.24,10.96,2.83,16.06,3.04,5.99,11.17,6.33,13.68,9.66,4.29,5.69,2.78,19.38,6.53,23.29,2.09,2.18,6.57.32,7.4.9,8.5,5.98,9.71,14.63,25.46,4.23-7.23,45.38,6.11,20.72,20.56,30.24,7.45,4.91-.13,25,34.6,28.94,4.15.47,8.58-.48,12.73,0v12.68c-18.55-.85-49.92-5.67-65.75-4.66-7.53.48-6.97,5.29-10.63,8.89,4.25-14.5-8.47-15.25-21.22-16.91l33.96-.02c3.76-19-7.18-9.98-20.34-15.56-12.55-5.32-9.78-4.75-26.35-9.78-5.59-1.7-11.25-6.34-16.97-8.45,3.28-12.62-8.23-6.25-11.61-9.32-1.24-1.13-11.65-24.5-14.6-30.08-11.03-20.87-18.9-39.04-12.08-64.28-10.73,2.76-10.12-2.94-12.68-12.49l12.74,6.26c5.32-7.41-4.2-39.52-16.93-38.1,2.42-11.5,21.89-9.88,16.94-21.08-.51-1.14-11.63,10.53-8.45-4.2,7.65-4.74,10.12-5.16,16.97-8.45,4.1-1.97,7.02-3.91,8.49-8.45ZM280.45,107.14c-5.96-3.04-11.32,2.68-8.45,4.15,5.96,3.04,11.32-2.68,8.45-4.15Z" style="fill:#f1439e;"/><path d="M119.23,166.28c-1.41-.04-2.83,0-4.24,0v-4.23c1.68,1.08,3,2.69,4.24,4.23Z" style="fill:#cb2a7c;"/><path d="M55.59,115.56c1.27,15.46,2.3,10.18,11.18,18.6,2.17,2.06,1.33,6.51,1.62,6.69,8.52,5.32,9.85-4.87,8.42-12.61,4.29,2.41,10.62,2.88,12.73,4.23,2.11,1.35,3.08,1.25,4.24,4.23.8,2.05-1.42,6.56,1.31,11.41,2.16,3.83,15.47,11.1,19.91,13.95-8.3-.82-8.74-.88-12.73,4.23-4.15,5.31.65,14.1-1.72,21.12-4.09,12.11-15.27,14.54-6.78,33.8-13.23,2.63-6.5-4.93-8.47-8.43-3.08-5.49-4.9-7.86-8.49-12.68,7.8-23.52,3.37-47.69-12.73-16.91-2.25-2.87-10.45-5.57-12.73-8.45-3.09-3.91-9.82-12.84-12.73-16.91-2.06-2.88-7.6-20.42-8.49-21.13-.36-3.48,3.71-6.61,4.24-8.45l16.95,16.89.02-29.57h4.24ZM53.43,149.45l-2.01,2,6.33,6.3,2.01-2-6.33-6.3Z" style="fill:#cb2a7c;"/><path d="M51.34,115.56l-.02,29.57-16.95-16.89c2.13-7.37,2.76-17.52,4.28-25.36l12.69,12.68Z" style="fill:#be2271;"/><path d="M64.07,111.33c1.66,1.97,2.58,5.9,4.24,8.45,1.09,1.68,2.68,3,4.24,4.23,1.29,1.29,3.13,3.6,4.24,4.23,1.43,7.74.1,17.92-8.42,12.61-.29-.18.55-4.63-1.62-6.69-8.88-8.42-9.91-3.14-11.18-18.6-.23-2.78.15-5.66,0-8.45,1.34,1.64,7.02,2.48,8.49,4.23Z" style="fill:#be2271;"/><path d="M339.88,250.81c10.44-17.42,14.24-29.75,29.9-9.91,1.34,5.35-3.87,10.58-4.44,14.13-15.75,10.41-16.95,1.76-25.46-4.23Z" style="fill:#b11063;"/><path d="M297.45,145.14c2-1.99,6.75,3.91,2.12,4.23-1.48.1-3.07-3.28-2.12-4.23Z" style="fill:#f66db4;"/><path d="M433.23,187.41l4.24-4.23c-.3.01.6,4.5-4.24,4.23Z" style="fill:#f66db4;"/><path d="M543.55,326.89c22.8,3.89,33.07-3.25,41.81,28.18,2.11,7.6,0,4.62-4.71,6.56-5.76,2.37-14.22,5.52-20.13,7.52-14.96,1.25-32.15-1.78-46.67,0,9.76-14.3,4.44-35.44,16.97-46.49,4.83,1.72,4.98,2.91,12.73,4.23Z" style="fill:#400119;"/><path d="M433.23,314.21c15.15,1.74,28.09,1.13,43.79,6.19,6.55,2.11,13.69-.44,11.37,10.71-12,3.34-21.63,8-33.95,4.23,1.77-13.27-11.25-8-21.22-8.45v-12.68Z" style="fill:#f358a8;"/><path d="M636.9,288.85c3.22,4.51,11.14,2.93,8.55,14.38-.25,1.11-15.39,14.18-17.04,15.21-5.87-3.92-11.32-8.45-16.97-12.68l8.47-12.66,4.22,8.41,12.77-12.66Z" style="fill:#d7137e;"/><path d="M695.92,284.96c1.42,1.1,14.18,31.98,13.12,33.43l-55.14,21.2c.93-11.92-2.94-34.13,3.84-43.82,2.83-4.05,36.62-12.02,38.18-10.81Z" style="fill:#400119;"/><path d="M157.42,238.13c7.5,1.04,35.98,3.82,37.55,4.87,3.31,2.23,4.93,20.86,12.25,24.73,9.83,5.2,34.79,4.91,47.79,8.43l12.73,12.68c-23.12,5.4-6.86,21-23.29,25.35-11.09-12.26-27.76-19.48-40.36-29.57-5.01-4.01-28.73-23.5-29.7-25.36-4.08-7.86,6.39-11.41-16.95-4.24l-.03-16.89Z" style="fill:#cb2a7c;"/><path d="M204.1,132.46c-.93.24-5.08,6.02-11.27,7.66-16.24,4.32-20.04-7.38-26.91,13.47-27.81,2.14-49.66.61-72.13-16.91-1.16-2.97-2.14-2.88-4.24-4.23-.55-2.51.82-6.84,0-8.45,38.55-1.67,76.71,1.68,114.57,8.45Z" style="fill:#a30855;"/><path d="M114.99,162.05v4.23h-12.73c3.99-5.11,4.43-5.04,12.73-4.23Z" style="fill:#e7278e;"/><path d="M165.91,153.6c-.7,2.12,1.05,6.7-.19,8.32-.77,1-19.93-3.09-25.26.17-.86.71,4.28,8.46,4.24,12.64-5.11-.83-12.58,1.2-16.97,0l4.24-8.42c-2.8-.2-5.67.13-8.48-.04-1.41-.08-2.83.04-4.24,0-1.25-1.53-2.56-3.15-4.24-4.23-4.44-2.85-17.75-10.11-19.91-13.95-2.73-4.85-.51-9.36-1.31-11.41,22.48,17.52,44.33,19.05,72.13,16.91Z" style="fill:#e7278e;"/><path d="M322.91,288.85c16.57,5.03,13.8,4.46,26.35,9.78,13.16,5.58,24.1-3.44,20.34,15.56l-33.96.02c-2.66-.35-5.73,0-8.49,0,.46-3.31-4.01-7.09-4.24-8.45-.88-5.08.6-11.51,0-16.91Z" style="fill:#e7278e;"/><path d="M161.66,208.54c2.53.17,2.54-9.07,9.76-8.02,13.76,2.01,16.95,13.97,6.25,22.07-2.97,2.25-14.46,11.28-16.01,2.85,1.23-1.2-3.89-10.71-3.41-14.4l3.41-2.51Z" style="fill:#b11063;"/><path d="M318.66,305.76v4.23l-50.92-21.13-12.73-12.68c20.91,5.66,49.81,12.79,63.65,29.59Z" style="fill:#e7278e;"/><path d="M327.15,314.21h-8.49c-.5-1.03.35-2.85,0-4.23v-4.23h4.24c.24,1.36,4.71,5.14,4.24,8.45Z" style="fill:#f1439e;"/><path d="M416.25,343.8h4.24c1.5.26,3.23-.43,4.24,0l8.49,33.81c-9.89-.16-19.82.23-29.7,0-7.07-.16-14.2-4.18-16.97-4.23l5.07-31.01,3.42-2.81c9.67,4.3,12.79,2.81,21.22,4.23Z" style="fill:#400119;"/><path d="M284.72,343.8c5.8-48.75,49.83-20.39,42.43,16.91-14.46-6-27.44-8.39-42.43-16.91Z" style="fill:#400119;"/><path d="M255.01,335.35c-.33-3.26-1.67-11.94,2.1-12.65,10.2,2.47,11.6,12.86,16.78,17.12,4.37,3.59,8.59,2.71,10.83,3.99,14.99,8.52,27.97,10.9,42.43,16.91.89.37,3.1,7.26,8.49,8.45v4.23c-10.16.8-20.16-1.07-29.7-4.23-8.16-2.7-31.06-12.7-38.19-16.91-2.16-1.27-6.76-6.18-8.49-8.45l-4.24-4.23c-.34-1.13.15-2.75,0-4.23Z" style="fill:#d7137e;"/><path d="M395.04,339.57l-3.42,2.81-5.07,31.01c-1.23-.02-11.09,4.57-21.22,4.23,1.69-21.78,28.8-20.94,8.49-46.46,13.29-5.33,18.72,7.31,21.21,8.42Z" style="fill:#b11063;"/><path d="M335.63,369.16c12.59,2.8,21.48,8.17,29.7,8.45,10.13.35,19.98-4.25,21.22-4.23,2.77.05,9.91,4.06,16.97,4.23v12.68c-12.58-7.63-61.68-.88-67.89-8.45-.81-.99.54-6.06,0-8.45v-4.23Z" style="fill:#cb2a7c;"/><path d="M327.15,314.21c2.75,0,5.83-.35,8.49,0,12.75,1.66,25.47,2.41,21.22,16.91-3.27,3.22-14.12,18.81-16.92,16.9.58-15.17-17.54-26.1-21.27-33.81h8.49Z" style="fill:#d7137e;"/><path d="M174.39,259.26c.97,1.86,24.69,21.35,29.7,25.36,3.32,5.71,10.68,11.92-2.18,12.71-14.74.9-8.62-4.9-14.81-10.53-4.04-3.67-37.61-25.49-12.71-27.54Z" style="fill:#d7137e;"/><path d="M450.2,356.48c1.63,7.8-5.73,15.86,6.34,16.95,9.33.84,16.65,2.2,14.93-8.46h4.14c-3.31,15.55,15.09,2.66,17,12.6-13.8.15-32.65,17.2-36.01.05-4.03,5.78-8.72,6.7-14.88,8.45-.96-2.13-4.76-7.3-4.24-8.45,1.91-4.25,11.49-5.27,4.24-21.13,1.43.54,8.28.37,8.49,0Z" style="fill:#a30855;"/><path d="M441.71,356.48c7.25,15.87-2.33,16.89-4.24,21.13h-4.24l-8.49-33.81c10.98,4.69,13.72,11.47,16.97,12.68Z" style="fill:#750838;"/><path d="M420.5,343.8h-4.24c.21.04.33-.67,4.24,0Z" style="fill:#750838;"/><path d="M123.48,166.28c2.81.17,5.67-.16,8.48.04l-4.24,8.42c-4.87-1.33-4.66-4.25-4.24-8.45Z" style="fill:#cb2a7c;"/><path d="M64.07,183.18c16.1-30.79,20.53-6.61,12.73,16.91-3.68-4.95-9.01-12.16-12.73-16.91Z" style="fill:#b3306e;"/><path d="M433.23,377.61h4.24c-.52,1.15,3.28,6.32,4.24,8.45-13.38,3.79-23.59,5.95-38.19,4.23v-12.68c9.88.23,19.82-.16,29.7,0Z" style="fill:#e7278e;"/><path d="M560.52,369.16c-10.98,3.72-47.19,13.65-56.87,11.91-2.71-.49-6.86-4.42-6.78-7.65,6.91,3,14.14-3.92,16.97-4.26,14.53-1.78,31.71,1.25,46.67,0Z" style="fill:#f66db4;"/><path d="M475.66,398.75v4.23c-6.67.88-18.44,8.37-29.7,4.19,4.28-12.82,19.74-7.09,29.7-8.42Z" style="fill:#d7137e;"/><path d="M259.26,343.8c-.95-1.25-3.63-2.2-4.24-4.23l4.24,4.23Z" style="fill:#be2271;"/><path d="M64.07,98.65c4.29,3.96,12.11,5.69,15.61,9.84.59.7,9.42,14.67,9.85,15.52.82,1.61-.55,5.94,0,8.45-2.11-1.35-8.44-1.82-12.73-4.23-1.12-.63-2.95-2.93-4.24-4.23-1.41-1.41-2.71-2.94-4.24-4.23-1.66-2.55-2.59-6.48-4.24-8.45-.2-4.2.3-8.49,0-12.68Z" style="fill:#f358a8;"/><path d="M280.45,107.14c2.88,1.47-2.48,7.19-8.45,4.15-2.88-1.47,2.48-7.19,8.45-4.15Z" style="fill:#e7278e;"/><path d="M259.26,107.1c-3.18,14.73,7.95,3.05,8.45,4.2,4.95,11.2-14.52,9.58-16.94,21.08,12.73-1.42,22.25,30.69,16.93,38.1l-12.74-6.26c2.57,9.55,1.95,15.26,12.68,12.49-6.83,25.24,1.05,43.41,12.08,64.28,2.95,5.58,13.36,28.96,14.6,30.08,3.38,3.07,14.89-3.3,11.61,9.32-6.79-2.51-13.57-2.69-20.9-6.62-2.61-1.4-28.39-19.92-29.56-21.31-17.05-20.2-2.36-34.31-4.57-50.02-2.04-14.52-19.28-11.63,4.11-27.68-5.35.89-9.99-4.58-14.49-4.56-.94,0-7.21,16.54-15.21,8.71-.86-.84,1.12-23.21,8.46-16.92,2.14-7.51-9.89-1.87-8.43-6.27,3.83-11.62,21.19,7.4,17.01-12.7-11.69-.79-11.15-9.57-21.27-10.57,9.76-6.21,20.34-15.28,29.7-21.13,2.65-1.66,5.83-2.58,8.49-4.23Z" style="fill:#e7278e;"/><polygon points="53.43 149.45 59.75 155.75 57.75 157.75 51.42 151.45 53.43 149.45" style="fill:#be2271;"/><path d="M72.56,124.01c-1.57-1.22-3.15-2.55-4.24-4.23,1.54,1.29,2.83,2.82,4.24,4.23Z" style="fill:#cb2a7c;"/></g></svg>