<?xml version="1.0" encoding="UTF-8"?><svg id="Capa_2" xmlns="http://www.w3.org/2000/svg" viewBox="0 0 237.25 622.02"><g id="Layer_1"><path d="M225.15,71.12c-5.61,14.6-1.05,38.2,0,54.67.58,9.08-5.08,18.99,9.51,16.36,5.6,79.98,3.37,149.67-19.01,227.29-1.94,6.74-8.56,13.27-4.75,23.68-11.45-15.5-11.36-50.14-14.26-71.03-2.2-15.84-1.29-29.29-4.75-47.35,7.99-5.16,4.63-19.47,4.75-28.41.29-19.95,8.11-58.25-14.26-61.56-2.9-.43-6.44,0-9.51,0,.65-16.86-7.77-28.21-23.77-33.15-.23-1.62.36-3.37,0-4.74,27.03-5.41.79-8.41,0-9.47-1.18-1.59.49-18.21,0-23.68-.41-4.6.76-10,0-14.21-3.05-16.85-21.11-16.15-18.99-25.97,2.38-11,33.9-6.5,42.74-7.21l-4.74-61.52c13.71-.83,29.55-9.07,38.34,2.04,4.59,5.8,16,52.64,18.7,64.25ZM196.6,71.15c-38.95-.96-24.68,18.4-24.63,40.22.02,7.44-5,14.86-3.96,23.35.84,6.84,18.36,42.53,28.65,28.7-8.85-33.41-16.52-59.34-.06-92.27Z" style="fill:#2d2b33;"/><path d="M68.28,4.83c6.19,18.48-12.61,43.77-9.65,58.43.68,3.36,8.8,2.71,9.61,6.32,1.64,7.28-2.54,20.24,1,24.55,1.72,2.09,7.53-.02,8.55.68.52.35-.29,3.08,0,4.74,1.21,6.93-.62,16.11,0,23.68-15.52-3.97-8.51,15.03-9.51,28.41-.12,1.55-5.59,4.49-4.07,15.08,1.39,9.7,18,30.92,13.57,36.96-4.16,5.67-29.43-4.42-33.27,28.46-1.55,13.29-.74,33.49,0,47.35.44,8.31,15.37,94.92,7.08,94.75-10.26-.21-12.38-11.3-14.45-18.75-8.74-31.38-11.42-71.78-16.42-104.43-18.1-3.2-5.76,13.76-6.25,22.37-.22,3.85-3.24,5.71-3.23,6.06C-13.87,191.8,8.42,99.75,26.39,12.83,31.24-.12,56.32,5.16,68.28,4.83Z" style="fill:#1b1b21;"/><path d="M144.34,142.15c.92,1.85,4.46,3.63,4.75,4.74.36,1.37-.23,3.12,0,4.74,1.58,11.35-.75,17.09,7.25,28.27,11.09,15.51,14.43,4.87,16.52,4.87,3.07,0,6.61-.43,9.51,0-.01,6.31.02,12.63,0,18.94-13.66-.76-23.13,25.53-24.03,35.52l9.77,130.22c-.36,4.69.23,9.5,0,14.21-30.55,9.02-6.06,65.44-4.83,87.68,2.57,46.52-4.34,93.68,4.83,139.61h-4.75c-17.34-25.79-7.31-109.74-9.31-144.62-1.61-28.01-7.27-58.54-9.71-87.4,7.36-4.69,5.58-18.57,5.02-26.18-1.54-20.83-7.83-44.58-9.77-63.79-1.68-16.68,7.73-55.98-9.51-52.09-.21-10.81-.74-22.42,0-33.15.07-1.03,6.11-4.86,5.22-11.11-.77-5.45-9.37-2.45-9.97-3.1-1.26-1.35,2.56-12.84-9.51-9.47.03-.75-4.6-6.03-4.75-14.21-.03-1.57-.07-3.17,0-4.74,20.68,4.93,10.66-9.74,17.13-14.74,3.16-2.44,11.53-2.55,16.15-4.2Z" style="fill:#16161c;"/><path d="M11.24,279.47c0-.34,3.01-2.21,3.23-6.06.5-8.62-11.85-25.58,6.25-22.37,5,32.65,7.68,73.05,16.42,104.43,2.07,7.44,4.19,18.54,14.45,18.75,8.28.17-6.64-86.44-7.08-94.75,19.62-4.03-.61,22.98,19.01,18.94-.1,3.14-.03,6.32,0,9.47.03,3.14-.19,6.34,0,9.47.67,11.3,2.43,27.01,4.75,37.88.49,2.29-.74,5.04.04,7.04.96,2.35,2.44,2.62,4.71,2.43-7.41,22.79-4.68,47.34-4.75,71.03-1.85,12.57-27.02,41.62-28.52,47.35h-14.26c12.46-88.38-12.14-127.55-14.26-203.61Z" style="fill:#212128;"/><path d="M196.63,322.09c2.9,20.89,2.81,55.53,14.26,71.03,1.32,1.79,3.14,3.22,4.75,4.74v18.94c-38.14.23-11.16,55.64-9.31,73.3,2.65,25.31-21.33,63.96,18.82,59.29.15,6.3-.01,12.63,0,18.94-19.19-6.83-4.69,37.94-9.51,42.62l-23.79.02c-4.22-15.15,5.31-32.63,5.02-45.39-.15-6.67-4.95-10.72-5-11.45-.95-15.8-1.78-31.83-4.75-47.35-1.92-10.03.04-26.59-14.26-23.68.02-10,3.9-21.7,4.75-33.15.78-10.51,6.63-37.33-9.51-33.15-.24-4.69-.04-9.5,0-14.21,24.98-5.5,18.41-46.1,19-64.16.3-9.11-4.8-18.99,9.52-16.34Z" style="fill:#26262d;"/><path d="M153.84,4.83c4.47.41,9.74.27,14.26,0l4.74,61.52c-8.84.7-40.37-3.8-42.74,7.21-2.12,9.83,15.94,9.12,18.99,25.97-15.63-.81-20.46,4.85-23.77,18.94-.35,1.49.29,3.21,0,4.74h-14.26c-5.41-21.53-8.98-26.29-33.28-23.68-.29-1.65.52-4.38,0-4.74-2.9-13.1,6.33-7.72,9.51-9.47,14.35-4.07,20.73,8.39,33.25,9.44.05-4.7.07-9.45.03-14.18-.35-33.47-18.12-22.86-26.04-37.97-4.84-9.25-4.42-26.93-7.24-37.79,4.73.2,9.54-.28,14.26,0,9.39.56,41.69,16.19,38.03-4.74,1.5-.16,3.23-.08,4.75,0,1.31,4.65,5.48,4.37,9.51,4.74Z" style="fill:#26262d;"/><path d="M96.8,431c-4.63,47.46-7.3,101.61-14.26,146.79-26.14,4.52-15.76-6.46-24.34-20.91-2.74-4.62-7.69-5.84-8.94-7.5-6.76-9.01-7.8-.14-9.51-18.94l32.69-36.48c-9.46-22.2-4.24-37.15-4.17-58.22.07-23.69-2.66-48.24,4.75-71.03,2.4-.2,5.71-5.45,9.46-4.73,10.25,16.74-21.53,75.36,14.31,71.02Z" style="fill:#292930;"/><path d="M39.76,483.08c-1.95,7.42-.88,37.66,0,47.35,1.71,18.8,2.75,9.93,9.51,18.94,6.68,25.42.97,45.69,0,71.03-23.46,2.54-29.6,5.76-32.68-21.83-5.1-45.58,3.11-74.32,8.92-115.49h14.26Z" style="fill:#1f1e24;"/><path d="M106.31,293.68c-2.63,48.06-4.81,89.16-9.51,137.32-35.84,4.34-4.05-54.28-14.31-71.02-3.75-.72-7.06,4.53-9.46,4.73-2.28.19-3.75-.09-4.71-2.43-.78-2,.45-4.75-.04-7.04,29.72,1.66,27.82-42.9-4.75-37.88-.19-3.13.03-6.33,0-9.47,14.27,2.93,8.94-6.82,9.54-18.94,27.66,10.12,15.42.02,18.98-4.73,1.28-1.71,7.13-2.93,9.51-4.74.18,5.19-1.43,11.92,4.75,14.21Z" style="fill:#29272f;"/><path d="M87.29,4.83c2.81,10.86,2.39,28.54,7.24,37.79,7.92,15.12,25.69,4.5,26.04,37.97-21.75-10.56-21.68-1.66-33.28,4.74-3.18,1.75-12.41-3.63-9.51,9.47-1.03-.7-6.84,1.41-8.55-.68-3.54-4.31.64-17.27-1-24.55-.81-3.61-8.93-2.95-9.61-6.32-2.95-14.66,15.84-39.95,9.65-58.43,6.28-.17,12.74-.26,19.01,0Z" style="fill:#212128;"/><path d="M77.79,151.62c-2.05,28.39,12.59,26.25,33.28,14.21.16,8.17,4.78,13.46,4.75,14.21-.12,3.15.18,6.33,0,9.47-.78,13.36-8.87,43.34-9.51,56.82h-4.75c-1.5-20.22-12.71-41.29-37.03-29.68-9.31,4.45-8.12,17.58-20.02,15.48,3.84-32.88,29.11-22.79,33.27-28.46,4.43-6.03-12.18-27.26-13.57-36.96-1.52-10.59,3.96-13.53,4.07-15.08h9.51Z" style="fill:#212128;"/><path d="M215.64,416.79c0,9.41-.52,19.04,0,28.41-7.74,2.63-6.63,14.85,0,18.94,1.59,25.62,8.83,56.7,9.51,85.23-40.15,4.67-16.17-33.98-18.82-59.29-1.85-17.66-28.83-73.07,9.31-73.3Z" style="fill:#2d2b33;"/><path d="M49.26,549.38c1.24,1.66,6.2,2.88,8.94,7.5,8.58,14.45-1.8,25.43,24.34,20.91-5.48,35.58,5.91,38.38-33.28,42.62.97-25.34,6.68-45.6,0-71.03Z" style="fill:#25252b;"/><path d="M191.87,554.11c.04.74,4.85,4.79,5,11.45.29,12.76-9.24,30.24-5.02,45.39l23.79-.02c4.82-4.68-9.68-49.45,9.51-42.62.02,10.83,2.27,31.11.09,39.5-1.37,5.24-9.01,2.53-9.59,3.12-1.24,1.25,4.27,8.39-6.78,9.86-15.21,2.02-36.83,3.04-45.5-9.86h4.75l14.26-.02c-1.41-19.72-11.66-42.95,9.51-56.8Z" style="fill:#29272f;"/><path d="M144.34,378.91c-2.41-28.64-7.42-59.95-9.51-89.97h4.75c1.94,19.21,8.24,42.96,9.77,63.79.56,7.61,2.34,21.49-5.02,26.18Z" style="fill:#0e0d10;"/><path d="M234.65,142.15c-14.59,2.63-8.93-7.28-9.51-16.36-1.04-16.47-5.61-40.07,0-54.67,6.98,30.02,7.38,40.61,9.51,71.03Z" style="fill:#212128;"/><path d="M130.08,236.85c17.23-3.9,7.82,35.41,9.51,52.09h-4.75c-1.24-17.73-4.38-32.73-4.75-52.09Z" style="fill:#08080b;"/><path d="M106.31,293.68c-6.18-2.28-4.57-9.01-4.75-14.21-.38-10.97.81-22.23,0-33.15h4.75c-.74,15.68.86,31.69,0,47.35Z" style="fill:#08080b;"/><path d="M139.58.09c3.66,20.92-28.64,5.3-38.03,4.74,13.45,2.94,26.03-3.43,38.03-4.74Z" style="fill:#1b1b21;"/><path d="M115.81,180.03c12.07-3.37,8.25,8.12,9.51,9.47.61.65,9.2-2.35,9.97,3.1.89,6.25-5.15,10.08-5.22,11.11-5.74-2.74-3.9-13.2-4.75-14.21-.67-.79-6.88.52-9.51,0,.18-3.14-.12-6.32,0-9.47Z" style="fill:#08080b;"/><path d="M215.64,397.85c-1.62-1.51-3.43-2.95-4.75-4.74-3.8-10.41,2.81-16.94,4.75-23.68v28.41Z" style="fill:#08080b;"/><path d="M215.64,464.14c-6.63-4.09-7.74-16.31,0-18.94.35,6.28-.39,12.67,0,18.94Z" style="fill:#08080b;"/><path d="M153.84,4.83c-4.03-.37-8.2-.09-9.51-4.74,4.13.22,8.01.19,9.51,4.74Z" style="fill:#1b1b21;"/><path d="M196.63,246.32c-19.67-2.97-6.64,18.58-4.75,28.41,3.47,18.07,2.55,31.51,4.75,47.35-14.33-2.65-9.23,7.24-9.52,16.34-.59,18.06,5.99,58.65-19,64.16.06-6.29-.31-12.67,0-18.94.23-4.71-.36-9.52,0-14.21,4.12-53.71,14.07-110.55,14.26-165.73.02-6.31-.01-12.63,0-18.94,22.37,3.31,14.55,41.61,14.26,61.56Z" style="fill:#222128;"/><path d="M196.6,71.15c-16.46,32.93-8.78,58.86.06,92.27-10.3,13.83-27.81-21.86-28.65-28.7-1.04-8.49,3.98-15.91,3.96-23.35-.06-21.83-14.32-41.18,24.63-40.22Z" style="fill:#323037;"/><path d="M149.09,113.74c.49,5.47-1.18,22.09,0,23.68-1.82,1.02-3.43,4.26-4.75,4.74-4.62,1.65-12.98,1.75-16.15,4.2-6.47,5,3.55,19.67-17.13,14.74.21-4.67,2.88-21.45,4.75-23.68,3.47-4.13,4.98,9.19,9.51-14.21.29-1.52-.35-3.25,0-4.74l23.77-4.74Z" style="fill:#212128;"/><path d="M172.86,184.77c-2.09,0-5.43,10.64-16.52-4.87-8-11.18-5.67-16.92-7.25-28.27,16,4.93,24.42,16.28,23.77,33.15Z" style="fill:#1e1e25;"/><path d="M149.09,99.53c.76,4.2-.41,9.61,0,14.21l-23.77,4.74c3.3-14.09,8.13-19.75,23.77-18.94Z" style="fill:#25252b;"/><path d="M196.63,246.32c-.13,8.94,3.23,23.25-4.75,28.41-1.89-9.83-14.91-31.38,4.75-28.41Z" style="fill:#26262d;"/><path d="M149.09,137.42c.79,1.06,27.03,4.06,0,9.47-.29-1.11-3.83-2.89-4.75-4.74,1.32-.47,2.94-3.72,4.75-4.74Z" style="fill:#25252b;"/><path d="M44.51,232.12c11.9,2.1,10.7-11.03,20.02-15.48,24.31-11.61,35.53,9.46,37.03,29.68.81,10.91-.38,22.18,0,33.15-2.38,1.8-8.22,3.02-9.51,4.74,7.16-51.16-19.54-72.63-28.01-11.17-1.17,8.51-.25,16.9-.51,25.37-19.62,4.03.61-22.98-19.01-18.94-.74-13.86-1.55-34.06,0-47.35Z" style="fill:#292930;"/><path d="M111.06,123.21c1.12,4.47-2.06,11.71,4.75,14.21-1.87,2.23-4.54,19.01-4.75,23.68-.07,1.56-.03,3.17,0,4.74-20.68,12.04-35.32,14.18-33.28-14.21.24-3.36,5.25-9.12,5.06-16.71-.17-6.73-4.99-10.81-5.06-11.7-.62-7.57,1.21-16.74,0-23.68,24.29-2.62,27.87,2.15,33.28,23.68Z" style="fill:#2b2a31;"/><path d="M77.79,123.21c.07.89,4.89,4.97,5.06,11.7.19,7.6-4.82,13.36-5.06,16.71h-9.51c.99-13.38-6.01-32.38,9.51-28.41Z" style="fill:#26262d;"/><path d="M168.1,383.65c-.31,6.27.06,12.65,0,18.94-.04,4.71-.24,9.51,0,14.21.6,11.87-4.45,28.32,9.51,33.15-.85,11.44-4.73,23.14-4.75,33.15-.02,9.69,1.7,27.03,14.26,23.68,2.98,15.52,3.8,31.55,4.75,47.35-21.17,13.85-10.92,37.08-9.51,56.8l-14.26.02c-9.17-45.93-2.26-93.1-4.83-139.61-1.23-22.24-25.72-78.66,4.83-87.68Z" style="fill:#1e1e25;"/><path d="M182.36,203.71c-.19,55.18-10.14,112.02-14.26,165.73l-9.77-130.22c.9-9.98,10.37-36.28,24.03-35.52Z" style="fill:#1e1e25;"/><path d="M68.28,435.73c-.07,21.07-5.29,36.02,4.17,58.22l-32.69,36.48c-.88-9.69-1.95-39.93,0-47.35,1.51-5.73,26.68-34.79,28.52-47.35Z" style="fill:#25252b;"/><path d="M92.05,284.21c-3.57,4.75,8.68,14.85-18.98,4.73-.6,12.13,4.73,21.87-9.54,18.94-.03-3.15-.1-6.33,0-9.47.26-8.47-.66-16.86.51-25.37,8.47-61.47,35.17-40,28.01,11.17Z" style="fill:#2d2b33;"/><path d="M63.53,317.35c32.57-5.02,34.48,39.54,4.75,37.88-2.33-10.87-4.09-26.58-4.75-37.88Z" style="fill:#2d2b33;"/><path d="M168.1,416.79c16.14-4.18,10.29,22.64,9.51,33.15-13.96-4.83-8.91-21.28-9.51-33.15Z" style="fill:#222128;"/><path d="M172.86,483.08c14.3-2.91,12.34,13.64,14.26,23.68-12.56,3.36-14.28-13.99-14.26-23.68Z" style="fill:#222128;"/><path d="M120.57,80.59c.05,4.73.02,9.48-.03,14.18-12.52-1.05-18.9-13.51-33.25-9.44,11.59-6.39,11.53-15.29,33.28-4.74Z" style="fill:#25252b;"/><path d="M125.32,123.21c-4.53,23.4-6.04,10.07-9.51,14.21-6.81-2.5-3.63-9.74-4.75-14.21h14.26Z" style="fill:#25252b;"/></g></svg>