<?xml version="1.0" encoding="UTF-8"?><svg id="Capa_2" xmlns="http://www.w3.org/2000/svg" viewBox="0 0 300.13 395"><g id="Layer_1"><path d="M172.25.07c-.04,4.8.04,9.61.02,14.42-.02,5.15-.34,10.48-.05,15.75.1,1.89.89,3.73.57,5.68-1.45-.17-2.89-.5-4.35-.54-1.13-.03-3.53-.25-4.36.26-1.21.75.65,2.44.8,2.42.83-.11,1.76-1.11,3.24-1.03,9.54.51,19.54,1.44,29.35,1.63,7.15.13,14.33-.15,21.48-.02-.72,1.78-4.25.5-5.35,1.16-2.52,1.53,1.39,9.88,1.01,10.24-.18.17-1.46-.16-1.63,0-.32.32.62,2.08.55,2.16-.18.23-5.95,1.4-3.96,2.71.22.15.89.02,1.49.56.43.39.59,1.31,1.06,1.67,1.31,1,3.33-.35,3.03,1.59-.16.05-.34.43-.54.54-1.68.99-.66.65-1.09,1.09-.17.18-.77.38-1.09.54s-.9-.32-1.09.28c-.36,1.14.45.69,1.09.81.54.1,2.16-.39,1.63.81-.07.16-2.04,2.63-2.19,2.72-.81.5-1.73.12-2.15.28l-.28-2.72c-2-.28-2.76,1.15-4.39,1.58-2.99.79-6.39.56-9.45.6l1.08,2.17c-.08,0-.45.6-1.61.35-2.03-.44-2.47-2.29-6.54-2.52-1.03-.3.25-1.92,0-2.17-.15-.15-3.41-.84-4.07-1.1l.26,3.27c-.72-.03-1.45,0-2.17,0,2.91-2.57-1.04-5.32-1.63-.54-.48-.08-3.69,1.15-4.89.54l1.62-2.17c-.13-.12-3.1,1.08-3.25-.54l2.16-1.09c-2.59-.53-2.6-2.41-5.43-1.09-.33.15-.83.09-1.09.54-.54-1.61-2.82-2.73-3.8-1.63-.87.98,1.01,1.09,1.09,1.44.16.67-.17,2.12,0,2.35.06.09,2.25-.08,1.08,1.08s-1.01-1.01-1.08-1.08-.76.04-1.09,0c.06-.53-.04-1.1,0-1.63h-2.72c-.44,2.48.86,1.43,2.72,1.63-.19,1.6-1.61,2.31-1.68,2.97-.13,1.25.73,3.94.59,4.1-.09.1-.77-.06-1.08,0-.22.57.53,1.01.54,1.08.2,1.6.45,3.28.54,4.89-1.7-.3-1.61,1.42,0,1.09.04.9-.02,1.81,0,2.72-1.54-.17-.84.14-.9,1.16-.07,1.29.09,7.28-.19,7.54-.21.2-2.89-.37-3.54.53-.25-2.98,2.15-1.3,2.44-4.09.13-1.3-1.83-.94-2.7-1.33,1.71-2.64,3.34-2.49,2.17-5.97-1.49.56-1.69,4.31-3.79,2.99.69-1.28,1.42-3.03,2.48-4.04.63-.6,3.25-1.29,2.4-2.21-1.33-1.43-3.44.03-4.08,1.61,1.05-3.11-2.05-1.33-2.49.28-.13.49-.46,4.62-.4,4.85.14.55,4.43,2.62-.64,2.48l1.03,8.99c-2.04,8.75-.16,19.24-.42,28.24-.03,1.03-1.14.54-1.21,1.59-.05.76.32,3.49.73,3.97s1.52.33,1.92.8c.44.51.31,2.27,1.2,2.87l-1.07-.28.54,3.26-2.71-.54c.13,2.73-.91,6.01,2.17,7.34l-1.63.27-.54,14.12c1.86-.93,1.67-2.68,1.08-4.34h3.26c.11.1-.32,2.54-.52,2.9-.43.78-2.12-.17-1.65,1.16.53,1.5,3.26,1.23,3.79,2.45l-.81,1.1c-1.27-.44-1.98-1.45-3.53-1.09,2.49,2.73-1.85,5.05,2.17,7.6-.21-2.51-1.42-4.13,2.18-3.8l1.09,2.18c-.02-1.86-.5-2.5,1.63-2.18-.29,2.8-.42,5.61-.56,8.42-.09,1.78.07,1.4,1.65,1.36,0,.36,0,.72,0,1.09-3.29-.31-.82,1.46-.54,2.46.09.3-.95.13-1.09.64-.31,1.13.11,3.65-1.36.7l-1.36,1.09c-.32-.75.73-3.09.54-3.25-.11-.09-.84.16-1.16-.06-.86-.57-.72-1.55-2.64-1.03l1.08,1.09-1.09,1.88,2.72,1.91c-3.13.08-2.92.98-2.72,3.81.93-.06,1.97.17,2.86-.03.49-.11,1.54-2.15,1.83-2.16,1.43-.01,3.06,1.39.73,1.91.06.39,1.67-.1,1.1,2.11-.03.13-2.97,1.41,0,1.15v78.76s1.08-1.36,1.08-1.36c0,13.57-.02,27.17,0,40.74-1.76-.34-.76,1.01-1.27,2.03-.09.19-.85.13-.84.38.07,2.31.93,5.87.91,8.18-.03,3.09-1.07,6.98-.43,10.04-3.05.69-3.16-3.65-6.52-2.98-.31,1.13.79.58,1.06,1.21,1.51,3.57-.63,2.71-.98,3.73-.24.72-.03,1.62-.07,2.38,3.04-.29,1.42-3.84,2.19-4.34.1-.06,1.55-.07,1.61,0,.45.44-.67,4.35,2.73,3.27l.07,42.31c.31.22.8-.03,1.01.05,1.74.7,2.76.65,4.66.58.94-.03,1.9-.58,2.13-.58h9.78l10.05-1.09c1.06.11,2.19-.07,3.26,0,.24-.96-1.63-.1-1.08-1.34.72-1.62,4.14-2.97,5.82-2.84.88.07,1.45.92,2.56.97,5.69.26,9.96-.96,15.26,2.12,1.85,1.07,2.11,2.9,4.04,3.29.01,1.05-1.71-.08-.54,1.62-1.68.66-1.41-1.19-2.43-1.14l-4.08,1.68,8.69.55c-.14,2.52-3.33,1.37-4.11,3.76-.22.68-.85,5.98-.82,6.81.23,5.98,9.16,4.79,13.37,4.65,6.79-.23,17.21-1.43,23.75-2.87,6.8-1.5,3.61-2.96,3.82-6.59.08-1.42,2.37-6,.03-6.79-.37-.13-3.77.12-2.37-1.15.29-.27,3.51-.34,3.27-2.18.88-.27.31.89.8,1.1,1.46.61,1.55-.58,1.36-1.64,1.07-.08,2.18.08,3.26,0,.4-.03.5-.54.54-.54.53-.05,1.11.07,1.63,0,.03,0,.12.06.54,0,.97-.13,1.82-.4,2.72-.54.65,1.09,2.55.16,3.26-.54,1.1-.14,1.99-.66,3.26-.54.07,0,.52.76,1.08.54.06-.31-.09-1.01,0-1.08.08-.07,1.8-.06,2.17,0s1.28,1.59,1.09-.54c.34-.05.76.07,1.09,0l2.17,1.08-12.71,2.15c-.1,1.68-2.09,1.68-1.13,2.75,2.9-.09,5.82.11,8.71.02,2.02-.06,4.74-1.44,6.49-.01,3.02,2.47.08,2.94-1.06,4.35-1.53,1.89-1.04,4.16-3.36,5.87-4.01,2.96-2.1-1.06-5.62-1-.22,1.6,2.37,2.45,2.59,3.59.6,3.15-1.82,2.08-3.31,2.39-.38.08-.4.88-.48.9-.74.18-3.48-.75-3.14,1.27-.35,0-.74.04-1.09,0-.62-.07-2.47-1.75-2.17.54-.87.04-1.86.06-2.72,0-.66-.05-3.08-1.79-2.72.54-1.58.17-3.4.69-4.89.54-.15-.01-1.85-1.75-1.63.54-12.37.77-24.79,2.35-37.19,2.74-11.22.35-22.8-.56-33.97-.02l-.81-.54-.28.54c-.53.04-1.11-.07-1.63,0l-1.62-3.8c-.15.71.23,2.96-.03,3.23-.24.24-5.09.7-5.94.56-.17-1.07,1.29-.28,1.63-.54.13-.1-.53-2.58,0-3.25.98.09,1.5-.42,2.17-.54.49-.09,1.19.18,1.76-.02.8-.29,3.07-3.23,2.05-4.32,1.81.05.39,1.57,3.26.54-1.19-2.44-.09-1.22.61-1.68.49-.32.5-.86.9-1.01.54-.2,1.56.11,1.75-.02.11-.07-.02-2.49-.1-2.6-.28-.4-1.53-.36-1.54-1.2,1.94,0,3.09,1.68,2.71-1.09-2.04,1.19-1.53-.55-1.93-.58-4.27-.38-2.74,4.66-2.96,4.92-.5.59-1.78-.92-1.94-1.6-.17-.75,1.06-1.3.85-2.19-1.21.69-1.84,2.23-2.71,3.26-1.26-.11-3.09-1.49-4.05-1.56-.59-.04-1.35.46-2.14.43-.86-.03-1.75-.66-2.69-.52-.41.06-.34,1.52-1.44,1.11.02-.5-.46-1.37,0-2.17h-1.62c.83,1.54.26,3.02-1.63,3.26.75-3.34-1.14-3.99-2.45-6.51-.84.84.69,3.17-1.35,2.71,1.14-5.24-2.14-3.8-2.7-4.36-.14-.14-.61-3.82-.6-4.02.03-.6,1.36.08,1.11-.84-2.71-.37-3.34,0-2.7,2.88.1.44.94.37,1.24,1.04.73,1.6,1.84,4.89,2.7,6.25.37.58,2.01.7,2.56,1.66.33.58,1.37,4.59,1.09,5.01l-1.62.26c2.03,2.79,5.82,5.62,3.8,9.52-1.44-.04-2.9.05-4.35,0,.48-1.62-2.05-1.73-1.63,0-5.24-.19-9.91,0-15.21-.54.22-1.54-.76-1.54-.54,0-.72-.06-1.46.04-2.17,0-.19-.68.43-1.18.54-1.63.22-.86.32-1.84.54-2.71-5.97-.64-11.98-1.33-17.92-2.18.21-2.14-.81-.57-1.09-.54-1.14.1-3.06-.36-4.35-.54.25-1.58-.4-.99-1.63-1.09-.71-.05-1.47.08-2.17,0,.31-1.44-.72-1.08-1.62-1.34-1.31-.37-3.22-.57-4.32-1.14-4.14-2.14-2.23-5.58-2.18-9.21.03-1.97-1.1-3.73-.18-5.56,1.03-2.06,5.31-2.03,6.67-3.92-2.96-.19-8.08.53-10.62-1.06-3.31-2.07-.11-8.86-.22-11.69-.07-1.89-1.41-4.88-1.62-7.16-.1-1.05-.61-5.54-.6-5.84.14-2.74,1-3.6.54-7.66-.18-1.6.43-1.44-1.62-1.35-.2-3.05-.86-5.57-4.35-5.98.52-3-3.86-1.92-5.89-2.53-3.59-1.08-1.58-2.62-1.67-4.8-.43-10.19-2.95-20.67-4.39-30.96-1.16-8.29-1.05-18.26-3.56-26.32-3.07-9.84-7.29-19.71-10.32-29.87-.58-1.95.42-4.85-2.97-3.52-.29,8.15-1.6,16.29-2.16,24.41-.47,6.84-.28,13.81-.53,20.62-.61,16.91-1.07,33.9-2.2,50.81-1.23-.35-6.08-.78-7.23-.44-1.33.4-1.87,2.17-2.02,3.41-.34,2.89-.39,14.06.27,16.59.83,3.2,4.54,3.83,7.35,3.79-.54.75-1.7.04-1.53,1.23.2,1.41.99,3.07,1.01,4.5.04,2.97-1.42,6.9-.56,10.02-.84-.15-1.64.21-2.7-.28-1.46-.68-5.58-5.51-6.55-7.04-4.57-7.19-5.11-16.03-7.31-24.19s-5.28-16.99-8.42-24.98l.54-.27c.47-2-.81-1.11-1.08-1.35-1.14-1.01-1.11-2.79-1.63-3.8.86-2.45,1.48-6.43-.51-8.45-.79-.8-2.24-.84-2.79-1.55s-.36-1.76-.8-2.46c-.41-.64-1.53-.8-2.01-1.79-.69-1.42-.16-2.99-.51-4.38-1.76-6.79-.76-9.99-.94-16.98-.04-1.5-.4-9.32-1.1-9.8-.75-.51-2.32,1.23-2.73-1.05-.6-10.25.8-21.36,0-31.51-.32-4.14-1.38-9.43-1.64-13.57-.47-7.57.05-15.83-1.12-23.33-.45-2.87-3.95-5.77-4.72-8.32-4.75-15.81-1.37-26.45-1.97-41.6-.39-9.78-2.69-14.84.75-24.81.39-1.14,1.52-2.3,1.56-3.5.03-.87-.51-2.04-.5-3.26.02-4.15-.06-8.25.47-12.38-.94-3.5-2.61-3.38-5.88-3.13-.02.54.02,1.09,0,1.63l-2.63-.35-.63-17.03c19.69-.86,40.46.41,60.29.54.21,2.47-1.67,13.92-2.97,15.23-1.63,1.64-7.75-.97-9.42,1.99-1.27,2.25-1.28,9.13-1.21,11.87,1.16,2.65-.53,8.62,1.89,10.06,2.17,1.3,8,.34,10.62-.04,3.93,20.6,3.16,41.63,4.61,62.47,1.19,1.35,3.08.81,4.6,1.38,3.59,1.35,8.06,8.91,9.56.81,1.14-6.15-.51-12.83-.32-18.79.37-11.16,2.58-23.26,3.28-34.21.15-2.42-.36-8.16.81-10.06.34-.55.85-.44,1.36-.52,3.38-.53,10.36,1.61,11.71-2.69.57-1.82.57-15.39.21-17.65-.19-1.18-1.64-3.3-2.68-3.56-.17-2.19.26-4.62-.03-6.76-.13-.95-.79-3.43-1.07-4.82-.03-.15-2.01-1.03-1.08-1.99.22-.23,5.8-.19,6.28.51.25.36.49,6.66.58,8.01.06.91-1.07,3.73,1.24,2.31,1.2-.74.63-11.59-.49-13.54h1.63c1.69.18,3.67-.05,5.43,0,.54.65,1.09.65,1.63,0,8.73.17,17.5-.03,26.23-.11l1.47-1.25c.19-.45-1.01.15-1.14-1.05-.21-1.94,1.59-8.65.92-9.57s-16.48-.54-19.08-.53c-4.25,0-10.46.82-14.37.57-.2-.01-1.74-.43-2.17-.54-.78-.21-1.56-.93-2.72-.54-.49-2.72,1.99-5.42,2.16-7.94s-1.57-8.18-.97-10.14c.49-1.64,5.33-2.78,6.97-3.1,2.04-.4,4.93-.35,7.06-.54l24.99,1.08c.74,4.55-1,2.58-2.7,4.09-1.88,1.66.56,1.11.94,1.44.58.5.78,4.73,2.03,4.24,1.76-.69,3.34-5.4,2.99-7.24-.03-.15-1.99-.99-1.08-1.99.12-.13,2.98.89,3.39,1.11.51.26.38.98.44,1.01,1.12.74,1.7-1.93,2.53-2.1,3.3-.69,6.77,1.52,9.92-1.39-3.22-.12-2.69-2.31-3.26-2.99-1.08-1.27-1.33,1.52-.54,2.17h-2.72c.64-3.52-.05-6.99-.02-10.61.01-1.37.58-2.58.57-4.05,1.66.45,1.64-1.88,0-1.63,0-1.45-.55-2.69-.57-4.05-.05-4.62.08-9.25.02-13.87,4.36-1.69,11.52-1.01,16.3-1.09ZM152.97,38.64v.54c.35-.18.35-.36,0-.54ZM167.52,39.53c-.29-.17.15-1.12-.69-.89-.78,1.42-.25,3.25-.54,4.5-.14.63-1.55.69-1.94,1.47-.28.57.24,1.38.09,1.79-.75,2.09-1.21,3.74-3.59,2.55-.22,1.26,1.09,1.62,1.65,2.44.5.71.46,1.83.52,1.91.96,1.11.91-.45,1.08-.82.27-.59.94-3.24,1.2-3.43.36-.26,2.8-.63,3.92-1.78.3-.31,1.55-2.5,1.39-2.67-.17-.19-1.41.79-1.62.54-.1-1.38.53-3.68,2.08-2.57.25.18-.26,1.17.63.94,1.61-4.17-1.34-2.29-4.19-3.99ZM158.67,39.19c-.76-.39-1.45.34-1.08.53.76.39,1.45-.34,1.08-.53ZM143.32,52.9c-3.43-1.8-3.97,6.81.68,1.49-.29,1.31-2.57,10.91-.81,10.87l.54-1.64.81,1.09c.93-2.44.08-5.34.06-7.82,0-.82.68-1.84.53-2.75-.08-.47-.93-.16-1.45-.49-.22-.14-.23-.68-.36-.75ZM163.02,54.94c-3.02-.79-1.37,2.66-1.85,3.28-.96,1.24-2.79-.91-1.41,4.32,2.04.37.47-1.22.84-2.2.21-.55,3.17-4.74,2.41-5.41ZM168.99,57.11h-1.62v1.08h1.62v-1.08ZM180.94,60.92c-.13-.15-3.64-1.21-3.8-1.09.66.69,1.26,3,1.93,3.23,1.47.5,2.42-1.48,1.87-2.14ZM159.76,66.34c1.33-1.61-.41-4.46-1.63-3.25-.25.25.05,5.86-.55,7.06.54.12,1.98-.16,2.18,0,.85.71-2.17,1.67-1.08,2.71,1.35,1.29,2.85-1.6,3.25-1.86.34-.22,1.87,1.04,1.08-2.11-.13-.5-1.14-.13-1.08-1.11.05-.76.67-1.65.55-2.53l1.08-.53-2.17-.55c.02,1.81.51,2.51-1.63,2.17ZM148.9,87.53c.65-2.86,2.48-3.49-1.63-3.8.28,1.6-.29,3.72-2.02,4.23s-2.92-.8-2.87,1.2c.03,1.16.53,2.28.57,3.51s-.25,7.52.04,7.84c.09.1,1.82.3,2.65.88,1.15.81,1.49,2.16,2.11,3.3.45.82.98,1.36,1.69.77.97-.81-1.05-.98-1.13-1.86-.32-3.26,1.31-3.32,1.55-4.44.31-1.45-1.22-3.48-1.33-4.38-.2-1.62,0-5.56.37-7.24ZM29.94,88.07c-1.07,3.68-.61,9.99-.54,14.12.03,1.73-.83,6.82,1.47,7.5,3.78,1.11,7.96.41,8.33-3.94.24-2.86.37-15.52-.43-17.54-1.05-2.63-5.66-3-7.94-2.24-1.16.39-.68,1.39-.89,2.1ZM140.21,86.98h-11.14c-1.34,0-3.16,2.83-3.4,4.2-.51,2.82-.39,15.12.7,17.51.23.51,2.35,2.18,2.7,2.18h9.51c-.22-1.96,1.32-3.32,1.43-5.24.1-1.78-.9-4.21-.89-5.89.01-2.31,1.31-6.3,1.34-8.68.02-1.28-.51-2.72-.26-4.09ZM160.27,166.87c-1.16-.73-2.32,2.48-2.14,3.21,1.82.6,3.89.64,3.24-1.78-.02-.09-1.02-1.39-1.1-1.44ZM163.02,169.01h-1.08v2.17h1.08v-2.17ZM161.84,183.75c-.09-.16-.96-.27-1.22-.64-.58-.8-.55-2.08-1.39-2.16-1.53,3.32-1.63,6.62,2.7,4.07-.02-.43.14-.86-.09-1.27ZM159.63,187.09c-.49-.27-.98-.16-1.49-.16.31,2.16.68,5.64,3.1,3.65,2.2-1.81-.38-2.07-1.1-2.56-.34-.23-.41-.88-.51-.93ZM163.56,192.36c.31-.28-.73-2.77-1.08-2.17l-.55,2.16c.44-.05,1.5.12,1.63,0ZM160.7,192.5c-.31-.33-1.77-.92-2.03-.68l.54,4.34c2.76,1.1,2.79-2.25,1.48-3.66ZM159.76,202.14c.52-.93,2.1-.07,2.19-2.5.03-.85-.64-.63-1.06-1.22-.38-.54.3-2.56-2.22-.35l1.08,1.35c-1.73-.48-2.27.75-1.38,2.21.34.56,1.1.35,1.38.51-.21.37-.63,3.6-.52,3.76.43.61,2.45.96,2.72-.79.02-.16-.94-2.62-1.07-2.71-.4-.29-.93-.15-1.13-.26ZM160.79,207.65c-.33-.29-1.52,0-2.12-.08.48,2.46-.12,5.08,2.99,3.27l-.28,2.7c4.66.27,1.14-2.17,1.15-2.43.02-.34.66-1.09.48-1.36-.06-.09-1.45-.17-1.86-.49-.55-.42-.2-1.45-.37-1.6ZM160.85,227.67c1.08-.06,2.18.04,3.26,0,.53-1.61-1.6-2.81-1.63-2.99-.23-1.21.98-.7,1.11-1.08.55-1.7-1.63-1.65-1.63-2.17,0-.23,1.75-3.25,1.65-4.29-.03-.3-.82-.3-.91-.5-.35-.78-.15-1.4-.79-2.24-.37-.49-3.33-2.97-3.76-2.48-.94,1.08,1.1,1.81,1.1,1.93.03,1.56-1.69,4.3-.57,5.95-1.47-.71-2.38.39-1.61,1.35,2.91-1.4,2.01,1.5-.56,1.92-.11,3.55,3.94,2.87,4.36,4.6-.61.03-2.75-.24-2.72.28.4,2.46,1.05,5.72,1.14,8.14.05,1.32-1.19,5.43-.02,6.22.17.12,2.69-1.58,2.14,2.2-.74-.09-1.46-2.69-2.71-1.62-1.18,1.02,1.59,1.05,1.08,1.62-.09.1-2.15,1.02-2.17,1.37,1.23,1.05,2.72,1.57,4.35,1.37l-.28,1.07c4-1.23.92-1.57.83-1.97-.74-3.36,1.38-3.11,1.48-3.67.11-.64-.41-2.98-1.47-2.5l1.14-1.33c-1.01-2.61.42-6.26-.61-8.59-.52-1.18-2.11-.29-2.17-.39-.19-.32.13-1.6,0-2.18ZM158.13,243.42h-1.63s0,1.08,0,1.08c.75.17,1.44-.29,1.63-1.08ZM161.01,249.77c-.46-.31-1.77-3.04-3.42-.93,1.68-.17,4.44,6.96,5.97,5.44.2-.2-.32-3.27-.67-3.67-.28-.33-1.26-.42-1.88-.84ZM160.29,253.21c-.13-.13-1.17.05-1.62-.02,0,1.5-.52,3.89,1.62,3.8l.54-1.08,1.09,1.08c.57-3.07-.99-1.76-1.53-2.26-.33-.31.02-1.39-.11-1.52ZM160.3,258.08h-2.17c.29,3.64.93,3.44,4.35,3.81l-.54,2.16c4.13.24.99-4.99-1.63-3.26v-2.72ZM165.19,272.21v-8.69h-.54v8.69h.54ZM165.19,280.9v-7.6c0-.08-1.06-.06-1.41-.53s1.29-3.75-1.84-.02c.3-1.91-.82-2.1-1.46-2.91-.36-.45.07-1.33-.44-1.44-2.38-.51-.48,2.1-1.35,3.81,1.69-1.14,3,1.07,3.26,2.71h.53c-.22-1.52.98-1.08,2.18-1.08-.02,1.36.43,3.31-1.08,3.8.65-2.71-2.34-1.6-3.15-2.29-.49-.42.05-2.7-2.29-2.05.52,1.93,3.47,6.59,5.64,5.99.61-.17-.02-1.33.87-1.1l.55,2.71ZM165.19,292.31v-10.32l-.81,1.63c-1.05-.44-.66-2.51-.84-2.68-.28-.26-2,.28-2.73-.27-.58-.43-.17-1.71-.87-1.95-.58-.2-2.66-.32-3.44-.26.43,1.01,2.61,1.26,2.73,1.36.14.12-.78,1.4-.56,1.62.08.08,1.35-.06,2.22.78,1.41,1.37.21,3.71,3.76,1.94.34,1.69-.36,3.51-.33,5.07,0,.53.12,3.09.88,3.08ZM160.38,285.71c-.3-.24,0-2.49-1.7-2.09v3.26c2.61-1.15,1,.04,1.99,1.12.35.38,2.56,1.41,2.9,1.05.53-4.58-2.33-2.65-3.18-3.33ZM160.3,289.06c-.12-.12-1.18.05-1.62,0-.52,1.45.87.95.99,1.15.17.29-.56.9-.35,1.45.03.08,1.18,1.19,1.27,1.21,1.44.31.26-1.24,1.35-1.09.08,5.18,3.4,1.64.6-.74-.82-.7-1.86-.12-2.19-.41-.26-.22.09-1.42-.05-1.56ZM165.19,295.56c.39-.76-.34-1.45-.53-1.08-.39.76.34,1.45.53,1.08ZM165.19,297.2l-.54,1.08-2.99-.55c-1.08,1.31.41.89,1.15,1.3.23.13.14.81.47.79s.97-.66,1.3-.41c.26.2-.34,1.28.59,1.04v-3.25ZM161.93,302.63c.17-.78,1.12-.4,1.09-.81-.14-1.74-1.81-1.15-2.28-1.4-.42-.22-2.69-2.9-2.33.02l-1.36-1.62c-.85,5.03,1.77,2.86,4.88,3.8-.2.89.44,2.64-.82,3.25s-.56-3.09-1.89-1.62c-.11.12-.48,2.7-.55,3.26l4.89-.55c-.92-.98-.28-3.93-.57-4.33-.12-.16-.78.07-1.06-.01ZM160.29,309.16c-.13-.13-.95.05-1.34-.02-1.09.98.28.94.76,1.54.41.52.25,2.02,2.22,1.72.55-2.46-1.04-1.22-1.54-1.72-.31-.31.03-1.39-.1-1.52ZM159.21,315.12c.39-.76-.34-1.45-.53-1.08-.39.76.34,1.45.53,1.08ZM160.84,315.67c-.12-.11-1.18.06-1.62,0v2.17s1.62-1.37,1.62-1.37c-.06-.29.09-.72,0-.8ZM139.66,323.81h-11.14c-.65,0-2.27,2.64-2.41,3.56-.47,2.95-.4,12.65-.04,15.73.18,1.55,2.33,4.61,3.54,4.61h9.23c2.29,0-.86-2.53-.86-2.96l1.67-20.94ZM161.39,337.92c.83-1.08-2.3-4.89-4.34-3.79-.43,1.52,1.82,1.85,2.06,2.28.36.65-.03,1.9.12,2.06.1.12,2.1-.47,2.17-.55ZM150.18,342.11c-.31-.67-.21-1.46-.5-1.96-1.17-2.05-4.61-2.7-6.76-3.3.18,1.06-.27,6.2.02,6.49.18.18,4.58,1.13,5.06,1.09.7-.05,2.35-.57,2.8-1.06,1.05-1.12-.53-1.06-.63-1.26ZM160.71,340.25c-.37-.43-2.32-.92-2.57-.68.14.76.37,4.51,1.34,4.34,1.76-.31,2.34-2.35,1.23-3.66ZM161.77,347.54c.7-.55,2.36-3.37,1.78-4.18-2,1.44-4.17,1.1-6.51,1.09-.11,1,1.97.83,2.16,1.1.35.48-.8,2.46-.53,2.69,1.08.05,2.2,0,3.1-.71ZM163.56,348.26c-1.24-.2-2.01,1.47-3.08,1.55-.88.07-1.44-1.19-1.8-1.01-.07.04-.94,1.14-.97,1.21-.35.78.34,1.54.32,2.31s-.45,1.48-.46,2.19c-.06,3.55,2.84.41,2.19-.29l-1.63-1.09c3.67,1.2,5.21-1.64,5.42-4.89ZM161.93,356.4c-1.62.31-3.86-.07-3.25,2.17.44.46,4.28-1.34,3.25-2.17ZM163.02,359.12c-1.09-.52-2.81.97-2.17,1.62.29.29,2.97-.6,2.17-1.62ZM159.76,360.2c-.11-.11-1.19.06-1.63,0,1.05,2.27.83,3.54.54,5.97h2.17c.36-.97-.97-1.44-.97-1.9s2.14-1.64,1.51-2.98l-1.62.55c-.09-.41.13-1.5,0-1.63ZM141.83,364.01l-7.06.27c1.49.84,7.12,2.54,7.06-.27Z" style="fill:#211317;"/><path d="M65.79,320.55c1.13-16.91,1.58-33.9,2.2-50.81.25-6.8.06-13.78.53-20.62.55-8.12,1.87-16.26,2.16-24.41,3.39-1.32,2.39,1.58,2.97,3.52,3.03,10.16,7.25,20.03,10.32,29.87,2.51,8.06,2.39,18.03,3.56,26.32,1.45,10.29,3.97,20.77,4.39,30.96.09,2.19-1.92,3.72,1.67,4.8,2.03.61,6.41-.47,5.89,2.53-2.35-.27-9.04-.56-10.22,1.46-1.29,2.23-1.05,18.64.72,20.8,1.13,1.37,9,1.43,10.84,1.09,1.79-.34,2.82-2.37,3.01-4.05.4-3.37.22-9.81-.01-13.32,2.04-.1,1.44-.25,1.62,1.35.45,4.06-.41,4.92-.54,7.66-.02.3.5,4.79.6,5.84.21,2.28,1.55,5.27,1.62,7.16.11,2.84-3.1,9.62.22,11.69,2.55,1.59,7.66.87,10.62,1.06-1.36,1.89-5.64,1.86-6.67,3.92-.92,1.83.22,3.6.18,5.56-.06,3.63-1.96,7.07,2.18,9.21,1.1.57,3.01.77,4.32,1.14.9.26,1.93-.1,1.62,1.34-6.06-.69-11.09-3.62-16.3-6.52-.03-.18.02-.36,0-.54-.6-4.83.44-9.28,1.09-14.12-1.11-.06-2.15-.46-3.26-.55-12.47-.95-25.74-1.04-38.02-3.26-.86-3.12.6-7.05.56-10.02-.02-1.44-.81-3.09-1.01-4.5-.17-1.19,1-.47,1.53-1.23,1.49-.02,3.88-.07,4.62-1.63.48-1.02.54-16.27.24-18.17-.27-1.74-1.56-3.08-3.23-3.56Z" style="fill:#423638;"/><path d="M77.74,70.69c8.32,0,16.67,0,24.99,0h3.26c1.13,1.95,1.7,12.79.49,13.54-2.31,1.42-1.18-1.39-1.24-2.31-.09-1.35-.33-7.65-.58-8.01-.48-.7-6.06-.74-6.28-.51-.93.96,1.05,1.84,1.08,1.99.27,1.39.94,3.87,1.07,4.82.28,2.14-.14,4.58.03,6.76-1.05-.27-8.19-.15-9.39.12-4.7,1.05-3.2,12.58-2.31,16.2.65,2.65,2.43,4.84,2.46,7.59-.52.08-1.02-.03-1.36.52-1.17,1.9-.66,7.64-.81,10.06-.7,10.95-2.91,23.04-3.28,34.21-.2,5.95,1.45,12.64.32,18.79-1.5,8.1-5.97.53-9.56-.81-1.51-.57-3.41-.03-4.6-1.38-1.45-20.84-.68-41.87-4.61-62.47-2.62.37-8.45,1.33-10.62.04-2.42-1.44-.73-7.41-1.89-10.06-.07-2.74-.06-9.62,1.21-11.87,1.67-2.95,7.79-.35,9.42-1.99,1.3-1.31,3.18-12.76,2.97-15.23,3.07.02,6.16,0,9.23,0ZM67.96,102.19v-12.76c0-.46-1.8-2.88-2.72-2.44v8.96c0,.58,1.34,6,1.64,6.24.1.09.74-.04,1.08,0Z" style="fill:#423638;"/><path d="M8.21,70.14l.63,17.03,2.63.35c-.08,2.71-.32,20.57.55,21.19l3.79-.55c-3.44,9.97-1.14,15.02-.75,24.81.6,15.15-2.78,25.78,1.97,41.6.76,2.55,4.27,5.45,4.72,8.32,1.17,7.49.65,15.76,1.12,23.33.26,4.14,1.31,9.43,1.64,13.57.79,10.14-.6,21.25,0,31.51.41,2.28,1.98.54,2.73,1.05.7.47,1.06,8.3,1.1,9.8.17,6.99-.82,10.19.94,16.98.36,1.38-.17,2.96.51,4.38.48.99,1.6,1.15,2.01,1.79.44.69.27,1.77.8,2.46s2.01.75,2.79,1.55c1.99,2.02,1.37,6,.51,8.45-6.69-12.98-13.27-25.53-20.96-37.98-1.53-2.47-8.47-11.76-8.37-13.63,1.64-33.21-.26-67.93-1.11-101.28-.37-14.51.5-29-1.57-43.44-.11-.43-2.21-.13-2.21-1.67v-9.51h1.09v9.23c1.4.53,1.64-2.27,1.63-2.99-.12-6.57-.03-13.48-.03-20.08,0-5.12-1.39-6.04,3.83-6.27Z" style="fill:#423638;"/><path d="M292.3,86.98c.47-.01,2.41,1.12,3.8,0,1.01,23.64.17,46.67-.02,70.32-.35,42.56.24,85.14.05,127.7-.09,20.3-2.12,43.45-.59,63.55.09,1.18.64,4.83,1.11,5.68-1.52,2.84-2.15,4.5-5.43,5.43-.81.23-1.86.29-2.71.55l-1.06-12.73c2.18-22.62,1.39-45.75,1.62-68.46.59-59.35-1.12-119.36.54-178.71.11-4.09.31-8.85-.57-12.79.18,0,.36,0,.54,0,.49-.01,1.55-.52,2.72-.54Z" style="fill:#f2b671;"/><path d="M187.46.07l-2.18,2.55c.1,11.13.08,22.24-.53,33.3-2.07.01-4.18-.08-6.25,0-.66.03-2.02-.41-1.89.54,5.15.13,10.34-.15,15.5-.02,1.29.03,2.47.56,3.76.59,19.96.41,39.8.26,59.78.51.92.01,2.42-.35,2.98.55-.08,0-.61.52-1.31.57-3.3.22-6.77-.21-10.09-.02l1.63,1.08c-.26.05-.94.97-1.37,1.09-.37.1-.12-.96-.62-1.09s-6.06-.48-7.04-.49c-1.08,0-2.08.52-3.18.52-3.05-.01-15.8-.48-17.57.63-.55.35-1.67,4.69-1.58,5.53.3,2.62,2.74,1.69,3.1,1.97.08.06-.43.87-.43,1.36,0,.55.47,1.29.43,1.35-.12.19-2.76.4-3.28.8-.89.69-.34,2.19-.53,2.47-.08.11-2.15-.71-2.7-.29,1.53.78.39,2.9.53,2.99.17.12,3.44.49,4.08.54,9.19.69,18.48.37,27.72.53,3.03.05,10.1,2.45,10.57-2.15-.55-.05-1.3.17-1.77-.02-2.98-1.16-7.19-2.49-10.8-3.44-1.66-.44-4.05.17-4.81-1.43,2.86.89,1.95-1.56,2.45-1.66,1.19-.23,2.5.57,3.68.46.45-.05,7.92-2.6,8.52-2.9,1.56-.77,1.24-3.1,2.71-1.89l.57-3.79c.07,0,.44-.54,1.28-.53,4.06.05.36,3.63.86,6.22.14.74,1.85-.28,1.66.83l-4.38.87c-.61,2.19,1.28,2.85,1.51,3.83.11.48-.48,1.27-.16,1.83.6,1.03,2.89.78,3.06,1.42.1.36.05,2.18-.1,2.35-.28.34-2.09-.62-1.56,1.12,2.11-.68,3.77-.02,5.68.03,3.31.09,26.46.37,27.46-.57-.19-3.55-2.64-3.92-2.19-7.89.28-2.43,1.73-2.7,2.07-3.9s-.12-2.52.12-3.61c.11-.5,1.23-.13,1.11-1.16-.22-1.85-2.38-1.29-2.2-3,.86.14,1.62-.2,2.69.28,2.72,1.22.67,5.12.55,7.57-.19,4.01.37,7.91.59,11.88-.19.76-2.86.23-3.29,3.88-.48,4.03-.61,11.06-.56,15.25.04,3.01,1.06,6.3.57,9.48-1.17.03-2.23.53-2.72.54l-1.08-27.71c-3.02-.45-5.99.07-8.99.03-2.82-.05-4.05-.2-7.06,0-1.15.08-2.66-1-3.25-.05-.61,1.29,0,2.77-.28,4.07-.16.73-.8,1.3-.89,1.82-1.22,6.86-.56,13.8-.71,20.75h-1.63c.79-1.79-1.09-2.33-1.1-2.49-.23-7.26.95-13.12-2.45-20.31-.35-.74-1.44-1.06-1.78-2.04-.23-.68,0-2.32-.11-2.32h-9.78c-.91,2.21,1.09,2.85,1.1,3.03.11,2.78-.42,4.67.64,8,.41,1.28,1.96,1.34,2.34,2.01.44.79.07,1.76.3,2.32.5,1.2,1.27.34,1.06,3.66-1.18.25-1.18-.62-1.62-1.34-.73-1.19-4.9-8.71-4.9-9.25v-8.42c-2.98-.13-6.01.16-8.98.02-6.53-.31-19.54-2.34-25.24-.57.3-1.94-1.73-.59-3.03-1.59-.47-.36-.63-1.28-1.06-1.67-.6-.54-1.26-.41-1.49-.56-1.99-1.32,3.78-2.48,3.96-2.71.07-.09-.87-1.85-.55-2.16.17-.16,1.45.16,1.63,0,.39-.36-3.52-8.71-1.01-10.24,1.1-.67,4.63.62,5.35-1.16-7.15-.13-14.33.15-21.48.02-9.81-.18-19.81-1.12-29.35-1.63-1.48-.08-2.4.92-3.24,1.03-.15.02-2.01-1.67-.8-2.42.83-.51,3.23-.29,4.36-.26-.3,1.64.83,1.05,1.88,1.09,1.72.06,3.46-.04,5.18,0,0-1.03-1.97-.45-2.71-.54.33-1.95-.46-3.79-.57-5.68-.29-5.28.03-10.61.05-15.75.02-4.8-.06-9.62-.02-14.42,5.06-.08,10.15.06,15.21,0Z" style="fill:#423638;"/><path d="M6.58,246.14c-2.17-.78-4.64-5.22-4.9-7.32-.1-54.53-.13-108.7-1.64-162.94-.13-4.77-.22-6.22,4.71-6.75,10.77-1.15,22.72-.85,33.63-1.13,9.56-.25,28.26-2.29,36.79.65.87.3,2.86.7,2.57,2.04-3.07,0-6.16.02-9.23,0-19.84-.13-40.6-1.41-60.29-.54-5.22.23-3.83,1.15-3.83,6.27,0,6.59-.09,13.5.03,20.08.01.71-.23,3.51-1.63,2.99v-9.23h-1.09v9.51c0,1.54,2.09,1.24,2.21,1.67,2.07,14.44,1.2,28.93,1.57,43.44.85,33.35,2.74,68.07,1.11,101.28Z" style="fill:#6d6a70;"/><path d="M203.76.07c.6,1.83,1.81,2.51,2.12,4.67.85,5.86.17,13.5.57,19.53.25,3.87,1.51,7.73,1.11,11.66-7.59.09-15.22-.04-22.81,0,.61-11.05.63-22.17.53-33.3l2.18-2.55c5.43-.06,11.02,0,16.3,0Z" style="fill:#211317;"/><path d="M283.06,37.01c-.28,2.88.7,1.2,1.63,1.09,2.17-.26,4.89.18,7.06.54-.18,1.71,1.98,1.15,2.2,3,.12,1.04-1,.67-1.11,1.16-.24,1.08.24,2.39-.12,3.61s-1.8,1.48-2.07,3.9c-.45,3.97,2,4.33,2.19,7.89-1,.94-24.14.66-27.46.57-1.91-.05-3.57-.7-5.68-.03-.52-1.74,1.28-.78,1.56-1.12.14-.17.19-1.99.1-2.35-.17-.63-2.46-.39-3.06-1.42-.33-.56.27-1.34.16-1.83-.23-.98-2.12-1.64-1.51-3.83l4.38-.87c.19-1.1-1.52-.08-1.66-.83-.5-2.59,3.2-6.17-.86-6.22-.84,0-1.21.53-1.28.53-.36.02-.72,0-1.09,0,.21-2.14-.78-.58-1.09-.54-2.07.24-4.4-1-6.52-.54l-1.63-1.08c3.32-.19,6.79.24,10.09.02.71-.05,1.23-.56,1.31-.57.54-.04,1.09.04,1.63,0l.34.46.75-.46c3.52-.24,7.52-.95,10.86-1.09,3.58-.14,7.28-.05,10.86,0Z" style="fill:#211317;"/><path d="M223.31.07c-.58,11.91,1.46,24.24-1.63,35.85,1.26.03,2.54-.03,3.8,0,4.14.1,11,.71,14.67,0,.5-.1,1.67.28,1.64-.28-1.61-10.83.24-22.25-.51-33.18-.08-1.1-.09-1.33-1.12-1.85.53.03,2.2-.46,3.26,0,.31.75-.55,1.63-.55,1.9v33.13c0,.59,1.33.78,1.87.84,7.05.83,17.02-.12,24.48-.04.92,0,2.42-.35,2.98.55-3.35.13-7.34.85-10.86,1.09-.07,0-.41-.05-1.09,0-.54.04-1.09-.04-1.63,0-.56-.9-2.06-.54-2.98-.55-19.98-.25-39.82-.1-59.78-.51-1.28-.03-2.47-.55-3.76-.59-5.16-.13-10.35.15-15.5.02-.13-.95,1.23-.51,1.89-.54,2.07-.08,4.18.01,6.25,0,7.59-.04,15.22.09,22.81,0,1.98-.02,3.99.02,5.97,0-.13-2.01-2.01-2.86-2.48-4.85-.28-1.18-.78-6.23-.78-7.37v-12.49c0-1.32.05-2.91.03-4.33-.04-2.43-.89-4.58-.03-6.8,4.32.01,8.65-.07,13.04,0ZM217.88,35.39h-3.25v.53h3.25v-.53Z" style="fill:#6d6a70;"/><path d="M232.55.07c-.84,1.61,4.43,1.8,3.8,0,.67.03,1.48.49,2.17.54,2.29,5.94,1.61,12.91,1.65,19.31.02,2.36-.04,4.62,0,7.02.05,2.99-.08,6-.02,8.98-3.66.71-10.52.1-14.67,0l1.62-33.84,1.64-2.01c1.26.04,2.54-.04,3.8,0Z" style="fill:#211317;"/><path d="M291.21,361.29c1.07-.08,2.18.05,3.26,0-1.08,4.49,1.28,13.23-.3,17.35-.69,1.79-3.23,2.43-3.5,4.37-5.63,1.7-12.59,3.75-18.47,3.8-.34-2.01,2.4-1.08,3.14-1.27.08-.02.1-.82.48-.9,1.49-.31,3.91.76,3.31-2.39-.22-1.15-2.8-1.99-2.59-3.59,3.51-.06,1.6,3.95,5.62,1,2.33-1.71,1.84-3.98,3.36-5.87,1.14-1.41,4.07-1.89,1.06-4.35-1.75-1.43-4.46-.05-6.49.01-2.9.09-5.81-.11-8.71-.02-.96-1.07,1.04-1.07,1.13-2.75l12.71-2.15-2.17-1.08c2.73-.57,5.35-1.97,8.15-2.17Z" style="fill:#423638;"/><path d="M296.1,86.98c-1.39,1.12-3.33-.01-3.8,0,.49-3.18-.53-6.47-.57-9.48-.05-4.18.08-11.22.56-15.25.43-3.65,3.1-3.12,3.29-3.88-.22-3.98-.78-7.87-.59-11.88.12-2.45,2.17-6.35-.55-7.57-1.07-.48-1.83-.14-2.69-.28-2.17-.36-4.89-.81-7.06-.54v-1.09c3.13.11,10.57.08,12.76,1.63.62.44,1.52,1.31,1.77,2.03.8,2.23,1.16,15.41.68,17.81-.35,1.75-1.88,1.06-2.47,1.88-.53.74-1.29,9.43-1.37,11.12-.23,4.83-.18,10.67.02,15.5Z" style="fill:#6d6a70;"/><path d="M169.54,393.88c2.02-3.9-1.76-6.72-3.8-9.52l1.62-.26c.28-.41-.76-4.42-1.09-5.01-.55-.96-2.19-1.08-2.56-1.66-.86-1.36-1.97-4.65-2.7-6.25-.31-.67-1.14-.6-1.24-1.04-.63-2.87,0-3.25,2.7-2.88.25.92-1.08.24-1.11.84-.01.2.45,3.88.6,4.02.55.56,3.84-.87,2.7,4.36,2.04.46.52-1.87,1.35-2.71,1.31,2.52,3.2,3.17,2.45,6.51,1.89-.23,2.46-1.71,1.63-3.26h1.62c-.46.81.02,1.67,0,2.17-.02.58-.45,1.24-.56,1.84,2.08,2.96,4.54,1.95,2.19-.76l-1.09,1.08c-.9-2.83,3.6-1.38,5.58-.95.67.15.87.93.93.95-.04.41.52.91.54,1.09.08.56-.28,2.19.28,2.18,1.06,0,1.57-.95,1.33-1.87l-.52-.3c2.04-.71.55.09,1.09.54,1.33,1.09,1.26-1.26,0-2.16.2-.16.31-.82.54-1.09.87-1.03,1.5-2.57,2.71-3.26.21.9-1.02,1.45-.85,2.19.15.68,1.44,2.19,1.94,1.6.22-.26-1.31-5.3,2.96-4.92.39.03-.11,1.78,1.93.58.38,2.77-.77,1.1-2.71,1.09,0,.84,1.26.8,1.54,1.2.07.11.21,2.52.1,2.6-.19.13-1.22-.18-1.75.02-.4.15-.42.69-.9,1.01-.7.46-1.8-.76-.61,1.68-2.87,1.03-1.45-.48-3.26-.54,1.02,1.09-1.25,4.03-2.05,4.32-.56.2-1.27-.07-1.76.02.7-2.52-3.03-1.83-4.34-2.17-.23,1.54.66,2.58,2.17,2.71-.52.68.14,3.16,0,3.25-.35.26-1.8-.52-1.63.54.85.13,5.71-.32,5.94-.56.27-.27-.12-2.52.03-3.23l1.62,3.8c-.85.11-7.27,1.45-7.54,1.73s.06,1.39-.07,1.53c-.2.23-5.16-.71-5.97-1.08ZM188.55,378.68h-1.63s0,1.62,0,1.62c1.32.35,1.06-.58,1.63-1.62Z" style="fill:#423638;"/><path d="M210.28.07c-.86,2.23,0,4.38.03,6.8.02,1.42-.03,3.01-.03,4.33v12.49c0,1.14.49,6.19.78,7.37.47,1.99,2.35,2.84,2.48,4.85-1.98.02-3.99-.02-5.97,0,.4-3.93-.86-7.79-1.11-11.66-.4-6.02.27-13.66-.57-19.53-.31-2.15-1.52-2.83-2.12-4.67,2.17,0,4.35,0,6.52,0Z" style="fill:#423638;"/><path d="M155.96,1.16c.06,4.62-.07,9.25-.02,13.87.02,1.37.56,2.6.57,4.05,0,.36,0,1.16,0,1.63.01,1.47-.56,2.68-.57,4.05-.03,3.62.66,7.09.02,10.61h2.72c-.8-.65-.54-3.44.54-2.17.57.67.04,2.87,3.26,2.99-3.15,2.91-6.62.7-9.92,1.39-.83.17-1.41,2.85-2.53,2.1-.06-.04.07-.75-.44-1.01-.42-.22-3.27-1.24-3.39-1.11-.91,1,1.05,1.84,1.08,1.99.35,1.83-1.23,6.55-2.99,7.24-1.25.49-1.44-3.75-2.03-4.24-.38-.33-2.81.23-.94-1.44,1.71-1.51,3.44.46,2.7-4.09l-24.99-1.08c9.71-.86,19.11-.2,28.79,0,.36,0,.72,0,1.09,0,1.98.04,3.99-.02,5.97,0l-.02-34.42c.13-.67.83-.23,1.11-.34ZM151.61,37.56h-2.17v.53h2.17v-.53Z" style="fill:#6d6a70;"/><path d="M119.57,384.65c.71.08,1.46-.05,2.17,0-.27,1.66.46.92,1.63,1.09,1.29.18,3.2.64,4.35.54.14.55.64.48,1.09.54,5.94.85,11.95,1.54,17.92,2.18-.22.88-.32,1.85-.54,2.71-2.01.61-4.07-.96-5.68-1-8.8-.19-21.45-2.48-29.47-5.4-4.36-1.59-3.83-.25-6.47-4.41-.93-1.46-.78.2-1.28-2.77,5.21,2.9,10.24,5.83,16.3,6.52Z" style="fill:#f2b671;"/><path d="M228.75.07l-1.64,2.01-1.62,33.84c-1.26-.03-2.54.03-3.8,0,3.09-11.6,1.05-23.94,1.63-35.85,1.8.03,3.63-.06,5.43,0Z" style="fill:#423638;"/><path d="M296.64,354.23s.73-.12.91.19c2.22,3.76.77,3.99.7,7.66-.08,4,.66,10.57,0,14.12-.08.42-2.66,4.98-2.93,5.22-1.16,1.02-3.23,1.17-4.65,1.6.27-1.94,2.81-2.57,3.5-4.37,1.58-4.12-.78-12.87.3-17.35-1.08.05-2.18-.08-3.26,0v-1.63c3.28-.93,3.91-2.59,5.43-5.43Z" style="fill:#6d6a70;"/><path d="M111.96,36.47c-1.63.32-6.47,1.46-6.97,3.1-.59,1.97,1.14,7.72.97,10.14s-2.65,5.22-2.16,7.94c1.16-.39,1.94.34,2.72.54-.41.8-1.89.62-2.72.54-1.17-.11-2.47-.83-3.8-.55,2.98-8.85-3.83-26.24,11.95-21.72Z" style="fill:#6d6a70;"/><path d="M108.7,58.74c.1,2.07.43,6.61.02,8.33-.14.59-3.89,1.52-4.36,2.81,1-.09,2.55.74,3.26.81h-4.89c.92-3.92,1.26-7.93,1.09-11.95.82.08,2.31.25,2.72-.54.44.12,1.97.53,2.17.54Z" style="fill:#f2b671;"/><path d="M240.15.62c1.03.52,1.05.75,1.12,1.85.76,10.92-1.09,22.35.51,33.18.03.56-1.14.18-1.64.28-.06-2.99.07-5.99.02-8.98-.04-2.4.02-4.65,0-7.02-.05-6.39.64-13.37-1.65-19.31.54.04,1.09-.03,1.63,0Z" style="fill:#423638;"/><path d="M101.1,362.92c1.11.08,2.15.49,3.26.55-.65,4.84-1.68,9.29-1.09,14.12-4.79-3.37-1.31-9.73-2.17-14.67Z" style="fill:#6d6a70;"/><path d="M236.35.07c.62,1.8-4.64,1.61-3.8,0,1.26.04,2.54-.06,3.8,0Z" style="fill:#6d6a70;"/><path d="M266.22,387.36c-.81.84-1.8.44-2.72.54-.37-2.34,2.05-.59,2.72-.54Z" style="fill:#423638;"/><path d="M284.69,37.01v1.09c-.93.11-1.91,1.8-1.63-1.09.54,0,1.09-.02,1.63,0Z" style="fill:#423638;"/><path d="M271.11,386.82c-.62.69-1.38.5-2.17.54-.3-2.29,1.55-.61,2.17-.54Z" style="fill:#423638;"/><path d="M163.56,393.88c-.42-1.73,2.11-1.62,1.63,0-.54-.02-1.09.02-1.63,0Z" style="fill:#423638;"/><path d="M148.9,35.92c-.36,0-.72,0-1.09,0l1.36-2.71-.28,2.71Z" style="fill:#f2b671;"/><path d="M37.55,301.54c.28.24,1.55-.64,1.08,1.35l-.54.27c-.18-.46-.74-.89-.54-1.63Z" style="fill:#423638;"/><path d="M258.62,388.45c-.46.52-1,.5-1.63.54-.23-2.29,1.48-.56,1.63-.54Z" style="fill:#423638;"/><path d="M185.83,391.71c-.45.02-1.02,0-1.09,0l.28-.54.81.54Z" style="fill:#423638;"/><path d="M148.35,393.34c-.18-.02-.36.01-.54,0-.22-1.54.76-1.54.54,0Z" style="fill:#f2b671;"/><path d="M150.52,31.57c-1.31-.31,1.02-3.6,1.63-3.8l-1.63,3.8Z" style="fill:#f2b671;"/><path d="M149.71,32.12c.35.18.35.36,0,.54v-.54Z" style="fill:#f2b671;"/><path d="M215.17,58.74c5.7-1.78,18.71.26,25.24.57,2.98.14,6.01-.15,8.98-.02v8.42c0,.54,4.17,8.06,4.9,9.25.44.72.44,1.59,1.62,1.34-.02.36.01.73,0,1.09-.09,2.96.16,2.77.44,5.28.16,1.41-1.35,2.61.65,3.41-.18,0-.36,0-.54,0-5.6.14-11.24-.1-16.84,0,.12,23.09-.15,46.19-.02,69.28.19,33.93.11,68.24.9,102,.04,1.79-1.51,4.93.76,5.52l-1.09.81c2.12-.32.33,1.81,0,3.26-1.11,4.91-.35,10.36-.52,15.5-.58,17.55-.6,35.22-.59,52.64,0,10.42-.32,20.91.57,31.26-1.97-.19-4.57.45-6.39-.4-1.2-.56-2.4-3.19-3.96-4.19-6.08-3.91-19.02-4.34-26.34-4.62-4.52-.17-7.75-2.19-11.34,2.19-1.31,1.6-.96,3.62-3.03,4.84,1.2-.54,2.64.49,3.26.55l-10.05,1.09h-9.78c-.23,0-1.18.55-2.13.58-1.9.07-2.93.12-4.66-.58.38-10.36-.5-20.91-.02-31.25.08-1.8.08-5.96,1.66-6.5.08-.5-.79-.1-.96-.37-.76-1.19-.13-24.46-.14-28.15-.02-13.57,0-27.17,0-40.74,0-29.86.04-59.79,0-89.63,0-.36,0-.72,0-1.09-.01-10.18-.16-21.44-.03-30.66.09-6.61.77-14.15-1.05-20.4v-.54c.1-.05,1.13-1.76,1.13-1.87-.02-1.01-.59-2.08-.61-3.27-.15-11.13.31-22.31.02-33.43-.02-.9.04-1.81,0-2.72-.02-.36.02-.73,0-1.09-.1-1.61-.35-3.29-.54-4.89l.54-1.09c.14-.15-.72-2.85-.59-4.1.07-.66,1.49-1.36,1.68-2.97.32.04,1.01-.08,1.09,0s-.06,2.23,1.08,1.08-1.02-.99-1.08-1.08c-.16-.23.17-1.68,0-2.35-.08-.36-1.96-.47-1.09-1.44.98-1.1,3.26.02,3.8,1.63.28.84-.79,2.58,1.09,2.17l-.16-1.63h.85s-.68-1.08-.68-1.08c2.83-1.31,2.84.57,5.43,1.09l-2.16,1.09c.16,1.62,3.12.42,3.25.54l-1.62,2.17c1.2.62,4.4-.62,4.89-.54s-.44.53,1.63.54c.72,0,1.45-.03,2.17,0,1.26.04,3.07-.04,3.8,0,4.07.23,4.51,2.08,6.54,2.52,1.16.25,1.53-.36,1.61-.35,5.75.64,7.95.3,13.04-1.63.42-.16,1.33.22,2.15-.28.15-.09,2.12-2.56,2.19-2.72.53-1.19-1.08-.71-1.63-.81v-1.09c.31-.17.91-.36,1.09-.54,1.04.18,1.27-.05,1.09-1.09.2-.12.38-.49.54-.54ZM168.72,60.91v.54c.35-.18.35-.36,0-.54ZM221.14,63.63c-.56-.58-1.38.31-1.82.62-5.12,3.71-13.19,4.83-19.66,5.36-1.35.11-2.48-.09-3.73-.55-.09,1.28-2.47.83-1.95,1.89,1.33,2.72,5.89,0,7.36-.23,2.52-.41,5.15-.71,7.6-1.09,3.62-.57,10.08.37,11.89-3.85.22-.52.55-1.89.3-2.14ZM208.65,102.74c-3.16.55-6.55-.59-9.51-.59s-9,.28-11.91.65c-2.02.25-2.18.61-1.94,2.66h9.78c-.24,4.07-.1,9.32,3.96,11.52,1,.54,2.58.29,3.38,1.51.47-1.8,2.4-.97,3.67-1.63.38-.2,2.57-4.81,2.57-5.16v-8.96ZM186.19,137.67c1.1,1.93,1.72,3.94,4.04,4.95,7.65,3.34,18.09.08,18.97-9.19,1.58-16.62-22.04-16.69-24.31-3.14-.19,1.15-.24,5.5.09,6.42.24.66,1.06.69,1.22.96ZM208.65,147.82h-22.54c-.48,0-1.09,2.18-1.36,2.71,1.37.18,10.49.16,10.87.55.69.71-.39,2.77-1.06,3.56-1.5,1.76-8.44,6.15-9.03,7.3-.39.78.44,1.87.31,2.71l10.05-7.6c1.24,4.66,6.52,7.37,10.56,4.05.54-.45,2.19-2.85,2.19-3.24v-10.05ZM207.02,184.76c.63.22,2.17-.24,2.17-.81v-17.93c0-1.02-2.72-1.02-2.72,0v7.88l-20.64.54v2.72s21.19-.55,21.19-.55v8.15ZM207.41,201.45c1.42-1.72,2.75-12.13,1.27-13.2l-22.61.82-.24,2.2c2.97.03,6.05-.22,8.96.56.7.19.91-.45.84.82-.17,3.42-7.16,7.42-9.68,9.6l-.11,3.14,10.05-7.6c1.15,2.35,3.19,6.16,6.27,5.73.72-.1,4.93-1.68,5.26-2.08ZM185.84,229.84c7.77-2.84,14.93-7,22.48-10.37,1.1-.55,1.2-2.26.61-3.22-.88-1.43-20.15-7.53-23.09-9.22-1.6,4.54,6.67,3.86,7.51,6.33.35,1.02.21,10.27-.23,10.57-2.24,1.54-8.39,1.46-7.28,5.91ZM191.27,235.81v12.49c0,.53-5.37.38-5.44.85v2.41s5.44-.55,5.44-.55v4.35c3.88,1.23,1.43-3.61,2.17-4.35.54-.54,13.2.06,15.21-.54.73-3.4-1.55-4.36-3.85-6.2-2.15-1.72-8.97-6.98-11.05-7.96-.86-.41-1.49-.67-2.49-.5ZM234.17,239.07c-.68.06-1.14-.49-.94.7.49,2.91-.61,6.56-.14,9.62,1.09-.11.68-2.26,1.05-2.91.43-.77,1.55-.23,2.2-.35l-2.17-.54c1.02-2.32-.03-4.16,0-6.52ZM197.69,256.59c-6.51.23-13,3.48-12.35,10.93.89,10.32,21.39,9.83,23.61.38,1.79-7.6-4.36-11.55-11.26-11.31ZM187.65,280.54c-3.82,4.13-3.01,11.49,2.39,13.79,8.01,3.42,21.6-.39,18.77-11.17-2.08-7.91-16.44-7.74-21.16-2.63ZM204.3,306.97l-19.01.54v12.49h2.72v-9.23l5.98-.54v7.6c4.56.4,2.18-4.6,2.71-7.61h4.89v8.69h2.72v-11.95ZM220.22,325.83c5.16,5.72,11.14-6.85,6.63-11.82-.58-.64-2.24-.24-2.45.03-.29.37,2.76,6.75.41,9.1-3.21,3.21-5.13-2.81-4.21-5.54-4.6-1.78-1.27,5.01-4.35,6.49-4.69,2.25-4.72-3.36-4.32-6.49.15-1.18,2.68-5.5-1.12-3.29-2.23,1.29-2.5,12.44,1.92,13.3,3.25.63,5.63-.43,6.24-3.78.93-.02.62,1.33,1.24,2.02ZM204.3,337.93c2.11-2.35-5.35-6.58-6.51-7.88,1.73-3.37,8.23-4.38,5.97-8.95l-8.49,7.02c-1.38-.44-9.26-7.28-9.97-6.48.13.9-.31,2.42.11,3.15.26.44,7.47,4.81,7.48,5.27-2.37,3.22-8.5,4.97-7.59,9.5,1.06,1.18,8.22-7.43,10.05-7.42,1.44.17,7.85,7.03,8.96,5.79ZM227.66,341.19c.5-3.98-3.45-10.46-7.45-11.28-8.99-1.85-13.28,5.83-9.92,13.59.24.54,1.98,1.27,2.56,1.37,7.3,1.3,8.35-4.95,7.75-10.73,2.27.27,3.41,2.34,4.23,4.19.89,1.99-.16,3.41,2.83,2.87ZM203.76,341.74l-18.47.54v3.26h7.61c-.83,4.98,1.11,11.96,7.47,9.36.99-.4,3.4-3.4,3.4-4.2v-8.96Z" style="fill:#6d6a70;"/><path d="M264.6,87.53c.86.91,3.51.91,4.35,0,6.69-.11,13.41.14,20.1,0,.87,3.93.68,8.69.57,12.79-1.66,59.35.05,119.36-.54,178.71-.23,22.71.56,45.83-1.62,68.46l1.06,12.73c.85-.25,1.9-.32,2.71-.55v1.63c-2.79.2-5.42,1.6-8.15,2.17-.32.07-.74-.05-1.09,0-.45.07-.93,0-1.09.54-.37-.06-2.09-.07-2.17,0l-1.09.54c-1.27-.12-2.16.4-3.26.54-1.14.15-2.25.39-3.26.54-.89.14-1.75.41-2.72.54h-.54c-.52.07-1.1-.05-1.63,0l-.54.54c-1.08.08-2.18-.08-3.26,0-2.31.18-4.74-.13-7.06,0,1.49-1.96.55-3.09.65-4.62,1.22-18.45-1.62-35.72-1.22-53.8.04-1.83,1.3-3.82.06-5.45-.47-.62-1.88-.8-2.16-1.68-.31-.98.57-2.44.51-3.68-.65-15.07-6.73-30.64-6.87-45.56,0-.73-.03-3.4,1.42-3.08,2.25,3.44,6.89-.52,5.44-4.35l2.45,3.25c.9.12.88.03.83-.82-.3-4.85-5.02-5.72-8.71-3.52-.03-.08-1.12-.38-1.12-1.36s1.09-1.28,1.12-1.36c1.64.51,7.65.79,8.42-.54.65-1.13,1.16-6.13-1.36-5.97.73,1.16.88,6.16-1.09,4.62-1.17-.91.49-3.12-2.16-2.46.19,1.24.09,3.89-1.9,3.26-1.86-.59-.19-3.86-.26-4.57-.05-.51-1.06-.26-1.1-.31-.82-1.14.03-10.53.54-12.49,3.87,2.84,10.52-1.78,7.07-6.26-1.97-2.56-5.09-1.16-7.61-.26.12-1,.49-1.78.54-2.17,1.45.42,3.13.77,4.65.59.16-.02,2.54-1.63,2.6-1.78,1.57-3.47-.47-7.68-4.53-6.41-2.17-2.71,3.61-2.15,4.89-2.18,1.52-1.55-5.13-6.93-7.06-6.52-.05-.97-1.15-2.64,0-4.35.92-.09,1.35-.49,1.63-.54.7-.12,2.29.25,2.65-.06.81-.7.65-6.94-1.57-5.37-.18.13,1.94,4.26-.54,3.8.41-1.59-.75-2.75-1.09-3.8s-.59-2.14-.54-3.26c.45.12,1.02-.14,1.62.26,1.15.77.47,2.88,2.18,2.45v-4.34c-1.08,0-2.17,0-3.26,0l-1.09-2.17c.64-.44,1.41-.53,2.17-.54.03.04.67-.13.94.16.33.36-.21,1.95.96,1.47.6-.25.02-1.32.3-1.58.35-.32,1.95.14,2.15-.05.06-.06.06-1.57,0-1.63-.24-.23-1.67.44-2.24-.32-.45-.61.03-4.61.06-5.65-.54-.02-1.09.02-1.63,0v-.54c-.05-.17.07-.41,0-.54,2.22.16,1.93-4.34,1.09-5.98v-.54c4.64-.54,2.98-3.22,3.26-7.06-.9-.04-1.82.05-2.72,0-.75-5.67.72-11.18,1.08-16.57.89-13.38,1.2-26.8,1.61-40.21.13-4.01,1.26-7.98.02-12.2.18,0,.36,0,.54,0s.36,0,.54,0c.9-.02,1.81.02,2.72,0,.14,0,.42-.54.54-.54,1.26-.02,2.54.02,3.8,0ZM250.47,230.93c.96-.07,2.97.34,3.57-.51,2.63-3.76-5.01-6.75-3.57.51Z" style="fill:#ef9e04;"/><path d="M240.15,368.35c-.25.07-1.07,1.28-1.91,1.06l-14.92.57c-1.81,1.38,4.09,1.14,4.64,1.11,5.68-.27,11.44-1.05,17.08-1.66l-3.8-1.08,14.12-1.63c2.33-.13,4.75.18,7.06,0,.18,1.07.1,2.25-1.36,1.64-.49-.2.08-1.37-.8-1.1.24,1.84-2.97,1.91-3.27,2.18-1.41,1.28,1.99,1.03,2.37,1.15,2.34.79.05,5.37-.03,6.79-.21,3.63,2.98,5.1-3.82,6.59-6.54,1.44-16.96,2.64-23.75,2.87-4.21.14-13.14,1.33-13.37-4.65-.03-.83.59-6.13.82-6.81.78-2.39,3.96-1.24,4.11-3.76l-8.69-.55,4.08-1.68c1.02-.05.75,1.8,2.43,1.14-1.17-1.7.55-.57.54-1.62-1.93-.39-2.19-2.22-4.04-3.29-5.3-3.07-9.58-1.85-15.26-2.12-1.12-.05-1.68-.9-2.56-.97-1.68-.13-5.11,1.22-5.82,2.84-.55,1.24,1.32.39,1.08,1.34-1.07-.06-2.2.11-3.26,0-.62-.06-2.06-1.09-3.26-.55,2.06-1.22,1.71-3.25,3.03-4.84,3.6-4.38,6.82-2.36,11.34-2.19,7.32.28,20.27.71,26.34,4.62,1.55,1,2.76,3.63,3.96,4.19,1.83.85,4.42.21,6.39.4-.89-10.35-.56-20.84-.57-31.26,0-17.42,0-35.09.59-52.64.17-5.14-.59-10.59.52-15.5v99.4Z" style="fill:#423638;"/><path d="M165.74,170.09c-1.58.03-1.73.42-1.65-1.36.13-2.81.27-5.62.56-8.42-2.13-.32-1.65.31-1.63,2.18l-1.09-2.18c-3.59-.32-2.39,1.3-2.18,3.8-4.01-2.54.32-4.87-2.17-7.6,1.55-.37,2.26.65,3.53,1.09l.81-1.1c-.53-1.22-3.26-.94-3.79-2.45-.47-1.33,1.22-.37,1.65-1.16.2-.37.63-2.8.52-2.9h-3.26c.59,1.66.78,3.41-1.08,4.34l.54-14.12,1.63-.27c-3.08-1.33-2.04-4.61-2.17-7.34l2.71.54-.54-3.26,1.07.28c-.9-.59-.77-2.36-1.2-2.87-.4-.47-1.52-.33-1.92-.8s-.78-3.21-.73-3.97c.07-1.05,1.18-.56,1.21-1.59.26-9-1.62-19.49.42-28.24l-1.03-8.99c5.07.14.78-1.93.64-2.48-.06-.24.26-4.36.4-4.85.44-1.61,3.54-3.39,2.49-.28.64-1.58,2.75-3.04,4.08-1.61.85.91-1.77,1.61-2.4,2.21-1.06,1.01-1.79,2.76-2.48,4.04,2.1,1.32,2.3-2.43,3.79-2.99,1.17,3.48-.46,3.32-2.17,5.97.87.4,2.83.04,2.7,1.33-.28,2.79-2.69,1.11-2.44,4.09.65-.9,3.33-.33,3.54-.53.27-.26.12-6.25.19-7.54.05-1.01-.64-1.32.9-1.16.28,11.12-.18,22.3-.02,33.43.02,1.19.59,2.26.61,3.27,0,.11-1.03,1.82-1.13,1.87-.34.15-1.49-.36-1.66.29-.26.99.25,2.88.04,4.05,2.19.43.26-2.78,1.63-3.8,1.82,6.25,1.14,13.79,1.05,20.4-.12,9.22.02,20.48.03,30.66ZM163.56,96.76c.01-.09.49-.6.57-1.31.2-1.81-.18-3.89-.03-5.75-4.41,1.87-1.03,3.2-1.01,4.06,0,.47-.45,2.56-.61,3.01-.76,2.03-3.52,3.16.54,3.8-.04,2.1.49,3.78.15,5.82-.18,1.06-.09.66.94.69-.31-2.95.69-6.48-.54-9.23.04-.35-.04-.73,0-1.09ZM159.76,102.19c-.45.37-2.2-.94-1.63,1.63,2.56.6,1.27-1.24,1.63-1.63.17-.19,1.51.36,1.63-.27-2.01-2.13-1.51.17-1.63.27ZM158.13,107.08c.17,2.47,2.21,1.81,3.25.27l-3.25-.27ZM163.02,113.06c1.49-1.86,1.23-2.12,1.08-4.89-1.09.08-.2,1.69-.83,2.72-.21.34-1.02.44-1.35.94-2.31,3.45-1.99,5.08,1.1,1.23l-1.08,5.43c.85.22.32-.64.71-.91.46-.32,1.32.06,1.48-.5.3-.99.77-4.56-1.11-4.02ZM161.39,128.81c-.59-.59-1.67.49-1.08,1.08s1.67-.49,1.08-1.08ZM164.11,147.82v-8.69l-.98,3.53.98,5.16Z" style="fill:#423638;"/><path d="M108.7,58.74c3.91.25,10.12-.56,14.37-.57,2.6,0,18.44-.35,19.08.53.67.93-1.12,7.64-.92,9.57.13,1.2,1.34.6,1.14,1.05l-1.47,1.25c-8.73.09-17.51.28-26.23.11-.54-.01-1.09.01-1.63,0-1.76-.05-3.74.18-5.43,0-.71-.07-2.25-.9-3.26-.81.47-1.29,4.22-2.22,4.36-2.81.41-1.71.07-6.25-.02-8.33Z" style="fill:#ef9e04;"/><path d="M140.21,86.98c-.25,1.37.28,2.81.26,4.09-.03,2.38-1.33,6.37-1.34,8.68,0,1.69.99,4.11.89,5.89-.11,1.92-1.65,3.28-1.43,5.24h-9.51c-.35,0-2.47-1.68-2.7-2.18-1.09-2.39-1.21-14.69-.7-17.51.25-1.37,2.06-4.2,3.4-4.2h11.14Z" style="fill:#423638;"/><path d="M139.66,323.81l-1.67,20.94c0,.44,3.15,2.96.86,2.96h-9.23c-1.22,0-3.36-3.05-3.54-4.61-.36-3.08-.43-12.79.04-15.73.15-.92,1.76-3.56,2.41-3.56h11.14Z" style="fill:#423638;"/><path d="M29.94,88.07c.21-.71-.27-1.71.89-2.1,2.28-.76,6.89-.39,7.94,2.24.8,2.02.68,14.68.43,17.54-.37,4.35-4.55,5.05-8.33,3.94-2.29-.67-1.44-5.77-1.47-7.5l1.08.81c.81-4.15.69-8.79.55-13.05-.03-1.05.55-2.18-1.09-1.88Z" style="fill:#423638;"/><path d="M165.74,171.18c.04,29.84,0,59.76,0,89.63l-1.09,1.36v-78.76c-2.96.26-.02-1.02.01-1.15.57-2.21-1.04-1.72-1.1-2.11,2.33-.52.7-1.92-.73-1.91-.29,0-1.33,2.05-1.83,2.16-.89.19-1.94-.03-2.86.03-.21-2.83-.41-3.72,2.72-3.81l-2.72-1.91,1.09-1.88-1.08-1.09c1.92-.52,1.78.46,2.64,1.03.32.21,1.05-.04,1.16.06.19.17-.86,2.51-.54,3.25l1.36-1.09c1.46,2.95,1.04.43,1.36-.7.14-.52,1.18-.34,1.09-.64-.28-.99-2.75-2.77.54-2.46Z" style="fill:#423638;"/><path d="M15.82,108.17l-3.79.55c-.87-.61-.63-18.48-.55-21.19.02-.54-.03-1.09,0-1.63,3.27-.25,4.94-.37,5.88,3.13-.53,4.12-.45,8.22-.47,12.38,0,1.22.53,2.39.5,3.26-.04,1.2-1.16,2.37-1.56,3.5Z" style="fill:#6d6a70;"/><path d="M165.74,301.54c0,3.69-.62,26.96.14,28.15.17.27,1.04-.13.96.37-1.58.54-1.57,4.7-1.66,6.5-.48,10.35.4,20.89.02,31.25-.21-.08-.7.17-1.01-.05l-.07-42.31c-3.4,1.09-2.27-2.83-2.73-3.27-.06-.06-1.51-.05-1.61,0-.77.5.85,4.04-2.19,4.34.04-.76-.17-1.66.07-2.38.35-1.03,2.48-.16.98-3.73-.27-.63-1.37-.09-1.06-1.21,3.36-.67,3.47,3.67,6.52,2.98-.64-3.06.4-6.96.43-10.04.03-2.31-.84-5.87-.91-8.18,0-.25.75-.19.84-.38.51-1.03-.49-2.37,1.27-2.03ZM164.1,324.89c.27-2.26-.8-2.26-.53,0h.53Z" style="fill:#423638;"/><path d="M148.9,87.53c-.38,1.68-.57,5.62-.37,7.24.11.9,1.63,2.93,1.33,4.38-.24,1.12-1.87,1.18-1.55,4.44.09.88,2.11,1.05,1.13,1.86-.71.59-1.24.05-1.69-.77-.63-1.14-.96-2.48-2.11-3.3-.83-.58-2.56-.78-2.65-.88-.28-.32,0-6.57-.04-7.84s-.54-2.34-.57-3.51c1.06-.12,3.02.34,3.85-.24.91-.64-.37-3.15,2.67-1.39Z" style="fill:#6d6a70;"/><path d="M160.85,227.67c-.42-1.73-4.47-1.05-4.36-4.6,2.57-.41,3.47-3.32.56-1.92-.76-.96.14-2.06,1.61-1.35-1.12-1.64.6-4.39.57-5.95,0-.12-2.04-.86-1.1-1.93.43-.49,3.39,1.99,3.76,2.48.64.84.44,1.46.79,2.24.09.2.88.2.91.5.1,1.04-1.65,4.06-1.65,4.29,0,.52,2.19.48,1.63,2.17-.12.38-1.34-.13-1.11,1.08.03.18,2.16,1.37,1.63,2.99-1.08.05-2.18-.05-3.26,0,.14.58-.18,1.85,0,2.18.06.1,1.64-.79,2.17.39,1.03,2.33-.4,5.97.61,8.59l-1.14,1.33c1.06-.48,1.58,1.86,1.47,2.5-.1.56-2.22.31-1.48,3.67.09.4,3.18.74-.83,1.97l.28-1.07c-1.63.2-3.12-.32-4.35-1.37.03-.35,2.09-1.27,2.17-1.37.51-.57-2.26-.6-1.08-1.62,1.25-1.07,1.96,1.53,2.71,1.62.56-3.77-1.96-2.08-2.14-2.2-1.17-.79.07-4.9.02-6.22-.09-2.43-.74-5.68-1.14-8.14-.03-.52,2.11-.25,2.72-.28ZM161.56,234.05c-.47-.97.11-2.74-1.8-2.58.18,1.45,1.22,3.9,2.71,3.25.24-.86-.76-.34-.91-.67Z" style="fill:#423638;"/><path d="M167.52,39.53c2.85,1.71,5.8-.17,4.19,3.99-.89.23-.38-.76-.63-.94-1.54-1.1-2.18,1.19-2.08,2.57.21.24,1.45-.73,1.62-.54.16.17-1.1,2.36-1.39,2.67-1.12,1.15-3.56,1.51-3.92,1.78-.26.19-.93,2.84-1.2,3.43-.17.37-.11,1.92-1.08.82-.07-.07-.03-1.19-.52-1.91-.57-.81-1.87-1.17-1.65-2.44,2.38,1.18,2.85-.47,3.59-2.55.15-.42-.37-1.23-.09-1.79.39-.78,1.79-.84,1.94-1.47.29-1.25-.24-3.08.54-4.5.84-.23.4.71.69.89ZM168.99,41.36c-.59-.59-1.67.49-1.08,1.08s1.67-.49,1.08-1.08ZM167.63,45.17c-.54.38.29.75.55,1.06.54-.36-.25-.72-.55-1.06ZM167.09,46.24v.54c.35-.18.35-.36,0-.54Z" style="fill:#423638;"/><path d="M150.18,342.11c.1.21,1.67.14.63,1.26-.45.49-2.1,1.01-2.8,1.06-.48.03-4.88-.91-5.06-1.09-.29-.29.16-5.44-.02-6.49,2.15.6,5.59,1.25,6.76,3.3.29.5.19,1.29.5,1.96Z" style="fill:#423638;"/><path d="M196.7,67.43l-1.08-2.17c3.06-.04,6.47.19,9.45-.6,1.64-.43,2.39-1.86,4.39-1.58l.28,2.72c-5.08,1.93-7.29,2.27-13.04,1.63Z" style="fill:#423638;"/><path d="M159.76,66.34c2.14.35,1.65-.36,1.63-2.17l2.17.55-1.08.53c.11.87-.5,1.76-.55,2.53-.06.98.96.61,1.08,1.11.79,3.15-.75,1.89-1.08,2.11-.4.27-1.9,3.16-3.25,1.86-1.09-1.04,1.93-2,1.08-2.71-.19-.16-1.64.11-2.18,0,.6-1.2.3-6.81.55-7.06,1.22-1.21,2.96,1.64,1.63,3.25ZM161.66,69.06v.54c.35-.18.35-.36,0-.54Z" style="fill:#423638;"/><path d="M165.19,280.9l-.55-2.71c-.89-.23-.26.93-.87,1.1-2.17.6-5.12-4.06-5.64-5.99,2.33-.65,1.8,1.64,2.29,2.05.81.69,3.8-.42,3.15,2.29,1.51-.5,1.06-2.44,1.08-3.8-1.2,0-2.4-.43-2.18,1.08h-.53c-.26-1.64-1.58-3.85-3.26-2.71.87-1.71-1.02-4.31,1.35-3.81.51.11.08.99.44,1.44.64.81,1.77,1,1.46,2.91,3.14-3.73,1.49-.46,1.84.02s1.41.45,1.41.53v7.6Z" style="fill:#423638;"/><path d="M143.32,52.9c.13.07.14.61.36.75.52.32,1.37.02,1.45.49.16.91-.54,1.93-.53,2.75.03,2.47.87,5.38-.06,7.82l-.81-1.09-.54,1.64c-1.76.04.52-9.56.81-10.87-4.66,5.33-4.11-3.29-.68-1.49Z" style="fill:#423638;"/><path d="M29.94,88.07c1.64-.3,1.05.83,1.09,1.88.14,4.26.26,8.9-.55,13.05l-1.08-.81c-.07-4.13-.53-10.44.54-14.12Z" style="fill:#6d6a70;"/><path d="M165.19,292.31c-.76.01-.87-2.55-.88-3.08-.03-1.56.68-3.37.33-5.07-3.55,1.77-2.35-.57-3.76-1.94-.87-.84-2.13-.7-2.22-.78-.22-.22.7-1.5.56-1.62-.12-.1-2.3-.35-2.73-1.36.78-.06,2.87.05,3.44.26.69.24.29,1.52.87,1.95.74.55,2.45,0,2.73.27.19.18-.21,2.24.84,2.68l.81-1.63v10.32Z" style="fill:#423638;"/><path d="M163.56,348.26c-.22,3.25-1.75,6.09-5.42,4.89l1.63,1.09c.65.69-2.25,3.84-2.19.29.01-.71.43-1.44.46-2.19s-.67-1.53-.32-2.31c.03-.07.9-1.17.97-1.21.35-.18.92,1.08,1.8,1.01,1.07-.09,1.83-1.76,3.08-1.55ZM160.3,351.51c.39-.76-.34-1.45-.53-1.08-.39.76.34,1.45.53,1.08Z" style="fill:#423638;"/><path d="M182.03,379.76c-.23.27-.35.93-.54,1.09-.37.3-1.14.49-1.63.54-.16.02-.39.03-.54,0-.19-.03-.39.05-.54,0-.06-.02-.26-.8-.93-.95-1.98-.44-6.49-1.88-5.58.95l1.09-1.08c2.35,2.7-.11,3.72-2.19.76.1-.6.54-1.27.56-1.84,1.1.41,1.03-1.05,1.44-1.11.94-.14,1.83.49,2.69.52.78.03,1.55-.48,2.14-.43.96.07,2.79,1.46,4.05,1.56Z" style="fill:#6d6a70;"/><path d="M161.77,347.54c-.9.71-2.02.75-3.1.71-.27-.24.88-2.21.53-2.69-.19-.27-2.27-.1-2.16-1.1,2.34.01,4.51.35,6.51-1.09.58.81-1.08,3.63-1.78,4.18Z" style="fill:#423638;"/><path d="M160.79,207.65c.17.15-.17,1.18.37,1.6.42.32,1.8.4,1.86.49.18.28-.46,1.02-.48,1.36-.01.26,3.51,2.7-1.15,2.43l.28-2.7c-3.11,1.81-2.51-.81-2.99-3.27.59.09,1.79-.21,2.12.08Z" style="fill:#423638;"/><path d="M161.01,249.77c.62.42,1.6.51,1.88.84.35.41.87,3.47.67,3.67-1.53,1.52-4.29-5.6-5.97-5.44,1.65-2.11,2.95.61,3.42.93Z" style="fill:#423638;"/><path d="M161.93,302.63c-3.12-.93-5.73,1.23-4.88-3.8l1.36,1.62c-.36-2.93,1.92-.24,2.33-.02.48.25,2.14-.34,2.28,1.4.03.41-.92.03-1.09.81.28.08.94-.15,1.06.01.3.4-.35,3.35.57,4.33l-4.89.55c.06-.55.43-3.13.55-3.26,1.33-1.46.64,2.22,1.89,1.62s.63-2.36.82-3.25ZM160.58,306.43v.54c.35-.18.35-.36,0-.54Z" style="fill:#423638;"/><path d="M160.38,285.71c.85.68,3.72-1.25,3.18,3.33-.34.36-2.55-.67-2.9-1.05-.99-1.08.62-2.27-1.98-1.12v-3.26c1.7-.4,1.39,1.85,1.7,2.09Z" style="fill:#423638;"/><path d="M160.3,258.08v2.72c2.63-1.73,5.77,3.5,1.63,3.26l.54-2.16c-3.42-.37-4.06-.17-4.35-3.8h2.17Z" style="fill:#423638;"/><path d="M159.76,202.14c-.27-.15-1.03.06-1.38-.51-.89-1.47-.35-2.69,1.38-2.21l-1.08-1.35c2.52-2.2,1.83-.19,2.22.35.42.59,1.09.37,1.06,1.22-.09,2.43-1.67,1.57-2.19,2.5.2.11.73-.03,1.13.26.13.09,1.1,2.55,1.07,2.71-.27,1.75-2.29,1.4-2.72.79-.11-.15.32-3.39.52-3.76Z" style="fill:#423638;"/><path d="M184.75,65.26l-.26-3.27c.66.26,3.93.94,4.07,1.1.24.25-1.04,1.87,0,2.17-.73-.04-2.54.04-3.8,0Z" style="fill:#423638;"/><path d="M161.84,183.75c.23.41.07.84.09,1.27-4.33,2.55-4.23-.74-2.7-4.07.84.08.81,1.36,1.39,2.16.26.37,1.13.48,1.22.64Z" style="fill:#423638;"/><path d="M159.76,360.2c.13.13-.09,1.22,0,1.63l1.62-.55c.63,1.35-1.5,2.51-1.51,2.98s1.33.93.97,1.9h-2.17c.29-2.43.51-3.7-.54-5.97.44.06,1.51-.11,1.63,0Z" style="fill:#423638;"/><path d="M163.02,54.94c.76.67-2.2,4.86-2.41,5.41-.38.97,1.2,2.56-.84,2.2-1.38-5.24.44-3.08,1.41-4.32.48-.62-1.17-4.07,1.85-3.28Z" style="fill:#423638;"/><path d="M160.3,289.06c.14.14-.21,1.33.05,1.56.33.29,1.37-.29,2.19.41,2.8,2.38-.52,5.92-.6.74-1.08-.15.09,1.4-1.35,1.09-.09-.02-1.23-1.13-1.27-1.21-.21-.54.52-1.16.35-1.45-.12-.2-1.5.3-.99-1.15.44.06,1.5-.11,1.62,0Z" style="fill:#423638;"/><path d="M161.39,337.92c-.07.09-2.07.68-2.17.55-.14-.16.24-1.41-.12-2.06-.24-.43-2.48-.76-2.06-2.28,2.04-1.1,5.17,2.71,4.34,3.79Z" style="fill:#423638;"/><path d="M159.63,187.09c.1.06.17.7.51.93.72.48,3.3.74,1.1,2.56-2.42,1.99-2.79-1.49-3.1-3.65.52,0,1-.11,1.49.16Z" style="fill:#423638;"/><path d="M177.14,387.91c-1.51-.14-2.4-1.17-2.17-2.71,1.32.34,5.04-.35,4.34,2.17-.67.13-1.19.63-2.17.54Z" style="fill:#6d6a70;"/><path d="M160.29,253.21c.13.13-.22,1.21.11,1.52.54.51,2.1-.8,1.53,2.26l-1.09-1.08-.54,1.08c-2.15.09-1.63-2.3-1.62-3.8.44.06,1.49-.11,1.62.02Z" style="fill:#423638;"/><path d="M160.71,340.25c1.11,1.31.53,3.35-1.23,3.66-.98.17-1.2-3.58-1.34-4.34.26-.24,2.21.25,2.57.68ZM159.49,340.65v.54c.35-.18.35-.36,0-.54Z" style="fill:#423638;"/><path d="M141.83,364.01c.06,2.81-5.56,1.11-7.06.27l7.06-.27Z" style="fill:#423638;"/><path d="M160.7,192.5c1.3,1.42,1.28,4.76-1.48,3.66l-.54-4.34c.26-.24,1.72.35,2.03.68Z" style="fill:#423638;"/><path d="M160.27,166.87c.08.05,1.07,1.35,1.1,1.44.65,2.41-1.42,2.38-3.24,1.78-.18-.74.98-3.94,2.14-3.21Z" style="fill:#423638;"/><path d="M142.38,89.16c-.05-2,1.07-.67,2.87-1.2s2.3-2.63,2.02-4.23c4.11.31,2.28.94,1.63,3.8-3.04-1.76-1.77.75-2.67,1.39-.82.58-2.79.12-3.85.24Z" style="fill:#423638;"/><path d="M180.94,60.92c.55.65-.4,2.64-1.87,2.14-.67-.23-1.27-2.54-1.93-3.23.16-.12,3.67.94,3.8,1.09Z" style="fill:#6d6a70;"/><path d="M180.95,64.71c.59-4.78,4.54-2.03,1.63.54-2.06-.02-1.17-.47-1.63-.54Z" style="fill:#423638;"/><path d="M165.19,297.2v3.25c-.93.24-.33-.85-.59-1.04-.33-.25-.96.39-1.3.41s-.25-.66-.47-.79c-.74-.41-2.24,0-1.15-1.3l2.99.55.54-1.08Z" style="fill:#423638;"/><path d="M160.29,309.16c.13.13-.21,1.21.1,1.52.5.5,2.09-.75,1.54,1.72-1.98.3-1.81-1.2-2.22-1.72-.48-.6-1.85-.57-.76-1.54.39.07,1.21-.11,1.34.02Z" style="fill:#6d6a70;"/><path d="M172.8,35.92c.74.09,2.72-.49,2.71.54-1.72-.03-3.46.06-5.18,0-1.05-.03-2.18.55-1.88-1.09,1.45.04,2.9.38,4.35.54Z" style="fill:#6d6a70;"/><path d="M161.93,356.4c1.03.83-2.82,2.63-3.25,2.17-.6-2.24,1.64-1.86,3.25-2.17Z" style="fill:#423638;"/><rect x="164.65" y="263.52" width=".54" height="8.69" style="fill:#423638;"/><path d="M166.28,63.08c-1.86-.2-3.16.86-2.72-1.63h2.72c-.04.53.06,1.1,0,1.63Z" style="fill:#423638;"/><path d="M171.17,60.37l.68,1.09h-.85s.16,1.62.16,1.62c-1.87.41-.8-1.32-1.09-2.17.25-.45.75-.39,1.09-.54Z" style="fill:#423638;"/><path d="M156.5,19.09c1.64-.25,1.66,2.08,0,1.63,0-.47,0-1.27,0-1.63Z" style="fill:#423638;"/><path d="M274.37,365.09c-.71.71-2.61,1.63-3.26.54,1.01-.16,2.12-.39,3.26-.54Z" style="fill:#423638;"/><path d="M163.02,359.12c.81,1.03-1.88,1.92-2.17,1.62-.64-.65,1.08-2.15,2.17-1.62Z" style="fill:#423638;"/><path d="M160.84,315.67c.09.08-.06.51,0,.8l-1.62,1.37v-2.17c.44.06,1.5-.11,1.62,0Z" style="fill:#423638;"/><rect x="161.94" y="169.01" width="1.08" height="2.17" style="fill:#423638;"/><path d="M163.56,192.36c-.13.11-1.19-.06-1.63,0l.55-2.16c.34-.6,1.39,1.89,1.08,2.17Z" style="fill:#423638;"/><rect x="167.37" y="57.11" width="1.62" height="1.08" style="fill:#423638;"/><path d="M121.74,384.65c1.23.09,1.88-.49,1.63,1.09-1.17-.17-1.89.57-1.63-1.09Z" style="fill:#423638;"/><path d="M158.13,243.42c-.18.79-.88,1.25-1.63,1.08v-1.08s1.63,0,1.63,0Z" style="fill:#423638;"/><path d="M165.19,76.12c.02.36-.02.73,0,1.09-1.61.33-1.7-1.39,0-1.09Z" style="fill:#423638;"/><path d="M165.19,70.14l-.54,1.09c0-.08-.76-.51-.54-1.08.31-.07.99.09,1.08,0Z" style="fill:#423638;"/><path d="M214.62,59.28c.18,1.04-.05,1.26-1.09,1.09.43-.44-.59-.1,1.09-1.09Z" style="fill:#423638;"/><path d="M127.71,386.28c.28-.02,1.3-1.6,1.09.54-.45-.06-.95,0-1.09-.54Z" style="fill:#423638;"/><path d="M212.45,60.91v1.09c-.64-.12-1.45.33-1.09-.81.19-.6.79-.12,1.09-.28Z" style="fill:#423638;"/><path d="M281.98,363.46c.19,2.13-.73.6-1.09.54.15-.55.64-.47,1.09-.54Z" style="fill:#423638;"/><path d="M278.72,364.01c-.09.07.06.77,0,1.08-.56.22-1.01-.53-1.08-.54l1.09-.54Z" style="fill:#423638;"/><path d="M114.68,70.69c-.54.65-1.09.65-1.63,0,.54.01,1.09-.01,1.63,0Z" style="fill:#423638;"/><path d="M158.67,39.19c.37.19-.32.92-1.08.53-.37-.19.32-.92,1.08-.53Z" style="fill:#6d6a70;"/><path d="M165.19,295.56c-.19.37-.92-.32-.53-1.08.19-.37.92.32.53,1.08Z" style="fill:#423638;"/><path d="M159.21,315.12c-.19.37-.92-.32-.53-1.08.19-.37.92.32.53,1.08Z" style="fill:#423638;"/><path d="M265.68,366.72l.54-.54s-.14.52-.54.54Z" style="fill:#423638;"/><path d="M267.85,366.18h.54c-.42.06-.52,0-.54,0Z" style="fill:#423638;"/><path d="M152.97,38.64c.35.18.35.36,0,.54v-.54Z" style="fill:#6d6a70;"/><path d="M67.96,102.19c-.34-.04-.97.08-1.08,0-.3-.25-1.64-5.67-1.64-6.24v-8.96c.91-.43,2.72,1.98,2.72,2.44v12.76Z" style="fill:#f2b671;"/><path d="M255.9,78.29c.21-3.32-.56-2.46-1.06-3.66-.23-.55.14-1.53-.3-2.32-.38-.68-1.93-.73-2.34-2.01-1.06-3.33-.53-5.22-.64-8,0-.18-2.01-.81-1.1-3.03h9.78c.12,0-.12,1.65.11,2.32.33.98,1.43,1.3,1.78,2.04,3.4,7.19,2.22,13.05,2.45,20.31,0,.15,1.89.7,1.1,2.49h1.63c.16-6.95-.5-13.89.71-20.75.09-.52.73-1.09.89-1.82.29-1.3-.33-2.79.28-4.07.59-.95,2.1.13,3.25.05,3.02-.2,4.25-.05,7.06,0,3,.05,5.97-.47,8.99-.03l1.08,27.71c-.18,0-.36,0-.54,0-6.69.14-13.41-.11-20.1,0-1.45.02-2.9-.03-4.35,0-1.27.02-2.54-.02-3.8,0l-.54.54c-.9.02-1.81-.02-2.72,0,.54-2.7.12-4.32-.48-6.88-.23-.98.53-2.13-1.15-1.81.01-.36-.02-.73,0-1.09Z" style="fill:#211317;"/><path d="M257.53,40.81l-.57,3.79c-1.47-1.21-1.15,1.12-2.71,1.89-.6.29-8.07,2.85-8.52,2.9-1.17.12-2.49-.68-3.68-.46-.5.1.41,2.55-2.45,1.66.76,1.59,3.15.99,4.81,1.43,3.61.95,7.82,2.28,10.8,3.44.48.19,1.22-.03,1.77.02-.47,4.6-7.54,2.2-10.57,2.15-9.24-.16-18.53.17-27.72-.53-.65-.05-3.91-.42-4.08-.54-.13-.09,1-2.21-.53-2.99.55-.42,2.62.4,2.7.29.19-.28-.35-1.77.53-2.47.52-.41,3.16-.62,3.28-.8.04-.06-.43-.8-.43-1.35,0-.49.51-1.29.43-1.36-.36-.29-2.8.65-3.1-1.97-.1-.84,1.02-5.18,1.58-5.53,1.77-1.11,14.52-.64,17.57-.63,1.1,0,2.1-.53,3.18-.52.98,0,6.55.36,7.04.49s.25,1.2.62,1.09c.42-.12,1.11-1.03,1.37-1.09,2.12-.45,4.45.78,6.52.54.15.49.63.55,1.09.54.36,0,.73.02,1.09,0Z" style="fill:#6d6a70;"/><path d="M255.36,40.27c.3-.03,1.29-1.6,1.09.54-.46.01-.93-.05-1.09-.54Z" style="fill:#423638;"/><path d="M261.34,38.1l-.75.46-.34-.46c.67-.05,1.01,0,1.09,0Z" style="fill:#423638;"/><rect x="214.63" y="35.39" width="3.25" height=".53" style="fill:#423638;"/><path d="M181.49,380.84c1.27.9,1.34,3.25,0,2.16-.54-.44.94-1.25-1.09-.54-.26.09-.75-.06-1.09,0-.03-.18-.59-.67-.54-1.09.15.05.36-.03.54,0l.27.53.27-.53c.49-.05,1.26-.25,1.63-.54Z" style="fill:#211317;"/><path d="M180.4,382.47l.52.3c.24.93-.27,1.87-1.33,1.87-.55.01-.2-1.61-.28-2.18.34-.06.82.09,1.09,0Z" style="fill:#6d6a70;"/><path d="M188.55,378.68c-.56,1.04-.3,1.97-1.63,1.62v-1.62s1.63,0,1.63,0Z" style="fill:#211317;"/><rect x="149.44" y="37.56" width="2.17" height=".53" style="fill:#211317;"/><path d="M256.45,88.07c1.24,4.22.1,8.19-.02,12.2-.42,13.41-.72,26.83-1.61,40.21-.36,5.4-1.83,10.91-1.08,16.57-.18,0-.36,0-.54,0-.92.02-5.72.28-5.98.55-.11.11.07,1.18,0,1.62.75.14,3.62-.19,3.8,0,.17.18-.3,3.96,1.63,4.34v.54c-1.71.25-4.19-.62-5.14,1.64-1.47,3.47.96,6.14,4.6,5.42v.54c-.18,0-.36,0-.54,0-6.49-.09-5.39,2.91,0,1.63.09.44.4,1.04.54,1.63-.93.59-1.11,1.69-1.09,2.72-2.92-.39-4.21.82-3.8,3.8,1.28.27,1.42-1.11,2.17-1.63l1.09,2.17c-1.08,0-2.17,0-3.26,0-.14,2.09,1.68,1.36,2.71,1.63-.05,1.12.2,2.21.54,3.26h-.54c-4.1-1.68-1.82,3.74-2.71,5.97.71-.04,1.46.07,2.17,0-1.15,1.7-.05,3.38,0,4.35.06,1.11.24,4.4.04,5.14-.12.41-3.01.25-1.67,1.38.41.34,2.19-.66,2.17,2.72-.34.19-.82.34-1.09.54-1.9,1.48-2.12,4.68,0,5.98-.02.18.02.37,0,.54-.05.4-.42,1.17-.54,2.17-.25,2.06-1.8,4.79.54,6.52-.51,1.96-1.37,11.35-.54,12.49-2.13,1.44-.21,5.09-.54,5.98-.03.08-1.12.39-1.12,1.36s1.1,1.27,1.12,1.36c.15.49-.94,3.99,0,5.43-1.44-.32-1.42,2.35-1.42,3.08.14,14.92,6.22,30.5,6.87,45.56.05,1.25-.83,2.7-.51,3.68.28.88,1.69,1.06,2.16,1.68,1.23,1.63-.02,3.63-.06,5.45-.4,18.08,2.44,35.35,1.22,53.8-.1,1.53.84,2.66-.65,4.62l-14.12,1.63c-.3-.03-.86-.07-1.09,0v-99.4c.33-1.46,2.13-3.58,0-3.26l1.09-.81c-2.26-.59-.71-3.74-.76-5.52-.79-33.77-.72-68.07-.9-102-.13-23.09.14-46.2.02-69.28,5.6-.1,11.24.14,16.84,0Z" style="fill:#f2b671;"/><path d="M221.14,63.63c.25.25-.08,1.62-.3,2.14-1.82,4.23-8.27,3.29-11.89,3.85-2.45.39-5.08.68-7.6,1.09-1.47.24-6.02,2.95-7.36.23-.52-1.07,1.86-.61,1.95-1.89,1.25.46,2.38.66,3.73.55,6.47-.53,14.54-1.66,19.66-5.36.43-.31,1.25-1.2,1.82-.62Z" style="fill:#f2b671;"/><path d="M255.9,79.38c1.68-.32.92.83,1.15,1.81.6,2.57,1.02,4.18.48,6.88-.18,0-.36,0-.54,0-2-.8-.49-2-.65-3.41-.28-2.52-.52-2.32-.44-5.28Z" style="fill:#423638;"/><path d="M234.17,239.07c-.02,2.36,1.02,4.2,0,6.52l2.17.54c-.65.12-1.77-.42-2.2.35-.37.66.04,2.81-1.05,2.91-.47-3.06.63-6.72.14-9.62-.2-1.19.26-.63.94-.7Z" style="fill:#423638;"/><path d="M164.65,118.49v.54c-1.37,1.02.57,4.23-1.63,3.8.21-1.17-.3-3.06-.04-4.05.18-.66,1.33-.14,1.66-.29Z" style="fill:#211317;"/><path d="M168.72,60.91c.35.18.35.36,0,.54v-.54Z" style="fill:#423638;"/><path d="M247.76,243.42c3.69-2.2,8.41-1.33,8.71,3.52.05.85.07.94-.83.82l-2.45-3.25c1.45,3.82-3.19,7.79-5.44,4.35-.94-1.44.15-4.95,0-5.43ZM251.55,243.97c-2.32-.28-3.11,1.71-2.64,3.72,2.97,1.48,3.78-1.15,2.64-3.72Z" style="fill:#423638;"/><path d="M248.84,222.24c-2.35-1.72-.8-4.46-.54-6.52,2.52-.9,5.64-2.3,7.61.26,3.45,4.48-3.2,9.1-7.07,6.26ZM248.93,217.43c-2.68,4.38,8.07,5.5,6.35.28-.71-2.15-5.69-1.36-6.35-.28Z" style="fill:#423638;"/><path d="M249.39,197.25c1.93-.42,8.58,4.96,7.06,6.52-1.28.03-7.06-.54-4.89,2.18-.31.1-1.55.5-1.63.54.02-3.38-1.76-2.38-2.17-2.72-1.34-1.12,1.55-.97,1.67-1.38.21-.73.02-4.02-.04-5.14ZM254.27,202.13l-3.8-2.71.52,3.03,3.28-.32Z" style="fill:#423638;"/><path d="M247.76,240.7c.33-.89-1.58-4.53.54-5.98.04.06,1.05-.2,1.1.31.07.71-1.6,3.98.26,4.57,1.99.63,2.08-2.02,1.9-3.26,2.65-.66,1,1.54,2.16,2.46,1.97,1.54,1.83-3.46,1.09-4.62,2.51-.16,2.01,4.84,1.36,5.97-.77,1.33-6.78,1.05-8.42.54Z" style="fill:#423638;"/><path d="M251.56,205.94c4.06-1.26,6.1,2.94,4.53,6.41-.07.14-2.44,1.76-2.6,1.78-1.51.19-3.19-.17-4.65-.59.02-.18-.02-.37,0-.54.05-.35-.04-.73,0-1.09,8.16,2.82,9.25-6.57.54-3.8,0-.06-.61-.7-.54-1.09.27-.21.75-.36,1.09-.54.08-.04,1.32-.45,1.63-.54Z" style="fill:#211317;"/><path d="M252.65,164.11c.18-.03.36.02.54,0v.54c-1.32-.42-1,1.04-1.09,1.09-.64.36-3.65-.61-3.82,1.9.21,2.3,2.46,1.54,3.27,1.9.06.02.43.85.54,1.09.07.14-.05.37,0,.54-3.64.72-6.07-1.95-4.6-5.42.96-2.26,3.44-1.39,5.14-1.64Z" style="fill:#6d6a70;"/><path d="M252.1,171.72c.54.02,1.09-.02,1.63,0-.03,1.04-.51,5.05-.06,5.65.57.76,2,.09,2.24.32.06.06.06,1.57,0,1.63-.2.19-1.8-.27-2.15.05-.29.27.3,1.34-.3,1.58-1.17.48-.63-1.11-.96-1.47-.27-.29-.91-.12-.94-.16-.05-.07-.05-1.56,0-1.63.46-.7,1.47,1.23.54-2.72-.14-.59-.46-1.19-.54-1.63-.09-.48.06-1.11,0-1.63.18,0,.36,0,.54,0Z" style="fill:#211317;"/><path d="M253.73,157.05c.9.05,1.82-.04,2.72,0-.28,3.85,1.38,6.53-3.26,7.06-.18.02-.37-.03-.54,0v-.54c0-.54,0-1.09,0-1.63h.54c.33.54.43.03.54,0,2.49-.66,2.14-3.59-.54-3.26.1-.46-.07-1.12,0-1.63.18,0,.36,0,.54,0Z" style="fill:#423638;"/><path d="M250.47,230.93c-1.45-7.26,6.2-4.27,3.57-.51-.59.85-2.6.44-3.57.51Z" style="fill:#423638;"/><path d="M250.47,186.93c.34,1.06,1.5,2.22,1.09,3.8,2.48.46.36-3.67.54-3.8,2.22-1.57,2.37,4.67,1.57,5.37-.36.31-1.95-.06-2.65.06-1.5.37-.91-.85-1.09-1.09,1.26-.81.25-2.31,0-3.26-.08-.3.05-.74,0-1.09h.54Z" style="fill:#211317;"/><path d="M250.47,182.04c1.08,0,2.18,0,3.26,0v4.34c-1.71.43-1.04-1.69-2.18-2.45-.6-.4-1.17-.14-1.62-.26-1.03-.27-2.86.46-2.71-1.63,1.08,0,2.17,0,3.26,0Z" style="fill:#423638;"/><path d="M249.93,186.93c.05.34-.08.79,0,1.09-3.19.65-.94,1.97,0,3.26.17.24-.42,1.46,1.09,1.09-.28.05-.71.46-1.63.54-.71.07-1.46-.04-2.17,0,.9-2.23-1.39-7.65,2.71-5.97Z" style="fill:#6d6a70;"/><path d="M251.02,177.69h.54c-.05.07-.05,1.56,0,1.63-.76.01-1.53.1-2.17.54-.75.51-.89,1.9-2.17,1.63-.41-2.98.88-4.19,3.8-3.8Z" style="fill:#6d6a70;"/><path d="M253.19,164.66c.85,1.63,1.13,6.14-1.09,5.98-.12-.24-.49-1.06-.54-1.09,1.03-1.21,1.55-2.37.54-3.8.08-.05-.23-1.51,1.09-1.09Z" style="fill:#423638;"/><path d="M268.94,87.53c-.83.91-3.49.91-4.35,0,1.45-.03,2.9.02,4.35,0Z" style="fill:#6d6a70;"/><path d="M260.25,88.07l.54-.54c-.12,0-.41.54-.54.54Z" style="fill:#6d6a70;"/><path d="M241.24,368.35l3.8,1.08c-5.65.61-11.4,1.39-17.08,1.66-.55.03-6.45.27-4.64-1.11l14.92-.57c.84.22,1.66-.99,1.91-1.06.23-.07.78-.03,1.09,0Z" style="fill:#6d6a70;"/><path d="M163.56,96.76h-1.09c.17-.45.62-2.53.61-3.01-.02-.85-3.4-2.19,1.01-4.06-.15,1.85.23,3.94.03,5.75-.08.71-.56,1.22-.57,1.31Z" style="fill:#211317;"/><path d="M163.56,97.85c1.23,2.75.23,6.28.54,9.23-1.03-.03-1.11.37-.94-.69.34-2.04-.18-3.73-.15-5.82.02-1.39.49-2.21.54-2.72Z" style="fill:#211317;"/><path d="M163.02,113.06c-3.09,3.85-3.41,2.23-1.1-1.23.34-.5,1.14-.59,1.35-.94.63-1.03-.26-2.64.83-2.72.14,2.77.41,3.03-1.08,4.89,1.89-.54,1.41,3.03,1.11,4.02-.17.55-1.02.18-1.48.5-.39.27.14,1.13-.71.91l1.08-5.43Z" style="fill:#211317;"/><path d="M163.56,96.76c-.04.35.04.73,0,1.09-.06.5-.52,1.32-.54,2.72-4.06-.65-1.3-1.77-.54-3.8h1.09Z" style="fill:#6d6a70;"/><polygon points="164.11 147.82 163.13 142.66 164.11 139.13 164.11 147.82" style="fill:#211317;"/><path d="M158.13,107.08l3.25.27c-1.03,1.54-3.07,2.2-3.25-.27Z" style="fill:#6d6a70;"/><path d="M159.76,102.19c.12-.1-.38-2.4,1.63-.27-.12.63-1.45.08-1.63.27-.35.39.93,2.23-1.63,1.63-.57-2.57,1.18-1.26,1.63-1.63Z" style="fill:#6d6a70;"/><path d="M161.39,128.81c.59.59-.49,1.67-1.08,1.08s.49-1.67,1.08-1.08Z" style="fill:#211317;"/><path d="M164.1,324.89h-.53c-.27-2.26.8-2.26.53,0Z" style="fill:#211317;"/><path d="M161.56,234.05c.16.33,1.15-.19.91.67-1.49.65-2.53-1.8-2.71-3.25,1.91-.16,1.33,1.61,1.8,2.58Z" style="fill:#211317;"/><path d="M168.99,41.36c.59.59-.49,1.67-1.08,1.08s.49-1.67,1.08-1.08Z" style="fill:#211317;"/><path d="M167.63,45.17c.3.35,1.09.71.55,1.06-.26-.32-1.09-.69-.55-1.06Z" style="fill:#211317;"/><path d="M167.09,46.24c.35.18.35.36,0,.54v-.54Z" style="fill:#211317;"/><path d="M161.66,69.06c.35.18.35.36,0,.54v-.54Z" style="fill:#211317;"/><path d="M160.3,351.51c-.19.37-.92-.32-.53-1.08.19-.37.92.32.53,1.08Z" style="fill:#211317;"/><path d="M179.32,381.39c.16.03.38.02.54,0l-.27.53-.27-.53Z" style="fill:#423638;"/><path d="M160.58,306.43c.35.18.35.36,0,.54v-.54Z" style="fill:#211317;"/><path d="M159.49,340.65c.35.18.35.36,0,.54v-.54Z" style="fill:#211317;"/><path d="M253.19,157.05c-.07.51.1,1.17,0,1.63-.31,1.35-.52,1.6-.54,3.26,0,.54,0,1.09,0,1.63-1.93-.39-1.46-4.17-1.63-4.34-.19-.2-3.06.14-3.8,0,.07-.44-.11-1.51,0-1.62.25-.27,5.06-.53,5.98-.55Z" style="fill:#6d6a70;"/><path d="M251.56,171.72c.06.52-.09,1.15,0,1.63-5.39,1.28-6.49-1.72,0-1.63Z" style="fill:#6d6a70;"/><path d="M249.39,208.11c-.08,1.01-.41,2.53-.54,3.8-.04.35.05.74,0,1.09-2.12-1.3-1.9-4.49,0-5.98-.07.38.55,1.03.54,1.09Z" style="fill:#423638;"/><path d="M252.1,174.98c.93,3.95-.08,2.01-.54,2.72h-.54c-.02-1.02.15-2.13,1.09-2.72Z" style="fill:#ef9e04;"/><path d="M195.48,123.52c14.51-2,15.48,17.05,1.95,17.58-12.61.49-13.63-15.97-1.95-17.58Z" style="fill:#6d6a70;"/><path d="M206.47,149.99c2.34,12.88-10.18,13.29-8.69.54l8.69-.54Z" style="fill:#6d6a70;"/><path d="M197.84,191.33c5.31-.58,10.32-3.04,9.04,4.43-1.61,9.37-11.49,3.35-9.04-4.43Z" style="fill:#6d6a70;"/><path d="M194.38,279.94c4.13-.69,12.1-.36,12.63,5.08.76,7.88-12.3,9.84-17.1,6.2-5.31-4.02-1.09-10.35,4.48-11.28Z" style="fill:#6d6a70;"/><path d="M195.61,213.54l10.32,3.81c-2.67,2.26-7,3.9-10.32,4.88v-8.69Z" style="fill:#6d6a70;"/><path d="M196.58,259.32c4.66-.43,11.12,1.22,10.42,7.13-.93,7.82-19.57,8.67-19.55.05.01-4.96,4.96-6.8,9.13-7.18Z" style="fill:#6d6a70;"/><path d="M206.47,105.45c2.06,12.86-11.1,12.49-9.23,0h9.23Z" style="fill:#6d6a70;"/><polygon points="193.44 239.07 205.93 248.3 193.44 248.85 193.44 239.07" style="fill:#6d6a70;"/><path d="M212.59,341.59c-4.61-4.34,4.65-14.01,5.79-5.51.3,2.23.28,5.54-2.52,6.11-.98.2-2.52.1-3.26-.59Z" style="fill:#6d6a70;"/><path d="M201.59,344.99c1.21,9.36-7.91,9.77-6.52,0h6.52Z" style="fill:#6d6a70;"/><path d="M251.55,243.97c1.14,2.57.34,5.2-2.64,3.72-.47-2.01.31-4,2.64-3.72Z" style="fill:#ef9e04;"/><path d="M248.93,217.43c.66-1.08,5.64-1.87,6.35.28,1.72,5.22-9.03,4.1-6.35-.28Z" style="fill:#ef9e04;"/><polygon points="254.27 202.13 251 202.45 250.48 199.42 254.27 202.13" style="fill:#ef9e04;"/><path d="M249.39,208.11c8.71-2.76,7.62,6.62-.54,3.8.14-1.27.46-2.8.54-3.8Z" style="fill:#ef9e04;"/><path d="M252.1,165.74c1.01,1.43.49,2.6-.54,3.8-.81-.36-3.06.4-3.27-1.9.17-2.52,3.17-1.55,3.82-1.9Z" style="fill:#f2b671;"/><path d="M253.19,158.68c2.68-.33,3.04,2.59.54,3.26h-1.09c.02-1.66.24-1.91.54-3.26Z" style="fill:#ef9e04;"/><path d="M253.19,161.94h.54c-.12.03-.22.54-.54,0Z" style="fill:#6d6a70;"/><path d="M249.93,188.01c.25.95,1.26,2.45,0,3.26-.94-1.29-3.19-2.61,0-3.26Z" style="fill:#f2b671;"/></g></svg>