<?xml version="1.0" encoding="UTF-8"?><svg id="Capa_2" xmlns="http://www.w3.org/2000/svg" viewBox="0 0 131.53 800.62"><g id="Layer_1"><path d="M6.27,220.1c15.81,4.34,75.61,19.8,85.89,12.2,1-.74-.49-9.41-.04-12.2l24.53,6.11c-1.02.94.94,4.61,0,6.11l-6.13,12.22c-21.84,66.06-5.08,322.89-6.03,412.38-.11,10.33,3.92,27.17-6.24,33.51-1.06-18.59-3.07-88.57-5.99-99.57-1.65-6.22-12.38-5.78-15.27-10.41-6.71-10.72,3.19-33.17-18.41-24.22-19.42,8.05-20.62,117.64-15.61,136.38,1.68,6.26,11.98,3.42,12.37,3.94,3.19,4.21-27.14,108.72,18.4,79.41,23.11-14.87,8.49-49.46,12.33-73.27l12.2,36.62c.12,3.19,9.08,8.87,5.15,25.91-9.14,39.69-58.86,51.19-72.45,7.53l-.03-500.84c-.27-22.6-17.54-30.36-24.66-51.79ZM85.95,244.56h-42.87s6.18,30.47,6.18,30.47c9.63,1.92,5.55-10.9,12.09-15.32,10.62-7.18,28.96,5.26,24.6-15.15Z" style="fill:#12c5b7;"/><path d="M98.25,146.8c19.85-16.68,11.3-57.59,12.26-82.52.29-7.48-4.65-22.68,6.13-21.32v155.76c0,9.51-20.98-.62-24.53,21.38-.45,2.8,1.04,11.47.04,12.2-10.28,7.59-70.07-7.86-85.89-12.2-1.45-4.38,1.03-12.82,0-18.32,40.18-7.64,8.17-30.47,6.13-36.65-.6-1.82-5.71-33.16-6.13-36.65-.48-3.97.34-8.21,0-12.22,26.62,4.47,6.75-27.73,6.13-36.65-.41-5.96-.23-12.34,0-18.32l18.4-6.11c.31,31.38,5.85,60.52,6.16,91.66,4.01-.24,8.23.38,12.23-.04,6.77-.7,13.92-5.72,21.61-5.48,9.87.3,8.59,8.24,21.32,5.48,2.2-.47,5.22.77,6.13,0Z" style="fill:#05baab;"/><path d="M55.32,696.53c-.39-.52-10.69,2.33-12.37-3.94-5.01-18.74-3.81-128.32,15.61-136.38,21.6-8.95,11.7,13.5,18.41,24.22,2.9,4.63,13.63,4.2,15.27,10.41,2.92,11,4.93,80.98,5.99,99.57.92,16.16-.62,32.67,0,48.86l-12.2-36.62c-3.84,23.81,10.78,58.39-12.33,73.27,7.65-17.48,19.29-101.93-18.4-79.41Z" style="fill:#02bdaf;"/><path d="M98.25,146.8c-.85-21.48-1.21-142.99,15.42-146.56,6.87-1.48,12.41,4.19,14.27,10.1,4.68,14.94,4.38,184.26,1.47,207.14-1.86,14.65-10.8,6.92-12.77,8.73l-24.53-6.11c3.55-22,24.53-11.86,24.53-21.38V42.96c-10.78-1.37-5.84,13.83-6.13,21.32-.97,24.93,7.59,65.84-12.26,82.52Z" style="fill:#36c5b6;"/><path d="M92.11,146.8c-12.72,2.75-11.45-5.18-21.32-5.48-7.69-.24-14.84,4.78-21.61,5.48C65,99.44,44.07,46.29,64.58.14c10.03-.85,13.69,6.89,15.23,15.37,5.24,28.94-2.45,72.53-.32,104.13.77,11.37-1.47,22.87,12.62,27.15Z" style="fill:#4ecec0;"/><path d="M12.4,165.12c2.04,6.18,34.05,29.01-6.13,36.65-2.62-13.94-5.8-18.22-6.13-36.65h12.26Z" style="fill:#12c5b7;"/><path d="M12.4,79.61c.61,8.91,20.48,41.12-6.13,36.65-1.04-12.3-2.61-26.53,6.13-36.65Z" style="fill:#51cec2;"/><path d="M12.4,165.12H.14c-.23-12.77-.95-25.22,6.13-36.65.42,3.48,5.53,34.83,6.13,36.65Z" style="fill:#51cec2;"/><path d="M30.8,42.96c-.14,4.05-.04,8.16,0,12.22l-18.4,6.11c.44-11.42,4.87-13.46,6.13-18.32h12.26Z" style="fill:#51cec2;"/><path d="M30.8,24.64c-.89,5.39.2,12.38,0,18.32h-12.26c2.12-8.17,2.23-10.11,6.13-18.32h6.13Z" style="fill:#05baab;"/><path d="M24.66,24.64c1.71-3.6-3.57-10.1,3.13-12.25,18.54-5.97,3.19,11.13,3,12.25h-6.13Z" style="fill:#8dd9d2;"/><path d="M110.51,244.53l6.13-12.22c-.51.81-5.92,11.57-6.13,12.22Z" style="fill:#36c5b6;"/><path d="M73.72,775.93c-45.53,29.31-15.2-75.2-18.4-79.41,37.69-22.52,26.05,61.93,18.4,79.41Z" style="fill:#eaf5f4;"/><path d="M85.95,244.56c4.36,20.41-13.98,7.97-24.6,15.15-6.54,4.42-2.46,17.25-12.09,15.32l-6.18-30.46h42.87Z" style="fill:#05baab;"/></g></svg>