<?xml version="1.0" encoding="UTF-8"?><svg id="Capa_2" xmlns="http://www.w3.org/2000/svg" viewBox="0 0 220.37 497.5"><g id="Layer_1"><path d="M172.22,330.01c5.68-.22,11.52-.14,17.21,0,4.29.11,8.63-.24,12.91,0,3.39,54.65,4.6,108.24,0,162.86-12.57.22-23.93-.62-38.72,0l-4.3-162.86c4.24-.37,8.64.17,12.91,0Z" style="fill:#757b94;"/><path d="M56.06,0c13.61,49.86,4.19,99.44,4.33,150.02l-30.14,4.26c-2.8.08-5.96-.4-8.6,0l.04-149.96C33.4,6.17,45.16-.06,56.06,0Z" style="fill:#757b94;"/><path d="M43.15,364.29c3.39-.25,12.36.71,12.92.04,1.34-1.61-.97-13.06,0-17.22,10.47-.89,16.93-1.56,21.5,8.61.11,1.81,3.96,8.24,4.3,17.14-8.7-4.68-16.43,19.15-17.21,25.71,5.74.02,11.47-.01,17.21,0,.73,32.76-.51,65.78-.03,98.56-5.39,1.9-8.1-4.2-8.58-4.27l-.04-10.84c-23.6,4.01-50.14,4.39-73.1-2.02.25-18.8.21-36.99,0-55.72,9.23-1.15,24.22-.52,21.51-12.86.66.68,6.63-1.34,9.25.42,14.62,9.88,20.99,15.55,42.39,12.41,5.69-16.84-9.84-15.44-8.62-25.69-5.68-.02-11.57.42-17.21,0,7.21-13.32-1.3-21.56-4.3-34.29ZM35.44,444.81c-1.63-.94-8.45-19.95-18.09-11.93-8.91,7.42,8.14,8.34,8.62,10.73,2.31,11.43-9.79,2.05-8.62,10.64l34.38.02c3.04-14.68-9.34-5.43-16.29-9.46Z" style="fill:#dec5c5;"/><path d="M21.64,171.43l-4.26,17.14c8.78-10.6,12.7-12.7,25.77-17.14,6.24-.21,22.59-10.88,34.42,0-.18,3.9.18,14.49,0,21.43-6.08,2.35-3.38,8.61-4.3,12.86-15.05,10.21-46.77.83-23.13-7.67,4.41-1.59,12.45,10.87,10.2-5.16-19.53-5.89-35.99,10.79-25.79,29.98-8.97,6.79-16.22,34.23-34.42,34.29.03-31.84,4.47-64.22,4.3-94.29h4.3c3.8,1.53,10,7.96,12.91,8.57Z" style="fill:#dab4b1;"/><path d="M185.13,141.43c13.79,19.83-1.52,156.09,4.3,188.57-5.69-.14-11.53-.22-17.21,0l4.3-192.86c1.64.46,8.16,3.65,8.6,4.29Z" style="fill:#2c2d2d;"/><path d="M34.55,222.86c8.49-6.42,20.58-8.05,17.21,4.29l-4.32,25.73c15.59.4,32.2-5.91,26.08,14.68-2.13,7.18-17.68,2.9-21.75,2.45-.52-.06-2.36-5.16-9.77-3.85-6.09,1.08-8.41,6.31-11.74,8.14-1.51.83-5.96-.55-8.57.04v4.2c19-1.9,28.64.35,25.78,21.47-8.3,1.2-21.14.29-30.12,0-2.82-.09-5.88.36-8.6,0-1.95-.25-3.73-2.34-4.3-4.29,0-2.85-.1-5.72,0-8.57,6.98-2.36,6.04-13.49,0-17.14,0-.68-4.31-4.28-4.3-12.86,18.2-.05,25.45-27.5,34.42-34.29Z" style="fill:#b06e71;"/><path d="M159.32,330.01l4.3,162.86c-30.05,1.26-20.71-15.25-21.51-38.57,7.13-4.46,4.29-16.26,4.38-23.51.39-31.22,3-66.65-4.38-96.49,6.38-6.68,9.94-3.66,17.21-4.29Z" style="fill:#b3b4c5;"/><path d="M77.57,214.29v8.57c.27,23.49,2.37,41.6,4.3,64.29-3.67-.2-6.31,3.37-8.6,4.29-7.19,2.87-18.67,7.54-25.81,8.57,2.86-21.12-6.78-23.38-25.79-21.47v-4.2c2.63-.59,7.08.79,8.58-.04l21.51-4.29c4.07.46,19.62,4.73,21.75-2.45,6.12-20.59-10.48-14.28-26.08-14.68l4.32-25.73c10.69-18.26,14.68,10.17,21.51-21.43.92-4.25-1.78-10.5,4.3-12.86-.18,7.13.04,14.29,0,21.43Z" style="fill:#cc807e;"/><path d="M73.27,291.43c.91,5.72,3.71,11.41,4.3,17.14.43,4.2-.19,8.62,0,12.86-9.43,9.25-25.08,3.79-31.65,5.55-7.62,2.04-11.92,7.68-28.59,11.59-1.25.29-2.82-.14-4.3,0,1.5-10.19,3.77-19.58,4.3-30,.15-2.84-.1-5.72,0-8.57,8.98.29,21.81,1.2,30.12,0,7.15-1.03,18.62-5.7,25.81-8.57Z" style="fill:#6e4549;"/><path d="M.13,351.43c7.35,3.09,15.26,3.19,12.91,12.86-2.65-.44-5.81.2-8.58.02-2.67,20.36,10.64,15.02,24.63,15.96,11.4.77,3.44-9.39,5.46-15.98,1.41-.1,2.94.23,4.3,0,1.37-.23,2.89.1,4.3,0,3,12.73,11.51,20.97,4.3,34.29-11.51-.86-22.54-5.86-34.4-4.24l.02,4.17c12.24-2.59,7.62,11.94,8.57,12.92,2.71,12.34-12.28,11.7-21.51,12.86-.27-24.22-.02-48.63,0-72.86Z" style="fill:#d9bcb9;"/><path d="M73.27,8.57c-6.74,27.46-5.77,63.68-4.53,92.42.41,9.47,4.47,13.95,4.53,14.72.32,4.24-.36,8.62,0,12.86.73,8.45-.5,17.22,0,25.71-14.65.54-28.47-.43-43.02,0l30.14-4.26C60.25,99.44,69.67,49.86,56.06,0c10.35.06,11.89.04,17.21,8.57Z" style="fill:#9194ae;"/><path d="M77.57,355.72c-4.56-10.17-11.02-9.49-21.5-8.61-.97,4.16,1.34,15.6,0,17.22-.56.67-9.53-.29-12.92-.04-1.41.1-2.93-.23-4.3,0,2.95-16.65-25.91-.37-21.51-25.71,16.67-3.91,20.97-9.55,28.59-11.59,6.57-1.76,22.21,3.7,31.65-5.55.51,11.36-.68,22.95,0,34.29Z" style="fill:#d7a19b;"/><path d="M202.34,330.01c5.72.31,11.53-.33,17.23,0,.23,2.83-.17,5.72-.02,8.56-13.03-2.39-8.28,6.56-8.61,14.81-1.42,35.93.31,70.75,4.3,105.2,1.16,10.04.44,19.75,4.33,29.91-5.73.28-11.79,4.28-17.23,4.37,4.6-54.62,3.39-108.21,0-162.86Z" style="fill:#9194ae;"/><path d="M8.73,158.57v4.29h-4.3c-.03-5.13-4.3-19.6-4.3-27.86V10.71c0-.73,5.8-6.74,8.56-6.43l.04,154.29Z" style="fill:#9194ae;"/><path d="M172.22,85.72c3.84,14.74,0,30.29,17.21,25.71,3.25,12.44,21.11,24.15-4.3,30-.44-.63-6.96-3.83-8.6-4.29-3.21-.89-11.61,1.32-12.8-.04-1.64-1.87-.91-42.61-.29-49.6.5-5.69,4.37-9.38,4.49-10.36,4.12,1.62,3.44,5.25,4.3,8.57Z" style="fill:#686b87;"/><path d="M219.55,338.58c1.61,31.01.41,65.12.07,96.49-.08,7.24,2.75,19.06-4.38,23.51-3.99-34.45-5.73-69.27-4.3-105.2.33-8.25-4.43-17.2,8.61-14.81Z" style="fill:#757b94;"/><path d="M73.27,115.72c-.06-.77-4.13-5.25-4.53-14.72-1.23-28.75-2.21-64.97,4.53-92.42,9.6,15.4,5.13,86.27,0,107.14Z" style="fill:#686b87;"/><path d="M30.24,154.29c14.55-.43,28.37.54,43.02,0,.45-.02,2.61,3.59,4.3,4.29-.1,4.28.2,8.59,0,12.86-11.83-10.88-28.18-.21-34.42,0-6.07.21-16.38,1.08-21.51,0-2.91-.61-9.1-7.04-12.91-8.57v-4.29c4.54.25,9.49-3.77,12.91-4.29,2.65-.4,5.8.08,8.6,0Z" style="fill:#555;"/><path d="M189.43,81.43l-17.21,4.29c-.87-3.32-.18-6.95-4.3-8.57.34-2.76-.48-5.96,0-8.57,1.83-9.94,6.05-19.46,4.3-30,23.46-5.45,17.34,26.86,17.21,42.86Z" style="fill:#555;"/><path d="M142.11,454.29c-1.17-33.88-7.17-72.72-4.56-105.38.57-7.13-1.08-8.72,4.56-14.62,7.38,29.84,4.77,65.27,4.38,96.49-.09,7.25,2.76,19.05-4.38,23.51Z" style="fill:#757b94;"/><path d="M.13,480.01c22.96,6.41,49.49,6.03,73.1,2.02l.04,10.84c-12.06-1.64-70.43,2.43-73.17,0-.06-4.27-.03-8.57.02-12.86Z" style="fill:#686b87;"/><path d="M13.03,338.58c1.48-.14,3.05.29,4.3,0-4.4,25.34,24.46,9.07,21.51,25.71-1.37.23-2.89-.1-4.3,0-11.81.81-8.69,2.14-21.51,0,2.35-9.66-5.56-9.76-12.91-12.86,0-2.86,0-5.71,0-8.57,2.47-.08,3.95-4.21,4.3-4.29,2.44-.53,5.79.26,8.6,0Z" style="fill:#dec5c5;"/><path d="M189.43,81.43c-.01,1.43,0,2.86,0,4.29,0,2.46-2.13.7,0,12.86.69,3.94-.91,9.38,0,12.86-17.21,4.58-13.37-10.98-17.21-25.71l17.21-4.29Z" style="fill:#2c2d2d;"/><path d="M81.87,372.86c.33,8.54-.19,17.16,0,25.71-5.74-.01-11.47.02-17.21,0,.78-6.57,8.51-30.39,17.21-25.71Z" style="fill:#d9bcb9;"/><path d="M73.27,128.57c19.16-3.39,4.46,23.28,4.3,30-1.69-.69-3.86-4.3-4.3-4.29-.5-8.49.73-17.26,0-25.71Z" style="fill:#dec5c5;"/><path d="M167.92,68.57c-16.72,5.68-5.41-27.74,4.3-30,1.75,10.54-2.47,20.06-4.3,30Z" style="fill:#686b87;"/><path d="M8.73,300v8.57c0,4.08.63,9.21,0,12.86-1.98.58-3.98,2.31-4.3,4.29-.44,2.7.29,5.8,0,8.57H.13c.03-13.64,4.3-31.22,4.3-38.57.57,1.94,2.35,4.03,4.3,4.29Z" style="fill:#2c2d2d;"/><path d="M81.87,287.15c.56,6.56,2.04,18.14-4.3,21.43-.59-5.74-3.39-11.42-4.3-17.14,2.3-.92,4.94-4.49,8.6-4.29Z" style="fill:#dec5c5;"/><path d="M189.43,98.57c-2.13-12.16,0-10.4,0-12.86,5.31,4.24,5.22,8.57,0,12.86Z" style="fill:#686b87;"/><path d="M4.43,287.15c.19-5.69.01-11.44,0-17.14,6.04,3.66,6.98,14.79,0,17.14Z" style="fill:#cc807e;"/><path d="M4.43,338.58c-.36.08-1.83,4.21-4.3,4.29,0-2.86,0-5.71,0-8.57h4.3v4.29Z" style="fill:#b06e71;"/><path d="M77.57,222.86v-8.57c-.01,2.08-.02,6.46,0,8.57Z" style="fill:#dec5c5;"/><path d="M47.45,398.58c5.64.42,11.53-.02,17.21,0-1.22,10.26,14.3,8.85,8.62,25.69-21.4,3.14-27.77-2.53-42.39-12.41-2.62-1.77-8.59.26-9.25-.42-.94-.98,3.67-15.51-8.57-12.92l-.02-4.17c11.86-1.61,22.88,3.38,34.4,4.24Z" style="fill:#978687;"/><path d="M35.44,444.81c6.95,4.03,19.33-5.22,16.29,9.46l-34.38-.02c-1.16-8.59,10.93.8,8.62-10.64-.48-2.39-17.53-3.31-8.62-10.73,9.64-8.03,16.46,10.99,18.09,11.93Z" style="fill:#d9bcb9;"/><path d="M34.55,222.86c-10.2-19.18,6.26-35.87,25.79-29.98,2.25,16.04-5.79,3.58-10.2,5.16-23.64,8.5,8.08,17.88,23.13,7.67-6.83,31.6-10.82,3.17-21.51,21.43,3.37-12.33-8.72-10.71-17.21-4.29Z" style="fill:#d7a19b;"/><path d="M43.15,171.43c-13.07,4.45-16.99,6.54-25.77,17.14l4.26-17.14c5.13,1.08,15.44.21,21.51,0Z" style="fill:#cc807e;"/><path d="M51.75,270l-21.51,4.29c3.33-1.83,5.65-7.06,11.74-8.14,7.41-1.31,9.25,3.79,9.77,3.85Z" style="fill:#6e4549;"/><path d="M17.34,300c-.1,2.85.15,5.73,0,8.57h-8.6v-8.57c2.73.36,5.79-.09,8.6,0Z" style="fill:#686b87;"/><path d="M17.34,308.58c-.54,10.42-2.8,19.81-4.3,30-2.81.26-6.16-.53-8.6,0v-4.29c.29-2.78-.44-5.87,0-8.57,2.05-.52,3.95-2.26,4.3-4.29.63-3.65,0-8.78,0-12.86h8.6Z" style="fill:#978687;"/><path d="M13.03,364.29c12.83,2.14,9.7.81,21.51,0-2.03,6.59,5.94,16.75-5.46,15.98-13.99-.94-27.3,4.4-24.63-15.96,2.77.18,5.92-.46,8.58-.02Z" style="fill:#686b87;"/><path d="M4.43,325.72c.32-1.98,2.33-3.71,4.3-4.29-.35,2.03-2.25,3.77-4.3,4.29Z" style="fill:#555;"/></g></svg>