<?xml version="1.0" encoding="UTF-8"?><svg id="Capa_2" xmlns="http://www.w3.org/2000/svg" viewBox="0 0 516.45 595.01"><defs><style>.cls-1{fill:#657593;}.cls-2{fill:#8293b0;}.cls-3{fill:#546481;}.cls-4{fill:#2e404b;}.cls-5{fill:#50617c;}.cls-6{fill:#4c5e6b;}.cls-7{fill:#96a2bd;}.cls-8{fill:#556673;}.cls-9{fill:#5e707c;}.cls-10{fill:#b3bfc7;}.cls-11{fill:#778895;}.cls-12{fill:#9baac4;}.cls-13{fill:#8a99b7;}.cls-14{fill:#7d8caa;}.cls-15{fill:#3e4c6a;}.cls-16{fill:#3c3c3b;}.cls-17{fill:#5c6d8a;}.cls-18{fill:#71819e;}.cls-19{fill:#223542;}.cls-20{fill:#6a7c89;}.cls-21{fill:#374a57;}</style></defs><g id="Layer_1"><path class="cls-8" d="M38.32,332.44c2.65-.18,5.77-.26,8.39,0,2.67.27,6.79-.68,8.39,0,3.15,1.34,32.83,17.78,37.74,20.88,5.63,3.57,16.28,15.08,20.96,20.88-7.19-.79-17.06.67-16.87,10.29.04,1.77,11.34,31.61,12.25,33.2,2.71,4.77,8.18,1.8,8.81,2.45,2.32,2.38,3.66,8.93,4.19,12.53,7.09,47.48,35.71,60.22,48.42,100.06,2.65,8.32,2.23,16.72,1.89,25.24h-4.19c-5.42-7.9-13.34-19.86-20.96-25.06-17.21-22.81-18.87-66.36-46.1-77.48-6.09-2.49-13.32-.65-16.8-1.88-.87-.31-8.05-3.85-8.39-4.18-1.58-1.51-23.15-34.56-24.06-36.6-7.29-16.45.9-63.14-26.29-40.56-.66,3.87,14.46,20.91,8.4,27.02-9.94,10.02-14.55-10.66-16.7-13.72-1.75-2.5-6.79-2.83-7.29-3.97-3.57-8.12-.86-29.81-1.15-40.76-.04-1.39.03-2.79,0-4.18,10.11.69,19.44-3.52,29.35-4.18Z"/><path class="cls-12" d="M294.09,6.65v8.35c-20.79-4.34-50.24-6.21-71.28-4.18-8.1.78-9.55-2.93-8.39,8.35-1.37.2-2.85-.24-4.19,0s-2.86-.29-4.19,0c-15.27,3.27-20.2,6.33-33.54,12.53-20.77,9.65-21.08,10.06-37.74,25.06-5.19,4.67-25.66,22.91-28.07,26.31-.85,1.2-13.29,24.61-13.79,26-3.23,8.94,9.47,5.15,12.51,10.35-21.64,20.49-25.72,55.34-29.35,83.54h-16.77c.27-2.74-.28-5.62,0-8.35,2.4-23.45,14.23-75.85,25.16-96.07,3.09-5.71,33.83-37.41,29.33-41.75l-46.1,25.04c3.44-15.43,24.38-27.51,37.19-36.05C167.86,3.79,220.48-9.48,294.09,6.65Z"/><path class="cls-9" d="M8.97,340.79c.29,10.95-2.42,32.64,1.15,40.76.5,1.14,5.53,1.47,7.29,3.97,2.15,3.06,6.76,23.74,16.7,13.72,6.07-6.11-9.05-23.16-8.4-27.02,27.2-22.58,19,24.12,26.29,40.56.9,2.04,22.47,35.09,24.06,36.6-3.93,12.96-17.04,22.21,4.19,25.06-.63.82,1.52,6.27-.45,7.72-4.17,3.07-21.31-3.19-24.54,7.28-3.01,9.78,7.63,15.93,8.22,18.41,1.1,4.69-1.33,12.71,0,16.71-13.95-14.4-24.54-38.43-32.95-56.98C13.23,429.48-.49,398.1.6,355.21c.21-8.03-4.25-16.75,8.37-14.41Z"/><path class="cls-3" d="M398.92,273.97c.11,5.56-.16,11.15,0,16.71.27,9.35-2.95,21.37,8.39,25.06-.23,1.35.23,2.82,0,4.18-6.07,35.89-13.81,73.18-16.77,108.6-.86,10.33-3.67,19.77-4.19,29.24-12.77-2.03-7.15,3.51-8.39,12.53s-1.55,15.81-4.19,25.06c-3.89,13.59-13.87,23.68-16.76,31.35-.29.77,4.71.24,8.37,10.42-10.1,1.24-19.26,7.3-29.35,8.35-13.06,1.36-15.45-1.26-25.16-4.18l39.77-25.12c20.84-19.37,15.05-48.93,18.93-75.12,4.81-32.43,18.05-56.05,20.9-89.98.41-4.82.26-9.67.05-14.46-2.77-.22-5.6.18-8.37.02,1.08-7.34,5.24-33.95,2.42-37.82-10.67-9.37-23.82.13-35.97.23v-4.18c13.98-9.77,33.37-18.84,50.32-20.88Z"/><path class="cls-21" d="M147.34,532.92c7.63,5.2,15.55,17.16,20.96,25.06,2.77,4.04.2,14.05,12.58,12.53.59,4.32.77,10.73-4.19,12.53-1.84-.31-8.08-.28-8.39,0-3.83-18.84-45.36-29.42-60.7-29.39-6.32.01-12.31-2.69-10.55,6.36l16.74,23.03c-25.69-16.81-39.94-27.15-50.32-58.47-1.33-4,1.1-12.01,0-16.71,12.43,4.4,36.9-.96,46.22,1.62,2.17.6,33.49,20.61,37.64,23.44Z"/><path class="cls-20" d="M130.57,403.45c3.79,5.67,8.84,11.03,12.58,16.71,6.16,9.35,9.63,15.42,16.77,25.06,5.47,7.38,2.68,13.82,16.77,20.88,5.72,2.87,6.25,2.62,12.58,0,1.28,4.11,8.95,17.59,12.58,29.24-27.73-12.71-16.94,31.95-4.11,39.89,5.73,3.54,11.81-2.17,16.69-2.29l4.19,12.53c-2.93,4.97-2.47,8.76-8.39,16.71-33.76-1.63-22.95-24.27-31.78-45.61l-56.27-83.87c-.54-3.6-1.87-10.15-4.19-12.53,1.92-8.54,1.87-19.24,12.58-16.71Z"/><path class="cls-15" d="M369.57,441.04c-3.88,26.19,1.91,55.75-18.93,75.12l-39.77,25.12c-2.39-.72-6-2.81-8.39-4.18l-16.77-37.59c4.69-5.54,3.75-12.08,4.23-12.54,1.81-1.69,37.82,21.93,37.7-12.52,1.45-.31,3.17.45,4.19,0,19.34-8.43,11.67-11.94,16.77-16.71,3.17-2.97,16.36-8.33,20.96-16.71Z"/><path class="cls-20" d="M470.2,353.32c19.3-2.5-.47,31.33,4.19,45.94-1.84,8.53-2.38,22.58-4.19,33.41-1.64,9.8-11.58,34.81,4.19,29.24,6.74-2.38,27-60.87,29.35-71h8.39c-2.62,12.25-7.92,23.85-10.71,37.48-2.8,13.71-6.2,17.96-6.24,19.17-.1,3.52,4.65,8.57,4.56,12.02-.04,1.68-4.29-4.2-4.29,16.63,0,.98-4.38,3.71-8.48,14.93l-20.96-4.18c1.09-6.21-.72-14.27-.04-20.88-3.39-4.82-11.15,17.76-12.54,20.88-9.28-4.08-.4-14.26-2.05-20.8-6.22,3.4-4.17,10.89-7.64,15.46-1.59,2.1-6.75.74-7.07,1.17,10.76-28.34,20.73-53.11,25.16-83.54.39-2.67-.36-5.67,0-8.35,10.35-10.06,7.57-24.93,8.39-37.59Z"/><path class="cls-6" d="M55.09,294.85c10.35,26.85,11.41,6.52,16.77,4.18.85-.37,11.93-4.05,12.58-4.18,1.31-.25,2.83.07,4.19,0,16.44-.89,11.48,6.49,15.65,8.35,5.13,2.29,9.63,2.57,13.7,4.18l4.18,8.3-20.95,4.26c-3.17,8.73,6.75,9.64,8.38,12.5.82,1.44-.55,5.9,0,8.35-1.76-.85-6.12.78-8.39,0-3.94-19.79-18.19-19.85-33.54-16.71-7.44,1.52-14.91-4.58-12.58,8.35-1.6-.68-5.72.27-8.39,0,2.33-13.08-10.96-12.41-8.39,0-9.91.66-19.25,4.86-29.35,4.18-.22-11.09-.14-22.32,0-33.41l8.39-4.18c2.67,25.66,16.18,15.04,37.72,16.68-6.37-10.26-.45-16.33.01-20.85Z"/><path class="cls-9" d="M122.18,432.68l56.27,83.87c8.83,21.34-1.98,43.98,31.78,45.61-7.43,9.98-9.77,24.06-27.23,24.76-3.28.13-5.36-3.71-6.31-3.87,4.97-1.8,4.78-8.21,4.19-12.53-.87-6.4-1.95-9.89-8.39-12.53.34-8.53.76-16.92-1.89-25.24-12.71-39.84-41.33-52.58-48.42-100.06Z"/><path class="cls-18" d="M67.67,81.83l46.1-25.04c4.5,4.34-26.24,36.03-29.33,41.75-45.53,9.9-55.21,64.55-58.7,104.42-1.4.65-2.71,3.08-4.19,4.18h-4.19c7.25-46.88,12.17-90.62,50.32-125.3Z"/><path class="cls-11" d="M507.94,315.73c-1.61.91-2.99,3.71-4.19,4.18-2.23.86-6.19-2.62-8.36,2.94-4.4,11.26-2.28,27.88-4.22,38.83-11.73-3.9-9.15,16-11.84,28.15-1.11,5.03-4.82,8.92-4.94,9.44-4.66-14.62,15.11-48.44-4.19-45.94.09-1.42,3.06-3.95,3.09-7.05s-3.05-4.89-3.09-5.48c-1.26-19.82.4-32.51-12.58-50.12,2.66,0,6.21-.5,8.39,0,22.85,5.28,19.19,29.24,23.06,29.28,12.91-16.59,1.91-14.83-4.84-22.47-2.03-2.3-1.03-6.42-1.45-6.81l8.39-8.35c3.12,11.06,11.06,18.78,16.77,33.41Z"/><path class="cls-13" d="M415.69,86.01l-12.58,4.18c-23.26-31.43-70.23-67.08-109.02-75.18V6.65c63.16,13.84,82.9,29.74,121.6,79.36Z"/><path class="cls-7" d="M466.01,186.25l-12.58,4.18c-8.05-23.22-15.56-31.29-25.16-50.12-8.57-16.81-11.57-31.75-25.16-50.12l12.58-4.18c32.8,42.07,33.74,51.42,50.32,100.24Z"/><path class="cls-19" d="M113.8,583.05l-16.74-23.03c-1.77-9.05,4.23-6.35,10.55-6.36,15.34-.03,56.86,10.55,60.7,29.39-.46.42,1.87,7.28-2.75,8.42-3.15.78-29.44,3.63-33.09,3.54-13-.32-13.76-8.75-18.67-11.96Z"/><path class="cls-1" d="M243.78,478.63c11.49.04,20.41,4.55,16.8,16.69l-12.59,4.15,16.75,12.57c-3.47,4.74-2.69,14.15-12.74,18.73-7.93,3.62-13.76,1.32-20.8,2.16.09-1.42-4.06-8.78-4.19-14.42-.19-8.72,1.75-24.97,0-31.52,2.58-8.37,8.98-8.38,16.77-8.35Z"/><path class="cls-2" d="M486.97,491.16c-13.22,36.14-21.77,51.13-54.51,71-1.02-11.11,14.19-16.09,15.81-23.52.98-4.53-3.56-12.34-3.23-18.25.08-1.39-.11-2.79,0-4.18,13.82,3.32,6.29-9.28,8.39-12.53,2.93-4.55,10.07-2.47,12.58-16.71l20.96,4.18Z"/><path class="cls-19" d="M373.76,549.63c.37.25-1.15,5.64.89,7.24,4.62,3.62,35.24.72,32.66,17.82-15.18,3.71-29.91,8.48-44.43.23-2.98-1.69-4.37-7.55-5.89-8.58l.02-16.72c4.17.87,14.92-1.23,16.75.02Z"/><path class="cls-7" d="M268.94,466.1c1.08,3.45,6.74,8.56,8.39,12.53,2.09,5.06,3.41,4.3,4.19,12.53-13.17-2.12-6.78,3.97-8.39,12.53-2.69,14.34-6.81,6.21-8.39,8.35l-16.75-12.57,12.59-4.15c3.61-12.14-5.31-16.65-16.8-16.69-.48-1.75.67-7.91,0-8.35,5.34,2,10.16-3.64,12.58-4.18,3.56-.8,8.62.54,12.58,0Z"/><path class="cls-20" d="M432.46,562.16c-7.48,4.54-7.75,5.15-16.77,8.35,5.03-12.18-7.93-12.23-8.47-14.62-1.91-8.42,4.63-5.87,8.47-10.44,1.2-1.44,2.84-2.81,4.19-4.18l12.58-12.53c4.04-2.98,8.44-5.51,12.58-8.35-.34,5.91,4.21,13.72,3.23,18.25-1.61,7.43-16.82,12.4-15.81,23.52Z"/><path class="cls-14" d="M482.78,232.2c4.06,15.28,4.4,35.99,8.39,50.12l-8.39,8.35c-.98-.91-11.27-1.31-12.58-8.35,2.96-7.66,1.76-42.94,0-50.12h12.58Z"/><path class="cls-20" d="M21.55,207.14c3.04,30.79-7.39,61.14-4.19,91.89l-8.39,4.18c.48-38.62,2.62-58.83,8.39-96.07h4.19Z"/><path class="cls-13" d="M482.78,232.2h-12.58c-.16-.63-6.52-6.22-8.39-8.35,3.19-12.29-5.5-20.81-8.39-29.24-.43-1.25.43-2.93,0-4.18l12.58-4.18c5.09,15,11.86,27.43,16.77,45.94Z"/><path class="cls-21" d="M394.73,541.28c1.67,1.27-3.56,15.5,20.96,4.18-3.83,4.58-10.38,2.02-8.47,10.44.54,2.39,13.49,2.44,8.47,14.62-2.83,1-5.78,3.54-8.39,4.18,2.58-17.1-28.04-14.2-32.66-17.82-2.03-1.59-.52-6.99-.89-7.24v-4.18c5,1.21,18.98-5.69,20.96-4.18Z"/><path class="cls-6" d="M365.37,537.1c1.93,5.36-4.75,10.17,8.39,8.35v4.18c-1.84-1.25-12.58.86-16.75-.02l-.02,16.72c-7.56-5.14-20.76-5.41-20.96-20.88,10.09-1.05,19.25-7.12,29.35-8.35Z"/><path class="cls-11" d="M516.32,353.32c.63,15.9-1.02,22.78-4.19,37.59h-8.39c1.96-8.44,2.83-26.95,4.19-37.59h8.39Z"/><path class="cls-7" d="M285.71,499.51l16.77,37.59c-11.53-6.61-26.43-16.68-25.16-33.41.41-5.35,3.92-3.89,4.19-4.18.67-.69,3.6.7,4.19,0Z"/><path class="cls-9" d="M516.32,353.32h-8.39c.68-5.27,3.66-12.56,3.7-14.79.02-1.15-13.92-4.79-7.89-18.62,1.2-.46,2.59-3.26,4.19-4.18,6.08,15.57,7.7,20.2,8.39,37.59Z"/><path class="cls-6" d="M231.2,532.92c-.4,6.62-11.25,10.28-12.58,12.53l-4.19-12.53c1.4-.04,2.8.05,4.19,0,4.12-.15,8.56.48,12.58,0Z"/><path class="cls-6" d="M147.34,532.92c-4.15-2.83-35.47-22.84-37.64-23.44-9.32-2.58-33.79,2.78-46.22-1.62-.58-2.49-11.23-8.64-8.22-18.41,3.22-10.47,20.36-4.21,24.54-7.28,1.98-1.45-.18-6.91.45-7.72,5.89-7.65,12.32-3.26,4.19-20.88,3.48,1.23,10.7-.61,16.8,1.88,27.23,11.12,28.89,54.67,46.1,77.48Z"/><path class="cls-19" d="M101.22,340.79c2.27.78,6.63-.85,8.39,0,9.85,4.79,39.52,61.6,46.12,75.18v4.18c-3.67-.74-8.58.5-12.58,0-3.74-5.68-8.79-11.04-12.58-16.71-5.48-8.2-9.14-19.79-16.77-29.24-4.68-5.8-15.34-17.32-20.96-20.88v-12.53c2.22.75,6.19-.75,8.39,0Z"/><path class="cls-9" d="M113.8,374.21c7.63,9.45,11.29,21.04,16.77,29.24-10.71-2.54-10.65,8.17-12.58,16.71-.63-.65-6.11,2.32-8.81-2.45-.9-1.59-12.21-31.44-12.25-33.2-.19-9.63,9.67-11.08,16.87-10.29Z"/><path class="cls-21" d="M67.67,324.09c8.5,5.52,15.17,13.34,25.16,16.71v12.53c-4.9-3.11-34.58-19.54-37.74-20.88-2.33-12.93,5.14-6.83,12.58-8.35Z"/><path class="cls-20" d="M84.44,453.57c8.13,17.63,1.7,13.24-4.19,20.88-21.24-2.85-8.13-12.1-4.19-25.06.34.32,7.52,3.87,8.39,4.18Z"/><path class="cls-6" d="M180.88,570.52c-12.38,1.52-9.81-8.49-12.58-12.53h4.19c6.43,2.64,7.51,6.13,8.39,12.53Z"/><path class="cls-21" d="M38.32,332.44c-2.57-12.41,10.71-13.08,8.39,0-2.62-.26-5.74-.18-8.39,0Z"/><path class="cls-13" d="M373.76,77.66c-9.63-.64-19.81.93-29.35,0-2.74-.27-5.87.45-8.39,0,.58-9.66.32-14.45-10.57-16.63-17.61-3.53-40.79-4.91-58.39-8.65-7.3-1.55-11.45-8.33-16.96-8.29-2.64.02-1.79,6.82-3.05,7.57-3.58,2.13-26.6-8.66-24.23,9.29-2.69.35-5.8-.46-8.39,0l-30.87-8.56c-6.46,16.09-23.6,12.51-34.86,18.33-2.17,1.12-9.67,12.85-16.1,15.24-13.31,4.95,1.08-15.87,2.17-20.83,10.76-11.35,35.59-19.25,37.74-33.41,13.34-6.2,18.27-9.26,33.54-12.53l2.1,4.09,2.1-4.09c1.35-.24,2.82.2,4.19,0,2.66-.39,5.65.23,8.39,0,64.14-5.31,106.77,11.46,150.95,58.47Z"/><path class="cls-21" d="M59.29,194.61c-.28,2.74.27,5.61,0,8.35-.92,9.52.79,19.67,0,29.24-.23,2.75.2,5.6,0,8.35-1.33,17.94-2.37,36.44-4.19,54.3-.46,4.52-6.39,10.6-.01,20.85-21.54-1.64-35.06,8.98-37.72-16.68-3.2-30.75,7.23-61.1,4.19-91.89,1.48-1.1,2.79-3.53,4.19-4.18,6.75-3.13,25.01-4.01,33.54-8.35Z"/><path class="cls-5" d="M84.44,98.54c-10.93,20.22-22.76,72.62-25.16,96.07-8.54,4.34-26.79,5.22-33.54,8.35,3.49-39.87,13.17-94.52,58.7-104.42Z"/><path class="cls-2" d="M134.76,65.13c-1.09,4.96-15.48,25.78-2.17,20.83,6.43-2.39,13.93-14.12,16.1-15.24,11.26-5.82,28.4-2.24,34.86-18.33l30.87,8.56c-7.61,1.36-20.32,4.1-16.77,12.53-22.84,4.43-75.46,30.06-92.25,45.94-3.04-5.2-15.74-1.41-12.51-10.35.5-1.38,12.93-24.8,13.79-26,2.41-3.39,22.89-21.63,28.07-26.31-.36,2.66.54,5.91,0,8.35Z"/><path class="cls-19" d="M294.09,15.01c38.79,8.1,85.76,43.75,109.02,75.18,13.59,18.37,16.59,33.31,25.16,50.12-4.91,1.82-17.77-12.37-20.96-16.71-1.17-1.58-1.84-5.22-4.19-8.35-10.43-13.91-16.79-24.23-29.35-37.59-44.18-47.01-86.81-63.79-150.95-58.47v-8.35c21.04-2.03,50.49-.17,71.28,4.18Z"/><path class="cls-10" d="M76.06,202.96c-1.05,8.18-3.91,23.32-4.19,29.24h-12.58c.79-9.57-.92-19.72,0-29.24h16.77Z"/><path class="cls-18" d="M172.5,31.71c-2.15,14.17-26.97,22.07-37.74,33.41.54-2.45-.36-5.69,0-8.35,16.66-15,16.97-15.41,37.74-25.06Z"/><path class="cls-5" d="M222.81,10.83v8.35c-2.74.23-5.72-.39-8.39,0-1.16-11.28.29-7.57,8.39-8.35Z"/><path class="cls-5" d="M206.04,19.18c1.33-.29,2.84.25,4.19,0l-2.1,4.09-2.1-4.09Z"/><path class="cls-5" d="M348.6,299.03c-10.96,21.08-29.93,45.65-16.77,71-.49,2.48.34,5.65,0,8.35-11.42-2.46-8.27,5.64-9.73,13.07-4.23,21.64-12.81,66.23-2.84,85.04,2.88,5.44,3.19-1.97,4.18-2.04,1.4-.1,2.93.27,4.19,0,.13,34.46-35.89,10.83-37.7,12.52-.48.45.45,6.99-4.23,12.54-.59.7-3.52-.69-4.19,0-.17-2.76.26-5.61,0-8.35-.78-8.23-2.1-7.47-4.19-12.53,6.53-56.38,21.69-149.1,71.28-183.78v4.18Z"/><path class="cls-15" d="M382.15,336.62c-4.01-.23-9.19.75-12.58,0-6.78-1.5-13.64-11.13-21.06-6.61-1.92,1.17-15.97,36.46-16.67,40.02-13.16-25.35,5.81-49.92,16.77-71,12.15-.1,25.3-9.6,35.97-.23,2.81,3.88-1.34,30.48-2.42,37.82Z"/><path class="cls-6" d="M382.15,336.62c2.78.16,5.6-.24,8.37-.02.21,4.79.36,9.64-.05,14.46-2.85,33.93-16.1,57.55-20.9,89.98-4.6,8.38-17.79,13.74-20.96,16.71,3.05-22.37,9.08-44.3,15.67-65.84,7.1-23.21,14.03-29.21,17.87-55.29Z"/><path class="cls-14" d="M407.3,424.33c4.17,0,8.43-.24,12.58,0-2.71,2.09-5.75,7.11-8.39,8.35-2.24,1.06-10.9-1.47-12.28.27-9.18,11.54,8.11,23.12,20.67,20.62-4.2,9.85-5.68,19.16-8.39,29.24-2.79-.09-5.6.13-8.39,0-1.43-.07-3,.27-4.19,0-9.27-2.08-11.2-4.11-12.58-12.53-.56-3.44-.21-8.76,0-12.53.53-9.47,3.33-18.91,4.19-29.24,1.39-1.26,3.33-2.54,4.19-4.18h12.58Z"/><path class="cls-1" d="M373.76,495.33c9.45-1.19,10.07,7.49,15.42,12.62l5.55-.09c-.64,1.35,1.64,5.94-.69,7.75-3.64,2.82-15.56-3.23-11.84,6.81,2.71,7.33,14.28,3.8,20.92,2.15l-8.39,16.71c-1.99-1.51-15.96,5.38-20.96,4.18-13.13,1.82-6.46-3-8.39-8.35-3.66-10.18-8.66-9.64-8.37-10.42,2.89-7.67,12.87-17.76,16.76-31.35ZM373.72,541.26c2.08-17.37-6.19-17.37-4.11,0h4.11Z"/><path class="cls-1" d="M415.69,328.26c.93,1.96-.93,7.53,0,8.35-18.73-2.08-3.55,23.94-4.19,29.24-.75,6.17-13.25,51.8-16.77,58.47-.87,1.64-2.8,2.92-4.19,4.18,2.96-35.42,10.7-72.7,16.77-108.6h4.19c-.05,3.58,3.07,5.97,4.19,8.35Z"/><path class="cls-18" d="M386.34,470.27c1.38,8.42,3.31,10.45,12.58,12.53v8.35c0,3.75.77,9.65,0,12.53-.08.29-1.87-.78-4.19,4.18l-5.55.09c-5.34-5.13-5.96-13.81-15.42-12.62,2.65-9.25,2.95-16.02,4.19-25.06h8.39Z"/><path class="cls-1" d="M407.3,290.67c-.14,2.76.27,5.62,0,8.35-.53,5.36.86,11.72,0,16.71-11.34-3.69-8.12-15.71-8.39-25.06h8.39Z"/><path class="cls-18" d="M419.88,303.2c.38,2.67-.56,5.97,0,8.35l-8.39,8.35h-4.19c.23-1.35-.23-2.82,0-4.18.86-4.99-.53-11.35,0-16.71l12.58,4.18Z"/><path class="cls-18" d="M407.3,273.97c5.87,7.23.13,14.15,0,16.71h-8.39c-.16-5.56.11-11.14,0-16.71,2.63-.32,5.68-.05,8.39,0Z"/><path class="cls-1" d="M386.34,457.74c-.21,3.77-.56,9.09,0,12.53h-8.39c1.24-9.02-4.38-14.56,8.39-12.53Z"/><path class="cls-6" d="M193.46,436.86c-.24,14.46-3.77,19.01,12.58,16.71,5.32,21.03-.83,8.37-3.97,12.66-3.41,4.65,7.54,13.75,12.36,16.58,4.34,11,3.99,21.87,4.19,33.41h-8.39c.59-12.89-6.34-14.32-8.39-20.88-3.63-11.65-11.3-25.13-12.58-29.24-.63-2.03-3.94-15.07-4.19-16.71-.49-3.13-.5-9.41,0-12.53.23-1.45-.44-3.89,0-4.18,1.77-1.17,6.01,3.16,8.39,4.18Z"/><path class="cls-11" d="M201.85,495.33c2.05,6.57,8.97,8,8.39,20.88-.02.46-5.9,3.78-4.17,8.32l12.56.03v8.35c-1.4.05-2.8-.04-4.19,0-4.87.12-10.96,5.84-16.69,2.29-12.83-7.94-23.62-52.6,4.11-39.89Z"/><path class="cls-21" d="M155.73,420.15c1.59.32,5.13,4.46,8.39,4.18.52,7.2,2.12,14.02,4.19,20.88-2.25-.63-5.74.42-8.39,0-7.14-9.64-10.61-15.71-16.77-25.06,4,.5,8.91-.74,12.58,0Z"/><path class="cls-11" d="M185.08,449.39c.25,1.64,3.56,14.68,4.19,16.71-6.33,2.62-6.86,2.87-12.58,0v-16.71c2.44.54,5.72-.37,8.39,0Z"/><path class="cls-6" d="M168.3,445.21c2.77.78,5.76,3.59,8.39,4.18v16.71c-14.09-7.07-11.3-13.51-16.77-20.88,2.64.42,6.14-.63,8.39,0Z"/><path class="cls-16" d="M382.15,336.62c-3.84,26.08-10.78,32.08-17.87,55.29-6.58,21.53-12.62,43.47-15.67,65.84-5.1,4.77,2.57,8.28-16.77,16.71-.48-9.68.69-19.59,0-29.24,5.29-2.01,4.24-7.94,4.19-12.53-.03-2.72.34-5.72,0-8.35,6.61-11.04,12.28-29.18,14.97-41.64,1.34-6.21-3.31-14.02-1.99-16.17,3.28-5.36,9.85,2.74,16.37-21.54.73-2.72,3.17-5.55,4.19-8.35,3.39.75,8.56-.23,12.58,0Z"/><path class="cls-8" d="M336.02,424.33c.34,2.64-.03,5.63,0,8.35-17.06-2.1-4.45,8.96-4.19,12.53.69,9.64-.48,19.56,0,29.24-1.02.45-2.74-.31-4.19,0-1.26.27-2.79-.1-4.19,0-4.43-6.98-4.89-14.74-4.32-22.76.92-12.89,2.99-42.38,12.66-48.25-3.73,8.13,3.74,17.03,4.23,20.88Z"/><path class="cls-2" d="M415.69,365.85c-4.81,26.1,4.57,17.86,16.56,27.28,5.05,3.96,10.86,12.27,14.91,14.47.88.48,3.69-13.87,14.65-8.34-4.43,30.43-14.4,55.2-25.16,83.54-4.21,5.64-10.02,22.59-16.74,27.42-3.86,2.78-5.53-1.47-8.42-2.36,5.65-18.98,18.57-22.19,12.61-45.94l8.27,2.21c-4.02-4.77-5.04-13.05-4.11-18.92.22-1.36,6.66-11.82,8.39-12.53,6.09-2.49,18.79,5.81,12.09-14.12-3.57-10.62-22.83-5.69-33.16-4.72-10.94,1.02-9.36-7.23-8.28,10.49h-12.58c3.52-6.68,16.02-52.3,16.77-58.47h4.19Z"/><path class="cls-10" d="M503.74,319.91c-6.03,13.84,7.91,17.48,7.89,18.62-.04,2.23-3.02,9.52-3.7,14.79-1.36,10.64-2.23,29.16-4.19,37.59-2.35,10.13-22.61,68.62-29.35,71,1.02-9.2-1.47-20.53,0-29.24,3.57-21.2,12.64-47.61,16.77-71,1.93-10.95-.18-27.56,4.22-38.83,2.17-5.55,6.13-2.08,8.36-2.94Z"/><path class="cls-13" d="M432.46,357.5c.55.83-.91,4.52,1.09,7.15,6.67,8.79,15.59,2.17,7.32,26.24,13.96,2.93,6.76-9.27,8.37-16.68h12.58c-.44,5.44.71,11.42,0,16.71-.36,2.68.39,5.69,0,8.35-10.96-5.53-13.78,8.82-14.65,8.34-4.05-2.2-9.86-10.51-14.91-14.47-12-9.42-21.38-1.18-16.56-27.28,1.95-10.56,8.15-11.81,8.39-12.53,4.91-.75,5.94.46,8.39,4.18Z"/><path class="cls-17" d="M453.43,486.98c-4.45,10.06-2.94,10.61-4.19,16.71-.55,2.66-4.03,6.24-4.19,8.35-16.49-8.75-22.47,7.69-41.93,12.53-6.64,1.65-18.21,5.18-20.92-2.15-3.72-10.04,8.21-3.99,11.84-6.81,2.33-1.81.06-6.39.69-7.75,2.33-4.96,4.12-3.89,4.19-4.18,4.94-.7,8.72,2.98,12.58,4.18,2.89.89,4.55,5.14,8.42,2.36,6.73-4.83,12.53-21.78,16.74-27.42.32-.43,5.48.93,7.07-1.17,3.47-4.57,1.42-12.05,7.64-15.46,1.65,6.54-7.22,16.72,2.05,20.8Z"/><path class="cls-9" d="M491.16,361.68c-4.13,23.39-13.2,49.8-16.77,71h-4.19c1.81-10.83,2.35-24.88,4.19-33.41.11-.52,3.82-4.41,4.94-9.44,2.69-12.15.1-32.05,11.84-28.15Z"/><path class="cls-4" d="M466.01,486.98c-2.51,14.24-9.65,12.16-12.58,16.71h-4.19c1.25-6.1-.25-6.65,4.19-16.71,1.38-3.13,9.14-25.7,12.54-20.88-.68,6.61,1.14,14.67.04,20.88Z"/><path class="cls-12" d="M470.2,353.32c-.82,12.66,1.96,27.53-8.39,37.59.71-5.28-.44-11.27,0-16.71.22-2.75-.31-5.63,0-8.35.67-5.84,4.65-19.94,8.39-25.06.04.59,3.11,2.33,3.09,5.48s-2.99,5.63-3.09,7.05Z"/><path class="cls-6" d="M474.39,461.92c-15.78,5.58-5.83-19.44-4.19-29.24h4.19c-1.47,8.7,1.02,20.03,0,29.24Z"/><path class="cls-13" d="M109.6,286.5c-2.26,15.61,15.05,4.41,25.21,10.58,7.83,4.76,22.88,23.27,29.3,31.19,6.69,8.25,19.98,23.26,20.96,33.41-2.79,0-5.6-.12-8.39,0s-5.64-.26-8.39,0c-2.25-13.79-7.25-9.79-12.58-12.53-1.4-.72-4.77.53-4.19-4.18.13-1.07,5.98-3.85,3.98-7.83-1.97-1.79-7.53.16-8.17-.52-3.01-3.2-6.64-19.63-16.77-16.71-7.42-9.59.32-7.43-12.58-12.53-4.08-1.61-8.57-1.89-13.7-4.18-4.17-1.86.79-9.24-15.65-8.35,2.65-11.83,15.8-6.34,20.96-8.35Z"/><path class="cls-10" d="M147.34,357.5c6.28,10.7,5.51,21.17,8.39,29.24,4.66,13.1,6.43,7.13,8.39,25.06.15,1.37-.1,2.79,0,4.18h-8.39c-6.61-13.58-36.27-70.39-46.12-75.18-.55-2.45.82-6.91,0-8.35l2.44-4.03c11.87-.5,29.52,19.25,35.3,29.09Z"/><path class="cls-12" d="M71.87,232.2c-1.06,22.04,1.23,43.28,12.58,62.65-.65.12-11.73,3.8-12.58,4.18-19.66-10.84.46-42.78-12.58-58.47.2-2.76-.23-5.6,0-8.35h12.58Z"/><path class="cls-9" d="M117.99,307.38c12.9,5.1,5.16,2.94,12.58,12.53,2.76,3.57,12.61,14.74,12.58,16.71-.01.61-6.62,5.04-3.73,7.54,2.23,1.93,7.45.22,7.92.81,1.24,1.53-1.2,11.29,0,12.53-5.78-9.85-23.43-29.6-35.3-29.09l-2.44,4.03c-1.63-2.86-11.55-3.77-8.38-12.5l20.95-4.26-4.18-8.3Z"/><path class="cls-10" d="M59.29,240.55c13.04,15.7-7.08,47.64,12.58,58.47-5.36,2.34-6.42,22.67-16.77-4.18,1.83-17.86,2.86-36.36,4.19-54.3Z"/><path class="cls-20" d="M101.22,340.79c-2.2-.75-6.17.75-8.39,0-9.98-3.37-16.66-11.19-25.16-16.71,15.36-3.14,29.6-3.09,33.54,16.71Z"/><path class="cls-4" d="M411.5,228.02c11.8.47,35.03-12.9,43.48-12.6,2.56.09,4.74,6.02,6.83,8.43,1.86,2.14,8.23,7.72,8.39,8.35,1.76,7.18,2.96,42.46,0,50.12-.83,2.16-4.45,4.79-4.19,8.35-2.17-.5-5.73,0-8.39,0h-8.39c-1.82-2.84-3.81-8.09-4.19-8.35,8.14-28.41,2.96-47.23-29.35-45.94-.21-1.07-3.18-4.75-4.19-8.35Z"/><path class="cls-7" d="M457.62,290.67c12.98,17.61,11.32,30.3,12.58,50.12-3.73,5.12-7.72,19.22-8.39,25.06h-8.39c1.37-8.73-.72-19.9,0-29.24.37-4.86,5.6-10.44,4.4-22.94-.82-8.5-4.09-15.99-8.59-23.01h8.39Z"/><path class="cls-6" d="M470.2,282.32c1.31,7.04,11.6,7.44,12.58,8.35.42.39-.58,4.51,1.45,6.81,6.75,7.64,17.75,5.89,4.84,22.47-3.87-.04-.21-24-23.06-29.28-.26-3.57,3.36-6.2,4.19-8.35Z"/><path class="cls-15" d="M298.29,69.3l67.09,29.24c8.93,6.76,19.83,6.07,29.35,20.88,2.06,3.2-5.2,11.4,10.46,8.31l2.12-4.14c3.2,4.34,16.06,18.53,20.96,16.71,9.6,18.84,17.11,26.9,25.16,50.12.43,1.24-.43,2.93,0,4.18-48.27,1.82-60.97,21.97-2.15,4.11,10.46,20.71-25.33,18.55-39.78,20.95-4.84-15.28-22.32-63.18-29.35-75.18h10.5c-19.81-17.29-28.49-33.55-52.89-47.58-8.57-4.93-46.48-17.88-48.96-20.27-2.3-2.22-.33-6.62-.89-7.33,2.67-.39,6.03.58,8.39,0Z"/><path class="cls-14" d="M210.23,445.21c9.55-2.04,11.27.87,15.4,8.24l5.56.12c1.12,4.31-1.91,13.76.52,16.38,1.9,2.04,10.57-.65,12.06.33.67.45-.48,6.61,0,8.35-7.79-.03-14.19-.01-16.77,8.35-.1-.36-3.42-3.76-4.19-4.18-.42-13.62-7.22-25.64-12.58-37.59Z"/><path class="cls-4" d="M222.81,482.8c.78.42,4.1,3.81,4.19,4.18,1.75,6.55-.19,22.8,0,31.52.13,5.65,4.28,13,4.19,14.42-4.02.48-8.46-.15-12.58,0v-8.35c0-2.78.05-5.57,0-8.35-.2-11.55.15-22.41-4.19-33.41,1.62.95,6.64-.94,8.39,0Z"/><path class="cls-15" d="M445.04,512.04c-.11,1.38.11,2.79,0,4.18s.08,2.79,0,4.18c-4.13,2.84-8.54,5.37-12.58,8.35-6.88,5.09-7.82,7.74-12.58,12.53-1.35,1.36-2.99,2.74-4.19,4.18-24.53,11.33-19.29-2.91-20.96-4.18l8.39-16.71c19.46-4.84,25.44-21.28,41.93-12.53Z"/><path class="cls-20" d="M453.43,503.69c-2.09,3.25,5.44,15.85-8.39,12.53.11-1.38-.11-2.79,0-4.18.17-2.12,3.65-5.69,4.19-8.35h4.19Z"/><path class="cls-14" d="M231.2,428.51c.5.44-.98,5.43,1.06,7.28,3.46,3.13,9.74.18,11.52,1.07,9.34,4.67,14.93,11.14,8.36,20.86l16.8.02c.73,2.24-.71,6.07,0,8.35-3.96.54-9.02-.8-12.58,0l-16.8-4.21,4.21-12.46-12.57-.03c-.34-1.21-7.84-19.9-8.39-20.88,2.36.52,7.49-.79,8.39,0Z"/><path class="cls-17" d="M231.2,449.39l12.57.03-4.21,12.46,16.8,4.21c-2.41.54-7.24,6.18-12.58,4.18-1.48-.98-10.15,1.71-12.06-.33-2.43-2.61.59-12.07-.52-16.38-.34-1.31.37-2.89,0-4.18Z"/><path class="cls-21" d="M419.88,541.28c4.76-4.79,5.7-7.44,12.58-12.53l-12.58,12.53Z"/><path class="cls-19" d="M453.43,194.61c2.89,8.43,11.58,16.95,8.39,29.24-2.1-2.41-4.27-8.34-6.83-8.43-8.45-.3-31.68,13.07-43.48,12.6-.67-2.37.71-6.12,0-8.35,14.44-2.39,50.23-.23,39.78-20.95-58.82,17.85-46.11-2.3,2.15-4.11Z"/><path class="cls-6" d="M164.11,415.98c.2,2.76-.2,5.59,0,8.35-3.25.29-6.8-3.86-8.39-4.18v-4.18h8.39Z"/><path class="cls-7" d="M268.94,457.74l-16.8-.02c6.58-9.72.98-16.2-8.36-20.86l4.15-2.13c2.45-10.11-7.79-5.53-16.73-6.22-2.03-9.08,8.55-10.51,8.51-18.78-.02-3.96-7.68-1.29-8.51-2.1-.3-.29-.3-6.48,0-8.35,1.03-6.39,9.65-25.8-8.39-8.35-.44-4.03.65-8.7,0-12.53-.44-2.56.45-5.65,0-8.34-2.77-.28-5.6.15-8.38,0-4.17-.24-8.4.16-12.58,0,1.2-5.03,11.69-11.78,8.34-20.88l-12.54,4.18-4.19-4.18c-.08-1.38.19-2.83,0-4.18-.5-3.49.02-7.01-4.19-8.35.22-1.3-.01-2.83,0-4.18.17-17.3-11.53-12.67-14.18-27.44l-31.94-26.86c35.35,3.57,54.75,31.54,73.01,58.84,27.34,40.88,37.99,75.08,52.78,120.76Z"/><path class="cls-17" d="M222.81,60.95c15.81-2.04,45-3.11,59.9-.02,3,.62,5.04,5.62,7.19,8.37.56.72-1.4,5.11.89,7.33,2.48,2.4,40.39,15.35,48.96,20.27,24.4,14.02,33.09,30.28,52.89,47.58h-10.5c-25.53-43.6-136.52-80.31-184.49-71.01-3.55-8.43,9.16-11.18,16.77-12.53,2.59-.46,5.7.35,8.39,0Z"/><path class="cls-14" d="M143.15,278.14l31.94,26.86c2.65,14.77,14.35,10.14,14.18,27.44-10.11,5.52-15.65-1.53-25.16-4.18-6.42-7.92-21.46-26.43-29.3-31.19-10.16-6.17-27.47,5.03-25.21-10.58,1.58-.62,3.38-7.24,7.35-8.16,6.22-1.44,19.3-.89,26.2-.19Z"/><path class="cls-19" d="M445.04,282.32c-3.96-2.71-15.67-2.78-20.96-4.18-.25-3.86-4.15-7.53-4.19-8.35-.23-3.94-.38-8.65,0-12.53.64-6.44,11.85-14.37-4.19-12.53-.42-2.64.5-5.83,0-8.35,32.31-1.29,37.49,17.53,29.35,45.94Z"/><path class="cls-14" d="M415.69,273.97c.59.06,4.95,3.27,8.39,4.18.53,8.28-.32,16.75,0,25.06h-4.19l-12.58-4.18c.27-2.73-.14-5.59,0-8.35.13-2.56,5.87-9.48,0-16.71,2.76.05,5.67-.29,8.39,0Z"/><path class="cls-4" d="M415.69,244.73c16.04-1.84,4.83,6.09,4.19,12.53-5.86-2.09-3.51-8.2-4.19-12.53Z"/><path class="cls-13" d="M424.08,278.14c5.3,1.4,17,1.47,20.96,4.18.39.26,2.37,5.51,4.19,8.35,4.5,7.02,7.77,14.51,8.59,23.01,1.2,12.5-4.02,18.07-4.4,22.94-6.63-2.75-14.3-2.53-20.96-4.18-2.7-.67-5.72-3.58-8.39-4.18.52-3.96-.77-8.93,0-12.53,2.63-12.24.2-7.3,0-12.53-.32-8.31.53-16.78,0-25.06-3.44-.91-7.8-4.12-8.39-4.18l4.19-4.18c.05.83,3.95,4.49,4.19,8.35ZM451.33,319.91v4.18c2.72-1.39,2.72-2.78,0-4.18Z"/><path class="cls-2" d="M336.02,77.66c-15.43-2.77-17.9-13.23-37.74-8.35-2.35.58-5.72-.39-8.39,0-2.15-2.76-4.19-7.75-7.19-8.37-14.9-3.09-44.09-2.02-59.9.02-2.37-17.95,20.65-7.16,24.23-9.29,1.26-.75.41-7.55,3.05-7.57,5.51-.03,9.67,6.74,16.96,8.29,17.6,3.73,40.78,5.11,58.39,8.65,10.89,2.18,11.15,6.97,10.57,16.63Z"/><path class="cls-2" d="M373.76,77.66c12.56,13.36,18.93,23.68,29.35,37.59l-8.39,4.18c-9.52-14.81-20.42-14.12-29.35-20.88-.5-.38,1.39-6-.69-7.55-5.84-4.34-17.41-3.52-20.27-13.34,9.54.93,19.72-.64,29.35,0Z"/><path class="cls-17" d="M336.02,77.66c2.52.45,5.64-.27,8.39,0,2.87,9.82,14.44,9,20.27,13.34,2.08,1.54.2,7.17.69,7.55l-67.09-29.24c19.84-4.87,22.31,5.58,37.74,8.35Z"/><path class="cls-3" d="M407.3,123.6l-2.12,4.14c-15.66,3.09-8.4-5.11-10.46-8.31l8.39-4.18c2.35,3.14,3.03,6.77,4.19,8.35Z"/><path class="cls-21" d="M365.37,344.97c-6.53,24.28-13.09,16.18-16.37,21.54-1.32,2.15,3.33,9.96,1.99,16.17-2.69,12.46-8.36,30.6-14.97,41.64-.49-3.85-7.97-12.75-4.23-20.88-9.68,5.87-11.75,35.36-12.66,48.25-.57,8.02-.11,15.78,4.32,22.76-.99.07-1.3,7.48-4.18,2.04-9.96-18.81-1.39-63.4,2.84-85.04,1.45-7.43-1.7-15.52,9.73-13.07-.17,1.33-.02,2.82,0,4.18.1,5.56-.12,11.16.04,16.71,14.98-4.49,3.94-15.68,4.15-16.71,2.64-12.52,13.09-41.51,29.35-37.59Z"/><path class="cls-19" d="M369.57,336.62c-1.02,2.8-3.46,5.63-4.19,8.35-16.26-3.92-26.71,25.07-29.35,37.59h-4.19c-.02-1.35-.17-2.85,0-4.18.34-2.7-.49-5.87,0-8.35.71-3.56,14.75-38.85,16.67-40.02,7.42-4.53,14.29,5.1,21.06,6.61Z"/><path class="cls-3" d="M428.27,445.21c-.93,5.87.09,14.16,4.11,18.92l-8.27-2.21c5.96,23.75-6.96,26.97-12.61,45.94-3.86-1.19-7.64-4.88-12.58-4.18.77-2.88,0-8.78,0-12.53h4.19c12.43,1.81,6.82-2.51,8.39-8.35,2.7-10.08,4.18-19.39,8.39-29.24.86-2.01,4.86-4.46,4.19-8.35h4.19Z"/><path class="cls-7" d="M407.3,424.33c-1.08-17.72-2.66-9.46,8.28-10.49,10.33-.97,29.58-5.9,33.16,4.72,6.71,19.93-6,11.63-12.09,14.12,2.61-12.61-6.26-7.76-16.77-8.35-4.15-.24-8.41,0-12.58,0ZM438.75,415.98v4.18c2.72-1.39,2.72-2.78,0-4.18Z"/><path class="cls-2" d="M411.5,432.68c13.57-1.21,13.82-1.03,12.58,12.53.66,3.89-3.34,6.35-4.19,8.35-12.56,2.51-29.85-9.08-20.67-20.62,1.38-1.74,10.04.79,12.28-.27Z"/><path class="cls-1" d="M419.88,424.33c10.51.6,19.39-4.26,16.77,8.35-1.73.71-8.17,11.17-8.39,12.53h-4.19c1.24-13.56.99-13.74-12.58-12.53,2.63-1.24,5.68-6.26,8.39-8.35Z"/><path class="cls-18" d="M411.5,482.8c-1.57,5.84,4.04,10.16-8.39,8.35v-8.35c2.78.13,5.6-.09,8.39,0Z"/><path class="cls-17" d="M403.11,491.16h-4.19v-8.35c1.2.27,2.76-.07,4.19,0v8.35Z"/><path class="cls-17" d="M373.72,541.26h-4.11c-2.08-17.37,6.19-17.37,4.11,0Z"/><path class="cls-7" d="M424.08,328.26c2.66.59,5.68,3.51,8.39,4.18-.11,12.75,18.21,10.23,12.54,29.24l-12.54-4.18c-2.45-3.72-3.48-4.92-8.39-4.18,6.64-20.11-7.45-15.87-8.39-16.71s.93-6.39,0-8.35c2.67.37,5.94-.54,8.39,0Z"/><path class="cls-14" d="M415.69,336.62c.94.83,15.02-3.41,8.39,16.71-.24.72-6.44,1.97-8.39,12.53h-4.19c.65-5.29-14.54-31.32,4.19-29.24Z"/><path class="cls-14" d="M424.08,315.73c-.77,3.6.52,8.57,0,12.53-2.44-.54-5.72.37-8.39,0-1.13-2.38-4.24-4.77-4.19-8.35l8.39-8.35c.47,2,2.2,3.59,4.19,4.18Z"/><path class="cls-2" d="M424.08,315.73c-1.99-.59-3.72-2.18-4.19-4.18-.56-2.38.38-5.68,0-8.35h4.19c.2,5.23,2.63.29,0,12.53Z"/><path class="cls-13" d="M164.11,411.8l12.57.03-4.17,12.46c2.77,2.13,20.15-3.96,25.15-4.14,4.41-.16,13.64-.95,16.77,0,1.45.44,7.43,6.64,8.39,8.35.55.98,8.04,19.68,8.39,20.88.37,1.29-.34,2.87,0,4.18l-5.56-.12c-4.13-7.37-5.85-10.27-15.4-8.24-2.16-4.81-3.44-24.36-12.57-16.68-1.07.9.91,6.78-.01,8.33-.26.44-2.83-.26-4.19,0-2.38-1.01-6.62-5.35-8.39-4.18l-2.1-4.16c-4.34.45-3.35,8.61,2.1,8.33-.5,3.12-.49,9.4,0,12.53-2.67-.37-5.94.54-8.39,0-2.62-.58-5.61-3.4-8.39-4.18-2.07-6.86-3.67-13.69-4.19-20.88-.2-2.76.2-5.59,0-8.35-.1-1.38.15-2.8,0-4.18Z"/><path class="cls-1" d="M197.66,436.86c.92-1.55-1.06-7.43.01-8.33,9.13-7.67,10.41,11.87,12.57,16.68,5.36,11.95,12.16,23.97,12.58,37.59-1.75-.94-6.77.95-8.39,0-4.82-2.83-15.76-11.93-12.36-16.58,3.14-4.29,9.29,8.37,3.97-12.66-1.64-6.46-1.69-12.8-8.39-16.71Z"/><path class="cls-11" d="M206.04,453.57c-16.35,2.3-12.82-2.25-12.58-16.71,1.36-.26,3.93.44,4.19,0,6.7,3.9,6.75,10.24,8.39,16.71Z"/><path class="cls-20" d="M218.62,516.22c.05,2.78,0,5.57,0,8.35l-12.56-.03c-1.73-4.54,4.15-7.86,4.17-8.32h8.39Z"/><path class="cls-11" d="M185.08,432.68c-.44.29.23,2.72,0,4.18-5.45.28-6.44-7.89-2.1-8.33l2.1,4.16Z"/><path class="cls-21" d="M336.02,432.68c.05,4.59,1.09,10.52-4.19,12.53-.26-3.57-12.87-14.63,4.19-12.53Z"/><path class="cls-1" d="M453.43,336.62c-.72,9.34,1.37,20.51,0,29.24-.15.99-3.37,4.54-4.19,8.35-1.61,7.42,5.59,19.61-8.37,16.68,8.27-24.07-.65-17.45-7.32-26.24-2-2.63-.54-6.32-1.09-7.15l12.54,4.18c5.68-19-12.65-16.48-12.54-29.24,6.66,1.65,14.33,1.43,20.96,4.18Z"/><path class="cls-2" d="M461.81,365.85c-.31,2.72.22,5.61,0,8.35h-12.58c.83-3.82,4.04-7.37,4.19-8.35h8.39Z"/><path class="cls-11" d="M168.3,361.68c2.75-.26,5.61.12,8.39,0l4.19,12.53c.22,10.67.71,19,4.19,29.24,2.4,7.04,3.81,14.87,12.58,12.53v4.18c-5,.18-22.39,6.27-25.15,4.14l4.17-12.46-12.57-.03c-1.95-17.93-3.72-11.96-8.39-25.06,20.96,3.07-4.79-19.91.03-25.05.43-.46,7.83.43,12.55-.01Z"/><path class="cls-17" d="M189.27,332.44c-.01,1.35.22,2.88,0,4.18-.39,2.26-12.43,9.91,4.19,8.35.19,1.35-.08,2.8,0,4.18s-.04,2.79,0,4.18c.08,2.77-.2,5.6,0,8.35h-8.39c-.99-10.16-14.27-25.16-20.96-33.41,9.51,2.64,15.04,9.69,25.16,4.18Z"/><path class="cls-20" d="M155.73,349.15c5.33,2.74,10.33-1.26,12.58,12.53-4.72.44-12.12-.44-12.55.01-4.82,5.14,20.93,28.12-.03,25.05-2.87-8.07-2.11-18.54-8.39-29.24,4.42,4.56,11.53-2.36,8.39-8.35Z"/><path class="cls-20" d="M147.34,336.62c.64.68,6.2-1.27,8.17.52,2,3.98-3.85,6.76-3.98,7.83h-4.19c-.47-.59-5.68,1.12-7.92-.81-2.89-2.5,3.72-6.93,3.73-7.54h4.19Z"/><path class="cls-18" d="M185.08,361.68c.98,10.12-4.21,11.87-4.19,12.53l-4.19-12.53c2.78-.12,5.6,0,8.39,0Z"/><path class="cls-11" d="M155.73,349.15c3.14,5.99-3.96,12.91-8.39,8.35-1.2-1.24,1.24-11,0-12.53h4.19c-.58,4.7,2.79,3.46,4.19,4.18Z"/><path class="cls-19" d="M130.57,319.91c10.14-2.92,13.76,13.51,16.77,16.71h-4.19c.03-1.97-9.82-13.14-12.58-16.71Z"/><path class="cls-18" d="M222.81,390.91c18.03-17.44,9.42,1.96,8.39,8.35-8.71,3.06-13.85,14.03-2.14,12.49l2.14-4.14c.84.81,8.49-1.86,8.51,2.1.04,8.26-10.54,9.7-8.51,18.78,8.94.69,19.18-3.89,16.73,6.22l-4.15,2.13c-1.78-.89-8.06,2.05-11.52-1.07-2.05-1.85-.56-6.84-1.06-7.28-.9-.79-6.03.52-8.39,0-.96-1.71-6.93-7.91-8.39-8.35-.29-6.93.41-13.97,0-20.88,13.55.11,6.68-6.7,8.39-8.35Z"/><path class="cls-1" d="M214.43,370.03c2.78.16,5.6-.28,8.38,0,.46,2.7-.43,5.78,0,8.34-15.51,6.9-9,10.63-8.39,20.88-10.33-.09-12.43-10.07-12.58-20.88,9.85.64,14.58,2.4,12.58-8.35Z"/><path class="cls-1" d="M201.85,370.03c-.5,2.11-.04,5.74,0,8.35-2.77-.18-5.61.27-8.38.02-.4-5.53.4-11.2,0-16.73-.2-2.75.08-5.58,0-8.35h4.19l12.54-4.18c3.34,9.1-7.14,15.86-8.34,20.88Z"/><path class="cls-14" d="M193.46,361.68c.41,5.53-.39,11.2,0,16.73,2.77.25,5.61-.2,8.38-.02.15,10.81,2.25,20.8,12.58,20.88-.61-10.25-7.13-13.98,8.39-20.88.65,3.83-.44,8.5,0,12.53-1.71,1.65,5.17,8.47-8.39,8.35.41,6.92-.29,13.95,0,20.88-3.13-.95-12.36-.16-16.77,0v-4.18c.36-8.32-4.07-12.82-12.58-12.53-3.48-10.24-3.97-18.57-4.19-29.24-.01-.66,5.17-2.41,4.19-12.53h8.39Z"/><path class="cls-14" d="M214.43,370.03c2.01,10.75-2.73,9-12.58,8.35-.04-2.61-.5-6.24,0-8.35,4.18.16,8.41-.24,12.58,0Z"/><path class="cls-14" d="M231.2,407.62l-2.14,4.14c-11.71,1.54-6.57-9.43,2.14-12.49-.3,1.88-.3,8.06,0,8.35Z"/><path class="cls-14" d="M193.46,344.97c-16.62,1.56-4.58-6.09-4.19-8.35,4.21,1.34,3.69,4.86,4.19,8.35Z"/><path class="cls-14" d="M197.66,353.32h-4.19c-.04-1.39.08-2.79,0-4.18l4.19,4.18Z"/><path class="cls-8" d="M336.02,382.56c-.22,1.02,10.83,12.22-4.15,16.71-.17-5.54.06-11.15-.04-16.71h4.19Z"/><path class="cls-2" d="M438.75,415.98c2.72,1.39,2.72,2.78,0,4.18v-4.18Z"/><path class="cls-18" d="M197.66,415.98c-8.77,2.34-10.18-5.49-12.58-12.53,8.51-.29,12.94,4.21,12.58,12.53Z"/><path class="cls-7" d="M451.33,319.91c2.72,1.39,2.72,2.78,0,4.18v-4.18Z"/></g></svg>