<?xml version="1.0" encoding="UTF-8"?><svg id="Capa_2" xmlns="http://www.w3.org/2000/svg" viewBox="0 0 193.91 380.39"><defs><style>.cls-1{fill:#4c739a;}.cls-2{fill:#bcd;}.cls-3{fill:#7598bb;}.cls-4{fill:#6289b0;}.cls-5{fill:#d1dde8;}.cls-6{fill:#43668b;}.cls-7{fill:#dee6ee;}.cls-8{fill:#b1c5d9;}.cls-9{fill:#7e9ec0;}.cls-10{fill:#25394d;}.cls-11{fill:#9cb5ce;}.cls-12{fill:#567ea6;}.cls-13{fill:#ebf0f5;}.cls-14{fill:#8ba8c5;}.cls-15{fill:#c59e25;}.cls-16{fill:#a7bdd3;}.cls-17{fill:#e6ecf2;}.cls-18{fill:#6d5726;}.cls-19{fill:#c9d6e4;}.cls-20{fill:#f0f4f8;}.cls-21{fill:#f4f7fa;}.cls-22{fill:#6a8eb4;}</style></defs><g id="Layer_1"><path class="cls-13" d="M128.67,61.56c.48-.13,1.08.16,1.46,0l.08,4.27c3.28.49,6.93.72,10.12,1.55.75,6.67,8.81,3.45,7.3,10.2,5.61-3.3,9.38-.76,14.56,1.45.12,2.49,1.31,5.37,1.46,8.73,0,.19-1.32,1.02-1.25,2.13.39,6.45,1.24,15.5,4.17,21.16-.79,2.89,1.21,3.29-2.91,5.82-.53.33-2.7-.75-2.94.72l.03,3.64h2.9s0-2.9,0-2.9l1.45,8.72c-3.78,1.49-2.67-2.69-3.62-2.94-5.71-1.5-2.83,2.79-3.66,4.4-.27.52-6.79,5.35-8.74,7.28-1.6.12-2.95.8-4.37,1.46l-.07-4.28c-5.68-.1-10.78-2.6-15.96-4.45-.72-.26-1.32-1.19-2.91-1.46-.39-8.04.05-8.47-2.91-16.01-.17-.44.19-1.09,0-1.46h2.91c1.27-2.99-1.15-5.63-1.45-7.28-.09-.47.08-.98,0-1.46-.87-5.42-2.48-9.7-.16-15.17l-1.25-1.62c-2.89-1.85-6.14.85-9.19.49-6.65-.79-18.3-9.12-24.37-11.35-.95-1.44-1.06-6.77-1.46-7.28.25-.67.76-1.25,1.46-1.46.45-.13,1.03.14,1.46,0s1,.13,1.46,0l2.91,1.45v-2.9c.46-.14,1.03.15,1.47,0,1.19,5.83,3.65,4.2,8.55,4.56l1.86,11.23c11.98,4.22,7.35-5.65,7.08-11.42-.28-6.03.78-10.93,7.7-8.44,2.13.77,3.3,3.44,4.98,3.88,1.28.34,1.68-1.2,1.9-1.26ZM150.54,81.94c-6.55,12.96,11.85,15.96,5.45,3.99-1.18-2.21-2.5-4.47-5.45-3.99ZM144.67,97.94l1.46-7.27-4.28,5.19-.07,2.08h2.89ZM140.32,102.32c-2.61-3.1-5.61,7.7-5.11,8.69,1.57-1.08,6.41-7.15,5.11-8.69Z"/><path class="cls-15" d="M147.61.44c5.12,15.21,22.36,20.06,33.45,30-5.06,4.53-8.03,16.5-11.51,20.29-2.23,2.44-5.71,1.88-5.93,2.11-.44.45,3.52,9.75-4.35,10.17-1.3-.56-5.2-.88-7.29-1.46-10.28-9.08-25.92-15.26-30.6-29.11.49-.41,1.08-.95,1.46-1.46,3.94,0,4.69-3.83,5.83-5.82,4.42-7.77,10.08-21.77,18.94-24.74Z"/><path class="cls-7" d="M89.32,176.53c1.09-.58,10.01-1.87,13.49-3.26,5.16-2.06,9.86-5.18,15.24-6.77l2.6,2.81c2.83.2,4.42-2.83,5.1-2.97,1.67-.33,11.36,2.46,10.23,5.78l2.86.02c-.1-1.31.74-2,1.48-2.89,2.59,1.28,2.6,5.08,5.83,4.37-2.93,3.6-4.38,4.2-5.83,5.82l-4.36-4.36c1.4,6.62-4.47,8.19-7.12,12.6-1.08,1.8-1.06,3.79-1.63,4.86-3.71,6.89-8.58,6.7-13.65,15.53-.42.73-2.32.37-2.37.48v-2.89s-8.15-4.33-8.15-4.33c-2.18-.51-3.52,2.94-4.97,4.31-3.05,2.88-5.98,8.28-10.2,7.28-.29-1.21.2-3,0-4.37-.13-.91.15-1.96,0-2.91h-2.91c-.23-.83.24-2.12,0-2.91,3.97-2.74,2.6-7.64,3.07-11.56l4.23-.82c.65-1.79-5.9-6.45-7.3-6.53v-2.91c3.4,1.04,3.84-4.09,4.37-4.37ZM98.06,186.72c-.26,1.63-2.34,4.84-.71,5.84,4.03.51,3.05-5.04,3.63-5.84.89-1.22,13.66-5.48,9.46-10.2-3.61-.27-12.7,4.82-13.54,8.25-.23.96,1.19,1.83,1.17,1.95ZM122.84,188.17c2.44,2.61,8.46-9.14,7.26-11.63-2.33.73-8.36,10.47-7.26,11.63ZM122.83,189.64c-4.56.34-10.07,3.69-7.26,8.72.48.49,8.96-7.07,7.26-8.72Z"/><path class="cls-18" d="M147.61.44c6.89-2.31,17.17,4.98,23.51,9.27,4.85,3.29,12.66,9.01,16.64,12.45,1.64,1.41,3.15,6.88,5.93,8.75l.22,2.01c-1.72,2.18-2.64,4.86-4.02,7.19-3.51,5.9-9.84,13.45-13.73,20.14-2.19,3.76-1.12,7.49-5.24,10.05-3.88-1.17-6.02-3.21-10.2-4.37-.52-.66-1.08-2.75-1.46-2.91,7.87-.42,3.91-9.72,4.35-10.17.22-.23,3.7.33,5.93-2.11,3.47-3.79,6.45-15.76,11.51-20.29-11.09-9.94-28.32-14.79-33.45-30Z"/><path class="cls-4" d="M109.72,268.21c.09.48,1.55,1.5,1.6,3.57.07,2.92-1.93,6.4-1.4,8.54.76,3.07,5.33,3.25,5.72,4.92.74,3.2-1.72,7.7-1.66,11.34.06,3.2,1.12,7.41,1.58,10.92-2.71,9.48-2.97,19.87-3.01,29.67l5.92,2.35c.01.24,1.92,1.59,1.58,3.48l-3.12,1.66,3.05,11.59-4.42.74c-.23,3.14-.6,4.37,2.72,4.49l.16,2.76c-3.32-.93-3.88,4.15-4.35,4.39-.96.49-4.33-.42-5.83,0,.84-2.63-1.58-6.01-1.48-7.89.05-1.03,3.51.31,2.94-5.21-.26-2.54-1.46-2.75-1.46-2.91-.01-1.44-.09-2.93,0-4.37.04-.67,2.67-3.45,1.45-5.81h-2.91c.63-2.65.94-4.76,1.46-7.28.49-2.4,4.18-6.12-1.44-2.9v-4.38c.16-1.88-.28-3.99-.01-5.82.83-5.81-.6-13.49-2.98-19.3-.68-1.68-2.78-.94-2.85-1.07-.41-.74.97-4-.78-4.46-5.33,1.45-10.89-.99-15.25-1.36l1.46-2.91h1.46c.94.11,2.03-.17,2.91,0,3.19.6,6.33,2.49,10.19,1.44l-2.91-2.9,13.11-2.9c-4.96-.66-14.43,2.59-14.57-4.37l5.82-2.21-5.82-2.18c1.89-.61,3.94-.85,5.83-1.46.65-.21,1.88.48,2.74-.14l1.65-7.12-4.39-2.18,7.29-.74Z"/><path class="cls-16" d="M26.66,288.59c-.65,13.96-5.16,26.56-1.45,40.75l4.29-.05c-.11-4.2,3.81-10.01,4.44-13.06h2.91c0,.67,1.2,2.03,1.46,2.91-3.73,8.08-5.85,16.92-10.2,24.72,5.26.28,9.32-2.37,14.57-2.9l4.36,4.35-8.73-1.43c-.37.29,1.56,3.01,1.46,4.35-.02.23-1.22,3.75-1.46,4.37-3.75,9.82-6.75,3.6-12.01,2.41-2.75-.62-5.47-.36-8.39-.95-2.15-.43-4.49-2.23-7.29-1.46.04-4.14.75-7.64,1.46-11.64v-1.46h1.46l8.74-1.46,2.19,4.36c3.39-6.59-1.91-5.51-2.19-5.81-.88-.94-1.58-3.05-1.46-4.37.03-.33,1.47-1.32,1.43-2.38-.25-6.53-4.05-13.73-7.26-19.45,2.55-9.34,2.13-12.82,1.46-21.83-.03-.47-.03-.99,0-1.46,3.96-1.27,7.47.98,10.2,1.46Z"/><path class="cls-17" d="M33.95,153.25c1.39,9.14,3.1,18.33,2.93,27.64l1.51-13.88-1.53-12.31c.77.23,2-.15,2.91,0,.52.8-1.42,3.88,2.91,2.91-1.67,7.74-1.21,15.45-1.46,23.28-.36,11.6.26,23.32,0,34.93-.15.91.09,1.96,0,2.91-3.55-1.06-2.65-3.89-2.96-6.51-1.95-16.61-5.78-34.88-8.7-51.7-.73-4.18-1.7-6.23-1.46-11.64h2.89c-.77-3.22.6-4.83,1.48-7.28-.31,3.98.87,7.78,1.46,11.64Z"/><path class="cls-6" d="M82.04,73.21c7.43,1.38,4.58,3.67,4.37,7.28-11.05-2.14-18.45,5.54-27.69,8.73-3.27,1.13-6.71,1.65-10.19,1.46l4.36,7.26h-10.19c.66-.78,7.88-13.82,10.2-17.46l1.46-1.46c.22-.33-.22-1.1,0-1.46l1.46-1.46c.42-.66.93-1.94,1.46-2.91l2.2,4.38c5.01-1.73,9.56-4.93,14.99-5.54,3.35-.38,5.14,1.03,7.58,1.16Z"/><path class="cls-9" d="M41.23,218.73c-.15,1.58-.47,8.75.73,8.75-1.07-4.37,3.5-8.27,3.64-8.75l8.76-17.45c2.75-.23,1.1,4.01,1.44,5.81-2.63,11.63-12.75,19.53-14.69,30.47-.91.36-1.86.09-2.79.09,1.71-3.87-2.69-4.41-2.89-5.37-.93-4.42,1.4-8.6-.02-13.55-1.16-4.04-1.25-3.51-4.37-5.82-.53-.39-.92-1.05-1.46-1.46,4.33-14.32.9-18.82.01-32.76-.38-6.03.23-12.15-.01-18.18,2.92,16.81,6.75,35.09,8.7,51.7.31,2.63-.59,5.45,2.96,6.51Z"/><path class="cls-13" d="M98.06,205.64l-1.45,5.81,14.57-2.9c-2.5,4.9-5.36,17.84-8.31,24.44-1.13,2.53-.94,4.87-4.81,4.66-1.59-5.43-5.52-10.63-7.29-16.01-.88-2.68-2.33-6.29-2.91-8.73,4.22,1,7.15-4.39,10.2-7.28Z"/><path class="cls-12" d="M151.98,143.06l8.03-4.34c-.18,2.59-6.16,13.32.71,13.07-.41.91.74,3.53-.37,5.44-1.82,3.14-10.66,12.04-14.2,16.39-3.23.71-3.24-3.08-5.83-4.37.51-.61-.06-3.59,2.91-3.63l-2.9-5.09,8.73,1.44-1.09-4.39-3.27-1.42,5.84-.74c0-1.1-8.37-1.64-10.22-2.18-2.86-.84-3.71-1.9-5.83-2.91v-1.46c3.49-.32,6.61-1.54,10.2-1.46.93.02,2.16-.18,2.91,0,1.19.29,2.61,2.05,3.64,2.88l1.47-1.42-.74-5.82Z"/><path class="cls-14" d="M12.09,340.98c-.71,4.01-1.41,7.5-1.46,11.64-.05,4.38-1.59,11.89,4.36,11.63.26-1.29-.36-3.44,0-4.36,3.35-.36,2.23,2.44,5.83,2.91l2.9,1.44,1.35,5.67c-2.12.1-4.28,2.71-5.71,3.08-.83.21-2.04-.19-2.91,0-2.12.46-5.21,1.11-7.29,1.46-.95.16-3.07-.1-2.91-1.46,3.58-2.17,6.24-2.71,10.19-3.63C.13,362.61-.95,364.01.43,346.8l5.6-.22c.67-2.42.36-4.78,3.14-5.61.76-.23,2,.15,2.91,0Z"/><path class="cls-6" d="M170.92,118.32c-2.3,1.38-2.42,3.52-2.91,5.82-2.38,11.01-2.71,17.48-7.29,27.65-6.88.25-.9-10.47-.71-13.07l-8.03,4.34.74,5.82-1.47,1.42c-1.03-.83-2.46-2.59-3.64-2.88-.94-3.92,4.03-3.93,4.37-4.37.9-1.16,3.96-8.14,6.55-11.65,1.59-2.16,4.42-3.12-.72-2.9.83-1.61-2.05-5.9,3.66-4.4.95.25-.16,4.43,3.62,2.94l-1.45-8.72v-1.46c4.12-2.54,2.13-2.93,2.91-5.82.61-2.25,2.83-8.48,2.91-10.19,4.04,6.64,2.65,10.71,1.46,17.46Z"/><path class="cls-3" d="M61.63,65.93c1.14-.68,11.69-5.77,12.37-5.85,4.06-.51,1.25,3.37,2.28,4.24,2.14.15,10.66.45,11.58,1.61.4.51.51,5.83,1.46,7.28-3.39-1.25-5.66.09-7.29,0-2.44-.13-4.23-1.54-7.58-1.16-5.43.61-9.98,3.81-14.99,5.54l-2.2-4.38c1.21-2.21-.59-4.31,4.37-7.28Z"/><path class="cls-12" d="M98.06,48.47v2.91c-5.94-.83-9.42,6.65-11.66,7.28-1.62.46-6.78-.52-7.3,0v4.35s8.75,0,8.75,0c.1.36,1.16.9,1.46,1.46-.69.2-1.21.78-1.46,1.46-.92-1.16-9.44-1.46-11.58-1.61-1.03-.87,1.77-4.75-2.28-4.24-.68.08-11.23,5.17-12.37,5.85,5.02-16,22.46-14.82,36.43-17.46Z"/><path class="cls-4" d="M99.52,244.93c.57.31,1.78-.84,2.91,1.03,2.6,4.33,4.42,12.87,5.84,17.88l-11.67.84-5.83-12.47-2.9,7.27-1.46-13.1c.18.21,3.81.56,3.66,2.92l2.17-.02c.24-.84-.27-2.56,0-2.91l8.73,8.72-1.44-10.18Z"/><path class="cls-12" d="M64.55,103.77c-1.73.34-4.27,2.66-7.29,1.46l.03,2.88c2.31-.18,3.45.49,2.89,2.93-.48-.02-.98.05-1.46,0-.29-.03-1.42-1.33-2.91-1.46-4.78-.4-1.88,2.03-3.3,3.9-2.53,3.34-8.95,3.78,1.84,6.29-.23,0-1.82,1.44-4.37,1.46-4.21.02-7.96.02-9.46-4.39l-3.68,3.67,13.14,3.64c.18.46-.22,1.25,0,1.46l-5.83,4.35,4.17.18c-1.23,3.93,3,6.72,3.12,7.11.21.68-.05,1.98,0,2.91l-4.11.22-1.71,5.6c-.34-.36-3.45.1-4.24-2.35-1.11-3.48,1.15-5.68,1.32-7.84.39-4.85.62-5.98-4.37-7.28.81-1.94,1.96-3.42,1.45-5.81h-5.82c2.38-7.16,2.77-7.2,5.83-13.1l9.49,2.88-.76-4.34-2.89,1.47.12-2.8c5.32-.65-.19-6.01,7.09-3.73-.55-.73-.71-1.55.06-2.21,3.61,2.28,7.32,3.47,11.66,2.91Z"/><path class="cls-14" d="M20.83,332.25c-3.78-1.7-6.46-1.13-10.2,0-1.22.37-2.79.02-3.75,1.44-1.16,1.11.83,1.38.83,1.47.06.94-.21,2.21,0,2.91-3.01-.6-4.51.26-5.83,2.91.98-6.23,2.91-6.76,4.37-13.1,3.94.85,2.8-2,3.62-4.32,1.39-3.94,4.22-9.81,5.13-13.14,3.21,5.72,7.01,12.92,7.26,19.45.04,1.06-1.4,2.05-1.43,2.38Z"/><path class="cls-8" d="M35.4,237.65c.97,8.7-2.82,16.31,0,24.74-1.54-.79-2.85-.93-4.37,0l-.72-2.91c-3.71,7.31-7.83,7.41-15.31,8.73-.64-3.81-.27-3.08,0-5.82h8.75c-2.1-8.2,6.77-9.71,8.51-17.11.95-4.04-1.21-5.51-1.23-6.17-.07-3.1-.63-6.65,2.19-8.72-.13,2.2,2,5.66,2.18,7.27Z"/><path class="cls-22" d="M16.46,288.59c.67,9.01,1.09,12.49-1.46,21.83-.91,3.34-3.74,9.2-5.13,13.14-.82,2.32.32,5.17-3.62,4.32,2.58-11.19,2.13-23.94,5.03-34.99.64-2.43,1.49-7.42,5.17-4.3Z"/><path class="cls-12" d="M160.72,65.93c4.18,1.15,6.32,3.2,10.2,4.37-3.35,2.09-3.49.97-7.33.63-2.01,1.35-1.52,5.81-1.41,8.1-5.18-2.2-8.95-4.75-14.56-1.45,1.51-6.74-6.54-3.52-7.3-10.2,3.25.85,6.4,3.44,10.19,2.91v-5.82c2.68.93,8.29.93,10.21,1.46Z"/><path class="cls-3" d="M29.58,281.31c1.98.35,5.5,2.36,8.74,2.91,2.2.37,5.01-.32,7.29,0,1.72.24,7,1.9,8.74,2.91-4.81,4.11-14.11,3.51-20.4,2.91-1.07-.1-5.27-1.1-7.29-1.46-2.73-.48-6.24-2.72-10.2-1.46.06-.84-.4-2,.19-2.66,2.3-.04,5.86-2.91,7.09-3.16.46-.09.98.05,1.46,0,1.19-.13,3.27-.19,4.37,0Z"/><path class="cls-9" d="M31.03,239.11c.01.66,2.18,2.13,1.23,6.17-1.74,7.4-10.61,8.91-8.51,17.12h-8.75c.76-7.73,2.47-11.77,4.37-18.93h2.9s-1.44,7.27-1.44,7.27c2.66.8,2.57-1.3,2.91-1.45,6.25-2.6,2.57-5.67,7.29-10.19Z"/><path class="cls-16" d="M121.38,32.46c4.68,13.85,20.32,20.03,30.6,29.11-9.83-2.7-11.63-6.25-18.94-8.73-.45-.15-1.06.16-1.46,0l-.73-2.93-.73,2.93c-4.69-1.75-7.85-4.45-5.84-10.18-.56-.64-3.1,2.66-4.36,2.91,3.86-4.4-2.51-7.62-1.51-12.33.35-1.66,2.51-.39,2.97-.77Z"/><path class="cls-11" d="M31.03,262.39c1.2,4.97-7.07,10.29-7.3,10.93-1.17,3.36,5.41,3.16,7.3,3.62s3.88,1,5.83,1.46l-7.29,2.91c-1.1-.19-3.18-.13-4.37,0,.07-2.65-.91-3.23-2.91-4.37-1.65-.94-5.02-.49-6.58-2.93-1.27-1.99-.41-4.01-.71-5.8,7.48-1.32,11.59-1.42,15.31-8.73l.72,2.91Z"/><path class="cls-12" d="M119.92,45.56c1.26-.25,3.8-3.55,4.36-2.91-2.01,5.73,1.15,8.44,5.84,10.18.43.16,1.05-.17,1.46,0s1.01-.15,1.46,0v1.46c.23.76.88,1.03,1.46,1.46.47.35,1.86.77,2.91,1.46-2.73.73-4.94,3.35-7.29,4.37-.38.16-.98-.13-1.46,0,1.2-2.63-7.06-7.47-8.74-7.28l-1.67-5.62c-2.32-.63-4.72-.09-7.07-.2-1.23-.06-2.53-.06-2.91-1.46,4.17-.75,8.33-.8,11.66-1.46Z"/><path class="cls-4" d="M108.26,47.01c.38,1.4,1.68,1.39,2.91,1.46.84,4.25-5.7,2.95-4.36,7.99l1.45.74c-.72.22-2.1,2.65-2.91,2.91-2.98.94-5.8,1.91-8.74,2.91-.43.15-1.01-.14-1.46,0-1.65.51-2.76,1.41-2.91,1.46-.45.13-1.03-.14-1.46,0l10.19-12.38-2.91-.72v-2.91c3.57-.67,6.98-.88,10.2-1.46Z"/><path class="cls-6" d="M118.47,339.52l-5.92-2.35c.04-9.8.3-20.18,3.01-29.67,1.53,11.67,2.4,19.77,2.91,32.02Z"/><path class="cls-7" d="M35.4,218.73c-6.35,7.68-10.12,20.68-11.66,30.56-.34.14-.25,2.25-2.91,1.45l1.44-7.26h-2.9c.52-1.97.88-3.83,1.46-5.83,4.18.21,3.61-2.22,4.6-4.88,2.27-6.09,4.29-13.46,5.61-19.86,3.12,2.31,3.21,1.78,4.37,5.82Z"/><path class="cls-16" d="M33.95,122.69h5.82c.51,2.4-.64,3.88-1.45,5.82-1.87,4.45-4.01,8.09-5.83,13.1-.89,2.45-2.25,4.06-1.48,7.27h-2.89c.46-10.37,2.78-17.06,5.83-26.19Z"/><path class="cls-12" d="M90.78,221.64c1.77,5.38,5.7,10.58,7.29,16.01.33,1.12-.22,3.04,0,4.37h-4.37c-1.48-2.13-1.84-4.08-2.91-5.82-1.57-4.64-1.69-9.91-2.91-14.55h2.91Z"/><path class="cls-10" d="M163.64,87.76c4.18-1.17,3.7,5.28,4.37,8.73l1.46,1.46c.1.9.05,1.99,0,2.91-.09,1.71-2.3,7.93-2.91,10.19-2.93-5.66-3.77-14.71-4.17-21.16-.07-1.11,1.26-1.94,1.25-2.13Z"/><path class="cls-22" d="M31.03,212.91c-1.32,6.4-3.34,13.77-5.61,19.86-.99,2.65-.42,5.09-4.6,4.88,2.58-8.85,6.09-17.42,8.74-26.2.54.4.93,1.07,1.46,1.46Z"/><path class="cls-4" d="M140.32,179.44c-.29.32-.09,1.96-.87,2.79-3.09,3.3-8.43,8.78-12.24,10.31.57-1.07.55-3.05,1.63-4.86,2.65-4.41,8.52-5.98,7.12-12.6l4.36,4.36Z"/><path class="cls-14" d="M108.26,263.85c.38,1.33,1.05,2.19,1.46,4.37l-7.29.74,4.39,2.18-1.65,7.12c-.86.62-2.08-.07-2.74.14,2.13-8.05-2.93-7.13-4.37-8.73-.3-.33-2.07-4.97-3.29-5.39-2.32-.78-5.54.1-6.67-.75-.7-.53-.08-2.46-.24-2.6v-1.46l2.9-7.27,5.83,12.47,11.67-.84Z"/><path class="cls-22" d="M7.72,338.07c.2.69,1.51,1.74,1.46,2.91-2.78.83-2.47,3.18-3.14,5.61l-5.6.22c.14-1.74,1.15-3.88,1.46-5.82,1.32-2.65,2.82-3.51,5.83-2.91Z"/><path class="cls-12" d="M98.06,243.47c.39.03.95,1.18,1.46,1.46l1.44,10.18-8.73-8.72c.85-1.08,1.99-1.9,2.91-2.91.97.05,1.95-.07,2.91,0Z"/><path class="cls-16" d="M128.67,25.18c-1.13,1.99-1.89,5.81-5.83,5.82,1.25-1.68.77-6.12,5.83-5.82Z"/><path class="cls-13" d="M170.92,118.32c-.31,1.75.25,3.97,0,5.83h-2.91c.5-2.31.62-4.45,2.91-5.83Z"/><path class="cls-16" d="M25.2,281.31c-.48.05-1-.09-1.46,0l-1.46-4.37c2,1.13,2.98,1.71,2.91,4.37Z"/><path class="cls-4" d="M98.06,242.02v1.46c-.96-.07-1.95.05-2.91,0-.49-.46-1.07-.9-1.46-1.46h4.37Z"/><path class="cls-3" d="M52.89,80.48c.35-.55,1.1-.93,1.46-1.46l-1.46,1.46Z"/><path class="cls-3" d="M54.35,77.57c.47-.76,1.27-1.15,1.46-1.46l-1.46,1.46Z"/><path class="cls-6" d="M169.47,97.95l-1.46-1.46c.02.1,1.32.29,1.46,1.46Z"/><path class="cls-7" d="M89.32,73.21c6.07,2.24,17.72,10.57,24.37,11.35,3.05.36,6.3-2.34,9.19-.49l1.25,1.62c-2.33,5.47-.71,9.75.16,15.17-3.77.6-3.27-3.97-7.32-5.29-2.06-.67-2.73.93-2.88.92-.96-.08-1.95.08-2.91,0-4.14-.34-5.68-2.48-8.74-2.91l-5.11-10.2c-4.37-.15-7.67,9.45-7.99,13.11.62.63,9.24-2.78,11.65-2.9l5.82,4.35c-4.88.02-10.65-.72-14.56,2.93-.32.02-.7,1.02-1.29,1.08-3.42.32-6.87-3.32-5.99,1.82h26.94s-.71,5.83-.71,5.83h-1.46l-1.43.73,1.43.73v1.46c-1.45-.04-2.92.04-4.36,0l1.45-5.8c-3.85-1.35-2.34,2.48-3.93,2.91s-3.28-.16-4.82-.01c-8.02.77-16.92-3.23-21.41-10.29-2.05-.27-2.62,1.27-3.37,1.56-.56.21-1.64-.21-2.47.45-.73.58-1.24,1.69-1.9,2.46-.94.1-2-.15-2.91,0v-5.82c3.36-.25,6.82.11,10.2,0,.97-.03,1.95.05,2.91,0,1.45-.07,2.92.07,4.36-.01l-2.91-1.44c4.62-7.55,5.3-6.69,5.83-16.01.21-3.61,3.06-5.89-4.37-7.28,1.62.09,3.89-1.25,7.29,0Z"/><path class="cls-7" d="M105.35,60.11c4.15,2.63,1.92,7.38,8.74,7.28.27,5.76,4.89,15.63-7.08,11.42l-1.86-11.23c-4.9-.35-7.36,1.27-8.55-4.56,2.94-1,5.76-1.97,8.74-2.91Z"/><path class="cls-19" d="M150.52,64.47v5.82c-3.8.53-6.95-2.05-10.2-2.91s-6.84-1.06-10.12-1.55l-.08-4.27c2.34-1.01,4.56-3.63,7.29-4.37,3.92,2.54,8.75,5.76,13.11,7.28Z"/><path class="cls-14" d="M115.55,109.59c1.27.14,4.52,2.82,7.29,1.46,2.96,7.54,2.52,7.97,2.91,16.01,1.59.26,2.2,1.2,2.91,1.46v1.46h-1.46c-1.39-.39-1.4-1.68-1.46-2.91-.91-.15-1.97.1-2.91,0-.05-.64-1.55-4.41-2.19-4.38-1.43,3.89-3.99,4.26-8.01,4.38.22-.35-.6-2.03.27-2.68l4.2-1.04-.09-10.84c-2.42-.05-4.87.07-7.29,0v-2.91h1.46c1.44.1,2.95-.16,4.37,0Z"/><path class="cls-17" d="M128.67,128.51c5.19,1.85,10.28,4.36,15.96,4.45l.07,4.28c-4.83,2.24-8.77,5.4-14.57,4.37-.02-.34-1.1-.99-1.46-1.46v-11.64Z"/><path class="cls-19" d="M119.92,54.29c1.68-.2,9.94,4.65,8.74,7.28-.22.06-.62,1.6-1.9,1.26-1.68-.44-2.85-3.11-4.98-3.88-6.92-2.49-7.98,2.41-7.7,8.44-6.83.1-4.6-4.65-8.74-7.28.81-.26,2.19-2.69,2.91-2.91,1.4-.43,4.95-.11,7.4-.62,2.12-.45,4.01-2.26,4.25-2.29Z"/><path class="cls-17" d="M157.81,128.51c5.13-.22,2.3.74.72,2.9-2.58,3.52-5.65,10.49-6.55,11.65-.34.44-5.31.44-4.37,4.37-.75-.18-1.98.02-2.91,0,.6-3.01-.26-4.5-2.91-5.82,5.73-2.62,5.05-3.62,7.29-5.82,1.95-1.92,8.48-6.76,8.74-7.28Z"/><path class="cls-9" d="M98.06,51.38l2.91.72-10.19,12.38c-.43.14-1-.13-1.46,0-.3-.56-1.36-1.09-1.46-1.46-.38-1.34.48-3.37-1.46-4.37,2.23-.63,5.71-8.11,11.66-7.28Z"/><path class="cls-8" d="M149.07,135.78c-2.24,2.2-1.55,3.21-7.29,5.82-3.24,1.48-6.55,2.85-10.2,2.92l2.91,4.36v1.46c-.96-.46-3.92.54-5.21-1.35-2.08-3.04.92-6.21.84-7.38,5.8,1.03,9.74-2.12,14.57-4.37,1.42-.66,2.77-1.33,4.37-1.46Z"/><path class="cls-1" d="M150.54,81.94c2.95-.48,4.27,1.78,5.45,3.99,6.4,11.97-12,8.96-5.45-3.99Z"/><path class="cls-16" d="M114.09,96.49c.15.01.82-1.59,2.88-.92,4.05,1.32,3.55,5.89,7.32,5.29.08.47-.09.99,0,1.46-.67.55-2.66,1.02-2.91,1.46-.98-.37-1.94-1.16-2.91-1.46.03-.97.03-1.94,0-2.91h-2.91c-.42-1-1.01-1.93-1.46-2.91Z"/><path class="cls-16" d="M121.38,106.68c.28.38,1.05,2.11,1.46,2.91.19.37-.17,1.02,0,1.46-2.76,1.37-6.02-1.31-7.29-1.46.87-1.43,2.63-4.43,2.91-5.82.29,1.56,2.41,2.21,2.91,2.91Z"/><path class="cls-7" d="M124.29,102.31c.3,1.65,2.73,4.28,1.45,7.28h-2.91c-.41-.81-1.18-2.54-1.46-2.92.19-.85-.29-2.42,0-2.91.25-.44,2.24-.9,2.91-1.46Z"/><path class="cls-7" d="M140.32,102.32c1.3,1.54-3.54,7.61-5.11,8.69-.5-1,2.5-11.8,5.11-8.69Z"/><polygon class="cls-7" points="144.67 97.94 141.79 97.94 141.86 95.86 146.14 90.67 144.67 97.94"/><path class="cls-17" d="M163.64,116.86v4.36s-2.91,0-2.91,0l-.03-3.64c.24-1.47,2.41-.4,2.94-.72Z"/><path class="cls-7" d="M95.15,63.02v2.9s-2.91-1.45-2.91-1.45c.16-.05,1.26-.95,2.91-1.46Z"/><path class="cls-14" d="M151.98,61.56c2.08.57,5.99.89,7.29,1.46.38.16.94,2.25,1.46,2.91-1.92-.53-7.53-.53-10.2-1.46-4.36-1.52-9.2-4.74-13.11-7.28-1.05-.68-2.44-1.11-2.91-1.46l-1.46-1.46v-1.46c7.31,2.48,9.11,6.03,18.94,8.73Z"/><path class="cls-22" d="M125.75,161.98c-.26,1.27.18,2.98,0,4.37-.68.13-2.27,3.17-5.1,2.97l-2.6-2.81c-5.38,1.6-10.08,4.72-15.24,6.77-3.48,1.39-12.41,2.68-13.49,3.26-1.5-.23-.23-5.21,0-5.82,2.52-.41,7.17-5.29,10.2-7.28,4.42,3.63,10.34-3.08,15.06-2.9l-.49-5.83c.36-.1,1.08-2.23,2.8-.83l8.86,8.1Z"/><path class="cls-11" d="M77.66,175.08c-.02.16-2.1,1.08-1.45,2.9l7.27.02c.63,2.69-2.89.5-2.92,2.18-.07,4.37,2.91,1.58,4.38.71v2.91c-1.9-.11-1.95.73-2.91,1.46-5.15,3.86-2.58,15.3-2.91,21.83-4.28-5.18-5.93-11.3-4.66-17.77l-5.54-11.34c-.23-3.85.15-7.79.01-11.64l5.8,7.28c.48-4.47-.6-9.65-.07-13.98.27-2.17,1.51-3.29,1.54-3.48,1.06,6.01,2.31,12.83,1.46,18.92Z"/><path class="cls-9" d="M125.75,161.98c.8-3.88,2.09-5.43,0-10.18,2.24-2.25,15.48,13.55,14.57,1.45,1.85.54,10.21,1.08,10.22,2.18l-5.84.74,3.27,1.42,1.09,4.39-8.73-1.44,2.9,5.09c-2.98.05-2.4,3.02-2.91,3.63-.74.89-1.59,1.58-1.48,2.89l-2.86-.02c1.12-3.33-8.56-6.11-10.23-5.78.18-1.38-.26-3.1,0-4.37Z"/><path class="cls-9" d="M84.95,202.73c.24.8-.23,2.09,0,2.91.21.76-.2,1.99,0,2.91h2.91c.2,1.37-.29,3.16,0,4.37.59,2.44,2.03,6.05,2.91,8.73h-2.91c-.88-3.34-2.7-6.83-3.64-10.2l-.36,9.12-3.28,1.09c-.34-2.32-2.21-4.34-1.52-7.8.3-1.51,4.4.07,2.96-3.84l-4.33.74c.99-.89,1.36-2.39,1.43-3.65.33-6.53-2.24-17.97,2.91-21.83-2.99,3.65.11,6.68.8,10.14.91,4.58,1.29,4.6,2.12,7.32Z"/><path class="cls-5" d="M84.95,183.81c1.4.08,7.94,4.74,7.3,6.53l-4.23.82c-.46,3.92.91,8.82-3.07,11.56-.82-2.73-1.21-2.74-2.12-7.32-.69-3.46-3.79-6.49-.8-10.14.96-.72,1.02-1.57,2.91-1.46Z"/><path class="cls-5" d="M125.75,127.05c.06,1.23.06,2.52,1.46,2.91.82,4.51-4.65,5.78-4.39,10.9l5.85-.71c.36.47,1.43,1.12,1.46,1.46.08,1.17-2.92,4.34-.84,7.38,1.29,1.88,4.25.89,5.21,1.35,2.12,1.01,2.97,2.07,5.83,2.91.91,12.1-12.33-3.7-14.57-1.45,2.08,4.75.79,6.29,0,10.18l-8.86-8.1c-1.73-1.4-2.44.73-2.8.83-5.95,1.65-9.46,5.37-14.57,8.73-3.03,1.99-7.68,6.87-10.2,7.28-.23.61-1.5,5.59,0,5.82-.53.28-.97,5.4-4.37,4.37-1.47.87-4.45,3.66-4.38-.71.03-1.69,3.55.51,2.92-2.18l-7.27-.02c-.65-1.83,1.43-2.74,1.45-2.9,3.15,2.73,5.54-1.81,7.29-4.37.73.21,3.44.15,4.37,0,1.06-2.83,6.25-8.87,8.74-11.64,1.82-2.03,4.84-2.37,7.29-5.82,1.91-.89,9.19-2.46,9.93-3.27.96-1.05-.03-3.41.27-4.01.17-.34,4.38.38,4-5.37-.18-2.71-3.37-4.56-2.53-7.72.54-.61,6.62,4.82,5.82-5.82.94.1,2.01-.15,2.91,0Z"/><path class="cls-9" d="M98.06,186.72c.02-.12-1.41-.99-1.17-1.95.84-3.43,9.93-8.52,13.54-8.25,4.21,4.73-8.57,8.98-9.46,10.2h-2.91Z"/><path class="cls-11" d="M98.06,205.64c1.45-1.37,2.78-4.81,4.97-4.31l8.15,4.33v2.89s-14.57,2.9-14.57,2.9l1.45-5.81Z"/><path class="cls-12" d="M122.84,188.17c-1.09-1.17,4.93-10.9,7.26-11.63,1.2,2.5-4.83,14.24-7.26,11.63Z"/><path class="cls-12" d="M122.83,189.64c1.7,1.65-6.79,9.22-7.26,8.72-2.8-5.04,2.7-8.38,7.26-8.72Z"/><path class="cls-5" d="M100.98,186.72c-.58.8.4,6.35-3.63,5.84-1.63-1,.45-4.21.71-5.84h2.91Z"/><path class="cls-5" d="M84.95,205.64h2.91c.15.95-.13,2,0,2.91h-2.91c-.2-.93.21-2.15,0-2.91Z"/><path class="cls-8" d="M90.78,329.34c7.6-9.65-.73-18.06-1.45-27.64,4.06-1.7,4.36,2.45,4.68,2.57,1.87.71,4.72-1.46,6.97-1.12l5.83,18.92c-.26,1.83.18,3.94,0,5.82l-4.07-.21-1.77-11.44c-4.65-1.5-3.18,6.66-2.58,9.14,1.02,4.22,5.08,8.06,5.52,12.69l4.35-2.91c-.52,2.52-.82,4.64-1.46,7.28-.05.19-1.41.56-1.27,1.92l2.73,3.9c-.09,1.43-.01,2.92,0,4.37l-1.45,2.9h2.91c.57,5.53-2.89,4.19-2.94,5.22-.09,1.87,2.32,5.26,1.48,7.89-.48.13-1.02,1.33-1.46,1.46-1.18.34-3.48-.39-4.37,0-7.12-3.05-2.29-7.84-3.14-9.92-.2-.49-6.21-4.7-7.06-7.54-.53-1.77.37-5.16,0-7.28,1.43-.38,2.41-1.56,2.91-2.91,1.72-.21,4.91.82,5.82-.72-1.38-3.69-8.32-4.89-9.51-6.55-1.33-1.85-.26-4.95-.68-5.82ZM95.88,308.96v1.46c.95-.49.95-.97,0-1.46Z"/><path class="cls-6" d="M92.24,352.62c.86,2.84,6.86,7.05,7.06,7.54.85,2.09-3.98,6.88,3.14,9.92-1.97.87-1.89,1.7-2.91,2.91-1.59,1.88-2.95,2.99-2.91,5.82-.44.53-1.14.98-1.46,1.46l-2.92-5.83h-13.11c-.42-.59-.66-1.2-1.46-1.44v-1.46c.37-.12,5.63-4.47,4.37-5.82.47-.09.99.1,1.46,0,1.04-.23,5.84-1.69,5.84-2.2-.18-2.91-3.68-4.55-5.84-6.53-.91-4.52,5.37-4.23,8.74-4.37Z"/><path class="cls-6" d="M82.04,364.26v1.46c-.88.17-1.99-.14-2.91,0-.07-1.69,1.67-1.47,2.91-1.46Z"/><path class="cls-11" d="M99.52,372.99l1.25.87c.73,4.88-3.93,4.67-4.17,4.95-.04-2.83,1.32-3.94,2.91-5.82Z"/><path class="cls-17" d="M49.98,268.21c1.48.26,2.68,1.15,5.83,1.46l.75,7.3c12.53-4.27,22.4.35,34.22,2.89v1.46c-.35.23-3.73,6.33-4.37,7.28-1.03,1.53-5.48,1.55,0,4.37l-1.46,2.91c-10.52-.9-11.91,6.25-5.84,13.1l2.91-8.73c2.8,8.51,2.56,18.85,5.59,27.13,1.05,2.85,3.09,1.81,3.17,1.98.42.87-.65,3.98.68,5.82,1.2,1.66,8.13,2.87,9.51,6.55-.91,1.54-4.1.51-5.82.72-1.26.15-3.78,1.54-4.18,1.29-.33-.2-.68-2.91-2.48-4.07-2.9-1.89-7.55-.19-6.46-4.49,2.95,0,6.87,1.43,5.83-2.9l-6.7-1.41c-3.53.02-2.73,2.36-3.51,4.31-.17.43-1.13.9-1.46,1.46-1.32-4.44-3.33-8.85-8.73-8.73l-2.91,12.38c-5.59,3.77-10.44.63-16.05.72-1.91.03-3.95-.19-5.83,0-5.25.52-9.31,3.17-14.57,2.9,4.35-7.81,6.47-16.65,10.2-24.72,2.97-6.44,7.73-14.34,11.66-20.37.84.23,2.19-.26,2.91,0-.98,8.36,3.43,16.43,9.5,21.82,5.46,1.18,4.19-15.54,1.84-17.16-.83-.57-4.74-.83-6.97-1.75-3.03-6-5.99-4.33-2.9-13.1l2.9,1.45c.23.75,1.87,4.29,2.38,4.43,6.16.29,13.11-.71,18.9-2.83,2-.73,2.5.52,2.03-3.04l-16.02-1.49,1.47-4.34c-7.26-3.2-13.32-2.39-20.42,1.44-2.27-.32-5.09.37-7.29,0v-2.91s5.82-.72,5.82-.72c-1.8-3.02-4.98-1.65-7.28-2.19-1.95-.46-3.88-.98-5.83-1.46l10.21-1.46c.73-4.56-.53-6.75-2.92-10.18,3.7,1.38,7.78,2.23,11.66,2.91Z"/><path class="cls-19" d="M84.95,295.86c4.35.37,9.91,2.81,15.25,1.36,1.75.46.37,3.72.78,4.46v1.46c-2.25-.34-5.1,1.83-6.97,1.12-.31-.12-.62-4.27-4.68-2.57.72,9.58,9.05,17.99,1.45,27.64-.08-.17-2.12.87-3.17-1.98-3.04-8.28-2.79-18.61-5.59-27.13l-2.91,8.73c-6.07-6.85-4.68-14,5.84-13.1Z"/><path class="cls-2" d="M96.61,279.86l5.82,2.18-5.82,2.21c.14,6.96,9.61,3.71,14.57,4.37l-13.11,2.9-7.29-1.45v2.91c-.88-.17-1.97.11-2.91,0l-1.46-4.37c.64-.95,4.02-7.04,4.37-7.28.82-.54,4.3-.96,5.83-1.46Z"/><path class="cls-14" d="M108.26,335.16l-4.35,2.91c-.45-4.63-4.5-8.47-5.52-12.69-.6-2.48-2.07-10.64,2.58-9.14l1.77,11.44,4.07.21v4.38c5.63-3.22,1.95.5,1.46,2.9Z"/><path class="cls-7" d="M102.44,278.4c-1.89.61-3.93.84-5.83,1.46-1.53.49-5.01.92-5.83,1.46v-1.46c2.61-.69,2.35-3.57,2.91-4.37,1.06-1.5,4.12-2.86,4.37-5.82,1.44,1.6,6.5.68,4.37,8.73Z"/><path class="cls-14" d="M100.98,301.69c.07.13,2.17-.6,2.85,1.07,2.37,5.81,3.81,13.49,2.98,19.3l-5.83-18.92v-1.46Z"/><path class="cls-11" d="M98.06,291.5l2.91,2.9c-3.87,1.05-7.01-.84-10.19-1.44v-2.91s7.29,1.45,7.29,1.45Z"/><path class="cls-14" d="M106.81,342.43h2.91c1.22,2.37-1.41,5.15-1.45,5.82l-2.73-3.9c-.14-1.35,1.22-1.73,1.27-1.92Z"/><path class="cls-11" d="M87.86,292.95h-1.46c-5.48-2.82-1.03-2.84,0-4.37l1.46,4.37Z"/><path class="cls-14" d="M109.72,355.53h-2.91s1.45-2.91,1.45-2.91c0,.16,1.19.37,1.46,2.91Z"/><path class="cls-19" d="M33.95,290.04c1.1,3.41-.07,7.23,0,10.19.12,5.41,1.34,9.59,0,16.01-.64,3.05-4.55,8.85-4.44,13.06l-4.29.05c-3.71-14.2.79-26.8,1.45-40.75,2.02.35,6.22,1.35,7.29,1.46Z"/><path class="cls-22" d="M48.52,340.98l1.58,7.18,4.24.09-.77-2.86c1.81.47,6.54,1.43,8.06,1.42.26,7.5-2.4,12.02,5.83,14.55.75.23,1.98-.16,2.9.01v1.43c-1.93.01-3.88.05-5.82.01-3.83-.07-5.4-1.23-7.29-1.46l-2.86-8.06-10.92-.57-3.71-4.47c.1-1.34-1.83-4.07-1.46-4.35l8.73,1.43-4.36-4.35c1.88-.19,3.92.03,5.83,0Z"/><path class="cls-22" d="M38.32,352.62l1.93.04c1.47,3.5,3.19,3.13,6.8,2.9.23.93-.13,1.99.01,2.88l-1.94.04c-1.98,5.95-9.04.47-12.63,4.33-3.71-.39-8.03.48-11.66,0s-2.48-3.27-5.83-2.91c.71-1.76,2.99-3.38,2.91-5.82,2.92.59,5.64.33,8.39.95,5.26,1.19,8.27,7.41,12.01-2.41Z"/><path class="cls-14" d="M39.78,348.25l3.71,4.47,10.92.57,2.86,8.06c-3.24-.38-6.9.29-10.21,0-.13-.94.16-2.01.01-2.91s.22-1.95-.01-2.88c-3.61.23-5.33.6-6.8-2.9l-1.93-.04c.23-.61,1.44-4.14,1.46-4.37Z"/><path class="cls-2" d="M49.98,298.77c-3.93,6.03-8.68,13.94-11.66,20.37-.26-.88-1.46-2.24-1.46-2.91,0-6.17,3.93-11.87,5.83-17.46,3.88-.49,1.41-1.61,7.29,0Z"/><path class="cls-3" d="M20.83,332.25c-.12,1.32.58,3.43,1.46,4.37v1.46l-8.74,1.46-.73-1.43-.73,1.43v1.46c-.91.15-2.15-.23-2.91,0,.06-1.17-1.25-2.22-1.46-2.91s.06-1.97,0-2.91h2.91s0-2.91,0-2.91c3.74-1.13,6.42-1.7,10.2,0Z"/><path class="cls-11" d="M42.69,298.77c-1.9,5.59-5.84,11.29-5.83,17.46h-2.91c1.34-6.42.12-10.59,0-16.01,2.82-1.16,5.79-1.08,8.74-1.46Z"/><path class="cls-17" d="M17.92,354.08c.07,2.45-2.2,4.07-2.91,5.82-.37.92.25,3.07,0,4.36-5.96.25-4.41-7.25-4.36-11.63,2.8-.78,5.14,1.02,7.29,1.46Z"/><path class="cls-14" d="M22.29,336.61c.29.31,5.58-.78,2.19,5.81l-2.19-4.36v-1.46Z"/><polygon class="cls-14" points="13.55 339.52 12.09 339.52 12.82 338.1 13.55 339.52"/><path class="cls-3" d="M51.43,185.26c-4.6.17-4.6-3.44-4.39-7.27h-1.42c.44,3.31-1.56,3.35-4.39,2.9.24-7.83-.21-15.54,1.46-23.28.72-3.36.09-5.66,4.37-7.28,2.87,8.41,4.89,25.96,4.37,34.93Z"/><path class="cls-1" d="M51.43,185.26c-.28,4.88-1.98,10.97-2.91,16.01-3.87-1.02-6.77,11.34-7.29,14.55.26-11.61-.36-23.33,0-34.93,2.84.44,4.83.41,4.39-2.9h1.42c-.21,3.82-.22,7.44,4.39,7.27Z"/><path class="cls-19" d="M39.78,154.7c-1.09-1.67-3.79-4.06-4.02-5.26-.71-3.73,3.09-13.39,2.58-18.02l4.36,4.36c-.17,2.16-2.44,4.36-1.32,7.84.78,2.45,3.89,1.99,4.24,2.35.11.12,1.28,2.49,1.46,2.91s-.15,1.01,0,1.46c-4.28,1.61-3.65,3.92-4.37,7.28-4.34.97-2.39-2.11-2.91-2.91Z"/><path class="cls-4" d="M38.32,128.51c4.99,1.29,4.76,2.42,4.37,7.28l-4.36-4.36c.51,4.63-3.29,14.29-2.58,18.02.23,1.2,2.93,3.58,4.02,5.26-.92-.15-2.15.23-2.91,0-.68-.2-1.74-1.52-2.91-1.46-.59-3.86-1.77-7.66-1.46-11.64,1.82-5.01,3.96-8.65,5.83-13.1Z"/><path class="cls-22" d="M48.52,201.27c-.96,5.17-1.58,12.85-2.91,17.46-.14.48-4.72,4.37-3.64,8.75-1.2,0-.88-7.16-.73-8.75.09-.95-.15-2,0-2.91.52-3.22,3.42-15.58,7.29-14.55Z"/><path class="cls-16" d="M36.86,154.7l1.53,12.31-1.51,13.88c.17-9.32-1.54-18.5-2.93-27.64,1.17-.07,2.24,1.26,2.91,1.46Z"/><path class="cls-5" d="M86.41,80.48c-.53,9.31-1.21,8.45-5.83,16.01-.3.5-1.08.9-1.46,1.46-.97.05-1.95-.03-2.91,0v-2.91c5.41.73,2.15-7.73,2.9-11.64-2.87,1.29-4.32,4.42-7.27,5.82-3.06,1.45-3.58-.09-4.37,0-5.89.67-3.47,3.12-8.74,2.9v-2.9c9.23-3.19,16.63-10.88,27.68-8.73ZM81.31,83.39v1.46c.95-.49.95-.97,0-1.46Z"/><path class="cls-17" d="M60.18,134.33c3.08,6.56,3.09,13.28,2.91,20.37-.16,6.4-1.16,13.52-1.46,20.37-.13,2.9.17,5.84,0,8.73-.46,7.74-.47,12.29-.17,19.74.01.35-4.92,1.77-2.75,6.45h-1.46c-.13-.85-1.29-2.01-1.46-2.91-.33-1.8,1.31-6.04-1.44-5.81l-8.76,17.45c1.33-4.61,1.95-12.29,2.91-17.46.94-5.03,2.63-11.13,2.91-16.01.52-8.96-1.5-26.51-4.37-34.93-.15-.45.17-1.06,0-1.46,4.25,1.03,4.54-5.52,4.37-8.73-.05-.93.21-2.23,0-2.91h1.46c1.52,2.72,2.5,3.47,5.82,2.9.24-2.05-1.27-3.93-1.45-5.81h2.91Z"/><path class="cls-3" d="M57.26,210c.39,2.68-.3,5.93.01,8.72l2.9-5.81c-.97,6.91-2.32,24.86-1.53,31.36.39,3.23,2.32,4.98,2.99,7.93-2.44-2.06-4.55-3.4-7.11-5.26-.56-3.57-.03-7.18-.18-10.75-.04-.97.02-1.94,0-2.91,0-.48.02-.97,0-1.46-.07-2.16.73-5.72-.72-7.27l-7.76,12.69,2.65,9.13c-.23.32.15,2.67-.86,4.18-1.93,2.88-8.79,8.06-5.51,10.4.46.33,1.59-.32,2-.03,2.56,1.85.72,2.31,5.83,2.91v4.37c-3.87-.68-7.96-1.53-11.66-2.91-1.01-1.46-1.13-1.99-2.91-2.91-2.82-8.43.97-16.03,0-24.74.97,0,1.94,0,2.91,0s1.88.27,2.79-.09c1.94-10.94,12.07-18.84,14.69-30.47.17.9,1.33,2.06,1.46,2.91Z"/><path class="cls-12" d="M35.4,218.73c1.43,4.95-.9,9.13.02,13.55.2.96,4.6,1.49,2.89,5.37-.97,0-1.94,0-2.91,0-.18-1.61-2.31-5.07-2.18-7.27-2.82,2.08-2.26,5.63-2.19,8.72-4.72,4.51-1.03,7.58-7.29,10.19,1.54-9.88,5.31-22.88,11.66-30.56Z"/><path class="cls-5" d="M141.78,141.6c2.65,1.32,3.52,2.82,2.91,5.82-3.59-.08-6.71,1.13-10.2,1.46l-2.91-4.36c3.65-.08,6.96-1.44,10.2-2.92Z"/><path class="cls-12" d="M32.49,362.81c1.07.11,2.89,1.26,5.02,1.47,3.61.35,18.07-.81,19.75,2.9-8.67.21-9.73-1.78-13.11,7.28-3.38.19-6.82-.13-10.2,0-6.52-.48-8.71,1.67-14.56,2.9v-4.36c1.42-.36,3.58-2.97,5.7-3.08l-1.35-5.67-2.9-1.44c3.63.48,7.95-.39,11.66,0Z"/><path class="cls-11" d="M66.01,97.95v5.82c-.47.08-.99-.09-1.46,0-4.34.56-8.05-.63-11.66-2.91,2.7-2.3,9.49-2.65,13.11-2.91Z"/><path class="cls-1" d="M71.83,89.21c2.95-1.4,4.4-4.53,7.27-5.82-.75,3.91,2.51,12.37-2.9,11.64.09-2.04-1.55-1.24-2.91-1.46-.47-.07-.99.09-1.46,0v-4.37Z"/><path class="cls-11" d="M71.83,89.21v4.37c-1.3-.24-2.97.2-4.38,0v-4.37c.8-.09,1.32,1.45,4.38,0Z"/><path class="cls-11" d="M76.21,95.04l-2.91-1.46c1.36.21,3-.59,2.91,1.46Z"/><path class="cls-3" d="M86.41,58.65c1.94,1,1.08,3.03,1.46,4.37h-8.75s0-4.36,0-4.36c.51-.53,5.68.45,7.3,0Z"/><path class="cls-9" d="M80.58,228.92l4.37,2.92,1.45-4.37c.5,2.14.5,6.04,1.46,7.72s2.85.87,2.93,1c1.08,1.74,1.43,3.69,2.91,5.82.39.56.97.99,1.46,1.46-.93,1.01-2.07,1.83-2.91,2.91-.27.35.23,2.07,0,2.91l-2.17.02c.15-2.37-3.47-2.71-3.66-2.92-.27-.31.23-2.08-.01-2.91l-1.44,1.46c.21-.59.34-5.77,1.45-7.27-.86-.23-2.49.27-2.91,0-3.96-2.65-3.06-4.91-4.37-8.73h1.46Z"/><path class="cls-5" d="M86.41,246.38l1.46,13.1v1.46c-.89-.73-2.67.42-4.47-3.51-1.28-2.8-.94-5.72-1.36-6.68.92-1.29.92-3.03,1.46-4.37.17-.42,1.26-.9,1.46-1.46l1.44-1.46c.24.84-.26,2.61.01,2.91Z"/><path class="cls-16" d="M73.29,100.86c.75-.29,1.32-1.83,3.37-1.56,4.49,7.07,13.38,11.06,21.41,10.29-.19.86.28,2.37,0,2.91-8.04,1.02-16.19-2.66-24.15-1.56-2.71.37-1.91,2.73-3.08,2.99-2.71.61-7.65-1.41-9.21,1.48-.1.19-.05,1.04,0,1.46-.96-.06-1.96.1-2.91,0v-5.82c.48.05.97-.02,1.46,0,1.77.06,4.21.25,5.83,0,5.69-.89,10.01-4.52,7.29-10.19Z"/><path class="cls-8" d="M57.26,119.77c1.82-.13,4.02-.15,5.83,0,1.44.12,2.93-.13,4.38,0v2.91c-1.88.14-6.61,2.98-10.2,1.47,2.46,4.49-.45,5.44,0,10.17.18,1.88,1.69,3.76,1.45,5.81-3.32.56-4.3-.18-5.82-2.9,1.28-3.15,2.18-8.83-.28-11.42-.67-.7-2.41-.02-2.64-.22s.18-.99,0-1.46c-.26-.67.18-2.02,0-2.91,2.55-.01,4.14-1.45,4.37-1.46.49-.01.97.02,1.46,0s.97.03,1.46,0Z"/><path class="cls-4" d="M55.81,109.59v7.29c.96.1,1.96-.11,2.91-.01s1.95-.06,2.91,0c.1.82,1.15,1.98,1.46,2.91-1.81-.15-4.01-.13-5.83,0l-.73-1.43-.73,1.43c-.48.02-.97-.01-1.46,0-10.8-2.51-4.37-2.95-1.84-6.29,1.42-1.87-1.48-4.3,3.3-3.9Z"/><path class="cls-4" d="M68.92,103.77c-1.06,1.24-3.7,5.76-2.91,7.28-1.62.25-4.05.06-5.83,0,.56-2.44-.58-3.11-2.89-2.93l-.03-2.88c3.02,1.2,5.56-1.12,7.29-1.46.47-.09.98.08,1.46,0,.92-.15,1.97.1,2.91,0Z"/><path class="cls-22" d="M49.98,124.14l-13.14-3.64,3.68-3.67c1.51,4.42,5.25,4.42,9.46,4.39.18.89-.26,2.24,0,2.91Z"/><path class="cls-14" d="M58.72,111.04v5.82c-.95-.1-1.95.11-2.91.01v-7.29c1.49.12,2.62,1.43,2.91,1.46Z"/><path class="cls-4" d="M58.72,89.21v2.9c5.27.21,2.85-2.24,8.74-2.9v4.37c1.4.2,3.07-.24,4.37,0,.47.09.98-.07,1.46,0l2.91,1.46v2.91c-3.38.11-6.84-.25-10.2,0-3.62.26-10.41.61-13.11,2.91-.77.66-.61,1.47-.06,2.21-7.27-2.28-1.77,3.08-7.09,3.73l-.12,2.8,2.89-1.47.76,4.34-9.49-2.88c1.85-3.57.94-7.08-.11-10.73.22-1.51,2.89-.76,3.02-.92h10.19s-4.36-7.27-4.36-7.27c3.48.19,6.92-.33,10.19-1.46Z"/><path class="cls-22" d="M10.63,332.25v2.91s-2.91,0-2.91,0c0-.08-2-.36-.83-1.47.96-1.42,2.52-1.07,3.75-1.44Z"/><path class="cls-19" d="M35.4,262.39c1.78.92,1.9,1.45,2.91,2.91,2.39,3.43,3.65,5.62,2.92,10.18l-10.21,1.46c-1.89-.46-8.46-.26-7.3-3.62.22-.64,8.49-5.96,7.3-10.93,1.52-.93,2.83-.79,4.37,0Z"/><path class="cls-2" d="M45.61,284.22c7.1-3.83,13.16-4.64,20.42-1.44l-1.47,4.34,16.02,1.49c.47,3.56-.02,2.3-2.03,3.04-5.79,2.12-12.74,3.12-18.9,2.83-.51-.14-2.15-3.68-2.38-4.43-.44-1.43.32-4.08-.01-5.81h-1.42c.02,1-.78,2.31-1.48,2.9-1.75-1.01-7.03-2.67-8.74-2.91Z"/><path class="cls-5" d="M57.26,290.04l-2.9-1.45c-3.09,8.76-.13,7.1,2.9,13.1-2.81-1.16-4.12-2.82-4.37-2.91-.72-.26-2.07.23-2.91,0-5.88-1.61-3.4-.49-7.29,0-2.95.38-5.92.29-8.74,1.46-.07-2.95,1.1-6.78,0-10.19,6.29.6,15.6,1.2,20.4-2.91.69-.59,1.49-1.91,1.48-2.9h1.42c.33,1.73-.43,4.38.01,5.81Z"/><path class="cls-2" d="M36.86,278.4c2.3.54,5.48-.83,7.28,2.19l-5.84.72v2.91c-3.23-.55-6.75-2.56-8.73-2.91l7.29-2.91Z"/><path class="cls-14" d="M131.58,52.83c-.41-.17-1.03.16-1.46,0l.73-2.93.73,2.93Z"/><path class="cls-14" d="M111.18,48.47c2.35.12,4.75-.43,7.07.2l1.67,5.62c-.24.03-2.13,1.84-4.25,2.29-2.46.52-6,.19-7.4.62l-1.45-.74c-1.34-5.04,5.2-3.74,4.36-7.99Z"/><path class="cls-16" d="M134.49,55.74c-.58-.42-1.23-.69-1.46-1.46l1.46,1.46Z"/><path class="cls-2" d="M87.86,221.64c1.23,4.64,1.35,9.92,2.91,14.55-.08-.13-2,.62-2.93-1s-.96-5.58-1.46-7.72l-1.45,4.37-4.37-2.92c-.23-2.34.33-5.02,0-7.28l3.28-1.09.36-9.12c.94,3.37,2.76,6.86,3.64,10.2Z"/><path class="cls-22" d="M82.04,250.75c.43.96.08,3.87,1.36,6.68,1.8,3.93,3.57,2.78,4.47,3.51.17.14-.46,2.07.24,2.6,1.13.85,4.35-.03,6.67.75,1.21.41,2.99,5.06,3.29,5.39-.26,2.96-3.31,4.32-4.37,5.82l-.24-2.72c-6.22.29-4.11-5.63-9.96-8.92-.41-.23-2.75-1.43-2.91-1.46l-1.46-13.1c.53.61,2.72,1.02,2.91,1.46Z"/><path class="cls-19" d="M98.06,109.59c1.53-.15,3.28.43,4.82.01s.07-4.26,3.93-2.91l-1.45,5.8c1.45.05,2.91-.03,4.36,0,2.43.06,4.87-.06,7.29,0l.09,10.84-4.2,1.04c-.88.65-.05,2.32-.27,2.68-.79,1.25-2.57,3.62-2.91,4.37-1.86-2.78-3.43-8.68-7.29-4.75l-.02,3.26-8.72-1.45,2.21-8.68c-2.88,1.91-4.41,1.41-3.69,5.74l-10.17-1.42c-1.16-5.06,4.36-.56,7.28-2.91l-5.82-4.33c2.85-1.64,13.56-2.44,14.57-4.39.28-.54-.19-2.05,0-2.91Z"/><path class="cls-21" d="M114.09,96.49c.45.98,1.04,1.92,1.46,2.91.22.52-.47,1.99.22,2.69s2.05.03,2.69.22c-.02.47.09,1.01,0,1.46-.28,1.39-2.04,4.39-2.91,5.82-1.43-.16-2.93.1-4.37,0l.71-5.83h-26.94c-.89-5.14,2.57-1.5,5.99-1.82.59-.06.97-1.06,1.29-1.08,5.59-.38,18.91,2.3,18.94-4.37.96.08,1.96-.08,2.91,0Z"/><path class="cls-21" d="M100.98,93.58c-2.41.13-11.03,3.53-11.65,2.9.33-3.66,3.63-13.25,7.99-13.11l5.11,10.2c-.45-.06-1-.02-1.46,0Z"/><path class="cls-11" d="M111.18,96.49c-.04,6.67-13.36,3.98-18.94,4.37,3.92-3.65,9.69-2.91,14.56-2.93l-5.82-4.35c.46-.02,1.01-.06,1.46,0,3.06.43,4.6,2.57,8.74,2.91Z"/><path class="cls-11" d="M73.29,100.86c2.72,5.67-1.6,9.3-7.29,10.19-.79-1.51,1.86-6.04,2.91-7.28.67-.78,1.17-1.89,1.9-2.46.83-.65,1.91-.24,2.47-.45Z"/><path class="cls-11" d="M80.58,96.49l2.91,1.44c-1.44.08-2.91-.06-4.36.01.37-.55,1.15-.96,1.46-1.46Z"/><polygon class="cls-16" points="109.72 111.04 108.29 110.32 109.72 109.59 109.72 111.04"/><path class="cls-16" d="M122.84,127.05c.8,10.64-5.28,5.21-5.82,5.82-.84,3.17,2.35,5.01,2.53,7.72.38,5.75-3.83,5.03-4,5.37l-5.84-3.65,5.84-6.52-5.82-1.47c.18-.87-.28-2.32,0-2.91.35-.74,2.13-3.11,2.91-4.37,4.02-.12,6.58-.49,8.01-4.38.63-.03,2.14,3.74,2.19,4.38Z"/><path class="cls-16" d="M128.67,140.15l-5.85.71c-.26-5.11,5.21-6.39,4.39-10.9h1.46v10.19Z"/><path class="cls-7" d="M115.55,99.4h2.91c.03.97.04,1.94,0,2.91-.64-.19-2.01.45-2.69-.22s0-2.16-.22-2.69Z"/><path class="cls-14" d="M121.38,103.77c-.29.49.19,2.06,0,2.91-.51-.7-2.62-1.35-2.91-2.91.09-.44-.02-.99,0-1.46.98.3,1.93,1.09,2.91,1.46Z"/><path class="cls-6" d="M114.09,154.7l.49,5.83c-4.72-.17-10.63,6.53-15.06,2.9,5.12-3.36,8.63-7.09,14.57-8.73Z"/><path class="cls-5" d="M77.66,134.33c.23.04,4.17,1.34,4.37,1.46s1.26,1.18,1.46,1.46c2.31,3.19,1.37,9.65-2.91,8.73-.07-1.71,1.12-6.11-1.44-5.81.11,5.36-2.16,11.33-2.93,16-.03.19-1.28,1.31-1.54,3.48-.53,4.33.55,9.51.07,13.98l-5.8-7.28c.14,3.85-.24,7.8-.01,11.64.06.96-.08,1.95,0,2.91-3.85-1.09-3.32-6.68-7.29-5.82.3-6.86,1.3-13.97,1.46-20.37l1.47-21.82c4.18,2,9.38.73,13.1,1.45Z"/><path class="cls-21" d="M80.58,145.97c.13,3.38-.11,6.8,0,10.18,1.87.64,2.69-1.4,2.9-1.45,1.03-.25,2.96.68,4.02-.29.87-.79.53-4.62,2.55-5.52l2.16-.02.15,4.18,2.77.18c-1.07.85-1,3.83-1.46,4.37-2.77,3.25-7.56,6.53-11.65,4.36-.05,3.29-.92,7.62,2.91,8.74-1.74,2.56-4.14,7.1-7.29,4.37.85-6.09-.4-12.91-1.46-18.92.77-4.67,3.04-10.64,2.93-16,2.56-.29,1.38,4.1,1.44,5.81Z"/><path class="cls-12" d="M68.92,177.99l5.54,11.34c-1.27,6.47.38,12.58,4.66,17.77-.06,1.26-.44,2.76-1.43,3.65l4.33-.74c1.43,3.91-2.66,2.33-2.96,3.84-.69,3.45,1.18,5.48,1.52,7.8s-.23,4.94,0,7.28h-1.46c-1.71-4.98-1.82-8.6-2.91-13.1-2.25-9.22-4.52-16.33-5.83-26.2-.37-2.77-1.3-6.89-1.46-8.73-.08-.96.06-1.95,0-2.91Z"/><path class="cls-4" d="M98.06,159.07c-2.49,2.77-7.69,8.81-8.74,11.64-.93.15-3.64.21-4.37,0-3.83-1.12-2.95-5.45-2.91-8.74,4.09,2.18,8.88-1.11,11.65-4.36l4.37,1.46Z"/><path class="cls-4" d="M92.24,345.34c.37,2.11-.53,5.51,0,7.28-3.37.14-9.65-.16-8.74,4.37-1.14-1.05-1.02-3.3-2.9-2.9l-.24,7.03-3.44,1.7-5.07-5.83c.62-1.1,1.03-4.22,1.46-5.82,5.08,1.57,4.09-2.74,4.37-2.91.26-.15,4.09-.92,5.83-1.46,3.11-.95,6.31-.8,8.74-1.46Z"/><path class="cls-22" d="M82.04,335.16c-1.1,4.3,3.56,2.6,6.46,4.49,1.8,1.17,2.15,3.87,2.48,4.07.4.25,2.92-1.14,4.18-1.29-.51,1.35-1.48,2.53-2.91,2.91-2.44.65-5.63.5-8.74,1.46-3.42,1.26-2.49-2.91-3.64-2.93-1.21-.02-.78,2.29-2.19,2.93-.92-2.95-.69-7.6-1.46-10.19.32-.55,1.29-1.03,1.46-1.46h4.37Z"/><path class="cls-22" d="M77.66,346.8v1.46c-.28.17.71,4.48-4.37,2.91.4-1.5.57-3.03,1.46-4.37.9-.05,2.43.22,2.91,0Z"/><path class="cls-19" d="M95.88,308.96c.95.49.95.97,0,1.46v-1.46Z"/><path class="cls-14" d="M83.49,356.99c2.17,1.99,5.67,3.63,5.84,6.53,0,.51-4.8,1.97-5.84,2.2.17-1.04-.49-1.44-1.46-1.46-1.24-.02-2.98-.24-2.91,1.46-5.25.78-9.27,1.14-14.57,1.46v-4.37c1.94.04,3.89,0,5.82-.01v-1.43c-.93-.17-2.16.21-2.91-.01.23-2.2,3.98-3.66,4.37-4.37l5.07,5.83,3.44-1.7.24-7.03c1.88-.39,1.76,1.86,2.9,2.9ZM86.4,361.37h-4.36v1.43h4.36v-1.43Z"/><path class="cls-1" d="M79.12,365.72c.92-.14,2.03.17,2.91,0,1.26,1.35-4,5.7-4.37,5.82-1.07.34-3.05-.24-4.37,0-6.17,1.14-12.73.91-18.94,1.46l2.91-5.82c2.42-.06,4.88.14,7.29,0,5.31-.31,9.32-.68,14.57-1.46Z"/><path class="cls-1" d="M83.49,365.72c-.46.1-.99-.09-1.46,0v-1.46c.97.01,1.63.42,1.46,1.46Z"/><path class="cls-9" d="M77.66,372.99c.8.24,1.03.85,1.46,1.46,1.21,1.72,1.66,3.73,1.45,5.81l-3.64.03c-.08-3.53-2.73-4.4-3.64-5.84-.18-.29.12-.97,0-1.46,1.33.22,3.27-.33,4.37,0Z"/><path class="cls-11" d="M77.66,371.54v1.46c-1.11-.33-3.05.22-4.37,0v-1.46c1.32-.24,3.3.34,4.37,0Z"/><path class="cls-17" d="M73.29,371.54v1.46c.12.49-.18,1.16,0,1.46-1.91.27-3.97,1.32-5.83,1.46-6.45.48-13.13-.27-19.61-.1l-.8,4.47c-1.65.6-2.74-1.46-2.91-1.46v-2.91c-3.63,1.48-8.38-1.32-10.2-1.46,3.38-.13,6.82.19,10.2,0,3.92-.22,6.94-1.17,10.2-1.46,6.21-.54,12.77-.31,18.94-1.46Z"/><path class="cls-19" d="M83.49,263.85c5.85,3.3,3.75,9.22,9.96,8.92l.24,2.72c-.56.8-.31,3.67-2.91,4.37-11.82-2.54-21.69-7.16-34.22-2.89l-.75-7.3c.18.02,1.22-1.53,3.37-1.4,5.22.32,11.2,2.63,17.02,1.38l-2.91-4.35c.93.09,2.28-.23,2.91,0,1.2.44,4.93,8.27,7.29-1.46Z"/><path class="cls-16" d="M77.66,346.8c1.4-.64.97-2.95,2.19-2.93s.22,4.19,3.64,2.93c-1.74.53-5.57,1.3-5.83,1.46v-1.46Z"/><path class="cls-16" d="M76.21,336.61c.77,2.59.54,7.24,1.46,10.19-.49.22-2.01-.05-2.91,0-3.98.21-9.47-.04-13.11,0-1.52.01-6.25-.95-8.06-1.42l.77,2.86-4.24-.09-1.58-7.18c5.6-.09,10.46,3.05,16.05-.72l2.91-12.38c5.4-.12,7.41,4.29,8.73,8.73Z"/><path class="cls-19" d="M52.89,298.77c.25.09,1.56,1.75,4.37,2.91,2.23.92,6.14,1.18,6.97,1.75,2.35,1.62,3.62,18.34-1.84,17.16-6.07-5.39-10.48-13.46-9.5-21.82Z"/><path class="cls-11" d="M73.29,265.3l2.91,4.35c-5.83,1.24-11.8-1.07-17.02-1.38-2.15-.13-3.19,1.41-3.37,1.4-3.15-.3-4.35-1.2-5.83-1.46v-4.37c7.32.87,15.93.73,23.32,1.46Z"/><path class="cls-16" d="M77.66,335.16c.78-1.95-.02-4.29,3.51-4.31l6.7,1.41c1.04,4.32-2.88,2.9-5.83,2.9h-4.37Z"/><path class="cls-5" d="M74.75,346.8c-.89,1.33-1.06,2.87-1.46,4.37-.42,1.6-.84,4.73-1.46,5.82-.4.7-4.14,2.17-4.37,4.37-8.23-2.53-5.57-7.05-5.83-14.55,3.65-.04,9.13.21,13.11,0Z"/><path class="cls-5" d="M47.06,358.44c.15.9-.14,1.97-.01,2.91,3.31.29,6.97-.38,10.21,0,1.89.22,3.46,1.38,7.29,1.46v4.37c-2.41.14-4.87-.06-7.29,0-1.69-3.7-16.15-2.54-19.75-2.9-2.13-.21-3.95-1.36-5.02-1.47,3.59-3.86,10.65,1.62,12.63-4.33l1.94-.04Z"/><path class="cls-22" d="M51.43,140.15c.17,3.21-.12,9.76-4.37,8.73-.17-.42-1.34-2.79-1.46-2.91l1.71-5.6,4.11-.22Z"/><path class="cls-7" d="M81.31,83.39c.95.49.95.97,0,1.46v-1.46Z"/><path class="cls-22" d="M61.63,183.81c7.2-1.6,3.77,6.65,8.74,5.82,1.31,9.87,3.58,16.98,5.83,26.2l-4.16-.19-3.37-11.25-2.68-.21c-.38-1.51-2.28-3.35-1.47-5.81h-1.43c.71,4.19-.81,7.79-1.47,11.64h-2.91c-2.18-4.68,2.76-6.1,2.75-6.45-.3-7.45-.29-12,.17-19.74Z"/><path class="cls-7" d="M73.29,122.69c7.17.83,9.16,6.17,8.74,13.1-.2-.12-4.15-1.41-4.37-1.46.06-6.72-18.16-5.94-17.49,0h-2.91c-.45-4.74,2.46-5.68,0-10.17,3.6,1.52,8.33-1.32,10.2-1.47,1.73-.13,4.15-.19,5.83,0Z"/><path class="cls-14" d="M60.18,134.33c-.68-5.94,17.54-6.72,17.49,0-3.73-.72-8.92.55-13.1-1.45l-1.47,21.82c.17-7.09.17-13.82-2.91-20.37Z"/><path class="cls-11" d="M61.63,175.08c3.97-.85,3.43,4.73,7.29,5.82.16,1.84,1.09,5.96,1.46,8.73-4.97.83-1.55-7.43-8.74-5.82.17-2.89-.13-5.83,0-8.73Z"/><path class="cls-22" d="M49.98,125.6c.22.21,1.97-.48,2.64.22,2.46,2.59,1.56,8.27.28,11.42h-1.46c-.12-.4-4.34-3.18-3.12-7.11l-4.17-.18,5.83-4.35Z"/><path class="cls-5" d="M61.63,210c-.08.47.07.98,0,1.46-.06.37-1.4,1.02-1.46,1.46l-2.9,5.81c-.31-2.79.38-6.04-.01-8.72h4.37Z"/><path class="cls-17" d="M64.55,212.91c2.63,4.68,3.26,2.67,5.83,7.28.36,7.81,2.88,17.51,5.83,24.74.19.47-.22,1.47.38,2.54.4.71,1.92,1.13,2.53,1.83l1.46,13.1c-1.32-.24-2.98.1-4.38,0v2.91c-.63-.23-1.98.09-2.91,0l.03-6.23c-.46-1.82-2.35-.77-2.95-1.05-5.03-2.32-5.42-3.02-8.74-5.82-.67-2.95-2.6-4.7-2.99-7.93-.79-6.5.56-24.45,1.53-31.36.06-.44,1.4-1.08,1.46-1.46,1.64-.23,2.13.06,2.91,1.46Z"/><path class="cls-8" d="M54.35,236.2c.15,3.57-.38,7.18.18,10.75,2.55,1.86,4.67,3.2,7.11,5.26,3.32,2.8,3.71,3.5,8.74,5.82l-3.47,4.31c-7.32-2.5-15.17-1.07-22.76-1.4-.4-.29-1.53.36-2,.03-3.28-2.34,3.58-7.52,5.51-10.4,1.01-1.51.63-3.86.86-4.18.09-.13,2.53.6,2.93-.96.68-2.58-.45-6.39-.02-9.24h2.91Z"/><path class="cls-7" d="M70.38,258.03c.59.27,2.49-.77,2.95,1.05l-.03,6.23c-7.38-.72-16-.59-23.32-1.46-5.11-.6-3.26-1.06-5.83-2.91,7.59.34,15.44-1.1,22.76,1.4l3.47-4.31Z"/><path class="cls-9" d="M54.35,231.83l-1.43.73,1.43.73c.02.97-.04,1.94,0,2.91h-2.91c-.44,2.84.69,6.65.02,9.23-.41,1.55-2.84.83-2.93.96l-2.65-9.13,7.76-12.69c1.45,1.55.65,5.11.72,7.27Z"/><path class="cls-8" d="M54.35,233.29l-1.43-.73,1.43-.73c.02.48,0,.97,0,1.46Z"/><path class="cls-4" d="M109.72,134.33l5.82,1.47-5.84,6.52,5.84,3.65c-.3.6.68,2.96-.27,4.01-.74.81-8.02,2.38-9.93,3.27,1.12-1.58-.04-6.4,4.36-5.84v-1.42c-.88-.2-2.46.27-2.9-.01-.71-.46-1.6-2.94-3.46-3.03l-14.03-4.24c.08-.96-.05-1.95,0-2.91,1.14-.28,1.76-2,4.9-1.49,3.6.59,8.45,5.1,13.17,4.3l2.33-4.27Z"/><path class="cls-6" d="M106.81,145.97c.44.28,2.03-.19,2.9.01v1.42c-4.4-.56-3.24,4.26-4.36,5.84-2.44,3.45-5.47,3.79-7.29,5.82l-4.37-1.46c.46-.54.39-3.51,1.46-4.37,1.97-1.58,10.11-2.78,11.66-7.28Z"/><path class="cls-9" d="M57.26,367.17l-2.91,5.82c-3.26.28-6.28,1.24-10.2,1.46,3.39-9.05,4.45-7.07,13.11-7.28Z"/><path class="cls-5" d="M66.01,204.18l2.68.21,3.37,11.25,4.16.19c1.1,4.5,1.21,8.12,2.91,13.1,1.31,3.83.41,6.09,4.37,8.73l-2.9,7.27c-2.68-8.36-5.94-17.05-10.22-24.73-2.57-4.61-3.2-2.6-5.83-7.28h2.91c-1.13-2.72-.83-6.29-1.45-8.73Z"/><path class="cls-3" d="M70.38,220.19c4.27,7.67,7.53,16.36,10.22,24.73l2.9-7.27c.42.28,2.05-.22,2.91,0-1.11,1.5-1.25,6.68-1.45,7.27-.19.56-1.29,1.03-1.46,1.46l-7.29-1.46c-2.95-7.23-5.47-16.93-5.83-24.74Z"/><path class="cls-9" d="M83.49,246.38c-.53,1.34-.54,3.07-1.46,4.37-.19-.43-2.38-.85-2.91-1.46-.61-.7-2.13-1.12-2.53-1.83-.6-1.06-.19-2.06-.38-2.54l7.29,1.46Z"/><path class="cls-20" d="M98.06,112.5c-1.01,1.94-11.72,2.75-14.57,4.39l5.82,4.33c-2.92,2.35-8.44-2.15-7.28,2.91l10.17,1.42c-.72-4.33.81-3.83,3.69-5.74l-2.21,8.68,8.72,1.45.02-3.26c3.86-3.93,5.42,1.97,7.29,4.75-.28.59.18,2.04,0,2.91l-2.33,4.27c-4.72.8-9.57-3.7-13.17-4.3-3.14-.52-3.76,1.21-4.9,1.49-1.85.45-4.06.07-5.83,1.46-.2-.27-1.26-1.34-1.46-1.46.41-6.93-1.57-12.27-8.74-13.1.09-5.87-7.89-3.99-11.66-7.28,1.55-2.89,6.49-.88,9.21-1.48,1.16-.26.36-2.62,3.08-2.99,7.96-1.1,16.11,2.58,24.15,1.56Z"/><path class="cls-14" d="M73.29,122.69c-1.68-.19-4.1-.13-5.83,0v-2.91c-1.44-.14-2.93.12-4.37,0-.31-.93-1.35-2.09-1.46-2.91-.05-.41-.1-1.26,0-1.46,3.77,3.28,11.74,1.4,11.66,7.28Z"/><path class="cls-12" d="M57.26,119.77c-.48.03-.97-.02-1.46,0l.73-1.43.73,1.43Z"/><path class="cls-11" d="M80.58,262.39c.16.03,2.51,1.23,2.91,1.46-2.36,9.72-6.09,1.89-7.29,1.46v-2.91c1.39.1,3.05-.24,4.37,0Z"/><path class="cls-8" d="M89.32,135.78c-.05.96.08,1.95,0,2.91-.61,7.2-5.67,9.21-5.83,16.01-.21.05-1.04,2.09-2.9,1.45-.11-3.38.12-6.8,0-10.18,4.29.91,5.23-5.54,2.91-8.73,1.77-1.38,3.98-1,5.83-1.46Z"/><path class="cls-13" d="M89.32,138.69l14.03,4.24c1.86.09,2.74,2.58,3.46,3.03-1.55,4.5-9.68,5.69-11.66,7.28l-2.77-.18-.15-4.18-2.16.02c-2.02.9-1.69,4.73-2.55,5.52-1.07.97-3,.04-4.02.29.16-6.8,5.22-8.8,5.83-16.01Z"/><rect class="cls-1" x="82.04" y="361.37" width="4.36" height="1.43"/><path class="cls-9" d="M66.01,204.18c.62,2.44.32,6.01,1.45,8.72h-2.91c-.78-1.38-1.27-1.67-2.91-1.45.07-.47-.08-.98,0-1.46.66-3.85,2.19-7.44,1.47-11.64h1.43c-.81,2.47,1.09,4.3,1.47,5.81Z"/></g></svg>