<?xml version="1.0" encoding="UTF-8"?><svg id="Capa_2" xmlns="http://www.w3.org/2000/svg" viewBox="0 0 605.8 212.93"><defs><style>.cls-1{fill:#8d9298;}.cls-2{fill:#09c3b0;}.cls-3{fill:#35cabd;}.cls-4{fill:#02806e;}.cls-5{fill:#10c7b6;}.cls-6{fill:#abb3b8;}.cls-7{fill:#7bd5cd;}.cls-8{fill:#959aa1;}.cls-9{fill:#05567f;}.cls-10{fill:#01b299;}.cls-11{fill:#047666;}.cls-12{fill:#019984;}.cls-13{fill:#c9d5da;}.cls-14{fill:#fefefe;}.cls-15{fill:#a0cdce;}.cls-16{fill:#e3e8eb;}</style></defs><g id="Layer_1"><path class="cls-2" d="M385.76,69.14c.7,1.86,2.47,1.39,3.74,1.86,1.38.52,3.12,1.71,3.74,1.86-2.76,1.07.79,4.53-.34,7.02-.5,1.11-12.64,9.13-14.89,10.48-1.9,1.14-5.12.97-5.35,1.15-1.1.86,1.87,3.4,1.89,3.7.26,5.22-14.66,10.1-18.7,11.17-2.4.64-5.03,1.24-7.48,1.86-1.52.39-3.87-.26-5.61,0,.42-.42-.29-1.91-.93-1.86-2.04.14.05,2.74.93,1.86v1.86h-1.87c-4.44-.97-9.92,3.47-13.09,3.72-.32.03-2.08-2.54-3.73-1.86-.21,1.07.28,3.5-.01,3.72-1.4,1.06-11.41-2.04-13.09,1.86-3.73-.1-7.5.19-11.22,0-3.25-.16-3.53,1.87-3.74,1.86-1.72-.07-3.49-1.86-3.74-1.86-1.71-6.75,10.94-3.37,14.18-7.37.93-1.14-.77-4.03-1.1-5.66-4.58.36-8.47,3.46-13.07,3.72-1.63-6.23,4.62-2.74,5.6-3.72,3.67-3.66-7.57-3.87-3.73-7.44.41-.38,10.64,1.66,11.06,2.03.82.73-.14,3.96.15,5.41,2.81-.22,5.01.82,7.46,1.86-2.29-5.04-.61-5.04,1.88-9.31,3.32-5.68.68-7.53,9.33-3.73l.38-8.06,1.51-1.25c2.41,3.26,1.54,3.29,5.61,3.72,3.23.35,9.42.96,11.22-1.86.19.28,5.36.59,5.61,3.72-3.54,5.27-7.57,7.73-9.34,13.03,16.53,3.77,37.33-11.91,11.21-14.89,1.53-2.96,2.26-6.32,3.74-9.31,3.11.05,6.24-.06,9.34.02l-5.61,1.85v5.57c10.75.13,26.06,1.47,14.03-11.16-2.17,12.09-4.62,1.74-10.27-.95,2.59.31,5.71-.77,7.47-.92.62-.06,1.26.08,1.87,0h1.87c3.1-.68,4.37,1.74,3.74-3.72,3.1-.18,6.25.15,9.35,0Z"/><path class="cls-5" d="M215.63,119.42c-1.27,5.84,3.27,3.01,8.05,4.09l1.3,1.5c-20.83,4.68-32.42,10.17-50.48,18.62-2.51,1.18-10.98,2.54-13.09,3.72.73-6.22-1.83-2.9-5.25-2.42-8.74,1.22-10.25,4.29-10.89,4.37-2.41.3-7.7-1.9-11.91-1.95-10.89-.12-8.51,2.43-14.96,5.59-1.34.66-7.06,3.68-7.48,3.72-.74.07-3.76-1.96-5.61-1.86.23-1.77-.33-3.96,0-5.59,1.16.2,2.8-.3,3.74,0,10.25,3.31,8.64,1.57,14.92-6.52l-13.05-.93c-.42-.52-10.8-.08,1.87-5.59.6-.12,1.27.12,1.87,0l3.74-1.86c1.69-.33,3.91.32,5.61,0l3.74-1.86c14.42-2.52,28.84-3.4,43-5.59,14.84-2.29,30.25-4.08,44.87-7.45Z"/><path class="cls-16" d="M511.02,44.93c4.01,3.9,7.61,6.23,9.35,11.17-8.93-1.78-15.02,4.14-22.31,8.51-4.55,2.73.68,3.06,1.74,4.53-1.22.16-4.61,1.38-7.48,1.86-2.3.39-5.03-.15-7.88.44-13.84,2.9-30.99,14.3-45.08,6.68-4.13-2.23-2.15-6.65-4.26-7.25s-26.62-.41-29.76.15c-3.84.68-4.34,3.62-4.62,3.7-.37.1-6.1-1.52-7.48-1.86-.62-.16-2.36-1.34-3.74-1.86v-1.86c4.72-.21,11.62-1.86,14.02-1.86h48.61c3.96,0,26.79-5.7,31.83-7.4,9.88-3.33,18.1-10.02,27.06-14.95Z"/><path class="cls-12" d="M110.94,162.26c12.93-1.98,17.81-3.77,30.84-7.46,2.73-.78,5.28-5.05,4.69,1.88-1.39.97-2.46,2.79-3.74,3.72-3.82,2.78-7.43,4.19-9.35,5.59-.33-9.95-9.18,6.49-14.61.49l-7.83,8.82c-1.23.08-2.64-.2-3.74,0l-.95-1.84c-3.46-.65-2.97.54-2.79,3.71-.97.32-2.1,1.38-3.74,1.86-.28-3.18-10.4-.34-11.01.26-.84.83.07,2.72-.21,3.46l-48.61,16.76c-1.11.21-2.52-.12-3.74,0-4.97.48-6.41,2.38-10.48,3.6-4.39,1.31-10.95-.7-11.95,7.58-7.11-.86-10.91-4.74-13.09-11.17.57-.62,1.14-1.45,1.87-1.86,3.77,3.11,12.77.4,17.2-.56,26.5-5.73,56.51-17.77,81.22-28.97,3.09-1.4,6.66-.42,6.27-5.86,1.2-.15,2.55.18,3.74,0Z"/><path class="cls-2" d="M36.16,160.39c1.45-.16,3.09,1.74,3.74,1.86-3.58,2.68-13.1,11.69-4.39,14.62,8.18,2.76,7.89-2.84,9.52-3.32,3.64-1.07,8.05-.3,12.13-2.11,1.56-.7,1.78-3.54,3.76-4.21,2.47-.84,6.67,1.02,7.01.62.59-.71-.55-5.03.01-5.6.47-.48,7.46,1.61,13.08,0l-8.78,10.75c-17.37,5.74-34.59,14.59-52.47,18.63-4.04.91-6.71,1.61-6.09-3.29-2.65-.54-2.09,3.34-4.59,5.66-1.91,1.78-4.41,2.4-6.6,3.63-.73.41-1.3,1.24-1.87,1.86-4.28-12.67,14.16-26.67,23.72-33.17,4.6-3.13,7.91-3.83,11.8-5.94Z"/><path class="cls-11" d="M110.94,175.29c2.39-.16,6.26-.76,7.48,1.86-8,5.46-17.62,13.81-26.17,18.62-14.43,8.12-42.29,15.17-58.91,16.72-3.98.37-11.01,1.32-14-1.82,4.64-.89,9.68-6.98,10.8-7.4,3.27-1.22,7.24,2.41,6.03-3.78,1.22-.12,2.63.21,3.74,0,11.38-2.15,26.03-3.42,37.83-7.93.93-.35,10.07-5.01,10.49-5.42.98-.98,0-2.69.29-3.4,4.59,1.11,8.36-2.88,11.22-3.72,1.64-.48,2.77-1.54,3.74-1.86,1.43-.48,3.42-1.8,3.74-1.86,1.1-.2,2.51.08,3.74,0Z"/><path class="cls-5" d="M367.07,69.14l1.87,3.72c-1.76.16-4.88,1.23-7.47.92,5.65,2.69,8.09,13.04,10.27.95,12.03,12.62-3.28,11.28-14.02,11.16v-5.57s5.61-1.85,5.61-1.85c-3.1-.08-6.23.03-9.34-.02-3.42-.06-8.09-.47-11.22,0-4.58.69-13.79,3.7-11.22,9.31-4.07-.44-3.2-.47-5.61-3.72-.4-.55.42-1.95.04-2.61-2.91-4.99-4.2,2.27-5.71,3.4-3.21,2.4-12.33,3.01-3.68,5.72l-1.86,6.53c-2.49,4.26-4.18,4.27-1.88,9.31-2.45-1.04-4.66-2.08-7.46-1.86-.29-1.45.68-4.69-.15-5.41-.42-.37-10.65-2.41-11.06-2.03-3.84,3.57,7.39,3.78,3.73,7.44-.98.98-7.23-2.5-5.6,3.72,4.6-.25,8.5-3.35,13.07-3.72.33,1.63,2.02,4.52,1.1,5.66-3.24,4-15.9.62-14.18,7.37-.62-.02-1.25.05-1.87,0-2.47-.18-5.01.2-7.48,0-.17-.01-.45-1.1-1.04-1.36l-.83,1.36c-3.89-.31-9.19-.31-13.09,0l-9.34-1.88,9.34-3.73c-.27-2.03-6.21-5.3-7.48-5.57.76-.36,1.65-1.07,1.87-1.86,4.53-2.26,12.81.34,11.22-5.59,1.07-.29,2.71.3,3.74,0l3.74-1.86c.55-.2,1.32.2,1.87,0,2.74-.02,4.8-1.04,5.61-3.72,15.35-6,28.71-12.49,44.87-16.76l1.87-1.86c1.1-.25,2.6.23,3.74,0,4.22-.85,11.17,2.25,13.09-3.72,1.79-.25,3.79.2,5.61,0s3.37-1.83,3.74-1.86c1.85-.14,3.75.1,5.61,0Z"/><path class="cls-13" d="M400.72,74.73c.29-.08.79-3.02,4.62-3.7,3.15-.56,27.58-.77,29.76-.15s.13,5.02,4.26,7.25c14.08,7.62,31.24-3.78,45.08-6.68,2.86-.6,5.59-.06,7.88-.44-1.4,4.88-9,1.73-7.48,7.45-9.36,1.38-20.79,1.03-28.04,9.31-1.42-.05-5.26.29-5.61,0-.33-.27.68-3.48-.79-3.51-16.18-.26-33.74,3.75-49.68,3.51.22-1.15-.33-2.84,0-3.72,1.19-3.23,3.51-4.84,0-9.31Z"/><path class="cls-8" d="M451.2,87.76c-2.78,1.55-3.2,4.74-6.32,5.89-17.46,6.44-43.98,10.31-62.85,14.6,5.47-7.86,6.02-13.93,14.96-18.62.98-.51,3.09-1.87,3.74-1.86,15.95.25,33.51-3.76,49.68-3.51,1.47.02.46,3.23.79,3.51Z"/><path class="cls-15" d="M565.24,13.27l9.31-.9c-5.13-10.36,3.97-11.27,12.43-12.06,4.22-.4,2.06,4.02,4.43,5.51-.61.58-.43,5.63-3.72,5.59l-3.79-6.55c-2.89,2.62-.96,7.81-2.7,10.39-1.64,2.44-8.08-.12-6.62,5.47-6.61-.88-2.91,1.41-1.87,3.72,2.58,5.75,2.39,2.49,3.74,3.72.43.4-1.19,5.62,5.61,3.72.07,2.01-1.74,3.14-1.87,3.72-.6-2.78-6.7-2.9-7.48,0-.06-.23-2.04-2.01-2.85-3.69-.75-1.56-1.03-9.58-4.62-5.61-.25.28-.07,5.78,0,7.44l-2.8-3.72c-2.86,3.32-5.5,6.25-10.29,5.58-.49-1.73-1.49-2.71-1.87-3.72-.31-.83.5-2.7-.12-4.13-2.56-5.92-6.36-4.07-11.1-3.32,5.05-7.47-.16-17.65,11.21-14.91l.02,9.31,9.34-1.86c-.02,4.72-1.65,8.69,3.73,7.46-1.3-4.09,1.52-8.21,1.88-11.18Z"/><path class="cls-8" d="M247.42,139.91c-18.55,6.52-37.32,14.77-56.09,20.49-6.26,1.91-25.42,8.55-29.91,3.72-.32-.34,1.01-3.36-1.15-3.86-5.25-1.21-12.3,4.54-17.54.13,1.28-.94,2.34-2.75,3.74-3.72,7.16-5,5.68-1.64,9.35-1.86,34.29-2.06,58.74-7.25,91.61-14.9Z"/><path class="cls-4" d="M286.68,130.6c.66,5.07-3.41,3.31-5.89,4.29-10.87,4.28-22.71,11.65-33.38,15.26-16.46,5.56-38.86,8.23-56.08,10.25,18.77-5.72,37.54-13.96,56.09-20.49,7.02-1.63,13.63-3.97,20.57-5.59,6.41-1.49,12.29-2.46,18.7-3.72Z"/><path class="cls-1" d="M142.72,160.39c5.25,4.4,12.29-1.35,17.54-.13,2.16.5.84,3.52,1.15,3.86-.77.35-1.66,1.07-1.87,1.86l-7.47.02v1.82s3.73,1.89,3.73,1.89c-19.78,9.9-42.65,18.92-63.56,26.07,8.55-4.81,18.17-13.17,26.17-18.62,5.29-3.61,10.05-7.61,14.96-11.17,1.92-1.39,5.53-2.81,9.35-5.59Z"/><path class="cls-16" d="M256.76,106.39c-10.46,1.48-29.26,10.3-41.13,13.04-14.62,3.37-30.02,5.16-44.87,7.45-1.13-5.52,2.77-3.26,5.95-4.22,21.07-6.36,44.11-15.8,66.05-18.09,3.93-.41,11.04-1.29,14,1.82Z"/><path class="cls-9" d="M574.59,20.72c-1.46-5.59,4.98-3.03,6.62-5.47,1.74-2.59-.2-7.78,2.7-10.39l3.79,6.55c3.29.04,3.11-5.01,3.72-5.59.32-.31,1.42.29,1.87,0,.79-.51,3.49-2.21,3.72-1.86l.04,9.3h1.82c-.57-4.24,2-4.28,5.63-3.72.37.78-.32,2.66,0,3.72-3.47,11.45-16.85,14.56-18.7,26.07-.71-.05-2.24.78-1.87,1.86-.45-.65-2.82-1.16-3.74-1.86.21-.54-.21-1.32,0-1.86.19-.49-.14-1.23,0-1.86.13-.58,1.94-1.71,1.87-3.72s-1.73-3.1-1.87-3.72c-.71-3.19,1.16-8.19-3.71-9.3l-.92,3.74c-.53-.51-.75-1.86-.98-1.89Z"/><path class="cls-13" d="M511.02,44.93c4.31-5.05-.68-20.26,3.63-23.38,1.25-.9,5.01-1.38,5.71-.84,1.39,1.07-4.16,10.22,7.49,7.46.13,5.16-.13,10.85,0,16.76.07,3.31,1.86,3.52,1.87,3.72.09,3.3-1.08,4.81-1.87,7.45-.34,1.15-2.24,2.52-2.77,5.27-.94,4.95,4.15,5.22-2.84,5.9.76-4.19-.54-7.37-1.87-11.17-1.73-4.95-5.34-7.28-9.35-11.17Z"/><path class="cls-3" d="M260.5,106.39c1.26.26,7.21,3.54,7.48,5.57l-9.34,3.73,9.34,1.88c-3.55.28-10.77,1.29-14.96,1.86-3.21.44-3.53,1.83-3.74,1.86-8.03,1.29-16.31,1.93-24.3,3.72l-1.3-1.5c-4.78-1.08-9.32,1.76-8.05-4.09,11.87-2.73,30.67-11.55,41.13-13.04.98-.14,2.85-.19,3.74,0Z"/><path class="cls-5" d="M94.11,139.91v7.45c-.74.39-6.61,3.46-7.03,3.58-6.59,2.02-24.96-.18-22.89,9.46-8.15-4.16-11.77.61-18.69,1.86h-1.87c-1.09.09-2.74.19-3.74,0-.65-.12-2.28-2.03-3.74-1.86,18.02-9.78,25.7-11.29,44.87-16.76l1.85,1.86.02-3.72c1.06-.29,2.66.28,3.74,0,3.31-.87,3.47-1.8,3.74-1.86,1.09-.27,2.64.27,3.74,0Z"/><path class="cls-1" d="M602.63,43.07c-.76,2.82-.59,5.5-3.19,7.55-8.44,6.65-29.46,9.89-39.81,12.93l-.02-5.59c-4.02,3.24-6.23.13-7.46,0-2.03-6.51,3.51-5.23,3.74-5.59.89,2.37,3.56,1.87,5.61,1.86,10.36-.02,3.07-3.35,6.07-7.05.75-.92,3.18-.24,3.28-.4,1.32,2.44,3.81,1.41,5.61,1.86,7.91,1.96,6.36.39,13.09-1.86,4.15-1.39,7.77-4.98,13.09-3.72Z"/><path class="cls-6" d="M537.2,61.69c1.15.19,2.52-.14,3.73,0,1.29,8.04-9.84-1.25-7.46,9.3-16.07,3.42-30.53,5.1-46.74,7.45-.61.09-1.26-.09-1.87,0-1.52-5.72,6.08-2.57,7.48-7.45,2.86-.48,6.26-1.7,7.48-1.86,2.37-.31,5.05.21,7.48,0,1.58-.13,3.24-.04,3.74-1.86,3.34.24,7.94.32,11.22,0,6.99-.68,1.9-.95,2.84-5.9.53-2.76,2.43-4.13,2.77-5.27-.01,7.14,4.99,4.85,9.35,5.59Z"/><path class="cls-8" d="M296.02,119.42c2.05,4,4.71,2,3.74-1.86,3.72.19,7.49-.1,11.22,0,6.26.17,13.94,2.46,22.43,1.86-11.85,3.19-23.99,7.26-35.97,9.86-3.39.73-8.93.95-10.77,1.31-6.4,1.26-12.28,2.23-18.7,3.72l-2.78-3.72c7.33-1.52,25.78-2.45,25.22-13.05.62.05,1.25-.02,1.87,0,.25,0,2.02,1.79,3.74,1.86Z"/><path class="cls-4" d="M396.98,85.9c-.16,1.19.11,2.51,0,3.72-8.94,4.7-9.49,10.76-14.96,18.62-11.75,2.67-21.41,5.25-33.65,7.45l-5.61-5.59v-1.86c1.74-.26,4.09.39,5.61,0,.51,1.79,2.16,1.76,3.74,1.86,13.16.87,9.53-3.01,13.63-5.02,2.89-1.42,15.47-3.96,16.11-4.5,1.01-.85-.29-4.28.17-5.38,1.03-2.43,11.88-10.31,14.96-9.31Z"/><path class="cls-7" d="M539.07,24.45c4.74-.74,8.54-2.59,11.1,3.32.62,1.43-.18,3.3.12,4.13.94,2.26-1.74,4.76-1.87,5.59-7.73-5.62-11.51-1.64-14.96,5.59-.23.48.21,1.29,0,1.86h-5.61c-.13-5.91.13-11.6,0-16.76-.02-.62-.02-1.24,0-1.86,1.8-.2,3.91.3,5.61,0,1.52-.27,3.42-1.52,5.61-1.86Z"/><path class="cls-8" d="M539.07,52.38c2.77,4.5.47,4.9,5.61,5.59,2.37.32,5.06-.25,7.48,0,1.24.13,3.44,3.24,7.46,0l.02,5.59c-9.62,2.83-15.56,5.19-26.17,7.45-2.38-10.55,8.75-1.26,7.46-9.3-1.21-.15-2.57.18-3.73,0-.38-3.07,1.83-6.7,1.87-9.31Z"/><path class="cls-12" d="M340.89,110.11l.95,1.83.92-1.83,5.61,5.59c-4.42.79-7.11,3.17-14.96,3.72-8.49.6-16.17-1.69-22.43-1.86,1.67-3.91,11.68-.8,13.09-1.86l3.74-1.86c3.17-.26,8.65-4.7,13.09-3.72Z"/><path class="cls-12" d="M604.5,28.17c-.52,5.58-.3,9.08-1.87,14.9-5.32-1.25-8.94,2.34-13.09,3.72-5.51.69-4.37-3.81-5.61-5.59-.38-1.08,1.16-1.92,1.87-1.86.78.06,1.97,2.04,3.74.88,3.8-2.49,7.57-12.3,14.96-12.05Z"/><path class="cls-3" d="M604.5,28.17c-7.38-.25-11.16,9.57-14.96,12.05-1.77,1.16-2.95-.82-3.74-.88,1.85-11.51,15.23-14.62,18.7-26.07,2.61,8.75.57,8.73,0,14.9Z"/><path class="cls-3" d="M112.81,136.18c-12.67,5.51-2.29,5.07-1.87,5.59.52.65-.1,4.7-.3,6.23l-1.57,1.22c-.94-.3-2.58.2-3.74,0,.58-2.83,2.77-5.83-4.72-6.74-3.44-.42-4.86,4.01-6.5,4.88v-7.45c6.78-1.64,12.3-2.39,18.7-3.72Z"/><path class="cls-4" d="M484.85,78.45c.61-.09,1.26.09,1.87,0-7.79,5.58-20.34,9.65-29.91,9.31,7.26-8.28,18.68-7.93,28.04-9.31Z"/><path class="cls-6" d="M559.63,17c.05-13.66,7.09-15.88,5.61-3.72-.36,2.97-3.18,7.09-1.88,11.18-5.38,1.24-3.75-2.74-3.73-7.46Z"/><path class="cls-4" d="M36.16,199.5c1.21,6.18-2.76,2.55-6.03,3.78-1.12.42-6.15,6.5-10.8,7.4-1.33.26-4.15.18-5.61,0,1-8.28,7.56-6.26,11.95-7.58,4.07-1.22,5.51-3.12,10.48-3.6Z"/><path class="cls-6" d="M527.85,26.31c.11-3.72-.11-7.47,0-11.19h5.59s0,11.19,0,11.19c-1.7.3-3.81-.2-5.61,0Z"/><path class="cls-15" d="M593.28,5.82c-.48-5.94-.58-6.2,5.6-5.6-2.7,9,4.44,6.87,5.61,9.33-3.63-.56-6.21-.52-5.63,3.71h-1.82s-.04-9.3-.04-9.3c-.23-.34-2.93,1.35-3.72,1.86Z"/><path class="cls-16" d="M273.59,98.94c1.6,5.92-6.69,3.33-11.22,5.59,1.85-6.74,4.72-3.82,11.22-5.59Z"/><path class="cls-3" d="M352.11,71c-1.92,5.97-8.87,2.87-13.09,3.72,3.1-4.94,8.64-3.11,13.09-3.72Z"/><path class="cls-3" d="M376.42,69.14c.63,5.46-.64,3.04-3.74,3.72-.09.02-.14-.22-1.87,0-.61.08-1.25-.06-1.87,0l-1.87-3.72c3.1-.17,6.25.18,9.35,0Z"/><path class="cls-8" d="M159.55,165.98c-1.62,6.13-.58,2.14-3.74,3.72l-3.72-1.89v-1.82s7.46-.02,7.46-.02Z"/><path class="cls-3" d="M361.46,69.14c-.37.03-1.99,1.67-3.74,1.86l3.74-1.86Z"/><path class="cls-3" d="M82.9,141.77l-.02,3.72-1.85-1.86c.13-.04.22-1.41,1.87-1.86Z"/><path class="cls-3" d="M389.5,69.14v1.86c-1.27-.48-3.04,0-3.74-1.86,1.24-.06,2.5.05,3.74,0Z"/><path class="cls-3" d="M118.42,134.32l-3.74,1.86c.2-.04.75-1.28,3.74-1.86Z"/><path class="cls-3" d="M127.76,132.46l-3.74,1.86c.21-.04,1.06-1.39,3.74-1.86Z"/><path class="cls-16" d="M282.94,97.08c.69-.25,3.03-2.72,5.61-3.72-.81,2.69-2.86,3.71-5.61,3.72Z"/><path class="cls-16" d="M281.07,97.08l-3.74,1.86c.2-.06,1.82-1.18,3.74-1.86Z"/><path class="cls-3" d="M86.63,141.77l3.74-1.86c-.27.07-.42,1-3.74,1.86Z"/><path class="cls-3" d="M333.42,76.59c.13-.03.46-1.54,1.87-1.86l-1.87,1.86Z"/><path class="cls-3" d="M350.24,87.76c26.12,2.98,5.33,18.65-11.21,14.89,1.77-5.29,5.8-7.76,9.34-13.03.45-.68,1.53-1.21,1.87-1.86Z"/><path class="cls-10" d="M400.72,74.73c3.51,4.48,1.19,6.08,0,9.31.64-9.85-2.76-5.39-3.74,1.86-3.07-1-13.93,6.88-14.96,9.31h-7.48c-.01-.31-2.99-2.84-1.89-3.7.23-.18,3.45,0,5.35-1.15,2.25-1.35,14.39-9.37,14.89-10.48,1.13-2.5-2.41-5.95.34-7.02,1.37.35,7.11,1.96,7.48,1.86Z"/><path class="cls-7" d="M353.98,78.45c-1.48,2.99-2.21,6.35-3.74,9.31-.34.66-1.42,1.19-1.87,1.86-.25-3.13-5.42-3.45-5.61-3.72-.58-.86.41-5.66,0-7.45,3.13-.47,7.8-.06,11.22,0Z"/><path class="cls-3" d="M342.76,85.9c-1.8,2.82-7.99,2.21-11.22,1.86-2.57-5.61,6.64-8.62,11.22-9.31.41,1.79-.58,6.59,0,7.45Z"/><path class="cls-12" d="M382.02,95.21c-.46,1.1.84,4.53-.17,5.38-.64.54-13.23,3.09-16.11,4.5-4.1,2.01-.47,5.89-13.63,5.02l3.74-3.72c4.03-1.07,18.95-5.96,18.7-11.17h7.48Z"/><path class="cls-10" d="M314.72,97.08l1.86-6.53c-8.65-2.72.48-3.32,3.68-5.72,1.5-1.13,2.79-8.38,5.71-3.4.38.66-.44,2.06-.04,2.61l-1.51,1.25-.38,8.06c-8.65-3.8-6.01-1.96-9.33,3.73Z"/><path class="cls-10" d="M355.85,106.39l-3.74,3.72c-1.58-.11-3.23-.07-3.74-1.86,2.45-.62,5.07-1.22,7.48-1.86Z"/><path class="cls-10" d="M327.81,113.84l-3.74,1.86c.3-.22-.19-2.65.01-3.72,1.65-.69,3.41,1.88,3.73,1.86Z"/><path class="cls-6" d="M299.76,117.56c.97,3.86-1.69,5.86-3.74,1.86.21,0,.49-2.02,3.74-1.86Z"/><path class="cls-5" d="M372.68,72.87h-1.87c1.73-.22,1.78.02,1.87,0Z"/><polygon class="cls-10" points="340.89 110.11 342.76 110.11 341.84 111.94 340.89 110.11"/><path class="cls-10" d="M342.76,108.25c-.88.88-2.98-1.72-.93-1.86.65-.04,1.35,1.44.93,1.86Z"/><path class="cls-13" d="M281.07,117.56c.63.05,1.8-.13,1.87,0,.23.44.2,5.37,0,5.57-.91.98-22.55,4.16-26.19,5.61l1.89,3.7c-20.22-.42-43.04,12.87-63.01,12.43-6.43-.14-12.83-4.71-21.13-1.24,18.06-8.45,29.65-13.94,50.48-18.62,7.99-1.8,16.27-2.44,24.3-3.72,3,3.36,4.4,2.4,3.74-1.86,4.19-.57,11.41-1.58,14.96-1.86,3.9-.31,9.2-.31,13.09,0Z"/><path class="cls-6" d="M290.42,117.56c.57,10.6-17.89,11.52-25.22,13.05l2.78,3.72c-6.93,1.61-13.55,3.95-20.57,5.59-32.87,7.65-57.32,12.84-91.61,14.9-.17-3.14,3.03-6,5.61-7.45,2.11-1.18,10.57-2.55,13.09-3.72,8.3-3.47,14.7,1.1,21.13,1.24,19.97.45,42.8-12.85,63.01-12.43l-1.89-3.7c3.64-1.45,25.28-4.64,26.19-5.61.19-.2.22-5.13,0-5.57,2.46.2,5.01-.18,7.48,0Z"/><path class="cls-10" d="M133.37,147.36c4.21.04,9.5,2.25,11.91,1.95.64-.08,2.15-3.14,10.89-4.37,3.42-.48,5.98-3.81,5.25,2.42-2.58,1.45-5.78,4.31-5.61,7.45-3.67.22-2.19-3.14-9.35,1.86.6-6.92-1.95-2.65-4.69-1.88-13.02,3.69-17.91,5.49-30.84,7.46v-5.59c.42-.04,6.14-3.07,7.48-3.72,3.65,4.09,15.47.4,14.96-5.59Z"/><path class="cls-7" d="M109.07,149.22l1.57-1.22c.2-1.53.83-5.58.3-6.23l13.05.93c-6.28,8.09-4.67,9.83-14.92,6.52Z"/><path class="cls-2" d="M133.37,147.36c.52,5.99-11.31,9.68-14.96,5.59,6.45-3.16,4.07-5.7,14.96-5.59Z"/><path class="cls-14" d="M520.37,56.11c1.33,3.81,2.63,6.98,1.87,11.17-3.28.32-7.88.24-11.22,0-.88-.06-4.48-5.5-3.74,1.86-2.43.21-5.11-.31-7.48,0-1.06-1.47-6.29-1.8-1.74-4.53,7.29-4.37,13.38-10.29,22.31-8.51Z"/><path class="cls-10" d="M82.9,162.26c1.9,11.43,15.85,1.05,24.3,0,.39,5.45-3.18,4.46-6.27,5.86-24.71,11.2-54.72,23.24-81.22,28.97-4.43.96-13.44,3.66-17.2.56,2.19-1.23,4.68-1.85,6.6-3.63,2.5-2.32,1.94-6.2,4.59-5.66-.62,4.9,2.05,4.2,6.09,3.29,17.88-4.04,35.09-12.89,52.47-18.63l8.78-10.75c.59-.17,1.33.19,1.87,0Z"/><path class="cls-2" d="M105.33,154.81c1.85-.1,4.87,1.94,5.61,1.86v5.59c-1.19.18-2.53-.15-3.74,0-8.46,1.05-22.4,11.43-24.3,0,9.13-3.14,10-6.8,22.43-7.45Z"/><path class="cls-4" d="M99.72,179.02c-2.86.84-6.62,4.83-11.22,3.72-.28.72.69,2.42-.29,3.4-.42.42-9.56,5.07-10.49,5.42-11.8,4.51-26.46,5.78-37.83,7.93l48.61-16.76c.28-.74-.64-2.63.21-3.46.61-.6,10.72-3.44,11.01-.26Z"/><path class="cls-4" d="M110.94,175.29l7.83-8.82c5.43,5.99,14.27-10.44,14.61-.49-4.9,3.56-9.66,7.56-14.96,11.17-1.21-2.62-5.09-2.02-7.48-1.86Z"/><path class="cls-4" d="M107.2,175.29c-.32.06-2.31,1.39-3.74,1.86-.18-3.17-.67-4.36,2.79-3.71l.95,1.84Z"/><path class="cls-7" d="M94.11,147.36c1.64-.87,3.06-5.29,6.5-4.88,7.49.91,5.3,3.9,4.72,6.74-.33,1.62.23,3.81,0,5.59-12.44.65-13.3,4.31-22.43,7.45-.54.19-1.28-.17-1.87,0-5.62,1.61-12.61-.48-13.08,0-.57.57.58,4.89-.01,5.6-.34.4-4.54-1.45-7.01-.62-1.98.67-2.2,3.52-3.76,4.21-4.08,1.82-8.49,1.04-12.13,2.11-1.63.48-1.35,6.07-9.52,3.32-8.71-2.93.81-11.94,4.39-14.62,1,.19,2.65.09,3.74,0,.61-.05,1.28.11,1.87,0,6.92-1.25,10.53-6.02,18.69-1.86-2.07-9.64,16.31-7.44,22.89-9.46.42-.13,6.29-3.19,7.03-3.58Z"/><path class="cls-3" d="M282.94,117.56c-.07-.13-1.24.05-1.87,0l.83-1.36c.6.26.87,1.35,1.04,1.36Z"/><path class="cls-12" d="M400.72,84.04c-.33.88.22,2.58,0,3.72-.65-.01-2.76,1.35-3.74,1.86.11-1.22-.16-2.53,0-3.72.98-7.25,4.38-11.71,3.74-1.86Z"/><path class="cls-6" d="M565.24,33.76c0,.19,1.52.87,1.15,3.65-.66,4.99-5.46,11-4.89,16.84-2.05,0-4.72.5-5.61-1.86.27-.42.36-8.66.03-9.94-.52-2-3.65-1.07-3.77-1.23-.49-.66.42-4.12,0-5.59,4.79.67,7.43-2.27,10.29-5.58l2.8,3.72Z"/><path class="cls-11" d="M565.24,33.76c-.06-1.66-.25-7.16,0-7.44,3.59-3.97,3.87,4.05,4.62,5.61.81,1.68,2.79,3.47,2.85,3.69.13.52.02,1.3,0,1.86-.02.47-1.61,8.91-1.87,9.31-.1.16-2.53-.52-3.28.4-3,3.69,4.29,7.03-6.07,7.05-.57-5.84,4.22-11.84,4.89-16.84.37-2.78-1.14-3.46-1.15-3.65Z"/><path class="cls-7" d="M580.2,28.17h-1.87c.87-4.98-1.19-3.8-5.61-3.72-1.04-2.31-4.74-4.6,1.87-3.72.23.03.45,1.38.98,1.89l.92-3.74c4.88,1.11,3,6.11,3.71,9.3Z"/><path class="cls-3" d="M552.15,35.62c.42,1.47-.49,4.93,0,5.59-1.24,1.2-2.32,2.73-3.74,3.72.47-2.11-.35-5.15,0-7.45.13-.83,2.81-3.33,1.87-5.59.38,1.02,1.38,1.99,1.87,3.72Z"/><path class="cls-13" d="M580.2,35.62c-.14.63.19,1.37,0,1.86h-7.48c.02-.56.13-1.34,0-1.86.77-2.9,6.87-2.78,7.48,0Z"/><path class="cls-16" d="M572.72,24.45c4.42-.08,6.48-1.25,5.61,3.72h-1.87c-1.35-1.24-1.16,2.03-3.74-3.72Z"/><path class="cls-2" d="M580.2,28.17c.14.63,1.8,1.75,1.87,3.72-6.8,1.89-5.17-3.33-5.61-3.72h3.74Z"/><path class="cls-4" d="M583.94,41.21c1.24,1.78.1,6.28,5.61,5.59-6.72,2.25-5.18,3.83-13.09,1.86-3.67-3.98,2.32-5.57,3.74-9.31.92.7,3.29,1.21,3.74,1.86Z"/><path class="cls-6" d="M580.2,37.48c-.21.54.21,1.32,0,1.86-1.41,3.74-7.41,5.33-3.74,9.31-1.8-.45-4.29.58-5.61-1.86.26-.4,1.85-8.84,1.87-9.31h7.48Z"/><path class="cls-12" d="M539.07,48.66c.23.9.02,2.57,0,3.72-.04,2.61-2.25,6.24-1.87,9.31-4.36-.74-9.36,1.56-9.35-5.59.79-2.64,1.96-4.15,1.87-7.45,4.98.63,3.05-1.85,3.74-3.72.21-.57-.23-1.38,0-1.86,2.17,1.05,5,3.25,5.61,5.59Z"/><path class="cls-6" d="M533.46,44.93c-.69,1.88,1.24,4.35-3.74,3.72,0-.21-1.8-.41-1.87-3.72h5.61Z"/><path class="cls-15" d="M253.02,119.42c.66,4.26-.74,5.22-3.74,1.86.21-.03.53-1.42,3.74-1.86Z"/><path class="cls-2" d="M45.5,162.26c-.59.11-1.26-.05-1.87,0h1.87Z"/><path class="cls-12" d="M552.15,41.21c.12.16,3.25-.77,3.77,1.23.34,1.28.24,9.52-.03,9.94-.23.36-5.77-.93-3.74,5.59-2.41-.25-5.11.32-7.48,0-4.1-4.91.81-2.83,1.77-5.13.98-2.33,1.4-5.35,1.97-7.9,1.42-.99,2.5-2.53,3.74-3.72Z"/><path class="cls-16" d="M511.02,67.28c-.5,1.82-2.16,1.73-3.74,1.86-.75-7.36,2.86-1.93,3.74-1.86Z"/><path class="cls-13" d="M548.41,37.48c-.35,2.3.47,5.34,0,7.45-2.4,1.67-6.76,4.39-9.35,3.72-.61-2.33-3.44-4.53-5.61-5.59,3.45-7.23,7.22-11.21,14.96-5.59Z"/><path class="cls-6" d="M548.41,44.93c-.56,2.55-.99,5.57-1.97,7.9-.97,2.3-5.88.22-1.77,5.13-5.14-.69-2.84-1.09-5.61-5.59.02-1.15.23-2.83,0-3.72,2.59.67,6.95-2.05,9.35-3.72Z"/></g></svg>