<?xml version="1.0" encoding="UTF-8"?><svg id="Capa_2" xmlns="http://www.w3.org/2000/svg" viewBox="0 0 159.56 529.79"><defs><style>.cls-1{fill:#fe656d;}.cls-2{fill:#bc968f;}.cls-3{fill:#522d2b;}.cls-4{fill:#220908;}.cls-5{fill:#f4a5a6;}.cls-6{fill:#a10a05;}.cls-7{fill:#640c0b;}.cls-8{fill:#fb4954;}.cls-9{fill:#c70f06;}.cls-10{fill:#92342c;}.cls-11{fill:#ed1a06;}.cls-12{fill:#fe040c;}.cls-13{fill:#672c25;}.cls-14{fill:#bfafae;}.cls-15{fill:#7a0603;}.cls-16{fill:#430d09;}.cls-17{fill:#f0363d;}.cls-18{fill:#f53903;}.cls-19{fill:#fd0a14;}.cls-20{fill:#db1c01;}.cls-21{fill:#fb6002;}.cls-22{fill:#736a69;}</style></defs><g id="Layer_1"><path class="cls-3" d="M22.48,314.67c-.09,2.65.14,5.32,0,7.96-.09,1.84.04,3.79,0,3.98-.55,2.37.73,7.24,0,7.96-.6.6-7.73-1.58-8.15,2.26-.74,6.83,10.26,40.02,11.66,51.97,1.09,9.23-1.11,47.4.48,49.28-12.92-3.28-5.1,15.92-11.99,19.9-1.56.9-7.28-.97-7.98-.03-2.77,3.69,4.86,27.45-4,31.88-9.62-48.62,11.55-50.54,12.33-85.61.62-27.68-10.95-65.24-12.33-97.51h4c4.36,5.64,9.13,7.15,15.99,7.96Z"/><path class="cls-16" d="M146.37,310.69c2.49-.6,5.31-3.1,7.99-3.98-1.78,43.56-8.37,75.23-7.99,119.42.1,11.71-.11,23.93,0,35.83-18.32-16.88-13.59-35.47-15.99-55.73,4.48-33.58,9.31-53.46,4-87.58-.58-3.73.39-8.09,0-11.94,8.55,7.79,7.54,5.05,11.99,3.98Z"/><path class="cls-2" d="M94.42,59.89c1.19-.01,3.97-3.63,6.02-3.25l3.98,3.12c-4.31,21.64,53.7,101.52,49.1,110.86-.53,1.08-3.44-2.39-7.15,8.7-1.05-.48-2.76.34-4,0-3.68-17.62-12.26-33.61-20.71-49.24-3-5.55-1.56-12.6-11.26-10.47-3.1-10.79-6.8-21.86-11.99-31.85-.5-9.76-4.15-19.56-4-27.87Z"/><path class="cls-4" d="M14.49,457.98c-.53,5.11.77,11.02,0,15.92-.25,1.58-6.55,5.98-3.99,11.92,3.79.6,8.61-.76,11.98.02,7.92,1.83,15.59,4.73,23.98,3.98.46,1.28,3.18,2.54,4,3.98,4.36,7.75.84,9.41,11.99,15.92,1.18.69,2.38,3.64,4,3.98v11.94c-2.69-.66-6.7-6.52-10.55-6.95-6.27-.7-13.49,3.47-25.41,2.97,11.17-11.78-4.47-25.94-15.99-23.88l-4,3.98c-.71,1.85.48,5.52,0,7.96h-4c-1.26-2.92-3.03-15.03-4-19.9,8.87-4.42,1.23-28.19,4-31.88.71-.94,6.42.93,7.98.03Z"/><path class="cls-21" d="M94.42,59.89c-.15,8.31,3.5,18.11,4,27.87.54,10.53-.36,21.28-.02,31.83-12.43,1.68-7.21-14.04-14.52-23.08-5.96-7.37-9.01-5.15-17.43-4.76-.46-8.97,2.99-20.31-7.99-23.88,2.35-2.46,3.06-6.85,7.99-7.96,6.62-1.49,19.93.07,27.97,0Z"/><path class="cls-3" d="M146.37,426.13c20.39,15.65,15.89,86.66-4.94,96.58-4.95,2.36-26.31,9.19-23.03-5.02,1.57-.56,2.95-3.67,4-3.98,3.7-1.12,6.35-3.46,7.99-3.98,13.27-4.17,15.18,9.07,15.99-11.94.2-5.29-.15-10.62,0-15.92.19-6.61.06-13.29,0-19.9-.11-11.9.1-24.12,0-35.83Z"/><path class="cls-12" d="M154.36,306.7c-2.69.89-5.5,3.38-7.99,3.98v-7.96c0-27.98-3.53-56.86-4-83.6-.07-3.98.08-7.96,0-11.94-.02-.73-.04-7.48,0-7.96.19-2.61-.4-5.53,0-7.96.1-.62,3.17-9.46,4-11.94,2.12.96,4.89,1.39,6.02,3.78,4.92,10.41,2.76,104.32,1.97,123.6Z"/><path class="cls-10" d="M66.44,91.74c.14,2.63.02,5.32,0,7.96-.04,5.25.44,10.72,0,15.92-.43,5.05-3.27,10.68-4,15.92-2.23,15.98-3.64,32.17-7.99,47.77-12.83-21.62,8.49-56.63,8.04-81.56.21-3.34-5.81-2.62-8.04-2.03-1.67.44-10.71,6.52-11.99,7.96l-3.9-1.94c8.64-12.54,9.38-22.88,19.89-33.88,10.98,3.58,7.53,14.92,7.99,23.88Z"/><path class="cls-14" d="M62.45,36.01h39.96c12.41,14.23-7.74,10.2-7.99,23.88-8.05.07-21.35-1.49-27.97,0,2.78-10.12-10.13-9.05-14.07-15.81-2.06-3.53,2.21-7.29,2.08-8.07h7.99Z"/><path class="cls-19" d="M94.42,4.16v3.98c-3.08,8.6,2.35,14.08,4,19.9.34,1.21-.26,2.71,0,3.98v3.98h-15.99l-2.04-3.96-5.95,3.96h-7.99V.18c7.56-.96,20.23,2.12,27.97,3.98ZM86.4,8.16c-4.36-4.34-12.31,3.58-7.95,7.92s12.31-3.58,7.95-7.92Z"/><path class="cls-12" d="M10.5,191.26c-1.07,34.36,1.46,69.17,0,103.5-.19,4.37,1.23,10.02-4,11.94h-4c-1.55-36.34-1.64-79.13,0-115.44h7.99Z"/><path class="cls-16" d="M30.48,175.34c-.34-.29-7.56-3.86-7.99-3.98,8.59-3.19.83-11.68,0-15.92-.69-3.52.46-8.14,0-11.94,1.34-1.34,2.55-2.73,4-3.98,3.01-2.61,18.15-2.07,7.99-19.9,2.39-4.44,5.35-12.94,7.99-15.92,1.28-1.44,10.32-7.52,11.99-7.96l-23.98,79.62Z"/><path class="cls-7" d="M102.41,517.69c-.97.4-3.83,9.43-10.79,11.32-8.85,2.41-16.94-1.35-25.17-3.36v-11.94c5.3,1.11,15.89.63,21.25-.79,4.92-1.31,5.93-6.76,6.72-7.17,1.06-.54,2.98.55,4,0l4,11.94Z"/><path class="cls-1" d="M66.44.18v31.85l-4,3.98h-7.99C52.08,21.76,45.19,2.89,66.44.18Z"/><path class="cls-4" d="M118.39,493.8c6.48,3.4,3.76,13.53,4,19.9-1.04.32-2.43,3.42-4,3.98-3.72,1.34-12.66-1.39-15.99,0l-4-11.94c4.53-2.47,16.39-9.38,19.98-11.94Z"/><path class="cls-4" d="M22.48,171.36c.43.12,7.66,3.69,7.99,3.98,1.56,1.36,2.46,5.86,4,7.96-1.01.18-2.63,3.05-4,3.98H2.5c.25-3.89-.6-8.4,0-11.94,3.11.33,6.54-3.71,7.99-3.98,1.19-.23,2.74-.03,4,0,2.55.07,6.04-.53,7.99,0Z"/><path class="cls-15" d="M30.48,521.67c-1.31-.05-2.79.25-4,0-1.43-2.71-7.47-3.28-7.99-3.98-1.28-1.71,2.73-10.58-7.99-7.96.48-2.44-.71-6.11,0-7.96.1-.26,3.72-3.93,4-3.98,11.51-2.06,27.15,12.1,15.99,23.88Z"/><path class="cls-8" d="M98.41,4.16c2.84,1.06,6.91-2.57,8.07,2.41,2,8.56,2.34,25.89-8.07,21.47-1.65-5.82-7.08-11.31-4-19.9l4-3.98Z"/><path class="cls-22" d="M22.48,155.43l-7.99,15.92c-1.25-.03-2.8-.23-4,0l-4-7.96c3.66-8.35,9.77-13.65,15.99-19.9.46,3.81-.69,8.43,0,11.94Z"/><path class="cls-22" d="M34.47,119.61c10.16,17.83-4.99,17.29-7.99,19.9-2.38-10.08,4.93-14.2,7.99-19.9Z"/><path class="cls-3" d="M10.5,509.73c10.72-2.62,6.72,6.26,7.99,7.96v3.98c-5.35-2.08-9.73-6.73-11.99-11.94h4Z"/><path class="cls-3" d="M10.5,171.36c-1.45.28-4.88,4.31-7.99,3.98.81-4.76,2.14-7.71,4-11.94l4,7.96Z"/><path class="cls-17" d="M10.5,187.28v3.98H2.5c.06-1.32-.08-2.66,0-3.98h7.99Z"/><path class="cls-4" d="M26.48,521.67c-2.47-.51-6.18.71-7.99,0v-3.98c.52.7,6.56,1.27,7.99,3.98Z"/><path class="cls-8" d="M102.41,36.01h-4v-3.98c1.51,1.15,2.75,2.56,4,3.98Z"/><path class="cls-17" d="M94.42,8.14v-3.98c1.33.32,2.92-.4,4,0l-4,3.98Z"/><path class="cls-13" d="M22.48,334.57l7.99,3.98c-.31,5.27.12,10.64,0,15.92-6.22,1.65-5.98,14.64,0,15.92.02,1.33-.03,2.65,0,3.98.16,6.62-.17,13.3.05,19.9,3.12,1.03,3.36-3.9,3.95-3.98,1.3-.17,2.68.13,4,0-.58,6.51.84,13.47,0,19.9-.19,1.42-6.51,6.16-3.97,11.92,2.63.16,5.32-.13,7.96.02,6.02,21.84,5.31,38.17-19.98,43.79,2.82-17.37,9.26-15.19,11.96-21.94,3.53-8.81-7.28-5.11-7.96-5.92-1.6-1.88.6-40.04-.48-49.28-1.41-11.95-12.41-45.14-11.66-51.97.42-3.84,7.55-1.66,8.15-2.26Z"/><path class="cls-10" d="M26.48,438.07c.69.81,11.49-2.89,7.96,5.92-2.7,6.75-9.14,4.57-11.96,21.94-.38,2.36,0,5.4,0,7.96h-7.99c.77-4.9-.53-10.81,0-15.92,6.89-3.98-.94-23.19,11.99-19.9Z"/><path class="cls-17" d="M14.49,294.76c-4.94,6.3,18.32,14.6,23.98,15.92-1.3,1.2-3.25,2.44-4,3.98-5.04-6.29-11.32.08-11.99,0-6.85-.82-11.62-2.32-15.99-7.96,5.22-1.92,3.81-7.58,4-11.94h4Z"/><path class="cls-7" d="M34.47,314.67c-4.64,9.63-3.42,14.26-4,23.88l-7.99-3.98c.73-.72-.55-5.59,0-7.96v-3.98c.14-2.64-.09-5.31,0-7.96.66.08,6.95-6.29,11.99,0Z"/><path class="cls-13" d="M22.48,326.61c.04-.19-.09-2.14,0-3.98v3.98Z"/><path class="cls-10" d="M130.38,406.23c2.4,20.26-2.34,38.85,15.99,55.73.06,6.62.19,13.29,0,19.9h-4c-9.04-5.92-4.3-10.53-15.99-11.94,5.5-17.47-6.08-34.97-7.99-47.77-1.62-10.83-1.67-28.98,7.99-35.83.85,8.64,3.43,15.15,4,19.9Z"/><path class="cls-13" d="M134.38,318.65c5.32,34.11.48,54-4,87.58-.56-4.76-3.15-11.26-4-19.9-1.13-11.53-3.23-26.19-4-35.83-1.16-14.52-5.14-37.64,11.99-31.85Z"/><path class="cls-7" d="M134.38,306.7c.39,3.86-.58,8.22,0,11.94-17.13-5.79-13.15,17.33-11.99,31.85-15.54,1.78-9.74-20.36-18-23.87l-5.97,11.92c.07-7.96-.05-15.93,0-23.88,8.12-.32,22.48-.18,29.17-4.01,4.33-2.48,2.45-7.65,2.8-7.93.59-.49,2.56.29,4,0v3.98Z"/><path class="cls-8" d="M146.37,302.72v7.96c-4.45,1.07-3.44,3.81-11.99-3.98v-3.98c3.48-.71,8.19.48,11.99,0Z"/><path class="cls-18" d="M110.4,119.61c1.66,5.77,2.74,9.98,4,15.92.27,1.26-.22,2.69,0,3.98.92,5.37,2.91,10.58,4,15.92-.44.09-5.54,6.57-7.96,3.96-.91-.98-.69-13.18-3.7-17.5-2.37-3.41-8.35-1.54-10.95-3.54-3.34-2.57-4.25-9.28-7.39-10.78-6.39-3.05-7.19,6.64-9.96,7.95-1.36.64-5.48-.22-7.99,0,.65-6.38-.94-13.77,0-19.9.95-6.26,12.41-17.79-4-15.92.02-2.64.14-5.33,0-7.96,8.42-.38,11.47-2.61,17.43,4.76,7.31,9.04,2.09,24.76,14.52,23.08-.34-10.55.56-21.29.02-31.83,5.19,9.98,8.89,21.05,11.99,31.85Z"/><path class="cls-10" d="M110.4,119.61c9.7-2.12,8.26,4.92,11.26,10.47,8.45,15.63,17.03,31.62,20.71,49.24h-4c-.9-2.27-11.04-22.99-12.05-23.86-.48-.41-6.45-.31-7.93-.02-1.09-5.34-3.07-10.56-4-15.92l3.52-1.94-3.52-2.04c-1.26-5.94-2.34-10.15-4-15.92Z"/><path class="cls-8" d="M146.37,179.32c-.83,2.48-3.89,11.32-4,11.94h-4v-3.98c-.48-2.43.72-6.16,0-7.96h4c1.24.34,2.95-.48,4,0Z"/><path class="cls-7" d="M42.47,422.15c3.97.22,8.01-.15,11.99,0-.23,6.15,5.54,18.87,3.89,29.45-2.19,14.05-13.04,17.65-15.43,25.34-1.93,6.2,3.25,7.81,3.55,8.91.35,1.29-.4,2.86,0,3.98-8.38.75-16.05-2.15-23.98-3.98,0-3.98,0-7.96,0-11.94,0-2.57-.38-5.6,0-7.96,25.3-5.62,26-21.95,19.98-43.79-2.65-.15-5.33.14-7.96-.02-2.54-5.76,3.78-10.5,3.97-11.92,2.45,3.64,2.87,7.86,4,11.94Z"/><path class="cls-6" d="M110.4,469.92c-3.91.3-9.3,6.2-19.98,3.98-2.71-.56-10.9-9.24-17.67-7.58-12.15,3-2.29,33.61-22.3,27.48-.81-1.44-3.54-2.7-4-3.98-.4-1.12.35-2.7,0-3.98,15.5-2.35,14.96-26.46,16.15-27.68,4.2-4.28,41.59,4.66,47.79,11.76Z"/><path class="cls-18" d="M82.43,489.82c3,.02,11.5-.56,11.99-.02,1.15,1.26-.74,12.23,0,15.94-.79.4-1.8,5.86-6.72,7.17-5.36,1.42-15.94,1.9-21.25.79-1.62-.34-2.82-3.29-4-3.98-1.72-19.18,3.11-19.99,19.98-19.9Z"/><path class="cls-9" d="M90.42,473.9l-7.99,15.92c-16.87-.09-21.7.73-19.98,19.9-11.15-6.51-7.63-8.17-11.99-15.92,20.01,6.13,10.14-24.48,22.3-27.48,6.77-1.67,14.96,7.01,17.67,7.58Z"/><path class="cls-3" d="M22.48,473.9c0,3.98,0,7.96,0,11.94-3.37-.78-8.19.58-11.98-.02-2.56-5.94,3.74-10.34,3.99-11.92h7.99Z"/><path class="cls-3" d="M10.5,501.76l4-3.98c-.28.05-3.9,3.72-4,3.98Z"/><path class="cls-6" d="M142.37,481.86h4c-.15,5.3.2,10.63,0,15.92-7.89.27-12.95,5.04-15.99,11.94-1.64.52-4.29,2.86-7.99,3.98-.23-6.38,2.48-16.5-4-19.9,2.94-2.1,3.17-15.08,23.98-11.94Z"/><path class="cls-16" d="M146.37,497.78c-.81,21.01-2.72,7.77-15.99,11.94,3.03-6.9,8.09-11.67,15.99-11.94Z"/><path class="cls-1" d="M142.37,219.13c.47,26.74,4,55.62,4,83.6-3.8.48-8.51-.71-11.99,0-1.44.29-3.4-.49-4,0-6.84-4.88-7.1-26.69-8.15-27.69-2.17-2.08-17.86,1.49-19.86-.16-.81-.67.56-8.77.03-11.95,1.18-.46,2.91.48,4,0,4.99-2.22,6.52-7.06,7.99-7.96,5.57-3.4,5.34,6.98,11.99-7.96.51-1.14,5.74-2.36,3.97-7.94-2.61-.27-5.38.29-7.97-.03-.85-4.63,1.23-12.16,0-15.92,5.95-.3,13.24-4.64,19.98-3.98Z"/><path class="cls-2" d="M142.37,191.26c-.4,2.44.19,5.35,0,7.96v7.96c.08,3.98-.07,7.96,0,11.94-6.74-.65-14.03,3.68-19.98,3.98-1.84-5.63-6.51-4.16-11.99-3.98-.77-1.84.68-5.71,0-7.96,3.8.49,8.52-.72,11.99,0,.44.09,5.34,6.48,7.96,3.96.83-.79-.73-5.8.03-7.94,4.24-11.95,10.89-6.35,4-15.92,1.22-.35,2.72.26,4,0h4Z"/><path class="cls-8" d="M142.37,207.18v-7.96c-.04.48-.02,7.24,0,7.96Z"/><path class="cls-7" d="M54.45,95.72c2.23-.58,8.25-1.31,8.04,2.03.45,24.93-20.87,59.94-8.04,81.56.79,1.34,2.99,2.46,4,3.98-10.41,2.01-18.26-1-23.98,0-1.53-2.1-2.43-6.61-4-7.96l23.98-79.62Z"/><path class="cls-6" d="M66.44,135.53c.06,2.65-.09,5.31,0,7.96.27,8.06,4.85,29.3,7.99,35.83-6.05-1.39-11.52,3.12-15.99,3.98-1.01-1.52-3.2-2.64-4-3.98,4.35-15.59,5.76-31.79,7.99-47.77,2.4,0,3.67,3.9,4,3.98Z"/><path class="cls-20" d="M66.44,99.7c16.41-1.87,4.95,9.66,4,15.92h-4c.44-5.2-.04-10.67,0-15.92Z"/><path class="cls-9" d="M70.44,135.53c-1.15.1-2.91.25-4,0-.33-.08-1.6-3.99-4-3.98.73-5.24,3.57-10.88,4-15.92h4c-.94,6.14.65,13.52,0,19.9Z"/><polygon class="cls-17" points="82.43 36.01 74.44 36.01 80.39 32.05 82.43 36.01"/><polygon class="cls-17" points="66.44 36.01 62.45 36.01 66.44 32.03 66.44 36.01"/><path class="cls-17" d="M86.4,8.16c4.36,4.34-3.59,12.26-7.95,7.92s3.59-12.26,7.95-7.92Z"/><path class="cls-1" d="M30.48,187.28c1.63,15.75-2.22,34.69-.27,49.83.97,7.55,7.56,8.04,8.26,9.88l-11.95-3.98c.6,4.3-1.11,10.4-.11,13.9,1.18,4.13,8.14,1.51,12.06,2.02,1.85.24,3.58,2.08,4,3.98-1.48,1.27-2.94,2.26-4,3.98-6.29,10.24-2.54,18.28-7.99,27.87-.94-.08-10.24,5.48-15.99,0h-4c1.46-34.33-1.07-69.14,0-103.5v-3.98h19.98Z"/><path class="cls-3" d="M22.48,171.36c-1.95-.53-5.44.07-7.99,0l7.99-15.92c.83,4.24,8.59,12.73,0,15.92Z"/><path class="cls-20" d="M126.39,469.92c11.68,1.42,6.94,6.02,15.99,11.94-20.81-3.13-21.03,9.84-23.98,11.94-3.59,2.56-15.46,9.48-19.98,11.94-1.02.55-2.94-.54-4,0-.74-3.71,1.16-14.68,0-15.94-.5-.54-9,.03-11.99.02l7.99-15.92c10.68,2.22,16.07-3.68,19.98-3.98,4.71-.37,11.43-.55,15.99,0Z"/><path class="cls-19" d="M74.44,179.32c.92,1.91,2.45,2.75,4,3.98,12.67,10.02,22.19.5,34.16.53,3.28,0,5.21,3.41,5.8,3.45v7.96c-3.97.25-8.02-.26-11.99.02-2.81,7.37,2.71,11.65,4,15.91.68,2.25-.77,6.12,0,7.96,2.36,5.66,6.05,4.28,11.99,3.98,1.23,3.76-.85,11.29,0,15.92-3.11-.37-9.17-.56-11.99,0-4.99.99-5.05,2.27-7.99,3.98-4.97,2.89-5.54,5.88-7.99,7.96-1.42,1.21-2.67,2.67-4,3.98h-4c.53-15.81-9.34-8.91-11.99,3.98-.25,1.21.07,2.67,0,3.98h-4c-.51-2.38.76-6.35,0-7.96-2.07-4.4-1.83-4.87-7.99-3.98-4.11.59-6.5,4.39-7.99,7.96-1.32-.04-2.67-.04-4,0l-3.96-3.97c-.45,2.55.54,5.81-.04,7.95-1.24.51-3.29-.6-4,0-.42-1.9-2.15-3.74-4-3.98-.68-3.47,1-9.32,0-11.94-.7-1.84-7.29-2.34-8.26-9.88-1.95-15.14,1.9-34.08.27-49.83,1.36-.93,2.99-3.81,4-3.98,5.72-1,13.57,2.01,23.98,0,4.46-.86,9.93-5.37,15.99-3.98Z"/><path class="cls-15" d="M54.45,310.69c.33,9.25-.47,18.63,0,27.87.44,8.54,3.78,20.1,4,27.87.04,1.33-.03,2.65,0,3.98-12.46,2.21-7.32-6.22-7.94-13.81-.86-10.51,2.23-31.03-8-37.92l7.94,87.53-11.98-15.89c-1.32.13-2.69-.17-4,0l-4-15.92c-.03-1.33.02-2.65,0-3.98-.08-5.29-.12-10.63,0-15.92s-.31-10.66,0-15.92c.57-9.63-.65-14.26,4-23.88.74-1.54,2.7-2.78,4-3.98,4.4,1.03,11.04-.71,15.99,0Z"/><path class="cls-6" d="M38.47,390.3l11.98,15.89-7.94-87.53c10.23,6.89,7.14,27.41,8,37.92.62,7.59-4.52,16.02,7.94,13.81.31,13.2.19,26.61,0,39.81,0,.63-3.73,4.78-4,11.94-3.98-.15-8.01.22-11.99,0-1.13-4.08-1.55-8.31-4-11.94.84-6.44-.58-13.39,0-19.9Z"/><path class="cls-7" d="M34.47,390.3c-.59.08-.83,5.02-3.95,3.98-.22-6.61.11-13.28-.05-19.9l4,15.92Z"/><path class="cls-7" d="M30.48,370.4c-5.98-1.29-6.22-14.27,0-15.92-.12,5.29-.08,10.63,0,15.92Z"/><path class="cls-5" d="M30.48,294.76c17.21,1.5,35.19,7.04,53.93,3.96l-5.98,11.96c-1.35,0-3.01-.29-4,0-1.9.56-3.31,2.14-4,3.98-3.46-.35-10.04-3.13-15.99-3.98-4.95-.71-11.59,1.03-15.99,0-5.66-1.32-28.92-9.62-23.98-15.92,5.75,5.48,15.05-.08,15.99,0Z"/><path class="cls-15" d="M58.45,410.21c-5,23.09,22.97,8.74,35.97,7.96,8.36-.5,16.12,1.72,23.98,3.98,1.91,12.8,13.5,30.3,7.99,47.77-4.55-.55-11.27-.37-15.99,0-6.19-7.1-43.59-16.04-47.79-11.76-1.2,1.22-.65,25.33-16.15,27.68-.3-1.1-5.48-2.71-3.55-8.91,2.39-7.68,13.25-11.29,15.43-25.34,1.65-10.57-4.12-23.3-3.89-29.45.27-7.17,3.99-11.31,4-11.94Z"/><path class="cls-6" d="M122.39,350.49c.77,9.64,2.87,24.3,4,35.83-9.66,6.85-9.61,25-7.99,35.83-7.86-2.26-15.62-4.48-23.98-3.98-.17-2.63.25-5.35,0-7.96-.7-7.26-3.3-13.67-4-19.9,8.87-15.23,7.84-34.84,7.99-51.75l5.97-11.92c8.26,3.5,2.47,25.64,18,23.87Z"/><path class="cls-12" d="M102.41,262.92c.53,3.18-.83,11.28-.03,11.95,1.99,1.65,17.69-1.92,19.86.16,1.04,1,1.3,22.81,8.15,27.69-.34.28,1.53,5.45-2.8,7.93-6.69,3.83-21.05,3.7-29.17,4.01-3.99.16-8-.1-11.99,0-.67-1.76-2.16-3.58-4-3.98-1.18-.26-2.74,0-4,0l5.98-11.96c-18.75,3.08-36.73-2.47-53.93-3.96,5.45-9.59,1.7-17.63,7.99-27.87l.04,7.95c3.61.94,3.68-3.92,3.95-3.97,2.19-.42,5.47-.06,7.99,0,7.31.16,8.29.43,15.99,0,2.63-.15,5.4.3,7.99,0,1.29-.15,2.69,0,4,0,1.36,3.29,1.44,5.38,5.99,3.96,2.09-.51,1.67-3.71,2-3.96,2.61-1.96,6.09-5.36,7.99-7.96l1.94,3.19c2.49-.12,4.18-2.46,6.05-3.19ZM70.41,282.87c-6.32-1.48-25.21-4.65-27.92,3.89l27.92-3.89ZM110.38,282.86l-35.92-4.01c-1.66,11.11,1.91,7.42,9.89,7.95,5.34.35,24.89,3.18,26.02-3.94Z"/><path class="cls-17" d="M98.41,314.67c-.05,7.96.07,15.93,0,23.88-.16,16.91.88,36.53-7.99,51.75-.24-2.19-3.9-5.83-4-7.96-.03-.63,4.1-5.24,4-11.94-.2-12.44,5.19-39.88-7.99-35.83.08-1.31,0-2.66,0-3.98v-15.92h4c3.99-.1,8,.16,11.99,0Z"/><path class="cls-11" d="M78.43,135.53c2.78-1.31,3.57-11.01,9.96-7.95,3.14,1.5,4.05,8.21,7.39,10.78,2.6,2,8.58.13,10.95,3.54,3,4.32,2.79,16.53,3.7,17.5,2.42,2.6,7.52-3.88,7.96-3.96,1.48-.29,7.45-.39,7.93.02,1.01.87,11.15,21.59,12.05,23.86.72,1.81-.48,5.53,0,7.96-3.99-.1-8,.15-11.99,0-2.65-.1-5.35.17-7.99,0-.59-.04-2.52-3.44-5.8-3.45-11.97-.03-21.5,9.49-34.16-.53,18.08-9.51,4.26-26.68,0-39.81-.65-2.01.44-5.48,0-7.96Z"/><path class="cls-20" d="M78.43,135.53c.44,2.48-.65,5.95,0,7.96h-11.99c-.09-2.65.06-5.31,0-7.96,1.08.25,2.84.1,4,0,2.51-.22,6.63.64,7.99,0Z"/><path class="cls-11" d="M114.4,139.51c-.22-1.29.27-2.72,0-3.98l3.52,2.04-3.52,1.94Z"/><path class="cls-1" d="M138.38,187.28v3.98c-1.27.26-2.78-.35-4,0-2.63.75-5.76,3.65-7.99,3.98v-7.96c3.99.15,8-.1,11.99,0Z"/><path class="cls-5" d="M122.39,239.03c2.59.31,5.36-.24,7.97.03,1.77,5.58-3.47,6.79-3.97,7.94-3.59.64-9.08-.94-11.99,0-.56-1.89-2.08-3.53-4-3.98v-3.98c2.82-.56,8.88-.37,11.99,0Z"/><path class="cls-17" d="M126.39,246.99c-6.65,14.95-6.42,4.56-11.99,7.96l-4-3.98c1.2-1.29,1.37-3.13,4-3.98,2.91-.94,8.4.64,11.99,0Z"/><path class="cls-5" d="M114.4,254.95c-1.47.9-3,5.74-7.99,7.96v-3.98c2.76-1.63,2.96-6.85,4-7.96l4,3.98Z"/><path class="cls-17" d="M106.41,262.92c-1.09.48-2.82-.46-4,0-.22-1.35.32-2.82,0-3.98h4v3.98Z"/><path class="cls-4" d="M118.39,195.24c1.33-.08,2.8.25,4,0v15.92c-3.47-.72-8.19.49-11.99,0-1.29-4.26-6.81-8.54-4-15.91,3.97-.27,8.02.23,11.99-.02ZM118.37,199.26c-5.61-2.86-10.66,2.52-7.95,3.9,5.61,2.86,10.66-2.52,7.95-3.9Z"/><path class="cls-22" d="M134.38,191.26c6.89,9.57.24,3.97-4,15.92h-7.99v-11.94c1.26-.27,2.7.19,4,0,2.23-.33,5.36-3.23,7.99-3.98Z"/><path class="cls-22" d="M122.39,223.11c-5.94.3-9.63,1.68-11.99-3.98,5.48-.18,10.15-1.65,11.99,3.98Z"/><path class="cls-9" d="M78.43,143.49c4.26,13.13,18.08,30.3,0,39.81-1.55-1.23-3.08-2.07-4-3.98-3.14-6.52-7.73-27.77-7.99-35.83h11.99Z"/><path class="cls-17" d="M38.47,246.99c1,2.63-.68,8.47,0,11.94-3.92-.5-10.88,2.11-12.06-2.02-1-3.51.7-9.61.11-13.9l11.95,3.98Z"/><path class="cls-17" d="M46.46,262.92c-.71,2.59-3.03,5.29-4,7.96-.28.05-.35,4.91-3.95,3.97l-.04-7.95c1.06-1.72,2.51-2.71,4-3.98.7-.6,2.76.51,4,0Z"/><path class="cls-12" d="M110.4,243.01c1.91.45,3.44,2.09,4,3.98-2.63.85-2.8,2.69-4,3.98-1.03,1.11-1.24,6.33-4,7.96h-4c-.45-1.66-2.93-2.75-4-3.98-1.23-1.42-2.61-2.72-4-3.98,2.46-2.08,3.02-5.07,7.99-7.96,2.55.36,5.72-.53,7.99,0Z"/><path class="cls-8" d="M70.44,262.92h4c-.15,2.64.1,5.32,0,7.96-2.6.3-5.36-.15-7.99,0-4.96-5.55-11.23-5.55-15.99,0-2.52-.06-5.81-.42-7.99,0,.97-2.67,3.29-5.37,4-7.96,1.58-.65,3.25-3.96,4-3.98,1.32-.04,2.67-.04,4,0,1.42.05,10.2,7.25,15.99,3.98Z"/><path class="cls-17" d="M98.41,254.95c-1.49,2.46-2.33,5.69-4,7.96-1.91,2.61-5.38,6.01-7.99,7.96h-7.99c-.7-1.68.43-5.45,0-7.96,4.09.42,5.51-2.01,7.99-3.98,1.47-1.17,2.67-2.66,4-3.98,1.33-1.31,2.57-2.78,4-3.98,1.39,1.27,2.76,2.56,4,3.98Z"/><path class="cls-5" d="M74.44,258.93c2.65-12.89,12.52-19.79,11.99-3.98v3.98c-2.48,1.98-3.9,4.4-7.99,3.98-.31-1.84-2.15-3.44-4-3.98Z"/><path class="cls-5" d="M62.45,250.97c-.68,10.62-.18,9.06,7.99,3.98.76,1.61-.51,5.58,0,7.96-5.79,3.27-14.57-3.93-15.99-3.98,1.5-3.57,3.88-7.37,7.99-7.96Z"/><path class="cls-17" d="M126.39,187.28v7.96c-1.3.19-2.73-.27-4,0-1.2.25-2.66-.08-4,0v-7.96c2.64.17,5.34-.1,7.99,0Z"/><path class="cls-1" d="M70.44,254.95c-8.17,5.08-8.68,6.64-7.99-3.98,6.16-.89,5.92-.42,7.99,3.98Z"/><path class="cls-8" d="M110.4,239.03v3.98c-2.28-.53-5.44.36-7.99,0,2.94-1.71,3-2.99,7.99-3.98Z"/><path class="cls-1" d="M50.46,258.93c-.75.02-2.41,3.33-4,3.98.59-2.15-.41-5.4.04-7.95l3.96,3.97Z"/><path class="cls-12" d="M86.42,258.93v-3.98h4c-1.33,1.32-2.53,2.81-4,3.98Z"/><path class="cls-9" d="M82.43,330.59c0,1.32.08,2.67,0,3.98-.4,6.58.32,13.31-.02,19.89l-19.92-7.94c-.22,6.61.15,13.29-.04,19.9h-4c-.21-7.77-3.56-19.33-4-27.87l5.31-.11c4.4-11.17,11.85-8.1,22.66-7.85Z"/><path class="cls-6" d="M70.44,314.67c1.87.19,4.74-1.56,4-3.98.99-.29,2.65,0,4,0,1.26,0,2.82-.26,4,0v19.9c-10.8-.25-18.26-3.32-22.66,7.85l-5.31.11c-.47-9.24.33-18.61,0-27.87,5.94.85,12.52,3.63,15.99,3.98Z"/><path class="cls-20" d="M62.45,390.3c1.82,32.76,2.88,20.83,31.97,19.9.25,2.61-.17,5.33,0,7.96-12.99.77-40.97,15.13-35.97-7.96.19-13.2.31-26.61,0-39.81-.03-1.33.04-2.65,0-3.98h4c-.23,7.84-.44,16.07,0,23.88Z"/><path class="cls-15" d="M70.44,314.67c.68-1.84,2.09-3.42,4-3.98.75,2.42-2.12,4.17-4,3.98Z"/><path class="cls-21" d="M86.42,382.34c.09,2.13,3.75,5.77,4,7.96.69,6.24,3.3,12.64,4,19.9-29.09.93-30.15,12.85-31.97-19.9,13.99,4.28,11.26-7.43,11.99-7.96,1.37-1,8.92.69,11.99,0Z"/><path class="cls-17" d="M110.38,282.86c-1.13,7.12-20.69,4.29-26.02,3.94-7.98-.53-11.55,3.16-9.89-7.95l35.92,4.01Z"/><path class="cls-17" d="M70.41,282.87l-27.92,3.89c2.71-8.54,21.61-5.37,27.92-3.89Z"/><path class="cls-5" d="M66.44,270.88c-7.69.43-8.68.16-15.99,0,4.76-5.55,11.02-5.55,15.99,0Z"/><path class="cls-5" d="M102.41,258.93c.32,1.16-.22,2.63,0,3.98-1.87.73-3.56,3.06-6.05,3.19l-1.94-3.19c1.66-2.27,2.5-5.5,4-7.96,1.07,1.23,3.55,2.32,4,3.98Z"/><path class="cls-1" d="M86.42,270.88c-.33.25.08,3.45-2,3.96-4.55,1.41-4.62-.68-5.99-3.96h7.99Z"/><path class="cls-15" d="M86.42,314.67h-4v-3.98c1.83.4,3.32,2.22,4,3.98Z"/><path class="cls-11" d="M82.43,334.57c13.18-4.05,7.8,23.38,7.99,35.83-5.14-.52-11.05.76-15.99,0-3.18-.49-7.75-4.24-11.99-3.98.19-6.62-.18-13.3.04-19.9l19.92,7.94c.34-6.58-.38-13.31.02-19.89Z"/><path class="cls-18" d="M90.42,370.4c.11,6.7-4.02,11.31-4,11.94-3.07.69-10.62-1-11.99,0v-11.94c4.93.76,10.85-.52,15.99,0Z"/><path class="cls-3" d="M118.37,199.26c2.71,1.38-2.34,6.76-7.95,3.9-2.71-1.38,2.34-6.76,7.95-3.9Z"/><path class="cls-8" d="M74.44,370.4v11.94c-.73.53,2,12.24-11.99,7.96-.44-7.82-.23-16.04,0-23.88,4.24-.26,8.81,3.49,11.99,3.98Z"/></g></svg>