<?xml version="1.0" encoding="UTF-8"?><svg id="Capa_2" xmlns="http://www.w3.org/2000/svg" viewBox="0 0 484.24 32.29"><defs><style>.cls-1{fill:#a7a7a7;}.cls-2{fill:#f0f0f0;}.cls-3{fill:#9b9b9b;}.cls-4{fill:#02c8de;}.cls-5{fill:#c5c8c9;}.cls-6{fill:#77dae1;}.cls-7{fill:#f1f1f1;}.cls-8{fill:#aaa;}.cls-9{fill:#e4e4e4;}.cls-10{fill:#13ccdf;}.cls-11{fill:#00a2bb;}.cls-12{fill:#e6e6e6;}</style></defs><g id="Layer_1"><path class="cls-10" d="M392.54,13.17v2.96H89.73c.45-1.87,2.26-3.95,2.97-5.91,86.43,6.25,198.72,2.46,286.69-.12,5.2-.15,11.99,3.17,13.16,3.08Z"/><path class="cls-2" d="M481.6,13.17c-9.87,4.15-24.13,3.18-33.39,6.11-2.96.94-2.28,7.58-8.17,5.72-1.97-.12-3.97.1-5.94,0-9.82-.48-19.84.2-29.69,0-2.97-.06-5.94.05-8.91,0v-2.96l-2.97-5.91v-2.96c.5-.04,4.7-4.19,8.58-4.62,25.6-2.85,65.17-19.85,80.48,4.62Z"/><path class="cls-7" d="M92.69,10.21c-.71,1.97-2.52,4.04-2.97,5.91-.21.88.14,1.95,0,2.96-6.26-2.45-10.95,2.04-14.84,2.96-11.85,2.78-21.75,1.65-32.66,2.96-7.12-9.8-26.95-6.13-38.59-11.83,1.47-3.34-.09-5.12,4.67-8.55,17.26-12.44,62.3,3.99,84.39,5.59Z"/><path class="cls-11" d="M395.51,22.04v2.96c-51.36-.83-103,0-154.37,0H89.73c.02-.99-.03-1.97,0-2.96h305.78Z"/><path class="cls-12" d="M481.6,13.17c6.07,9.7.23,3.11-3.07,7.88-2.02,2.91-2.51,9.56-2.9,9.89-.36.3-6.29-2.89-8.87-2.99-9.91-.39-19.46-2.51-26.72-2.96,5.89,1.86,5.21-4.78,8.17-5.72,9.26-2.93,23.52-1.96,33.39-6.11Z"/><path class="cls-9" d="M42.23,25c-3.74.45-7.89,2.44-14.84,2.96-1.94.14-3.98.02-5.94,0l-11.87-2.96c-2.63-1.5-8.62-2.6-8.89-2.98-2.37-3.35,2.15-7.03,2.95-8.85,11.64,5.7,31.47,2.03,38.59,11.83Z"/><path class="cls-6" d="M196.6,25c-3.09,4.9-11.26,2.95-16.29,3.01-30.16.37-60.48-.84-90.59-.05v-2.96h106.87Z"/><path class="cls-1" d="M74.88,22.04l2.97,5.91c-15.76.59-38.3,9.44-50.47,0,6.95-.52,11.11-2.51,14.84-2.96,10.91-1.31,20.81-.18,32.66-2.96Z"/><path class="cls-5" d="M89.73,19.08c-.13.95.03,1.99,0,2.96s.02,1.97,0,2.96v2.96c-3.95.1-7.93-.15-11.87,0l-2.97-5.91c3.9-.91,8.59-5.4,14.84-2.96Z"/><path class="cls-3" d="M440.04,25c7.26.45,16.81,2.57,26.72,2.96-9.7,8.09-24.25.6-32.66,0v-2.96c1.97.1,3.97-.12,5.94,0Z"/><path class="cls-6" d="M241.13,25c-6,4.91-23.11,5.05-29.69,0h29.69Z"/><path class="cls-8" d="M434.1,25v2.96c-9.5-.68-22.65,2.92-29.69-2.96,9.84.2,19.87-.48,29.69,0Z"/><path class="cls-8" d="M21.44,27.96c-.91-.01-2.83,2.44-6.26,1.57-2.82-.72-4.03-3.62-5.62-4.53l11.87,2.96Z"/><path class="cls-4" d="M392.54,16.13l2.97,5.91H89.73c.03-.97-.13-2.01,0-2.96.14-1-.21-2.08,0-2.96h302.81Z"/></g></svg>