<?xml version="1.0" encoding="UTF-8"?><svg id="Capa_2" xmlns="http://www.w3.org/2000/svg" viewBox="0 0 176.85 815.22"><defs><style>.cls-1{fill:#d7d7d7;}.cls-2{fill:#c9c9c9;}.cls-3{fill:#cecece;}.cls-4{fill:#e0e0e0;}.cls-5{fill:#e3e3e3;}.cls-6{fill:#d8d8d8;}.cls-7{fill:#c8c8c8;}.cls-8{fill:silver;}.cls-9{fill:#cbcbcb;}.cls-10{fill:#ddd;}.cls-11{fill:#c5c5c5;}.cls-12{fill:#ebebeb;}.cls-13{fill:#dedede;}.cls-14{fill:#adadad;}.cls-15{fill:#b7b7b7;}.cls-16{fill:#d2d2d2;}</style></defs><g id="Layer_1"><path class="cls-10" d="M85.3,155.78c16.09,50.86,24.94-2.33,42.58-14.16l28.5,21.24c-.63,2.2.69,4.96,0,7.08-3.46,10.64-10.92,14.93-14.22,21.24-29.74-15.14-55.05,20.37-57.56,46.4-.9,9.33,37.51,21.73.69,24.4-.28-.51-8.84,1.04-11.51-2.43-12.54-16.25-19.98-36.51-45.35-32.97-10.27-16.91-8.74-20.08-14.22-35.4,8.08-.33,14.4,4.73,21.32,7.08,3.89,1.32,9.06,12.1,21.24,7.07,1.46-13.3,8.05-33.08,14.65-44.16,4.71-7.92,13.44-4.78,13.87-5.39Z"/><path class="cls-13" d="M142.16,191.18c-9.77,18.68-18.57,24.14-25.44,35.98-4.93,8.49,4.34,12.91,4.12,13.58-11.85,36.16-16.1,43.26-14.22,84.96-11.38,16.21-9.01,53.35-7.48,74.81,1.05,14.78,7.36,23.05,7.48,24.32.69,6.96-.55,14.25,0,21.24-31.72,6.77-20.51-16.22-21.32-42.48-.68-21.99,3.56-135.16,0-141.6,36.81-2.67-1.59-15.07-.69-24.4,2.5-26.03,27.81-61.53,57.56-46.4Z"/><path class="cls-16" d="M113.73,502.71c2.93,62.96-4.73,122.02-7.11,184.09l-7.07,10.55,7.07,3.61c-.27,7.06.13,14.17,0,21.24l-14.22,7.08h-7.11c.27-9.43-.22-18.89,0-28.32.38-16.46-.82-33.14,0-49.56,1.39-27.96-2.27-57.22,0-84.96.08-.94,6.28-8.26,7.4-17.12,3.39-26.73-13.78-53.68,21.03-46.61Z"/><path class="cls-8" d="M113.73,7.09c-8.53,33.18-28.21,40.25-28.43,77.88-21.94-5.09-11.66,11.8-14.22,14.16-5.07,4.69-17.32,4.87-24.41,14.52-11.58,15.77-8.74,48.69-39.56,49.2C5.29,151.11-.24,139.63,0,127.45c28.52,3.14,29.24-14.74,35.54-35.4,1.18-3.87-1.14-10.18,0-14.16C56.33,71.12,87.58,24.41,85.3.01c16.17-.09,15.2.17,28.43,7.08Z"/><path class="cls-6" d="M163.49,84.97c1.31,5.39,5.14,10.83,7.11,21.24-9.59,16.37-8.37,36.29-14.22,56.64l-28.5-21.24c-17.64,11.82-26.49,65.01-42.58,14.16,2.37-3.37,1.83-16.08,7.69-23.88,11.41-15.16,17.41-8.35,27.85-32.77,1.29-3.02-1.63-12.91.03-14.14,5.62-4.17,29.1,5.9,38.46,5.42l4.16-5.44Z"/><path class="cls-1" d="M85.3,403.58c.81,26.26-10.4,49.25,21.32,42.48,1.36,17.21,6.09,34.84,7.11,56.64-34.81-7.08-17.64,19.88-21.03,46.61-1.12,8.85-7.32,16.18-7.4,17.12h-14.22c0-54.52,1.33-108.46,0-162.85h14.22Z"/><path class="cls-9" d="M78.19,99.13c-8.73,34.84-21.02,70.28-42.65,99.12-6.93-2.35-13.25-7.41-21.32-7.08-2.03-5.68-10.78-11.4-12.45-18.88-1.12-5,5.42-8.9,5.34-9.44,30.82-.5,27.98-33.43,39.56-49.2,7.09-9.65,19.35-9.84,24.41-14.52h7.11Z"/><path class="cls-16" d="M28.44,226.58c25.37-3.54,32.81,16.72,45.35,32.97,2.67,3.47,11.23,1.92,11.51,2.43,3.56,6.44-.68,119.62,0,141.6h-14.22c-1.04-42.45,7.85-109.09-13.99-145.34-5.84-9.7-20.23-17.8-28.66-31.67Z"/><path class="cls-3" d="M135.05,28.33c4.33,3.96,16.53,3.14,21.97,11.99,5.8,9.43,3.13,30.98,6.46,44.65l-4.16,5.44c-9.36.48-32.84-9.59-38.46-5.42-1.66,1.23,1.26,11.12-.03,14.14h-28.43c23.01-17.46,28.06-45.07,42.65-70.8Z"/><path class="cls-2" d="M135.05,28.33c-14.59,25.74-19.64,53.34-42.65,70.8h-7.11c.02-4.72-.03-9.44,0-14.16.22-37.64,19.9-44.7,28.43-77.88,13.61,7.12,14.04,14.58,21.32,21.24Z"/><path class="cls-14" d="M49.76,14.17c6.62,26.3-7.95,41.91-14.22,63.72-1.14,3.98,1.18,10.29,0,14.16l-28.43-7.08c5.52-22.52,11.94-47.8,28.15-65.97,6.04-6.77,12.57-3.62,14.49-4.84Z"/><path class="cls-15" d="M85.3.01c2.28,24.4-28.97,71.11-49.75,77.88,6.27-21.81,20.84-37.42,14.22-63.72C64.49,4.9,55.15.17,85.3.01Z"/><path class="cls-12" d="M170.59,169.94c-7.52,26.55-9.89,23.33-23.03,44.59-9.08,14.68,3.56,32.6-26.72,26.21.22-.67-9.05-5.09-4.12-13.58,6.88-11.84,15.67-17.3,25.44-35.98,3.3-6.31,10.76-10.6,14.22-21.24h14.22Z"/><path class="cls-6" d="M92.41,729.27c5.13,21.35,20.34,76.7-7.11,70.8-6.9-16.62-8.15-20.02-7.7-39.3.35-14.93,7.63-29.07,7.7-31.5h7.11Z"/><path class="cls-11" d="M106.62,424.82c-.13-1.27-6.43-9.53-7.48-24.32-1.52-21.46-3.9-58.6,7.48-74.81,1.23,27.28,19.69,70.21,0,99.12Z"/><path class="cls-5" d="M85.3,566.43c-2.27,27.75,1.39,57,0,84.96h-14.22c-.83-28.18,0-56.76,0-84.96h14.22Z"/><path class="cls-15" d="M35.55,92.05C29.25,112.71,28.53,130.59,0,127.45c.44-21.45,2.67-24.38,7.11-42.48l28.43,7.08Z"/><path class="cls-4" d="M170.59,169.94h-14.22c.69-2.12-.63-4.88,0-7.08,5.85-20.35,4.62-40.27,14.22-56.64,6.18,32.66,10.25,27.54,0,63.72Z"/><path class="cls-7" d="M106.62,722.19c-.55,30.6.45,61.48-.03,92.08-29.49,3.71-17.04-3.95-21.29-14.2,27.45,5.89,12.24-49.45,7.11-70.8l14.22-7.08Z"/><path class="cls-6" d="M85.3,651.39c-.82,16.42.38,33.1,0,49.56-22.92,6.66-13.61-28.85-14.22-49.56h14.22Z"/><path class="cls-7" d="M106.62,700.95l-7.07-3.61,7.07-10.55c-.18,4.71.18,9.45,0,14.16Z"/><path class="cls-16" d="M92.41,99.13h28.43c-10.44,24.42-16.44,17.61-27.85,32.77-5.86,7.79-5.32,20.5-7.69,23.88-.43.61-9.16-2.53-13.87,5.39-6.6,11.08-13.19,30.86-14.65,44.16-12.17,5.03-17.35-5.75-21.24-7.07,21.62-28.84,33.91-64.28,42.65-99.12h14.22Z"/><path class="cls-3" d="M85.3,84.97c-.03,4.72.02,9.44,0,14.16h-14.22c2.55-2.36-7.73-19.25,14.22-14.16Z"/></g></svg>