<?xml version="1.0" encoding="UTF-8"?><svg id="Capa_2" xmlns="http://www.w3.org/2000/svg" viewBox="0 0 172.26 593.12"><defs><style>.cls-1{fill:#5f5f5f;}.cls-2{fill:#313131;}.cls-3{fill:#3e3e3e;}.cls-4{fill:#494949;}.cls-5{fill:#131313;}.cls-6{fill:#202020;}.cls-7{fill:#0f0f0f;}.cls-8{fill:#353535;}.cls-9{fill:#4b4b4b;}.cls-10{fill:#151515;}.cls-11{fill:#070707;}</style></defs><g id="Layer_1"><path class="cls-11" d="M48.48,579.81c7,1.68,47.61,6.87,50.04,4.55,1.07-1.02-.67-13.67-.02-18.14.42-2.9-.67-6.64,0-9.06,3.1-11.25,25.9-19.01,16.07-36.4-5.02-8.88-10.95.25-11.52.17-5.81-.85-9.04-3.1-13.64-4.53,0-3.02,0-6.04,0-9.06.02-12.06,4.51-26.19-9.09-22.65.59-4.25-.24-9.15,0-13.59.24-4.49.02-9.09,0-13.59-.02-4.53-.02-9.06,0-13.59.02-4.07-4.54-8.29-4.55-9.06-.03-3.01-.11-6.05,0-9.06.12-3.34,3.59-26.22,4.56-27.2,10.3-10.33,40.53,31.1,18.17-27.16,4.64-11.27-.87-22.38-.04-33.81.57-7.86,4.56-6.54,4.58-6.96,6.53,25.44,9.43,47.83,20.54,72.4,19.23,42.55,57.99,74.27,46.62,128.16-9.45,44.82-84.41,83-121.73,48.58Z"/><path class="cls-7" d="M80.31,326.15c.79.64-2.38,12.58,9.09,9.06,1.22,22.74,2.5,19.05,9.09,36.24,22.36,58.25-7.88,16.83-18.17,27.16-.98.98-4.45,23.86-4.56,27.2-28.7-9.98-21.78-3.9-27.28,18.12-29.67,11.61-17.9,10.33-33.11,30.6-1.52,2.02-7.45.6-7.82,1.11,5.85-34.11,33-61.15,44.45-93.88,5.66-16.18,12.75-43.66,14.67-60.13,3.04,3.22,11.99,3.18,13.64,4.53ZM75.74,380.53c-4.96-4.94-14.01,4.07-9.05,9.01,4.96,4.94,14.01-4.07,9.05-9.01Z"/><path class="cls-6" d="M103.05,308.03c-13.51-2.78-14.25,11.57,0,9.06-.06,4.52.23,9.09,0,13.59-.02.42-4.01-.9-4.58,6.96-.83,11.43,4.68,22.54.04,33.81-6.6-17.19-7.88-13.5-9.09-36.24-.8-14.98.6-30.28-.02-45.27-2.83.27-8.44-.63-9.07-.02,2.46-16.1,7.51-23.64,9.09-31.71,1.3-6.61-1.07-15.69,0-22.65.79-5.15,3.88-10.08,4.55-18.12,1.86-22.41,3.84-51.3-4.55-72.48,1.25-1.62.4-11.47,9.09-13.59h4.55c-1.34,59.16,1.14,118.35,0,176.66Z"/><path class="cls-7" d="M25.74,507.34c-5.77,2.55-4.05,4.21-4.55,9.06-1.12,10.83,4.57,42.39,13.64,47.85,4.63,2.78,11.29-1.95,15.21-.96,17.54,4.42,27.84,13.07,48.46,2.94-.65,4.47,1.09,17.12.02,18.14-2.44,2.32-43.05-2.87-50.04-4.55-1.32-.32-3.12-6.56-5.42-7.45-3.15-1.21-7.37,3.6-15.07-1.11-20.87-12.76-34.28-64.14-24.98-86.57,14.77-1.35,24.09,7.69,22.74,22.65Z"/><path class="cls-6" d="M107.59,54.36c-12.61-2.31-7.39,4.37-9.09,9.06-.5,1.36-4.27,2.84-4.27,6.79s3.78,5.44,4.27,6.79c1.71,4.69-3.52,11.37,9.09,9.06-.2,9.53-4.46,18.45-4.55,22.65-6.98-6.05-10.4-3.97-13.64,4.53-.88-1.55-3.61-2.82-4.55-4.53,10.74-21.61,4.06-14.35-4.55-18.12-4.05-1.77-7.32-6.18-13.64-4.53-.09-14.46-.01-30.53,0-45.3h4.55c31.62,27.06,34.09-16.86,18.19-40.77,25.99,3.14,17.72,33.91,18.19,54.36Z"/><path class="cls-5" d="M48.48,443.92c-1.48,5.93-3.84,12.14-4.55,18.12-18.49-1.44-5.21,9.43-4.55,13.59.67,4.23-.85,9.65,0,13.59-8.35,2.36-9.87,10.22-9.09,18.12-1.37.4-3.31-.55-4.55,0,1.35-14.96-7.96-24-22.74-22.65,1.14-2.75,2.93-6.82,4.55-9.06.37-.51,6.3.91,7.82-1.11,15.21-20.27,3.44-18.99,33.11-30.6Z"/><path class="cls-7" d="M80.31,90.6c-2.36,8.92,1.04,11.75,4.55,18.12.94,1.71,3.67,2.98,4.55,4.53,3.47,6.15,4.97,12.55,9.09,18.12-8.69,2.12-7.85,11.97-9.09,13.59-2.32,3.02-7.74,6.28-9.09,9.06l-13.64-49.83c-.09-6.04.04-12.08,0-18.12,6.32-1.65,9.59,2.76,13.64,4.53Z"/><path class="cls-4" d="M75.76,258.2h13.64c-1.59,8.07-6.64,15.61-9.09,31.71-.27,1.77-10.35,10.21,0,13.59-.68,7.44.47,15.17,0,22.65-1.65-1.35-10.6-1.31-13.64-4.53,2-17.24-3.82-46.48-.1-60.46,1.3-4.9,8.74-2.45,9.2-2.96Z"/><path class="cls-4" d="M80.31,154.01c-1.3,2.66-3.63,2.83-4.55,9.06h-9.09c-.47-18.79.28-40.8,0-58.89l13.64,49.83Z"/><path class="cls-4" d="M75.76,203.84c16.27-3.74,1.92,17.33,18.19,13.59-.67,8.04-3.75,12.97-4.55,18.12-9.52-2.87-9.92,7.24-13.64,13.59-14.35,3.92-8.71-14.45-9.09-27.18,13.61,2.83,8.58-6.73,9.09-18.12Z"/><path class="cls-1" d="M75.76,163.07c-1.78,12.02.59,27.84,0,40.77-.52,11.39,4.52,20.95-9.09,18.12-.18-6.03.25-12.1,0-18.12,7.44-4.56,7.31-22.89,0-27.18-.17-4.52.11-9.07,0-13.59h9.09Z"/><path class="cls-3" d="M103.05,108.72c-.14,6.66.15,15.94,0,22.65h-4.55c-4.13-5.57-5.62-11.97-9.09-18.12,3.24-8.49,6.66-10.58,13.64-4.53Z"/><path class="cls-4" d="M71.22,4.53v36.24h-4.55c0-5.47-8.21-19.21-4.72-33.43,1.36-5.56,7.07-1.89,9.27-2.81Z"/><path class="cls-3" d="M107.59,54.36c.24,10.51.23,21.2,0,31.71-12.61,2.31-7.39-4.37-9.09-9.06v-13.59c1.71-4.69-3.52-11.37,9.09-9.06Z"/><path class="cls-2" d="M89.41,235.55c-1.07,6.96,1.3,16.03,0,22.65h-13.64c1.07-1.19-1.06-7.25,0-9.06,3.72-6.35,4.12-16.46,13.64-13.59Z"/><path class="cls-4" d="M66.67,203.84c-.38-9.03.35-18.15,0-27.18,7.31,4.29,7.44,22.62,0,27.18Z"/><path class="cls-11" d="M103.05,308.03c-.06,3.02.04,6.04,0,9.06-14.25,2.51-13.51-11.84,0-9.06Z"/><path class="cls-9" d="M75.76,457.51h4.55c.02,4.5.24,9.1,0,13.59-22.58-4.39-26.26,12.92-27.27,31.68,5.83.7,12.59-.89,18.18.02-.48,16.03,10.04,11.06,18.19,13.59,4.6,1.43,7.83,3.68,13.64,4.53,1.97,12.68-1.08,22.1-9.09,31.71-6.51-1.1-15.52.27-22.74,0-.83-2.83-4.4-6.77-4.55-9.06,7.16.91,15.4-.53,22.76-.02,4.84-26.27-24.93-33.86-22.76.02-3.45-.44-8.91-4.84-13.64-4.53-.79-2.45.79-6.63,0-9.06-4.35-13.35-10.67-26.96-13.64-40.77-.85-3.94.67-9.36,0-13.59h4.55c11.64-6.22,16.49-20.59,31.83-18.12Z"/><path class="cls-5" d="M34.84,516.4c4.97,5.89,11.14,15.42,18.19,13.59.79,2.43-.79,6.61,0,9.06,2.13,6.65,1.82,11.92,9.38,16.23,5.88,3.35,8.35-2.65,8.81-2.64,7.21.27,16.22-1.1,22.74,0,.32.05-.61,5.33,4.55,4.53-.67,2.42.42,6.16,0,9.06-20.62,10.13-30.92,1.48-48.46-2.94-3.92-.99-10.58,3.74-15.21.96-9.08-5.45-14.76-37.01-13.64-47.85h13.64Z"/><path class="cls-1" d="M80.31,471.1c-.24,4.43.59,9.34,0,13.59-.42,3.02-8.12,10.85-4.55,18.12-1.5-.14-3.09.24-4.55,0-5.58-.91-12.34.67-18.18-.02,1.01-18.77,4.69-36.07,27.27-31.68Z"/><path class="cls-6" d="M103.05,520.93c.57.08,6.5-9.05,11.52-.17,9.84,17.39-12.96,25.15-16.07,36.4-5.16.8-4.23-4.48-4.55-4.53,8.01-9.61,11.06-19.03,9.09-31.71Z"/><path class="cls-10" d="M75.76,425.8c-.11,3.01-.03,6.05,0,9.06-1.74.87-3.59,4.35-4.55,4.53-8.7,1.61-12.84.66-22.74,4.53,5.5-22.01-1.41-28.09,27.28-18.12Z"/><path class="cls-6" d="M80.31,484.69c13.61-3.54,9.12,10.59,9.09,22.65-4.2-2.38-8.79-4.09-13.64-4.53-3.57-7.27,4.13-15.1,4.55-18.12Z"/><path class="cls-8" d="M89.41,507.34c0,3.02,0,6.04,0,9.06-8.14-2.53-18.67,2.44-18.19-13.59,1.46.24,3.05-.14,4.55,0,4.85.44,9.44,2.15,13.64,4.53Z"/><path class="cls-10" d="M80.31,443.92c-.02,4.53-.02,9.06,0,13.59h-4.55l-4.55-13.59h9.09Z"/><path class="cls-7" d="M80.31,443.92h-9.09v-4.53c.96-.18,2.8-3.66,4.55-4.53,0,.76,4.57,4.99,4.55,9.06Z"/><path class="cls-10" d="M80.31,289.91c.64-.61,6.24.29,9.07.02.63,15-.78,30.3.02,45.27-11.48,3.52-8.31-8.42-9.09-9.06.47-7.48-.68-15.21,0-22.65.33-3.64-.71-12.91,0-13.59Z"/><path class="cls-10" d="M75.74,380.53c4.96,4.94-4.09,13.95-9.05,9.01-4.96-4.94,4.09-13.95,9.05-9.01Z"/><path class="cls-3" d="M93.95,217.43c-16.27,3.74-1.92-17.33-18.19-13.59.59-12.93-1.78-28.75,0-40.77.92-6.23,3.25-6.4,4.55-9.06s6.78-6.04,9.09-9.06c8.39,21.18,6.4,50.07,4.55,72.48Z"/><path class="cls-6" d="M30.29,507.34c4.95,1.05,3.37,7.67,4.55,9.06h-13.64c.5-4.85-1.22-6.51,4.55-9.06,1.24-.55,3.17.4,4.55,0Z"/><path class="cls-5" d="M80.31,90.6c8.61,3.77,15.29-3.49,4.55,18.12-3.51-6.37-6.9-9.2-4.55-18.12Z"/><path class="cls-5" d="M98.5,77.01c-.5-1.36-4.27-2.84-4.27-6.79s3.78-5.44,4.27-6.79v13.59Z"/><path class="cls-2" d="M71.22,439.39v4.53l4.55,13.59c-15.34-2.47-20.19,11.9-31.83,18.12.35-4.46-.53-9.17,0-13.59.71-5.98,3.07-12.19,4.55-18.12,9.9-3.87,14.04-2.92,22.74-4.53Z"/><path class="cls-2" d="M53.03,529.99c-7.05,1.83-13.22-7.7-18.19-13.59-1.17-1.39.4-8.01-4.55-9.06-.78-7.9.75-15.76,9.09-18.12,2.97,13.81,9.29,27.41,13.64,40.77Z"/><path class="cls-6" d="M43.93,462.04c-.53,4.42.35,9.13,0,13.59h-4.55c-.66-4.16-13.94-15.03,4.55-13.59Z"/><path class="cls-8" d="M80.31,303.5c-10.35-3.37-.27-11.82,0-13.59-.71.68.33,9.95,0,13.59Z"/><path class="cls-1" d="M66.67,543.58c-2.17-33.88,27.6-26.29,22.76-.02-7.37-.51-15.6.93-22.76.02Z"/><path class="cls-6" d="M66.67,543.58c.15,2.28,3.72,6.23,4.55,9.06-.46-.02-2.93,5.99-8.81,2.64-7.56-4.31-7.24-9.58-9.38-16.23,4.73-.31,10.19,4.09,13.64,4.53Z"/></g></svg>