<?xml version="1.0" encoding="UTF-8"?><svg id="Capa_2" xmlns="http://www.w3.org/2000/svg" viewBox="0 0 196.02 685.77"><defs><style>.cls-1{fill:#272727;}.cls-2{fill:#3c3c3c;}.cls-3{fill:#6a6a6a;}.cls-4{fill:#404040;}.cls-5{fill:#1f1f1f;}.cls-6{fill:#3a3a3a;}.cls-7{fill:#555;}.cls-8{fill:#333;}.cls-9{fill:#c5c5c5;}.cls-10{fill:#0b0b0b;}.cls-11{fill:#232323;}.cls-12{fill:#151515;}.cls-13{fill:#323232;}</style></defs><g id="Layer_1"><path class="cls-8" d="M80.11,486.66c.65,13.12-5.24,24.1,10.46,20.84v41.69c-15.79-2.91-10.13,7.98-10.46,18-.37,11.31-1.8,66.12,1.23,69.61,2.15,2.47,8.6.3,9.23.97,3.06,3.21-7.72,10.84,15.69,10.42,3.49-.06,6.98.04,10.46,0,.58,8.99,2.69,17.49,5.23,26.05l-104.62-5.21c-20.92-17.9-18.13-83.78-15.62-111.94,1.36-15.21,8.08-23.7,10.39-33.97l5.28,15.64,26.1-10.43c-.59,6.86.4,13.95,0,20.84-17.3-6.12-13.13,40.93-5.23,52.11-.19,8.22.8,62.04,10.38,52.08.92-4.76,2.5-11.99,5.31-15.61.52-.66,9.2,2.71,10.7-3.27,3.56-14.24,1.17-59.41-5.46-74.9.11-6.93.13-13.91,0-20.84v-5.21c-.42-15.82,6.67-46.84-10.46-41.69.91-2.33-.84-7.2.03-10.43,10.9,2.34,19.85,5.09,31.36,5.22ZM98.42,653.41v5.21c3.4-1.74,3.4-3.47,0-5.21Z"/><path class="cls-13" d="M69.65,455.4l23.61,20.8,2.56-15.55c9.44-.1,19-.72,28.45.41,19.72,2.36,19.48,24.79,34.31,9.97,10.61,18.81,12.72,15.73,20.92,41.69-15.06,3.1-5.2-14.99-20.9-10.4,5.26,11.64-4.57,25.07-5.26,31.24-9.03-8.37-2.94-39.01-5.22-41.72-1.08-1.28-11.71,1.13-15.7.03-1.62-.44-3.58.4-5.23,0-4.02-.98-6.8-4.12-15.69-5.21-1.71-.21-3.5.16-5.23,0-10.08-.95-12.15.17-15.69,0-3.47-.16-6.98.04-10.46,0-11.51-.13-20.46-2.89-31.36-5.22-.86,3.23.88,8.11-.03,10.43-3.82,9.81-3.98,9.8-5.23,20.84-.41,3.66.04,4.51,0,5.21-.22,3.45.3,6.99,0,10.42l-26.1,10.43-5.28-15.64c.38-1.68-.44-3.63,0-5.21,8.93-2.94,14.05-9.92,5.23-15.63.6-1.52-.63-3.77,0-5.21,13.99,2.43,10.68-3.3,10.46-15.63,3.13-4.97,6.8-11.37,10.46-15.63,8.95-.3,24.33-5.89,31.39-10.42Z"/><path class="cls-2" d="M153.35,533.56c.69-6.17,10.52-19.6,5.26-31.24,15.7-4.6,5.84,13.49,20.9,10.4,7.49,23.68,14.25,46.76,15.69,72.95-17.41-4.73-9.38,21.08-10.46,36.48l-26.16,5.21c-3.58-30.79-8.74-62.41-5.23-93.8Z"/><path class="cls-10" d="M106.27,59.36c-6.55,15.02-13.91,20.39-14.51,21.68-1.29,2.79,5.65,42.09-1.17,51.24,25.6-.87,13.07-35.63,15.73-52.05l15.64,10.4c-.92,32.54,8.24,78.15-10.46,104.22-1.66-3.05-3.5-8.67-5.23-10.42l5.18-2.63c4.13-18.01-12.91-19.93-10.41-2.58-2.9-1.93-11.78-1.63-15.69-5.21,6.21-12.32,11.74-30-5.23-26.05,6.9-11.66,11.52-36.39-5.23-31.27.2-12.14-.18-24.33,0-36.48,21.9.07,21-3.7,15.69-20.84h15.69Z"/><path class="cls-12" d="M101.04,179.21c2.3,1.52,3.44,3.41,5.23,5.21,1.73,1.75,3.57,7.38,5.23,10.42,18.75,34.38,4.23,30.71,4.78,59.95.4,21.48,0,45.85.45,65.12-13.99-2.43-10.68,3.3-10.46,15.63h-5.23c-2.07-13.38-6.38-25.93-20.92-20.84,0-5.21.03-10.42,0-15.63,11.43-3.35,9.44-11.54,10.46-20.84.71-6.41.14-14.19,0-20.84l15.67,15.61c-3.75-20.14,5.11-57.99.37-75.12-.4-1.43-21.91-11.56-26.5-13.44-.48-3.31.26-7.02,0-10.42h5.23c3.92,3.58,12.79,3.28,15.69,5.21ZM93.19,299.07v5.21c3.4-1.74,3.4-3.47,0-5.21Z"/><path class="cls-10" d="M80.11,314.7c14.55-5.08,18.85,7.47,20.92,20.84,1.91,12.29-.78,28.43,0,41.69.67,11.35-2.53,33.61,0,41.69-2.28,7.74-11.37,3.78-15.69,5.21-17.99,5.96-9.06,8.94-18.03,15.93-4.81,3.75-12.55,4.13-13.36,4.92,16.47-40.67,26.09-86.14,26.16-130.27Z"/><path class="cls-5" d="M137.65,439.76c7.66,11.58,13.21,17.59,20.92,31.27-14.83,14.82-14.59-7.61-34.31-9.97-9.45-1.13-19.02-.52-28.45-.41l-2.56,15.55-23.61-20.8c10.04-6.45,27.71-20.85,15.69-31.27,4.32-1.43,13.42,2.53,15.69-5.21,1.19,3.81,27.68,33.41,36.62,20.84Z"/><path class="cls-12" d="M127.19,22.88c3.54,21.52-4.6,45.47-5.23,67.74l-15.64-10.4c-2.66,16.42,9.87,51.17-15.73,52.05,6.82-9.14-.12-48.45,1.17-51.24.59-1.29,7.96-6.66,14.51-21.68,4.59-10.53,15.96-18.5,10.46-36.48,2.57.88,7.22-.59,10.46,0Z"/><path class="cls-12" d="M121.96,674.26c5.04-.55,10.91.82,15.69,0,2.47-.42,4.6-2.73,5.23-5.21,3.02-.61,7.03.27,10.46,0,3.45-.27,7,.18,10.46,0h5.23c-.89.93,3.3,8.27-3.62,10.41-30.22,9.34-124.02,10.18-148.08-10.41l104.62,5.21Z"/><path class="cls-7" d="M90.57,257.38c.14,6.65.71,14.44,0,20.84h-15.69c-.77-29.41.15-59.16,0-88.59h5.23c3.71,23.68,9.92,42.65,10.46,67.74Z"/><path class="cls-7" d="M111.5,387.65c.92,8.21,4.23,26.34,10.46,31.27,17.48,13.81,6.72,7.28,15.69,20.84-8.94,12.56-35.43-17.03-36.62-20.84-2.53-8.08.67-30.34,0-41.69l10.46,10.42Z"/><path class="cls-4" d="M184.74,622.15c-.88,12.48-.24,24.61-5.23,36.48-3.95,4.38-7.13,6.96-10.46,10.42h-5.23c2.62-6.34-4.86-13.27-5.23-15.63-1.25-7.95.96-17.77,0-26.05l26.16-5.21Z"/><path class="cls-12" d="M121.96,418.92c-6.24-4.92-9.55-23.05-10.46-31.27-1.83-16.44,1.28-35.27,0-52.11,1.29-.37,3.2-4.17,5.23-5.21,1.06,26.81,14.22,61.42,5.23,88.59Z"/><path class="cls-7" d="M195.2,585.67c.86,15.66,3,62.22-6.66,71.74-2.36,2.33-8.42.53-9.04,1.22,4.99-11.86,4.35-24,5.23-36.48,1.09-15.4-6.94-41.2,10.46-36.48Z"/><path class="cls-7" d="M85.34,424.13c12.02,10.41-5.66,24.81-15.69,31.27-7.06,4.54-22.44,10.12-31.39,10.42,5.17-6.01,10.43-15.7,15.69-20.84.81-.79,8.55-1.17,13.36-4.92,8.97-6.99.04-9.97,18.03-15.93Z"/><path class="cls-3" d="M127.19,22.88c-3.24-.59-7.89.88-10.46,0-12.01-4.11-17.07-16.69-36.62-5.21h-5.23c3.88-25.62,47.68-22.95,52.31,5.21Z"/><path class="cls-5" d="M90.57,59.36c5.3,17.14,6.2,20.92-15.69,20.84.28-19.13-2.66-44.98,0-62.53h5.23c-2.74,16.1,6.42,28.62,10.46,41.69Z"/><path class="cls-9" d="M80.11,174c.26,3.41-.48,7.12,0,10.42.25,1.7-.27,3.52,0,5.21h-5.23c-.05-9.11.02-22.55,0-31.27,6.98,2.59,4.81,9.95,5.23,15.63Z"/><path class="cls-5" d="M74.88,116.68c16.75-5.12,12.13,19.61,5.23,31.27h-5.23c.07-10.41-.17-20.85,0-31.27Z"/><path class="cls-11" d="M90.57,278.22c-1.03,9.31.97,17.49-10.46,20.84-.02-3.03-5-12.12-5.23-20.84h15.69Z"/><path class="cls-11" d="M80.11,147.95c16.97-3.94,11.45,13.74,5.23,26.05h-5.23c-.43-5.68,1.74-13.04-5.23-15.63,0-1.74,0-3.47,0-5.21,1.82-1.56,4.01-3.14,5.23-5.21Z"/><path class="cls-11" d="M116.73,319.91c.08,3.47-.14,6.96,0,10.42-2.03,1.04-3.94,4.84-5.23,5.21-1.59.46-3.57-.34-5.23,0-.22-12.33-3.52-18.07,10.46-15.63Z"/><path class="cls-8" d="M27.8,481.45c.22,12.33,3.52,18.07-10.46,15.63,5.14-11.77,7.19-10.43,10.46-15.63Z"/><path class="cls-8" d="M12.11,517.93c1.99-7.21,2.57-8.91,5.23-15.63,8.82,5.71,3.7,12.7-5.23,15.63Z"/><path class="cls-9" d="M74.88,153.16c0-1.74-.01-3.47,0-5.21h5.23c-1.23,2.07-3.41,3.65-5.23,5.21Z"/><path class="cls-6" d="M127.19,491.87l5.23,15.63c.01,32.92,4.19,62.05,5.23,93.8-12.51,10.77-3.98,25.33,0,36.48,3.25,9.12,4.27,18.42,15.69,15.63v15.63c-3.43.27-7.45-.61-10.46,0-2.48.5-4.51,2.76-5.23,5.21-4.78.82-10.66-.55-15.69,0-2.54-8.56-4.65-17.07-5.23-26.05-.71-11.06,1.88-60.07,0-62.57-.64-.86-7.52.5-10.45.04.42-10.38-.55-20.9,0-31.27.04-.71,4.97-5.92,5.44-12.6,1.3-18.21-1.27-36.92-.21-55.14,8.89,1.09,11.67,4.24,15.69,5.21Z"/><path class="cls-5" d="M90.57,549.19v88.59c-.64-.67-7.09,1.5-9.23-.97-3.03-3.5-1.6-58.31-1.23-69.61.33-10.02-5.33-20.91,10.46-18Z"/><path class="cls-1" d="M106.27,585.67c2.93.46,9.81-.9,10.45-.04,1.89,2.5-.7,51.52,0,62.57-3.49.04-6.98-.06-10.46,0,.6-20.75-.85-41.8,0-62.53Z"/><path class="cls-12" d="M59.19,559.62c6.64,15.49,9.02,60.66,5.46,74.9-1.49,5.98-10.18,2.6-10.7,3.27,6.98-25.91,4.81-51.8,5.23-78.16Z"/><path class="cls-12" d="M43.49,549.19c-1.03,17.72-4.83,34.4-5.23,52.11-7.9-11.18-12.06-58.23,5.23-52.11Z"/><path class="cls-5" d="M90.57,486.66v20.84c-15.7,3.25-9.81-7.73-10.46-20.84,3.48.04,6.99-.16,10.46,0Z"/><path class="cls-12" d="M59.19,538.77c-.03-1.74.05-3.48,0-5.21v5.21Z"/><path class="cls-1" d="M98.42,653.41c3.4,1.74,3.4,3.47,0,5.21v-5.21Z"/><path class="cls-1" d="M106.27,554.41v-67.74c1.73.16,3.52-.21,5.23,0-1.06,18.22,1.51,36.93.21,55.14-.48,6.69-5.41,11.9-5.44,12.6Z"/><path class="cls-11" d="M132.42,507.51l-5.23-15.63c1.65.4,3.62-.44,5.23,0,0,5.21,0,10.42,0,15.63Z"/><path class="cls-8" d="M43.49,517.93c.04-.7-.41-1.55,0-5.21v5.21Z"/><path class="cls-11" d="M101.04,179.21c-2.5-17.35,14.54-15.43,10.41,2.58l-5.18,2.63c-1.79-1.81-2.93-3.69-5.23-5.21Z"/><path class="cls-11" d="M80.11,184.43c4.59,1.88,26.11,12.01,26.5,13.44,4.74,17.13-4.12,54.98-.37,75.12l-15.67-15.61c-.54-25.09-6.75-44.06-10.46-67.74-.27-1.69.25-3.51,0-5.21Z"/><path class="cls-8" d="M111.5,335.54c1.28,16.84-1.83,35.67,0,52.11l-10.46-10.42c-.78-13.26,1.91-29.4,0-41.69h5.23c1.67-.34,3.64.46,5.23,0Z"/><path class="cls-10" d="M93.19,299.07c3.4,1.74,3.4,3.47,0,5.21v-5.21Z"/><path class="cls-2" d="M163.81,669.05c-3.47.18-7.01-.27-10.46,0v-15.63h5.23c.37,2.37,7.85,9.29,5.23,15.63Z"/><path class="cls-2" d="M137.65,674.26c.72-2.45,2.75-4.71,5.23-5.21-.63,2.48-2.76,4.79-5.23,5.21Z"/><path class="cls-11" d="M137.65,637.78c-3.98-11.15-12.51-25.71,0-36.48.4,12.12-.28,24.35,0,36.48Z"/></g></svg>