<?xml version="1.0" encoding="UTF-8"?><svg id="Capa_2" xmlns="http://www.w3.org/2000/svg" viewBox="0 0 659.37 285.25"><defs><style>.cls-1{fill:#222122;}.cls-2{fill:#474043;}.cls-3{fill:#221f21;}.cls-4{fill:#312c2f;}.cls-5{fill:#1a1618;}.cls-6{fill:#121112;}.cls-7{fill:#332e31;}.cls-8{fill:#201f20;}.cls-9{fill:#151214;}.cls-10{fill:#544d50;}.cls-11{fill:#060405;}.cls-12{fill:#232123;}.cls-13{fill:#464244;}.cls-14{fill:#0f0e0f;}.cls-15{fill:#2e2c2d;}.cls-16{fill:#0d0c0d;}.cls-17{fill:#0c0b0c;}.cls-18{fill:#0c0a0b;}.cls-19{fill:#3b3337;}.cls-20{fill:#484044;}.cls-21{fill:#1b181a;}</style></defs><g id="Layer_1"><path class="cls-5" d="M286.03,117.57c1.78.1,3.59-.08,5.37,0,.85.04,8.91,4.09,16.12,5.35,11.92,2.09,18.18,1.28,32.24,5.35,3.87,1.12,7.67,9.28,21.49,10.7,4.89.5,11.61-3.03,16.12-5.35.24,21.93-15.11,15.3-16.12,37.47-8.12,1.77-9.27,2.55-16.12,5.35-3.39,1.39-8.93-3.05-10.78,2.73-2.87,8.95,2.67,8.97,10.78,7.97.09,28.24-4.58,88.17-36.08,95.18-50.77,11.3-113.02-10.82-135.86-57.71,4.14.93,14.24-1.35,16.12,0,6.3,4.52-.95,2.14,16.12,10.7,1.58.79-4.76,12.92,26.87,16.06,9.67,24.83,14.04,9.06,33.46,12.01,6.09.93,11.68,9.89,22.92,10,24.02.24,25.49-13.07,29.59-27.36,2.35-8.17,5.24-8.51,5.37-21.41.16-15.2-2.87-23.73-5.37-37.47-1.87-10.28-.25-15.06-5.37-26.76-11.17-25.53-20.48-12.82-47.31-19.78-9.48-2.46-46.6-9.61-44.04-23.04,27.39,2.92,42.57-1.2,64.48,0Z"/><path class="cls-10" d="M318.27,187.16c2.5,13.74,5.53,22.27,5.37,37.47-40.89,8.25-78.12-4.01-118.21-5.35-3.41-.11-7.5-.45-10.75,0,1.55-22.2-8.71-23.93-26.87-16.06-.51-1.61-4.96-3.61-5.37-5.35,25-66.8,103.66-5.26,155.82-10.7Z"/><path class="cls-21" d="M479.47,112.22c-2.19,18.57,5.88,7.5,15.01,6.96,23.39-1.39,46.2-4.6,69.3-6.69,11.78-1.07,12.36,1.02,17.78,10.44-14.5,6.67-23.23,19.51-48.36,26.76-9.47-9.06-38.02-10.77-32.24,5.35-3.57-.17-7.19.22-10.75,0-.47-.03.75-4.35-7.96-5.19-14.43-1.39-40.44-5.44-35.03,10.55-12.22.34-25.91-1.28-37.61,0-21.78-5.86-15.89-18.82-21.49-37.47,3.56.13,7.22-.3,10.75,0,4.68.4,18.77,16.43,16.12-5.35,30.1.52,36.43-2.1,64.48-5.35Z"/><path class="cls-13" d="M17.37,90.81c22.09,7.29,13.84,5.78,27.41,12.61,18.34,9.23,36.93,21.13,58.56,19.5-2.03,23.08-3.77,46.46-5.37,69.58-13.12,3.35-14.31-.76-22.48-5.98-6.07-3.88-49.5-45.41-51.24-49.05-3.68-7.71-.17-14.68-1.51-19.91-1.19-4.64-5.27-9.9-5.37-10.7-.44-3.46.25-7.19,0-10.7-.13-1.77.07-3.57,0-5.35Z"/><path class="cls-16" d="M264.54,5.17c.59,3.33-.88,8,0,10.7-8.4,6-18.3,3.82-26.87,5.35,3-16.21-8.22-10.3-18.56-10.71-25.96-1.02-52.2.72-78.13.03-.08,27.93,15.07,16.83,32.21,26.73-25.24,4.8-38.75,4.46-64.48,5.35,7.06-22.47-27.17-21.68-40.33-21.64-21.1.07-12.26,5.07-13.4,21.64-10.26-.13-14.96-.68-26.87-5.35-6.57-2.58-9.78-10.29-10.75-10.7-3.14-15.89,7.72-9.73,17.76-11.47C103.45,3.25,196.34-6.31,264.54,5.17Z"/><path class="cls-9" d="M140.96,96.16c24.66,6,22.93,13.48,26.87,16.06-15.63,5.68-11.12,28.3-10.75,42.82.32,12.66,2.99,25.13,5.37,37.47l-26.8-37.43c-.71,26.85-24.16,30.95-37.68,42.78v-5.35c1.6-23.12,3.35-46.5,5.37-69.58.28-3.19-.76-9.85,0-10.7,3.07-3.42,12.43,8.54,10.75-21.41,8.64,2.77,18.24,3.25,26.87,5.35Z"/><path class="cls-2" d="M312.9,160.39c5.12,11.71,3.5,16.48,5.37,26.76-52.16,5.44-130.82-56.09-155.82,10.7-.4-1.68.33-3.63,0-5.35-2.39-12.34-5.05-24.81-5.37-37.47,54.73-27.81,100.82,9.21,155.82,5.35Z"/><path class="cls-8" d="M264.54,5.17c18.61,3.13,125.78,39.29,128.53,51.4,1.91,8.4-11.39,28.1-22.46,22.77-14.43-9.92-103.79-56.44-106.07-63.47-.88-2.71.59-7.37,0-10.7Z"/><path class="cls-15" d="M54.98,42.64c3.57.04,7.18-.16,10.75,0v5.35c-.45,1.79.69,4.29,0,5.35-2.38,3.68-17.68,7.01-10.73,15.98,1.22,1.58,18.88,7.08,32.22,21.49l-5.36,16.03c5.21.62,11.06-.74,16.11.03,2.53.39,4.8,2.77,5.37,5.35-.76.85.28,7.51,0,10.7-21.64,1.62-40.22-10.28-58.56-19.5-13.57-6.83-5.32-5.32-27.41-12.61-.22-5.12-.53-11.03,0-16.06,17.91,1.52,17.53,1.25,16.12-16.06-.56-6.86-4.34-14.38-5.37-21.41,11.9,4.67,16.61,5.23,26.87,5.35ZM49.58,74.78c-5.86-5.84-16.55,4.81-10.69,10.65,5.86,5.84,16.55-4.81,10.69-10.65Z"/><path class="cls-3" d="M22.74,117.57c1.34,5.23-2.17,12.2,1.51,19.91,1.74,3.64,45.16,45.17,51.24,49.05,8.17,5.22,9.36,9.32,22.48,5.98v5.35c-1.89,1.66,1.53,15.17-13.43,16.4-41.54,3.41-66.32-64.37-72.54-96.68h10.75Z"/><path class="cls-18" d="M286.03,117.57c-21.91-1.2-37.08,2.92-64.48,0-10.45-1.11-51.48-3.87-53.73-5.35-3.93-2.58-2.2-10.06-26.87-16.06,14.85-6.37,45.03-1.6,61.11.68,26.11,3.71,60.63,8.33,83.97,20.73Z"/><path class="cls-14" d="M624.54,106.87c-1.9,5.06-5.38,9.18-10.75,10.7-8.62,2.45-21.77.53-32.24,5.35-5.42-9.42-6-11.5-17.78-10.44-23.1,2.09-45.91,5.3-69.3,6.69-9.13.54-17.2,11.61-15.01-6.96,41.59-4.82,108.55-18.15,145.08-5.35Z"/><path class="cls-1" d="M173.19,37.29c-17.14-9.91-32.3,1.2-32.21-26.73,25.93.69,52.16-1.05,78.13-.03,10.34.41,21.56-5.51,18.56,10.71-22.21,3.98-42.31,11.84-64.48,16.06Z"/><path class="cls-21" d="M65.73,53.35c20.47,14.88,46.82,10.13,48.36,37.47,1.68,29.95-7.68,17.99-10.75,21.41-.58-2.58-2.84-4.97-5.37-5.35,1.37-10.68-6.6-11.58-10.75-16.06-13.34-14.41-31-19.91-32.22-21.49-6.95-8.97,8.35-12.29,10.73-15.98Z"/><path class="cls-12" d="M624.54,106.87c21.11,7.4,45.66,22.86,29.71,48.34-13.03,20.81-33.3-30.04-40.45-37.64,5.36-1.53,8.84-5.65,10.75-10.7Z"/><path class="cls-17" d="M388.12,122.93c5.6,18.65-.28,31.61,21.49,37.47-10.92,1.19-35.17,7.83-48.36,10.7,1.01-22.16,16.36-15.54,16.12-37.47-.04-3.57.03-7.14,0-10.7,3.58.12,7.17-.13,10.75,0Z"/><path class="cls-6" d="M28.12,37.29c1.03,7.03,4.81,14.55,5.37,21.41-21.95-1.93-14.46.4-16.12,16.06-.53,5.03-.22,10.94,0,16.06C-5.39,83.3.46,76.73,1.25,53.35l10.69,5.34c1.37-14.56,11.15-12.98-5.19-18.48l5.25-13.62c1.9.13,4.23-.49,5.37,0,.97.42,4.18,8.13,10.75,10.7Z"/><path class="cls-6" d="M54.98,42.64c1.14-16.57-7.7-21.57,13.4-21.64,13.16-.04,47.39-.83,40.33,21.64-8.9.31-17.96.15-26.87,0-4.77-.08-14,.09-16.12,0-3.57-.16-7.17.04-10.75,0Z"/><path class="cls-20" d="M194.69,219.27c-2.44.34-4.65,2.93-5.37,5.35-1.88-1.35-11.98.93-16.12,0-2.63-5.39-3.3-14.88-5.37-21.41,18.16-7.87,28.41-6.14,26.87,16.06Z"/><path class="cls-17" d="M490.21,155.04c-11.6,9.39-28.59,4.95-42.99,5.35-5.41-15.99,20.6-11.94,35.03-10.55,8.7.84,7.48,5.16,7.96,5.19Z"/><path class="cls-17" d="M533.2,149.69c-13.24,3.82-15.28,6.17-32.24,5.35-5.78-16.13,22.76-14.41,32.24-5.35Z"/><path class="cls-16" d="M12,26.58l-5.25,13.62c16.34,5.5,6.56,3.92,5.19,18.48l-10.69-5.34c.58-17.08-6.64-27.97,10.75-26.76Z"/><path class="cls-17" d="M366.63,122.93l-5.37,16.06c-13.82-1.42-17.63-9.59-21.49-10.7,4.16-5.05,20.02-5.08,26.87-5.35Z"/><path class="cls-18" d="M377.38,122.93c.03,3.57-.04,7.14,0,10.7-4.51,2.32-11.23,5.86-16.12,5.35l5.37-16.06c3.55-.14,7.2-.12,10.75,0Z"/><path class="cls-17" d="M414.99,117.57c2.65,21.78-11.44,5.75-16.12,5.35,2.64-6.74,10.19-5.46,16.12-5.35Z"/><path class="cls-16" d="M81.85,42.64l-16.12,5.35v-5.35c2.12.09,11.35-.08,16.12,0Z"/><path class="cls-18" d="M307.52,122.93c-7.21-1.26-15.27-5.32-16.12-5.35,3.01-11.63,13.79-3.03,16.12,5.35Z"/><path class="cls-15" d="M22.74,117.57h-10.75c-.61-3.18.38-7.22,0-10.7h5.37c.1.81,4.18,6.07,5.37,10.7Z"/><path class="cls-6" d="M17.37,96.16c.25,3.51-.44,7.24,0,10.7h-5.37c-.28-2.52-15.91-12.81,5.37-10.7Z"/><path class="cls-11" d="M345.14,176.45c0,3.57-.01,7.14,0,10.7-8.11,1-13.65.98-10.78-7.97,1.85-5.78,7.39-1.34,10.78-2.73Z"/><path class="cls-7" d="M221.55,117.57c-2.57,13.44,34.55,20.58,44.04,23.04,26.83,6.96,36.13-5.76,47.31,19.78-55,3.85-101.09-33.16-155.82-5.35-.37-14.52-4.89-37.14,10.75-42.82,2.25,1.48,43.28,4.24,53.73,5.35Z"/><path class="cls-20" d="M323.64,224.62c-.14,12.9-3.03,13.24-5.37,21.41-27.33,5.21-58.3,8.09-85.97,5.35-10.48-26.92-21.34-11.66-26.87-16.06-1-.8.69-12.14,0-16.06,40.09,1.35,77.32,13.6,118.21,5.35Z"/><path class="cls-19" d="M205.43,219.27c.69,3.91-1,15.26,0,16.06,5.52,4.4,16.39-10.86,26.87,16.06,27.67,2.74,58.64-.15,85.97-5.35-4.11,14.29-5.58,27.6-29.59,27.36-11.24-.11-16.82-9.08-22.92-10-19.42-2.95-23.8,12.82-33.46-12.01-31.63-3.13-25.29-15.27-26.87-16.06-17.07-8.56-9.82-6.18-16.12-10.7.72-2.42,2.94-5.02,5.37-5.35,3.25-.45,7.34-.11,10.75,0Z"/><path class="cls-4" d="M33.49,58.7c1.41,17.31,1.79,17.57-16.12,16.06,1.66-15.66-5.83-17.99,16.12-16.06Z"/><path class="cls-4" d="M97.97,106.87c-5.05-.77-10.89.59-16.11-.03l5.36-16.03c4.14,4.47,12.12,5.38,10.75,16.06Z"/><path class="cls-4" d="M49.58,74.78c5.86,5.84-4.83,16.49-10.69,10.65-5.86-5.84,4.83-16.49,10.69-10.65Z"/></g></svg>