<?xml version="1.0" encoding="UTF-8"?><svg id="Capa_2" xmlns="http://www.w3.org/2000/svg" viewBox="0 0 470.86 581.82"><defs><style>.cls-1{fill:#b1adad;}.cls-2{fill:#a19ea1;}.cls-3{fill:#8a8788;}.cls-4{fill:#b5b1b0;}.cls-5{fill:#b7b3b2;}.cls-6{fill:#aeaaa9;}.cls-7{fill:#c2bdbd;}.cls-8{fill:#bab6b5;}.cls-9{fill:#a5a1a1;}.cls-10{fill:#4d4848;}.cls-11{fill:#807c7b;}.cls-12{fill:#c7c3c2;}.cls-13{fill:#6c6867;}.cls-14{fill:#989393;}.cls-15{fill:#aba7a6;}</style></defs><g id="Layer_1"><path class="cls-2" d="M185.61,14.3c5.35,26.12,59.33,34.26,73.37,21.5,4.65-4.23,5.07-6.77,4.32-12.9,21.54-1.56,16.94-5.31,25.9-8.6,8.37-3.07,13.47,3.49,17.26,4.3l-12.93,25.77,30.16-4.28.05,17.19c15.35-.76,25.01-11.52,34.5-21.48,8.76,3.24,22.9,2.25,32.08,9.08,6.44,4.79,6.19,12.01,6.76,12.42v30.09c-9.51-13.91-11.93-7.7-12.95,8.6-4.32,0-8.63,0-12.95,0,.13-1.22-5.02-5.62-3.53-7.81.99-1.45,7.19-2.3,9.53-5.33,15.88-20.58-2.08-15.94-1.92-19.42.26-5.5,12.75-16.71-8.14-8.03-16.01,6.65-16.09,14.1-39.1,14.79-30.55.92-39.96-14.43-58.57-17.1-12.55-1.8-27.4,2.94-40.69,4.2-15.8,1.5-5.8,4.24-8.65,19.25-4.67,24.6-17.6-1.1-27.94-1.88-8.07-.61-15.54,6.22-19.52,12.72-3.15-5.49-17.24-13.28-21.18-1.74-5.48,16.04,7.69,12.55,8.59,20.81,2.27,20.83-.6,32.17-23.8,28.08-1.26-.22-22.92-7.86-24.04-8.47-12.37-6.7-8.38-9.84-12.95-17.2,7.6-9.56,3.86-16.82-8.63-17.2-14.81-50.18,14.73-25.08,38.84-42.99,1.64-1.22,3.01-2.75,4.32-4.3,10.01,1.78,55.52,9.47,60.41,4.24,11-11.78-35.08-12.51-25.88-30.04,3.59-1.43,10.84-10.04,17.26-12.9.35,2.76-.52,6.04,0,8.6ZM200.71,48.7v4.3c2.8-1.43,2.8-2.87,0-4.3ZM118.95,78.85c-23.5,6.3,19.28,33.96,23.47,14.92,1.87-8.47-16.91-16.68-23.47-14.92Z"/><path class="cls-5" d="M306.45,289.45c7.16,53.92,19.13,103.98,29.84,157.27,1.47,7.31-1.27,16.07,9,18.99.21,15.76,12.44,40.64,16.72,58.8,1.83,7.76-4.17,16.84,9.17,14.29,0,2.87.02,5.73,0,8.6-10.68,3.79-38.13,6.16-34.53,17.2-15.91-.33-29.24-3.74-43.16-4.3l-4.32-51.6c5.64.41,11.67-.66,17.27.01,6.87.83,16.35,7.54,25.87,4.28,3.04-21.42-18.47-35.65-21.56-55.87-2.85-18.68,2.1-42.66-.07-62.27-3.34-30.19-12.08-59.82-13.01-90.41-.25-8.11-3.71-17.51,8.77-14.99Z"/><path class="cls-11" d="M151.08,319.54c.79,6.16.31,14.99,0,21.5-13.9-2.71-7.1,6.96-8.63,17.2-1.12,7.47-2.6,14.19-4.32,21.5-1.73,7.39-2.77,15.46-4.32,21.5-13.64,53.13-15.39,45.62-14.43,101.66.28,16.01-6.29,38.2-3.13,55.06,1.09,5.79,21.79-5.27,8.92,19.54-10.04-.28-20.2.23-30.24.02.77-24.26-.98-48.87.02-73.11l8.65,6.44c-2.42-16.58,1.71-32.51,3.07-48.57.69-8.23,6.28-15.81-7.4-13.75,1.32-28.11,4.47-56.72,4.32-85.98,3.22.69,11.83-1,12.95,0,1.47,1.32-3.42,10.66,4.27,8.57,2.4-10.47,8.46-29.56,13-38.67,1.25-2.5,9.57-11.32,12.95-17.2.76,1.69,4.22,3.52,4.32,4.3Z"/><path class="cls-3" d="M168.34,18.6c-9.2,17.53,36.88,18.26,25.88,30.04-4.88,5.23-50.4-2.47-60.41-4.24-.79-.14-10.03-11.97-8.59,2.11l4.27,2.19c-24.11,17.91-53.65-7.19-38.84,42.99,2.95,9.99,3.95,9.66,8.63,17.2,4.57,7.35.58,10.5,12.95,17.2v4.3l-4.32,25.79c-1.9-.12-8.6,5.62-12.95,4.3-1.51-13.07-3.46-6.95-12.95-8.6-7.68-1.33-19.05-.23-21.62-1.8-1.86-1.14-9.23-14.74-12.91-19.7-3.65-4.92-10.36-9.82-12.95-17.2,6.3-16.07,7.59-22.83,17.26-38.69l12.93,15.07c-1.02,4.91-11.04.57-12.98,2.14-1.59,1.3,1.32,35.86,8.68,38.68,2.73,1.04,9.06-.66,12.95,0,.72,1.66,3.46,2.86,4.32,4.3,1.72,2.9,6.93,12.15,8.59,8.58,2.19-14.84-6.96-26.07-12.9-38.67,18.43.27-2.06-49.02,8.63-60.19,29.05-15.19,59.08-14.92,86.32-25.79Z"/><path class="cls-8" d="M410.03,186.27c-.58,2.4-3.04,8.62-4.32,12.9-.87,2.92-6.32,7.13-4.32,12.9-.61-.78-12.03,2.07-13-10.83-.11-1.54,7.95-1.78,8.65-4.9,4.14-18.29-9.57-31.23,17.29-40.17-2.22,9.1-2.29,21.74-4.32,30.09Z"/><path class="cls-8" d="M405.71,104.59c21.13-4.32,20.93,7.63,21.6,25.8l12.92-4.31c10.35,27.6,20.16,52.45,25.9,81.68-18.64-4.74-9.6,9.59-15.73,13.09-4.29,2.45-17,2.95-23.12,4.11-44.27,8.39-17.65-2.32-25.9-12.9,6.31-.84,3.2-9.67,4.32-12.9,1.47-4.25,2.84-8.76,4.32-12.9,2.9-8.15,11.52-20.07,12.86-32.38-3-2.24-8.35,2.68-8.55,2.28-.72-1.43,1.42-6.62-.37-9.31-11.39-17.19-5.22-10.11-8.27-29.38-.64-4.04.68-8.9,0-12.9Z"/><path class="cls-14" d="M133.82,401.23c10.29,10.21.93,32.02,4.17,44.55,1.26,4.88,7.93,2.06,8.78,2.74.7.56-.61,3.07,0,4.3.52,1.04-.42,2.87,0,4.3-6.68,6.2-12.75,18.52-14.57,27.08-2.05,9.64,1.57,10.26,1.62,11.61.16,4.27-.37,8.66,0,12.9,1.04,12.09,4.26,31.77,8.63,42.99.89,2.28-2.6,8.2,2.62,8.95,12.89-3.96,19.96-2.31,31.91-.35,8.17,1.34,16.5-.01,21.58,8.6-12.18.1-24.54-.52-36.74,0-5.25.22-16.03-3.25-15.02,4.25,20.09.17,40.31-.08,60.4.04v4.3c-27.23-.84-54.76.77-82,0,12.87-24.81-7.84-13.74-8.92-19.54-3.16-16.86,3.41-39.06,3.13-55.06-.97-56.04.79-48.53,14.43-101.66Z"/><path class="cls-1" d="M353.92,362.54c2.38,5.4-4.32,11.3,12.95,8.6-.24,10.76-4.4,25.11-4.32,30.09-14.99,5.37-17.48-13.29-17.26-25.79,0-.47,8.83-2.56,0-4.3-3.8-.75-8.83.51-12.95,0-7.98-46.82-12.06-95.33-21.58-141.87-2.4-11.72-5.37-33.05-8.63-42.99,11.59-.21,16.33,12.69,19.36,21.56,15.65,45.72,12.52,109.65,32.43,154.71Z"/><path class="cls-7" d="M397.08,87.39c3.33,4.87,7.66,11.48,8.63,17.2.68,4-.64,8.86,0,12.9-15.95,30.69-21.51,76.11-24.79,111.06-.78,8.29-2.42,14.77,3.21,22.21-.91.36-4.47,8.19-8.63,8.6-.13-1.47-6.59-10.49-8.63-12.9.95-13.69,13.77-37.29-8.63-38.69-.1-2.22-7.69-7.92-3.82-18.6,3.75-10.35,27.03-9.98,12.45-41.59,14.74,1,17.34-3.12,17.26-17.2-.06-10.96-6.21-8.81-8.63-12.9-.47-.79.49-3.79-1.58-7.06-1.01-1.6-6.83-.97-7.39-4.46-.8-4.94,4.52-8.68,4.66-9.98,4.32,0,8.63,0,12.95,0-.84,13.56-1.88,14.37,12.93,12.88,1.52-15.78.49-12.89-12.93-12.88,1.02-16.3,3.43-22.51,12.95-8.6Z"/><path class="cls-7" d="M345.29,371.13v4.3c-.21,12.5,2.27,31.17,17.26,25.79.75,45.03,8.64,89.86,8.63,137.57-13.34,2.55-7.34-6.53-9.17-14.29-4.28-18.15-16.51-43.04-16.72-58.8-.49-37.06-6.63-57.54-12.95-94.58,4.12.51,9.15-.75,12.95,0Z"/><path class="cls-9" d="M345.29,216.36c3.09,17.43,6.17,33.93,8.63,51.59,1.74,12.47.5,26.96,6.47,38.74,3.62.02,2.41-32.89,2.16-38.74-.31-7.13.47-14.39,0-21.5h4.32c2.04,2.41,8.51,11.43,8.63,12.9.95,11.03-7.97,39.94-8.59,53.79-.85,19.28.39,38.74-.04,57.99-17.27,2.7-10.56-3.2-12.95-8.6,3.1-41.92-9.19-82.34-16.74-123.09-1.69-9.14.97-19.6-.52-27.38l8.63,4.3Z"/><path class="cls-13" d="M155.4,224.96c-3.49,11.14-7.55,41.05-8.63,42.99-16.41,29.39-8.46,35.32-17.26,64.49-.76,2.51-17.75,17.85-12.95,30.09-1.12-1-9.73.69-12.95,0-.08-14.29.34-28.71,0-42.99,11.13,2.96,7.38-7.13,8.63-8.6.36-.42,5.87,1.55,8.56-3.08,6.46-11.11,8.76-43.96,13.02-57.11,4.24-13.1,8.55-16.48,12.95-25.79h8.63Z"/><path class="cls-2" d="M401.4,212.07c-2-5.77,3.44-9.98,4.32-12.9-1.11,3.23,2,12.06-4.32,12.9Z"/><path class="cls-2" d="M410.03,186.27c2.02-8.35,2.1-21,4.32-30.09.2.39,5.54-4.52,8.55-2.28-1.34,12.31-9.96,24.23-12.86,32.38Z"/><path class="cls-2" d="M405.71,117.48c3.05,19.27-3.12,12.19,8.27,29.38,1.78,2.69-.36,7.88.37,9.31-26.87,8.94-13.16,21.88-17.29,40.17-.7,3.11-8.77,3.36-8.65,4.9.97,12.9,12.39,10.04,13,10.83,8.24,10.58-18.37,21.29,25.9,12.9,3.77,16.3-25.1,4.25-21.58,21.5-5.56,1.09-17.86,2.81-21.58,4.3-5.63-7.45-3.99-13.92-3.21-22.21,3.28-34.95,8.84-80.37,24.79-111.06ZM403.56,151.88v4.3c2.8-1.43,2.8-2.87,0-4.3Z"/><path class="cls-2" d="M405.71,199.17c1.28-4.28,3.73-10.49,4.32-12.9-1.47,4.13-2.85,8.65-4.32,12.9Z"/><path class="cls-11" d="M47.5,130.38c-3.05,15.74,13.89,35.51,4.32,47.29l-12.9-25.77c-4.16,11.6,3.14,22.71,4.27,30.07,1.66,10.79,1.12,23.24,4.32,34.39-2.76-2.72-6.44-5.51-8.63-8.6-1.68-2.37,3.45-10.48-4.28-8.57-1.99,3.36,4.21,7.88,4.28,8.57.55,5.48-.97,12.23,0,17.2-2.81,2.9-6.03,5.51-8.63,8.6,3.45-14-3.57-29.26-3.89-41.31-.23-8.83,12.78-34.37-4.74-31.78,4.72-16.45,5.95-29.45,12.95-47.29,2.59,7.38,9.3,12.28,12.95,17.2Z"/><path class="cls-13" d="M99.29,237.86c22.22,6.31,18.63-27.38,21.62-30.1,5.05-4.59,11.41,2.17,8.59,8.6-.7,1.11-3.21,19.9-4.32,25.79-4.52,24.16-3.28,35.58-12.95,60.19l-8.63-4.3c-.33-11.17-7.95-33.4-8.63-47.29-.03-.68,4.68-5.49,4.32-12.9ZM105.76,285.15v4.3c2.8-1.43,2.8-2.87,0-4.3Z"/><path class="cls-13" d="M289.19,14.3c-8.96,3.29-4.35,7.04-25.9,8.6-9.97.72-20.21-.53-30.21,0l-24.87-11.99-22.61,3.39c-.52-2.56.35-5.84,0-8.6C200.2-.79,255.86-.85,274.3,1.18c9.77,1.08,14.96,1.48,14.89,13.13Z"/><path class="cls-2" d="M21.6,160.48c17.53-2.59,4.51,22.95,4.74,31.78.32,12.05,7.34,27.3,3.89,41.31-2.3,2.72-4.63,4.51-4.32,8.6-7.55-1.74-17.74-.7-25.92-4.36,7.98-21.5,7.24-44.88,13.06-66.68,2.07-7.74,8.36-9.99,8.55-10.64Z"/><path class="cls-14" d="M82.03,44.4c-10.7,11.17,9.8,60.45-8.63,60.19-.41,0-1.42-4.74-4.24-4.36-.92,3.76,1.06,10.44-.08,12.96-.98,2.16-12.72,6.94-8.63,17.2-7.36-2.81-10.27-37.38-8.68-38.68,1.93-1.58,11.96,2.77,12.98-2.14l-12.93-15.07c11.43-18.74,9.29-19.16,30.21-30.09Z"/><path class="cls-12" d="M440.24,126.08l-12.92,4.31c-.67-18.17-.47-30.13-21.6-25.8-.97-5.71-5.3-12.33-8.63-17.2v-30.09c1.26.9,7.76-.95,9.84.98,22.5,20.96,23.5,41.62,33.32,67.8Z"/><path class="cls-14" d="M358.24,35.8c-9.49,9.97-19.15,20.72-34.5,21.48l-.05-17.19-30.16,4.28,12.93-25.77c21.31,4.52,32.53,10.09,51.79,17.2Z"/><path class="cls-5" d="M466.14,207.77c1.96,9.98,5.98,19.54,4.35,30.1-2.34,2.28-55.98,6.87-64.77,8.59-3.52-17.24,25.35-5.19,21.58-21.5,6.12-1.16,18.83-1.66,23.12-4.11,6.13-3.5-2.91-17.83,15.73-13.09Z"/><path class="cls-14" d="M47.5,216.36c1.06,1.04,23.56,15.65,24.99,16.06,6.01,1.73,12.03,1.66,18.17,1.14.02,5.73-.02,11.46,0,17.2-14.31,3.59-27.92-2.79-38.84-4.3-11.94-6.99-10.77-10.31-12.95-21.5-.97-4.96.55-11.71,0-17.2,2.19,3.09,5.87,5.88,8.63,8.6Z"/><path class="cls-5" d="M371.19,560.3c-.24,2.81.56,6.25,0,8.6-9.17-1.03-9.67-.54-8.63,8.6-25.37,5.65-47.76,3.99-73.37,4.3-.38-2.41.74-8.06.03-8.59-2.42-1.8-50.62.09-60.46,0v-4.3c26.36-.09,117.85,4.63,133.79-4.3,2.5-1.4,4.52-4.77,8.63-4.3Z"/><path class="cls-10" d="M82.03,151.88c9.49,1.65,11.43-4.48,12.95,8.6,2.97,25.62,3.06,51.65,4.32,77.38.36,7.4-4.35,12.22-4.32,12.9h-4.32c-.02-5.73.02-11.46,0-17.2-.11-25.9-3.73-56.23-8.63-81.68Z"/><path class="cls-15" d="M228.76,573.19c9.84.1,58.04-1.8,60.46,0,.71.53-.41,6.18-.03,8.59-28.83.35-55.4-3.48-82-4.3v-4.3c7.19.04,14.39-.07,21.58,0Z"/><path class="cls-13" d="M99.29,448.52c13.68-2.05,8.1,5.52,7.4,13.75-1.35,16.06-5.48,31.99-3.07,48.57l-8.65-6.44c.79-18.91,3.43-37.06,4.32-55.89Z"/><path class="cls-7" d="M371.19,547.4c-.03,4.67.71,4.51,0,12.9-4.11-.47-6.14,2.9-8.63,4.3-8.62-.13-17.27.18-25.9,0-3.6-11.04,23.85-13.41,34.53-17.2Z"/><path class="cls-3" d="M51.81,246.46c-10.55-1.46-14.95-1.78-25.9-4.3-.31-4.09,2.02-5.87,4.32-8.6,2.6-3.09,5.83-5.7,8.63-8.6,2.18,11.19,1.01,14.5,12.95,21.5Z"/><path class="cls-10" d="M112.24,302.35c-.77,1.96.52,5.97,0,8.6-1.25,1.47,2.5,11.56-8.63,8.6-.17-7.16.21-14.34,0-21.5l8.63,4.3Z"/><path class="cls-7" d="M371.19,568.9c-.59,2.47.97,7.54-.05,8.55s-6.09-.51-8.58.05c-1.04-9.14-.54-9.63,8.63-8.6Z"/><path class="cls-1" d="M328.03,70.19c-4.62,25.97,27.03,6.18,28.88,28.66,1.33,16.22-13.41,16.61-24.57,22.93-10.44-12.2-21.68-7.44-30.21,4.3-19.79-11.67-22.99,4.45-33.05,7.98-15.18,5.32-8.55-8.36-15.5-15.51-1.2-1.23-27.55-17.57-29.13-18.26,4.55-15.47,9.96-26.71,4.32-42.99,13.29-1.26,28.14-6,40.69-4.2,18.61,2.67,28.03,18.01,58.57,17.1Z"/><path class="cls-15" d="M228.76,57.3c5.64,16.28.23,27.52-4.32,42.99-4.51-1.96-15.72-2.1-21.55-4.28-1.43,12.4,2.57,28.25-.91,39.95-3.47,11.64-51.53,38.82-25.01,50.32-.83,9.21-.73,24.21-12.95,21.5.93-3.17-.48-8.87,0-12.9.06-.52,6.86-5.1,4.2-8.2-.63-.73-12.64-5.71-17.15-8.99-11.9-25.98,36.21-43.97,38.28-54.3,1.65-8.22-10.29-17.05-14.31-23.49-2.85-4.58-1.47-10.87-2.39-12.49,3.97-6.51,11.45-13.33,19.52-12.72,10.34.78,23.27,26.47,27.94,1.88,2.85-15-7.15-17.75,8.65-19.25Z"/><path class="cls-8" d="M328.03,70.19c23.02-.69,23.1-8.13,39.1-14.79,20.89-8.68,8.4,2.53,8.14,8.03-.17,3.47,17.8-1.17,1.92,19.42-2.34,3.03-8.54,3.88-9.53,5.33-1.5,2.19,3.66,6.59,3.53,7.81-.14,1.3-5.46,5.03-4.66,9.98.56,3.49,6.38,2.85,7.39,4.46,2.07,3.27,1.11,6.28,1.58,7.06l-17.24.02c-1.25,14.55,13.92,13.76,25.87,12.87.08,14.07-2.53,18.19-17.26,17.2-2.42-.16-7.25-4.26-12.95-4.3-6.88-.05-21.82-.22-25.9,0,19.42,6.24,12.01-12.5,4.32-21.5,11.16-6.32,25.9-6.71,24.57-22.93-1.85-22.47-33.51-2.69-28.88-28.66Z"/><path class="cls-9" d="M172.66,87.39c.93,1.62-.46,7.91,2.39,12.49,4.01,6.45,15.95,15.28,14.31,23.49-2.07,10.33-50.18,28.31-38.28,54.3-.78-.57-4.82,1.49-8.89-2.8-10.27-10.85-10.46-37.77-29.95-44.49v-4.3c1.12.61,22.78,8.25,24.04,8.47,23.19,4.08,26.07-7.25,23.8-28.08-.9-8.26-14.07-4.77-8.59-20.81,3.94-11.54,18.03-3.75,21.18,1.74Z"/><path class="cls-10" d="M233.08,22.9c-4.29.23-8.66-.21-12.94.04-5.91,4.95,32.17,15.37,38.84,12.85-14.04,12.76-68.02,4.62-73.37-21.5l22.61-3.39,24.87,11.99Z"/><path class="cls-9" d="M118.95,78.85c6.56-1.76,25.34,6.45,23.47,14.92-4.2,19.04-46.97-8.62-23.47-14.92Z"/><path class="cls-14" d="M233.08,22.9c10-.53,20.25.72,30.21,0,.75,6.12.33,8.67-4.32,12.9-6.67,2.51-44.75-7.91-38.84-12.85,4.28-.26,8.65.19,12.94-.04Z"/><path class="cls-9" d="M99.29,108.89c-4.68-7.53-5.68-7.21-8.63-17.2,12.49.38,16.23,7.63,8.63,17.2Z"/><path class="cls-14" d="M133.82,44.4c-1.31,1.55-2.68,3.08-4.32,4.3l-4.27-2.19c-1.45-14.08,7.8-2.25,8.59-2.11Z"/><path class="cls-3" d="M200.71,48.7c2.8,1.43,2.8,2.87,0,4.3v-4.3Z"/><path class="cls-1" d="M293.5,220.66c.97,6.3,4.11,11.46,4.32,12.9,3.04,21.58,5.85,34.96,8.63,55.89-12.48-2.53-9.02,6.88-8.77,14.99.93,30.59,9.68,60.22,13.01,90.41,2.17,19.61-2.78,43.59.07,62.27-32.97-1.31-7.05,35.3-4.32,51.59-5.6-.68-11.63.4-17.27-.01l4.32,51.6c-17.16-.69-34.6.27-51.79,0,9.44-11.09-4.8-22.7-4.05-27.45,1.11-6.97,16.67-9.87,20.37-18.63,10.36-24.51,1.88-58.87-4.65-83.78-3.23-12.33-14.04-30.2-15.74-40.21-3.61-21.3,4.4-50.76-2.16-70.94-2.69-8.27-11.74-12.62-14.34-20.11-3.2-9.21-10.12-76.3-26.91-35.53-3.49,8.47-7.86,25.83-8.63,34.39h-21.58c.65-2.31-.44-5.89,0-8.6,6.55-9.45,11.55-18.39,12.95-30.09,22.75,4.01,11.3-35.78,38.82-30.09-.6,13.11,2.51,37.79,9.33,48.76,6.11,9.83,19.6,6.24,28.18,27.81,8.77,22.03-.03,43.49,12.18,60.96,19.99,6.25,19.16-54.49,19.38-68.75.34-21.36-5.28-45.36-4.71-62.37.33-9.78,2.41-15.16,13.34-15.01Z"/><path class="cls-12" d="M310.77,229.26c9.51,46.54,13.6,95.06,21.58,141.87,6.31,37.04,12.46,57.52,12.95,94.58-10.26-2.92-7.53-11.68-9-18.99-10.72-53.29-22.68-103.35-29.84-157.27-2.78-20.93-5.59-34.31-8.63-55.89l12.95-4.3Z"/><path class="cls-6" d="M310.77,457.12c3.09,20.22,24.6,34.45,21.56,55.87-9.53,3.27-19.01-3.45-25.87-4.28-2.74-16.29-28.66-52.9,4.32-51.59Z"/><path class="cls-9" d="M189.92,538.8c3.97-.65,8.78.44,12.95,0-1.19,1.35-.94,9.91-4.05,14.31-2.77,3.94-10.45.51-8.88,7.14,17.21.28,34.56-.23,51.77.04,17.19.27,34.63-.69,51.79,0,13.92.56,27.25,3.97,43.16,4.3,8.62.18,17.27-.13,25.9,0-15.94,8.93-107.43,4.21-133.79,4.3-10.06.03-20.15-.08-30.21,0-5.08-8.61-13.41-7.26-21.58-8.6v-17.2c3.81-.82,7.82-3.46,12.95-4.3Z"/><path class="cls-15" d="M185.61,298.05c-1.03,11.45-4.1,34.82,8.63,30.09-3.08,5.79-2.22,23.68-4.32,30.09-3.72,11.38-16.55,23.57-12.92,38.67,21.58-1.58,20.83-22.7,25.87-34.37,3.73-.43,15.76-5.94,17.24-4.28l-8.81,87.56c16.31,3.24,10.59,43.33-2.46,45.48-8.54,1.41-12.82-15.31-23.18-12.67-4.16,3.1-6.78,32.9-8.68,38.68-3.44.21-6.68-3.77-8.63-4.3-20.84-18.04,14.47-59.98-21.58-60.19-.61-1.23.7-3.74,0-4.3,6.39-5.27,24.49-44.06,21.55-47.28-1.8-1.97-11.96,6.44-17.35,2.44-9.61-7.15,3.73-26.91-12.83-23.94,1.71-7.3,3.2-14.03,4.32-21.5,12.94,2.69,8.11-6.39,8.63-17.2.31-6.51.79-15.33,0-21.5,9.32,2.86,10.24-11.9,12.95-21.5h21.58Z"/><path class="cls-14" d="M176.97,259.36c-1.39,11.7-6.4,20.65-12.95,30.09-5.49,7.92-9.75,12.71-17.26,25.79-3.38,5.88-11.7,14.7-12.95,17.2h-4.32c8.8-29.16.85-35.09,17.26-64.49,1.84,26.59,24.44-9.82,30.21-21.5-.34,4.24.5,8.7,0,12.9Z"/><path class="cls-2" d="M138.13,379.73c16.55-2.97,3.22,16.8,12.83,23.94,5.39,4.01,15.55-4.4,17.35-2.44,2.95,3.22-15.16,42.01-21.55,47.28-.85-.68-7.52,2.14-8.78-2.74-3.24-12.53,6.12-34.34-4.17-44.55,1.55-6.03,2.58-14.11,4.32-21.5Z"/><path class="cls-3" d="M133.82,332.44c-4.54,9.1-10.59,28.19-13,38.67-7.69,2.08-2.8-7.25-4.27-8.57-4.8-12.24,12.19-27.58,12.95-30.09h4.32Z"/><path class="cls-3" d="M164.03,289.45c-.44,2.71.65,6.29,0,8.6-2.71,9.6-3.63,24.36-12.95,21.5-.1-.78-3.55-2.61-4.32-4.3,7.51-13.09,11.78-17.88,17.26-25.79Z"/><path class="cls-2" d="M151.08,341.04c-.52,10.8,4.31,19.88-8.63,17.2,1.53-10.24-5.27-19.91,8.63-17.2Z"/><path class="cls-6" d="M82.03,151.88c4.9,25.45,8.53,55.79,8.63,81.68-6.14.52-12.17.59-18.17-1.14-1.43-.41-23.93-15.02-24.99-16.06-3.19-11.16-2.66-23.6-4.32-34.39,4.38.19,6.03-1.1,8.63-4.3,9.57-11.78-7.37-31.55-4.32-47.29,3.68,4.96,11.05,18.56,12.91,19.7,2.56,1.57,13.94.46,21.62,1.8ZM56.13,190.57c2.21,8.66,1.46,20.3,12.93,17.17,1.09-7.02-3.01-13.01-8.61-17.17l-2.16-4.21-2.16,4.21Z"/><path class="cls-11" d="M107.92,156.18c3.32.21,30.08,22.55,30.35,24.47.84,5.9-2.82,11.7-2.93,17.1-.11,5.67,3.68,12.12,3.02,15.84-.79,4.49-8.62,2.37-8.87,2.77,2.82-6.43-3.54-13.2-8.59-8.6-2.99,2.73.6,36.41-21.62,30.1-1.25-25.74-1.35-51.76-4.32-77.38,4.35,1.32,11.04-4.42,12.95-4.3Z"/><path class="cls-14" d="M112.24,130.38c19.49,6.72,19.68,33.64,29.95,44.49,4.07,4.3,8.11,2.23,8.89,2.8,4.5,3.28,16.52,8.26,17.15,8.99,2.66,3.11-4.14,7.68-4.2,8.2-12.27,5.42-12.63,20.28-17.26,30.09s-8.71,12.69-12.95,25.79l-8.63-8.6c1.1-5.9,3.62-24.69,4.32-25.79.25-.39,8.08,1.73,8.87-2.77.65-3.72-3.14-10.17-3.02-15.84.11-5.4,3.77-11.2,2.93-17.1-.27-1.93-27.03-24.26-30.35-24.47l4.32-25.79Z"/><path class="cls-13" d="M73.39,104.59c5.94,12.6,15.1,23.83,12.9,38.67-1.66,3.57-6.87-5.68-8.59-8.58-.52-2.06-2.27-3.95-4.32-4.3-1.66-3.8.15-12.59-4.32-17.2,1.14-2.51-.84-9.2.08-12.96,2.82-.38,3.83,4.35,4.24,4.36Z"/><path class="cls-2" d="M73.39,130.38c-3.88-.66-10.22,1.04-12.95,0-4.09-10.26,7.66-15.04,8.63-17.2,4.46,4.61,2.65,13.4,4.32,17.2Z"/><path class="cls-14" d="M77.71,134.68c-.85-1.44-3.59-2.64-4.32-4.3,2.04.35,3.8,2.24,4.32,4.3Z"/><path class="cls-2" d="M168.34,513.01c1.95.53,5.19,4.51,8.63,4.3-3.02,9.15-11.87,15.65-12.95,25.79-6.54,1.76-13.43,8.75-21.58,8.6-4.37-11.22-7.59-30.91-8.63-42.99,11.34-.05,23.67,1.36,34.53,4.3Z"/><path class="cls-9" d="M168.34,513.01c-10.86-2.94-23.18-4.35-34.53-4.3-.37-4.24.16-8.63,0-12.9,25.43,1.76,17.99-21.37,12.95-38.69-.42-1.43.52-3.26,0-4.3,36.04.21.74,42.15,21.58,60.19Z"/><path class="cls-2" d="M133.82,495.81c-.05-1.36-3.67-1.97-1.62-11.61,1.82-8.56,7.89-20.88,14.57-27.08,5.04,17.32,12.48,40.45-12.95,38.69Z"/><path class="cls-15" d="M176.97,543.1v17.2c-11.95-1.95-19.02-3.61-31.91.35-5.21-.75-1.73-6.67-2.62-8.95,8.14.15,15.04-6.83,21.58-8.6,3.51-.95,9.14.82,12.95,0Z"/><path class="cls-6" d="M198.55,568.9c10.06-.08,20.15.03,30.21,0v4.3c-7.19-.07-14.39.04-21.58,0-20.09-.12-40.31.13-60.4-.04-1.01-7.5,9.77-4.03,15.02-4.25,12.2-.52,24.57.1,36.74,0Z"/><path class="cls-12" d="M366.87,147.58c14.58,31.6-8.7,31.24-12.45,41.59-3.87,10.68,3.72,16.38,3.82,18.6.65,14.25,3.6,28,4.32,38.69.47,7.1-.31,14.37,0,21.5h-8.63c-2.46-17.66-5.54-34.16-8.63-51.59-1.31-7.4,3.25-21.78-6.51-25.76-23.36-9.54-2.45,19.76-2.13,21.47,1.49,7.78-1.17,18.24.52,27.38,7.55,40.74,19.85,81.16,16.74,123.09-19.91-45.06-16.78-108.99-32.43-154.71-3.04-8.87-7.77-21.77-19.36-21.56-.32-.98-14.55-8.41-8.59-17.11,5.47-8,56.58-3.54,60.38-25.88,5.7.04,10.53,4.14,12.95,4.3Z"/><path class="cls-7" d="M328.03,143.28c4.07-.22,19.01-.05,25.9,0-3.8,22.34-54.91,17.89-60.38,25.88-5.95,8.7,8.27,16.13,8.59,17.11,3.26,9.94,6.24,31.27,8.63,42.99l-12.95,4.3c-.2-1.44-3.35-6.6-4.32-12.9-1.25-8.15,1.36-16.69-1.86-26.07-4.34-12.64-22.58-12.78-17.91-29.92,6.78-24.91,29.14-11.72,45.67-21.39,2.87-.1,5.77.16,8.63,0Z"/><path class="cls-9" d="M345.29,375.43v-4.3c8.83,1.74,0,3.82,0,4.3Z"/><path class="cls-4" d="M366.87,246.46h-4.32c-.71-10.69-3.66-24.44-4.32-38.69,22.4,1.4,9.58,25,8.63,38.69Z"/><path class="cls-1" d="M375.5,117.48c2.42,4.09,8.57,1.93,8.63,12.9-11.96.89-27.12,1.68-25.87-12.87l17.24-.02Z"/><path class="cls-12" d="M384.14,95.99c13.41-.02,14.44-2.91,12.93,12.88-14.81,1.5-13.77.69-12.93-12.88Z"/><path class="cls-4" d="M345.29,216.36l-8.63-4.3c-.33-1.7-21.23-31.01,2.13-21.47,9.76,3.99,5.19,18.37,6.51,25.76Z"/><path class="cls-4" d="M362.56,267.95c.25,5.85,1.46,38.76-2.16,38.74-5.98-11.77-4.74-26.26-6.47-38.74h8.63Z"/><path class="cls-9" d="M176.97,186.27c7.15,3.1,12.97-6.04,13.11,6.47.19,16.63-5.88,39.09-13.11,53.72-5.77,11.67-28.37,48.08-30.21,21.5,1.08-1.94,5.14-31.85,8.63-42.99,1.36-4.34,6.67-10.51,8.63-17.2,12.22,2.72,12.11-12.28,12.95-21.5Z"/><path class="cls-11" d="M133.82,250.76c-4.26,13.16-6.55,46.01-13.02,57.11-2.69,4.63-8.21,2.66-8.56,3.08.52-2.63-.77-6.64,0-8.6,9.67-24.61,8.42-36.03,12.95-60.19l8.63,8.6Z"/><path class="cls-11" d="M164.03,207.77c-1.96,6.68-7.27,12.86-8.63,17.2h-8.63c4.63-9.81,4.99-24.67,17.26-30.09-.48,4.03.93,9.73,0,12.9Z"/><path class="cls-8" d="M403.56,151.88c2.8,1.43,2.8,2.87,0,4.3v-4.3Z"/><path class="cls-14" d="M51.81,177.67c-2.6,3.2-4.25,4.49-8.63,4.3-1.13-7.36-8.43-18.48-4.27-30.07l12.9,25.77Z"/><path class="cls-3" d="M38.87,207.77c-.07-.69-6.27-5.21-4.28-8.57,7.73-1.92,2.6,6.19,4.28,8.57Z"/><path class="cls-10" d="M105.76,285.15c2.8,1.43,2.8,2.87,0,4.3v-4.3Z"/><path class="cls-4" d="M224.45,100.29c1.58.68,27.93,17.03,29.13,18.26,6.95,7.15.32,20.84,15.5,15.51,10.06-3.53,13.26-19.64,33.05-7.98-2.62,3.6-3.46,8.59-4.32,12.9-6.1.36-12.32-1.2-18.39.86-6.95,2.35-10.66,12.18-18.28,12.23-9.6.06-14.44-14.57-22.53-16.79-18.42-5.06-38.98,29.43-57.24,36.06l2.07,10.67c61.35-10.35,30.91,37.1,43.24,64.36,3.95,8.75,17.13,13.03,22.12,18.82,11.65,13.54,15.84,38.38,36.05,32.87-.23,14.26.61,74.99-19.38,68.75-12.2-17.47-3.41-38.93-12.18-60.96-8.59-21.57-22.07-17.99-28.18-27.81-6.82-10.98-9.93-35.66-9.33-48.76-27.52-5.68-16.08,34.1-38.82,30.09.5-4.19-.34-8.66,0-12.9,7.23-14.63,13.3-37.09,13.11-53.72-.14-12.5-5.96-3.36-13.11-6.47-26.52-11.5,21.54-38.68,25.01-50.32,3.49-11.7-.52-27.54.91-39.95,5.83,2.18,17.04,2.33,21.55,4.28Z"/><path class="cls-12" d="M332.35,121.78c7.69,8.99,15.1,27.74-4.32,21.5-2.86.16-5.76-.1-8.63,0-3.42-6.47-14.84-4.7-21.58-4.3.86-4.31,1.69-9.29,4.32-12.9,8.53-11.74,19.77-16.5,30.21-4.3Z"/><path class="cls-6" d="M241.71,560.3c-17.21-.27-34.56.24-51.77-.04-1.57-6.63,6.11-3.2,8.88-7.14,3.1-4.4,2.86-12.96,4.05-14.31.45-.51,7.52,1.97,8.75-2.79,11.06-42.57-16.35-27.67-21.7,2.79-5.13.84-9.14,3.47-12.95,4.3-3.81.82-9.44-.95-12.95,0,1.07-10.15,9.93-16.64,12.95-25.79,1.91-5.78,4.52-35.58,8.68-38.68,10.36-2.64,14.64,14.08,23.18,12.67,13.05-2.15,18.77-42.25,2.46-45.48l8.81-87.56c-1.48-1.66-13.51,3.86-17.24,4.28-5.04,11.67-4.29,32.79-25.87,34.37-3.63-15.1,9.2-27.29,12.92-38.67,1.64,5.19,8.53,4.8,12.95,4.3,5.96-13.8,17.6-23.63,13.02-40.18-1.25-4.52-8.45-2.43-8.7-2.82-5.8-8.9,11.97-56.31-12.95-55.89,16.79-40.77,23.72,26.32,26.91,35.53,2.6,7.48,11.66,11.84,14.34,20.11,6.55,20.18-1.45,49.64,2.16,70.94,1.7,10.01,12.5,27.88,15.74,40.21,6.53,24.91,15.01,59.27,4.65,83.78-3.7,8.76-19.26,11.66-20.37,18.63-.76,4.75,13.49,16.36,4.05,27.45Z"/><path class="cls-8" d="M297.82,138.98c6.74-.4,18.16-2.17,21.58,4.3-16.53,9.67-38.89-3.51-45.67,21.39-4.67,17.14,13.58,17.28,17.91,29.92,3.22,9.38.61,17.92,1.86,26.07-10.94-.14-13.02,5.23-13.34,15.01-.57,17.01,5.05,41.01,4.71,62.37-20.21,5.51-24.41-19.33-36.05-32.87-4.99-5.8-18.16-10.08-22.12-18.82-12.32-27.26,18.11-74.71-43.24-64.36l-2.07-10.67c18.26-6.63,38.81-41.12,57.24-36.06,8.09,2.22,12.93,16.85,22.53,16.79,7.62-.04,11.32-9.87,18.28-12.23,6.07-2.05,12.29-.5,18.39-.86Z"/><path class="cls-9" d="M207.19,319.54c-2.58,2.7-11.92,6.66-12.95,8.6-12.74,4.73-9.66-18.65-8.63-30.09.77-8.56,5.14-25.92,8.63-34.39,24.92-.42,7.15,46.99,12.95,55.89Z"/><path class="cls-1" d="M207.19,319.54c.25.38,7.45-1.71,8.7,2.82,4.58,16.54-7.06,26.38-13.02,40.18-4.42.5-11.31.89-12.95-4.3,2.1-6.41,1.23-24.3,4.32-30.09,1.03-1.94,10.37-5.9,12.95-8.6Z"/><path class="cls-14" d="M60.45,190.57c5.6,4.17,9.7,10.15,8.61,17.17-11.47,3.13-10.72-8.51-12.93-17.17h4.32Z"/><polygon class="cls-11" points="60.45 190.57 56.13 190.57 58.29 186.36 60.45 190.57"/><path class="cls-15" d="M189.92,538.8c5.35-30.46,32.76-45.36,21.7-2.79-1.24,4.76-8.3,2.28-8.75,2.79-4.17.44-8.98-.65-12.95,0Z"/></g></svg>