<?xml version="1.0" encoding="UTF-8"?><svg id="Capa_2" xmlns="http://www.w3.org/2000/svg" viewBox="0 0 1413.81 228.43"><g id="Layer_1"><path d="M1230.57,34.54c5.75,5.69,11.74.09,6.13-8.11-.42-.61-.69-1.69-.48-2.4,1.83-5.96,7.49-8.78,13.4-4.62,1.83,1.29,1.93,3.76,4.32,3.93,2.53.01,5.14-8.81,13.01-4.99,2.57,1.25,2.56,4.58,5.46,5,2.77,0,4.69-9.01,13.01-5,2.57,1.24,2.56,4.59,5.46,5,1.67,0,9.55-11.85,13.82-2.36,3.45,7.68-6.63,8.48-.04,16.21,6.79,7.97,8.07-1.73,12.84-2.42,6.17-.9,7.37,9.18,14.42,1.83,6.91-7.21-5.81-11.33,1.14-17.33,7.13-6.15,10.7,4.08,13.23,4.07l1.76-.62c2.13-4.58,6.44-6.69,11.25-4.38,2.49,1.2,2.93,5,5.46,5,2.9-.41,2.89-3.77,5.46-5,4.18-2.01,7.38-.67,9.82,2.05,1.41,1.56,1.47,4.03.06,5.59-8.07,8.86,8.81,14.27,9.53,5.89.42-4.95-11.45-8.22,1.86-14.13,12.62,2.95,2.28,11.21,2.65,15.29.32,3.56,6.31,4.93,5.89,9.23-.34,3.5-7.07,6.26-7.06,9.31,0,2.53,3.05,2.3,3.93,4.29,4.65,10.44-13.47,12.16-10.62,1.71.66-2.43,5.28-3.6,4.32-6.94-2.93-6.24-12.51-6.09-13.19,1.37-.31,3.45,3.52,4.87,3.69,6.44.39,3.68-4.18,9.06-8.21,8.75l-5.28-4.14c-10.8-2.37-10.76,15.19.36,11.98,3.71-1.07,2.79-6.7,8.84-2.63,10.54,7.08-1.98,10.33,2.31,17.32,4.51,7.34,11.36-1.27,14.26-.53,7.66,4.68,7.34,11.34-1.18,14.74h-1.81c-4.57-6.24-13.61-3.05-13.49,4.23.05,2.93,6.14,4.22,2.36,10.43-5.53,9.09-10.72-1.01-14.23-.51-8.53,1.22-6.9,15.24,2.94,12.36,2.05-.6,3.33-3.87,4.84-4.04,2.59-.3,5.09,2.1,7.06,4.6,1.43,1.82,1.39,4.41-.1,6.19-7.23,8.6,9.16,13.77,9.87,5.5.34-3.95-3.95-4.79-4.55-7.09-.98-3.7,7.39-11.17,11.49-4.46,3.78,6.18-2.78,8.67-2.23,12.5.86,6,11.08,6.87,1.09,15.81-1.48,1.33-1.67,3.59-.35,5.08,1.8,2.03,3.86,4.67,1.5,8.3-2.48,3.81-6.95,3.74-9.38,0-3.83-5.89,3.64-7.15,3.36-10.25-.64-7.18-12.76-7.43-13.44-.02-.36,3.91,7.38,6.25,1.77,11.64-2.45,2.35-5.73,1.99-8.29.29s-3.3-5.4-1.65-8.1c7.44-12.16-16.28-12.08-8.12.42,1.21,1.86,1.29,4.29-.09,6.03-3.28,4.14-8.08,3.87-11.16-1.01-.82-1.29-.5-2.96.53-4.1,4.93-5.46-.3-13.77-7.36-9.47-7.54,4.59,2.89,5.72,1.35,11.67-2.2,8.48-15.15,7.06-12.02-2.71.51-1.6,2.73-2.54,3.01-3.85.5-2.37-2.29-6.47-5.01-8.42-1.13-.81-2.68-.76-3.82.04-4.81,3.38-12.9,3.43-11.53-3.89,1.83-9.78,10.2-.84,11.9-.85,7.17-.06,8.35-11.93,2.11-13.71-4.97-1.42-5.68,5.94-11.38,2.22-5.12-3.34-2.79-11.48,3.48-10.49,2.9.45,3.72,4.2,6.68,3.31,5.1-1.93,7.38-6.64,3.73-11.33-4.62-5.94-6.72.17-9.45.97-7.57,2.22-10.32-11.55-2.06-11.51,3.94.02,4.35,3.99,7.79,3.4,5.1-1.93,7.38-6.64,3.73-11.33-5.24-6.74-7.57,3.13-13.22.55-6.48-2.96-3.14-14.09,4.56-10.37,1.51.73,2.42,3.72,4.93,2.68,5.1-1.93,7.38-6.64,3.73-11.33-5.24-6.74-7.57,3.13-13.22.55-6.48-2.96-3.14-14.09,4.56-10.37,1.51.73,2.42,3.72,4.93,2.68,5.1-1.93,7.38-6.64,3.73-11.33-4.76-6.12-7.12.81-10.39,1.17-7.92.87-10.85-10.46-2.21-12.8,4.31-.4,4.82,5.19,8.88,4.48,6.61-1.16,7.15-10.68,1.21-13.51-4.51-1.28-4.99,2.82-7.29,3.91-3.99,1.88-7.3-1.39-10.08-4.29-1.09-1.14-2.91-1.12-3.99.02l-4.59,4.84c-.61.64-1,1.51-.9,2.39.44,3.87,6.1,6.49,1.79,11.54-6.01,7.04-12.15-8.08-19.2,3.89-3.53,6,3.32,6.69,3.4,11.57.07,3.91-3.07,6.62-5.38,9.25,5.74,7.39,7.83,11.42,0,18.47,5.74,7.39,7.83,11.42,0,18.47,5.74,7.39,7.83,11.42,0,18.47,5.1,6.84,8.97,12.08-1.11,16.61h-1.8c-4.86-5.78-10.83-3.21-13.27,3.22-.27,2.45,2.54,4.01,3.03,5.88,1.33,5.07-4.74,9.14-9.69,6.11-8.2-5.02,5.8-10.71-1.99-17.03-6.87-5.57-9.89,5.53-16.47-.29-6.11-5.39,2.99-12.08,3-14.49.01-2.53-3.75-3.73-4.44-6.02-2.14-7.07,4.43-9.72,4.44-12.45.01-3.29-7.58-4.42-3.79-12.99.85-1.92,3.78-3.41,3.79-5.48.02-3.29-7.58-4.42-3.79-12.99.85-1.92,3.78-3.41,3.79-5.48.02-3.29-7.57-4.41-3.79-12.99.81-1.84,3.96-3.61,3.66-5.32l-5.87-7.13c-1.46-1.77-1.09-4.25.54-5.87,4.26-4.22-1.36-12.6-7.72-8.39-8.64,5.72,6.49,9.16,1.27,14.58-6.13,6.38-14.06-1.46-9.61-7.98,1.41-2.06,1.15-4.84-.31-6.87l-2.26-3.14c-1.3-1.81-1.2-4.3.31-5.95,1.56-1.7,3.64-3.24,3.97-5.46.48-3.24-8.31-9.26-.26-14.03,3.62-2.15,6.08.12,8.44,2.65,1.33,1.43,1.22,3.66-.24,4.97-2.31,2.06-4.89,5.01-1.73,8.13ZM1259.16,30.34c0-2.88-2.34-5.22-5.22-5.22s-5.22,2.34-5.22,5.22,2.34,5.22,5.22,5.22,5.22-2.34,5.22-5.22ZM1277.63,30.34c0-2.88-2.34-5.22-5.22-5.22s-5.22,2.34-5.22,5.22,2.34,5.22,5.22,5.22,5.22-2.34,5.22-5.22ZM1291.08,24.61c-9.83.88-4,16.33,3.92,9.72,4.92-4.1-1.44-9.95-3.92-9.72ZM1351.61,30.46c0-2.98-2.42-5.4-5.4-5.4s-5.4,2.42-5.4,5.4,2.42,5.4,5.4,5.4,5.4-2.42,5.4-5.4ZM1368.51,34.54c6.09-6.15-6.36-14.77-8.78-5.8-1.59,5.88,5.25,9.37,8.78,5.8ZM1297.38,52.06c0-3.05-2.47-5.52-5.52-5.52s-5.52,2.47-5.52,5.52,2.47,5.52,5.52,5.52,5.52-2.47,5.52-5.52ZM1369.95,51.82c0-2.47-2-4.47-4.47-4.47s-4.47,2-4.47,4.47,2,4.47,4.47,4.47,4.47-2,4.47-4.47ZM1255.6,50.98c0-1.24-1-2.24-2.24-2.24s-2.24,1-2.24,2.24,1,2.24,2.24,2.24,2.24-1,2.24-2.24ZM1270.68,49.84c-2.2,2.05,4.62,5.17,4.59,1.73-.01-1.19-3.82-2.44-4.59-1.73ZM1256.66,66.15c-1.82-2.9-11.9-1.09-8.53,5.61,3.11,6.19,11.64-.65,8.53-5.61ZM1277.74,69.3c0-2.27-1.84-4.11-4.11-4.11s-4.11,1.84-4.11,4.11,1.84,4.11,4.11,4.11,4.11-1.84,4.11-4.11ZM1345.71,70.61c.66.66,3.43-.96,3.43-1.73,0-3.2-5.18-.02-3.43,1.73ZM1257.1,87.63c0-2.7-2.19-4.89-4.89-4.89s-4.89,2.19-4.89,4.89,2.19,4.89,4.89,4.89,4.89-2.19,4.89-4.89ZM1278.3,87.56c0-2.41-1.95-4.36-4.36-4.36s-4.36,1.95-4.36,4.36,1.95,4.36,4.36,4.36,4.36-1.95,4.36-4.36ZM1369.03,86.77c0-2.04-1.66-3.7-3.7-3.7s-3.7,1.66-3.7,3.7,1.66,3.7,3.7,3.7,3.7-1.66,3.7-3.7ZM1257.1,106.1c0-2.7-2.19-4.89-4.89-4.89s-4.89,2.19-4.89,4.89,2.19,4.89,4.89,4.89,4.89-2.19,4.89-4.89ZM1278.32,105.86c0-2.35-1.91-4.26-4.26-4.26s-4.26,1.91-4.26,4.26,1.91,4.26,4.26,4.26,4.26-1.91,4.26-4.26ZM1369.97,107.3c0-2.49-2.02-4.51-4.51-4.51s-4.51,2.02-4.51,4.51,2.02,4.51,4.51,4.51,4.51-2.02,4.51-4.51ZM1257.1,124.57c0-2.7-2.19-4.89-4.89-4.89s-4.89,2.19-4.89,4.89,2.19,4.89,4.89,4.89,4.89-2.19,4.89-4.89ZM1278.3,124.5c0-2.41-1.95-4.36-4.36-4.36s-4.36,1.95-4.36,4.36,1.95,4.36,4.36,4.36,4.36-1.95,4.36-4.36ZM1345.71,126.02c.66.66,3.43-.96,3.43-1.73,0-3.2-5.18-.02-3.43,1.73ZM1257.1,143.04c0-2.7-2.19-4.89-4.89-4.89s-4.89,2.19-4.89,4.89,2.19,4.89,4.89,4.89,4.89-2.19,4.89-4.89ZM1278.3,142.97c0-2.41-1.95-4.36-4.36-4.36s-4.36,1.95-4.36,4.36,1.95,4.36,4.36,4.36,4.36-1.95,4.36-4.36ZM1369.03,142.18c0-2.04-1.66-3.7-3.7-3.7s-3.7,1.66-3.7,3.7,1.66,3.7,3.7,3.7,3.7-1.66,3.7-3.7Z" style="fill:#daff3e;"/><path d="M1156.11,20.11c3.24,3.24.84,9.36-3.26,10.76,2.14,9.84,14.24,11.67,16.96,1.69.99-3.62-3.8-4.05-4.2-7.57-.94-8.25,11.97-8.71,12.53-.13l-5.38,6.91c1.33,6.52,11.69,5.24,12.25-1.15.22-2.56-2.57-3.99-3.02-5.87-1.53-6.4,10.6-10.68,13.16-2.66,1.68,5.24-7.53,9.97.97,15.13,7.12,4.32,8.49-6.24,15.64-.62,5.88,4.62.33,12.92-5.88,11.55-2.54-.56-4.03-4.74-7.13-3.94-6.41,1.64-6.11,15.2,2.98,12.37,1.45-.45,2.17-2.2,3.17-2.68,6.6-3.16,11.72,7.73,4.3,11.26-6.25,2.98-6.83-3.4-10.45-2.48-5.83,1.48-6.56,13.92,1.98,12.58,2.3-.36,3.47-2.82,6.94-2.37,6.97.91,4.91,13.72-3.13,11.43-2.03-.58-2.71-3.96-5.78-3.18-4.82,1.23-6.37,10.84-1.15,12.38,4.37,1.29,6.12-2.68,10.06-2.16,6.98.91,4.91,13.71-3.13,11.43-2.03-.58-2.71-3.96-5.78-3.18-4.82,1.23-6.37,10.84-1.15,12.38,4.37,1.29,6.12-2.68,10.06-2.16,6.98.91,4.91,13.71-3.13,11.43-2.03-.58-2.71-3.96-5.78-3.18-4.83,1.23-6.37,10.84-1.15,12.38,4.26,1.25,5.75-2.18,8.98-2.24,7.73-.14,6.77,12.63-1.12,11.69-2.88-.35-3.6-4.15-6.72-3.36-5.16,1.31-6.5,11.8-.16,12.62,3.48.45,4.64-2.01,6.94-2.37,4.62-.72,7.4,2.9,6.07,7.28-3.04,9.97-11.63-4.2-17.76,4.21-5.32,7.29,7.6,12.52-3.67,17.19-3.57.52-6.57-2.62-7.94-5.52-.46-1.87,3.56-3.67,3.7-6.38.28-5.55-6.82-8.49-10.45-3.99-4.19,5.2,2.88,8.31,2.38,10.36-1.39,2.91-3.73,5.24-7.05,5.64-14.11-3.59,2.05-11.18-6.36-17.79-5.27-4.14-6.6.49-10.09,1.48-6.57,1.87-7.69-5.58-11.25-5.58l-8.53,7.77,4.34,6.93c.9,9.12-13.39,7.69-11.22,0,1.01-3.56,10.21-6.74-1.9-11.13-3.21.37-5.75,2.71-6.99,5.59-.61,2.87,4.65,4.86,2.42,9.33-3.25,4.46-10.7,4.36-10.98-1.87-.21-4.81,5.05-7.77.51-13.1-5.97-7.01-9.09,1.48-14.43.65-2.86-.44-4.9-2.19-5.57-5.01-.06-4.82,5.06-7.24,9.42-5.85,2.14.68,2.44,3.55,5.74,3.1,7.39-1.02,6.69-12.68-.25-14.41-1.55-.39-8.28,7.52-12.19,1.87-2.6-4.26,2.18-10.05,6.4-8.79,2.01.6,3.03,3.27,6.05,2.85,6.4-.88,7.26-10.11,1.22-13.56-3.91-2.23-2.98,1.1-5.81,1.98-8.28,2.58-10.05-9.41-3.02-9.95,3.55-.27,5.58,5.99,10.72,1.43,5.08-4.51.02-13.31-4.01-12.94-.96.09-2.08,2.5-3.68,3-4.77,1.5-11-3.5-6.72-7.93,4.89-5.06,7.19,1.02,10.41,1.15,6.05.24,8.36-8.04,3.49-12.66-4.56-4.33-4.32.09-7.19.98-8.29,2.58-10.05-9.42-3.02-9.95,3.42-.26,4.49,4.73,9.31,2.38,4.63-2.26,4.65-7.64,1.49-11.31-4.57-5.31-5.01-.45-7.77.41-7.9,2.47-12.51-9.8-3.11-10.22,4.29-.19,4.28,5.15,9.4,2.63,7.37-3.62,1.84-14.23-2.6-13.87-1.71.14-6.48,7.51-12.47,2.09-3.92-5.61,1.37-11.08,7.63-9.09,3.17,1,3.79,6.16,9.5.95,8.14-7.43-5.66-11.4,1.75-17.86,6.88-5.99,9.58,4.03,13.23,4.03,4.84-1.78,5.79-8.12,12.1-5.22,9.13,4.21.7,9.77,1.64,13.29,2.65,9.9,19.32,2.14,6.65-6.54,0-5.12,7.61-8.21,11.07-4.75ZM1129.59,30.09c0-2.73-2.21-4.93-4.93-4.93s-4.93,2.21-4.93,4.93,2.21,4.93,4.93,4.93,4.93-2.21,4.93-4.93ZM1168.05,50.41c0-3.5-2.84-6.34-6.34-6.34s-6.34,2.84-6.34,6.34,2.84,6.34,6.34,6.34,6.34-2.84,6.34-6.34ZM1181.78,50.54c0-1.86-1.51-3.37-3.37-3.37s-3.37,1.51-3.37,3.37,1.51,3.37,3.37,3.37,3.37-1.51,3.37-3.37ZM1142.55,52.14c.66.66,3.43-.96,3.43-1.73,0-3.2-5.18-.02-3.43,1.73ZM1167,68.88c0-2.99-2.42-5.41-5.41-5.41s-5.41,2.42-5.41,5.41,2.42,5.41,5.41,5.41,5.41-2.42,5.41-5.41ZM1181.68,71.65c3.33-5.36-7.75-8.84-6.26-2.08.78,3.54,5.11,3.92,6.26,2.08ZM1144.85,67.15h-3.46v4.62h3.46v-4.62ZM1126.38,68.31l-3.45.57,1.74,1.73h1.71s0-2.29,0-2.29ZM1166.19,87.45c0-2.48-2.01-4.5-4.5-4.5s-4.5,2.01-4.5,4.5,2.01,4.5,4.5,4.5,4.5-2.01,4.5-4.5ZM1145.83,84.64c-2.49-1.52-6.11-.54-6.37,2.9-.7,9.18,11.88.46,6.37-2.9ZM1182.4,87.85c0-1.86-1.51-3.37-3.37-3.37s-3.37,1.51-3.37,3.37,1.51,3.37,3.37,3.37,3.37-1.51,3.37-3.37ZM1127.92,87.66c0-1.34-1.08-2.42-2.42-2.42s-2.42,1.08-2.42,2.42,1.08,2.42,2.42,2.42,2.42-1.08,2.42-2.42ZM1147.81,106.4c0-2.66-2.15-4.81-4.81-4.81s-4.81,2.15-4.81,4.81,2.15,4.81,4.81,4.81,4.81-2.15,4.81-4.81ZM1164.35,103.06c-6.29-3.65-9.01,6.31-2.76,6.31,4.12,0,4.14-5.51,2.76-6.31ZM1182.64,106.24c0-1.65-1.34-2.99-2.99-2.99s-2.99,1.34-2.99,2.99,1.34,2.99,2.99,2.99,2.99-1.34,2.99-2.99ZM1124.08,104.1c-.71.71.53,4.59,1.73,4.59,4.47,0,1.26-7.57-1.73-4.59ZM1148.88,124.8c0-3.17-2.57-5.73-5.73-5.73s-5.73,2.57-5.73,5.73,2.57,5.73,5.73,5.73,5.73-2.57,5.73-5.73ZM1127.53,126.02c-.02-4.23-3.43-4.23-3.45,0h3.45ZM1163.32,122.57c-.75-.75-6.4.03-5.76,2.86,1,4.43,8.4-.23,5.76-2.86ZM1181.79,126.02c-.02-4.23-3.43-4.23-3.45,0h3.45ZM1149.79,143.42c0-3.64-2.95-6.58-6.58-6.58s-6.58,2.95-6.58,6.58,2.95,6.58,6.58,6.58,6.58-2.95,6.58-6.58ZM1163.63,143.27c0-1.89-1.53-3.42-3.41-3.42s-3.41,1.53-3.41,3.42,1.53,3.42,3.41,3.42,3.41-1.53,3.41-3.42ZM1127.54,142.2h-3.46s0,2.29,0,2.29h1.71s1.75-2.29,1.75-2.29Z" style="fill:#daff3e;"/><path d="M806.27,20.21c1.09.73,1.89,3.88,4.44,3.97,3.99-3.76,6.9-7.25,12.95-4.64,9.41,4.07,1.4,7.55,1.4,10.09,0,1.39,2.92,4.61,4.04,5.26,5.12,2.98,5.14-2.65,7.91-2.23,4.59,2.69,9.58,6.22,6.96,12.27-.86,1.98-3.57,2.07-4.45,3.71-2.88,5.37,2.65,4.53,4.36,8.41,3.83,8.75-6.45,7.23-4.7,14.5,4.96,1.68,7.37,6.24,4.46,10.95-.78,1.27-3.29,1.53-4.12,3.07-3.13,5.84,5.29,4.78,5.16,12.07-.1,5.44-7.6,4.77-5.51,10.84,4.94,1.66,7.38,6.22,4.46,10.95-.79,1.27-3.29,1.53-4.12,3.07-2.72,5.06,3.94,6.41,6.9,10.03,14.16-3.82,3.27-12.28,2.85-16.4s6.72-5.79,3.28-13.5c-.8-1.78-3.06-2.83-3.28-4.96-.42-4.12,6.72-5.79,3.28-13.5-.8-1.78-3.06-2.83-3.28-4.96-.42-4.12,6.72-5.79,3.28-13.5-.8-1.78-3.06-2.83-3.28-4.96-.42-4.12,6.72-5.79,3.28-13.5-.8-1.78-3.06-2.83-3.28-4.96-.32-3.1,4.58-5.93,4.68-10.48.06-2.88-6.11-10.81.83-12.91,7.12-2.15,8.2,4.44,11.31,4.44,3.05,0,4.37-6.88,12.47-4.42,7.97,2.42-3.1,10.56,3.64,17.13,5.41,5.28,6.46-.41,10.38-.11,6.75.52,5.14,12.87-2.08,11.44-1.84-.37-2.12-3.74-5.38-2.86-4.33,1.16-5.64,6.35-2.83,9.92,4.16,5.27,5.94.47,9.27.04,8.16-1.05,8.48,11.33-.3,11.32-2.71,0-2.82-3.7-6.14-2.81-7.39,1.97-4.33,13.93,2.59,12.04,2.32-.63,2.79-3.28,6.64-1.51,6.2,2.84,2.94,10.25-3.08,10.79-2.5.22-2.78-3.75-6.16-2.85-7.39,1.99-4.34,13.92,2.59,12.04,1.01-.28,1.95-1.58,2.96-1.86,5.21-1.43,7.85,4.52,4.95,8.52-4.69,6.46-7.24-1.83-11.3.17-6.81,3.36-2.73,13.3,3.39,11.64,1.01-.28,1.95-1.58,2.96-1.86,7.38-2.02,9.06,11.15.59,11.09-2.73-.02-2.82-3.69-6.14-2.8-5.95,1.59-5.32,10.67-.31,12.12,2.13.62,14.77-6.39,13.09,4.15-1.22,7.64-10.63,1.87-11.99,1.96-7.69.53-5.82,11.12-1.9,15.4l-7.87,11.32c8.14,7.93-4.1,15.86-6.97,4.99l4.15-4.76c-1.57-6.16-9.12-7.55-11.58-1.4-1.57,3.93,6.58,10.06-3.11,13.02-6.42,1.96-8.08-4.18-11-4.19-3.58,0-10.75,11.65-17.84-1.69l3.38-4.58c-.98-9.23-11.52-4.69-8.67,1.65.88,1.95,4.03,1.66,1.63,5.05-3.15,4.46-9.93,3.74-11.25-1.23-1.03-3.87,5.39-7.51-.19-12.39-6.11-5.34-13.73,3.1-16.7-2.92-3.14-6.35,3.31-8.36,2.95-12.07s-6.27-3.72-4.46-11.36c.61-2.59,3.43-4.01,3.26-7.08-.14-2.68-2.69-4.18-3.23-6.15-1.78-6.56,3.44-8.46,3.23-12.32-.14-2.69-2.69-4.18-3.23-6.15-1.78-6.56,3.44-8.47,3.23-12.32-.15-2.69-2.69-4.18-3.23-6.15-1.78-6.56,3.44-8.47,3.23-12.32-.15-2.69-2.69-4.18-3.23-6.15-1.78-6.56,3.44-8.47,3.23-12.32-.15-2.69-2.7-4.18-3.23-6.15-2-7.42,4.38-9.57,4.38-12.39,0-2.49-5.01-5.22-3.34-10.2,1.1-3.28,6.22-3.21,8.72-1.54ZM805.78,33.41c2.52,2.59,10.81-.87,8.41-5.51-3.09-5.96-12.94.85-8.41,5.51ZM870.22,29.95c0-2.27-1.84-4.12-4.12-4.12s-4.12,1.84-4.12,4.12,1.84,4.12,4.12,4.12,4.12-1.84,4.12-4.12ZM834.24,47.62c-1.82-1.31-7.39,1.35-6.82,3.92,1.39,6.22,12.08-.12,6.82-3.92ZM811.25,52.14c2.2-2.05-4.62-5.17-4.59-1.73.01,1.19,3.82,2.44,4.59,1.73ZM834.24,66.09c-1.82-1.31-7.39,1.35-6.82,3.92,1.39,6.22,12.08-.12,6.82-3.92ZM811.25,70.61c2.2-2.05-4.62-5.17-4.59-1.73.01,1.19,3.82,2.44,4.59,1.73ZM834.24,84.56c-1.82-1.31-7.39,1.35-6.82,3.92,1.39,6.22,12.08-.12,6.82-3.92ZM811.25,89.08c2.2-2.05-4.62-5.17-4.59-1.73.01,1.19,3.82,2.44,4.59,1.73ZM834.24,103.03c-1.82-1.31-7.39,1.35-6.82,3.92,1.39,6.22,12.08-.12,6.82-3.92ZM811.25,107.55c2.2-2.05-4.62-5.17-4.59-1.73.01,1.19,3.82,2.44,4.59,1.73ZM834.23,121.51c-3.3-2.39-10.94,4.72-3.46,6.29,4.12.87,5.8-4.6,3.46-6.29ZM811.25,126.02c2.2-2.05-4.62-5.17-4.59-1.73.01,1.19,3.82,2.44,4.59,1.73ZM851.81,141.46c0-2.58-2.09-4.67-4.67-4.67s-4.67,2.09-4.67,4.67,2.09,4.67,4.67,4.67,4.67-2.09,4.67-4.67ZM805.49,141.04l1.75,5.76,5.16-2.9-6.92-2.86ZM851.4,163.78c0-1.97-1.6-3.56-3.56-3.56s-3.56,1.6-3.56,3.56,1.6,3.56,3.56,3.56,3.56-1.6,3.56-3.56Z" style="fill:#daff3e;"/><path d="M713.92,20.19c1.08.71,1.88,3.91,4.44,3.99,6.25-7.3,12.44-7.36,18.44.24,5.96-7.62,12.53-7.6,18.47,0,2.72-4.77,12.23-9.01,14.25-1.45,1.11,4.15-2.51,5.68-2.78,7.79-.56,4.37,4.07,6.79,4.24,10.42s-2.95,5.72-2.54,10.39c.34,3.89,4.83,7.14,4.53,9.02-.33,2.1-4.88,5.14-4.25,9.18,1.78,11.51,15.41,1.73,16.06,8.35.85,8.72-9.84,1.95-10.46,2.22-4.42,1.92-6.28,10.29-1.16,12.81,4.39,2.15,6.51-4.35,11.02.49,3.54,3.81.04,9.35-3.49,9.3-1.98-.03-9.21-6.6-9.7,2.88-.35,6.81,7.39,4.97,11.43,3.3,7.45,1.94,4.46,14.21-1.52,13.17-1.35-.23-8.91-5.06-8.91,1.99,0,7.21,8.79,1.47,11.22,2.56,10.77,4.82.83,12.76.51,16.11-.23,2.44,6.84,4.64,4.21,13.42-.59,1.96-4.02,3.77-3.99,6.02.02,2.06,3.7,3.81,3.13,8-.8,5.84-7.18,4.4-9.91.66-2.27-3.68,3.71-4.89,2.83-8.44-1.3-5.23-12.88-4.16-11.21,2.93.6,2.54,4.1,2.92.4,6.7s-11.17,1.15-11.03-2.91c.09-2.8,5.23-4.72-.53-9.86-6.47-5.77-10.12,3.57-14.33-2.98-3.07-4.78-.52-9.37,3.31-12.58l-9.78-8.7c-14.96,6.49-.1,14-6.33,22.26-4.8,6.37-9.74-2.73-15.57,3.2-4.95,5.03,4,7.62-1.81,12.06-2.74,2.09-5.28,2.3-7.98-.01-4.29-3.68-.78-4.87-.3-7.17,1.26-6.06-6.35-7.27-10.53-4.99l-1.44,2.33,3.95,5.43c-3.21,11.61-16.02,1.5-5.52-4.83-5.94-9.25-9.03-12.68,1.07-20.73-4.21-3.48-8.6-9.06-3.38-13.79,4.22-3.83,10.36,4.94,13.39-4.68-2.9-9.52-7.46-1.82-11.11-3.41-5.69-2.49-3.61-10.5,1.88-10.82,2.01-.12,3.64,3.75,7.69,1.04,2.66-1.78,2.93-9.43-.38-11.1-3.07-1.55-4.83,1.73-7.01,1.29-4.13-.85-6.36-6.01-1.37-7.4,3.15-.87,9.74,2.81,11.63-3.29,2.24-7.19-3.65-8.83-3.3-12.42.34-3.59,6.97-4.57,4.45-12.53-.56-1.78-3.16-2.64-3.22-4.81-.11-3.67,5.97-6.31,4.38-12.44-.5-1.93-3.03-3.34-3.23-6.14-.32-4.61,4.22-6.12,4.67-9.23.52-3.68-3.28-5.88-2.42-10.3.7-3.6,6.02-4.46,8.92-2.54ZM721.14,26.83c-1.21-1.72-9.93-1.42-6.28,4.54,3.17,5.19,8.31-1.68,6.28-4.54ZM739.59,32.43c1.23-2.12-.07-8.04-3.93-6.82-1.82.57-2.39,5.55-1.65,6.82.47.81,5.11.81,5.58,0ZM754.13,25.6c-2.9.88-2.73,9.5,2.18,7.97,4.26-1.33,2.4-9.35-2.18-7.97ZM738.53,49.84h-3.45c.02,4.23,3.43,4.23,3.45,0ZM741.79,69.77c0-2.61-2.12-4.73-4.73-4.73s-4.73,2.12-4.73,4.73,2.12,4.73,4.73,4.73,4.73-2.12,4.73-4.73ZM733.04,82.44c-2.87,5.08-2.21,13.09,4.68,13.44,8.99-4.89,5.76-18.13-4.68-13.44ZM742.27,104.66c0-2.95-2.39-5.33-5.33-5.33s-5.33,2.39-5.33,5.33,2.39,5.33,5.33,5.33,5.33-2.39,5.33-5.33ZM700.31,142.77c0-1.84-1.49-3.33-3.33-3.33s-3.33,1.49-3.33,3.33,1.49,3.33,3.33,3.33,3.33-1.49,3.33-3.33ZM748.93,145.63c9.46,4.76,8.53-8.34,2.28-5.19-1.83.92-2.64,3.21-2.28,5.19ZM777.77,141.04c-5.77-.44-5.77,3.89,0,3.45v-3.45Z" style="fill:#daff3e;"/><path d="M908.51,156.89c-5.76-5.47,1.85-9.55.88-15.22-.51-2.96-4.71-4.88-4.62-8.17.07-2.56,5.45-5.08,5.5-9.42.02-2.09-2.59-3.63-3.05-5.83-1.55-7.31,9.34-10.45,11.45-1.98l-3.07,6.34c2.31,7.75,13.93,4.91,10.51-2.34-.85-1.81-2.73-.99-2.13-4.33.69-3.86,2.94-6.16,6.26-7.89.38-2.43-4.77-7.82-6.68-8.38-3.95-1.17-12.88,5.54-15.14-.96-2.23-6.43,2.88-8.93,3-10.18.21-2.27-5-5.14-5.52-8.16-.91-5.37,3.22-6.79,3.48-10.41.33-4.64-4.39-6.3-4.68-9.22-.36-3.59,4.86-5.42,4.77-10.36-.08-4.58-7.36-8.01-.89-14.03,5.9-5.5,10.63,4.33,16.36-1.55,4.96-5.09-6.35-14.29,5.22-16.79,5.82-1.26,6.9,4.14,9.81,4.16,3.02.01,3.83-6.12,11.51-4.65,3.29.63,4.41,4.66,6.96,4.65,2.78-.01,7.94-9.07,13.8-2.31,4.99,5.75-3.88,9.72,1.23,14.94,6.11,6.25,11.57-5.75,17.26,2.36,5.15,7.34-1.73,8.62-1.8,13.21-.08,4.93,5.12,6.76,4.78,10.36l-7.04,9.3c4.22,5.28,5.78,10.25-1.68,13.3-11.29-5.21-1.32-9.46-.76-12.32.96-4.91-8.81-8.5-12.6-3.38-3.55,4.8,2.27,6.07,2.52,10.47.27,4.89-3.37,5.41-3.65,8.13-.34,3.3,4.58,7.31,7.68,7.48,3.8.21,4.15-3.87,7.7-3.34,3.14,1.03,5.48,3.3,6.44,6.46-3.37,8.41-5.49,11.61,2.42,18.36.3,1.7-2.86,3.49-3.67,5.33-3.78,8.58,3.79,9.68,3.79,12.99,0,2.31-5.21,4.95-5.6,9.53-.38,4.44,7.19,9.12.9,14.67-5.63,4.96-9.07-3.42-15.62.56-6.49,3.95.2,9.09-.94,12.79-5.18,10.57-12.19-.06-15.14-.07-3.02-.01-3.83,6.13-11.51,4.65-3.27-.63-4.36-4-6.95-5.48-3.16-.24-7.37,9.71-13.33,2.65-5.36-6.35,5.69-7.9-1.67-14.49-6.45-5.77-11.22,3.54-16.47-1.44ZM942.67,30.17c0-1.71-1.38-3.09-3.09-3.09s-3.09,1.38-3.09,3.09,1.38,3.09,3.09,3.09,3.09-1.38,3.09-3.09ZM961.86,30.29c0-1.68-1.36-3.04-3.04-3.04s-3.04,1.36-3.04,3.04,1.36,3.04,3.04,3.04,3.04-1.36,3.04-3.04ZM946.14,51.8c0-2.61-2.12-4.73-4.73-4.73s-4.73,2.12-4.73,4.73,2.12,4.73,4.73,4.73,4.73-2.12,4.73-4.73ZM962.37,51.63c0-2.78-2.25-5.03-5.03-5.03s-5.03,2.25-5.03,5.03,2.25,5.03,5.03,5.03,5.03-2.25,5.03-5.03ZM941.32,62.71c-9.54.79-3.72,16.78,3.88,9.69,4.37-4.07-.97-9.93-3.88-9.69ZM962.14,64.05c-4.87-3.99-9.91.85-11.91,5.47,6.13,14.23,21.26,2.19,11.91-5.47ZM963.59,85.85c0-2.5-2.03-4.53-4.53-4.53s-4.53,2.03-4.53,4.53,2.03,4.53,4.53,4.53,4.53-2.03,4.53-4.53ZM923.16,88.92c0-1.97-1.6-3.57-3.57-3.57s-3.57,1.6-3.57,3.57,1.6,3.57,3.57,3.57,3.57-1.6,3.57-3.57ZM943.72,111.89c4.72-6.65-3.82-13.92-9.47-7.74-4.8,5.26,5.11,12.1,9.47,7.74ZM961.17,105.36c-.75-.87-3.26-3.26-5.62-.11-2.09,2.79,3.92,6.5,5.62,3.36.42-.78.57-2.59,0-3.26ZM939.05,116.92c-5.28,1.35-5.87,10.33-.54,12.87,5.73,2.72,5.72-1.5,8.62-2.41,5.91-1.85,6.84,4.29,10.11,4.39,6.03.18,8.25-9.46,2.93-12.1-5.61-2.78-6.87,3.12-10.86,2.92-4.5-.22-6.79-6.55-10.26-5.67ZM953.41,145.48c1.59,2.52,10.7,1.78,8.89-4.77-2.45-8.87-12.88-1.56-8.89,4.77ZM945.59,141.94c0-2.37-1.92-4.29-4.29-4.29s-4.29,1.92-4.29,4.29,1.92,4.29,4.29,4.29,4.29-1.92,4.29-4.29ZM943.86,163.92c0-2.42-1.97-4.39-4.39-4.39s-4.39,1.97-4.39,4.39,1.97,4.39,4.39,4.39,4.39-1.97,4.39-4.39ZM962.7,163.7c0-2.22-1.8-4.02-4.02-4.02s-4.02,1.8-4.02,4.02,1.8,4.02,4.02,4.02,4.02-1.8,4.02-4.02Z" style="fill:#daff3e;"/><path d="M1074.15,48.97c-3.08-3.04-10.33-1.84-10.22,3.76.07,3.54,4.42,5.25,1.36,9.31-5.78,7.65-11.37-1.18-17.13,1.25-3.93,1.66-4,11.63,2.74,11.91,4.98.21,6.78-4.59,12.64-1.19.65.38,4.98,4.97,5.06,5.4.34,1.97-3.44,2.81-3.38,6.66.11,7.08,10,6.12,10.46,1.23.35-3.76-3.24-4.38-4.17-6.34-2.29-4.84,5.42-8.94,10.24-5.84,4.56,4.95-.68,7.93-2.73,12.2-.01,3.09,12.06,8.82,2.32,16.13-6.71,5.04-6.2-4.48-13.79-1.11-7.96,3.54.9,10.78-2.26,15.08-4.82,6.57-12.06-.24-15.4.65-5.95,1.58-6.31,13.11,2.08,12.62,2.65-.15,3.83-2.01,5.82-2.37,5.91-1.05,7.61,3.58,11.46,6.89,3.36-3.73,9.02-10.15,13.36-4.11,3.46,4.82-.74,7.35-1.24,10.57-1.05,6.72,5.83,7.47,5.85,10.28-.58,2.97-3.74,4.06-5.16,6.47-3.79,6.4.39,5.51,1.43,8.8,2.01,6.36-4.62,9.31-9.72,6.21-4.35-4.27.18-5.85,1.29-8.24,3.25-7.02-10.09-10.04-11.04-2.75-.44,3.37,1.6,4.11,2.12,6.02,2.13,7.89-12.04,8.61-12.53,1.91-.21-2.88,3.84-5.47,2.18-8.92-1.29-4.38-8.55-4.31-10.01,0-1.25,4.26,1.87,5.42,2.15,7.91.76,6.87-12.33,7.07-12.79,1-.22-2.97,3.46-4.55,2.18-8.92-1.46-4.31-8.71-4.38-10.01,0l1.89,7.01c1.99,7.38-10.51,8.44-11.36,1.9-.66-5.11,5.73-6.25-.48-13.24-5.4-6.08-5.28-1.08-8.38-.13-7.64,2.34-11.62-6.87-6.11-9.64,5.5-2.76,7.29,2.93,9.61,2.74,6.02-.52,8.18-11.41,1.95-13.24-3.91-1.15-5.83,2.98-9.65,2.7-10.23-.75-6.81-14.17,3.05-11.01,2.25.72,2.31,3.62,5.45,2.81,6.22-1.6,6.74-12.43.27-13.25-2.51-.32-16.53,8.58-14.17-4.19,1.64-8.86,12.31-.69,13.09-.75,6.03-.52,8.18-11.4,1.95-13.25-3.81-1.13-6.26,3.89-11.56,1.28l-2.16-2.54c-.66-2.69,1.95-6.03,4.43-6.82,4.37-1.38,4.52,2.42,6.55,2.84,5.05,1.05,9.14-9.02,4.36-12.43-4.44-3.29-6.58,2.43-11.2.87-4.86-2.09-4.29-9.34,1.19-10.04,3.86-.49,5.38,6.32,10.17,1.05,3.48-3.83,2.26-11.84-3.54-11.54-2.73.14-7.82,5.25-12.18.31l-1.02-3.29c.26-3.3,5.43-5.86,8.35-5.01,2.74.8,2.88,5.51,7.72,1.54,4.37-3.58,3.17-12.33-2.87-12.03-1.59.08-2.93,1.93-4.69,2.24-8.93,1.6-9.69-7.73-1.95-10.23l6.45,3.16c3.09-.27,8.14-6.4,7.48-9.51-.5-2.35-6.36-4.21-1.45-9.91,5.89-6.85,10.66,3.46,13.8,3.46,8.59-7.15,9.88-7.15,18.47,0,8.59-7.15,9.88-7.15,18.47,0,1.86,0,11.14-11.42,14.22-1.55,1.82,5.84-6.85,12.71,3.4,19.38l-6.5,9.52c-.47,3.17,3.21,4.75,3.23,7.8.05,8.13-13.49,6.49-11.3-.9.62-2.08,5.96-4.58,1.86-8.62ZM1036.84,29.9c0-2.51-2.03-4.54-4.54-4.54s-4.54,2.03-4.54,4.54,2.03,4.54,4.54,4.54,4.54-2.03,4.54-4.54ZM1054.65,33.5c2.58-4.07-1.91-10.93-6.84-7.41-1.34.96-1.63,6.27-.9,7.41.86,1.35,6.89,1.35,7.74,0ZM1074.39,30.18c0-2.69-2.18-4.88-4.88-4.88s-4.88,2.18-4.88,4.88,2.18,4.88,4.88,4.88,4.88-2.18,4.88-4.88ZM1055.82,51.92c0-2.33-1.89-4.22-4.22-4.22s-4.22,1.89-4.22,4.22,1.89,4.22,4.22,4.22,4.22-1.89,4.22-4.22ZM1054.74,86.44c0-1.86-1.51-3.37-3.37-3.37s-3.37,1.51-3.37,3.37,1.51,3.37,3.37,3.37,3.37-1.51,3.37-3.37ZM1055.92,107.34c0-2.35-1.9-4.25-4.25-4.25s-4.25,1.9-4.25,4.25,1.9,4.25,4.25,4.25,4.25-1.9,4.25-4.25ZM1074.42,141.02c0-2.7-2.19-4.9-4.9-4.9s-4.9,2.19-4.9,4.9,2.19,4.9,4.9,4.9,4.9-2.19,4.9-4.9ZM1054.8,141.84c0-1.9-1.54-3.44-3.44-3.44s-3.44,1.54-3.44,3.44,1.54,3.44,3.44,3.44,3.44-1.54,3.44-3.44Z" style="fill:#daff3e;"/><circle cx="1391.72" cy="79.48" r="5.79" style="fill:#daff3e;"/><path d="M835.16,20.06c13.93-4.22,5.2,19.38-4.19,4.8-.26-1.52,2.8-4.38,4.19-4.8Z" style="fill:#daff3e;"/><path d="M1395.17,110.03c2.96,1.85,1.36,13.4-5.62,9.69s-.81-13.71,5.62-9.69Z" style="fill:#daff3e;"/><circle cx="1077.58" cy="113.99" r="5.1" style="fill:#daff3e;"/><circle cx="1318.73" cy="24.08" r="5.05" style="fill:#daff3e;"/><circle cx="1152.93" cy="169.46" r="4.97" style="fill:#daff3e;"/><circle cx="1280.83" cy="169.54" r="4.93" style="fill:#daff3e;"/><circle cx="1245.51" cy="169.77" r="4.74" style="fill:#daff3e;"/><circle cx="1207.39" cy="24.13" r="4.68" style="fill:#daff3e;"/><circle cx="1409.35" cy="152.16" r="4.42" style="fill:#daff3e;"/><circle cx="1409.43" cy="41.36" r="4.38" style="fill:#daff3e;"/><circle cx="726.32" cy="168.99" r="4.41" style="fill:#daff3e;"/><circle cx="985.01" cy="24.51" r="4.27" style="fill:#daff3e;"/><circle cx="1097.26" cy="23.85" r="4.12" style="fill:#daff3e;"/><path d="M982.21,165.39c3.46-2.39,10.42,4.42,4.49,7.44-5.16,2.63-7.09-5.64-4.49-7.44Z" style="fill:#daff3e;"/><path d="M895.22,26.46c-2.65,2.63-9.17.82-6.06-4.33,2.99-4.96,10.31.11,6.06,4.33Z" style="fill:#daff3e;"/><path d="M751.15,166.51c1.8,2.56-2.19,7.35-5.08,6.84-1.77-.32-2.44-5.49-1.62-6.78.7-1.11,6.02-1.03,6.7-.06Z" style="fill:#daff3e;"/><path d="M895.4,149.23c3.55,5.57-7.09,7.93-7.88,2.62-.57-3.77,6.57-4.68,7.88-2.62Z" style="fill:#daff3e;"/><path d="M910.56,21.01c1.74-3.62,6.11.11,5.84,1.6-.84,4.55-7.25,1.34-5.84-1.6Z" style="fill:#daff3e;"/><circle cx="1207.01" cy="170.03" r="3.58" style="fill:#daff3e;"/><circle cx="1319.32" cy="170.06" r="3.57" style="fill:#daff3e;"/><circle cx="1097.18" cy="169.87" r="3.45" style="fill:#daff3e;"/><path d="M1008.64,26.74c-.91.98-4.49.02-5.26-1.08-.67-.95-1.23-3.76-.47-4.65.66-.77,3.15-.66,4.04-.17,1.34.74,2.73,4.77,1.69,5.89Z" style="fill:#daff3e;"/><circle cx="1410.18" cy="134.27" r="2.99" style="fill:#daff3e;"/><circle cx="1005.59" cy="170.29" r="2.84" style="fill:#daff3e;"/><circle cx="1410.34" cy="170.44" r="2.63" style="fill:#daff3e;"/><circle cx="1409.77" cy="97.17" r="2.61" style="fill:#daff3e;"/><circle cx="1410.34" cy="59.62" r="2.63" style="fill:#daff3e;"/><path d="M783.54,61.37c-.77.97-5.27,1.31-4.6-1.71.78-3.57,6.26-.39,4.6,1.71Z" style="fill:#daff3e;"/><path d="M915.14,167.59c.27,2.13.07,3.39-1.74,4.6h-1.71s0-4.6,0-4.6h3.45Z" style="fill:#daff3e;"/><rect x="691.21" y="77.55" width="3.45" height="2.3" style="fill:#daff3e;"/><circle cx="1299.56" cy="78.67" r="1.43" style="fill:#daff3e;"/><circle cx="1299.56" cy="134.08" r="1.43" style="fill:#daff3e;"/><circle cx="1299.56" cy="152.55" r="1.43" style="fill:#daff3e;"/><circle cx="1299.56" cy="115.61" r="1.43" style="fill:#daff3e;"/><circle cx="1299.56" cy="97.14" r="1.43" style="fill:#daff3e;"/><circle cx="1410.37" cy="78.67" r="1.43" style="fill:#daff3e;"/><circle cx="1410.37" cy="117.77" r="1.43" style="fill:#daff3e;"/><circle cx="1409.43" cy="21.81" r="4.38" style="fill:#daff3e;"/><text transform="translate(0 163.97)" style="fill:#daff3e; font-family:&apos;AntarcticaVAR_16.000wdth_875.000wght_1.000CNTR&apos;, &apos;Antarctica VAR&apos;; font-size:189.02px; font-variation-settings:&apos;wdth&apos; 16, &apos;wght&apos; 875, &apos;ital&apos; 1, &apos;CNTR&apos; 1;"><tspan x="0" y="0">PRESENCI</tspan></text></g></svg>