<?xml version="1.0" encoding="UTF-8"?><svg id="Capa_2" xmlns="http://www.w3.org/2000/svg" viewBox="0 0 143.9 424.85"><defs><style>.cls-1{fill:#e2bf6d;}.cls-2{fill:#9c9c9b;}.cls-3{fill:#9ec9ad;}.cls-4{fill:#f2f2f1;}.cls-5{fill:#07742a;}.cls-6{fill:#c89d51;}.cls-7{fill:#e8e5e1;}.cls-8{fill:#e1dfde;}.cls-9{fill:#eae9e7;}.cls-10{fill:#078a31;}.cls-11{fill:#cfcec9;}.cls-12{fill:#dddddb;}.cls-13{fill:#6daf74;}</style></defs><g id="Layer_1"><path class="cls-12" d="M137,51.6c2.74,32.25,2.95,61.67,3.04,94.01-5.05,3.15-3.03,11.51-3.1,16.64-.26,20.5,1.99,39.78,3.1,59.18,2.65,46.43,5.05,94.2,3.19,141.17-.71,18.03-5.28,36.76-3.62,55.53-23.2,6.1-47.43,7.08-71.36,6.62-3.94-.07-6.92-3.14-7.37-3.16v-3.03c8.84-5.23,7.77-34.39,6.33-44.07-1.2-8.05-10.8-4.56-9.36-13.55,1.2-1.21,11.52,6.65,15.17-1.57,1.17-2.63-3.98-5.39-6.06-10.57l3.04-3.03h24.36c-.11.99.01,2.03,0,3.03,0,.22-2.23.7-2.22,3.72.09,20.71,6.9,45.61-.82,66l23.93-3.43c-.69-30.17-1.55-60.47-2.62-90.55,18.96-4.54,11.95-23.99,12.11-35.03.71-50.92-1.5-106.17-6.02-156.03-.09-1,.12-2.04,0-3.03-.24-1.97.24-4.09,0-6.07,6.77-.35,9.62,2.53,8.95-4.32-1.92-19.42-7.5-11.15-11.99-13.88-4-2.43.33-18.35.11-22.59-.55-10.64-6.52-20.18-.11-32,7.35.62,13.81,3.73,21.31,0ZM82.19,385.22c-6.08-.22-6.15-1.56-5.92,4.54.21,5.6.37,26.33,2.94,28.79,1.71,1.63,6.49,2.17,5.38-3.81-1.87-10.09-3.62-19.15-2.39-29.52Z"/><path class="cls-11" d="M115.69,3.08c5.67.79,12.41-.58,18.28-.02-2.11,16.53,1.66,32.44,3.03,48.54-7.51,3.73-13.97.62-21.31,0-2-.17-4.07.07-6.09,0-18.32-.65-36.42-.28-54.8,0,0-4.04,0-8.09,0-12.13,4.38-.47,13.83-.3,12.16-7.54-1.18-5.12-10.23-3.64-12.16-4.59-1.29-.63-3.64-7.42-9.13-6.07.12-.09.19-2.34,0-3.03l7.74-2.85c3.33,11.3,7.52,3.71,13.57,2.85,9.48-1.36,9.2-1.02,18.27,0,1.97.22,4.52-.44,6.09,0l-3.03,21.21c5.15,2.26,12.5-3.04,15.21-3.02,7.22.05,13.28,7.61,21.29,6.08,3.26-24.53,9.11-27.49-18.25-27.31-.25-6.16,4.99-8.58,9.13-12.13Z"/><path class="cls-12" d="M12.18,15.21c.15,1.98-.27,4.14,0,6.07,3.6,25.48,3.73,18.7,24.36,18.2,5.95-.14,12.56.61,18.27,0v-12.13c1.93.95,10.98-.52,12.16,4.59,1.67,7.24-7.78,7.07-12.16,7.54,0,4.04,0,8.09,0,12.13-7.09.11-13.99-.31-21.31,0-8.22.34-16.73-1.59-24.36,3.03h-3.04c.99-11.49-3.31-42.13,3.04-48.52,4.06,1.51,2.79,5.8,3.04,9.1Z"/><path class="cls-6" d="M115.69,3.08c-4.14,3.55-9.39,5.97-9.13,12.13-2.93.02-6.47-.42-9.13,0-3.22-14.8-15.9-12.83-12.18,3.03-9.06-1.02-8.78-1.36-18.27,0l-6.09-15.16c21.61-.4,30.47-3.37,54.8,0Z"/><path class="cls-4" d="M9.14,54.63c-4.76,22.56-2.27,45.46-3.04,68.37-.2,5.84,3.1,12.17-6.09,10.48.54-27.62,3.82-52.58,6.09-78.85h3.04Z"/><path class="cls-1" d="M60.89,3.08l6.09,15.16c-6.05.87-10.24,8.45-13.57-2.85l-7.74,2.85c-.06-.21-2.84-2.97-3.04-3.03V.04c7.94-.48,14.91,3.09,18.27,3.03Z"/><path class="cls-11" d="M140.05,221.43c-1.11-19.4-3.35-38.68-3.1-59.18.06-5.13-1.95-13.48,3.1-16.64.07,25.23-.05,50.59,0,75.82Z"/><path class="cls-6" d="M42.62.04v15.16c-1.5-.48-7.02-.25-9.13,0-.18-2.88-3.82-3.28-6.09-3.03l-3.04-9.1C30.93,1.81,35.51.48,42.62.04Z"/><path class="cls-4" d="M0,203.24C0,185.08,0,166.81,0,148.65c4.45,11.5,4.51,32.23,3.26,44.31C2.7,198.38.04,202.7,0,203.24Z"/><path class="cls-11" d="M24.36,3.08l3.04,9.1c-4.87.52-9.97,3.31-15.22,3.03-.25-3.3,1.02-7.59-3.04-9.1,5.47-5.51,9.58-1.94,15.22-3.03Z"/><path class="cls-12" d="M27.4,415.53c3.96.34,8.2,2.65,12.18,3.03v3.03c-10.78-.96-19.15.95-30.45-3.03v-3.03c5.96,0,12.42-.5,18.27,0Z"/><path class="cls-8" d="M48.71,418.56c4.06.04,8.12-.03,12.18,0v3.03c-7.03-.27-14.34.62-21.31,0v-3.03c2.97.28,6.13-.03,9.13,0Z"/><path class="cls-8" d="M9.14,415.53v3.03c-2.67-.94-3.52-.05-6.09-3.03h6.09Z"/><path class="cls-12" d="M85.25,279.06c10.64-.37,8.41-1.88,9.14,7.43s1.6,31.66.2,39.43c-.77,4.29-10.38-1.51-9.33,4.66l12.16,6.1c-1.04.07-2.16-.2-3.04,0-1.43.32-2.57,1.64-3.04,3.03-11.73,6.58-36.09-14.34-39.58,6.07h-21.31c.12-3.57,2.96-8.23,3.04-12.13,15.93,7.45,10.99-2.08,12.18-3.03.65-.52,6.74.16,9.13,0,6.04-.41,12.21.28,18.27,0,2.87-.13,9.03,1.3,9.16-1.52-9.17-2.91-6.44-7.89-9.16-13.65,5.34.08,6.92-1.78,9.13-6.07,4.05-7.84-.25-12.37,0-15.16.42-4.79,3.31-9.97,3.04-15.16Z"/><path class="cls-3" d="M24.36,109.22c2.04,8.85,7.49,16.44-2.98,20.2l-.06,4.06c-1.34-.39-4.08.94-5.56-.51s-.09-4.36-.53-5.55c5.39-7.15,17.78-9.21,0-9.1.4-1.86-.58-5.13,0-6.07.11-.18,2.84-2.96,3.04-3.03,1.35-.48,4.13.21,6.09,0Z"/><path class="cls-13" d="M39.58,221.43l24.34.03c-3.85,7.5-18.33-2.12-21.3,9.07-.59,2.22-.32,9.34,0,12.13h-6.09c.65-.71-.56-4.38,0-6.07,2.09-6.27,2.35-8.93,3.04-15.16Z"/><path class="cls-9" d="M100.47,242.66l12.13-1.57c-4.59,26.44-.93,56.02.05,83.45,1.07,30.08,1.94,60.38,2.62,90.55l-23.93,3.43c7.72-20.39.91-45.29.82-66-.01-3.02,2.22-3.51,2.22-3.72h15.24s0-12.12,0-12.12c-4.03.1-8.17-.3-12.19-.01l-12.16-6.1c-1.05-6.18,8.55-.37,9.33-4.66,1.4-7.77.51-30.47-.2-39.43s1.5-7.81-9.14-7.43v-3.03c6.87-3.68,5.8-5.48,6.09-12.13.04-.99.06-2.04,0-3.03,7.38,3.06,8.05-10.99,9.13-18.2Z"/><path class="cls-9" d="M97.43,115.29c3.48,3.46-.11,15.35-9.12,13.63,5.73,8.75,6.79-.21,12.16-1.5,2.33-.56,9.45-.37,12.18,0,.97.13,3.79,3.27,6.09,3.03.12.99-.09,2.03,0,3.03-10.25,10.67-8.65,35.6-9.34,49.8-.12,2.37-2.82,4.29-2.84,4.79h-9.13c-3.1-12.62.59-18.66-15.22-21.23-.69-4.97,1.27-11.71.08-16.16-.95-3.52-5.89-1.7-6.17-2.04-1.32-1.65-.58-8.25-6.09-9.1.2-.94-.12-2.03,0-3.03.23-1.93-.03-4.08,0-6.07h3.04c1.76-.4,5.15.6,6.09,0l2.98-1.52-2.98-1.52c.21-.81.01-2.04,0-3.03l12.17-.02-3.03-9.05c2.45.29,8.56-.59,9.13-.03Z"/><path class="cls-9" d="M109.6,51.6c-2.79,15.18-6.02,43-3.04,57.62.26,1.27-.33,2.47,1.52,2.97,1.88.09,1.37-2.9,1.52-2.97,2.04-1,4.05-2.05,6.09-3.03,4.49,2.73,10.07-5.55,11.99,13.88.68,6.85-2.17,3.97-8.95,4.32-.35-2.96.27-6.11-.02-9.08-3.66-1.32-5.73,2.97-6.07,3.02-2.12.32-7.28.44-9.13,0-.33-.08-5.81-2.84-6.09-3.03-.3-.21,1.48-5.24-2.01-6.13-5.29-1.36-13.4.93-19.3.07-.17-.52-5.74-8.67-6.09-9.1l4.12-.06c2.98-10.44,8.48.26,11.11-6.01.29-.69-.12-1.95,0-3.03.96-8.78,3.62-31.6-9.18-22.7l2.95,19.55-18.13,3.15c-4.31-5.63-12.27-1.52,3.08-10.61-14.26.51-9.17-16.15-9.16-28.81,18.38-.28,36.48-.65,54.8,0Z"/><path class="cls-8" d="M112.65,324.55c-.98-27.43-4.64-57.01-.05-83.45l-12.13,1.57c.14-.97-.03-2.04,0-3.03.07-2.02-.05-4.05,0-6.07,1.01-.07,2.03.07,3.04,0,2.01-.14,4.07.2,6.08.02.23-4.03-.2-8.11,0-12.15.52-10.28-3.12-22.32-3.04-27.29.03-2.02-.06-4.05,0-6.07.02-.5,2.72-2.42,2.84-4.79.69-14.2-.91-39.13,9.34-49.8,4.52,49.86,6.73,105.12,6.02,156.03-.15,11.03,6.85,30.49-12.11,35.03Z"/><path class="cls-4" d="M51.76,345.78h12.18c.68,1.15,2.69,2.14,3.04,3.03,2.08,5.18,7.23,7.94,6.06,10.57-3.65,8.22-13.97.36-15.17,1.57-1.44,8.99,8.16,5.49,9.36,13.55,1.44,9.67,2.51,38.83-6.33,44.07-4.06-.03-8.12.04-12.18,0-5.41-23.8-2.26-48.53-3.04-72.79h6.09Z"/><path class="cls-8" d="M115.69,51.6c-6.41,11.82-.44,21.36.11,32,.22,4.24-4.12,20.16-.11,22.59-2.04.98-4.05,2.04-6.09,3.03h-3.04c-2.97-14.62.25-42.44,3.04-57.62,2.02.07,4.09-.17,6.09,0Z"/><path class="cls-2" d="M91.34,339.71h3.04c3.99,3.69.04,5.72,0,6.07h-42.62c3.49-20.4,27.85.51,39.58-6.07Z"/><path class="cls-8" d="M82.19,385.22c-1.22,10.37.52,19.43,2.39,29.52,1.11,5.99-3.67,5.45-5.38,3.81-2.57-2.46-2.73-23.19-2.94-28.79-.23-6.1-.16-4.76,5.92-4.54Z"/><path class="cls-5" d="M112.65,118.32c.34-.05,2.41-4.34,6.07-3.02.29,2.97-.33,6.13.02,9.08.24,1.97-.24,4.09,0,6.07-2.3.24-5.12-2.9-6.09-3.03v-9.1Z"/><path class="cls-9" d="M106.56,15.21c27.36-.18,21.51,2.78,18.25,27.31-8.01,1.53-14.08-6.03-21.29-6.08,1.37-9.15-.35-10.18-6.09-15.16-.26-1.94.39-4.29,0-6.07,2.66-.42,6.2.02,9.13,0Z"/><path class="cls-4" d="M42.62,15.21c.21.07,2.99,2.83,3.04,3.03.19.69.12,2.94,0,3.03-6.43,4.97-12.06,1.46-9.13,18.2-20.62.5-20.76,7.29-24.36-18.2,6.85-.23,15.49-5.36,21.31-6.07,2.11-.25,7.63-.48,9.13,0Z"/><path class="cls-9" d="M45.67,21.27c5.5-1.36,7.85,5.43,9.13,6.07v12.13c-5.71.61-12.32-.14-18.27,0-2.93-16.74,2.7-13.23,9.13-18.2Z"/><path class="cls-12" d="M97.43,21.27c5.74,4.98,7.46,6.01,6.09,15.16-2.71-.02-10.06,5.27-15.21,3.02l3.03-21.21c.98.28,2.19-.32,3.04,0,.58.21,2.02,2.15,3.04,3.03Z"/><path class="cls-1" d="M97.43,15.21c-2.3.36-2.37.76-3.04,3.03-.85-.32-2.07.28-3.04,0-1.57-.44-4.12.22-6.09,0-3.72-15.86,8.96-17.84,12.18-3.03Z"/><path class="cls-9" d="M27.4,12.18c2.27-.24,5.91.16,6.09,3.03-5.82.7-14.46,5.84-21.31,6.07-.27-1.93.15-4.08,0-6.07,5.25.27,10.36-2.51,15.22-3.03Z"/><path class="cls-10" d="M97.43,206.27c.94,4.95,2.07,10.07,3.04,15.16.65,3.4,4.06,7.57,3.04,12.13-1.01.07-2.03-.07-3.04,0-20,1.44-38.05-4.22-57.85-3.03,2.97-11.18,17.44-1.56,21.3-9.07l-24.34-.03c.33-2.95-.39-6.18,0-9.1,7.89.82,4.44-.12,6.09-6.07h51.76Z"/><path class="cls-10" d="M63.94,166.85c5.13-.31,13.58-.76,18.27,0,15.82,2.57,12.13,8.61,15.22,21.23.47,1.92,2.33,4.04,3.04,6.07-1.01,0-2.03,0-3.04,0-16.62.13-32.17-.1-48.71,0-2.03.01-4.06,0-6.09,0,3.94-21.52-3.26-25.83,21.31-27.29Z"/><path class="cls-11" d="M60.89,91.03l18.13-3.15-2.95-19.55c12.8-8.89,10.14,13.93,9.18,22.7l-2.98,1.52,2.98,1.52c-2.63,6.26-8.12-4.43-11.11,6.01l-4.12.06c-1.12-1.37-4.18-2.62-9.13-9.1Z"/><path class="cls-7" d="M76.11,148.65c.27.34,5.22-1.49,6.17,2.04,1.2,4.45-.77,11.19-.08,16.16-4.68-.76-13.14-.31-18.27,0l6.12-4.55c-.08-2.77-3.71-1.28-6.12-1.52v-12.13c1.01-.05,2.03,0,3.04,0,3.04,0,6.09,0,9.13,0Z"/><path class="cls-12" d="M51.76,130.45c-4.47,9.52-11.36-.1-11.82-7.73-.05-.83,10.06-3.16,5.74-13.51l12.17,12.15v6.07c-1.9-.85-5.32-3.76-6.06-3.04-.5,1.85.54,4.87-.03,6.07Z"/><path class="cls-11" d="M76.11,109.22c5.9.86,14-1.42,19.3-.07,3.49.89,1.72,5.92,2.01,6.13-.57-.56-6.69.31-9.13.03l3.03,9.05-12.17.02c-.05-3.35.86-7.58-3.04-9.1.06-.98.08-2.06,0-3.03-.08-1.06.25-2.27,0-3.03Z"/><path class="cls-11" d="M103.52,118.32l-3.04,9.1c-5.37,1.29-6.44,10.25-12.16,1.5,9.01,1.71,12.6-10.17,9.12-13.63.28.19,5.76,2.95,6.09,3.03Z"/><path class="cls-13" d="M48.71,194.14c1.01,4.78-2.02,8.41-3.04,12.13-1.65,5.95,1.8,6.89-6.09,6.07.89-6.6,1.88-11.81,3.04-18.2,2.03,0,4.06.01,6.09,0Z"/><path class="cls-5" d="M76.11,112.26c.08.98.06,2.05,0,3.03-.27,4.54-3.53,10.03-3.04,15.16h-3.04c.03-1.98.19-4.1,0-6.07-.34-3.48.19-6.61-3.04-9.1v-3.03c3.04-.12,6.09.08,9.13,0Z"/><path class="cls-4" d="M76.11,148.65c-3.04,0-6.09,0-9.13,0-1.55-3.87,2.7-7.47,3.04-9.1,5.51.85,4.77,7.45,6.09,9.1Z"/><path class="cls-4" d="M63.94,148.65v12.13c-1.99-.2-4.08.22-6.08,0,.47-10.16-3.76-11.65,6.08-12.12Z"/><path class="cls-5" d="M63.94,121.35c-.28,2.98.22,6.09-.02,9.08-5.64,1.69-5.34-2.69-6.07-3.01v-6.07h6.09Z"/><path class="cls-11" d="M66.98,112.26v3.03c-3,.82-2.8,3.5-3.04,6.07h-3.04l-3.03-9.08c3.02-.13,6.09.11,9.12-.02Z"/><path class="cls-13" d="M36.52,127.4c-3.53,3.44-9.8-1.3-1.49-6.03,2.65-.38,1.71,5.82,1.49,6.03Z"/><path class="cls-10" d="M100.47,242.66c-1.08,7.21-1.76,21.26-9.13,18.2-.12-1.89-3.59-14.97-4.89-15.34-10.13,1.65-26.49-4.43-31.64,6.21l12.16,3.03-15.21.06c2.24,14.94,26.66,8.87,39.58,9.07-.29,6.65.78,8.45-6.09,12.13-1.24.67-4.06-.17-9.13,3.03-1.18.74-2.08,2.03-3.04,3.03-1.69-.28-4.28-.15-6.09,0-1.86.15-5.38-.47-6.09,0-.52-1.42-2.46-2.14-3.04-3.03-1.64-2.48-5.21-7.31-6.09-9.1-2.92-5.93-8.4-20.98-9.13-27.29,18.77,0,40.1,2.37,57.85-3.03-.03.99.14,2.07,0,3.03Z"/><path class="cls-4" d="M57.85,279.06c.15,3.01-.23,6.1,0,9.1.76,9.93,5.34,4.86,6.09,6.07.98,1.58,1.2,5.99,3.04,9.1l-6.08,6.03c3.28-.71,7.06,2.91,9.13,3.07l-6.09,15.16c-3.37,0-7.61-.83-9.13,3.03-2.39.16-8.48-.52-9.13,0,3.16-17.93-7.1-46.78,6.09-60.65.88,1.79,4.45,6.61,6.09,9.1Z"/><path class="cls-9" d="M73.07,315.45c2.72,5.76,0,10.74,9.16,13.65-.13,2.82-6.29,1.38-9.16,1.52-1.53-3.86-5.77-3.03-9.13-3.03l6.09-15.16c.98.08,2.06.05,3.04,0,.4.81-.39,2.2,0,3.03Z"/><path class="cls-13" d="M85.25,276.02v3.03c.26,5.19-2.62,10.38-3.04,15.16h-3.04c-.13-.95-3.31-3.77-3.04-6.07,1.19-.88,2.09-1.93,3.04-3.03,4.64-5.32,5.3-6.68-3.04-6.07,5.07-3.21,7.89-2.37,9.13-3.03Z"/><path class="cls-6" d="M82.2,309.38c-1.89.34-4.56-.5-6.09,0,2.73-4.57,3.78-9.92,3.04-15.16h3.04c-.25,2.79,4.05,7.32,0,15.16Z"/><path class="cls-7" d="M82.2,309.38c-2.22,4.29-3.79,6.14-9.13,6.07-.39-.83.4-2.22,0-3.03.83-.04,2.09-2.72,3.04-3.03,1.53-.5,4.2.34,6.09,0Z"/><path class="cls-9" d="M94.38,339.71h-3.04c.47-1.39,1.61-2.71,3.04-3.03v3.03Z"/><path class="cls-5" d="M100.47,233.57c-.05,2.02.07,4.05,0,6.07-17.75,5.41-39.08,3.03-57.85,3.03-.32-2.79-.59-9.91,0-12.13,19.8-1.19,37.85,4.47,57.85,3.03Z"/><path class="cls-5" d="M91.34,263.89c-12.92-.2-37.34,5.87-39.58-9.07l15.21-.06-12.16-3.03c5.14-10.64,21.51-4.56,31.64-6.21,1.3.37,4.78,13.45,4.89,15.34.06.99.04,2.04,0,3.03Z"/><path class="cls-8" d="M112.65,118.32v9.1c-2.73-.37-9.85-.56-12.18,0l3.04-9.1c1.85.44,7.01.32,9.13,0Z"/><path class="cls-12" d="M106.56,109.22h3.04c-.15.07.36,3.07-1.52,2.97-1.85-.51-1.26-1.7-1.52-2.97Z"/><path class="cls-7" d="M85.25,94.06l-2.98-1.52,2.98-1.52c-.12,1.08.29,2.34,0,3.03Z"/><path class="cls-9" d="M106.56,194.14c-.07,4.97,3.57,17.01,3.04,27.29h-9.13c-.97-5.09-2.11-10.21-3.04-15.16-.68-3.57.46-8.29,0-12.13,1.01,0,2.03,0,3.04,0,2.03.02,4.06-.01,6.09,0Z"/><path class="cls-4" d="M109.6,221.43c-.21,4.03.23,8.12,0,12.15-2.01.18-4.07-.16-6.08-.02,1.01-4.56-2.39-8.73-3.04-12.13h9.13Z"/><path class="cls-4" d="M106.56,188.07c-.06,2.02.03,4.05,0,6.07-2.03-.01-4.06.02-6.09,0-.72-2.03-2.57-4.15-3.04-6.07h9.13Z"/><path class="cls-12" d="M70.03,130.45c-.03,1.98.23,4.14,0,6.07h-3.04c-6.25-1.48-.65-9.78,3.04-12.13.19,1.96.03,4.08,0,6.07Z"/><path class="cls-11" d="M79.16,130.45c.38-.24-.26-2,0-3.03l2.98,1.52-2.98,1.52Z"/><path class="cls-11" d="M97.43,21.27c-1.02-.89-2.47-2.82-3.04-3.03.67-2.28.75-2.67,3.04-3.03.39,1.77-.26,4.12,0,6.07Z"/><path class="cls-3" d="M97.43,194.14c.46,3.84-.68,8.56,0,12.13h-51.76c1.03-3.72,4.05-7.35,3.04-12.13,16.54-.1,32.09.13,48.71,0Z"/><path class="cls-12" d="M66.98,282.09c-.73,6.44-.38,6.79,6.09,6.07-2.68,1.54-5.14,5.48-9.13,6.07-.75-1.21-5.33,3.86-6.09-6.07,3.13-.7,2.73-5.85,3.04-6.07.71-.47,4.23.15,6.09,0Z"/><path class="cls-8" d="M76.11,279.06c8.34-.61,7.69.74,3.04,6.07-2.33.24-5.04-2.86-6.09-3.03.97-1,1.87-2.29,3.04-3.03Z"/><path class="cls-3" d="M73.07,282.09c1.05.17,3.76,3.27,6.09,3.03-.96,1.1-1.86,2.16-3.04,3.03-.64.47-2.27-.45-3.04,0-6.47.73-6.82.38-6.09-6.07,1.81-.15,4.4-.28,6.09,0Z"/><path class="cls-3" d="M60.89,282.09c-.32.21.08,5.36-3.04,6.07-.23-3,.15-6.08,0-9.1.59.89,2.52,1.61,3.04,3.03Z"/><path class="cls-1" d="M79.16,294.22c.73,5.25-.31,10.6-3.04,15.16-.95.31-2.22,2.99-3.04,3.03-2.04-4.15-4.33-6.14-6.09-9.1-1.84-3.1-2.06-7.52-3.04-9.1,3.99-.59,6.46-4.52,9.13-6.07.78-.45,2.41.47,3.04,0-.26,2.3,2.91,5.12,3.04,6.07Z"/><path class="cls-6" d="M73.07,312.42c-.99.05-2.06.08-3.04,0-2.07-.16-5.84-3.78-9.13-3.07l6.08-6.03c1.76,2.96,4.05,4.95,6.09,9.1Z"/></g></svg>