<?xml version="1.0" encoding="UTF-8"?><svg id="Capa_2" xmlns="http://www.w3.org/2000/svg" viewBox="0 0 562.31 390.65"><defs><style>.cls-1{fill:#abbe04;}.cls-2{fill:#1489ba;}.cls-3{fill:#06b408;}.cls-4{fill:#97b6bd;}.cls-5{fill:#d6dc5f;}.cls-6{fill:#c0d309;}.cls-7{fill:#04ac05;}.cls-8{fill:#bcd102;}.cls-9{fill:#0ca50a;}.cls-10{fill:#bdc439;}.cls-11{fill:#01a643;}.cls-12{fill:#e3e1e3;}.cls-13{fill:#efeeef;}.cls-14{fill:#d4d774;}.cls-15{fill:#c1c3c6;}</style></defs><g id="Layer_1"><path class="cls-9" d="M474.04,248.17c.27-1.39-.1-2.98,0-4.42s.14-3.02,0-4.42c12.69-4.52,4.66-7.74,4.44-8.85-.57-2.88,1.98-7.67-2.2-8.93-14.86-4.47-9.4,4.87-11.12,8.93-4.15,9.76-9.68,14.92,4.44,13.27-3.13,3.98-5.52,9.73-8.88,13.27-11.17,11.75-49.25,24.4-66.62,26.55,1.8-4.06,13.01-35.54,6.6-35.46-15.92-3.69-43.43,25.27-33.25,35.44.77.77,9.95-.05,13.33.02-4.84,9.15-7.24,9.73,4.44,8.85-.87,1.3,1.2,6.83-.26,8.62-.69.85-14.55-4.06-21.92-1.23-11.96,4.6-14.39,14.73-21.39,18.93-17.63,10.56-45.59,12.22-63.02,17.92,13.95-24.68-38.52-2.98-41.83-.55-3.37,2.48-1.97,21.78-15.9,27.09-13.32.11-30.51,2.3-41.95-4.89-9.42-5.92-2.97-11.95-2.47-21.65,2.83.38,6.28-.57,8.88,0,18.49,4.01,9.97,14.45,26.7-2.21l-8.93-6.64c4.66-1.12,10.18-3.92,13.32-4.42,1.36-.22,10.05,4.74,15.65-4.46,10.41,24.05,9.13,2.82,11,.04.84-1.25,22.14,7.41,26.65-8.85,1.39-.34,3.02.3,4.44,0,21.13-4.41,14.21-6.59,22.21-17.7,3.34.02,17.14,5.12,17.72,4.42,1.02-1.22-.94-6.94.04-8.84.22-.43,3,.25,4.44,0,3.5,10.41,4.34-9.48,17.8-4.47,1.07-3.67-4.38-4.03-4.47-4.37-.36-1.38.32-3.02,0-4.42s.22-2.96,0-4.42l4.4-2.23c.72-16.29-.25-11.7-8.84-6.61-1.67.99-2.95,3.65-4.44,4.42-1.87.96-8.36,4.29-8.88,4.42-1.19.3-2.94-.02-4.44,0s-3.73.38-4.44,0c-3.36-1.78-2.67-2-4.44-4.42-2.48-3.41,6-12.95-17.8-8.88l4.47-8.81c8.63-3.77,15.64-19.61,8.88-26.55,3.02-1.27,5.82-3.28,8.88-4.42.09,14.12-5.05,12.27,9.01,11.25,26.77-1.95,73.77-3.4,97.59-11.25,25.13.69,82.35-8.71,84.39-39.82,2.51-1.23,6.74-.68,13.32-4.42,13.7-7.79,27.92-9.46,35.53-26.55v-4.42c2.66,2.55,18.37,2.34,17.14,14.73-23.47,32.36-41.74,90-88.21,91.45ZM434.06,243.75c-4.6-7,8.71-10.54-17.78-4.39-2.71,6.9,3.64,10.52,4.46,13.24.76,2.52-.88,7,0,8.85,2.18,4.56,9.32,7.31,13.31,4.41,1.12-.82-.97-7.6.01-8.83,2.56-3.22,8.53-4.13,8.82-4.55,2-2.86-4.25-4.02-4.38-4.3-.78-1.6-3.41-2.86-4.44-4.42ZM187.56,345.51v4.42c2.88-1.47,2.88-2.95,0-4.42Z"/><path class="cls-3" d="M447.39,31.38c17.79,15.64,26.88,33.86,39.97,48.67,1.5,1.69,15.98.94,13.32,13.27-10.2-7.7-10.42-10.81-13.32-13.27-1.05-.89-16.8-5.38-17.74-4.4,3.56,12.64,5.77,27.59,8.86,39.8-6.87-4.53-14.39-4.28-22.21-4.42-23.2-.43-7.71,24.82,11.46,26.41,6.14.51,14.61-4.82,15.18-4.29.44.41,4.38,10.48,4.37,11.08-.06,5.16-21.84,8.06-22.05,13.26-.04.93,7.59,7.02,8.79,11.06,1,3.37-.68,9.24,0,13.27v4.42c-3.5.05-11.89-.79-13.32,0l-.02-26.52c-2.06-2.07-45.68,24.27-52.36,25.89-6.25,1.52-9.3-3.91-9.81-3.8l31-15.48c.5-7.12-18.59-4.58-22.42-3.77-18.8,4.01-56.14,19.89-75.21,28.1l-4.44-8.85c11.77-4.89,22.88-14.65,31.07-24.36,5.35-6.34,26.43-39.77,26.67-46.43.45-12.23-7.69-24.23-17.77-30.97-1.75-1.17-3.39-4.05-4.44-4.42,15.75-.55,25.06-21.21,26.65-22.12,2.03-1.16,14.9-5.26,22.21-8.85.41-.2,4.85,3.94,8.9,1.98,7.83-3.78,12.52-18.99,26.63-15.26ZM425.18,57.93c-6.53,1.39-7.88,2.25-13.32,4.42-2.5,1-9.29-2.52-9.06,2.5,4.74,27.26,22.69,36.12,49.02,32.86,1.71-4.56-4.36-8.16-4.43-8.82-.42-3.99,3.49-8.62,0-17.7-1.44-3.75-10.04-16.86-13.32-17.7-4.74-1.22-7.89,4.21-8.88,4.42Z"/><path class="cls-8" d="M327.47,181.81l4.44,8.85c-16.34,7.04-33.39,12.79-44.41,26.55-1.34-.26-3.03,0-4.44,0-12.35.05-47.01,4.95-39.97,22.12-10.34,2.89-20.66,5.95-31.09,8.85v-4.42c.1-3.23-2.88-3.19-4.44-4.42v-4.42c2.08-15.92-7.71-7.44-17.77-4.42-1.64.49-3.32,4.15-4.44,4.42-2.25.55-6.07-.02-8.88,0-4.41.03-14.52-.23-22.21,4.42-2.07,1.25-3.18,3.58-4.44,4.42-1.56,1.04-3.07,3-4.44,4.42-1.4,1.46-3.34,2.75-4.44,4.42-6.11,9.32-2,8.1,4.44,17.7-1.29,1.31-17.93,26.92-20.13,30.82-8.52,15.15-14.4,32.38-19.91,48.79l-17.7-8.83c-2.8-3.93-4.9-7.85-8.88-13.27.47-2.1,2.4-4.14,4.44-4.42,6.88-.96,13.62,1.68,20.38-3.96,12.28-10.26,15.67-54.91-11.5-35.86.44-1.35-.47-3.14,0-4.42,4.21-11.59,15.37-40.32,22.21-48.67,1.1-1.34,3.08-3.2,4.44-4.42,13.01-11.71,62.41-37.63,79.95-39.82,44.39-5.55,84.82,13.86,128.8-4.42Z"/><path class="cls-3" d="M211.99,71.2c9.56-.37,30.96,4.19,39.97,8.85-32.91,9.29-89.89,34.2-84.39,75.21,2.33,17.34,11.65,15.98,22.21,22.12,3.2,1.86,6.05,6.2,8.88,8.85-17.53,2.19-66.94,28.11-79.95,39.82l-.21-5.77-26.44-34.05c-3-10.95,4.77-22.62-13.32-30.97,6.4-2.32,42.96-15.96,44.36-17.89.74-1.02-3.77-16.99-4.5-17.52-2.71-1.99-18.28,9.88-22.09.02,2.26-2.69,2.33-10.27,5.39-12.19,4.9-3.09,104.29-36.25,110.09-36.48ZM167.58,115.47c-3.78-3.83-39.54,2.35-35.51,17.65,8.71,2.72,48.63-4.36,35.51-17.65Z"/><path class="cls-6" d="M371.88,4.84c23.42-2.2,15.68,6.99,17.77,8.85l-22.23,8.93c3.83,14.16,10.18,22.74,22.23,30.89-1.59.91-10.9,21.58-26.65,22.12-30.27-10.77-80.61-4.16-111.04,4.42-9.01-4.66-30.42-9.22-39.97-8.85L371.88,4.84Z"/><path class="cls-7" d="M21.01,177.38c3.99,22,18.63,43.13,43.34,32.5,7.67-3.3,12.19-21.35,27.73-19.23,4.06,16.31,15.76,25.32,22.21,39.82-6.84,8.35-18,37.08-22.21,48.67-11.96-5.57-33.47-8.78-44.41,0-1-1.53-3.33-2.73-4.44-4.42,11.99-21.23,17.88-55.26-15.68-53.54-9.78.5-5.58,8.71-10.97,13.72-15-26.03-26.03-23.4-4.64-54.56,3.06-4.46,8.81-2.56,9.08-2.95Z"/><path class="cls-14" d="M65.42,128.72c-5.13,10.53-1.23,20.13.04,30.98,5.47,1.11,9.18-2.95,13.28-4.44,18.1,8.35,10.32,20.02,13.32,30.97.38,1.37-.35,3.03,0,4.42-15.54-2.12-20.06,15.93-27.73,19.23-24.71,10.63-39.34-10.5-43.34-32.5,16.06-23.97,10.97-35.76,44.41-48.67Z"/><path class="cls-5" d="M487.36,80.05c2.9,2.47,3.13,5.57,13.32,13.27,24.78,18.71,26.17,31.17,44.41,48.67v4.42c-10.06-1.03-23.9-6.89-32.9-.46-5.74,4.1-1.72,12.71-2.64,18.16-4.91,2.39-12.62-4.44-13.32-4.42-1.31-6.58-1.34-18.08-4.5-23.36-2.97-4.95-8.56-2.8-8.82-3.19-.36-.55-4.33-8.37-4.44-8.85-.62-2.61.65-6.29,0-8.85-3.09-12.2-5.3-27.16-8.86-39.8.94-.97,16.69,3.51,17.74,4.4Z"/><path class="cls-1" d="M154.25,261.44c2.48-.24,7.74-6.19,8.85-4.46-1.48,13.56-.44,15.09,13.36,13.31-2.92,2.35-5.64,9.88-8.88,13.27-14.73,15.4-26.42,28.32-31.09,48.67-5.98,26.03-2.66,24.96,8.88,48.67-22.79-11-43.95-20.42-57.74-39.82l17.7,8.83c5.51-16.41,11.39-33.65,19.91-48.79,2.2-3.91,18.84-29.51,20.13-30.82.16-.16,3.56-.26,4.44,0s2.64,6.48,8.88,4.38l-4.44-13.23Z"/><path class="cls-5" d="M136.49,332.23c19.29,15.09,30.91,23.59,26.69-8.83l13.28,8.83c-.1,1.47.08,2.95,0,4.42-.5,9.7-6.95,15.73,2.47,21.65,11.44,7.2,28.62,5,41.95,4.89,2.96-.02,5.92.02,8.88,0-26.22,14.49-22.16,10.74-50.18,17.86-3.7.94-3,7.88-5.97,8.66-15.84,4.16-14.93-7.02-15.89-7.37-2.79-1-4.52,2.33-12.35-1.46-11.54-23.7-14.86-22.63-8.88-48.67Z"/><path class="cls-9" d="M92.07,279.14c-.47,1.29.44,3.07,0,4.42-4.2,12.93-13.19,23.06-8.88,39.82-2.04.28-3.97,2.33-4.44,4.42-11.87-16.13-20.34-32.3-31.09-48.67,10.95-8.78,32.46-5.57,44.41,0Z"/><path class="cls-2" d="M96.51,119.87c3.82,9.86,19.38-2,22.09-.02.73.54,5.24,16.5,4.5,17.52-1.4,1.93-37.97,15.57-44.36,17.89-4.11,1.49-7.81,5.54-13.28,4.44-1.27-10.85-5.17-20.46-.04-30.98,2.95-1.14,6.2-3.82,8.88-4.42-.25,4.5-1.6,7.6,4.44,8.85,9.3,1.92,9.71-4.84,13.32-8.85,1.39-1.54,3.12-2.85,4.44-4.42Z"/><path class="cls-3" d="M43.21,274.72c-8.86-13.55-18.41-25.52-26.65-39.82,5.39-5.01,1.19-13.22,10.97-13.72,33.56-1.72,27.67,32.32,15.68,53.54Z"/><path class="cls-8" d="M447.39,31.38c-14.12-3.73-18.8,11.48-26.63,15.26-4.05,1.95-8.49-2.18-8.9-1.98l5.86-8.61c-7.68-.31-4.54-9.74-7.19-12.19-1.5-1.38-18.26-7.84-20.88-10.17-2.09-1.86,5.66-11.05-17.77-8.85,27.08-15.29,55.56,9.02,75.5,26.55Z"/><path class="cls-8" d="M278.61,336.66c-10.84,3.54-11.43,15.15-14.02,16.85-1.57,1.03-17.44.08-34.84,9.7-2.96.02-5.92-.02-8.88,0,13.93-5.31,12.53-24.61,15.9-27.09,3.31-2.44,55.79-24.13,41.83.55Z"/><path class="cls-4" d="M474.04,248.17c-.44,2.29,1.2,6.22-.45,8.19-1.29,1.54-8.42,1.79-10.72,4.95l-2.16-4.3c3.36-3.54,5.76-9.29,8.88-13.27h4.44c-.1,1.45.27,3.04,0,4.42Z"/><path class="cls-2" d="M394.09,283.57c-.91,2.05-6.67,5.56-8.88,8.85-11.68.88-9.28.3-4.44-8.85,4.26.09,9.23.51,13.32,0Z"/><path class="cls-11" d="M92.07,124.29c-3.62,4.01-4.03,10.77-13.32,8.85l4.44-8.85c2.96-.09,5.93.06,8.88,0Z"/><path class="cls-4" d="M83.19,124.29l-4.44,8.85c-6.04-1.25-4.69-4.34-4.44-8.85,2.4-.54,6,.09,8.88,0Z"/><path class="cls-2" d="M291.94,274.72c1.36-.24,3.02,0,4.44,0l-8.88,8.85c-.96-3.56-1.29-3.34-4.44-4.42-1.15-.4-2.89.21-4.44,0,7.2-4.69,6.03-3.12,13.32-4.42Z"/><path class="cls-2" d="M287.49,248.17l-4.47,8.81c23.8-4.07,15.31,5.47,17.8,8.88-2.54.78-7.17,4.61-8.88,4.42-10.48-1.14-4.76-5.12-22.21,0,.64-.26-.65-3.91,0-4.42,3.09-2.44,8.95-3.7,8.88-8.8-9.15-2.18-9.6,1.3-13.32,4.38-.32.26-3.53-.78-4.4,2.26-2.28,6.48,2.79,9.08,8.84,6.59-11.4,3.35-21.73,3.38-17.72,17.68,7.31,1.85,1.91-7.47,7.39-8.93,4.06-1.07,14.48-.56,19.21.1-3.11,2.03-8.05,9.87-13.32,13.27-5.96,3.84-2.89-6.47-13.32,8.85-.12.18-3.3.17-4.44,0-9.94-1.49-19.87,2.63-31.09,8.85-4.04,2.24-4.89,4.32-4.44,8.85-4.04-.07-12.02-4.98-12.97-4.04-2.03,2,2.91,10.48-4.74,8.43,1.95-13.6-8.8-9.73-17.82-4.39.05-8.26,5.25-21.21,0-30.97,5.85-6.7,18.29-11.19,26.65-13.27-3.79,10.22-6.04,12.42,4.44,17.7-19.64,20.06-6.48,12.71,8.88,4.42,12.17-6.56,17.99-11.44,26.63-24.36-.77-3.99-9.73-2.47-13.3-2.19,13.57-17.54,42.66-15.53,57.74-22.12Z"/><path class="cls-5" d="M296.38,221.63c6.76,6.94-.25,22.77-8.88,26.55-15.08,6.59-44.17,4.58-57.74,22.12-5.61.44-21.2,3.06-26.65,4.42-8.36,2.09-20.8,6.57-26.65,13.27-.23-.44-7.42-1.47-8.88-4.42,3.25-3.4,5.96-10.92,8.88-13.27.87-.7,6.09-2.79,8.88-4.42,4.08-2.4,12.86-6.52,17.77-8.85,1.75-.83,6.16.63,8.89-.04l-4.45-8.81c1.18-.48,2.99.4,4.44,0,10.43-2.9,20.75-5.96,31.09-8.85,13.85-3.87,45.79-2.25,39.97-22.12,1.41,0,3.1-.26,4.44,0s5.16,5.27,8.88,4.42Z"/><path class="cls-8" d="M434.06,203.93c-6.09,3.13-15.24,10.98-22.21,13.27-23.81,7.85-70.82,9.29-97.59,11.25-14.05,1.03-8.92,2.87-9.01-11.25,20.37-7.61,41.47-19.19,62.18-26.55,18.69,11.88,45.15,13.36,66.62,13.27Z"/><path class="cls-2" d="M398.53,181.81c-10.74,2.31-20.75,5.18-31.09,8.85-20.71,7.36-41.81,18.94-62.18,26.55-3.06,1.14-5.86,3.16-8.88,4.42-3.73.85-7.59-4.18-8.88-4.42,11.02-13.75,28.07-19.51,44.41-26.55,19.06-8.21,56.41-24.1,75.21-28.1,3.83-.82,22.91-3.35,22.42,3.77l-31,15.48Z"/><path class="cls-5" d="M411.86,217.2c6.96-2.29,16.12-10.15,22.21-13.27,11.29-5.79,24.25-16.37,26.65-17.7,1.44-.79,9.82.05,13.32,0,24.76-.38,9.72-2.7,22.21-8.85-2.04,31.11-59.26,40.51-84.39,39.82Z"/><path class="cls-4" d="M380.77,283.57c-3.38-.07-12.55.75-13.33-.02-10.18-10.17,17.33-39.13,33.25-35.44,6.41-.08-4.8,31.4-6.6,35.46-4.09.51-9.06.09-13.32,0Z"/><path class="cls-10" d="M545.1,146.41c-7.61,17.08-21.83,18.75-35.53,26.55l-4.44-4.42c3.32-.69,3.85-.94,4.44-4.42.92-5.46-3.11-14.06,2.64-18.16,9-6.42,22.83-.57,32.9.46Z"/><path class="cls-2" d="M283.05,292.41c1.44-.16,2.98.04,4.44,0,2.95-.07,5.93-.02,8.88,0-8,11.11-1.08,13.29-22.21,17.7-.06-3.79-3-6.15-4.44-8.85-.62-1.17.64-3.34,0-4.42,4.18-1.94,8.7-3.91,13.32-4.42Z"/><path class="cls-4" d="M176.46,318.96c9.02-5.34,19.77-9.21,17.82,4.39,7.65,2.05,2.71-6.43,4.74-8.43.95-.94,8.93,3.97,12.97,4.04,1.47.03,2.98.07,4.44,0v4.42c-3.14.5-8.67,3.3-13.32,4.42-4.14,1-11.74-1.63-17.77,8.85-2.6-.57-6.05.38-8.88,0,.08-1.47-.1-2.96,0-4.42.39-6.01-.03-8.35,0-13.27Z"/><path class="cls-11" d="M203.11,327.81l8.93,6.64c-16.73,16.66-8.21,6.23-26.7,2.21,6.02-10.48,13.63-7.85,17.77-8.85Z"/><path class="cls-2" d="M269.73,310.11c-4.51,16.26-25.81,7.6-26.65,8.85v-4.42c7.61-1.07,12.01-3.22,17.77-4.42,7.68-1.61,8.45.11,8.88,0Z"/><path class="cls-15" d="M434.06,243.75c1.03,1.56,3.66,2.83,4.44,4.42l-8.88,8.85-8.88,4.42c-.88-1.85.76-6.33,0-8.85,3.43-5.52,5.95-10.39,13.32-8.85Z"/><path class="cls-14" d="M505.13,168.54l4.44,4.42c-6.58,3.74-10.82,3.19-13.32,4.42-12.48,6.15,2.55,8.47-22.21,8.85v-4.42l17.74-4.47v-4.32s-8.86-4.48-8.86-4.48c1.48,0,2.96,0,4.44,0,5.42-.02,13.17.95,17.77,0Z"/><path class="cls-4" d="M434.06,243.75c-7.37-1.54-9.9,3.33-13.32,8.85-.82-2.72-7.16-6.34-4.46-13.24,26.48-6.15,13.18-2.61,17.78,4.39Z"/><path class="cls-1" d="M474.04,230.48c-5.4,4.88-.1,7.85,0,8.85.14,1.4.1,3.02,0,4.42h-4.44c-14.12,1.64-8.59-3.51-4.44-13.27h8.88Z"/><path class="cls-11" d="M314.14,287.99c-.99,1.9.97,7.63-.04,8.84-.58.7-14.38-4.4-17.72-4.42,2.27-3.15,7.53-5.67,8.88-8.85l8.88,4.42Z"/><path class="cls-11" d="M238.64,314.54c1.46-.18,2.99.2,4.44,0v4.42c-1.87,2.78-.59,24.02-11-.04-5.6,9.21-14.29,4.24-15.65,4.46v-4.42c1.48-.08,2.97.11,4.44,0,5.6-.43,11.94-3.69,17.77-4.42Z"/><path class="cls-2" d="M323.03,265.87l8.88,8.85c.32,1.4-.36,3.04,0,4.42-4.28-.46-9.25.69-13.32,0,.44,2.79-.29,5.98,0,8.85-1.44.25-4.22-.43-4.44,0l-8.88-4.42c.82-1.92-.55-6.17,0-8.85v-4.42c.71.38,2.96.02,4.44,0-1.43,12.66,1.05,7.53,8.88,8.85-.58-3.68.09-7.55-4.44-8.85.52-.13,7.02-3.46,8.88-4.42Z"/><path class="cls-11" d="M269.73,301.26c1.44,2.7,4.38,5.05,4.44,8.85-1.42.3-3.05-.34-4.44,0-.43.11-1.2-1.61-8.88,0l-4.44-4.42c.68-.16,6.98-7.67,13.32-4.42Z"/><path class="cls-11" d="M331.91,279.14c.09.35,5.54.7,4.47,4.37-13.45-5-14.29,14.89-17.8,4.47-.29-2.87.44-6.05,0-8.85,4.07.69,9.04-.46,13.32,0Z"/><path class="cls-15" d="M331.91,270.29c.22,1.47-.31,3.07,0,4.42l-8.88-8.85c1.49-.77,2.77-3.43,4.44-4.42,4.49,1.44,3.9,5.19,4.44,8.85Z"/><path class="cls-10" d="M465.15,230.48c1.73-4.06-3.74-13.4,11.12-8.93,4.18,1.26,1.63,6.05,2.2,8.93h-13.32Z"/><path class="cls-4" d="M474.04,239.32c-.1-1-5.4-3.97,0-8.85h4.44c.22,1.11,8.25,4.33-4.44,8.85Z"/><path class="cls-12" d="M318.58,279.14c-7.83-1.32-10.32,3.81-8.88-8.85,1.5-.02,3.25.3,4.44,0,4.53,1.3,3.87,5.17,4.44,8.85Z"/><path class="cls-11" d="M305.26,270.29v4.42c-2.96,0-5.92,0-8.88,0-1.42,0-3.08-.24-4.44,0v-4.42c1.71.19,6.35-3.64,8.88-4.42,1.77,2.43,1.08,2.64,4.44,4.42Z"/><path class="cls-11" d="M434.06,257.02c-.98,1.24,1.11,8.02-.01,8.83-3.99,2.9-11.13.15-13.31-4.41l8.88-4.42h4.44Z"/><path class="cls-2" d="M327.47,261.44c8.59-5.08,9.56-9.68,8.84,6.61l-4.4,2.23c-.54-3.66.04-7.41-4.44-8.85Z"/><path class="cls-4" d="M438.5,248.17c.13.28,6.38,1.43,4.38,4.3-.29.42-6.27,1.33-8.82,4.55h-4.44l8.88-8.85Z"/><path class="cls-11" d="M187.56,345.51c2.88,1.47,2.88,2.95,0,4.42v-4.42Z"/><path class="cls-13" d="M363,75.63c1.05.37,2.69,3.25,4.44,4.42v35.39c-1.3.61-3.68-.69-4.44,0-7.13-9.47-5.35-27.61-22.18-26.52l-.04,17.69c-3.07,3.2-27.23-11.5-37.02-8.66-5.05,1.46-4.16,10.87-9.9,12.27-3.31.81-9.01-3.48-12.68-2.72s-8.07,14.03-21.61,17.89c-21.73,6.19-39.91-11.38-18.75,25.4,27.67-17.05,60.28-25.28,91.1-35.31-21.81,25.91-71.82,40.86-105.08,43.9-11.9,1.09-19.97-4.55-25.68-4.32-2.62.11-2.49,8.99-4.84,9.3-10.02,1.35-17.86-11.55-28.72-9.1-5.5-41.01,51.48-65.93,84.39-75.21,30.43-8.59,80.76-15.2,111.04-4.42Z"/><path class="cls-15" d="M385.21,111.02c-.25,6.66-21.33,40.1-26.67,46.43-8.19,9.71-19.3,19.46-31.07,24.36-43.99,18.28-84.42-1.13-128.8,4.42-2.84-2.65-5.68-6.98-8.88-8.85,30.32-7.01,52.36,4.97,84.39-4.42-1.4,16.37,4.5,6.4,11.13,4.46,16.12-4.71,27.89-8.4,42.16-17.73,20.13-13.17,23.13-32.98,35.53-44.24.76-.69,3.14.61,4.44,0,4.84-2.26,12.41-2.39,17.77-4.42Z"/><path class="cls-7" d="M398.53,181.81c.51-.11,3.56,5.32,9.81,3.8,6.67-1.62,50.3-27.96,52.36-25.89l.02,26.52c-2.4,1.32-15.36,11.91-26.65,17.7-21.47.08-47.93-1.39-66.62-13.27,10.34-3.67,20.35-6.54,31.09-8.85Z"/><path class="cls-15" d="M389.65,13.69c2.61,2.33,19.38,8.79,20.88,10.17,2.66,2.45-.49,11.88,7.19,12.19l-5.86,8.61c-7.31,3.58-20.18,7.69-22.21,8.85-12.06-8.15-18.4-16.72-22.23-30.89l22.23-8.93Z"/><path class="cls-4" d="M411.86,62.35c.35,5.38,7.83,7.31,8.88,8.85,5.13,7.48,8.7,29.22,16.13,8.81l6.08.04c1.19,1.54.33,7.25,4.44,8.85.07.66,6.14,4.26,4.43,8.82-26.33,3.26-44.28-5.6-49.02-32.86-.23-5.02,6.55-1.5,9.06-2.5Z"/><path class="cls-7" d="M482.92,133.14c.26.39,5.85-1.77,8.82,3.19,3.16,5.27,3.2,16.77,4.5,23.36-4.1.12-7.51,5.12-8.88,8.85-1.48,0-2.96,0-4.44,0h-8.88c-1.2-4.04-8.83-10.13-8.79-11.06.21-5.2,21.99-8.09,22.05-13.26,0-.6-3.93-10.67-4.37-11.08Z"/><path class="cls-15" d="M456.27,111.02c-3.38,19.19,6.28,12.64,22.21,13.27.11.48,4.08,8.3,4.44,8.85-.58-.54-9.04,4.8-15.18,4.29-19.18-1.59-34.66-26.84-11.46-26.41Z"/><path class="cls-12" d="M385.21,111.02c-5.36,2.03-12.92,2.16-17.77,4.42v-35.39c10.07,6.74,18.22,18.74,17.77,30.97Z"/><path class="cls-1" d="M478.48,115.44c.65,2.56-.62,6.24,0,8.85-15.93-.63-25.59,5.92-22.21-13.27,7.82.14,15.34-.1,22.21,4.42Z"/><path class="cls-2" d="M425.18,57.93c2.66,1.7,6.6,2.58,8.88,4.42,3.4,2.74,4.5,10.24,13.32,8.85,3.49,9.07-.42,13.7,0,17.7-4.11-1.6-3.25-7.31-4.44-8.85-7.06-9.14-9.28-10.33-22.21-8.85-1.05-1.53-8.53-3.47-8.88-8.85,5.45-2.17,6.79-3.03,13.32-4.42Z"/><path class="cls-15" d="M482.92,168.54l8.84,4.48v4.32s-17.73,4.47-17.73,4.47c-.68-4.03,1-9.9,0-13.27h8.88Z"/><path class="cls-4" d="M447.39,71.2c-8.83,1.39-9.93-6.11-13.32-8.85v-8.85c3.28.84,11.88,13.95,13.32,17.7Z"/><path class="cls-13" d="M434.06,53.5v8.85c-2.29-1.84-6.23-2.72-8.88-4.42.99-.21,4.14-5.64,8.88-4.42Z"/><path class="cls-1" d="M92.07,283.57c27.17-19.05,23.78,25.6,11.5,35.86-6.76,5.65-13.5,3.01-20.38,3.96-4.31-16.76,4.68-26.89,8.88-39.82Z"/><path class="cls-2" d="M283.05,217.2c5.82,19.87-26.13,18.25-39.97,22.12-7.04-17.17,27.62-22.07,39.97-22.12Z"/><path class="cls-1" d="M176.46,234.9c-12.29,4.97,7.16,4.11,8.87,13.24l-13.27-4.39c-2.49,8.21,3.85,7.67,4.4,8.84,5.74,12.19,5.12,12.18-8.88,4.42-3.03-7.12-1.03-14.03-13.32-13.27v-4.42c7.69-4.65,17.79-4.4,22.21-4.42Z"/><path class="cls-10" d="M154.25,243.75c2.55,6.44,7.5,10.05,13.32,13.27.67,1.57-1.37,6.47.62,8.03,2.05,1.6,16.29,1.44,17.14.82-2.79,1.64-8.02,3.73-8.88,4.42-13.8,1.79-14.84.26-13.36-13.31-1.11-1.73-6.37,4.22-8.85,4.46-1.33.13-3.66.33-4.44,0-.66-.28-3.98-8.78-8.88-8.85,1.1-1.68,3.04-2.96,4.44-4.42l4.44-4.42c1.26-.84,2.37-3.17,4.44-4.42v4.42Z"/><path class="cls-15" d="M189.78,230.48c10.05-3.02,19.85-11.49,17.77,4.42-6.01-4.76-12.02-6.73-8.91,2.17,1.72,4.91,7.24.93,8.91,2.26,1.56,1.23,4.54,1.19,4.44,4.42-3.39.76-11.86-1.1-13.32,0-6.37-1.92-8.82-6.82-8.88-13.27Z"/><path class="cls-12" d="M185.34,234.9c8.68,8.64.6,14.04,0,17.7h-8.88c-.55-1.18-6.89-.63-4.4-8.84l13.27,4.39c-1.71-9.13-21.16-8.26-8.87-13.24,2.82-.02,6.63.55,8.88,0Z"/><path class="cls-14" d="M211.99,243.75v4.42c-1.45.4-3.26-.48-4.44,0-4.82,1.98-4.86,4.01-4.44,8.85-4.9,2.33-13.68,6.45-17.77,8.85.94-.68-.89-6.59,0-8.85,11.91,2.89,12.1-12.35,13.32-13.27,1.46-1.1,9.93.76,13.32,0Z"/><path class="cls-15" d="M149.81,261.44v8.85c-.88-.26-4.28-.16-4.44,0-6.44-9.6-10.56-8.38-4.44-17.7,4.9.06,8.22,8.57,8.88,8.85Z"/><path class="cls-10" d="M92.07,186.23l26.44,34.05.21,5.77c-1.36,1.22-3.35,3.09-4.44,4.42-6.45-14.5-18.15-23.51-22.21-39.82-.35-1.39.38-3.06,0-4.42Z"/><path class="cls-1" d="M207.55,234.9v4.42c-1.67-1.32-7.19,2.65-8.91-2.26-3.11-8.9,2.9-6.93,8.91-2.17Z"/><path class="cls-1" d="M198.67,243.75c-1.22.92-1.42,16.16-13.32,13.27.43-1.1-.26-2.87,0-4.42.6-3.66,8.68-9.06,0-17.7,1.12-.27,2.8-3.93,4.44-4.42.07,6.46,2.51,11.35,8.88,13.27Z"/><path class="cls-1" d="M145.37,248.17c1.37-1.43,2.88-3.38,4.44-4.42l-4.44,4.42Z"/><path class="cls-12" d="M363,115.44c-12.41,11.26-15.41,31.08-35.53,44.24-15.86-12.56-38.23,8.85-53.3,13.27-32.03,9.39-54.07-2.59-84.39,4.42-10.56-6.14-19.88-4.78-22.21-22.12,10.86-2.45,18.71,10.46,28.72,9.1,2.35-.32,2.22-9.2,4.84-9.3,5.71-.23,13.78,5.41,25.68,4.32,33.27-3.04,83.27-17.99,105.08-43.9-30.82,10.02-63.43,18.25-91.1,35.31-21.16-36.78-2.97-19.21,18.75-25.4,13.54-3.86,17.77-17.09,21.61-17.89s9.37,3.52,12.68,2.72c5.74-1.4,4.85-10.81,9.9-12.27,9.79-2.83,33.95,11.86,37.02,8.66l.04-17.69c16.83-1.09,15.05,17.06,22.18,26.52Z"/><path class="cls-2" d="M167.58,115.47c13.12,13.29-26.8,20.37-35.51,17.65-4.02-15.3,31.74-21.48,35.51-17.65Z"/><path class="cls-15" d="M509.57,164.11c-.59,3.48-1.12,3.73-4.44,4.42-4.6.95-12.35-.02-17.77,0,1.37-3.73,4.78-8.73,8.88-8.85.7-.02,8.42,6.81,13.32,4.42Z"/><path class="cls-10" d="M176.46,287.99c5.25,9.76.05,22.71,0,30.97-.03,4.93.39,7.26,0,13.27l-13.28-8.83c4.21,32.41-7.41,23.92-26.69,8.83,4.67-20.35,16.36-33.26,31.09-48.67,1.47,2.95,8.65,3.99,8.88,4.42Z"/><path class="cls-4" d="M154.25,261.44l4.44,13.23c-6.24,2.1-8.01-4.13-8.88-4.38v-8.85c.78.33,3.11.13,4.44,0Z"/><path class="cls-11" d="M229.76,270.29c3.57-.28,12.53-1.8,13.3,2.19-8.63,12.92-14.46,17.8-26.63,24.36-1.57-4.82-6.57-3.26-8.88-4.42-10.49-5.28-8.23-7.48-4.44-17.7,5.45-1.36,21.03-3.99,26.65-4.42Z"/><path class="cls-4" d="M291.94,270.29v4.42c-7.3,1.31-6.12-.27-13.32,4.42-4.73-.65-15.15-1.17-19.21-.1-5.49,1.45-.08,10.78-7.39,8.93-4.01-14.3,6.32-14.33,17.72-17.68,17.44-5.12,11.72-1.14,22.21,0Z"/><path class="cls-4" d="M283.05,292.41c-4.63.52-9.15,2.48-13.32,4.42-.4-.68-5.5-.48-4.44-4.42,5.28-3.4,10.21-11.24,13.32-13.27,1.55.21,3.29-.4,4.44,0v13.27Z"/><path class="cls-4" d="M247.52,301.26c-1.52,1.4-3.22,2.74-4.44,4.42-1.94,2.68-5.02,4.3-4.44,8.85-5.83.73-12.17,4-17.77,4.42l-4.44-8.85c11.22-6.22,21.15-10.33,31.09-8.85Z"/><path class="cls-4" d="M216.43,296.84c-15.37,8.28-28.53,15.63-8.88-4.42,2.31,1.16,7.31-.4,8.88,4.42Z"/><path class="cls-15" d="M265.29,292.41c-1.06,3.94,4.04,3.74,4.44,4.42.64,1.08-.62,3.26,0,4.42-6.35-3.25-12.64,4.26-13.32,4.42-1.27.31-2.91-.13-4.44,0v-4.42c10.44-15.32,7.36-5.01,13.32-8.85Z"/><path class="cls-3" d="M269.73,265.87c-.65.51.64,4.16,0,4.42-6.05,2.49-11.12-.11-8.84-6.59.87-3.03,4.08-1.99,4.4-2.26l4.44,4.42Z"/><path class="cls-11" d="M265.29,261.44c3.73-3.08,4.17-6.56,13.32-4.38.06,5.1-5.79,6.37-8.88,8.8l-4.44-4.42Z"/><path class="cls-13" d="M220.87,318.96c-1.47.11-2.97-.08-4.44,0s-2.97.03-4.44,0c-.45-4.53.4-6.61,4.44-8.85l4.44,8.85Z"/><path class="cls-12" d="M251.96,301.26v4.42c-2.93.24-5.94-.16-8.88,0,1.22-1.68,2.92-3.02,4.44-4.42,1.14.17,4.32.18,4.44,0Z"/><path class="cls-10" d="M207.55,248.17l4.45,8.81c-2.73.67-7.14-.79-8.89.04-.41-4.84-.38-6.86,4.44-8.85Z"/><path class="cls-4" d="M305.26,274.72c-.55,2.68.82,6.93,0,8.85-1.36,3.18-6.62,5.7-8.88,8.85-2.96-.02-5.93-.07-8.88,0-.44-2.8.65-6.44,0-8.85l8.88-8.85c2.96,0,5.92,0,8.88,0Z"/><path class="cls-12" d="M287.49,283.57c.65,2.41-.44,6.05,0,8.85-1.47.04-3-.16-4.44,0v-13.27c3.16,1.08,3.48.86,4.44,4.42Z"/><path class="cls-9" d="M251.96,305.69c1.53-.13,3.17.31,4.44,0l4.44,4.42c-5.75,1.21-10.16,3.36-17.77,4.42-1.45.2-2.98-.18-4.44,0-.58-4.55,2.5-6.17,4.44-8.85,2.94-.16,5.96.24,8.88,0Z"/><path class="cls-13" d="M327.47,159.69c-14.27,9.34-26.05,13.02-42.16,17.73-6.63,1.94-12.53,11.91-11.13-4.46,15.07-4.42,37.44-25.83,53.3-13.27Z"/><path class="cls-12" d="M442.95,80.05l-6.08-.04c-7.42,20.41-11-1.33-16.13-8.81,12.93-1.48,15.14-.29,22.21,8.85Z"/><path class="cls-4" d="M185.34,252.6c-.26,1.55.43,3.33,0,4.42-.89,2.26.94,8.16,0,8.85-.86.62-15.1.78-17.14-.82-1.99-1.56.05-6.46-.62-8.03,14.01,7.76,14.62,7.76,8.88-4.42h8.88Z"/><path class="cls-12" d="M167.58,257.02c-5.82-3.23-10.77-6.84-13.32-13.27,12.3-.76,10.3,6.15,13.32,13.27Z"/></g></svg>