<?xml version="1.0" encoding="UTF-8"?><svg id="Capa_2" xmlns="http://www.w3.org/2000/svg" viewBox="0 0 419.58 570.43"><defs><style>.cls-1{fill:#8589e5;}.cls-2{fill:#8387c8;}.cls-3{fill:#7278d2;}.cls-4{fill:#767adb;}.cls-5{fill:#9195ed;}.cls-6{fill:#ececf1;}.cls-7{fill:#acb3f6;}.cls-8{fill:#9da2f5;}.cls-9{fill:#6f73bd;}.cls-10{fill:#9599f1;}.cls-11{fill:#8b90e9;}.cls-12{fill:#6a6dce;}.cls-13{fill:#7f83e3;}.cls-14{fill:#5e62b0;}.cls-15{fill:#a1aaf3;}</style></defs><g id="Layer_1"><path class="cls-5" d="M249.24,468.15l17.02,8.47c2.84,12.41-7.44,28.22-3.77,39.44s24.58,7.82,20.69,17.62c-9.37,23.57-34.63,5.87-52.29,11.44-13.53,4.27-.27,14.76-28.38,16.14-.27-2.77.31-5.67.03-8.46h-29.75c-4.48,13.39,21.39,8.86,29.72,8.46.27,2.78-.18,5.67,0,8.46-12.7.36-25.53-.18-38.24,0-13.93-24.15,13.05-32.8,33.97-33.88-1.75-21.24-18.44-17.66-29.72-21.14-1.96-13.36-18.41-21.32-8.61-35.18,2.75-3.88,10.11-.66,8.58-7.1l-33.97-.04v-4.23c39.84-4.73,75.46-1.69,114.71,0Z"/><path class="cls-15" d="M363.95,476.61c3.83,8-5.13,35.11-3.81,37.43,3.1,5.43,37.29,24.22,42.05,4.89-.04.56,4.75,4.35,4.46,10.22-.3,6.12-5.45,36.61-8.42,38.74-4.71,3.38-69.52,2.69-81.01,1.83,2.85-18.19-15.99-4.63-21.24-4.23-7,.52-14.26-.62-21.24,0l-6.35-8.47c19.58-3.27,34.08-11.5,49.19-23.7.15-10.65-26.6-51.78-21.59-56.68,22.51-.97,45.49,1.26,67.96-.02Z"/><path class="cls-8" d="M410.68,218.45c-42.53-1.06-20.22,59.33-30.11,86.76-2.19,14.87,10.12,36.21,25.86,40.2.09,2.81.06,5.66,0,8.46-.02.69-4.03,4.54-4.25,8.46-16.05-12.68-36.84-15.43-53.96-24.54-39.56-21.05,10.14-39.79,11.59-53.93,1.55-15.1-13.52-22.9-17.11-31.56-.43-1.05.28-2.76,0-4.23,26.02-23.88,26.24-61.78,33.99-93.11,1.1-4.46,5.78-12.56,8.5-16.93,8.14,24.94,19.44,55.7,25.49,80.41Z"/><path class="cls-2" d="M32.56,332.72c-1.31-.21-2.89-.03-4.25,0-6.66.12-13.78-.97-16.4,6.94-14.51,43.82,22.13,89.12,28.05,127.46,2.9,18.79,4.16,51.18,5,71.33.27,6.61-3.47,12.14-3.88,18.53,5.58-.28,11.42.56,16.98.03,6.19,4.97,15.46,2.62,12.75,12.7-10.47-.46-26.66,2.21-35.43-.7-15.83-5.25-9.72-35.35-11.33-47.95-14.64-114.62-41.07-182.3-8.47-298.38,15.87,33.67,4.81,74.18,16.99,110.03Z"/><path class="cls-1" d="M45.31,150.74c.61,8.39-.51,17.04.08,25.45,1.95-.54,3.52-4.23,4.16-4.29,3.1-.3,7,12.78,8.5,16.93,7.19,19.91-.69,9.08-3.25,13.63-6.17,10.94,17.76,35.69,20.25,41.39,1.1,2.52-.75,9.1,0,12.7-1.78-3.96-15.73-18.26-21.23-12.73-1.87,1.88-8.49,47.92-8.26,52.36.31,6.17,7.26,31.71,10.5,36.42,1.29,1.88,22.72,17.68,27.49,21.29l-38.24-8.46c-2.44-4.26,2.26-10.3-12.75-12.7-12.18-35.85-1.13-76.37-16.99-110.03.77-2.76,3.48-5.63,4.25-8.46l4.18-2.09-4.18-2.14c5.27-19.03,10.26-39.62,12.75-59.25h12.75Z"/><path class="cls-10" d="M287.47,446.99c-.14,5.95-6.99,18.68,2.51,20.98,8.28,2,17.33-4.33,25.29-4.26,15.08.12,27.47,7.14,44.42.21l.03,8.47c1.65,1.57,19.22-20.33,16.96,0-4.86.48-10.32,4.09-12.75,4.23-22.47,1.28-45.45-.95-67.96.02-5.02,4.9,21.73,46.02,21.59,56.68-15.11,12.2-29.61,20.43-49.19,23.7l6.35,8.47c-25.38,2.26-46.64,3.5-72.22,4.23-.18-2.79.27-5.69,0-8.46-8.32.41-34.2,4.94-29.72-8.44h29.75c.28,2.77-.3,5.67-.03,8.44,28.12-1.38,14.86-11.87,28.38-16.14,17.66-5.57,42.92,12.14,52.29-11.44,3.9-9.8-17.02-6.4-20.69-17.62s6.61-27.04,3.77-39.44l-17.02-8.47c2.79.12,5.71.14,8.5,0,7.06-.36,14.22.31,21.27.02.05-5.63-.01-11.3-.03-16.95,0-4.23,0-8.46,0-12.7,2.31-.29,7.22-5.9,8.45-4.23.04,4.2.14,8.47.04,12.69Z"/><path class="cls-3" d="M113.28,455.45c-.18,10.01-2.86,14.67,8.5,12.7-2.67.68-19.9,20.87-21.08,23.51-.89,1.99,20.29,29.4,21.17,38.11,1.12,11.04-13.48,25.71-8.59,39.95-5.66-.06-11.33.1-16.99,0l-6.33-4.21-2.17,4.21c-5.65-.13-11.35.25-16.99,0,2.71-10.08-6.56-7.73-12.75-12.7,15.86-1.52,32.98-2.84,37.42-20.03,4.29-16.61-16.29-10.69-19.88-20.71-5.33-14.87,4.16-30.1,7.96-43.91,7.56-.42,16.78-5.82,25.49-4.28,1.1-3.31-4.13-3.48-4.25-4.18-.43-2.65.2-5.71.01-8.44,2.68-.59,6.35.65,8.48-.03Z"/><path class="cls-3" d="M83.54,11.08c-1.33,15.77,13.17,9.77,20.09,13.83,2.93,1.72,9.15,16.19,13.9,20.03l-8.5,29.62c-8.86-7.27-17.27-17.1-27.57-21.2-4.48-.09-1.36,16.35-2.17,21.2-1.27,7.64-8.16,18.07-4.27,29.6-7.54,1.64-10.68-5.15-16.97-8.44,3.62-28.74,11.2-59.11,12.75-88.87,1.4-.14,2.84.13,4.25,0,.47-.04,3.77,3.12,8.5,4.23Z"/><path class="cls-15" d="M410.68,218.45c.6,2.46-.57,5.94,0,8.46l-4.16,2.12,4.16,2.12c1.54,7.67,3.16,11.2,4.25,21.16-12.86-2.7-16.53,28.63-17,36.06-1.44,23.05,7.88,37.66,8.5,57.04-15.74-3.99-28.05-25.34-25.86-40.2,9.89-27.43-12.42-87.82,30.11-86.76Z"/><path class="cls-13" d="M134.53,468.15v4.23c0,1.41,0,2.82,0,4.23-38.43,7.76,6.7,50.29,29.73,46.57-7.58,25.61-40.88,7.22-25.48,46.53-8.49-.03-17,.09-25.49,0-4.9-14.25,9.7-28.91,8.59-39.95-.88-8.7-22.06-36.12-21.17-38.11,1.19-2.64,18.41-22.83,21.08-23.51,3.37-.86,8.72.48,12.75,0Z"/><path class="cls-1" d="M134.53,476.61c-.16,29.47,9.19,30.44,33.99,38.09,11.28,3.48,27.97-.1,29.72,21.14-20.91,1.08-47.9,9.73-33.97,33.88-8.49.12-17,.03-25.49,0-15.39-39.32,17.9-20.92,25.48-46.53-23.03,3.72-68.16-38.82-29.73-46.57Z"/><path class="cls-11" d="M376.69,57.64c3.63,22.08,11.49,41.41,4.25,63.48-2.38-7.01-5.79-14.26-8.5-21.16-7.29-18.63-7.81-27.29-20.26-45.25-2.57-3.7.72-7.88-9.45-5.51-1.06,15.93,1.46,32.77-.06,48.61-1.25,12.98-7.85,33.56-8.46,44.48h-4.25c4.22-29.23,9.17-64.14,0-93.11,3.95-9.92,4.72-14.6,4.25-25.39,3.79,4.57,12.15-.23,12.75,0,1.64.63,3.57,9.18,8.45,8.46l4.25-12.67c2.12,11.59-.71,37.46,17.04,38.07Z"/><path class="cls-7" d="M376.69,472.38c2.77-.27,5.69.09,8.5,0,7.07-.24,14.17.16,21.24,0-1.51,15.33-3.16,31.25-4.25,46.55-4.76,19.32-38.95.54-42.05-4.89-1.32-2.32,7.64-29.43,3.81-37.43,2.43-.14,7.88-3.75,12.75-4.23Z"/><path class="cls-11" d="M70.8,6.85c-1.55,29.76-9.12,60.14-12.75,88.87-.09.69-3.68,4-4.25,8.46h-12.75c-.33-12.84-.93-27.23.34-39.88,1.26-12.43,15.52-28.99,3.9-40.53,5.62-7.92,15.51-15.93,25.49-16.93Z"/><path class="cls-7" d="M414.93,252.31c3.8,34.75,5.5,69.64,4.25,105.8l-12.75-4.23c.06-2.81.09-5.66,0-8.46-.62-19.38-9.94-33.99-8.5-57.04.47-7.43,4.13-38.76,17-36.06Z"/><path class="cls-15" d="M419.18,358.11c-1,28.83-6.24,56.87-8.5,84.64-17.2,3.66-4.05-29.05-21.24-25.39,1.11-4.26-.48-11.68,0-16.93,3.24-.64,11.48,1.08,12.76,0,.74-.63-.37-5.93-.01-8.46.39-2.68-.19-5.7,0-8.46.49-6.99-.4-14.15,0-21.16.22-3.93,4.23-7.77,4.25-8.46l12.75,4.23Z"/><path class="cls-11" d="M317.21,2.62c2.73,2.88,5.37,6,8.5,8.46-32.29,27.83-54.53,38.5-97.72,38.09v-8.46c40.58-5.02,59.41-29.57,89.22-38.09Z"/><path class="cls-10" d="M389.44,417.36c17.2-3.66,4.05,29.05,21.24,25.39-.91,11.18-3.37,20.69-4.25,29.62-7.07.16-14.18-.24-21.24,0v-46.55c1.06-2.32,4.13-8,4.25-8.46Z"/><path class="cls-4" d="M41.06,104.19c.4,15.52,3.12,30.94,4.25,46.55h-12.75c3.92-31.02-.91-107.72,12.75-126.96,11.62,11.54-2.65,28.1-3.9,40.53-1.28,12.65-.68,27.05-.34,39.88Z"/><path class="cls-13" d="M121.78,19.55c17.28-.15,51.44,19.31,80.72,21.16v4.23l-67.98-4.23c-14.05-7.58-13.88-11.78-21.24-16.93,1.11-4.03,4.88-4.2,8.5-4.23Z"/><path class="cls-4" d="M359.7,15.32c23.76,11.93,13.96,23.85,16.99,42.32-17.75-.6-14.92-26.48-17.04-38.07l-4.25,12.67c-4.89.72-6.81-7.83-8.45-8.46v-12.7c1.77.29,11.08,3.4,12.75,4.23Z"/><path class="cls-12" d="M121.78,19.55c-3.62.03-7.39.2-8.5,4.23-4.32-3.02-19.45-14.05-21.59-15.15-5.37-2.76-7.73,2.55-8.15,2.45-4.73-1.11-8.02-4.27-8.5-4.23,14.8-15.21,37.59-2.46,46.73,12.7Z"/><path class="cls-12" d="M380.94,121.12c.43,1.27-.43,2.97,0,4.23l4.25,4.23c.75,2.24-.74,6.19,0,8.46-2.72,4.37-7.39,12.46-8.5,16.93h-4.25c2.24-16.92-1.58-37.53,0-55.02,2.7,6.9,6.12,14.15,8.5,21.16Z"/><path class="cls-13" d="M359.7,15.32c-1.66-.83-10.97-3.94-12.75-4.23-12-1.96-12.03,6.08,0,4.23v8.46c-.59-.23-8.96,4.57-12.75,0-.89-20.33-4.34-9.43-8.5-12.7-3.13-2.46-5.77-5.59-8.5-8.46,16.44-4.7,29.59,1.46,42.48,12.7Z"/><path class="cls-10" d="M295.97,565.48c5.25-.39,24.1-13.96,21.24,4.23-6.49-.49-13.99-4.86-21.24-4.23Z"/><path class="cls-11" d="M219.5,40.71v8.46c-6.07-.21-11.74-.97-16.99-4.23v-4.23c5.51.35,11.47.28,16.99,0Z"/><path class="cls-5" d="M202.5,44.94c5.25,3.27,10.93,4.02,16.99,4.23v-8.46c2.79-.14,5.75.34,8.5,0v8.46c-2.83-.03-5.67.1-8.5,0v8.46c-13.42-1.35-29.89-2.51-42.48-4.23-20.54-2.81-24.24-2.86-42.48-12.7l67.98,4.23Z"/><path class="cls-15" d="M96.29,569.71c-2.83-.05-5.67.07-8.5,0l2.17-4.21,6.33,4.21Z"/><path class="cls-8" d="M410.68,231.15l-4.16-2.12,4.16-2.12c.3,1.34-.27,2.87,0,4.23Z"/><path class="cls-2" d="M19.82,214.22c.36-1.31-.36-2.92,0-4.23l4.18,2.14-4.18,2.09Z"/><path class="cls-11" d="M385.19,129.58l-4.25-4.23c.1.28,3.19,1.09,4.25,4.23Z"/><path class="cls-4" d="M287.47,446.99c.1-4.22,0-8.49-.04-12.69-1.23-1.68-6.15,3.94-8.45,4.23-21.92,2.72-43.64-8.25-65.69-4.03-2.15.41-38.95,15.25-40.51,16.79-6.14,6.05.4,7.67,6.29,8.41,7.56.96,63.28,1.95,65.93,0,10.05-.18,14.73-2.85,12.75,8.46-2.79.14-5.71.12-8.5,0-39.25-1.69-74.87-4.73-114.71,0-4.02.48-9.38-.86-12.75,0-11.36,1.98-8.67-2.68-8.5-12.7,6.85-2.17,26.56-7.18,29.99-11.3,11.72-14.1-4.27-15.08-4.59-16.17-5.38-18.18,15.97-4.44,12.86-16.92-1.03-4.14-4.91-1.65-8.52-2.16.09-7.05-.13-14.11,0-21.16,20.04,5.98,48.11-4.29,66.66,5.77,2.35,1.27-1.64,8.82,7.66,6.97,3.81-.76.86-6.38,5.24-8.36,23.27-10.56,42.75-2.87,64.87-12.82,4.84,11.43-5.08,32.89-4.37,39.83.44,4.32,7.94,1.8,8.64,2.47.52.5-1.95,5.75,3.14,8.3,10.22,5.14,60.86,10.77,60.77-6.18-.09-17.68-49.45-19.58-63.91-23.28.75-6.57,2.35-26.87,10.66-25.47,8.01,1.35,15.93,10.55,24.48,13.74,14.39,5.36,46.89,5.01,45.68,26.19-.41,7.19-13.35,28.03-20.14,31.14-19.5,8.9-44.2-1.66-64.93.96Z"/><path class="cls-11" d="M134.53,472.38l33.97.04c1.52,6.44-5.84,3.22-8.58,7.1-9.81,13.86,6.64,21.82,8.61,35.18-24.79-7.65-34.14-8.62-33.99-38.09,0-1.41,0-2.82,0-4.23Z"/><path class="cls-10" d="M342.7,252.31c3.59,8.66,18.66,16.46,17.11,31.56-1.45,14.15-51.15,32.89-11.59,53.93,17.12,9.11,37.91,11.86,53.96,24.54-.4,7.01.49,14.17,0,21.16h-12.75c-.1-1.4.17-2.85,0-4.23-.43-3.6,1.68-9.1-.73-11.9-4.94-5.75-44.52-13.26-54.5-13.49,1.42-12.26-14.56-11.48-19.18-21.23-10.66-22.48,25.57-27.12,19.18-50.7-17.93-7.11-21.94,8.48-23.36,8.56-7.86.4-6.02-4.21-6.38-4.34l12.75-12.7c1.31-.47,3.16.52,4.25,0,6.38-3.05,11.43-18.63,21.24-21.16Z"/><path class="cls-3" d="M376.69,154.97c-7.75,31.33-7.97,69.23-33.99,93.11-.22-1.17-.17-3.04,0-4.23,1.58-11.29,6.57-7.25,8.11-11.8,6.52-19.24,19.18-58.53,21.63-77.08h4.25Z"/><path class="cls-1" d="M342.7,248.08c.28,1.48-.43,3.19,0,4.23-9.81,2.53-14.86,18.11-21.24,21.16l16.99-29.62h4.25c-.17,1.2-.22,3.06,0,4.23Z"/><path class="cls-9" d="M28.31,332.72c-1.53,13.96,13.6,27.05,16.99,38.09.67,2.19-.45,5.82,0,8.46-7-4.54-16.98-13.46-25.55-6.29-.56,9.63,27.78,92.19,32.57,95.49,6.76,4.65,22.71,4.38,31.22,3.9-3.8,13.8-13.29,29.03-7.96,43.91,3.59,10.02,24.18,4.1,19.88,20.71-4.44,17.19-21.56,18.5-37.42,20.03-5.56.53-11.41-.31-16.98-.03.41-6.39,4.16-11.92,3.88-18.53-.84-20.16-2.1-52.54-5-71.33-5.92-38.35-42.56-83.64-28.05-127.46,2.62-7.91,9.75-6.82,16.4-6.94Z"/><path class="cls-3" d="M32.56,332.72c15.01,2.4,10.3,8.44,12.75,12.7,17.2,29.98,34.93,27.91,62.33,39.52,1.45.62,1.62,5.21,2.65,5.62,8.05,3.12,16,1.09,24.24,1.42.43,2.93,7.56,10.09,4.25,16.93-20.04-4.19-38.42-10.76-55.23-12.7-1.39-.16-2.84.13-4.25,0-8.39-10.99-18.47-26.7-33.99-25.39-3.39-11.03-18.53-24.12-16.99-38.09,1.36-.03,2.94-.21,4.25,0Z"/><path class="cls-5" d="M338.45,243.85l-16.99,29.62c-1.09.52-2.93-.47-4.25,0-4.31,1.54-30.84,2.63-21.22,12.67.8.84,6.3-.78,8.47.02.36.13-1.48,4.75,6.38,4.34,1.41-.07,5.43-15.67,23.36-8.56,6.4,23.58-29.84,28.22-19.18,50.7,4.62,9.74,20.59,8.97,19.18,21.23-1.39-.03-2.87-.13-4.25,0-2.71.25-6.78-.68-8.5,0l-23.32-16.97c-4.21-.11-1.73,12.55-2.17,16.97-2.19,22.34-1.28,8.79-8.5,8.46l-.03-29.61c-1.67-2.02-48.97,10.97-50.95,12.68-7.95-11.42-9.08-22.24-25.49-21.16-13.81.91-13.01,7.38-16.99,16.93-.96,2.29-4.44,4.83-4.25,8.46-2.12.19-4.25,8.37-6.94,8.56-7.74.56-27.38-13.6-39.79-8.56,2.12-19.25,6.23-40.56,2.12-59.29-4.75-.13-11.38,51.24-10.62,59.29-27.9,5.37-21.66-4.57-33.66-15.04-10.31-8.99-24.38-14.4-25.77-29.81-1.56-17.28,9.97-26.01-.04-48.26-.75-3.6,1.1-10.18,0-12.7,35.73-5.59,7.98-31.89,33.99-38.09,12.65,24.53,39.4,35.35,63.73,42.32,9.4,2.7,17.13,6.84,28.17,7.92,17.83,1.74,61.34,4.66,65.3-16.38,8.3,11.94,44.73-20.24,47-24.07,5.31-8.97,14.79-59.83,16.73-73.26h4.25c-.94,16.86,4.59,30.21,4.38,44.21-.3,19.87-14.4,37.78-.13,57.36Z"/><path class="cls-11" d="M83.54,353.88c-4.77-3.6-26.2-19.41-27.49-21.29-3.23-4.71-10.19-30.24-10.5-36.42-.22-4.44,6.39-50.48,8.26-52.36,5.5-5.54,19.44,8.76,21.23,12.73,10.02,22.25-1.51,30.98.04,48.26,1.39,15.4,15.46,20.81,25.77,29.81,12,10.46,5.76,20.4,33.66,15.04.28,2.94-1.8,8.61,2.17,8.49,9.14,1.36,5.59-1.78,6.33-8.49,12.41-5.04,32.05,9.12,39.79,8.56,2.69-.19,4.82-8.38,6.94-8.56,1.75-.16,7.23,4.88,10.29,4.42,2.99-.45,1.86-15.12,10.87-8.5.93.68.82,23.04,10.69-.14,17.96,19.88,13.66,1.04,14.89-.01,1.99-1.71,49.28-14.7,50.95-12.68l.03,29.61c-11.78-.53-16.9,6.57-23.9,7.26-15.71,1.55-35.7-7.56-54.98,5.2l-65.54-3.98c-.15,5.61.08,11.29-.03,16.92-.13,7.05.09,14.11,0,21.16-.21-.03-.44.8-4.25,0,3.31-6.83-3.82-14-4.25-16.93-.75-5.11,1.23-19.66-.03-21.15-1.1-1.29-14.42,5.32-22.2,3.51-6.13-1.43-22.12-15.44-28.76-20.45Z"/><path class="cls-11" d="M109.04,205.76c-26.01,6.2,1.74,32.49-33.99,38.09-2.49-5.7-26.42-30.45-20.25-41.39,2.56-4.54,10.45,6.28,3.25-13.63,6.53-19.14,3.89-39.36,4.25-59.25,16.07-2.16,9.37-14.59,21.24-21.16,3.8,20.47,17.17,81.2,25.49,97.34Z"/><path class="cls-13" d="M83.54,353.88c6.64,5.01,22.62,19.02,28.76,20.45,7.78,1.81,21.1-4.8,22.2-3.51,1.26,1.49-.72,16.04.03,21.15-8.24-.32-16.19,1.71-24.24-1.42-1.04-.4-1.2-5-2.65-5.62-27.4-11.61-45.13-9.54-62.33-39.52l38.24,8.46Z"/><path class="cls-8" d="M53.81,104.19c-.99,7.82.38,17.15,0,25.39-.64,14.09,2.98,29.53-4.25,42.32-.64.06-2.22,3.75-4.16,4.29-.6-8.41.52-17.06-.08-25.45-1.13-15.61-3.85-31.03-4.25-46.55h12.75Z"/><path class="cls-14" d="M62.3,129.58c-.35,19.89,2.28,40.11-4.25,59.25-1.5-4.15-5.4-17.22-8.5-16.93,7.23-12.79,3.61-28.23,4.25-42.32,2.77-.25,5.78.37,8.5,0Z"/><path class="cls-13" d="M312.96,362.34c9.33,5.08,7.02,6.92,21.24,8.46,2.76.3,5.78-.38,8.5,0-.41,18.14,16.46,9.88,26.69,13.6,7.28,2.64,10.8,12.31,20.04,11.79-.06,1.4.13,2.84,0,4.23-.48,5.25,1.11,12.66,0,16.93-.12.47-3.18,6.14-4.25,8.46-5.07,11.06-22.95,24.78-25.49,38.09-16.96,6.93-29.35-.09-44.42-.21-7.96-.06-17.01,6.27-25.29,4.26-9.5-2.3-2.65-15.03-2.51-20.98,20.73-2.62,45.43,7.94,64.93-.96,6.8-3.1,19.73-23.94,20.14-31.14,1.21-21.17-31.29-20.83-45.68-26.19-8.55-3.19-16.48-12.39-24.48-13.74-8.31-1.41-9.91,18.9-10.66,25.47s.54,14.21,0,21.16c-.7-.67-8.2,1.85-8.64-2.47-.71-6.94,9.22-28.4,4.37-39.83-22.13,9.94-41.6,2.25-64.87,12.82-4.38,1.99-1.43,7.61-5.24,8.36-9.29,1.85-5.31-5.7-7.66-6.97-18.55-10.06-46.62.21-66.66-5.77.11-5.63-.12-11.3.03-16.92l65.54,3.98c19.28-12.76,39.27-3.65,54.98-5.2,7-.69,12.12-7.79,23.9-7.26,7.21.33,6.31,13.88,8.5-8.46,7.13.14,11.46,5.45,16.99,8.46Z"/><path class="cls-13" d="M278.98,438.52c0,4.23,0,8.46,0,12.7-6.84,1.37-31.3-1.99-34.02,0-.93.68.92,7.8.03,8.46-2.65,1.96-58.37.97-65.93,0-5.89-.75-12.43-2.36-6.29-8.41,1.56-1.54,38.36-16.38,40.51-16.79,22.05-4.22,43.77,6.75,65.69,4.03Z"/><path class="cls-11" d="M385.19,472.38c-2.81.09-5.72-.27-8.5,0,2.26-20.32-15.31,1.57-16.96,0l-.03-8.47c2.54-13.31,20.42-27.02,25.49-38.09v46.55Z"/><path class="cls-1" d="M278.98,451.22c.01,5.65.07,11.32.03,16.95-7.05.29-14.21-.38-21.27-.02,1.98-11.32-2.7-8.64-12.75-8.46.89-.66-.96-7.78-.03-8.46,2.72-2,27.18,1.36,34.02,0Z"/><path class="cls-14" d="M45.31,379.27c15.05,9.77,9.18,14.7,33.99,16.93,1.4.13,2.85-.16,4.25,0,27.76,19.57,55.91,38.63,10.53,59.16l10.71,8.55c.11.7,5.35.87,4.25,4.18-8.71-1.54-17.93,3.86-25.49,4.28-8.52.47-24.46.75-31.22-3.9-4.79-3.3-33.13-85.86-32.57-95.49,8.58-7.17,18.56,1.75,25.55,6.29Z"/><path class="cls-12" d="M138.77,408.9c3.81.8,4.04-.03,4.25,0,3.61.51,7.49-1.98,8.52,2.16,3.11,12.48-18.25-1.26-12.86,16.92.32,1.1,16.32,2.07,4.59,16.17-3.43,4.12-23.13,9.13-29.99,11.3-2.13.67-5.81-.56-8.48.03.19,2.73-.44,5.78-.01,8.44l-10.71-8.55c45.38-20.53,17.23-39.59-10.53-59.16,16.81,1.94,35.19,8.5,55.23,12.7Z"/><path class="cls-14" d="M113.28,23.78c7.36,5.15,7.19,9.35,21.24,16.93,18.25,9.84,21.94,9.89,42.48,12.7v12.7c-4.44-1.23-12.04,1.03-16.99,0-11-2.3-10.92-2.76-21.24-8.46-3.05-1.69-20.28-11.92-21.24-12.7-4.75-3.84-10.97-18.3-13.9-20.03-6.91-4.06-21.41,1.94-20.09-13.83.41.1,2.78-5.21,8.15-2.45,2.14,1.1,17.28,12.13,21.59,15.15Z"/><path class="cls-4" d="M83.54,108.42c-11.87,6.57-5.18,19-21.24,21.16-2.72.37-5.72-.25-8.5,0,.38-8.24-.99-17.58,0-25.39.57-4.47,4.16-7.77,4.25-8.46,6.3,3.29,9.43,10.08,16.97,8.44-3.89-11.53,3-21.97,4.27-29.6,5.58,10.66,2.41,23.94,4.25,33.86Z"/><path class="cls-11" d="M138.77,57.64c-6.29,9.64-.57,25.56-12.75,29.62-7.25-7.66-13.33-9.69-16.99-12.7l8.5-29.62c.96.78,18.19,11.01,21.24,12.7Z"/><path class="cls-15" d="M325.71,11.08c4.15,3.27,7.61-7.64,8.5,12.7.47,10.79-.3,15.48-4.25,25.39-6.37,16-22.79,29.86-30.58,43.6-11.55,20.36-33.82,65.93-37.39,87.6-6.48-10.33-19.93,1.8-27.16-.3-5.42-1.57-5.27-11.65-9.75-12.67-7.79-1.77-16.83,3.99-24.16,3.28-8.19-.79-20.14-11.76-32.39-7.23-6.36-17.17-15.17-39.33-25.49-55.02,9.14-13.58,5.46-26.97,16.99-42.32,4.95,1.03,12.55-1.23,16.99,0,.74.2,12.16,7.97,12.75,8.46.54.45-1.27,6,.68,7.68,3.94,3.39,37.92-6.67,47.47-4.26l2.83-3.42c12.42,1.23,26.74,4.3,38.24,4.23,7.16-.04,9.82,2.05,8.52-6.3.21-4.36-6.06-1.32-8.52-2.16-4.17-1.43-8.56-2.91-12.75-4.23l25.47-21.14-38.21,12.67c-2.43-1.55-26.69.73-33.99,0v-8.46c2.82.1,5.67-.03,8.5,0,43.19.41,65.42-10.26,97.72-38.09Z"/><path class="cls-10" d="M334.21,142.28c.61-10.92,7.2-31.49,8.46-44.48,1.53-15.83-1-32.67.06-48.61,10.17-2.37,6.89,1.81,9.45,5.51,12.45,17.95,12.97,26.62,20.26,45.25-1.58,17.49,2.24,38.1,0,55.02-2.45,18.54-15.11,57.84-21.63,77.08-1.54,4.55-6.53.51-8.11,11.8h-4.25c-14.27-19.58-.17-37.48.13-57.36.21-14.01-5.32-27.35-4.38-44.21Z"/><path class="cls-11" d="M402.18,383.5c-.19,2.77.39,5.78,0,8.46h-12.75c-.06-2.81.2-5.67,0-8.46h12.75Z"/><path class="cls-10" d="M402.18,391.97c-.36,2.53.75,7.83.01,8.46-1.28,1.09-9.52-.63-12.76,0,.13-1.39-.06-2.83,0-4.23s.03-2.83,0-4.23h12.75Z"/><path class="cls-11" d="M346.95,11.08v4.23c-12.03,1.84-12-6.19,0-4.23Z"/><path class="cls-12" d="M291.72,400.43c14.47,3.7,63.83,5.6,63.91,23.28.08,16.95-50.56,11.32-60.77,6.18-5.08-2.56-2.61-7.8-3.14-8.3.54-6.95-.79-14.27,0-21.16Z"/><path class="cls-11" d="M334.21,353.88c9.98.23,49.56,7.73,54.5,13.49,2.41,2.81.3,8.3.73,11.9-16.34-9.35-30.81-6.27-46.73-8.46-2.72-.38-5.74.3-8.5,0l-4.25-16.93c1.37-.13,2.86-.03,4.25,0Z"/><path class="cls-1" d="M389.44,379.27c.17,1.38-.1,2.83,0,4.23.2,2.79-.06,5.66,0,8.46.03,1.4.06,2.83,0,4.23-9.24.52-12.77-9.15-20.04-11.79-10.24-3.72-27.1,4.54-26.69-13.6,15.92,2.2,30.39-.89,46.73,8.46Z"/><path class="cls-1" d="M317.21,273.47l-12.75,12.7c-2.17-.81-7.67.81-8.47-.02-9.62-10.04,16.91-11.13,21.22-12.67Z"/><path class="cls-12" d="M79.3,396.2c-24.81-2.23-18.94-7.16-33.99-16.93-.45-2.65.67-6.27,0-8.46,15.51-1.31,25.6,14.4,33.99,25.39Z"/><path class="cls-3" d="M172.76,201.53c18.09,3.11,36.7,5.84,54.24,11.45,4.76,1.52,4.15,7.86,8.44,9.43,7.47,2.73,22,1.71,30.78,4.51-.11,4.07.67,9.12,0,12.7-3.96,21.04-47.47,18.12-65.3,16.38-11.04-1.07-18.76-5.22-28.17-7.92,4.34-15.04.18-30.61,0-46.55Z"/><path class="cls-6" d="M236.49,345.42c-1.23,1.06,3.07,19.89-14.89.01-9.87,23.18-9.76.82-10.69.14-9.01-6.62-7.87,8.05-10.87,8.5-3.05.46-8.53-4.58-10.29-4.42-.2-3.63,3.29-6.17,4.25-8.46l2.08,4.15,19.19-8.44-4.28-12.63c16.41-1.08,17.54,9.74,25.49,21.16Z"/><path class="cls-8" d="M143.02,349.65c-.74,6.7,2.81,9.84-6.33,8.49-3.97.12-1.89-5.55-2.17-8.49-.76-8.05,5.88-59.42,10.62-59.29,4.11,18.73,0,40.05-2.12,59.29Z"/><path class="cls-11" d="M321.46,353.88c-.8.32-4.38,8.1-8.5,8.46-5.54-3.02-9.86-8.32-16.99-8.46.43-4.42-2.04-17.08,2.17-16.97l23.32,16.97Z"/><path class="cls-11" d="M211,324.26l4.28,12.63-19.19,8.44-2.08-4.15c3.98-9.55,3.19-16.02,16.99-16.93Z"/><path class="cls-1" d="M329.96,353.88l4.25,16.93c-14.22-1.55-11.92-3.38-21.24-8.46,4.11-.37,7.69-8.15,8.5-8.46,1.72-.68,5.79.25,8.5,0Z"/><path class="cls-1" d="M172.76,193.06c19.84-5.43,26.14-11.39,47.67-3.83,3.45,1.21,3.36,7.25,6.3,7.92,10.25,2.34,24.27-1.2,35.25.15.21,5.96,4.6,16.64,4.25,29.62-8.78-2.8-23.32-1.78-30.78-4.51-4.3-1.57-3.69-7.91-8.44-9.43-17.54-5.61-36.15-8.34-54.24-11.45-.03-2.81.16-5.67,0-8.46Z"/><path class="cls-10" d="M168.51,163.44c12.26-4.52,24.2,6.44,32.39,7.23,7.33.71,16.37-5.05,24.16-3.28,4.48,1.02,4.33,11.1,9.75,12.67,7.23,2.1,20.68-10.03,27.16.3-.76,4.63-.18,11.81,0,16.93-10.98-1.35-25.01,2.2-35.25-.15-2.94-.67-2.85-6.71-6.3-7.92-21.52-7.55-27.82-1.6-47.67,3.83-.9-15.51,3.22-9.48-4.25-29.62Z"/><path class="cls-8" d="M138.77,57.64c10.32,5.71,10.24,6.17,21.24,8.46-11.54,15.35-7.85,28.74-16.99,42.32-2.2-3.35-14.01-18.01-16.99-21.16,12.18-4.06,6.46-19.98,12.75-29.62Z"/><path class="cls-12" d="M219.5,57.64c7.29.73,31.56-1.55,33.99,0,3.5,2.24-6.94,2.24,12.75,8.46,4.18,1.32,8.57,2.81,12.75,4.23v8.46c-11.5.07-25.81-3-38.24-4.23-1.51-.15-6.82-4-14.35-4.54-11.68-.84-26.01-1.02-36.64,4.54-.59-.49-12.01-8.26-12.75-8.46v-12.7c12.59,1.72,29.06,2.89,42.48,4.23Z"/><path class="cls-1" d="M240.74,74.56l-2.83,3.42c-9.55-2.41-43.53,7.65-47.47,4.26-1.95-1.67-.13-7.22-.68-7.68,10.63-5.55,24.95-5.37,36.64-4.54,7.53.54,12.84,4.39,14.35,4.54Z"/><path class="cls-1" d="M253.48,57.64l38.21-12.67-25.47,21.14c-19.68-6.22-9.24-6.23-12.75-8.46Z"/><path class="cls-1" d="M278.98,70.33c2.46.84,8.73-2.2,8.52,2.16,1.3,8.35-1.36,6.26-8.52,6.3v-8.46Z"/></g></svg>