<?xml version="1.0" encoding="UTF-8"?><svg id="Capa_2" xmlns="http://www.w3.org/2000/svg" viewBox="0 0 710.27 387.8"><defs><style>.cls-1{fill:#272db8;}.cls-2{fill:#1e1db4;}.cls-3{fill:#9aa2c8;}.cls-4{fill:#5a77ce;}.cls-5{fill:#6b8de8;}.cls-6{fill:#e1e0e6;}.cls-7{fill:#7894e6;}.cls-8{fill:#294bc1;}.cls-9{fill:#3562dc;}.cls-10{fill:#e7e5e8;}.cls-11{fill:#5183eb;}.cls-12{fill:#3352cf;}.cls-13{fill:#8aa3eb;}.cls-14{fill:#8089ba;}.cls-15{fill:#8891c1;}.cls-16{fill:#d4d3de;}.cls-17{fill:#aeb3cc;}.cls-18{fill:#1340af;}.cls-19{fill:#140bb0;}.cls-20{fill:#efedec;}</style></defs><g id="Layer_1"><path class="cls-7" d="M506.49,33.06c-2.79,30.5,10.51,8.55,15.59,7.76,6.29-.98,16.68-.61,23.38,0,17.82,1.62,35.77,12.51,54.56,15.53.85,8.64,3.51,34.24,9.03,37.8,11.61,7.48,36.26-10.92,29.94,16.54-55.5,6.25-102.91,7.51-155.87,7.76,18.97-16.36,58.1-3.74,70.14-30.98-35.22-5.47-68.02,4.85-101.32,7.69-44.09,3.75-88.55,4.53-132.49,7.76-31.85-17.35-77.13-8.83-113.65-8.07-9.99.21-17.82,8.06-18.84,8.07-18.06.11-58.28-27.51-62.31-23.25-19.38,20.51,36.91,44.38,54.51,46.54.77,4.62,6.04,10.5,7.79,15.53-43.71,2.58-93.97,0-140.29-7.76C10.85,127.97,2.8,112.43.41,74.64c-2.32-36.59,4.95-27.85,30.68-33.83-3.96,7.16-7.29,15.01-7.79,23.29-.31,5.14.09,10.37-.04,15.49,9.4,7.14,149.15-20.54,175.47-23.18,88.56-8.88,181.99-16.43,268.81-23.37,11.74-.94,27.23-.94,38.97,0Z"/><path class="cls-17" d="M436.35,258.2l210.43,31.05c-2.63,13.1,1.38,33.82-9.6,44.78-11.26,11.23-32.49,6.62-44.95,9.57-24.42-3.62-20.87-23.15-25.9-28.32-4.59-4.71-12.2-1.9-13.07-2.73-1.94-1.86,7.04-13.84-11.15-16.18-77.11-9.88-152.7,10.97-226.25,16.47-29.2,2.19-146.01-8.17-158.69,9.24-4.62,6.34.29,17.61-1.38,21.51-1.87,4.38-5.4,10.89-7.79,15.53-2.34,4.53-8.11,8.61-7.79,15.53-7.79.06-15.59-.04-23.38,0-36.54-16.47-41.86-14.08-54.56-54.34,15.34-36.39,45.29,5.41,65.33-.52,3.18-.94,31.02-37.36,51.57-38.3,12.88-.84,26.04.55,38.97,0,22.9-.98,30.39-4.93,46.76-7.76,12.73-2.2,26.28-5.05,38.97-7.76,14.96,21.67,43.98,1.06,54.56,0,26.38-2.65,51.48-4.49,77.94-7.76Z"/><path class="cls-15" d="M553.26,312.54c.87.84,8.48-1.98,13.07,2.73,5.03,5.17,1.48,24.7,25.9,28.32-86.91,20.56-161.86,23.93-249.4,31.05-26.32-13.59-68.26-8.8-97.77-7.77-15,.52-31.28-7.92-26.93,15.53-7.78.22-15.6-.2-23.38,0-6.6-12.5-26.47-7.41-38.97-7.76l-7.79-15.53c2.39-4.64,5.92-11.15,7.79-15.53l397.48-31.05Z"/><path class="cls-18" d="M451.94,95.16c-.63,7.64.93,15.73,0,23.29,10.39-.1,20.79.05,31.17,0,52.96-.26,100.37-1.51,155.87-7.76,14.79-1.67,30.33-10.49,46.76-7.76-5.1,8.34,1.4,17.22-23.38,23.29-17.47.28-42.23,5.76-62.35,7.76-28.9,2.88-53.32,11.92-77.94,15.53-9.5,1.39-21.04-.64-31.17,0-10.18.65-25.67-4.18-31.17,7.76-19.55-1.28-42.6-.83-62.35,0-11.51.49-22.1-2.02-31.17,7.76-17.91-1.3-36.53.31-54.56,0-66.28-1.14-136.59-2.5-202.64,0-5.16.2-10.46-.41-15.59,0-3.32-7.14-10.68-5.64-15.59-7.76-10.62-4.59-20.62-10.76-31.17-15.53v-7.76c46.31,7.77,96.58,10.34,140.29,7.76,22.17-1.31,59.91-7.76,74.04-7.76h140.29c2.57,0,48.4-6.75,50.73-7.83.89-.42-.38-5.13-.07-7.69-64.78.64-130.11-1.71-194.84,0h-77.94c1.36-4.94.66-7.41,7.79-7.76,44.58,2.95,88.35-4.51,132.49-7.76,43.95-3.24,88.4-4.01,132.49-7.76Z"/><path class="cls-10" d="M77.84,157.27c-3.17,30.8,12.44,8.02,15.59,7.76,5.13-.41,10.42.2,15.59,0-3.35,43.67-14.13,80.45,0,124.22-25.28-1.78-19.7-34.27-54.56-23.29-7.3-39.88-29.28-83.16-7.79-124.22,10.56,4.77,20.55,10.93,31.17,15.53Z"/><path class="cls-20" d="M600.02,133.98c-20.39,55.69,54.96,60.2,62.33,69.95,5.97,7.9-7.66,21.81-7.78,23.22-27.66-22.03-90.31-73.14-85.73,0-12.89-1.39-10.68-.35-15.59,7.76-4.57,1.02-12.88-1.52-15.59,0,.63-5.9-7.41-12.99-7.79-15.53-4.44-29.58,22.52-57.5-7.79-69.87,24.62-3.61,49.03-12.65,77.94-15.53Z"/><path class="cls-16" d="M568.84,227.14c18.55,2.01,62.03,29.27,85.73,31.05-1.77,13.17-5.81,21.19-7.79,31.05l-210.43-31.05c33.54-4.15,58.78-5.56,93.52-7.76,37.22-2.37,16.04-3.39,23.38-15.53,4.91-8.11,2.69-9.16,15.59-7.76Z"/><path class="cls-19" d="M428.56,9.76c49.27-.01,98.81,0,148.08,0-.11,11.92-13.36,7.02-23.38,7.76-20.54,1.53-41.81-1.5-62.35,0-32.09,4.02-74.94-9.45-101.32,7.76-19.86-.56-42.9-1.51-62.35,0l-7.79,7.76c-15.44.98-31.38-1.28-46.76,0l-23.38-15.53c62.28-4.53,115.78-7.75,179.25-7.76Z"/><path class="cls-6" d="M654.57,227.14c-.82,10.1,1.32,21.24,0,31.05-23.7-1.79-67.18-29.05-85.73-31.05-4.58-73.14,58.07-22.03,85.73,0Z"/><path class="cls-16" d="M54.46,265.96c34.85-10.98,29.27,21.51,54.56,23.29,13.91.98,27.01-6.87,38.97-7.76,13.46-1,25.73.36,31.17,0-20.55.94-48.4,37.36-51.57,38.3-20.04,5.93-49.99-35.87-65.33.52-8.02-25.44-4.06-33.93-7.79-54.34Z"/><path class="cls-5" d="M701.34,95.16c-8.93-1.34-11.22.61-15.59,7.76-16.44-2.72-31.97,6.1-46.76,7.76,6.32-27.46-18.33-9.06-29.94-16.54-5.52-3.56-8.18-29.17-9.03-37.8,7.2,1.16,15.85-.77,23.38,0,3.88,3.7,5.5,10.04,12.7,14.56,9.25,5.81,17.67,5.61,26.27,8.73l7.79,7.76c4.36.99,10.52-.4,15.55-.04l-.02-11.5-31.11-35.04c21.82,10.3,42.75,11.02,51.47,39.08,3.05,9.82-4.82,14.47-4.71,15.27Z"/><path class="cls-2" d="M163.57,25.29l31.17,15.53c-57.17,6.72-114.03,18.52-171.46,23.29.5-8.28,3.83-16.13,7.79-23.29,37.46-8.7,92.15-11.04,132.49-15.53Z"/><path class="cls-12" d="M638.99,33.06l7.79,7.76c2.39.87,5.77-.95,7.79,0l31.11,35.04.02,11.5c-5.02-.36-11.19,1.03-15.55.04-.98-.22-3.73-6.29-7.79-7.76-8.59-3.12-17.02-2.93-26.27-8.73-7.19-4.52-8.82-10.86-12.7-14.56-24.74-23.54-5.68-10.12-7.79-23.29,4.36.73,7.23-4.38,23.38,0Z"/><path class="cls-14" d="M342.83,374.65c-41,3.34-81.23,6.55-124.7,7.76-4.35-23.46,11.93-15.01,26.93-15.53,29.51-1.03,71.45-5.82,97.77,7.77Z"/><path class="cls-4" d="M576.64,9.76c-49.27,0-98.81-.01-148.08,0,42.22-13.06,107.57-12.98,148.08,0Z"/><path class="cls-8" d="M701.34,95.16c1.49,10.54,12.51,24.26,7.75,38.78-16.09,1.16-30.8-7.98-46.72-7.73,24.78-6.07,18.28-14.95,23.38-23.29,4.37-7.15,6.66-9.11,15.59-7.76Z"/><path class="cls-19" d="M233.72,17.53v15.53c-14.41,1.51-26.71,6.32-38.97,7.76l-31.17-15.53c23.7-2.63,46.07-5.88,70.14-7.76Z"/><path class="cls-14" d="M140.19,374.65c5.19-.04,10.41-.15,15.59,0,12.5.36,32.37-4.74,38.97,7.76-42.69,1.11-26.48,15.44-77.94-7.76,7.79-.04,15.59.06,23.38,0Z"/><path class="cls-2" d="M249.3,17.53l23.38,15.53c-16.4,1.36-36.42-.27-38.97,0v-15.53c5.14-.4,10.44.37,15.59,0Z"/><path class="cls-1" d="M615.61,33.06c-18.51-3.12-36.06-5.16-54.56-7.76-3.65-.51-7.04-3.99-7.79-7.76,10.02-.74,23.27,4.16,23.38-7.76,8.22,2.63,37.8,16,38.97,23.29Z"/><path class="cls-5" d="M646.78,40.82l-7.79-7.76c3.44.93,6,7.11,7.79,7.76Z"/><path class="cls-11" d="M389.59,25.29c7.72.22,15.73-.7,23.38,0,10.7.98,34.98,15.51,54.56,7.76-86.82,6.94-180.24,14.49-268.81,23.37-26.32,2.64-166.08,30.31-175.47,23.18.13-5.11-.27-10.35.04-15.49,57.43-4.77,114.29-16.57,171.46-23.29,12.26-1.44,24.56-6.25,38.97-7.76,2.54-.27,22.56,1.36,38.97,0,15.38-1.28,31.32.98,46.76,0,2.08-.13,5.89-7.62,7.79-7.76,19.45-1.51,42.49-.56,62.35,0Z"/><path class="cls-13" d="M451.94,118.45c-.31,2.56.96,7.27.07,7.69-2.32,1.09-48.16,7.83-50.73,7.83h-140.29c-14.13,0-51.87,6.46-74.04,7.76-1.75-5.02-7.03-10.9-7.79-15.53,30.98,3.81,58.22-7.24,77.94-7.76,64.73-1.71,130.06.64,194.84,0Z"/><path class="cls-8" d="M451.94,95.16c33.29-2.83,66.09-13.15,101.32-7.69-12.05,27.23-51.17,14.62-70.14,30.98-10.39.05-20.78-.1-31.17,0,.93-7.56-.63-15.65,0-23.29Z"/><path class="cls-9" d="M553.26,17.53c.76,3.77,4.14,7.25,7.79,7.76l-15.59,15.53c-6.7-.61-17.09-.98-23.38,0-2.08-7.58-8.99-7.23-15.59-7.76-11.74-.94-27.23-.94-38.97,0-19.58,7.75-43.86-6.78-54.56-7.76,19.47-1.34,39.61,2.17,59.06.32,10.01-.95,17.77-8,18.88-8.08,20.54-1.5,41.81,1.53,62.35,0Z"/><path class="cls-13" d="M319.45,102.93c-44.14,3.25-87.91,10.71-132.49,7.76v-7.76c1.03,0,8.85-7.86,18.84-8.07,36.52-.76,81.8-9.28,113.65,8.07Z"/><path class="cls-11" d="M615.61,33.06c2.12,13.17-16.95-.25,7.79,23.29-7.54-.77-16.18,1.16-23.38,0-18.79-3.02-36.73-13.91-54.56-15.53l15.59-15.53c18.5,2.6,36.05,4.65,54.56,7.76Z"/><path class="cls-12" d="M186.95,102.93v7.76c-7.14.36-6.43,2.82-7.79,7.76-.51,1.87-.33,5.78,0,7.76-17.61-2.17-73.9-26.04-54.51-46.54,4.02-4.26,44.25,23.36,62.31,23.25Z"/><path class="cls-11" d="M522.08,40.82c-5.07.79-18.38,22.74-15.59-7.76,6.6.53,13.51.19,15.59,7.76Z"/><path class="cls-6" d="M529.88,219.38c.38,2.54,8.43,9.63,7.79,15.53-7.96,4.46-8.98,5.87-7.79,15.53-34.75,2.21-59.98,3.61-93.52,7.76-26.46,3.27-51.56,5.11-77.94,7.76-16.03-20.49-40.45-3.02-54.56,0-12.69,2.72-26.24,5.56-38.97,7.76-13.74-13.14-55.14-15.63-46.76,7.76-12.93.55-26.08-.84-38.97,0-5.45.36-17.71-1-31.17,0-6.32-15.97,7.31-36.4,7.79-46.58l89.63-15.53h116.91c3.06,0,12.84-8.35,23.41-8.41,42.66-.21,97.26,16.97,144.16,8.41Z"/><path class="cls-3" d="M155.78,343.6c1.67-3.9-3.25-15.17,1.38-21.51,12.68-17.41,129.49-7.06,158.69-9.24,73.56-5.51,149.14-26.36,226.25-16.47,18.19,2.33,9.22,14.32,11.15,16.18l-397.48,31.05Z"/><path class="cls-16" d="M358.42,265.96c-10.57,1.06-39.6,21.67-54.56,0,14.1-3.02,38.53-20.49,54.56,0Z"/><path class="cls-16" d="M264.89,273.72c-16.37,2.83-23.86,6.78-46.76,7.76-8.38-23.39,33.02-20.91,46.76-7.76Z"/><path class="cls-3" d="M155.78,374.65c-5.18-.15-10.4-.04-15.59,0-.32-6.92,5.46-11,7.79-15.53l7.79,15.53Z"/><path class="cls-10" d="M522.08,149.51c30.32,12.37,3.35,40.3,7.79,69.87-46.9,8.57-101.5-8.61-144.16-8.41-10.57.05-20.35,8.41-23.41,8.41h-116.91l-89.63,15.53c1.13-23.85-14.01-33.21-15.55-54.3,35.05.72,70.38-1,105.5-.4,23.7.4,63.12,25.06,65.93-15.17,18.03.31,36.64-1.3,54.56,0,7.28.53,35.87,25.31,31.17-7.76,19.75-.83,42.8-1.28,62.35,0,7.62.5,33.07,24.85,31.17-7.76,10.13-.64,21.67,1.39,31.17,0Z"/><path class="cls-20" d="M311.65,165.03c-2.8,40.23-42.22,15.58-65.93,15.17-35.12-.6-70.45,1.11-105.5.4,1.54,21.09,16.68,30.45,15.55,54.3-.48,10.18-14.12,30.61-7.79,46.58-11.96.89-25.06,8.74-38.97,7.76-14.13-43.76-3.35-80.55,0-124.22,66.04-2.5,136.35-1.14,202.64,0Z"/><path class="cls-20" d="M490.91,149.51c1.89,32.62-23.56,8.26-31.17,7.76,5.51-11.95,20.99-7.12,31.17-7.76Z"/><path class="cls-20" d="M397.38,157.27c4.69,33.07-23.89,8.29-31.17,7.76,9.07-9.79,19.67-7.28,31.17-7.76Z"/><path class="cls-20" d="M93.43,165.03c-3.15.25-18.76,23.04-15.59-7.76,4.91,2.12,12.27.62,15.59,7.76Z"/><path class="cls-10" d="M553.26,234.91c-7.34,12.13,13.84,13.16-23.38,15.53-1.19-9.65-.16-11.07,7.79-15.53,2.71-1.52,11.01,1.02,15.59,0Z"/><path class="cls-1" d="M490.91,17.53c-1.11.08-8.87,7.13-18.88,8.08-19.45,1.85-39.59-1.66-59.06-.32-7.65-.7-15.66.22-23.38,0,26.38-17.21,69.23-3.75,101.32-7.76Z"/><path class="cls-9" d="M319.45,33.06l7.79-7.76c-1.9.15-5.71,7.63-7.79,7.76Z"/><path class="cls-11" d="M670.16,87.4l-7.79-7.76c4.07,1.48,6.81,7.54,7.79,7.76Z"/><path class="cls-4" d="M257.1,118.45c-19.72.52-46.96,11.57-77.94,7.76-.33-1.98-.51-5.9,0-7.76h77.94Z"/></g></svg>